<svg height="511pt" viewBox="-74 0 511 511.99969" width="511pt" xmlns="http://www.w3.org/2000/svg"><path d="m210.527344 322.621094c-7.351563-11.449219-15.558594-22.511719-24.398438-32.890625l-3.082031-3.617188 4.09375-2.417969c.6875-.410156 1.351563-.878906 1.917969-1.285156l17.8125-12.71875c5.210937-3.714844 11.121094-7.929687 15.789062-13.078125l9.363282-10.332031-2.460938 13.722656c-3.671875 20.449219-7.625 41.058594-11.75 61.253906l-1.96875 9.640626zm0 0" fill="#fff"/><path d="m138.277344 316.921875c-2.058594-18.804687-3.5625-38.609375-4.457032-58.867187l-.492187-11.105469 7.453125 8.246093c2.128906 2.355469 4.660156 4.460938 7.808594 6.902344 8.984375 6.964844 18.335937 13.683594 27.78125 19.972656l.980468.632813 4.601563 3.023437-4.292969 3.441407c-11.503906 9.222656-22.433594 19.332031-32.484375 30.054687l-5.949219 6.34375zm0 0" fill="#fff"/><path d="m193.441406 337.691406.972656-1.460937c.6875-1.03125 1.125-2.25 1.414063-3.0625l7.679687-21.046875 4.378907 6.582031c2.050781 3.085937 4.011719 6.148437 5.828125 9.101563l1.160156 1.894531-1.03125 2.066406c-2.746094 7.023437-5.9375 14.09375-9.480469 21.015625l-4.890625 9.5625zm0 0" fill="#d8deec"/><path d="m157.027344 353.035156c-5.6875-8.121094-11.011719-16.65625-15.824219-25.375l-1.382813-2.5 1.921876-2.121094c4.398437-4.851562 9.121093-9.730468 14.035156-14.5l5.148437-5 6.324219 28.699219c.21875 1.007813.539062 2.507813 1.230469 3.789063l.855469 1.578125-7.898438 21.71875zm0 0" fill="#d8deec"/><path d="m175.003906 338.816406c-1.925781 0-3.503906-.070312-4.828125-.949218-1.738281-1.148438-2.34375-3.300782-2.855469-5.585938l-6.308593-28.691406 1.707031-1.558594c5.472656-4.988281 11.082031-9.753906 16.679688-14.171875l3.007812-2.375 2.5 2.902344c6.019531 6.988281 11.847656 14.429687 17.324219 22.109375l1.4375 2.015625-1.199219 2.257812-6.6875 18.359375c-.664062 1.8125-1.253906 3.246094-2.453125 4.238282-1.605469 1.324218-3.8125 1.429687-6.125 1.429687l-12.195313.023437h-.003906zm0 0" fill="#d34242"/><path d="m180.460938 382.214844c-6.160157-6.699219-12.117188-13.859375-17.710938-21.28125l-1.65625-2.199219 1.460938-2.332031 6.613281-18.167969 3.246093.5c.816407.125 1.621094.140625 2.371094.140625l12.425782-.007812c.847656-.011719 1.785156-.019532 2.742187-.148438l3.550781-.464844 5.386719 21.929688.570313 1.714844-.910157 1.5625c-3.644531 6.253906-7.644531 12.4375-11.894531 18.375l-2.863281 4zm0 0" fill="#d34242"/><path d="m188.140625 450.289062c16.898437-65.691406 31.394531-132.769531 43.09375-199.375l1.921875-10.949218 36.054688 63.445312c1.894531 3.328125 3.808593 7.171875 2.523437 10.71875-1.105469 3.027344-4.179687 4.804688-7.230469 6.363282l-18.800781 9.652343c-4.222656 2.15625-8.558594 4.960938-8.761719 9.40625-.164062 3.535157 2.425782 6.289063 4.925782 8.953125.65625.699219 1.386718 1.46875 2.042968 2.242188 6.742188 8.023437 6.445313 19.398437 3.929688 27.375-2.816406 8.972656-8.3125 16.46875-14.679688 24.644531-2.71875 3.480469-5.453125 6.945313-8.195312 10.421875-10.160156 12.855469-20.667969 26.148438-29.566406 40.238281zm0 0" fill="#5b8baf"/><path d="m158.402344 450.558594c-14.925782-19.121094-32.210938-41.835938-47.246094-65.347656-5.082031-7.941407-10.015625-16.472657-9.71875-25.78125.386719-12.597657 10.007812-22.605469 19.828125-31.777344l-28.527344-10.769532c-2.6875-1.015624-5.59375-2.316406-6.367187-5.023437-.613282-2.03125.203125-4.101563 1.726562-6.765625 10.984375-19.242188 23.910156-37.566406 38.421875-54.480469l6.632813-7.730469.402344 10.175782c.9375 23.847656 2.691406 46.96875 5.207031 68.71875l.074219.667968-.144532.65625.304688.613282.070312.6875c5.371094 45.097656 13.96875 85.148437 26.289063 122.441406zm0 0" fill="#5b8baf"/><path d="m174.742188 472.691406c-15.300782-38.898437-26.117188-81.070312-33.066407-128.917968l7.351563-2.699219c10.039062 16.039062 21.722656 31.09375 34.726562 44.753906-.019531.003906-.050781.007813-.082031.011719l.097656-.003906c6.84375-9.078126 13.042969-18.769532 18.453125-28.816407l7.429688 2.757813c-8.269532 37.636718-17.460938 75.480468-27.324219 112.480468l-3.132813 11.757813zm0 0" fill="#af7979"/><path d="m207.710938 507.929688c-8.34375 0-16.574219-.023438-24.46875-.070313l-3.683594-.023437-.28125-3.671876c-.519532-6.734374-.5-13.496093.046875-20.09375v-.414062l.050781-.191406.027344-.3125.128906-.265625c.265625-.976563.53125-1.953125.785156-2.921875l.484375-1.832032 1.726563-.789062c10.390625-23.519531 26.671875-44.117188 42.417968-64.042969l3.207032 2.398438-3.140625-2.480469c2.746093-3.472656 5.484375-6.941406 8.199219-10.421875 6.128906-7.859375 11.863281-15.664063 14.699218-24.664063 3.203125-10.203124 1.695313-20.710937-3.9375-27.414062-.648437-.765625-1.359375-1.523438-2.03125-2.230469-2.511718-2.664062-5.105468-5.410156-4.933594-8.949219.203126-4.378906 4.519532-7.179687 8.714844-9.339843l18.816406-9.652344c2.4375-1.257813 6.066407-3.132813 7.253907-6.40625 1.394531-3.851563-1.054688-8.167969-2.515625-10.746094l-30.28125-53.292969 5.816406-5.222656c6.484375 4.671875 13.089844 9.351563 19.300781 13.742188l.636719.449218c9.863281 6.976563 20.058594 14.191407 29.726562 21.363282 15.667969 11.597656 31.875 23.597656 42.628907 40.484375 15.199219 23.878906 16.816406 53.570312 18.242187 79.761719l4.257813 78.488281c.511719 9.292969.089843 18.589843-6.371094 23.632812-4.332031 3.390625-10.003906 3.753907-16.429687 3.855469-13.515626.199219-27.085938.402344-40.710938.582031l-4.003906.050781-.046875-4.003906c-.472657-40.226562.398437-80.867187 2.585937-120.789062-2.253906 39.980468-3.128906 80.621094-2.65625 120.804687l.046875 3.996094-3.996093.046875c-31.246094.398438-56.765626.585938-80.3125.585938zm0 0" fill="#3a6082"/><path d="m175.140625 507.796875c-41.566406-.339844-78.785156-1.386719-113.785156-3.203125l-3.78125-.195312-.011719-3.789063c-.121094-39.78125 1.082031-79.964844 3.570312-119.441406-2.539062 39.261719-3.738281 79.296875-3.628906 118.988281l.011719 4.246094-4.238281-.242188c-4.898438-.277344-9.789063-.558594-14.675782-.871094-12.300781-.777343-25.632812-2.949218-31.25-13.140624-3-5.449219-2.972656-11.703126-2.644531-18.726563 1.148438-24.59375 3.550781-49.410156 7.140625-73.765625 3.335938-22.6875 7.375-41.234375 16.230469-58.023438 13.1875-25.003906 35.214844-41.371093 58.539063-58.703124 5.546874-4.117188 10.136718-7.539063 14.835937-11.183594l5.707031 5.484375c-6.941406 9.734375-13.371094 19.765625-19.113281 29.820312-.984375 1.730469-2.476563 4.339844-1.734375 6.859375.875 2.953125 4.464844 4.300782 6.398438 5.023438l28.359374 10.675781-4.417968 4.386719c-7.363282 7.3125-14.9375 16.289062-15.28125 27.4375-.292969 9.316406 4.648437 17.863281 9.734375 25.820312 18.488281 28.917969 40.082031 56.316406 60.96875 82.8125l1.050781.679688.511719 1.246094c1.589843 4.132812 3.308593 8.40625 5.265625 13.070312l.371094.886719-.070313.960937c-.46875 6.210938-.480469 12.46875-.039063 18.601563l.3125 4.324219zm0 0" fill="#3a6082"/><g fill="#ffdac4"><path d="m269.296875 169.035156c-2.527344 0-4.980469-.394531-7.28125-1.179687l-3.402344-1.160157.789063-3.507812c.832031-3.683594 1.613281-7.421875 2.367187-11.035156l.25-1.203125-.523437-1.929688 1.21875-1.582031c1.132812-1.449219 1.945312-3.34375 2.351562-5.480469.328125-1.664062.425782-3.296875.53125-5.027343.09375-1.566407.191406-3.242188.464844-4.851563.628906-3.5625 2.207031-6.289063 4.445312-7.695313l1.605469-1.011718 1.640625.554687c8.199219 1.574219 15.460938 8.226563 17.703125 16.257813 2.273438 8.105468-.550781 17.660156-6.863281 23.234375-4.03125 3.570312-9.609375 5.617187-15.296875 5.617187zm0 0"/><path d="m187.519531 238.832031c-1.933593 0-3.902343-.074219-5.84375-.226562-28.074219-2.199219-54.109375-20.003907-66.332031-45.363281-5.820312-12.058594-8.554688-25.542969-10.644531-38.320313l-.742188-4.511719 4.570313-.132812c1.453125-.039063 3.03125-.746094 4.699218-2.097656l2.980469-2.417969 2.539063 2.882812c1.46875 1.667969 3.074218 3.140625 4.773437 4.386719 5.164063 3.769531 11.757813 5.847656 18.554688 5.847656 4.753906 0 9.390625-1.035156 13.410156-2.988281 10.234375-4.957031 15.445313-12.902344 16.414063-25l.269531-3.382813 3.382812-.285156c3.96875-.335937 8.054688-.503906 12.144531-.503906.847657 0 1.691407.007812 2.539063.019531l3.660156.0625.261719 3.652344c.894531 12.515625 5.964844 20.359375 16.433594 25.4375 4.03125 1.953125 8.675781 2.988281 13.425781 2.988281 6.792969 0 13.378906-2.078125 18.550781-5.851562 1.679688-1.226563 3.285156-2.699219 4.765625-4.382813l2.542969-2.890625 2.984375 2.433594c1.597656 1.300781 3.132813 2.003906 4.554687 2.085938l4.628907.277343-.953125 4.539063c-2.78125 13.246094-5.960938 27.246094-11.535156 40.046875-4.8125 11.007812-13.683594 26.007812-28.660157 35-9.484375 5.691406-21.023437 8.695312-33.375 8.695312zm-15.5625-70.0625c-.011719 0-.023437.007813-.027343.011719l-30.113282 24.003906c8.925782 6.570313 20.3125 7.972656 32.171875 8.933594 5.515625.449219 11.390625.890625 17.246094.890625 3.59375 0 6.882813-.164063 10.050781-.5 9.945313-1.054687 18.394532-3.898437 25.132813-8.457031l.476562-.332032-.578125-.199218-.519531-.417969c-1.597656-1.179687-5.28125-4.570313-10.957031-10.074219-.472656-.464844-.8125-.785156-.960938-.925781-1.355468-1.285156-2.71875-2.84375-4.160156-4.496094-2.691406-3.097656-5.441406-6.265625-8.441406-7.953125-.671875-.375-1.453125-.558594-2.390625-.558594-1.972657 0-4.261719.792969-6.28125 1.492188-1.777344.609375-3.441407 1.179688-4.863281 1.3125-.980469.09375-1.972657.140625-2.949219.140625-4.476563 0-8.910157-.992187-12.816407-2.867187zm0 0"/><path d="m224.042969 158.851562c-4.714844 0-9.355469-1.042968-13.421875-3.015624-16.21875-7.863282-17.367188-22.644532-16.191406-37.445313l.289062-3.683594h3.699219c16.246093.011719 32.714843.792969 48.945312 2.328125 2.226563.207032 4.527344.539063 5.96875 2.109375.871094.9375 1.355469 2.1875 1.660157 4.296875 1.578124 11.082032-3.429688 22.945313-12.460938 29.527344-5.199219 3.792969-11.761719 5.882812-18.488281 5.882812zm0 0"/><path d="m172.019531 123.246094c-.09375-2.507813-.296875-5.230469-.644531-8.558594-1.082031-.035156-2.140625-.039062-3.195312-.039062-12.203126 0-24.511719.425781-36.574219 1.269531l-4.039063.28125-.234375-4.039063c-.230469-3.902344-.984375-7.683594-2.246093-11.234375-1.164063-3.242187-2.742188-6.398437-4.269532-9.449219-2.207031-4.414062-4.289062-8.582031-5.378906-13.242187-2.789062-12.007813 1.816406-24.074219 6.269531-35.746094.757813-1.96875 1.640625-4.289062 2.472657-6.613281.785156-2.195312 1.253906-4.207031 1.386718-5.980469l.113282-1.519531 1.097656-1.058594c14.800781-14.289062 35.050781-22.757812 55.554687-23.238281.621094-.015625 1.246094-.023437 1.867188-.023437 19.976562 0 40.015625 7.605468 54.96875 20.867187l1.46875 1.304687-.128907 1.957032c-.144531 2.113281.328126 4.703125 1.394532 7.695312.671875 1.871094 1.394531 3.773438 2.101562 5.632813l.371094.984375c4.453125 11.664062 9.058594 23.730468 6.269531 35.734375-1.089843 4.664062-3.171875 8.832031-5.378906 13.246093-1.527344 3.046876-3.101563 6.199219-4.261719 9.453126-1.269531 3.578124-2.027344 7.355468-2.242187 11.222656l-.226563 4.046875-4.046875-.28125c-12.074219-.84375-24.382812-1.269531-36.585937-1.269531-1.054688 0-2.113282 0-3.171875.007812-.355469 3.175781-.550781 5.761719-.648438 8.175781l-.148437 3.910157-3.914063-.066407c-.832031-.011719-1.660156-.019531-2.492187-.019531-3.722656 0-7.492188.144531-11.203125.429688l-4.148438.320312zm0 0"/><path d="m183.285156 284.832031c-2.433594 0-4.734375-1.394531-6.878906-2.824219-9.453125-6.292968-18.804688-13.007812-27.789062-19.96875-4.660157-3.609374-9.046876-7.261718-11.503907-12.199218-3.546875-7.148438-2.34375-15.507813-.699219-22.75l1.304688-5.730469 4.851562 3.316406c11.820313 8.074219 25.34375 12.910157 39.105469 13.984375 1.867188.15625 3.773438.230469 5.847657.230469 12.382812 0 23.929687-3.007813 33.402343-8.691406 1.023438-.617188 2.128907-1.34375 3.382813-2.230469l4.523437-3.191406 1.609375 5.296875c2.332032 7.667969-.386718 15.949219-3.707031 21.140625-4.964844 7.765625-12.550781 13.183594-19.886719 18.421875l-17.808594 12.71875c-1.421874 1.007812-3.015624 2.140625-4.855468 2.410156-.261719.042969-.578125.066406-.898438.066406zm0 0"/><path d="m142.039062 158.851562c-6.726562 0-13.292968-2.089843-18.488281-5.882812-9.03125-6.582031-14.039062-18.445312-12.464843-29.511719.3125-2.152343.804687-3.410156 1.699218-4.351562 1.390625-1.523438 3.699219-1.859375 5.941406-2.070313 16.222657-1.535156 32.691407-2.316406 48.9375-2.328125h3.695313l.292969 3.683594c.773437 9.761719.203125 16.625-1.851563 22.242187-2.464843 6.75-7.15625 11.722657-14.34375 15.203126-4.058593 1.972656-8.699219 3.015624-13.417969 3.015624zm0 0"/><path d="m96.796875 169.035156c-5.683594 0-11.265625-2.046875-15.308594-5.617187-6.3125-5.585938-9.132812-15.136719-6.867187-23.238281 2.261718-8.046876 9.546875-14.703126 17.753906-16.261719l1.703125-.492188 1.519531.964844c2.226563 1.410156 3.792969 4.132813 4.417969 7.664063.257813 1.453124.351563 2.945312.445313 4.390624l.023437.371094c.105469 1.851563.210937 3.484375.527344 5.144532.359375 1.882812 1.019531 3.542968 1.957031 4.929687l.5.734375.136719.882812c.769531 4.875 1.5625 9.917969 2.539062 14.988282l.675781 3.535156-3.445312 1.046875c-2.097656.632813-4.308594.957031-6.578125.957031zm0 0"/></g><path d="m257.71875 150.195312c-1.730469 0-3.519531-.851562-5.464844-2.609374l-2.328125-2.101563 1.488281-2.765625c3.261719-6.046875 4.554688-12.890625 3.640626-19.273438-.210938-1.476562-.574219-3.148437-1.660157-4.335937-1.578125-1.722656-4.148437-1.960937-6.023437-2.140625-1.632813-.144531-3.261719-.285156-4.90625-.425781l-3.859375-.328125.207031-3.871094c.210938-3.960938.964844-7.792969 2.246094-11.386719 1.164062-3.253906 2.667968-6.261719 4.257812-9.449219 2.113282-4.207031 4.292969-8.558593 5.382813-13.253906 2.796875-12.035156-1.808594-24.105468-6.261719-35.78125l-.203125-.535156c-.765625-2.011719-1.546875-4.074219-2.269531-6.066406-2.117188-5.898438-1.875-10.082032.71875-12.441406.832031-.769532 2.394531-1.707032 4.980468-1.707032 1.65625 0 3.585938.386719 5.578126 1.125 16.535156 6.101563 26.308593 22.34375 31.601562 34.898438 5.628906 13.375 10.894531 33.269531 4.03125 52.101562-1.433594 3.953125-4.789062 10.855469-11.125 12.570313-.800781.226562-1.648438.355469-2.585938.488281-1.402343.210938-2.753906.417969-4.007812 1.023438-2.589844 1.25-4.464844 4.207031-5.148438 8.117187-.28125 1.621094-.382812 3.296875-.46875 4.777344l-.007812.121093c-.101562 1.648438-.207031 3.355469-.53125 5.011719-.347656 1.8125-1.570312 6.238281-5.34375 7.851563-.597656.253906-1.253906.386718-1.9375.386718zm0 0" fill="#efb17c"/><path d="m191.222656 202.542969c-5.894531 0-11.742187-.433594-17.230468-.878907-9.171876-.746093-18.796876-1.804687-26.855469-5.71875l-5.707031-2.769531 30.453124-24.273437 2.136719.824218c3.410157 1.308594 7.042969 1.976563 10.796875 1.976563.972656 0 1.960938-.046875 2.9375-.136719 1.429688-.136718 3.171875-.738281 4.855469-1.320312 2.816406-.964844 4.726563-1.515625 6.25-1.515625.734375 0 1.390625.128906 2 .386719l.203125.085937.195312.109375c2.984376 1.683594 5.730469 4.84375 8.386719 7.902344l.183594.210937c1.328125 1.519531 2.703125 3.09375 3.996094 4.304688.152343.144531.503906.484375.984375.957031l.371094.355469c1.5625 1.515625 4.179687 4.050781 6.542968 6.21875.183594.160156.421875.378906.648438.585937l4.285156 3.914063-5.125 2.667969c-5.789062 2.914062-12.605469 4.804687-20.257812 5.613281-3.144532.335937-6.433594.5-10.050782.5zm0 0" fill="#efb17c"/><path d="m108.363281 150.195312c-.675781 0-1.328125-.128906-1.929687-.386718-.871094-.367188-1.671875-.925782-2.378906-1.65625l-.316407-.324219-.234375-.386719-.28125-.28125-.226562-.332031c-1.203125-1.804687-1.71875-3.835937-1.921875-4.886719-.320313-1.640625-.421875-3.347656-.523438-4.996094l-.015625-.214843c-.089844-1.542969-.183594-3.136719-.457031-4.671875-.679687-3.917969-2.558594-6.875-5.152344-8.128906-1.25-.605469-2.597656-.808594-4.015625-1.023438-.882812-.125-1.765625-.257812-2.609375-.496094-5.960937-1.613281-9.324219-7.71875-11.09375-12.558594-6.871093-18.851562-1.59375-38.742187 4.042969-52.109374 5.277344-12.546876 15.039062-28.789063 31.589844-34.898438 2.027344-.746094 3.90625-1.125 5.582031-1.125 2.574219 0 4.136719.933594 4.992187 1.71875 2.582032 2.367188 2.816407 6.542969.707032 12.421875-.726563 2.027344-1.523438 4.125-2.300782 6.171875l-.164062.433594c-4.460938 11.691406-9.066406 23.769531-6.273438 35.785156 1.074219 4.625 3.238282 8.964844 5.335938 13.164062l.046875.097657c1.589844 3.183593 3.09375 6.191406 4.257813 9.4375 1.273437 3.585937 2.035156 7.414062 2.257812 11.382812l.214844 3.882813-4.089844.347656c-1.570312.132812-3.136719.265625-4.695312.410156-1.871094.175782-4.445313.414063-6.023438 2.136719-1.085938 1.191406-1.449219 2.859375-1.660156 4.335937-.90625 6.378907.386718 13.226563 3.640625 19.277344l1.484375 2.761719-2.324219 2.101563c-1.945313 1.757812-3.734375 2.609374-5.464844 2.609374zm0 0" fill="#efb17c"/><path d="m363.667969 478.953125-4.265625-78.496094c-1.382813-25.371093-3.097656-56.945312-18.867188-81.71875-11.125-17.480469-28.398437-30.277343-43.636718-41.570312-9.917969-7.351563-20.347657-14.726563-30.4375-21.859375-10.050782-7.105469-20.441407-14.453125-30.28125-21.742188-.308594-.230468-.644532-.390625-.984376-.519531-.308593-2.5-.976562-4.898437-2.011718-7.121094 8.085937-7.441406 14.925781-17.324219 20.089844-29.167969 3.507812-8.042968 6.058593-16.402343 8.171874-24.808593 2.550782.785156 5.210938 1.171875 7.871094 1.171875 6.519532 0 13.046875-2.308594 17.96875-6.660156 7.554688-6.671876 10.804688-17.675782 8.082032-27.378907-1.757813-6.273437-5.933594-11.703125-11.34375-15.246093 3.640624-2.628907 6.589843-6.886719 8.671874-12.597657 7.3125-20.066406 1.800782-41.023437-4.113281-55.070312-5.59375-13.289063-16.019531-30.519531-33.933593-37.136719-5.984376-2.207031-11.152344-1.742188-14.585938 1.296875-16.03125-13.421875-36.890625-20.792969-57.828125-20.3046875-20.15625.4726565-39.917969 8.2382815-55.09375 21.4609375-.300781-.359375-.621094-.707031-.976563-1.035156-3.433593-3.152344-8.664062-3.65625-14.726562-1.414063-17.917969 6.613282-28.34375 23.84375-33.9375 37.132813-5.910156 14.046875-11.425781 35.003906-4.113281 55.070312 2.082031 5.710938 5.03125 9.972657 8.671875 12.597657-5.410156 3.542968-9.585938 8.972656-11.34375 15.246093-2.71875 9.703125.527344 20.710938 8.082031 27.382813 4.921875 4.351562 11.449219 6.660156 17.972656 6.65625 2.398438 0 4.796875-.320313 7.117188-.957032 1.832031 7.792969 4.242187 15.484376 7.792969 22.84375 5.140624 10.667969 12.613281 20.058594 21.617187 27.636719-1.050781 4.136719-2.25 9.214844-2.488281 14.507813-.226563.175781-.441406.371094-.628906.597656-12.988282 15.402344-29.746094 27.855469-45.953126 39.898438-22.671874 16.84375-46.113281 34.261718-59.742187 60.085937-10.140625 19.214844-13.917969 40.699219-16.660156 59.332031-3.605469 24.488282-6.019531 49.441406-7.175781 74.167969-.34375 7.367187-.363282 14.503906 3.148437 20.875 6.5625 11.910156 21.144531 14.386719 34.546875 15.242187 56.097656 3.570313 112.734375 4.648438 169.027344 4.648438 43.511718 0 86.824218-.644531 129.488281-1.28125 5.53125-.078125 13.101563-.191406 18.882813-4.710938 7.921874-6.195312 8.492187-16.664062 7.925781-27.054687zm-124.695313-127.6875c.683594.722656 1.328125 1.40625 1.886719 2.074219 5.679687 6.75 5.359375 16.605468 3.167969 23.574218-2.628906 8.355469-7.90625 15.539063-14.023438 23.394532-2.703125 3.472656-5.441406 6.933594-8.179687 10.398437-10.292969 13.015625-20.800781 26.324219-29.808594 40.582031 16.9375-65.855468 31.414063-132.835937 43.15625-199.683593l30.5625 53.78125c1.558594 2.738281 2.90625 5.527343 2.238281 7.378906-.597656 1.648437-2.941406 2.960937-5.289062 4.167969l-18.8125 9.652344c-3.167969 1.625-10.582032 5.433593-10.921875 12.78125-.246094 5.238281 3.230469 8.929687 6.023437 11.898437zm-113.777344-24.417969c-.273437-1.367187-1.230468-2.496094-2.535156-2.988281l-28.515625-10.726563c-.898437-.335937-3.632812-1.367187-3.933593-2.375-.253907-.855468.921874-2.917968 1.367187-3.691406 10.894531-19.085937 23.660156-37.160156 37.976563-53.84375.949218 24.050782 2.6875 47.03125 5.230468 69.011719-.191406.867187-.109375 1.792969.308594 2.644531 5.371094 45.085938 14.152344 85.949219 26.460938 123.21875-16.371094-20.976562-32.660157-42.566406-47.027344-65.035156-4.742188-7.414062-9.347656-15.339844-9.09375-23.503906.339844-11.050782 9.355468-20.375 18.558594-28.980469 1.019531-.953125 1.472656-2.363281 1.203124-3.730469zm53.273438 144.378906c-15.074219-38.3125-25.960938-80.71875-32.828125-128.027343 10.175781 16.253906 21.964844 31.464843 35.210937 45.382812.761719.804688 1.820313 1.253907 2.921876 1.253907.078124 0 .15625-.003907.234374-.007813 1.183594-.070313 2.277344-.65625 2.988282-1.601563 6.984375-9.296874 13.25-19.101562 18.75-29.3125-8.277344 37.691407-17.386719 75.203126-27.277344 112.3125zm20.507812-158.40625c-.078124.148438-.164062.292969-.222656.457032l-6.730468 18.480468c-.328126.90625-.78125 2.144532-1.25 2.527344-.617188.507813-2.539063.511719-3.570313.515625l-12.195313.015625c-.773437 0-2.1875.003906-2.609374-.277344-.5625-.375-1.011719-2.410156-1.179688-3.171874l-5.808594-26.382813c5.332032-4.851563 10.820313-9.53125 16.460938-13.988281 6.027344 6.992187 11.734375 14.292968 17.105468 21.824218zm11.203126 17.316407c-2.765626 7.105469-5.90625 14.046875-9.375 20.816406l-3.0625-12.511719c.921874-1.375 1.460937-2.832031 1.859374-3.921875l4.953126-13.601562c1.96875 2.960937 3.890624 5.953125 5.75 8.976562-.039063.082031-.089844.15625-.125.242188zm-38.371094 12.554687c1.09375.167969 2.121094.1875 2.972656.1875h.234375l12.199219-.015625c.890625 0 2.035156-.011719 3.261718-.175781l4.554688 18.585938c.011719.058593.039062.113281.058594.171874-3.605469 6.199219-7.5 12.226563-11.691406 18.058594-6.164063-6.710937-11.988282-13.714844-17.457032-20.980468.148438-.238282.285156-.488282.382813-.761719zm-13.238282-31.28125 4.773438 21.691406c.285156 1.300782.6875 3.109376 1.617188 4.828126l-4.660157 12.8125c-5.632812-8.050782-10.839843-16.398438-15.59375-25.015626 4.457031-4.914062 9.082031-9.691406 13.863281-14.316406zm55.320313 9.046875c-7.46875-11.628906-15.757813-22.796875-24.71875-33.320312.835937-.492188 1.578125-1.019531 2.222656-1.480469l17.804688-12.707031c5.464843-3.902344 11.480469-8.199219 16.421875-13.652344-3.65625 20.390625-7.570313 40.789063-11.730469 61.160156zm-71.640625-3.96875c-2.058594-18.785156-3.539062-38.304687-4.4375-58.613281 2.449219 2.710938 5.328125 5.0625 8.320312 7.378906 9.054688 7.015625 18.484376 13.792969 28.023438 20.140625.304688.203125.644531.425781 1 .652344-11.652344 9.34375-22.683594 19.542969-32.90625 30.441406zm139.699219-156.070312c-4.917969 4.347656-12.425781 5.773437-18.640625 3.652343.921875-4.117187 1.78125-8.230468 2.625-12.304687.136718-.644531.089844-1.277344-.070313-1.867187 1.5-1.925782 2.59375-4.363282 3.136719-7.195313.371094-1.9375.484375-3.816406.59375-5.628906.089844-1.53125.179688-2.976563.414062-4.332031.414063-2.375 1.386719-4.191407 2.625-4.972657.0625.011719.117188.039063.179688.050781 6.835938 1.222657 12.917969 6.746094 14.792969 13.433594 1.871093 6.6875-.453125 14.566406-5.65625 19.164063zm-36.578125-134.03125c1.046875-.960938 3.53125-.882813 6.484375.207031 15.203125 5.613281 24.320312 20.878906 29.292969 32.699219 5.355468 12.71875 10.386718 31.574219 3.96875 49.183593-1.175782 3.230469-3.835938 8.835938-8.410157 10.082032-.613281.164062-1.34375.277344-2.117187.390625-1.582032.242187-3.375.511719-5.175782 1.382812-3.765624 1.816407-6.445312 5.835938-7.347656 11.023438-.316406 1.800781-.421875 3.546875-.523437 5.230469-.097657 1.632812-.191407 3.171874-.464844 4.601562-.371094 1.929688-1.347656 4.242188-2.988281 4.9375-.65625.277344-1.816406-.300781-3.152344-1.507812 3.5625-6.617188 5.132812-14.332032 4.078125-21.742188-.277344-1.957031-.832031-4.460938-2.671875-6.46875-2.609375-2.851562-6.359375-3.207031-8.601562-3.417969-1.644532-.15625-3.292969-.296875-4.9375-.4375.1875-3.558593.863281-7 2.023437-10.253906 1.074219-3.019531 2.527344-5.925781 4.066406-9.003906 2.21875-4.429688 4.507813-9.015625 5.703125-14.140625 3.070313-13.199219-1.757812-25.863282-6.425781-38.109375-.820313-2.15625-1.671875-4.382813-2.445313-6.539063-1.445312-4.039062-1.578124-6.996094-.355468-8.117187zm1.613281 94.632812c.867187.082031 2.898437.273438 3.414063.835938.175781.191406.429687.722656.632812 2.160156 1.375 9.644531-2.988281 19.980469-10.855469 25.722656-7.871093 5.746094-19.046875 6.746094-27.8125 2.496094-12.972656-6.289063-15.25-17.140625-13.953125-33.523437 16.175782.011718 32.496094.785156 48.574219 2.308593zm-64.5625-112.9375c19.691406-.464843 39.347656 6.765625 54.089844 19.835938-.171875 2.675781.359375 5.78125 1.628906 9.3125.796875 2.230469 1.664063 4.496093 2.496094 6.6875 4.238281 11.113281 8.621093 22.609375 6.109375 33.410156-.976563 4.199219-2.960938 8.164063-5.0625 12.363281-1.578125 3.15625-3.210938 6.417969-4.449219 9.898438-1.402344 3.9375-2.226563 8.070312-2.472656 12.335937-13.328125-.925781-26.746094-1.351562-40.050781-1.269531-2.058594.015625-3.773438 1.574219-3.984376 3.621094-.285156 2.761718-.527343 5.578125-.644531 8.398437-4.6875-.074219-9.390625.066407-14.0625.429688-.109375-2.964844-.359375-5.925781-.660156-8.828125-.210937-2.046875-1.925781-3.605469-3.984375-3.621094-13.308594-.082031-26.726562.34375-40.050781 1.269531-.246094-4.265625-1.070313-8.398437-2.472657-12.335937-1.242187-3.476563-2.871093-6.742188-4.453124-9.898438-2.097657-4.199218-4.082032-8.164062-5.058594-12.363281-2.511719-10.800781 1.867187-22.292969 6.105468-33.410156.835938-2.191407 1.699219-4.457031 2.5-6.6875.921876-2.566407 1.449219-4.90625 1.609376-7.027344 14.09375-13.609375 33.273437-21.664063 52.867187-22.121094zm-67.371094 115.933594c.203125-1.4375.457031-1.96875.636719-2.160156.511719-.5625 2.542969-.753907 3.414062-.835938 16.078126-1.523437 32.394532-2.296875 48.566407-2.308593 1.300781 16.382812-.976563 27.234374-13.949219 33.523437-8.765625 4.253906-19.941406 3.25-27.8125-2.496094-7.867188-5.742187-12.230469-16.078125-10.855469-25.722656zm-30.117187-64.722656c4.972656-11.820313 14.09375-27.085938 29.292968-32.699219 2.953126-1.089844 5.4375-1.171875 6.484376-.207031 1.222656 1.121093 1.09375 4.082031-.355469 8.121093-.773438 2.152344-1.625 4.382813-2.445313 6.535157-4.667968 12.246093-9.496094 24.910156-6.425781 38.113281 1.191406 5.125 3.484375 9.707031 5.703125 14.140625 1.535156 3.074219 2.992188 5.980469 4.066406 9 1.160156 3.257813 1.835938 6.699219 2.023438 10.257813-1.644532.140624-3.292969.28125-4.9375.4375-2.242188.210937-5.992188.566406-8.601563 3.417968-1.835937 2.003906-2.394531 4.507813-2.671875 6.46875-1.054687 7.40625.515625 15.121094 4.078125 21.738282-1.335937 1.207031-2.492187 1.789062-3.152343 1.507812-.394532-.167969-.746094-.429688-1.066407-.757812-.167969-.277344-.371093-.527344-.597656-.753907-.664063-1-1.105469-2.277343-1.324219-3.425781-.273437-1.429688-.367187-2.96875-.464844-4.597656-.101562-1.6875-.207031-3.429688-.523437-5.230469-.902344-5.191406-3.582031-9.210937-7.347656-11.027344-1.804688-.871093-3.59375-1.140625-5.175781-1.378906-.773438-.117187-1.503907-.226563-2.121094-.394531-4.570313-1.246094-7.230469-6.851563-8.40625-10.082032-6.417969-17.609374-1.386719-36.464843 3.96875-49.183593zm-.796875 101.125c-5.207031-4.597657-7.53125-12.476563-5.65625-19.164063 1.871093-6.683594 7.953125-12.210937 14.789062-13.433594.0625-.011718.121094-.035156.183594-.050781 1.238281.78125 2.207031 2.597657 2.621094 4.972657.238281 1.355468.324219 2.800781.417969 4.332031.109374 1.816406.222656 3.691406.59375 5.628906.472656 2.46875 1.363281 4.636719 2.574218 6.425781.78125 5.011719 1.585938 10.070313 2.554688 15.117188-6.105469 1.851562-13.3125.386718-18.078125-3.828125zm34.804687 31.085937c-5.585937-11.582031-8.207031-24.453125-10.300781-37.226562 2.0625-.058594 4.464844-.84375 7.109375-2.992188 1.617188 1.84375 3.421875 3.523438 5.402344 4.96875 5.996094 4.375 13.46875 6.628906 20.921875 6.628906 5.238281 0 10.464843-1.113281 15.160156-3.390624 13.390625-6.492188 17.746094-17.011719 18.648437-28.289063 4.742188-.390625 9.523438-.546875 14.28125-.460937.820313 11.449218 5.109376 22.167968 18.683594 28.75 4.691406 2.277343 9.921875 3.390624 15.160156 3.390624 7.453126 0 14.925782-2.253906 20.921876-6.628906 1.980468-1.445312 3.785156-3.121094 5.402343-4.964844 2.53125 2.054688 4.84375 2.863282 6.84375 2.980469-2.789062 13.285157-5.871093 26.832031-11.292969 39.265625-4.566406 10.464844-12.964843 24.71875-27.054687 33.179688-10.242187 6.148437-23.328125 8.953125-36.839844 7.898437-26.675781-2.082031-51.425781-19.003906-63.046875-43.109375zm62.421875 51.148438c2.0625.160156 4.121094.242187 6.164063.242187 12.972656 0 25.375-3.21875 35.453125-9.269531 1.234375-.742188 2.445312-1.546875 3.636719-2.386719 1.800781 5.921875-.089844 12.875-3.25 17.820313-4.554688 7.121094-11.824219 12.308594-18.855469 17.328125l-17.800781 12.707031c-1.039063.742188-2.214844 1.582031-3.101563 1.71875-1.335937.203125-3.277344-.992188-4.988281-2.132812-9.378906-6.238282-18.648438-12.902344-27.550782-19.800782-4.28125-3.3125-8.292968-6.636718-10.375-10.824218-2.839843-5.714844-2.058593-12.691407-.386718-20.078126 12.125 8.28125 26.324218 13.523438 41.054687 14.675782zm-170.503906 245.566406c-2.5-4.535156-2.457031-10.207031-2.15625-16.609375 1.144531-24.460937 3.53125-49.148437 7.097656-73.371094 3.285157-22.292969 7.230469-40.472656 15.8125-56.742187 12.777344-24.207032 34.460938-40.320313 57.421875-57.378906 4.941406-3.671876 9.9375-7.386719 14.871094-11.210938-6.945312 9.726562-13.414062 19.796875-19.332031 30.160156-1.160157 2.035156-3.324219 5.824219-2.09375 9.976563 1.433593 4.859375 6.425781 6.738281 8.828125 7.640625l22.523437 8.472656c-8.636719 8.585938-16.085937 18.132812-16.457031 30.152344-.324219 10.46875 4.941406 19.617187 10.359375 28.097656 18.617187 29.109375 40.289063 56.609375 61.25 83.203125.265625.335937.582031.597656.917969.824219 1.71875 4.441406 3.488281 8.835937 5.316406 13.171875-.488281 6.375-.503906 12.8125-.046875 19.191406-37.894531-.3125-75.855469-1.238281-113.605469-3.199219-.121094-39.597656 1.070313-79.679687 3.5625-119.179687.140625-2.222657-1.550781-4.136719-3.769531-4.277344s-4.136719 1.546875-4.28125 3.769531c-2.492187 39.523438-3.6875 79.628906-3.574219 119.253906-4.886718-.273437-9.769531-.550781-14.644531-.863281-11.21875-.714843-23.320313-2.589843-28-11.082031zm339.917969 11.433594c-3.371094 2.636718-8.351563 2.921875-14.035156 3.003906-13.507813.203125-27.082032.402344-40.699219.582031-.46875-40.027343.394531-80.558593 2.582031-120.519531.121094-2.222656-1.582031-4.125-3.804688-4.246094-2.226562-.113281-4.125 1.582032-4.246093 3.804688-2.199219 40.140625-3.066407 80.855468-2.59375 121.066406-34.675781.441406-69.652344.722656-104.710938.511719-.5-6.515625-.492187-13.113281.058594-19.621094.003906-.015625 0-.027344 0-.042969.289063-1.066406.574219-2.140625.859375-3.207031.878906-.394531 1.617188-1.101563 2.035156-2.046875 10.164063-23.058594 26.308594-43.480469 41.925782-63.230469 2.75-3.476562 5.5-6.957031 8.21875-10.445312 6.363281-8.171875 12.328124-16.304688 15.351562-25.925781 3.617188-11.5 1.820312-23.449219-4.6875-31.1875-.707031-.839844-1.460938-1.636719-2.1875-2.410157-2.019531-2.144531-3.929688-4.171875-3.84375-5.996093.113281-2.40625 3.792969-4.566407 6.550781-5.984376l18.816407-9.652343c2.789062-1.433594 7.460937-3.832031 9.1875-8.597657 2.023437-5.601562-1.121094-11.136718-2.8125-14.105468l-30.273438-53.277344c6.441406 4.640625 12.953125 9.253906 19.335938 13.769531 10.054687 7.105469 20.449218 14.457031 30.292968 21.75 15.394532 11.40625 31.3125 23.203125 41.636719 39.421875 14.632813 22.992188 16.21875 52.125 17.613281 77.828125l4.269532 78.496094c.449218 8.210937.167968 16.34375-4.839844 20.261719zm0 0"/><path d="m139.460938 196.070312c9.777343 7.136719 21.757812 8.632813 34.203124 9.640626 5.90625.480468 11.734376.894531 17.570313.894531 3.484375 0 6.96875-.148438 10.472656-.519531 10.839844-1.148438 20.078125-4.332032 27.457031-9.46875.003907 0 .003907-.003907.007813-.003907 1.828125-1.273437 2.277344-3.785156 1.007813-5.613281-.511719-.730469-1.222657-1.246094-2.003907-1.511719-.925781-.683593-3.488281-2.882812-10.550781-9.730469-.492188-.476562-.847656-.820312-1.007812-.972656-1.214844-1.140625-2.523438-2.648437-3.910157-4.242187-2.898437-3.328125-5.894531-6.769531-9.476562-8.777344-3.828125-2.144531-8.324219-.601563-11.933594.636719-1.464844.503906-2.980469 1.023437-3.933594 1.113281-4.789062.453125-9.511719-.359375-13.664062-2.347656-1.390625-.667969-3.042969-.476563-4.253907.484375l-30.125 24.007812c-.980468.785156-1.542968 1.980469-1.515624 3.238282.027343 1.257812.640624 2.429687 1.65625 3.171874zm33.125-22.609374c4.855468 1.871093 10.175781 2.589843 15.535156 2.082031 1.910156-.179688 3.886718-.855469 5.796875-1.511719 1.484375-.511719 4.578125-1.574219 5.371093-1.230469 2.359376 1.324219 4.890626 4.230469 7.335938 7.039063 1.453125 1.667968 2.957031 3.398437 4.457031 4.8125.152344.140625.476563.457031.933594.898437 1.539063 1.492188 4.402344 4.265625 7 6.652344.246094.226563.484375.445313.71875.660156-5.363281 2.699219-11.6875 4.445313-18.875 5.207031-8.6875.917969-17.511719.335938-26.542969-.394531-9.203125-.746093-18.082031-1.757812-25.429687-5.324219zm0 0"/></svg>