<svg height="511pt" viewBox="-83 1 511 511.99984" width="511pt" xmlns="http://www.w3.org/2000/svg"><path d="m88.144531 502.625c2.949219-14.59375 10.171875-29.359375 22.078125-45.144531 6.980469-9.246094 15.117188-18.257813 22.292969-26.210938l.761719-.84375c4.035156-4.484375 8.210937-9.125 12.171875-13.777343 32.742187-38.421876 56.257812-82.601563 79.441406-128.277344l7.53125 2.339844-.460937 3.449218c-.351563 2.671875-1.007813 7.652344 1.171874 11.015625l1.808594 2.792969-2.414062 2.285156c-8.183594 7.757813-13.441406 19.050782-14.058594 30.207032-.347656 6.167968.59375 12.375 1.503906 18.382812.90625 5.980469 1.84375 12.164062 1.507813 18.34375 1.433593.519531 2.921875.765625 4.445312.765625 6.683594 0 12.773438-4.636719 15.84375-9.234375 4.46875-6.691406 5.636719-15.109375 6.378907-22.476562 1.117187-11.105469 1.464843-23.804688-4.433594-33.773438l-2.148438-3.632812 3.742188-1.949219c1.117187-.585938 2.167968-1.292969 3.039062-2.046875 2.8125-2.445313 5.117188-5.597656 7.039063-9.636719l1.628906-3.425781 3.507813 1.445312c7.476562 3.085938 14.707031 7.089844 21.488281 11.90625l2.0625 1.464844-.4375 2.488281c-6.28125 35.859375-23.3125 70.296875-47.960938 96.964844-7.828125 8.472656-16.539062 16.335937-24.96875 23.9375l-.414062.375c-7.011719 6.339844-14.265625 12.894531-20.96875 19.78125-17.765625 18.25-28.097657 35.777344-31.589844 53.589844l-.628906 3.207031-69.933594.519531zm0 0" fill="#bc88e5"/><path d="m156.277344 398.019531c-11.304688-5.152343-21.609375-12.085937-30.628906-20.613281l-2.089844-1.972656 1.207031-2.613282c3.992187-8.632812 5.675781-18.011718 4.863281-27.125-1.21875-13.75-8.320312-27.261718-19.003906-36.152343l-1.875-1.558594.53125-2.382813c.601562-2.707031.3125-5.460937.035156-8.125-.359375-3.363281-.71875-6.796874-1.082031-10.25l7.339844-2.585937c17.535156 27.117187 43.070312 49.878906 71.910156 64.09375l3.878906 1.910156-2.210937 3.71875c-9.386719 15.789063-18.550782 29.65625-28.003906 42.402344l-1.929688 2.597656zm0 0" fill="#bc88e5"/><path d="m86.332031 343.703125c-10.871093-8.488281-20.058593-19.394531-26.570312-31.542969l-1.667969-3.109375 2.878906-2.042969c7.339844-5.203124 15.09375-9.238281 23.042969-11.996093l3.292969-1.144531 1.582031 3.105468c1.28125 2.511719 2.617187 4.996094 3.96875 7.386719 1.691406 3.003906 3.507813 5.191406 5.398437 6.503906l3.265626 2.265625-2.246094 3.28125c-4.683594 6.835938-6.988282 15.328125-6.488282 23.90625l.515626 8.828125zm0 0" fill="#bc88e5"/><path d="m158.148438 502.039062c3.800781-17.214843 14.011718-34.175781 31.21875-51.859374 6.6875-6.867188 13.933593-13.414063 20.9375-19.746094l.386718-.351563c8.460938-7.632812 17.183594-15.507812 25.027344-23.996093 23.648438-25.59375 40.417969-58.597657 47.210938-92.933594l1.3125-6.632813 5.183593 4.34375c21.039063 17.640625 37.019531 43.539063 45.011719 72.925781 9.101562 33.546876 9.113281 71.238282.039062 118.613282l-.621093 3.222656-56.929688.421875-.195312-3.824219c-1.769531-34.914062.742187-67.777344 7.902343-103.421875-7.203124 35.519531-9.71875 68.277344-7.980468 103.078125l.207031 4.167969-119.792969.890625zm0 0" fill="#985bbc"/><path d="m22.304688 507.933594c-3.917969 0-8.375-.214844-11.667969-2.796875-4.5-3.539063-5.078125-10.019531-5.269531-15.816407-1.25-37.613281-2.542969-76.507812 8.589843-113.378906 5.71875-18.933594 15.039063-36.371094 26.957031-50.417968 4.105469-4.84375 8.59375-9.324219 13.332032-13.324219l3.71875-3.136719 2.359375 4.257812c7.554687 13.640626 18.328125 25.472657 31.164062 34.222657l2.410157.367187.816406 2.324219c.589844 1.757813 1.332031 3.476563 2.199218 5.105469 2.3125 4.355468 5.515626 8.300781 8.613282 12.117187 4.691406 5.789063 9.082031 11.199219 10.972656 18.035157 1.640625-1.785157 3.148438-3.773438 4.53125-5.898438l2.570312-3.9375 3.476563 3.167969c8.261719 7.527343 17.539063 13.761719 27.582031 18.53125l4.492188 2.136719-3.050782 3.929687c-3.546874 4.574219-7.144531 9.007813-10.691406 13.179687-4.15625 4.871094-8.511718 9.703126-12.722656 14.378907l-.347656.382812c-7.519532 8.339844-15.296875 16.964844-22.175782 26.074219-12.316406 16.335938-19.636718 31.628906-22.375 46.753906l-.589843 3.261719-25.980469.199219.273438-4.289063c1.996093-31.226562.957031-62.753906-3.082032-93.707031 4 31.152344 5.023438 62.871094 2.988282 94.28125l-.242188 3.714844s-38.492188.28125-38.851562.28125zm0 0" fill="#985bbc"/><g fill="#644c4c"><path d="m260.824219 238.316406c-2.671875-2.167968-6.113281-5.105468-9.039063-8.613281-2.847656-3.40625-6.390625-8.828125-7.113281-15.308594l-.28125-2.507812 2.140625-1.332031c5.277344-3.289063 10.796875-6.191407 16.414062-8.625l5.515626-2.390626.074218 6.011719c.121094 9.785157-.285156 19.886719-1.207031 30.019531l-.679687 7.46875zm0 0"/><path d="m245.136719 202.875c1.757812-4.042969 3.574219-8.519531 5.714843-14.089844l.933594-2.425781 2.59375-.132813c2.671875-.136718 5.394532-.671874 8.097656-1.59375l4.878907-1.660156.398437 5.140625c.226563 2.964844.410156 5.894531.535156 8.707031l.140626 3.019532-2.871094.957031c-.070313.023437-.144532.046875-.21875.066406-4.980469 2.027344-9.875 4.410157-14.550782 7.082031l-10.449218 5.964844zm0 0"/><path d="m78.785156 148.21875c-2.59375-25.304688-1.164062-47.296875 4.375-67.238281 6.820313-24.59375 20.378906-45.664063 38.179688-59.324219 14.78125-11.351562 32.621094-17.601562 50.226562-17.601562 5.949219 0 11.800782.71875 17.390625 2.136718 15.308594 3.890625 30.589844 13.464844 45.421875 28.464844 15.757813 15.941406 26.667969 33.085938 32.433594 50.964844 6.332031 19.671875 5.964844 40.839844-1.007812 58.085937l-.839844 2.082031-2.21875.367188c-.824219.136719-1.632813.28125-2.429688.425781-2.371094.429688-4.542968.824219-6.742187.976563-.625.042968-1.242188.0625-1.859375.0625-9.964844 0-19.332032-5.320313-25.511719-9.324219-10.960937-7.101563-20.925781-15.757813-29.621094-25.726563-4.429687-5.085937-8.546875-10.550781-12.242187-16.253906-.757813-1.171875-1.511719-2.675781-2.308594-4.265625l-.199219-.394531c-2.160156-4.367188-4.597656-9.289062-7.96875-10.378906-.039062.011718-.058593.097656-.082031.191406l-.113281.484375-.226563.441406c-2.984375 5.777344-26.203125 38.179688-29.066406 41.042969-13.183594 13.152344-28.351562 21.609375-43.867188 24.457031l-1.363281.230469-1.441406.234375c-4.5.707031-9.136719 1.441406-13.453125 3.164063l-4.921875 1.964843zm0 0"/><path d="m250.425781 290.226562c-4.128906-6.582031-7.5-13.675781-10.027343-21.085937l-.957032-2.808594 2.414063-1.730469c5.980469-4.292968 11.515625-9.332031 16.445312-14.984374l8.964844-10.265626-1.992187 13.480469c-1.378907 9.328125-3.15625 18.660157-5.273438 27.734375-.820312 3.542969-1.558594 6.25-2.382812 8.777344l-2.65625 8.109375zm0 0"/><path d="m242.46875 215.203125 5.894531 9.804687c.992188 1.65625 2.128907 3.25 3.371094 4.738282 3.140625 3.746094 6.761719 6.800781 9.894531 9.292968l3.054688 2.433594-2.359375 3.113282c-5.535157 7.296874-12.078125 13.753906-19.445313 19.191406l-7.574218 5.589844zm0 0"/><path d="m239.46875 308.394531c-2.035156 0-3.816406-.652343-5.152344-1.890625-3.074218-2.847656-2.921875-7.613281-2.296875-12.339844l4.523438-34.128906 5.675781 14.144532c2.722656 6.789062 6.140625 13.234374 10.15625 19.15625l2.929688 2.195312-1.890626 3.136719c-1.519531 2.449219-3.1875 4.449219-5.101562 6.117187-2.570312 2.230469-5.957031 3.609375-8.84375 3.609375zm0 0"/><path d="m225.476562 377.878906-3.828124-.125-.042969-3.828125c-.058594-5.050781-.828125-10.148437-1.574219-15.078125l-.027344-.1875c-.933594-6.226562-1.8125-12.109375-1.472656-18.203125.65625-11.835937 6.402344-23.5625 15.367188-31.363281l1.542968-1.34375 1.992188.460938c.613281.144531 1.246094.222656 1.882812.226562l3.28125.035156.609375 3.226563c6.339844 9.996093 6.089844 22.503906 4.878907 34.53125-.75 7.375-1.921876 15.800781-6.378907 22.453125-3.054687 4.578125-9.117187 9.203125-15.773437 9.203125-.152344 0-.304688-.003907-.457032-.007813zm0 0"/><path d="m114.074219 379.332031c-2.25-4.210937-5.390625-8.085937-8.429688-11.828125-3.285156-4.042968-6.359375-7.820312-8.675781-12.191406-6.851562-12.914062-4.992188-30.375 4.410156-41.59375l.78125-1.226562 1.585938-.441407c.953125-.238281 1.898437-.75 2.730468-1.480469l2.648438-2.316406 2.636719 2.328125c10.132812 8.941407 16.621093 21.742188 17.804687 35.113281 1.035156 11.625-2.105468 24-8.617187 33.945313l-3.695313 5.644531zm0 0"/><path d="m102.339844 312.164062c-3.324219 0-6.492188-2.632812-9.429688-7.828124-3.011718-5.351563-5.769531-10.839844-8.191406-16.316407l-5.148438-11.625 10.875 6.582031c5.058594 3.0625 10.300782 5.882813 15.585938 8.390626l2.671875.78125.550781 5.359374c.292969 2.675782.625 5.742188-.148437 8.597657-.871094 3.132812-3.089844 5.460937-5.65625 5.953125-.367188.070312-.738281.105468-1.109375.105468zm0 0"/><path d="m102.203125 289.402344c-5.628906-2.839844-11.09375-5.972656-16.253906-9.316406l-2.453125-1.589844.769531-2.820313c2.476563-9.054687 7.140625-17.53125 13.492187-24.515625l6.023438-6.628906 1.707031 16.65625c.828125 8.101562 1.664063 16.242188 2.496094 24.226562l.761719 7.289063zm0 0"/><path d="m96.800781 240.832031c-6.46875-4.414062-11.617187-10.460937-14.882812-17.472656l-1.242188-2.671875 2.183594-1.980469c3.695313-3.347656 7.242187-7.113281 10.261719-10.886719l6.082031-7.597656 1.019531 9.679688c.941406 8.933594 1.882813 18.097656 2.8125 27.222656l.871094 8.5625zm0 0"/><path d="m71.390625 219.488281c.535156-10.066406 2.175781-20.238281 4.882813-30.226562l1.097656-4.046875 3.992187 1.289062c1.828125.589844 3.734375.886719 5.65625.886719 1.769531 0 3.492188-.253906 5.121094-.753906l3.722656-1.144531 1.242188 3.691406c.328125.96875.652343 1.9375.988281 2.90625l2.070312 6.15625-1.570312 1.738281c-4.652344 7.742187-12.582031 16.484375-20.742188 22.867187l-6.925781 5.414063zm0 0"/><path d="m78.152344 270.734375c-4.285156-13.546875-6.609375-27.320313-6.90625-40.9375l-.050782-2.277344 1.9375-1.207031c.085938-.050781.167969-.101562.253907-.148438 1.09375-.722656 2.230469-1.527343 3.386719-2.394531l3.761718-2.820312 2.183594 4.164062c3.71875 7.097657 9.578125 13.25 16.496094 17.320313l4.488281 2.640625-3.710937 3.65625c-6.28125 6.1875-11.214844 13.855469-14.269532 22.175781l-4.039062 10.996094zm0 0"/></g><path d="m177.253906 259.816406c-12.8125 0-26.242187-4.023437-37.8125-11.324218l-.140625-.085938-.128906-.097656c-9.171875-6.894532-18.773437-14.832032-26.824219-26.140625-3.246094-4.546875-7.289062-10.210938-9.390625-16.117188-1.421875-3.988281-2.8125-8.074219-4.152343-12.027343l-.648438-1.90625c-.800781-2.398438-1.597656-4.765626-2.414062-7.132813-2.582032 1.539063-5.589844 2.363281-8.75 2.363281-4.875 0-9.628907-2.015625-12.710938-5.390625-3.523438-3.863281-4.929688-8.863281-3.960938-14.078125 1.167969-6.320312 5.753907-12.328125 11.683594-15.296875 4.847656-2.429687 10.101563-3.269531 15.660156-4.15625l1.675782-.269531c.390625-.0625.785156-.128906 1.183594-.203125 15.53125-2.84375 30.707031-11.304687 43.882812-24.472656 1.6875-1.683594 9.558594-12.4375 16.113281-21.703125 5.503907-7.789063 9.039063-12.957032 11.132813-16.265625l3.332031-5.269531 3.402344 5.222656c1.222656 1.878906 2.386719 4.1875 3.382812 6.203125l.0625.125c.851563 1.710937 1.65625 3.324219 2.449219 4.550781 3.652344 5.65625 7.773438 11.125 12.246094 16.253906 8.667968 9.960938 18.636718 18.625 29.632812 25.753906 6.179688 4.003907 15.550782 9.328126 25.527344 9.328126.628906 0 1.261719-.019532 1.882812-.0625 2.246094-.144532 4.535157-.566407 6.75-.972657 2.792969-.507812 5.628907-1.023437 8.332032-1.023437 2.660156 0 4.898437.496094 6.839844 1.515625 2.902343 1.519531 4.980468 4.183593 6 7.707031 1.472656 5.074219.621093 11.285156-2.226563 16.207031-5.324219 9.199219-15.652344 15.148438-26.316406 15.148438-.382813 0-.765625-.007813-1.148438-.023438-5.433593 14.21875-11.46875 29.167969-20.589843 42.203125-7.007813 10.019532-18.980469 23.132813-36.214844 28.714844-5.574219 1.808594-11.542969 2.722656-17.742188 2.722656zm-4.980468-143.921875c-1.207032.140625-2.300782.976563-2.921876 2.238281-.617187 1.253907-.609374 2.632813.019532 3.6875.625 1.058594 1.835937 1.71875 3.234375 1.773438l.179687.011719c1.328125-.003907 2.515625-.570313 3.183594-1.515625.71875-1.007813.835938-2.378906.320312-3.667969-.519531-1.316406-1.539062-2.238281-2.742187-2.480469l-.589844.058594-.625-.109375zm0 0" fill="#efb17c"/><path d="m188.050781 348.953125c-29.785156-14.550781-55.9375-38.074219-73.644531-66.246094l-1.730469-2.753906 2.347657-2.257813c4.355468-4.191406 7.691406-9.367187 9.644531-14.972656 1.71875-4.882812 2.410156-10.265625 2.007812-15.570312l-.695312-9.195313 7.1875 5.773438c1.824219 1.464843 3.820312 3.007812 6.101562 4.71875l.066407.046875c11.539062 7.320312 25.039062 11.371094 37.949218 11.371094 6.199219 0 12.167969-.914063 17.738282-2.714844 6.027343-1.949219 11.886718-5.003906 17.417968-9.082032l5.796875-4.277343.566407 7.183593c.285156 3.671876.828124 8.449219 2.484374 12.867188 1.535157 4.097656 4.09375 7.667969 7.203126 10.050781l2.628906 2.019531-1.496094 2.960938c-10.167969 20.105469-22.824219 45.132812-36.359375 68.488281l-1.867187 3.226563zm0 0" fill="#efb17c"/><path d="m172.445312 127.59375c.117188.003906.234376.007812.351563.007812 2.621094 0 5.007813-1.179687 6.441406-3.199218 1.496094-2.109375 1.785157-4.902344.769531-7.464844-1.015624-2.566406-3.136718-4.40625-5.667968-4.917969-.429688-.085937-.851563-.105469-1.265625-.058593-.402344-.078126-.828125-.09375-1.261719-.046876-2.566406.308594-4.828125 1.972657-6.046875 4.445313-1.21875 2.476563-1.15625 5.28125.164063 7.503906 1.324218 2.226563 3.757812 3.621094 6.515624 3.730469zm0 0"/><path d="m338.351562 382.726562c-11.90625-43.84375-40.429687-78.589843-76.484374-93.335937.820312-2.660156 1.492187-5.328125 2.089843-7.902344 7.71875-33.097656 10.300781-65.347656 7.683594-95.855469-.027344-.3125-.097656-.613281-.191406-.898437 4.636719-2.941406 8.601562-6.914063 11.339843-11.652344 3.378907-5.851562 4.382813-13.273437 2.613282-19.371093-1.332032-4.605469-4.109375-8.121094-8.019532-10.171876-2.113281-1.105468-4.289062-1.660156-6.46875-1.871093 6.121094-17.542969 6.085938-37.65625-.238281-57.285157-5.949219-18.488281-17.191406-36.175781-33.40625-52.578124-15.355469-15.53125-31.273437-25.472657-47.3125-29.542969-23.535156-5.980469-50.109375.066406-71.09375 16.167969-18.488281 14.1875-32.5625 36.015624-39.621093 61.460937-5.9375 21.394531-7.277344 45.082031-4.105469 72.394531-4.53125 3.824219-7.757813 9.152344-8.8125 14.855469-1.203125 6.503906.558593 12.738281 4.960937 17.558594.507813.554687 1.054688 1.066406 1.617188 1.554687-9.996094 35.058594-7 70.382813 8.902344 105.230469-16.332032 5.863281-31.472657 16.652344-43.992188 31.414063-12.273438 14.472656-21.867188 32.410156-27.75 51.875-11.316406 37.464843-10.015625 76.71875-8.757812 114.679687.164062 4.847656.460937 13.875 6.816406 18.871094 4.316406 3.394531 9.917968 3.675781 14.054687 3.675781.433594 0 .847657-.003906 1.246094-.007812l310.480469-2.308594c1.914062-.011719 3.554687-1.371094 3.925781-3.246094 9.828125-49.539062 9.992187-88.847656.523437-123.710938zm-58.660156-74.332031c-6.144531 35.113281-22.769531 68.761719-46.953125 94.933594-7.722656 8.359375-16.382812 16.175781-24.761719 23.734375-7.183593 6.488281-14.613281 13.191406-21.519531 20.289062-18.339843 18.839844-29.015625 37.042969-32.648437 55.609376l-61.742188.457031c2.832032-13.996094 9.835938-28.273438 21.347656-43.53125 6.808594-9.019531 14.5625-17.621094 22.066407-25.941407 4.304687-4.777343 8.757812-9.714843 13.015625-14.710937 33.140625-38.886719 57.253906-84.324219 79.953125-129.058594l-.457031 3.449219c-.414063 3.117188-1.195313 9.125 1.78125 13.722656-8.945313 8.480469-14.617188 20.59375-15.300782 32.886719-.363281 6.566406.605469 12.992187 1.542969 19.207031.917969 6.070313 1.785156 11.800782 1.46875 17.527344-.097656 1.808594 1.015625 3.457031 2.730469 4.039062 1.898437.644532 3.8125.9375 5.707031.9375 7.777344 0 15.136719-4.976562 19.171875-11.007812 4.972656-7.445312 6.234375-16.449219 7.027344-24.304688 1.191406-11.816406 1.492187-25.289062-4.960938-36.207031 1.378906-.714843 2.671875-1.585937 3.808594-2.574219 3.554688-3.085937 6.097656-6.871093 8.023438-10.929687 7.25 2.984375 14.179687 6.839844 20.699218 11.472656zm-39.1875-47.832031 4.433594-33.488281c1.066406 1.78125 2.304688 3.535156 3.730469 5.238281 3.144531 3.757812 6.777343 6.914062 10.464843 9.859375-5.269531 6.945313-11.605468 13.203125-18.628906 18.390625zm-3.976562 51.550781c.898437.210938 1.816406.316407 2.746094.324219.09375.484375.269531.960938.550781 1.402344 5.6875 8.972656 5.417969 20.675781 4.277343 31.984375-.695312 6.890625-1.765624 14.734375-5.710937 20.632812-2.714844 4.058594-7.804687 7.578125-12.78125 7.421875-.0625-5.328125-.851563-10.554687-1.621094-15.640625-.917969-6.078125-1.785156-11.820312-1.464843-17.554687.601562-10.816406 5.832031-21.460938 14.003906-28.570313zm9.15625-10.34375c-2.644532 2.292969-6.75 3.5625-8.648438 1.800781-1.746094-1.621093-1.511718-5.402343-1.050781-8.886718l2.519531-19.015625c2.796875 6.984375 6.320313 13.660156 10.5625 19.910156.265625.390625.589844.714844.949219.976563-1.207031 1.953124-2.625 3.726562-4.332031 5.214843zm10.421875-22.109375c-.644531 2.757813-1.367188 5.632813-2.292969 8.433594-3.984375-6.355469-7.210938-13.144531-9.625-20.25 6.257812-4.488281 12.039062-9.761719 17.125-15.589844-1.332031 9.050782-3.058594 18.191406-5.207031 27.40625zm7.238281-44.453125c-3.070312-2.492187-6.027344-5.121093-8.488281-8.066406-2.542969-3.039063-5.597657-7.722656-6.207031-13.191406 5.070312-3.164063 10.394531-5.964844 15.882812-8.34375.121094 9.71875-.273438 19.59375-1.1875 29.601562zm-32.320312 35.539063c-2.496094-1.871094-4.597657-4.78125-5.925782-8.324219-1.929687-5.140625-2.246094-11.003906-2.550781-16.675781-.015625-.289063-.066406-.570313-.136719-.84375 4.992188-4.753906 9.03125-9.761719 12.132813-14.191406.761719-1.09375 1.496093-2.199219 2.222656-3.316407zm-16.203126-19.453125c.355469 4.582031 1.015626 9.394531 2.726563 13.960937 1.839844 4.902344 4.847656 9.007813 8.503906 11.8125-11.515625 22.789063-23.265625 45.890625-36.242187 68.296875-29.210938-14.273437-54.707032-37.238281-72.007813-64.78125 4.769531-4.585937 8.460938-10.289062 10.648438-16.539062 1.921875-5.496094 2.660156-11.386719 2.21875-17.1875 2.074219 1.664062 4.144531 3.257812 6.195312 4.796875.082031.0625.167969.121094.257813.175781 12.476562 7.914063 26.601562 12.039063 40.167968 12.039063 6.53125 0 12.9375-.957032 18.964844-2.90625 7.019532-2.273438 13.191406-5.707032 18.566406-9.667969zm-114.101562 2.554687c1.085938 10.632813 2.1875 21.441406 3.285156 31.980469-5.449218-2.746094-10.765625-5.792969-15.875-9.101563 2.316406-8.492187 6.679688-16.375 12.589844-22.878906zm20.570312-13.632812c2.078126 6.871094 1.917969 14.390625-.453124 21.164062-1.9375 5.546875-5.359376 10.535156-9.765626 14.40625-.917968-8.898437-1.835937-17.894531-2.734374-26.730468-1.007813-9.902344-2.039063-20.011719-3.066407-29.960938 1.277344 1.933594 2.570313 3.757812 3.761719 5.429688 3.789062 5.324218 7.894531 9.910156 12.128906 14-.074218.550781-.042968 1.125.128906 1.691406zm-25.039062-29.890625c.933594 8.925781 1.875 18.085937 2.808594 27.210937-5.804688-3.960937-10.542969-9.488281-13.511719-15.859375 3.851563-3.5 7.527344-7.394531 10.703125-11.351562zm-17.074219 16.648437c4.089844 7.808594 10.410157 14.4375 18.011719 18.90625-6.742188 6.640625-11.96875 14.773438-15.222656 23.652344-4.191406-13.25-6.433594-26.539062-6.722656-39.824219.078124-.042969.160156-.082031.238281-.128906 1.222656-.804687 2.457031-1.679687 3.695312-2.605469zm9.199219 59.429688c5.21875 3.15625 10.613281 6.058594 16.113281 8.65625.164063.078125.335938.117187.503907.171875.097656.890625.191406 1.792969.285156 2.679687.261718 2.484375.535156 5.046875-.035156 7.148438-.429688 1.582031-1.503907 2.871094-2.550782 3.070312-1.722656.332032-4.074218-1.828125-6.292968-5.761718-2.996094-5.3125-5.664063-10.632813-8.023438-15.964844zm16.183594 29.757812c.0625-.074218.101562-.15625.160156-.230468 1.609375-.402344 3.109375-1.214844 4.398438-2.355469 9.273437 8.199219 15.375 20.164062 16.472656 32.480469.964844 10.894531-1.976563 22.210937-7.988282 31.398437-2.433593-4.566406-5.699218-8.585937-8.890624-12.515625-3.121094-3.84375-6.070313-7.476562-8.203126-11.492188-6.148437-11.597656-4.445312-27.277343 4.050782-37.285156zm29.058594 29.179688c-1.320313-14.886719-8.9375-29.3125-20.433594-38.871094.742187-3.316406.414062-6.542969.109375-9.410156-.359375-3.371094-.71875-6.796875-1.078125-10.25 17.945312 27.761718 43.878906 50.914062 73.503906 65.515625-8.605469 14.457031-17.777344 28.570312-27.78125 42.058593-10.902344-4.976562-20.820312-11.648437-29.539062-19.878906 4.195312-9.082031 6.097656-19.269531 5.21875-29.164062zm130.679687-148.335938c-.125.039063-.253906.0625-.375.113282-5.183594 2.109374-10.242187 4.574218-15.117187 7.351562 2.070312-4.757812 3.972656-9.535156 5.78125-14.246094 3.121093-.164062 6.210937-.792968 9.179687-1.804687.21875 2.847656.402344 5.707031.53125 8.585937zm-177.285156-114.957031c6.59375-23.769531 19.648437-44.09375 36.761719-57.222656 19.039062-14.609375 43.042968-20.125 64.203124-14.75 14.59375 3.707031 29.25 12.925781 43.558594 27.398437 15.316406 15.496094 25.90625 32.109375 31.464844 49.382813 6.082031 18.886719 5.726562 38.953125-.90625 55.351562-.84375.144531-1.679688.292969-2.496094.441407-2.214844.40625-4.304687.785156-6.300781.921874-9.40625.644532-18.734375-4.617187-24.925781-8.628906-10.644532-6.898437-20.328125-15.308594-28.777344-25.003906-4.328125-4.96875-8.332031-10.28125-11.898438-15.792969-.691406-1.070312-1.464843-2.632812-2.285156-4.289062-2.503906-5.046875-5.34375-10.769531-10.316406-12.382813-2.113281-.691406-4.390625.46875-5.078125 2.589844-.050781.164062-.09375.332031-.125.496094-2.816406 5.4375-25.714844 37.417968-28.347656 40.046875-12.605469 12.585937-27.042969 20.660156-41.753907 23.351562-.429687.078125-.859374.152344-1.292968.222657l-1.429688.226562c-4.75.757812-9.636718 1.546875-14.304687 3.402344-2.539063-24.761719-1.148438-46.316406 4.25-65.761719zm-12.757813 86.558594c.945313-5.132813 4.695313-10.019531 9.542969-12.449219 4.304687-2.160156 9.273437-2.949219 14.535156-3.785156l1.449219-.230469c.488281-.082031.976562-.164063 1.460938-.253906 16.324218-2.988281 32.230468-11.828125 46-25.574219 2.273437-2.269531 11.8125-15.527344 16.539062-22.21875 5.710938-8.085938 9.175781-13.152344 11.25-16.441406 1.167969 1.773437 2.324219 4.109375 3.15625 5.785156.925781 1.867188 1.800781 3.628906 2.742188 5.085938 3.773437 5.832031 8.007812 11.453124 12.589843 16.710937 8.941407 10.261719 19.195313 19.167969 30.46875 26.472656 7.160157 4.640625 18.050781 10.710938 29.859375 9.90625 2.449219-.164062 4.863282-.605469 7.199219-1.03125 4.730469-.863281 9.199219-1.679687 12.59375.097657 1.949219 1.023437 3.300781 2.796874 4.019531 5.277343 1.160156 4 .433594 9.136719-1.851562 13.09375-4.757813 8.234375-14.339844 13.515625-23.84375 13.132813-1.734375-.054688-3.3125.976562-3.925782 2.597656-5.308593 13.949219-11.230468 28.628906-20.101562 41.308594-6.65625 9.515625-17.988281 21.960937-34.164062 27.199218-16.242188 5.261719-35.746094 2.199219-52.199219-8.183593-8.929688-6.703125-18.246094-14.410157-25.96875-25.253907-3.105469-4.359374-6.964844-9.78125-8.875-15.140624-1.640625-4.59375-3.234375-9.316407-4.777344-13.882813-.804687-2.382813-1.609375-4.765625-2.421875-7.144531-.398438-1.160156-1.300781-2.074219-2.453125-2.488282-1.152344-.414062-2.433594-.28125-3.476563.363282-5.03125 3.097656-12.371093 2.070312-16.359374-2.292969-3.410157-3.734375-3.507813-7.859375-2.988282-10.660156zm19.0625 21.851562c.332032.984375.660156 1.964844.992188 2.945313.4375 1.289062.875 2.589844 1.320312 3.898437-.191406.203125-.367187.429688-.515625.679688-4.421875 7.382812-12.105469 15.761719-19.726562 21.722656.511719-9.8125 2.101562-19.617187 4.753906-29.394531 4.242187 1.375 8.914063 1.464844 13.175781.148437zm-3.941406 115.871094c2.183594 3.867187 4.4375 6.320313 6.601562 7.820313-5.261718 7.683593-7.722656 17.132812-7.179687 26.402343-10.492187-8.195312-19.210937-18.535156-25.515625-30.277343 6.96875-4.949219 14.375-8.824219 22.046875-11.488282 1.28125 2.519532 2.628906 5.03125 4.046875 7.542969zm-66.011719 197.601563c-4.214843.039062-7.902343-.09375-10.257812-1.945313-3.140625-2.46875-3.578125-7.902344-3.738281-12.800781-1.238282-37.308594-2.515626-75.886719 8.417968-112.082032 5.5625-18.414062 14.613282-35.355468 26.179688-48.992187 4.019531-4.742187 8.328125-9.03125 12.859375-12.847656 7.859375 14.191406 18.988281 26.4375 32.410156 35.585937.523437.359375 1.097656.574219 1.6875.660156.667969 1.960938 1.488281 3.871094 2.464844 5.710938 2.496093 4.714844 5.835937 8.824219 9.066406 12.800781 4.382813 5.394531 8.527344 10.496094 10.195313 16.542969.390624 1.425781 1.535156 2.519531 2.976562 2.855469.300781.066406.605469.101562.90625.101562 1.144531 0 2.25-.484375 3.023438-1.363281 1.761718-1.996094 3.367187-4.136719 4.828124-6.375 8.546876 7.785156 18.121094 14.222656 28.558594 19.183594-3.425781 4.421875-6.949218 8.773437-10.582031 13.039062-4.183594 4.910156-8.597656 9.804688-12.867187 14.539063-7.617188 8.449219-15.496094 17.183593-22.511719 26.484375-12.703125 16.835937-20.269531 32.703125-23.121094 48.453125l-18.371094.136719c2.003907-31.464844.964844-63.226563-3.109375-94.480469-.289062-2.207031-2.308594-3.765625-4.519531-3.476563-2.207031.289063-3.765625 2.3125-3.476563 4.519532 4.03125 30.929687 5.039063 62.363281 3.019532 93.496093zm307.1875-2.28125-49.828125.367187c-1.75-34.527344.738282-67.136719 7.828125-102.421875.441407-2.183594-.972656-4.308594-3.15625-4.746094-2.179687-.441406-4.308593.972656-4.746093 3.15625-7.203126 35.84375-9.746094 68.988282-7.992188 104.074219l-110.601562.820313c3.628906-16.4375 13.511718-32.796876 30.179687-49.925782 6.726563-6.90625 14.054687-13.523437 21.144531-19.921875 8.511719-7.683593 17.3125-15.625 25.28125-24.25 24.269532-26.265625 41.242188-59.75 48.199219-94.867187 20.25 16.980468 35.808594 41.804687 43.710937 70.902344 8.925782 32.871093 8.929688 70.058593-.019531 116.8125zm0 0"/></svg>