<svg height="511pt" viewBox="-86 0 511 511.99947" width="511pt" xmlns="http://www.w3.org/2000/svg"><g fill="#935252"><path d="m256.664062 216.117188c-1.910156-2.640626-5.21875-4.367188-8.628906-4.5l-5.148437-.203126 1.472656-4.9375c.796875-2.667968 1.585937-5.335937 2.351563-7.996093l1.046874-3.628907 3.683594.835938c.855469.195312 1.742188.292969 2.636719.292969 2.515625 0 4.957031-.78125 6.878906-2.199219l1.058594-.78125h1.316406c.289063 0 .582031-.007812.867188-.023438l3.605469-.199218.566406 3.5625c1.117187 6.980468-.886719 14.4375-5.363282 19.953125l-3.285156 4.046875zm0 0"/><path d="m206.199219 221.226562c-2.105469 0-4.230469-.160156-6.3125-.480468-4.410157-.675782-10.550781-2.402344-14.753907-6.800782-3.398437-3.5625-5.476562-8.886718-5.839843-14.996093-.28125-4.566407.351562-9.15625 1.078125-13.4375l.492187-2.902344 2.917969-.394531c12.367188-1.660156 26.800781-2.011719 36.734375-2.011719 5.320313 0 10.746094.105469 15.6875.300781l4.574219.179688-.792969 4.511718c2.269531 9.878907-1.890625 21.183594-10.34375 28.117188-6.21875 5.105469-14.546875 7.914062-23.441406 7.914062zm0 0"/><path d="m172.738281 281.867188c-10.847656 0-20.65625-2.976563-26.976562-5.476563-18.320313-7.257813-34.113281-20.480469-44.46875-37.238281-9.390625-15.171875-14.261719-33.417969-13.71875-51.371094l.152343-5.039062 4.875 1.292968c1.652344.4375 3.417969.660156 5.253907.660156.382812 0 .765625-.011718 1.148437-.027343l4.492188-.226563-.300782 4.488282c-.605468 9.050781 3.582032 18.414062 10.925782 24.4375 6.136718 5.035156 14.714844 7.925781 23.53125 7.925781 2.058594 0 4.164062-.164063 6.253906-.484375 6.445312-.984375 11.421875-3.277344 14.789062-6.816406 3.425782-3.585938 5.511719-8.921876 5.875-15.039063l.015626-.585937.175781-3.789063 14.273437-.105469.171875 3.851563c.007813.148437.023438.695312.023438.695312.359375 6.046875 2.441406 11.386719 5.859375 14.972657 3.375 3.535156 8.351562 5.832031 14.789062 6.8125 2.101563.324218 4.207032.484374 6.253906.484374 8.824219 0 17.40625-2.886718 23.542969-7.921874 2.617188-2.152344 4.84375-4.726563 6.621094-7.644532l7.238281 3.253906c-3.597656 11.695313-8.292968 25.332032-15.839844 37.804688-6.242187 10.300781-20.003906 28.363281-42.054687 33.609375-4.121094.980469-8.460937 1.476563-12.902344 1.476563zm0 0"/><path d="m164.277344 190.941406c-.304688-2.703125-.765625-5.371094-1.292969-8.328125-12.6875-2.023437-25.757813-3.035156-38.859375-3.035156l-9.339844.035156 5.25-6.539062c2.152344-2.683594 3.855469-5.621094 5.058594-8.734375 3.90625-10.082032 2.949219-16.734375 1.457031-20.539063l-1.78125-4.542969 4.800781-.855468c3.597657-.644532 7.113282-2.230469 10.167969-4.585938 3.316407-2.566406 5.867188-5.867187 7.371094-9.550781l1.8125-4.429687 4.039063 2.570312c3.402343 2.164062 7.472656 3.359375 11.457031 3.359375 1.152343 0 2.300781-.101563 3.414062-.296875 4.5-.78125 8.730469-3.164062 11.917969-6.703125l3.546875-3.941406 2.816406 4.492187c1.753907 2.800782 4.285157 5.078125 7.128907 6.414063 2.160156 1.019531 4.625 1.554687 7.125 1.554687 1.097656 0 2.199218-.101562 3.277343-.304687l4.792969-.902344-.054688 4.878906c-.039062 3.722657 1.085938 7.429688 3.167969 10.433594 2.40625 3.445313 6.175781 6.03125 10.328125 7.082031l3.996094 1.015625-1.136719 3.964844c-1.539062 5.382813-.875 11.179687 1.820313 15.90625.8125 1.429687 1.839844 2.785156 3.0625 4.03125l6.792968 6.9375-9.707031-.136719c-1.960937-.027344-3.976562-.042968-6.035156-.042968-15.71875 0-29.863281.863281-39.835937 2.433593-.515626 2.761719-1.003907 5.546875-1.316407 8.3125l-.402343 3.523438-14.433594.097656zm0 0"/><path d="m167.621094 342.953125c-2.773438 0-5.171875-1.742187-7.589844-3.683594-14.121094-11.332031-28.71875-23.050781-40.636719-37.222656l-1.796875-2.136719 1.382813-2.421875c4.609375-8.070312 6.820312-17.050781 6.074219-24.636719l-.800782-8.074218 6.890625 4.285156c4.699219 2.921875 9.613281 5.40625 14.597657 7.378906 9.171874 3.636719 18.25 5.476563 26.980468 5.476563 4.484375 0 8.835938-.492188 12.933594-1.46875 7.804688-1.851563 15.3125-5.546875 22.316406-10.980469l6.035156-4.683594.410157 7.628906c.328125 6.132813 2.648437 12.769532 6.707031 19.1875l1.679688 2.65625-2.183594 2.261719c-14.441406 14.933594-29.769532 29.289063-45.5625 42.671875-2.28125 1.933594-4.550782 3.679688-7.261719 3.757813zm0 0"/><path d="m137.59375 221.226562c-8.894531 0-17.214844-2.808593-23.4375-7.914062-8.175781-6.703125-12.320312-17.320312-10.558594-27.054688l.40625-2.242187 2.136719-.796875c1.925781-.714844 3.816406-1.644531 5.621094-2.765625l.890625-.554687 1.050781-.046876c3.492187-.144531 7.039063-.21875 10.539063-.21875 11.972656 0 24.023437.863282 35.8125 2.570313l2.894531.417969.480469 2.882812c.832031 5 1.335937 9.203125 1.078124 13.449219-.367187 6.113281-2.445312 11.4375-5.855468 14.996094-4.183594 4.390625-10.335938 6.121093-14.753906 6.796875-2.078126.320312-4.199219.480468-6.304688.480468zm0 0"/><path d="m69.648438 211.917969c-3.859376-2.410157-6.558594-6.679688-7.125-11.234375l-.5-4.023438 4.03125-.445312c2.105468-.230469 4.132812-.71875 5.710937-1.363282 3.300781-1.351562 6.246094-3.644531 8.515625-6.625l7.15625-9.386718.027344 11.800781c.007812 4.5.347656 9.027344 1.007812 13.453125l.78125 5.273438-5.28125-.722657c-.363281-.050781-.742187-.074219-1.125-.074219-1.546875 0-3.195312.414063-4.765625 1.199219-1.097656.554688-2.121093 1.269531-3.019531 2.109375l-2.644531 2.460938zm0 0"/></g><path d="m247.941406 232.933594c-3.097656 0-5.988281-1.210938-7.949218-3.320313-.023438-.015625-2.886719-1.769531-2.886719-1.769531l1.164062-3.09375c1.199219-3.179688 2.34375-6.449219 3.503907-9.992188l.617187-1.890624 1.878906-.648438c1.0625-.363281 2.191407-.550781 3.355469-.550781 3.941406 0 7.6875 2.097656 9.542969 5.339843 2.609375 4.59375 1.261719 10.859376-3.007813 13.976563-1.726562 1.257813-3.933594 1.949219-6.21875 1.949219zm0 0" fill="#d34242"/><path d="m79.5625 229.796875c-4.351562-.230469-8.261719-4.488281-8.386719-9.117187-.125-4.347657 2.660157-8.710938 6.933594-10.855469 1.578125-.789063 3.222656-1.203125 4.761719-1.203125 1.050781 0 2.035156.191406 2.925781.570312l3.40625-.265625.84375 3.308594c.550781 2.3125 1.207031 4.644531 1.941406 6.925781l.722657 2.230469-1.59375 1.71875c-1.605469 1.734375-3.082032 3.269531-4.878907 4.511719-2.039062 1.425781-4.21875 2.183594-6.28125 2.183594-.132812 0-.265625-.003907-.394531-.007813zm0 0" fill="#d34242"/><path d="m163.46875 368.253906c-.746094 0-1.484375-.058594-2.199219-.175781-4.183593-.667969-7.570312-3.105469-11.558593-6.226563-11.867188-9.273437-23.113282-18.617187-30.273438-30.929687l-.476562-.820313-.058594-.945312c-.371094-6.007812-.71875-12.015625-1.058594-18.019531l-.625-11.007813 7.535156 8.046875c10.785156 11.507813 23.214844 21.492188 35.234375 31.144531 1.933594 1.550782 4.578125 3.671876 7.570313 3.699219.089844-.003906.175781-.007812.253906-.011719 2.957031-.089843 5.566406-2.304687 7.296875-3.769531 13.566406-11.488281 26.957031-23.867187 39.796875-36.796875l8.867188-8.929687-2.082032 12.410156c-.917968 5.449219-1.824218 10.84375-2.710937 16.253906l-.285157 1.742188-1.480468.964843c-.078125.050782-.101563.078126-.101563.078126-10.742187 14.289062-23.660156 26.761718-38.347656 37.019531-4.441406 3.101562-9.730469 6.273437-15.296875 6.273437zm0 0" fill="#ffbf48"/><path d="m135.53125 503.746094-.4375-3.421875c-6.527344-51.4375-11.636719-103.933594-15.191406-156.019531l-.8125-11.949219 7.828125 9.058593c6.707031 7.757813 14.921875 14.378907 22.757812 20.496094 3.136719 2.453125 7.035157 5.503906 11.570313 6.230469.734375.121094 1.492187.179687 2.269531.179687 5.539063 0 10.832031-3.175781 15.277344-6.285156 11.292969-7.894531 21.621093-17.175781 30.695312-27.589844l9.207031-10.566406-2.242187 13.832032c-8.816406 54.386718-17.03125 109.335937-24.417969 163.324218v3.8125l-4.085937.003906zm0 0" fill="#ffbf48"/><path d="m63.3125 196.328125c-5.246094 0-9.328125-1.671875-11.488281-4.707031-2.078125-2.917969-2.585938-6.714844-3.082031-10.386719-.359376-2.722656-.722657-5.484375-1.722657-7.871094-1.046875-2.496093-2.75-4.519531-4.554687-6.660156-1.464844-1.730469-3.125-3.6875-4.207032-5.882813-4.226562-8.484374.582032-18.835937 7.519532-24.671874.480468-.402344.984375-.8125 1.492187-1.210938 2.460938-1.980469 4.808594-3.871094 5.75-6.75 1.234375-3.785156-.679687-7.789062-2.367187-11.324219-.5-1.039062-1.019532-2.128906-1.457032-3.179687-2.671874-6.476563-2.167968-14.144532 1.378907-21.050782 3.527343-6.90625 9.453125-11.800781 16.25-13.421874-2.53125-6.933594-.601563-15.296876 4.710937-20.378907 3.488282-3.316406 8.335938-5.210937 13.308594-5.210937 2.558594 0 4.996094.484375 7.242188 1.4375.609374-8.398438 5.785156-16.308594 13.203124-20.183594 3.441407-1.800781 7.390626-2.757812 11.417969-2.757812 4.523438 0 8.898438 1.183593 12.652344 3.417968.101563-10.125 5.261719-20 13.511719-25.808594 5.265625-3.703124 11.472656-5.660156 17.941406-5.660156 4.058594 0 8.046875.769532 11.859375 2.285156 5.570313 2.207032 9.75 4.75 13.144531 7.996094l.113282.117188c1.183593 1.226562 6.070312 7.320312 7.585937 10.144531l.5.933594-.027344 1.0625c2.878907-1.703125 5.667969-3.398438 8.546875-4.894531 3.410156-1.785157 6.507813-3.042969 9.460938-3.851563 2.605468-.703125 5.191406-1.0625 7.695312-1.0625 4.417969 0 8.445313 1.125 11.636719 3.253906 5.132813 3.417969 8.8125 11.0625 5.8125 17.449219 2.667969-1.671875 5.816406-2.570312 9.164063-2.570312 1.386718 0 2.792968.15625 4.171874.46875 4.75 1.078124 8.785157 3.863281 11.082032 7.640624 2.296875 3.777344 2.914062 8.640626 1.695312 13.34375-1.238281 4.714844-4.15625 8.65625-8.015625 10.824219 1.839844-.425781 3.722657-.671875 5.628907-.671875 6.378906 0 12.410156 2.804688 15.742187 7.320313 2.417969 3.257812 3.410156 7.761719 2.652344 12.042969-.667969 3.820312-2.640625 6.996093-5.550781 8.9375.199218.011718.398437.015624.601562.015624.269531 0 .542969-.007812.816406-.007812 7.722656 0 15.25 4.882812 18.300782 11.875 3.261718 7.503906 1.25 16.957031-4.773438 22.488281 7.59375 3.074219 13.152344 10.894531 13.523438 19.070313.355468 8.171875-4.488282 16.457031-11.78125 20.148437-1.367188 13.296875-13.851563 24.519531-27.28125 24.519531-.40625 0-.808594-.011718-1.214844-.03125-2.027344 1.914063-4.871094 3.007813-7.832032 3.007813-2.453124 0-4.816406-.757813-6.652343-2.128906-4.195313-3.152344-5.652344-9.488281-3.25-14.132813-7.054688-.109375-14.097657-4.246094-17.5625-10.332031-3.46875-6.089844-3.433594-14.257813.085937-20.328125l-.449218-.039062c-5.757813 0-11.367188-2.917969-14.644532-7.617188-3.328125-4.773438-4.078125-11.355469-1.910156-16.765625-2.753906 1.726563-5.953125 2.664063-9.296875 2.664063-2.480469 0-4.941406-.542969-7.121094-1.566407-5.167969-2.425781-8.925781-7.65625-9.582031-13.332031-2.5625 6.601562-8.917969 11.847656-15.871094 13.0625-1.089844.191406-2.21875.289062-3.355468.289062-6.117188 0-12.082032-2.691406-15.953126-7.203124-.558593 5.800781-3.75 11.359374-8.8125 15.269531-4.09375 3.164062-8.976562 4.90625-13.753906 4.90625-1.082031 0-2.160156-.089844-3.207031-.265625 6.914063 5.617187 5.566406 17.460937 2.296875 25.90625-3.378906 8.742187-10.511719 15.8125-19.078125 18.910156-2.578125.933594-5.398437 1.425781-8.152344 1.425781-5.957031 0-10.835937-2.3125-13.382812-6.351562-.949219 7.140625-6.023438 13.761719-12.679688 16.496093-2.386719.980469-5.457031 1.539063-8.425781 1.539063zm0 0" fill="#644c4c"/><path d="m199.425781 449.007812c6.839844-47.226562 14.34375-95.328124 22.300781-142.964843l1.449219-8.671875 17.65625 21.457031c7.46875 9.085937 14.113281 18.109375 13.390625 28.65625-.425781 6.160156-3.648437 12.523437-9.066406 17.921875-4.871094 4.847656-10.84375 8.464844-16.621094 11.964844 9.789063 3.28125 14.40625 14.082031 13.914063 23.085937-.449219 8.328125-4.484375 16.996094-12 25.765625-3.15625 3.6875-6.667969 7.15625-10.0625 10.511719-3.351563 3.320313-6.820313 6.757813-9.960938 10.40625-.863281 1-2.226562 2.648437-3.820312 4.8125zm0 0" fill="#288fc9"/><path d="m122.257812 455.558594c-2.820312-3.714844-5.921874-7.257813-8.921874-10.683594l-1.542969-1.761719c-6.972657-7.980469-14.871094-17.027343-17.90625-27.984375-2.796875-10.136718-.261719-23.875 9.949219-29.371094l-.085938-.085937c-5.722656-1.679687-11.636719-3.417969-16.777344-6.671875-5.71875-3.613281-9.542968-8.789062-10.492187-14.199219-1.054688-6.15625 1.445312-12.273437 4.035156-17.449219 6.507813-13.035156 15.234375-24.628906 25.941406-34.457031l.335938-1.078125.824219-.726562c1.074218-.941406 2.183593-1.984375 3.292968-3.105469l6.335938-6.394531.5 8.988281c2.613281 47.066406 6.542968 94.886719 11.671875 142.128906l1.558593 14.34375zm0 0" fill="#288fc9"/><path d="m266.195312 326.761719c-4.003906-2.726563-8.253906-5.257813-12.359374-7.707031l-.320313-.1875c-1.675781-1.003907-3.355469-2.007813-5.042969-3.039063l-5.226562 5.894531c6.121094 7.734375 11.695312 16.207032 11.039062 25.765625-.425781 6.164063-3.648437 12.542969-9.085937 17.960938-2.8125 2.804687-6.167969 5.402343-10.875 8.425781l-4.699219 3.015625 4.367188 3.480469c5.765624 4.59375 8.949218 12.101562 8.519531 20.082031-.453125 8.34375-4.496094 17.023437-12.019531 25.8125-3.15625 3.699219-6.667969 7.167969-10.058594 10.519531-3.171875 3.132813-6.761719 6.679688-9.953125 10.398438-8.300781 9.652344-13.339844 19.726562-13.824219 27.671875l-1.054688.96875-.199218 1.417969c-1.089844 7.757812-2.171875 15.503906-3.222656 23.242187l-.605469 4.441406 78.582031 1.648438.035156-4.050781.652344-68.996094-.625 73.046875 64.957031 1.367187.164063-3.914062c1.550781-37.230469-2.09375-68.734375-11.144532-96.316406-11.335937-34.523438-31.933593-63.269532-58-80.949219zm0 0" fill="#5bd0fc"/><path d="m62.109375 498.082031-.214844 4.121094 73.578125 1.542969-.582031-4.597656c-1.15625-9.164063-2.160156-17.402344-3.0625-25.191407l-.097656-.847656-.4375-.730469c-.019531-.03125-.035157-.058594-.039063-.058594s-.003906.003907 0 .015626c-2.75-10.054688-10.859375-19.304688-18.039062-27.5l-1.480469-1.6875c-6.96875-7.976563-14.867187-17.019532-17.90625-28.015626-2.054687-7.414062-1.394531-18.066406 4.699219-25.15625l3.839844-4.46875-5.570313-1.917968c-4.019531-1.382813-7.148437-2.824219-9.855469-4.53125-5.746094-3.632813-9.578125-8.828125-10.515625-14.25-1.066406-6.175782 1.433594-12.300782 4.023438-17.480469 2.679687-5.367187 5.871093-10.664063 9.484375-15.75l-5.066406-5.886719c-2.753907 1.390625-5.578126 2.769532-8.007813 3.953125l-.09375.046875c-8.214844 4-16.707031 8.136719-24.277344 13.480469-21.234375 14.96875-36.617187 40.570313-43.320312 72.089844-5.511719 25.988281-5.003907 52.511719-3.851563 81.996093l.144532 3.761719 56.363281 1.183594.203125-3.875c1.464844-28.054687.832031-56.339844-1.816406-84.078125 2.707031 27.613281 3.34375 55.820312 1.898437 83.832031zm0 0" fill="#5bd0fc"/><path d="m328.054688 406.449219c-11.609376-35.375-32.769532-64.871094-59.582032-83.054688-4.210937-2.855469-8.621094-5.484375-12.882812-8.023437-8.28125-4.933594-16.097656-9.59375-22.738282-15.851563-9.296874-8.765625-17.34375-23.425781-13.347656-35.160156 4.253906-4.53125 8.175782-9.710937 11.667969-15.476563 2.917969-4.8125 5.425781-9.804687 7.652344-14.90625 2.617187 1.972657 5.871093 3.011719 9.128906 3.011719 3.046875 0 6.089844-.890625 8.605469-2.722656 3.738281-2.722656 5.84375-7.199219 5.96875-11.726563.089844-.070312.191406-.125.28125-.203124 7.5-6.480469 11.148437-17.121094 9.527344-26.882813 10.804687-3.625 19.746093-13.21875 21.792968-24.464844 7.714844-4.8125 12.515625-13.742187 12.109375-22.882812-.355469-8.046875-4.714843-15.578125-11.289062-20.066407 4.40625-6.660156 5.410156-15.578124 2.203125-22.9375-2.824219-6.492187-8.773438-11.410156-15.539063-13.378906.769531-1.566406 1.332031-3.289062 1.65625-5.121094.945313-5.34375-.320312-11.011718-3.386719-15.164062-3.425781-4.640625-8.875-7.675781-14.855468-8.640625.929687-1.664063 1.660156-3.472656 2.15625-5.378906 1.503906-5.761719.722656-11.773438-2.148438-16.492188-2.871094-4.714843-7.847656-8.175781-13.65625-9.484375-3.074218-.695312-6.203125-.746094-9.148437-.191406-.417969-5.59375-3.53125-11.175781-8.640625-14.578125-6.023438-4.011719-14.277344-5.007813-22.644532-2.734375-5.476562 1.488281-10.355468 4.058594-15.011718 6.816406-2.796875-4.503906-7.1875-9.222656-7.253906-9.289062-3.792969-3.640625-8.402344-6.46875-14.5-8.890625-11.285157-4.484375-23.863282-3.050781-33.644532 3.832031-7.675781 5.402344-12.980468 13.925781-14.640625 23.128906-7.324219-2.398437-15.644531-1.839844-22.488281 1.738282-7.195312 3.765624-12.574219 10.78125-14.5625 18.644531-7.125-1.214844-14.867188.972656-20.105469 5.976562-5.433593 5.195313-7.953125 13.226563-6.761719 20.628907-6.28125 2.597656-11.628906 7.628906-15.023437 14.257812-4.074219 7.96875-4.628906 16.875-1.515625 24.433594.476562 1.160156 1.019531 2.292968 1.542969 3.390625 1.5 3.121093 2.914062 6.074219 2.175781 8.332031-.558594 1.71875-2.453125 3.242188-4.457031 4.851562-.519531.414063-1.035157.832032-1.53125 1.25-8.148438 6.859376-13.699219 19.230469-8.546875 29.601563 1.289062 2.59375 3.039062 4.667969 4.734375 6.671875 1.601562 1.898438 3.117187 3.691406 3.921875 5.617188.777344 1.863281 1.097656 4.261718 1.4375 6.796874.53125 3.988282 1.136718 8.507813 3.808594 12.257813 2.351562 3.300781 5.964843 5.109375 9.859374 5.898437.328126 6.296876 3.84375 12.285157 9.261719 15.570313.097657.058594.203125.105469.304688.15625-.585938 1.675781-.886719 3.429687-.835938 5.191406.199219 6.851563 5.679688 12.707031 12.210938 13.054688.21875.011719.4375.019531.65625.019531 2.875 0 5.832031-1.003906 8.589843-2.917969.996094-.691406 1.894532-1.464843 2.746094-2.261719 1.863282 4.347657 4.027344 8.566407 6.519532 12.59375 5.582031 9.027344 12.679687 17.058594 20.863281 23.769532.070312.308594.164062.613281.3125.910156 5.03125 10.140625.425781 24.367188-5.988281 33.292969-7.453126 10.378906-19.207032 17.265625-28.613282 22.109375-3.066406 1.578125-6.246094 3.125-9.320312 4.621094-8.394532 4.082031-17.070313 8.304687-24.941406 13.859374-22.078126 15.566407-38.035157 42.046876-44.941407 74.558594-6.105469 28.742188-4.929687 58.257813-3.792969 86.800782.085938 2.128906 1.8125 3.824218 3.941407 3.871093l329.757812 6.917969h.085938c2.140625 0 3.914062-1.679688 4.023437-3.828125 2.003906-39.445313-1.648437-72.71875-11.167968-101.722656zm-103.507813-28.597657c.175781 1.5625 1.25 2.882813 2.746094 3.375 7.777343 2.558594 11.558593 11.707032 11.164062 19.011719-.402343 7.425781-4.117187 15.292969-11.042969 23.378907-3.050781 3.5625-6.5 6.976562-9.835937 10.277343-3.417969 3.378907-6.945313 6.875-10.183594 10.640625-1.054687 1.226563-2.472656 2.957032-4.007812 5.046875 6.910156-47.699219 14.378906-95.535156 22.289062-142.878906l12.066407 14.671875c6.9375 8.4375 13.113281 16.761719 12.488281 25.832031-.359375 5.1875-3.160157 10.644531-7.894531 15.363281-4.53125 4.515626-10.296876 8.003907-15.871094 11.378907-1.347656.8125-2.097656 2.335937-1.917969 3.902343zm-85.480469 121.972657c-6.539062-51.539063-11.625-103.765625-15.175781-155.792969 6.703125 7.753906 14.855469 14.414062 23.320313 21.027344 3.3125 2.589844 7.855468 6.140625 13.40625 7.035156.980468.15625 1.945312.230469 2.898437.230469 6.554687 0 12.507813-3.476563 17.570313-7.011719 11.625-8.117188 22.144531-17.59375 31.421874-28.238281-8.824218 54.417969-17.039062 109.300781-24.472656 163.6875-.003906.027343 0 .058593-.003906.089843zm75.964844-178.289063c-.402344.253906-.769531.574219-1.074219.976563-10.523437 13.988281-23.136719 26.164062-37.488281 36.1875-4.476562 3.128906-9.710938 6.214843-14.566406 5.433593-3.246094-.523437-6.203125-2.671874-9.726563-5.429687-11.570312-9.039063-22.5-18.132813-29.277343-29.792969-.378907-6.003906-.726563-12.003906-1.0625-17.996094 10.949218 11.6875 23.46875 21.746094 35.652343 31.523438 2.28125 1.832031 5.703125 4.578125 10.121094 4.578125.09375 0 .191406 0 .285156-.003906 4.367188-.117188 7.765625-2.996094 9.796875-4.714844 13.820313-11.710937 27.253906-24.140625 40.050782-37.035156-.90625 5.421875-1.816407 10.839843-2.710938 16.273437zm-34.816406-142.90625c-1.703125.265625-3.046875 1.585938-3.347656 3.28125-.492188 2.792969-.992188 5.632813-1.320313 8.527344l-7.289063.050781c-.332031-2.910156-.835937-5.769531-1.332031-8.578125-.296875-1.695312-1.644531-3.015625-3.34375-3.28125-13.347656-2.09375-26.902343-3.101562-40.433593-3.042968 2.363281-2.945313 4.300781-6.25 5.679687-9.808594 3.871094-10.003906 3.625-17.878906 1.445313-23.433594 4.199218-.753906 8.308593-2.578125 11.914062-5.363281 3.914062-3.027344 6.882812-6.921875 8.625-11.195313 5.199219 3.304688 11.613281 4.695313 17.707031 3.628906 5.46875-.957031 10.507813-3.863281 14.207031-7.972656 2.128907 3.394532 5.195313 6.210938 8.820313 7.914063 3.964844 1.863281 8.527344 2.363281 12.835937 1.558593-.042968 4.503907 1.28125 9.007813 3.886719 12.753907 3.011719 4.328125 7.574219 7.402343 12.625 8.6875-1.792969 6.285156-1.066406 13.273437 2.1875 18.984375 1.011719 1.777344 2.261719 3.402344 3.683594 4.855468-14.863281-.21875-33.019531.308594-46.550781 2.433594zm-72.675782 8.339844c2.207032-.816406 4.328126-1.867188 6.332032-3.121094 15.210937-.640625 30.539062.132813 45.613281 2.316406.703125 4.191407 1.277344 8.449219 1.03125 12.546876-.308594 5.164062-1.996094 9.59375-4.746094 12.472656-3.421875 3.582031-8.671875 5.027344-12.46875 5.609375-9.8125 1.503906-19.757812-.953125-26.605469-6.570313-7.050781-5.78125-10.644531-15.019531-9.15625-23.253906zm76.769532-.789062c15.84375-2.125 37.121094-2.257813 51.734375-1.675782-.085938.503906-.074219 1.035156.046875 1.566406 1.929687 8.453126-1.683594 18.160157-8.988282 24.152344-6.847656 5.617188-16.789062 8.078125-26.605468 6.570313-3.800782-.582031-9.046875-2.027344-12.46875-5.609375-2.753906-2.878906-4.4375-7.308594-4.746094-12.472656-.246094-4.089844.324219-8.34375 1.027344-12.53125zm67.5 41.570312c-2.585938 1.882812-6.75 1.46875-8.914063-.890625-.261719-.285156-.566406-.511719-.882812-.703125 1.273437-3.359375 2.453125-6.753906 3.566406-10.15625 2.894531-1.003906 6.601563.328125 8.117187 2.992188 1.582032 2.777343.699219 6.871093-1.886718 8.757812zm8.09375-13.980469c-2.695313-3.734375-7.15625-5.964843-11.710938-6.144531.804688-2.683594 1.589844-5.363281 2.363282-8.035156 4.363281.992187 9.140624.101562 12.773437-2.585938.367187-.003906.730469-.019531 1.097656-.039062.941407 5.882812-.769531 12.183594-4.523437 16.804687zm-204.816406-24.464843c-1.511719-2.121094-1.933594-5.289063-2.382813-8.644532-.394531-2.945312-.800781-5.992187-1.992187-8.835937-1.28125-3.070313-3.273438-5.429688-5.199219-7.710938-1.449219-1.71875-2.816407-3.339843-3.671875-5.058593-3.269532-6.578126.917968-15.132813 6.515625-19.847657.453125-.378906.917969-.753906 1.386719-1.132812 2.707031-2.171875 5.773437-4.632813 7.078124-8.640625 1.738282-5.328125-.652343-10.308594-2.570312-14.3125-.5-1.042969-.96875-2.027344-1.359375-2.976563-2.214844-5.375-1.761719-11.824219 1.238281-17.6875 3.003906-5.867187 7.96875-10.003906 13.625-11.355469 1.117188-.269531 2.070313-1.003906 2.617188-2.019531.542968-1.015625.625-2.214843.226562-3.296875-2.011718-5.445312-.484375-12.050781 3.710938-16.0625 2.792968-2.667968 6.675781-4.101562 10.535156-4.101562 1.945312 0 3.886719.363281 5.675781 1.117187 1.203125.507813 2.570313.402344 3.679688-.28125 1.109375-.679687 1.820312-1.855469 1.90625-3.15625.488281-7 4.820312-13.628906 11.039062-16.882812 6.21875-3.253907 14.132813-3.035157 20.164063.554687 1.242187.742188 2.785156.761719 4.046875.046875 1.257812-.710937 2.039062-2.042969 2.046875-3.488281.046875-8.820312 4.558594-17.453125 11.769531-22.53125 7.550781-5.3125 17.277344-6.40625 26.027344-2.929688 5.097656 2.023438 8.878906 4.316407 11.855469 7.175782 1.066406 1.101562 5.6875 6.929687 6.941406 9.25-.023438.761718.164062 1.535156.59375 2.230468 1.160156 1.898438 3.644531 2.496094 5.542968 1.332032 0 .003906.003907 0 .003907 0 5.390625-3.304688 10.96875-6.722656 16.921875-8.339844 6.121094-1.660156 11.972656-1.054688 16.058594 1.664062 3.765624 2.507813 6.433593 8.09375 4.410156 12.417969-.765625 1.632813-.351563 3.578125 1.007812 4.757813 1.363282 1.179687 3.34375 1.316406 4.851563.324218 2.804687-1.835937 6.527343-2.410156 10.214843-1.578124 3.6875.832031 6.800782 2.953124 8.542969 5.816406 1.742188 2.859375 2.191407 6.601562 1.238281 10.257812-.957031 3.660156-3.179687 6.699219-6.097656 8.34375-1.769531 1-2.519531 3.160156-1.75 5.039063.769532 1.882812 2.820313 2.898437 4.777344 2.367187 6.4375-1.730468 13.617188.410156 17.082031 5.101563 1.777344 2.40625 2.5 5.761719 1.933594 8.96875-.488281 2.753906-1.851563 4.996093-3.839844 6.308593-1.535156 1.015626-2.1875 2.9375-1.585937 4.675782.597656 1.738281 2.292968 2.851562 4.128906 2.707031 6.40625-.507813 13.164062 3.542969 15.730469 9.433594 2.5625 5.886719.925781 13.597656-3.808594 17.9375-1.019531.9375-1.488281 2.335937-1.238281 3.699219.25 1.363281 1.179687 2.503906 2.46875 3.015624 6.179687 2.46875 10.703125 8.835938 11 15.484376.292968 6.652343-3.648438 13.394531-9.585938 16.398437-1.226562.621094-2.050781 1.820313-2.191406 3.1875-1.191406 11.707031-12.550781 21.464844-24.300781 20.875-1.109375-.058594-2.183594.347656-2.984375 1.109375-2.394532 2.285156-6.652344 2.539062-9.304688.558594-2.648437-1.980469-3.609375-6.140625-2.09375-9.085938.640625-1.242187.589844-2.726562-.132812-3.925781-.722656-1.195313-2.015625-1.933594-3.414063-1.949219-5.636719-.050781-11.296875-3.378906-14.089843-8.277344-2.789063-4.898437-2.765626-11.464843.0625-16.339843.734374-1.261719.726562-2.824219-.019532-4.082031-.746094-1.253907-2.125-2.019532-3.574218-1.96875-4.503907.117187-9.089844-2.195313-11.667969-5.898438s-3.160157-8.800781-1.480469-12.988281c.652344-1.632813.175781-3.5-1.183594-4.617188-1.359375-1.113281-3.285156-1.21875-4.757812-.261719-3.648438 2.378907-8.550782 2.714844-12.488282.863282-3.941406-1.847656-6.808593-5.839844-7.3125-10.160156-.214843-1.847657-1.660156-3.308594-3.507812-3.539063-1.839844-.230469-3.605469.832031-4.265625 2.570313-2.019531 5.328124-7.148437 9.566406-12.761719 10.546874-5.609375.980469-11.871094-1.261718-15.582031-5.585937-1.058594-1.230469-2.75-1.707031-4.292969-1.210937-1.546875.496093-2.640625 1.871093-2.78125 3.488281-.410156 4.671875-3.039062 9.203125-7.21875 12.4375-4.179687 3.230469-9.226562 4.640625-13.851562 3.855469-1.8125-.304688-3.597656.652343-4.347656 2.328124-.753907 1.671876-.277344 3.644532 1.152343 4.792969 5.625 4.515625 3.339844 15.507813 1.101563 21.289063-2.976563 7.683594-9.222656 13.890625-16.714844 16.597656-5.800781 2.101562-13.660156 1.65625-16.789062-3.304688-.910157-1.441406-2.625-2.15625-4.285157-1.785156-1.664062.371094-2.914062 1.746094-3.125 3.4375-.71875 5.746094-4.808593 11.085938-10.167969 13.28125-4.378906 1.785156-12.453124 1.980469-15.140624-1.792968zm11.410156 10.886718c2.53125-.277344 4.890625-.863281 6.785156-1.640625 4.058594-1.660156 7.550781-4.453125 10.1875-7.902343.003906 4.695312.355469 9.390624 1.046875 14.03125-2.632813-.355469-5.503906.152343-8.222656 1.515624-1.460938.730469-2.789063 1.667969-3.953125 2.753907-.164063-.140625-.328125-.277344-.519532-.390625-2.902343-1.757813-4.910156-4.988282-5.324218-8.367188zm17.472656 24.144532c-1.460938 1.011718-2.957031 1.527343-4.21875 1.46875-2.277344-.121094-4.503906-2.667969-4.578125-5.234376-.082031-2.78125 1.863281-5.730468 4.734375-7.167968 1.601562-.804688 3.21875-1.007813 4.320312-.535156.628907.269531 1.285157.34375 1.921876.289062.585937 2.4375 1.261718 4.851562 2.03125 7.234375-1.386719 1.503906-2.726563 2.914063-4.210938 3.945313zm20.722656 12.714843c-9.0625-14.660156-13.640625-31.941406-13.117187-49.148437 2.453125.648437 5.050781.886718 7.632812.757812-.679687 10.175782 3.976563 20.910156 12.371094 27.796875 6.957031 5.707031 16.359375 8.828125 26.078125 8.828125 2.277344 0 4.574219-.171875 6.859375-.519531 7.328125-1.125 13.078125-3.820313 17.082031-8.011719 4.070313-4.257812 6.542969-10.496094 6.964844-17.5625.011719-.214844.011719-.425781.019531-.640625l6.628907-.046875c.011718.230469.007812.457032.023437.6875.421875 7.066406 2.894531 13.304688 6.960937 17.5625 4.007813 4.191406 9.753907 6.886719 17.082032 8.011719 2.285156.347656 4.582031.519531 6.859375.519531 9.71875 0 19.121093-3.121094 26.078125-8.828125 3-2.460937 5.523437-5.414062 7.496094-8.660156-3.933594 12.8125-8.535157 25.515625-15.4375 36.910156-5.917969 9.769531-18.921876 26.886719-39.554688 31.789063-14.355469 3.410156-28.304688-.199219-37.480469-3.832032-17.523437-6.933593-32.636719-19.582031-42.546875-35.613281zm39.578125 43.113281c9.667969 3.824219 19.300781 5.757813 28.457031 5.757813 4.769532 0 9.410157-.523437 13.855469-1.582031 8.429688-2.003906 16.484375-6.003906 23.84375-11.707032.386719 7.273438 3.210938 14.609376 7.316407 21.109376-14.324219 14.820312-29.546876 29.082031-45.265626 42.402343-1.652343 1.398438-3.386718 2.769531-4.796874 2.808594-1.460938.035156-3.277344-1.304687-5.148438-2.804687-13.992188-11.230469-28.4375-22.839844-40.078125-36.679688 4.542969-7.945312 7.484375-17.792969 6.582031-27.003906 4.835938 3.003906 9.929688 5.597656 15.234375 7.699218zm-30.515625 30.632813c2.632813 47.347656 6.546875 95.019531 11.691406 142.347656-2.933593-3.859375-6.136718-7.523437-9.179687-10.992187l-1.464844-1.671875c-6.6875-7.65625-14.269531-16.339844-17.054687-26.425781-3.199219-11.585938 1.726562-21.410157 7.988281-24.769532 1.441406-.777344 2.273437-2.34375 2.105469-3.96875-.171875-1.628906-1.308594-2.992187-2.875-3.453125-5.484375-1.609375-11.15625-3.273437-15.851563-6.242187-4.777343-3.023438-7.945312-7.214844-8.6875-11.507813-.863281-5 1.367188-10.378906 3.664063-14.976562 6.28125-12.578125 14.714844-23.78125 25.070312-33.296875.535156-.488282.890625-1.097656 1.097656-1.742188 1.199219-1.050781 2.363282-2.152344 3.496094-3.300781zm-100.664062 105.289063c6.480468-30.519532 21.289062-55.253907 41.699218-69.644532 7.339844-5.179687 15.71875-9.253906 23.824219-13.199218 2.648438-1.289063 5.367188-2.621094 8.058594-3.984376-3.660156 5.148438-6.945313 10.574219-9.792969 16.277344-2.882812 5.769532-5.660156 12.652344-4.394531 19.953125 1.128906 6.53125 5.621094 12.710938 12.320313 16.949219 3.410156 2.15625 7.03125 3.675781 10.6875 4.929688-6.664063 7.765624-8.0625 19.621093-5.519532 28.835937 3.277344 11.855469 11.5 21.273437 18.757813 29.582031l1.472656 1.683594c6.882813 7.847656 14.683594 16.742188 17.191406 25.921875.101563.375.265625.714844.457031 1.03125.984376 8.425781 2.007813 16.835937 3.070313 25.230469l-64.820313-1.359375c1.453126-28.082031.828126-56.464844-1.902343-84.4375-.214844-2.214844-2.1875-3.84375-4.402344-3.617188-2.21875.214844-3.839844 2.1875-3.621094 4.402344 2.699219 27.65625 3.3125 55.722656 1.863281 83.484375l-48.722656-1.023438c-1.058594-26.863281-1.855468-54.511718 3.773438-81.015624zm318.257812 87.769531-57.09375-1.195313.589844-69.097656c.019531-2.226562-1.773438-4.046875-3.996094-4.066406-.011718 0-.023437 0-.035156 0-2.210938 0-4.011719 1.78125-4.03125 3.996094l-.589844 68.996093-70.050781-1.46875c1.054687-7.730469 2.128906-15.472656 3.21875-23.21875.742187-.683593 1.234375-1.640625 1.296875-2.726562.414062-6.953125 5.21875-16.402344 12.851562-25.285157 3.023438-3.519531 6.4375-6.898437 9.738282-10.164062 3.453125-3.417969 7.023437-6.949219 10.289062-10.761719 8.109375-9.46875 12.472656-18.953125 12.972656-28.191406.554688-10.332031-4.015624-18.636719-10.03125-23.429687 4.050782-2.597657 8.019532-5.449219 11.550782-8.960938 6.117187-6.097656 9.753906-13.386719 10.246094-20.519531.738281-10.75-5.136719-19.992188-11.890626-28.515625 1.695313 1.03125 3.390626 2.046875 5.078126 3.050781 4.164062 2.480469 8.46875 5.046875 12.484374 7.773437 25.339844 17.1875 45.390626 45.207032 56.449219 78.894532 8.890625 27.085937 12.484375 58.160156 10.953125 94.890625zm0 0"/></svg>