<svg height="511pt" viewBox="-53 0 511 511.99776" width="511pt" xmlns="http://www.w3.org/2000/svg"><path d="m127.613281 451.304688c-11.214843 0-19.6875-1.722657-26.660156-5.421876l-2.472656-1.3125.386719-2.777343c2.109374-15.066407 5.109374-30.21875 8.96875-48.335938l.125-.605469c3.492187-16.429687 7.09375-33.375 6.230468-50.289062-.890625-17.199219-6.691406-32.320312-16.328125-42.574219l-3.246093-3.453125 3.949218-2.621094c.996094-.660156 1.996094-1.332031 2.984375-2.003906 4.9375-3.335937 9.96875-6.730468 15.132813-9.042968.75-.332032 1.535156-.5 2.335937-.5 4.164063 0 6.964844 4.214843 10.1875 9.722656.4375.742187.851563 1.4375 1.234375 2.0625 5.503906 8.851562 9.589844 18.644531 13.542969 28.113281l.351563.839844c1.523437 3.632812 3.101562 7.390625 4.730468 11.03125 10.90625 24.242187 24.113282 38.28125 40.375 42.90625 3.695313 1.054687 7.609375 1.585937 11.625 1.585937 11.890625 0 24.226563-4.625 34.734375-13.023437 14.046875-11.214844 22.980469-27.046875 29.191407-39.589844 2.667968-5.40625 5.292968-11.164063 7.40625-15.792969 3.515624-7.71875 7.5-16.46875 11.996093-24.597656l2.292969-4.136719 21.484375 17.089844-3.507813 3.164063c-.03125.03125-.070312.0625-.101562.097656l-.042969.847656-.363281.742188c-9.710938 19.191406-19.378906 41.984374-17.464844 65.507812.355469 4.410156 1.144532 9.160156 2.425782 14.527344l.910156 3.816406-3.796875.984375c-18.386719 4.769531-34.5625 15.503906-50.203125 25.882813l-.292969.191406c-7.511719 4.976562-15.277344 10.117187-23.207031 14.546875-24.640625 13.753906-52.578125 21.484375-80.796875 22.355469-1.328125.035156-2.703125.0625-4.117188.0625zm0 0" fill="#59bd8b"/><path d="m337.140625 91.992188c-16.210937 0-32.214844-6.894532-42.8125-18.449219l-1.605469-1.753907.769532-2.25c1.796874-5.230468 2.558593-9.554687 2.398437-13.601562-.234375-6.140625-2.863281-11.625-7.027344-14.683594-1.378906-1.011718-2.945312-1.730468-4.664062-2.144531l-3.941407-.949219 1.003907-3.929687c2.742187-10.746094 9.855469-19.957031 19.519531-25.265625 5.847656-3.214844 12.542969-4.910156 19.359375-4.910156 4.878906 0 9.617187.855468 14.082031 2.542968 8.113282 3.058594 14.683594 8.429688 21.640625 14.121094l.441407.359375c2.976562 2.425781 6.058593 4.933594 9.210937 7.164063 8.167969 5.78125 16.511719 8.835937 24.128906 8.839843 1.402344 0 2.777344-.109375 4.09375-.320312l7.546875-1.21875-3.300781 6.894531c-5.300781 11.066406-14.191406 20.097656-25.035156 25.421875-7.269531 3.566406-15.515625 5.449219-23.847657 5.449219-7.023437 0-13.792968-1.289063-20.128906-3.835938 3.734375 5.894532 8.820313 11.078125 14.664063 15.035156l9.414062 6.367188-11.328125.933594c-1.507812.121094-3.050781.183594-4.582031.183594zm0 0" fill="#d34242"/><path d="m126.695312 157.941406c-6.089843.003906-12.121093-.632812-17.921874-1.882812l-3.570313-.769532.445313-3.625c1.019531-8.375.695312-16.957031.382812-25.253906-.261719-6.863281-.554688-14.644531.050781-22.027344 2.015625-24.640624 14.703125-48.617187 33.933594-64.136718 16.0625-12.953125 37.253906-20.378906 58.148437-20.378906 1.460938 0 2.9375.035156 4.390626.105468 1.96875.097656 3.914062.175782 5.832031.25l1.832031.070313c18.507812.695312 35.976562 1.355469 52.4375 15.148437 13.523438 11.328125 23.472656 28.277344 28.007812 47.730469 3.859376 16.554687 4.039063 35.371094.527344 55.929687-.308594 1.824219-.789062 3.621094-1.386718 5.1875l-.613282 1.605469-1.589844.660157.121094 2.152343-1.738281 1.242188c-1.160156.863281-2.476563 1.332031-3.808594 1.359375h-.109375c-2.578125-.019532-5-1.675782-7.023437-3.292969-24.714844-19.628906-40.949219-48.882813-44.527344-80.253906-7.800781 29.0625-23.84375 53.941406-45.230469 70.042969-17.257812 12.984374-38.066406 20.136718-58.589844 20.136718zm0 0" fill="#d34242"/><path d="m68.574219 91.992188c-1.53125 0-3.074219-.0625-4.585938-.1875l-11.324219-.929688 9.410157-6.371094c5.847656-3.953125 10.933593-9.136718 14.714843-14.988281-6.289062 2.464844-13.25 3.792969-20.171874 3.792969-8.335938 0-16.582032-1.886719-23.851563-5.449219-10.832031-5.316406-19.71875-14.34375-25.035156-25.421875l-3.308594-6.894531 7.554687 1.21875c1.316407.210937 2.695313.320312 4.097657.320312 7.613281 0 15.957031-3.058593 24.121093-8.835937 3.15625-2.234375 6.238282-4.742188 9.214844-7.167969l.433594-.351563c6.964844-5.699218 13.535156-11.070312 21.652344-14.128906 4.460937-1.6875 9.199218-2.542968 14.078125-2.542968 6.816406 0 13.511719 1.695312 19.359375 4.910156 9.664062 5.308594 16.777344 14.519531 19.519531 25.265625l1.003906 3.929687-3.941406.949219c-1.71875.414063-3.285156 1.132813-4.660156 2.144531-4.167969 3.058594-6.796875 8.542969-7.03125 14.679688-.160157 4.050781.601562 8.375 2.398437 13.605468l.769532 2.25-1.605469 1.753907c-10.597657 11.550781-26.601563 18.449219-42.8125 18.449219zm0 0" fill="#d34242"/><path d="m97.609375 505.664062-.414063-3.53125c-1.832031-15.648437-1.640624-32.59375.578126-51.804687l.625-5.398437 4.96875 2.203124c6.523437 2.890626 14.207031 4.238282 24.179687 4.238282 1.441406 0 2.84375-.03125 4.195313-.070313 28.210937-.871093 56.160156-8.601562 80.816406-22.363281 7.90625-4.414062 15.644531-9.539062 23.128906-14.496094l.371094-.246094c16.34375-10.851562 31.785156-21.097656 50.195312-25.878906l3.8125-.988281 1.046875 3.800781c.574219 2.085938 1.179688 4.167969 1.773438 6.222656l.0625.214844c1.273437 4.378906 2.855469 9.832032 4.058593 15.042969 7.066407 30.722656 3.34375 63.433594.355469 89.714844l-.40625 3.550781zm0 0" fill="#cbe580"/><path d="m286.136719 68.601562c-3.261719-8.105468-7.523438-15.515624-12.660157-22.023437l-2.5625-3.253906 3.335938-2.449219c1.839844-1.347656 4.246094-2.09375 6.777344-2.09375 2.820312 0 5.585937.894531 7.792968 2.515625 4.15625 3.058594 6.78125 8.535156 7.015626 14.648437.144531 3.660157-.496094 7.675782-1.96875 12.261719l-.558594 1.75-1.472656.625-3.980469 2.28125zm0 0" fill="#ffbf48"/><path d="m199.382812 317.128906c-2.953124 0-5.964843-.125-8.945312-.375-12.261719-1.027344-22.960938-3.984375-31.800781-8.792968-9.421875-5.105469-17.046875-12.652344-21.457031-21.246094l-1.527344-2.976563 2.660156-2.027343c4.179688-3.195313 7.742188-7.011719 10.582031-11.34375l2.050781-3.132813 3.261719 1.84375c14.125 7.984375 30.808594 12.378906 46.980469 12.378906l1.402344-.007812c16.554687-.25 33.589844-5.15625 47.910156-13.8125l3.199219-1.9375 2.144531 3.066406c2.988281 4.265625 6.457031 8.140625 10.316406 11.511719l2.730469 2.382812-2.105469 2.953125c-7.878906 11.042969-19.6875 20.054688-33.246094 25.371094-10.410156 4.074219-21.902343 6.144531-34.15625 6.144531zm0 0" fill="#ffbf48"/><path d="m110.867188 64.777344c-.769532-3.195313-1.089844-6.085938-.984376-8.832032.234376-6.113281 2.855469-11.589843 7.015626-14.648437 2.210937-1.625 4.984374-2.519531 7.808593-2.519531 2.859375 0 5.484375.917968 7.394531 2.589844l3.179688 2.785156-2.953125 3.023437c-5.390625 5.515625-10.136719 11.792969-14.105469 18.664063l-5.007812 8.664062zm0 0" fill="#ffbf48"/><g fill="#ffdac4"><path d="m348.324219 507.929688c-8.753907-.082032-17.875-.503907-25.921875-.875-7.441406-.34375-14.164063-.640626-21.035156-.796876l-4.378907-.097656.492188-4.351562c3.5-30.863282 6.097656-60.90625-.414063-89.203125-1.152344-5.003907-2.605468-10.027344-4.011718-14.886719l-.050782-.167969c-2.816406-9.730469-5.464844-18.875-6.253906-28.621093-1.882812-23.152344 7.511719-45.507813 15.90625-62.394532l2.257812-4.542968 3.890626 3.257812c13.578124 11.371094 25.046874 25.628906 33.167968 41.230469 10.886719 20.921875 17.054688 46.429687 18.332032 75.8125 1.132812 26.308593-1.597657 52.8125-4.238282 78.445312-.277344 2.792969-.757812 4.785157-2.316406 6.011719-1.195312.976562-2.753906 1.179688-4.859375 1.179688zm0 0"/><path d="m201.707031 253.8125c-11.308593 0-22.574219-2.429688-32.582031-7.03125-22.867188-10.527344-39.835938-32.457031-44.285156-57.238281-2.144532.988281-4.460938 1.5-6.933594 1.5-6.75 0-13.136719-3.792969-15.890625-9.4375-3.898437-8.003907-.183594-18.882813 7.789063-22.832031l1.402343-2.164063 2.523438.414063c4.25.648437 8.601562.976562 12.9375.976562 20.570312 0 41.398437-7.15625 58.652343-20.144531 17.601563-13.253907 31.550782-32.3125 40.335938-55.105469l4.527344-11.753906 3.082031 12.214844c6.449219 25.5625 21.273437 48.597656 41.75 64.867187 2.492187 1.976563 4.636719 3.292969 7.015625 3.292969h.105469c1.746093-.019532 3.246093-.675782 4.609375-2.003906l2.492187-2.433594 2.75 2.132812c5.65625 4.386719 8.464844 11.820313 6.996094 18.503906-1.769531 8.003907-9.648437 14.273438-17.9375 14.273438-.402344 0-.804687-.015625-1.207031-.046875-2.003906 25.132813-16.714844 48.640625-38.429688 61.382813-11.839844 6.953124-25.570312 10.632812-39.703125 10.632812zm0 0"/><path d="m201.519531 374.113281c.175781-5.136719-.113281-10.285156-.847656-15.292969.691406 5.144532.972656 10.417969.773437 15.691407l-.160156 4.1875-4.175781-.355469c-2.71875-.230469-5.296875-.691406-7.664063-1.371094-16.226562-4.609375-29.417968-18.636718-40.316406-42.875-1.746094-3.890625-3.425781-7.898437-5.050781-11.78125-3.96875-9.507812-8.0625-19.3125-13.589844-28.207031-.324219-.527344-.65625-1.09375-1.003906-1.6875l-3.585937-3.585937 4.957031-2.484376c.40625-.203124.796875-.40625 1.191406-.621093l3.535156-1.890625 1.886719 3.535156c4.433594 8.320312 11.941406 15.652344 21.136719 20.648438 8.859375 4.804687 19.566406 7.761718 31.824219 8.789062 2.984374.25 5.996093.375 8.945312.375 12.097656 0 23.914062-2.125 34.183594-6.144531 13.46875-5.277344 25.222656-14.210938 33.101562-25.152344l2.273438-3.160156 3.222656 2.1875c1.925781 1.3125 3.980469 2.53125 6.105469 3.625l3.503906 1.808593-1.757813 3.527344c-2.691406 5.414063-5.222656 10.960938-7.671874 16.320313l-.074219.167969c-2.351563 5.144531-4.777344 10.464843-7.328125 15.617187-9.199219 18.601563-18.195313 30.804687-29.167969 39.570313-8.828125 7.054687-19.417969 11.554687-29.820313 12.671874l-4.582031.492188zm0 0"/><path d="m201.175781 281.398438c-16.199219 0-32.917969-4.421876-47.070312-12.449219l-3.148438-1.785157 1.460938-3.308593c2.378906-5.390625 3.726562-11.351563 3.902343-17.234375l.199219-6.773438 5.832031 3.449219c2.1875 1.289063 4.457032 2.484375 6.75 3.539063 9.976563 4.59375 21.246094 7.023437 32.585938 7.023437 13.601562 0 26.890625-3.414063 38.425781-9.871094l4.6875-2.625 1.171875 5.242188c1.207032 5.40625 3.1875 10.6875 5.886719 15.695312l1.804687 3.355469-3.257812 1.96875c-14.285156 8.625-31.289062 13.515625-47.878906 13.765625-.449219.003906-.902344.007813-1.351563.007813zm0 0"/><path d="m76.902344 507.296875c-8.929688 0-18.605469-.574219-29.582032-1.761719-3.191406-.351562-6.222656-.832031-8.332031-2.871094-2.71875-2.664062-2.765625-6.953124-2.597656-10.761718 1.4375-33.378906 2.925781-67.902344 11.578125-100.945313 6.550781-24.992187 20.460938-59.933593 49.550781-84.496093l3.46875-2.929688 2.46875 3.816406c6.296875 9.730469 9.984375 21.910156 10.664063 35.226563.878906 16.878906-2.722656 33.816406-6.199219 50.195312l-.160156.707031c-4.023438 18.925782-7.140625 34.761719-9.25 50.40625l-.039063.300782-.085937.292968.007812.308594-.046875.324219c-2.839844 21.6875-3.226562 39.824219-1.214844 57.066406l.480469 4.113281-4.128906.335938c-5.535156.453125-10.960937.671875-16.582031.671875zm0 0"/></g><path d="m403.660156 30.914062c-1.300781-1.007812-3.082031-1.128906-4.503906-.300781-9.40625 5.476563-22.328125.652344-31.289062-5.683593-3.191407-2.261719-6.355469-4.847657-9.414063-7.347657-6.90625-5.644531-14.054687-11.484375-22.796875-14.789062-11.90625-4.496094-25.671875-3.519531-36.828125 2.609375-11.152344 6.128906-19.355469 17.226562-21.945313 29.6875-.011718.050781-.007812.101562-.015624.152344-2.042969.523437-3.949219 1.441406-5.566407 2.753906-1.929687-2.003906-3.9375-3.910156-6.039062-5.667969-17.527344-14.6875-35.683594-15.375-54.902344-16.097656-2.492187-.097657-5.023437-.191407-7.601563-.316407-23.398437-1.148437-47.191406 6.570313-65.289062 21.171876-.714844.578124-1.417969 1.171874-2.117188 1.769531-.074218-.082031-.132812-.171875-.214843-.25-1.757813-1.648438-3.9375-2.761719-6.289063-3.363281-.007812-.050782-.003906-.101563-.015625-.152344-2.589843-12.460938-10.792969-23.558594-21.945312-29.6875-11.15625-6.128906-24.921875-7.105469-36.828125-2.609375-8.742188 3.304687-15.886719 9.144531-22.796875 14.789062-3.058594 2.5-6.222657 5.085938-9.414063 7.347657-17.195312 12.164062-28.296875 7.425781-31.289062 5.683593-1.421875-.828125-3.203125-.710937-4.5.300781-1.300782 1.007813-1.855469 2.703126-1.40625 4.285157 4.433594 15.597656 15.773437 29.171875 30.332031 36.308593 10.570313 5.179688 22.777344 6.941407 34.433594 5.203126-4.230469 3.871093-9.140625 7.003906-14.441407 9.160156-1.574218.636718-2.578124 2.199218-2.511718 3.898437.070312 1.695313 1.195312 3.171875 2.820312 3.679688 5.726563 1.804687 11.664063 2.667969 17.589844 2.667969 13.265625 0 26.464844-4.363282 37.121094-12.277344-2.050782 6.589844-3.40625 13.375-3.964844 20.210937-.617188 7.550781-.332031 15.152344-.058594 22.507813.363282 9.710937.707032 18.886718-.839844 27.972656-.289062 1.675781.515626 3.289062 1.914063 4.121094-6.425781 6.214844-8.6875 16.507812-4.679687 24.726562 4.164062 8.550782 14.277343 13.144532 23.417968 11.375 4.417969 18.371094 15.371094 34.9375 30.304688 46.417969 0 .015625-.003906.027344 0 .039063.871094 8.839843-1.15625 17.902343-5.71875 25.527343-4.277344 7.152344-10.730469 12.941407-18.285156 16.445313-3.195313-3.722656-7.496094-6.519532-13.066407-4.019532-5.503906 2.464844-10.703125 5.980469-15.734375 9.375-2.449218 1.65625-4.765625 3.21875-7.085937 4.648438-1.089844.671875-1.796875 1.824219-1.902344 3.101562-.101563 1.28125.40625 2.53125 1.375 3.371094 1.226563 1.070313 2.398437 2.230469 3.519531 3.457032-30.019531 25.195312-44.382812 60.980468-51.152344 86.808593-8.753906 33.40625-10.253906 68.175781-11.707031 101.800781-.144531 3.390626-.417969 9.707032 3.8125 13.832032 3.042969 2.964844 7.136719 3.628906 10.734375 4.015625 11.054688 1.195312 20.765625 1.785156 30.007813 1.785156 7.867187 0 15.390625-.429687 23.097656-1.28125.425781-.050781.824219-.179687 1.195313-.347656l193.796874.207031c.453126.183594.949219.292969 1.464844.296875 8.605469.085937 17.335938.488281 25.777344.875 8.519531.394531 17.328125.800781 26.082031.882813.199219.003906.414063.003906.640625.003906 2.023438 0 4.972656-.167969 7.382813-2.09375 3.148437-2.523438 3.566406-6.574219 3.789062-8.746094 2.652344-25.8125 5.394531-52.5 4.25-79.035156-1.296875-29.976563-7.617187-56.054688-18.785156-77.511719-8.699219-16.71875-20.957031-31.746094-35.582031-43.660156.238281-.457031.476562-.914063.714844-1.367188.898437-1.714843.453124-3.824219-1.058594-5.027343l-20.402344-16.234376c-.910156-.722656-2.089844-1.019531-3.238281-.808593-1.144531.210937-2.144531.90625-2.738281 1.90625-1.082032 1.820312-2.113282 3.667969-3.125 5.527343-15.980469-8.199218-27.816407-24.371093-30.78125-42.089843 18.601562-13.273438 31.277343-34.394531 34.117187-57.097657 9.160156-1.097656 17.457031-8.214843 19.464844-17.316406 1.910156-8.636718-2.085938-18.027344-9.203125-23.109375.613281-1.671875 1.105468-3.515625 1.453125-5.542969 3.605469-21.097656 3.410156-40.457031-.578125-57.550781-.273438-1.164062-.566406-2.320312-.878906-3.46875 11.4375 11.113281 27.222656 17.347657 43.101562 17.347657 5.925781 0 11.863281-.867188 17.589844-2.667969 1.621094-.511719 2.75-1.984375 2.816406-3.683594.070312-1.699219-.933594-3.257813-2.507812-3.898437-5.300782-2.15625-10.210938-5.289063-14.441407-9.160157 11.652344 1.738281 23.863281-.023437 34.433594-5.203125 14.558594-7.136718 25.898437-20.710937 30.332031-36.308594.445313-1.578124-.109375-3.273437-1.40625-4.28125zm-117.207031 13.605469c3.179687 2.339844 5.191406 6.664063 5.382813 11.578125.148437 3.769532-.707032 7.550782-1.777344 10.890625-.074219.035157-.144532.078125-.214844.121094-3.40625-8.46875-7.875-16.234375-13.226562-23.007813 2.558593-1.878906 6.878906-1.753906 9.835937.417969zm-143.921875-1.15625c16.578125-13.378906 38.378906-20.449219 59.832031-19.398437 2.609375.128906 5.171875.226562 7.691407.320312 18.574218.703125 34.617187 1.308594 50.027343 14.21875 12.867188 10.777344 22.34375 26.960938 26.683594 45.570313 3.746094 16.039062 3.90625 34.328125.484375 54.355469-.261719 1.53125-.664062 3.070312-1.179688 4.425781-.992187.414062-1.816406 1.207031-2.222656 2.289062-.199218.523438-.277344 1.0625-.253906 1.589844-.46875.355469-.96875.566406-1.496094.574219-1.289062-.007813-2.964844-1.152344-4.558594-2.417969-23.898437-18.980469-39.589843-47.261719-43.054687-77.585937-.21875-1.925782-1.777344-3.421876-3.710937-3.5625-1.9375-.140626-3.691407 1.113281-4.191407 2.984374-7.5 28.203126-23.019531 52.308594-43.703125 67.878907-21.738281 16.363281-48.859375 22.796875-73.257812 17.539062 1.050781-8.683593.726562-17.414062.40625-25.894531-.265625-7.117188-.539063-14.472656.039062-21.546875 1.929688-23.5625 14.066406-46.492187 32.464844-61.339844zm-28.652344 12.734375c.191406-4.914062 2.207032-9.242187 5.382813-11.578125 3.105469-2.28125 7.71875-2.324219 10.210937-.144531-5.683594 5.816406-10.628906 12.382812-14.710937 19.460938-.601563-2.484376-.984375-5.117188-.882813-7.738282zm-49.558594 31.722656c6.277344-4.253906 11.714844-9.769531 15.824219-16.132812.949219-1.476562.835938-3.398438-.28125-4.75-1.117187-1.355469-2.984375-1.832031-4.613281-1.175781-12.957031 5.210937-28.179688 4.652343-40.71875-1.496094-10.070312-4.933594-18.347656-13.441406-23.199219-23.558594 9.417969 1.527344 20.492188-1.640625 31.171875-9.199219 3.421875-2.421874 6.695313-5.097656 9.859375-7.683593 6.703125-5.476563 13.03125-10.652344 20.542969-13.488281 9.730469-3.675782 20.980469-2.878907 30.09375 2.128906 8.660156 4.761718 15.136719 13.1875 17.578125 22.753906-2.160156.519531-4.246094 1.445312-6.09375 2.804688-5.136719 3.777343-8.375 10.414062-8.664063 17.757812-.214843 5.5 1.121094 10.714844 2.621094 15.054688-10.953125 11.945312-27.941406 18.316406-44.121094 16.984374zm103.113282 162.652344c10.746094 4.945313 22.5 7.390625 34.257812 7.390625 14.035156 0 28.066406-3.496093 40.375-10.386719 1.300782 5.816407 3.433594 11.449219 6.269532 16.71875-13.703126 8.28125-29.886719 12.953126-45.867188 13.191407-16.027344.238281-32.410156-3.984375-46.390625-11.910157 2.601563-5.898437 4.046875-12.292968 4.242187-18.738281 2.300782 1.359375 4.671876 2.613281 7.113282 3.734375zm-119.6875 251.085938c-2.363282-.253906-4.773438-.601563-5.976563-1.773438-1.519531-1.484375-1.507812-4.757812-1.382812-7.710937 1.433593-33.199219 2.917969-67.53125 11.453125-100.105469 6.449218-24.609375 20.046875-58.625 48.261718-82.449219 5.820313 9.003907 9.371094 20.554688 10.027344 33.253907.847656 16.378906-2.703125 33.066406-6.136718 49.203124l-.132813.628907c-3.734375 17.542969-7.105469 34.339843-9.316406 50.738281-.117188.410156-.179688.828125-.164063 1.246094-2.585937 19.703125-3.464844 38.847656-1.21875 58.042968-14.058594 1.152344-28.011718.804688-45.414062-1.074218zm241.359375-102.875c1.410156 4.859375 2.867187 9.886718 4.003906 14.828125 6.65625 28.949219 3.605469 59.089843.273437 88.359375l-192.21875-.199219c-1.953124-16.753906-1.421874-33.582031.578126-50.882813 8.464843 3.746094 17.722656 4.578126 25.808593 4.578126 1.476563 0 2.917969-.027344 4.304688-.070313 28.863281-.882813 57.441406-8.792969 82.65625-22.867187 8.164062-4.558594 16.089843-9.816407 23.757812-14.902344 16.089844-10.671875 31.304688-20.75 48.984375-25.332032.605469 2.175782 1.230469 4.339844 1.851563 6.488282zm49.320312-50.351563c10.621094 20.40625 16.636719 45.347657 17.878907 74.140625 1.121093 25.945313-1.589844 52.339844-4.210938 77.859375-.074219.710938-.296875 2.863281-.8125 3.277344-.433594.347656-2.164062.332031-2.902344.324219-8.609375-.082032-17.34375-.484375-25.789062-.875-6.914063-.316406-14.023438-.636719-21.136719-.792969 3.246094-28.59375 6.417969-60.523437-.488281-90.558594-1.1875-5.164062-2.675782-10.300781-4.113282-15.265625-2.753906-9.5-5.355468-18.472656-6.113281-27.828125-1.726562-21.300781 6.375-41.941406 15.496094-60.292969 13.1875 11.039063 24.261719 24.777344 32.191406 40.011719zm-50.523437-60.777343 14.089844 11.210937c-.207032.179687-.398438.378906-.570313.605469-.519531.671875-.789063 1.457031-.832031 2.246094-10.804688 21.351562-19.789063 44.160156-17.886719 67.648437.414063 5.136719 1.347656 10.175781 2.519531 15.125-18.996094 4.933594-35.472656 15.847656-51.410156 26.417969-7.539062 5.003906-15.339844 10.175781-23.234375 14.582031-24.085937 13.445313-51.394531 21.003906-78.96875 21.847656-8.765625.265625-19.753906-.09375-28.785156-4.890625 2.175781-15.511718 5.382812-31.4375 8.921875-48.0625l.132812-.628906c3.542969-16.648438 7.203125-33.863281 6.304688-51.296875-.945313-18.324219-7.078125-34.121094-17.40625-45.105469 1.015625-.675781 2.023437-1.359375 3.019531-2.03125 4.742187-3.203125 9.652344-6.519531 14.519531-8.699218 1.980469-.886719 4.230469 2.109374 7.445313 7.589843.445312.761719.871093 1.488281 1.277343 2.140625 5.347657 8.609375 9.382813 18.265625 13.28125 27.601563 1.632813 3.914062 3.324219 7.964843 5.101563 11.914062 11.417969 25.390625 25.457031 40.148438 42.921875 45.121094 16.035156 4.5625 34.710938.019531 49.953125-12.15625 14.679687-11.722656 23.894531-28.039063 30.28125-40.945313 2.605469-5.265624 5.070313-10.671874 7.457031-15.90625 3.695313-8.105468 7.5-16.445312 11.867188-24.328124zm-19.203125 20.984374c-2.359375 5.171876-4.800781 10.523438-7.347657 15.671876-8.9375 18.058593-17.597656 29.847656-28.082031 38.222656-8.425781 6.726562-18.25 10.796875-27.75 11.816406.179688-5.34375-.113281-10.714844-.894531-16.007812-.320312-2.203126-2.367188-3.722657-4.574219-3.402344-2.203125.324218-3.726562 2.371094-3.402343 4.574218.726562 4.941407.992187 9.957032.800781 14.945313-2.359375-.199219-4.675781-.59375-6.898438-1.226563-15.035156-4.277343-27.390625-17.582031-37.773437-40.671874-1.730469-3.847657-3.402344-7.847657-5.015625-11.714844-4.023438-9.628906-8.179688-19.589844-13.871094-28.75-.371094-.597656-.761719-1.261719-1.171875-1.960938-.019531-.039062-.042969-.074218-.0625-.109375.429688-.214843.855469-.4375 1.28125-.660156 4.828125 9.027344 12.785156 16.851563 22.761719 22.269531 9.363281 5.082032 20.597656 8.199219 33.402343 9.265625 3.113282.257813 6.210938.386719 9.28125.386719 12.632813 0 24.804688-2.179688 35.632813-6.421875 14.25-5.582031 26.5625-14.96875 34.890625-26.535156 2.097656 1.417969 4.277344 2.714843 6.527344 3.871093-2.726563 5.472657-5.257813 11.003907-7.734375 16.4375zm-5.175781-25.246093c-7.429688 10.421875-18.539063 18.90625-31.449219 23.964843-12.320313 4.828126-26.605469 6.730469-41.304688 5.507813-11.683593-.972656-21.851562-3.769531-30.222656-8.316406-8.8125-4.785157-15.761719-11.675781-19.804687-19.566407 4.484374-3.421874 8.398437-7.59375 11.492187-12.320312 14.777344 8.347656 32 12.894531 48.953125 12.894531.46875 0 .9375-.003906 1.402344-.011719 17.414062-.257812 35.046875-5.355468 49.976562-14.386718 3.148438 4.5 6.832032 8.625 10.957032 12.234375zm31.554687-116.585938c-1.441406 6.519531-8.285156 11.605469-14.941406 11.105469-2.207031-.171875-4.148438 1.488281-4.320313 3.707031-1.867187 23.816407-15.824218 46.121094-36.425781 58.214844-20.605469 12.089844-46.882813 13.398437-68.585937 3.414063-21.703126-9.988282-37.808594-30.796876-42.027344-54.3125-.222656-1.238282-1.011719-2.300782-2.132813-2.875-1.121093-.574219-2.445312-.589844-3.582031-.042969-6.035156 2.898437-14.515625-.050781-17.449219-6.070313-2.933593-6.019531-.035156-14.515625 5.96875-17.484375.65625-.328125 1.171875-.816406 1.550781-1.386719 4.464844.679688 8.988282 1.023438 13.542969 1.023438 21.1875 0 42.886719-7.273438 61.054688-20.953125 18.222656-13.71875 32.679687-33.554687 41.660156-56.859375 6.613281 26.253906 21.828125 50.09375 43.136719 67.019531 2.757812 2.191407 5.835937 4.21875 9.671875 4.164063 2.789062-.035156 5.277343-1.136719 7.339843-3.144532 4.269532 3.3125 6.703126 9.210938 5.539063 14.480469zm76.105469-102.441406c-12.539063 6.148437-27.761719 6.707031-40.71875 1.496094-1.628906-.65625-3.496094-.179688-4.613282 1.175781-1.121093 1.351562-1.230468 3.273438-.28125 4.75 4.109376 6.367188 9.546876 11.878906 15.824219 16.132812-16.175781 1.328126-33.167969-5.039062-44.121093-16.980468 1.5-4.339844 2.835937-9.554688 2.617187-15.058594-.285156-7.339844-3.527344-13.980469-8.660156-17.757812-1.847657-1.355469-3.933594-2.28125-6.09375-2.804688 2.4375-9.5625 8.914062-17.992188 17.574219-22.753906 9.117187-5.007813 20.367187-5.804688 30.097656-2.128906 7.511718 2.835937 13.839844 8.011718 20.542968 13.488281 3.164063 2.589843 6.4375 5.261719 9.859376 7.683593 10.675781 7.558594 21.753906 10.726563 31.167968 9.199219-4.847656 10.117188-13.125 18.625-23.195312 23.558594zm0 0"/></svg>