<svg height="511pt" viewBox="-89 0 511 511.99903" width="511pt" xmlns="http://www.w3.org/2000/svg"><path d="m165.414062 333.957031 6.28125 10.566407c5.097657 8.574218 10.75 16.921874 16.804688 24.8125l1.894531 2.464843-1.925781 2.441407c-6.871094 8.730468-13.433594 16.457031-20.050781 23.621093-.820313.878907-1.535157 1.585938-2.203125 2.171875l-7.5625 6.6875zm0 0" fill="#bfc7d8"/><path d="m152.492188 398.136719c-5.835938-7.25-11.527344-14.902344-16.902344-22.746094l-1.96875-2.867187 2.570312-2.347657c7.726563-7.0625 14.609375-14.980469 20.453125-23.542969l8.714844-12.769531-6.683594 71.957031zm0 0" fill="#bfc7d8"/><path d="m187.246094 367.566406c-7.789063-10.320312-14.863282-21.386718-21.035156-32.886718l-2.476563-4.625 5.113281-1.167969c6.242188-1.425781 12.75-5.164063 19.339844-11.117188 2.46875-2.234375 4.863281-4.652343 7.179688-6.988281l.21875-.222656c3.996093-4.03125 8.128906-8.203125 12.820312-11.640625l3.574219-2.617188 2.238281 3.824219c3.09375 5.28125 7.324219 10.429688 12.238281 14.890625l2.570313 2.332031-1.949219 2.875c-11.570313 17.070313-22.074219 32.421875-33.460937 47.359375l-3.195313 4.195313zm0 0" fill="#f0f2fa"/><path d="m131.019531 368.546875c-10.152343-15.542969-19.207031-32.007813-26.914062-48.941406l-1.234375-2.710938 2.246094-1.960937c3.554687-3.101563 6.800781-6.839844 9.386718-10.816406l2.644532-4.066407 3.488281 3.371094c7.6875 7.429687 16.164062 15.097656 26.046875 20.828125 3.261718 1.890625 8.203125 4.46875 13.589844 5.128906h6.523437l-3.242187 5.925782c-6.96875 12.6875-15.871094 24.121093-26.460938 33.980468l-3.476562 3.238282zm0 0" fill="#f0f2fa"/><path d="m164.546875 432.84375c-4.472656 0-9.0625-1.011719-13.636719-3.007812-7.503906-3.289063-13.828125-8.730469-18.496094-13.109376-24.164062-22.675781-40.847656-52.113281-55.285156-80.546874l-1.90625-3.753907 3.851563-1.710937s.328125-.164063.4375-.214844c6.542969-3.265625 13.296875-6.640625 19.40625-10.820312l3.910156-2.671876 1.984375 4.296876c12.726562 27.59375 28.816406 53.542968 47.828125 77.125 1.285156 1.59375 3.222656 4 5.847656 4.585937.433594.097656.855469.144531 1.308594.144531 3.824219 0 7.210937-3.679687 8.660156-5.25 22.789063-24.652344 42.460938-53.71875 58.269531-77.070312l2.339844-3.453125 3.351563 2.476562c6.007812 4.445313 12.589843 8.292969 18.816406 11.855469l3.90625 2.234375-2.675781 3.617187c-23.378906 31.613282-41.816406 55.492188-59.78125 77.425782-6.039063 7.375-11.679688 13.703125-19.589844 16.453125-2.65625.921875-5.535156 1.394531-8.546875 1.394531zm0 0" fill="#fff"/><path d="m267.90625 507.730469-.148438-3.832031c-.699218-18.585938.339844-37.25 3.09375-55.476563-2.796874 18.105469-3.839843 36.664063-3.167968 55.140625l.152344 4.167969-209.007813-1.023438.234375-4.199219c1.28125-22.980468.746094-46.183593-1.585938-68.960937 2.28125 22.902344 2.808594 46.238281 1.503907 69.367187l-.214844 3.792969-37.789063-.179687c-4.496093-.019532-8.789062-.253906-11.921874-2.792969-4.117188-3.335937-4.585938-9.339844-4.476563-15.328125.464844-26.894531 2.042969-55.457031 10.371094-82.109375 9.125-29.179687 25.859375-52.738281 47.125-66.328125 2.675781-1.71875 5.632812-3.410156 9.574219-5.480469l3.585937-1.882812 1.839844 3.613281c14.464843 28.460938 31.171875 57.921875 55.289062 80.554688 4.683594 4.386718 11.019531 9.84375 18.515625 13.121093 4.523438 1.972657 9.25 3.015625 13.667969 3.015625 3.015625 0 5.894531-.46875 8.566406-1.398437 7.914063-2.753907 13.796875-9.367188 19.621094-16.476563 17.980469-21.953125 36.589844-46.0625 60.335937-78.183594l2.125-2.875 3.097657 1.792969c4.628906 2.675781 10.050781 5.921875 15.195312 9.679688 19.707031 14.402343 35.039063 36.015625 44.332031 62.507812 7.652344 21.769531 11.316407 46.832031 11.207032 76.609375-.023438 7.628906-.917969 16.921875-7.707032 21.058594-3.488281 2.132812-7.734374 2.308594-11.78125 2.308594zm0 0" fill="#d34242"/><path d="m242.929688 179.273438c-.144532-.128907-.289063-.25-.425782-.363282-.722656-.523437-1.601562-.886718-2.765625-1.144531l-2.53125-.554687-.527343-2.539063c-3.289063-15.859375-7.496094-31.695313-12.503907-47.0625-2.027343-6.191406-4.34375-12.683594-8.285156-17.925781-4.464844-5.945313-10.519531-9.453125-16.605469-9.625-.136718-.003906-.285156-.003906-.433594-.003906-5.589843 0-11.378906 2.664062-17.703124 8.148437-1.425782 1.230469-2.832032 2.550781-4.195313 3.824219l-.160156.152344c-3.625 3.394531-7.046875 6.601562-11.238281 8.980468-3.441407 1.945313-7.308594 3.015625-10.894532 3.015625-3.164062 0-6.039062-.863281-8.3125-2.496093-3.070312-2.203126-4.972656-5.636719-6.8125-8.960938-1.941406-3.527344-3.9375-7.15625-7.34375-9.324219-1.996094-1.265625-4.460937-1.9375-7.128906-1.9375-3.472656 0-7.179688 1.148438-10.4375 3.234375-9.148438 5.855469-14.6875 17.222656-16.9375 34.75-.265625 2.042969-.5 4.105469-.734375 6.164063-1.328125 11.738281-2.574219 22.75-8.601563 32.167969-.019531.042968-.410156.917968-.410156.917968l-.617187.566406c-.347657.316407-.675781.71875-.945313 1.160157l-1.664062 2.699219s-3.070313-1.023438-3.101563-1.03125c-.125 0-.25-.003907-.371093-.003907-.476563 0-.945313.019531-1.414063.050781l-3.480469.230469-.707031-3.417969c-5.933594-28.761718-2.523437-57.585937 9.601563-81.164062 13.449218-26.171875 38.476562-45.523438 65.320312-50.503906 4.664062-.867188 9.503906-1.304688 14.378906-1.304688 28.644532 0 57.753906 15.273438 74.15625 38.917969 18.121094 26.117187 22.0625 61.695313 10.285156 92.851563l-2.09375 5.535156zm0 0" fill="#644c4c"/><path d="m190.957031 49.988281c-8.664062-2.703125-17.457031-4.070312-26.144531-4.070312-4.84375 0-9.644531.433593-14.265625 1.292969-3.214844.597656-6.492187 1.425781-9.734375 2.460937l-3.550781 1.128906-1.378907-3.457031c-6.140624-6.492188-6.835937-17.867188-1.613281-26.453125 6.066407-9.960937 17.078125-13.929687 23.105469-15.40625 3.875-.945313 7.742188-1.425781 11.496094-1.425781 4.960937 0 9.664062.84375 13.976562 2.507812 8.457032 3.257813 15.117188 9.855469 17.820313 17.644532 2.890625 8.328124.820312 18.164062-5.042969 23.9375-.015625.027343-1.664062 2.777343-1.664062 2.777343zm0 0" fill="#644c4c"/><g fill="#ffdac4"><path d="m254.421875 213.742188c-2.191406-1.570313-4.527344-2.746094-6.933594-3.496094l-1.980469 2.332031-2.789062-1.296875-7.027344-3.296875 2.976563-3.9375c4.03125-5.328125 6.257812-11.394531 6.441406-17.546875l.113281-3.738281 3.734375-.140625c.171875-.003906.347657-.007813.519531-.007813 5.867188 0 11.546876 3.585938 14.132813 8.921875 3.050781 6.28125 1.816406 14.761719-3.003906 20.617188-.289063.347656-.574219.667968-.859375.984375l-2.390625 2.671875zm0 0"/><path d="m163.816406 285.367188c-11.488281 0-22.855468-2.441407-32.875-7.066407-21.539062-9.941406-38.265625-30.46875-43.648437-53.5625-1.96875.550781-3.996094.84375-6.066407.84375-4.367187 0-8.777343-1.328125-12.410156-3.742187l-4.496094-2.980469 4.160157-3.4375c1.171875-.964844 2.433593-1.917969 3.757812-2.828125-1.5.957031-2.875 2-4.117187 3.046875l-3.742188 3.144531-2.339844-4.289062c-3.375-6.175782-3.625-13.851563-.65625-20.03125 3.53125-7.363282 11.421876-12.308594 19.628907-12.308594l4.097656.023438v4.085937c.15625 8.261719 4.179687 16.582031 11.035156 22.746094 6.019531 5.425781 14.101563 9.144531 23.378907 10.753906 2.914062.511719 5.792968.769531 8.566406.769531 6.804687 0 12.742187-1.550781 17.640625-4.609375 5.039062-3.148437 9.457031-9.320312 10.746093-15.011719.027344-.128906.054688-.292968.082032-.453124l.089844-.507813.507812-2.691406 2.691406-.496094c2.394532-.445313 4.847656-.667969 7.289063-.667969.894531 0 1.800781.027344 2.695312.089844l3.21875.210938.472657 3.191406c.066406.453125.140624.894531.242187 1.355468 1.28125 5.660157 5.699219 11.832032 10.738281 14.980469 4.902344 3.058594 10.835938 4.613281 17.644532 4.613281 2.785156 0 5.664062-.261718 8.554687-.769531 9.289063-1.613281 17.371094-5.332031 23.386719-10.753906 1.714844-1.550781 3.257812-3.226563 4.578125-4.96875l1.953125-2.585937 10.308594 4.832031-3.5 4c1.289062.410156 2.546874.925781 3.792968 1.554687l7.8125 3.945313-8.097656 3.324219c-3.042969 1.25-6.300781 1.972656-9.675781 2.144531-4.378907 23.335937-20.167969 44.59375-41.246094 55.492187-10.902344 5.632813-23.417969 8.613282-36.199219 8.613282zm0 0"/><path d="m202.285156 220.460938c-6.800781 0-12.941406-1.585938-17.746094-4.589844-4.105468-2.550782-9.214843-8.328125-10.714843-14.972656-.851563-3.738282-.359375-7.195313 1.417969-9.988282 5.585937-8.761718 19.332031-13.410156 29.40625-14.730468 3.109374-.40625 6.34375-.605469 9.882812-.605469 7.734375 0 15.472656.96875 22.957031 1.90625l.152344.015625c1.929687.25 3.566406.523437 4.855469 1.492187 1.203125.890625 2.644531 2.875 2.570312 7.1875-.164062 8.210938-4.277344 16.730469-11.015625 22.792969-5.996093 5.402344-14.066406 9.117188-23.347656 10.738281-2.863281.503907-5.695313.753907-8.417969.753907zm0 0"/><path d="m156.335938 193.742188c-.320313-1.0625-.753907-2.027344-1.292969-2.875-5.601563-8.773438-19.371094-13.433594-29.457031-14.753907-3.125-.40625-6.359376-.605469-9.886719-.605469-6.886719 0-13.863281.789063-19.863281 1.53125l-6.8125.839844 2.628906-6.34375c3.332031-8.039062 4.355468-17.085937 5.351562-25.839844.230469-2.089843.472656-4.167968.734375-6.242187 2.261719-17.515625 7.796875-28.867187 16.921875-34.714844 3.203125-2.046875 7.019532-3.222656 10.46875-3.222656 2.640625 0 5.003906.652344 7.023438 1.9375 3.355468 2.125 5.363281 5.742187 7.300781 9.238281 1.863281 3.371094 3.761719 6.8125 6.859375 9.039063 2.277344 1.636719 5.203125 2.503906 8.449219 2.503906 3.59375 0 7.328125-1.046875 10.808593-3.023437 4.203126-2.378907 7.792969-5.742188 11.261719-8.992188l.542969-.503906c1.292969-1.203125 2.511719-2.34375 3.8125-3.46875 6.3125-5.472656 12.082031-8.132813 17.640625-8.132813.148437 0 .292969.003907.441406.007813 5.992188.175781 12.183594 3.765625 16.574219 9.601562 3.953125 5.253906 6.164062 11.46875 8.265625 17.90625 4.691406 14.378906 8.703125 29.269532 11.929687 44.257813l1.171876 5.460937-5.546876-.648437c-5.054687-.589844-11.039062-1.191407-17.117187-1.191407-3.535156 0-6.773437.199219-9.90625.605469-10.074219 1.320313-23.839844 5.976563-29.453125 14.757813-.472656.75-.875 1.613281-1.1875 2.542968l-.980469 2.945313-3.097656-.222656c-.9375-.066407-1.886719-.101563-2.828125-.101563-2.09375 0-4.214844.167969-6.296875.503906l-3.449219.550782zm0 0"/><path d="m163.054688 329.476562c-.859376 0-1.71875-.046874-2.5625-.140624-4.1875-.464844-8.4375-2.050782-13.78125-5.148438-10.71875-6.21875-19.894532-14.816406-27.65625-22.386719l-1.984376-1.933593 1.117188-2.539063c2.601562-5.914063 3.632812-11.75 2.972656-16.878906l-.984375-7.6875 6.835938 3.648437c1.382812.738282 2.660156 1.375 3.898437 1.945313 10.011719 4.613281 21.386719 7.050781 32.898438 7.050781 12.8125 0 25.339844-2.972656 36.234375-8.601562.742187-.378907 1.460937-.777344 2.175781-1.179688l6.085938-3.441406-.117188 6.992187c-.074219 4.617188.839844 9.382813 2.722656 14.167969l1.160156 2.945312-2.601562 1.804688c-5.183594 3.597656-9.632812 8.089844-13.9375 12.429688-2.371094 2.402343-4.828125 4.886718-7.390625 7.203124-5.921875 5.359376-15.085937 11.75-25.085937 11.75zm0 0"/><path d="m127.949219 220.460938c-2.722657 0-5.554688-.253907-8.417969-.75-9.28125-1.625-17.355469-5.339844-23.351562-10.738282-6.734376-6.066406-10.851563-14.582031-11.011719-22.785156-.074219-4.324219 1.367187-6.308594 2.589843-7.210938 1.269532-.953124 2.90625-1.230468 4.757813-1.464843l.21875-.027344c7.496094-.9375 15.242187-1.90625 22.984375-1.90625 3.574219 0 6.808594.199219 9.875.605469 10.066406 1.320312 23.8125 5.964844 29.394531 14.726562 1.785157 2.796875 2.273438 6.253906 1.417969 10-1.5 6.636719-6.605469 12.410156-10.71875 14.96875-4.789062 2.992188-10.925781 4.582032-17.738281 4.582032zm0 0"/></g><path d="m321.65625 406.605469c-9.578125-27.285157-25.40625-49.566407-45.769531-64.4375-6.613281-4.828125-13.757813-8.90625-20.664063-12.847657-7.726562-4.410156-15.714844-8.96875-22.683594-14.46875-11.460937-9.046874-22.699218-24.347656-19.859374-40.152343.070312-.382813.066406-.753907.027343-1.121094 5.042969-3.746094 9.664063-8.082031 13.761719-12.878906h.003906c4.113282 2.117187 8.71875 3.152343 13.332032 3.152343 6.207031 0 12.425781-1.878906 17.457031-5.546874 8.765625-6.394532 13.464843-17.878907 11.695312-28.582032-.835937-5.042968-3.101562-9.78125-6.332031-13.726562.386719-.410156.761719-.828125 1.117188-1.261719 5.886718-7.15625 7.300781-17.191406 3.515624-24.980469-2.738281-5.644531-8.15625-9.554687-14-10.777344 12.015626-32.015624 7.953126-69.339843-10.820312-96.402343-10.433594-15.035157-25.46875-26.59375-42.210938-33.480469 5.667969-6.992188 7.414063-17.179688 4.277344-26.21875-3.089844-8.898438-10.636718-16.410156-20.191406-20.097656-8.359375-3.222656-18.003906-3.648438-27.890625-1.238282-11.457031 2.792969-20.554687 8.917969-25.617187 17.238282-5.902344 9.699218-5.417969 22 .960937 29.996094-20.859375 8.890624-39.191406 25.855468-50.136719 47.144531-12.617187 24.542969-16.125 54.304687-9.949218 84.027343-6 2.402344-11.171876 6.957032-13.960938 12.765626-3.878906 8.070312-3.011719 18.21875 1.9375 25.65625-3.003906 3.496093-5.3125 7.242187-6.832031 11.144531-3.691407 9.480469-2.605469 19.921875 2.839843 27.246093 4.847657 6.519532 13.070313 10.425782 21.757813 10.425782.558594 0 1.121094-.015625 1.6875-.050782 7.21875-.421874 14.386719-3.433593 20.46875-8.539062 4.261719 5.292969 9.144531 10.089844 14.519531 14.214844.109375.378906.257813.746094.484375 1.09375 7.265625 11.085937-.984375 28.640625-12.796875 38.542968-7.09375 5.949219-15.375 10.074219-24.144531 14.441407-5.917969 2.949219-12.035156 5.996093-17.761719 9.65625-22.066406 14.117187-39.398437 38.457031-48.804687 68.542969-8.476563 27.121093-10.085938 56.042968-10.5625 83.257812-.121094 7.003906.519531 14.101562 5.984375 18.546875 4.492187 3.644531 10.492187 3.675781 14.464844 3.695313l287.570312 1.410156c.367188 0 .746094.003906 1.132812.003906 4.117188 0 9.359376-.210938 13.78125-2.910156 8.585938-5.246094 9.621094-16.5 9.648438-24.507813.109375-30.242187-3.628906-55.75-11.4375-77.976562zm-97.894531-88.628907c-10.675781 15.765626-21.597657 31.789063-33.320313 47.183594-7.710937-10.222656-14.65625-21.089844-20.699218-32.375 6.917968-1.574218 13.988281-5.601562 21.125-12.046875 2.628906-2.378906 5.132812-4.910156 7.554687-7.355469 4.078125-4.121093 7.96875-8.039062 12.347656-11.230468 3.523438 6.023437 8.128907 11.40625 12.992188 15.824218zm-68.15625 77.648438c-5.863281-7.285156-11.4375-14.792969-16.71875-22.5 7.96875-7.277344 15.015625-15.386719 21.0625-24.234375zm12.65625-49.054688c5.1875 8.730469 10.898437 17.164063 17.066406 25.199219-6.339844 8.046875-12.925781 15.886719-19.847656 23.378907-.679688.730468-1.3125 1.359374-1.910157 1.890624zm84.246093-94.78125c-5.957031 4.34375-14.203124 5.234376-20.980468 2.378907 6.171875-8.796875 10.699218-18.738281 13.066406-29.144531 4.261719-.601563 8.253906-1.984376 11.746094-4.03125 2.378906 2.882812 4.046875 6.351562 4.660156 10.046874 1.285156 7.769532-2.125 16.109376-8.492188 20.75zm-80.6875-63.066406c-.683593 1.078125-1.210937 2.226563-1.613281 3.421875-3.355469-.230469-6.714843-.085937-10.039062.445313-.410157-1.359375-.980469-2.660156-1.753907-3.867188-6.339843-9.933594-20.84375-15.074218-32.304687-16.574218-10.402344-1.355469-20.726563-.320313-30.765625.917968 3.539062-8.519531 4.605469-17.839844 5.636719-26.921875.234375-2.070312.46875-4.136719.730469-6.183593 2.09375-16.265626 7.035156-26.683594 15.105468-31.847657 3.773438-2.414062 9.316406-3.75 13.195313-1.285156 2.507812 1.59375 4.1875 4.625 5.960937 7.839844 1.964844 3.550781 4.191406 7.570312 8.003906 10.308593 6.1875 4.4375 15.441407 4.328126 23.574219-.285156 4.605469-2.613281 8.375-6.140625 12.015625-9.550781 1.449219-1.355469 2.816406-2.636719 4.238282-3.871094 5.707031-4.941406 10.742187-7.273437 15.363281-7.148437 4.773437.136718 9.808593 3.125 13.476562 8.003906 3.589844 4.773438 5.671875 10.644531 7.660157 16.746094 4.683593 14.347656 8.648437 29.078125 11.816406 43.859375-9.164063-1.074219-18.546875-1.816407-27.996094-.582031-11.457031 1.5-25.960938 6.640624-32.304688 16.574218zm-81.679687-6.535156c.554687-.414062 1.9375-.589844 2.945313-.714844 7.457031-.9375 15.089843-1.898437 22.628906-1.898437 3.140625 0 6.261718.167969 9.351562.570312 9.941406 1.300781 22.007813 5.796875 26.550782 12.917969 1.210937 1.890625 1.511718 4.234375.894531 6.957031-1.191407 5.265625-5.394531 10.257813-8.929688 12.460938-5.9375 3.707031-14.234375 4.875-23.363281 3.285156-8.519531-1.480469-15.90625-4.859375-21.355469-9.765625-5.933593-5.339844-9.558593-12.773438-9.691406-19.886719-.046875-2.328125.46875-3.550781.96875-3.925781zm88.476563 10.875c4.542968-7.121094 16.613281-11.617188 26.554687-12.917969 10.507813-1.371093 21.421875 0 31.976563 1.328125 1.011718.128906 2.394531.300782 2.949218.714844.496094.375 1.015625 1.601562.96875 3.925781-.136718 7.113281-3.757812 14.546875-9.691406 19.886719-5.449219 4.90625-12.835938 8.285156-21.355469 9.765625-9.128906 1.589844-17.425781.425781-23.363281-3.28125-3.535156-2.207031-7.738281-7.199219-8.929688-12.464844-.617187-2.722656-.316406-5.066406.890626-6.957031zm-39.824219-148.464844c-4.949219-5.230468-5.421875-14.527344-1.101563-21.628906 5.324219-8.746094 15.21875-12.273438 20.640625-13.597656 5.777344-1.40625 14.46875-2.390625 23.078125.929687 7.371094 2.84375 13.15625 8.53125 15.476563 15.21875 2.410156 6.941407.726562 15.085938-4.09375 19.808594-.261719.257813-.464844.542969-.640625.84375-13.792969-4.304687-28.398438-5.480469-42.335938-2.894531-3.441406.640625-6.851562 1.507812-10.21875 2.582031-.183594-.453125-.445312-.886719-.804687-1.261719zm-49.996094 55.007813c12.902344-25.09375 36.847656-43.640625 62.488281-48.402344 31.070313-5.765625 65.828125 9.023437 84.527344 35.96875 17.335938 24.984375 21.03125 59.527344 9.828125 89.15625-.238281-.222656-.480469-.421875-.714844-.597656-1.394531-1.042969-2.917969-1.566407-4.328125-1.871094-3.324218-16-7.558594-31.960937-12.625-47.488281-2.121094-6.503906-4.554687-13.332032-8.882812-19.089844-5.207032-6.921875-12.382813-11.011719-19.691406-11.21875-6.730469-.175781-13.570313 2.789062-20.871094 9.113281-1.542969 1.335938-3.03125 2.730469-4.472656 4.082031-3.449219 3.230469-6.710938 6.28125-10.480469 8.421876-4.433594 2.511718-10.757813 3.714843-14.898438.746093-2.335937-1.675781-3.945312-4.582031-5.648437-7.660156-2.085938-3.773437-4.449219-8.046875-8.695313-10.742187-6.042969-3.839844-14.625-3.332032-21.863281 1.296874-10.203125 6.53125-16.339844 18.832032-18.757812 37.613282-.269532 2.085937-.507813 4.191406-.746094 6.304687-1.269532 11.214844-2.46875 21.8125-8.035156 30.464844-.121094.191406-.214844.394531-.300782.597656-.574218.523438-1.148437 1.183594-1.664062 2.015625-.363282-.121094-.742188-.210937-1.144532-.222656-.753906-.023438-1.511718 0-2.265624.046875-5.75-27.867187-2.507813-55.679687 9.242187-78.535156zm-10.15625 159.480469c-6.515625.378906-13-2.421876-16.507813-7.140626-3.742187-5.039062-4.449218-12.695312-1.796874-19.507812 1.101562-2.820312 2.753906-5.566406 4.890624-8.171875 5.386719 4.050781 12.410157 5.984375 19.09375 5.1875 2.296876 7.988281 5.882813 15.628906 10.492188 22.609375-4.851562 4.210938-10.53125 6.691406-16.171875 7.023438zm12.546875-35.261719c-.253906-1.082031-.945312-2.015625-1.910156-2.570313-.964844-.558594-2.117188-.695312-3.179688-.371094-5.019531 1.511719-10.703125.519532-15.074218-2.371093 1.097656-.902344 2.257812-1.777344 3.488281-2.625 1.835937-1.261719 2.296875-3.769531 1.035156-5.605469-1.261719-1.832031-3.769531-2.296875-5.605469-1.035156-1.546875 1.066406-3.015625 2.175781-4.394531 3.332031-2.707031-4.960937-3.011719-11.273437-.5625-16.375 2.886719-6.003906 9.488281-10.085937 16.125-10.050781v.117187c.179687 9.441407 4.683594 18.816407 12.359375 25.722657 6.578125 5.925781 15.351562 9.976562 25.367188 11.71875 2.726562.472656 5.886718.824218 9.257812.824218 6.320312 0 13.382812-1.234375 19.757812-5.210937 5.960938-3.722657 10.996094-10.765625 12.523438-17.527344.082031-.367187.136719-.730469.199219-1.097656 2.972656-.546875 5.984375-.71875 8.996093-.515625.078126.535156.167969 1.070312.292969 1.613281 1.527344 6.761719 6.5625 13.804687 12.523438 17.527344 6.375 3.976562 13.4375 5.210937 19.757812 5.210937 3.371094 0 6.53125-.351562 9.257813-.824218 10.015625-1.742188 18.789062-5.792969 25.371094-11.714844 7.574218-6.824219 12.054687-16.054688 12.339843-25.378906 4.285157-.15625 8.871094 2.496093 10.894531 6.660156 2.394532 4.925781 1.367188 11.644531-2.492187 16.335937-.242187.296875-.503906.589844-.769531.875-2.460938-1.757812-5.171875-3.152343-8.070313-4.054687-2.125-.664063-4.382812.523437-5.046875 2.648437-.660156 2.125.523438 4.386719 2.652344 5.050781 1.082031.335938 2.125.773438 3.132812 1.289063-2.574218 1.058594-5.417968 1.703125-8.359374 1.847656-1.863282.089844-3.421876 1.453125-3.765626 3.289063-4.125 22.132812-19.109374 42.300781-39.109374 52.640625-20 10.335937-45.125 10.902343-65.566407 1.46875-20.441406-9.4375-36.316406-28.914063-41.425781-50.84375zm38.046875 58.160156c10.746094 4.957031 22.652344 7.425781 34.570313 7.425781 13.207031-.003906 26.429687-3.03125 38.074218-9.050781.777344-.402344 1.546875-.820313 2.308594-1.25-.085938 5.4375 1.042969 10.722656 3.003906 15.703125-5.429687 3.753906-10.035156 8.390625-14.5 12.902344-2.34375 2.367187-4.769531 4.816406-7.230468 7.042968-5.996094 5.417969-15.128907 11.652344-24.527344 10.605469-3.621094-.402343-7.386719-1.832031-12.214844-4.632812-9.964844-5.78125-18.738281-13.859375-26.875-21.792969 2.761719-6.261719 4.070312-12.84375 3.285156-19 1.347656.722656 2.71875 1.40625 4.105469 2.046875zm-11.378906 24.3125c8.042969 7.773437 16.753906 15.570313 26.820312 21.40625 3.621094 2.105469 9.160157 4.980469 15.363281 5.671875 0 0 .003907 0 .003907.003906-6.761719 12.335938-15.382813 23.402344-25.679688 32.980469-10.078125-15.429687-18.980469-31.617187-26.621093-48.410156 3.84375-3.351563 7.300781-7.332031 10.113281-11.652344zm-16.675781 16.683594c12.84375 27.855469 29.089843 54.070312 48.34375 77.953125 1.535156 1.90625 4.109374 5.09375 8.09375 5.984375.746093.167969 1.476562.242187 2.183593.242187 5.554688 0 9.855469-4.652344 11.597657-6.539062 22.117187-23.929688 40.726562-51.085938 58.644531-77.542969 6.144531 4.546875 12.730469 8.410156 19.207031 12.113281-23.335938 31.542969-41.816406 55.480469-59.660156 77.269532-5.648438 6.898437-10.886719 12.800781-17.8125 15.210937-5.683594 1.976563-12.527344 1.441406-19.269532-1.503906-6.945312-3.035157-12.925781-8.203125-17.359374-12.363281-24.296876-22.796876-40.867188-52.691407-54.453126-79.433594.179688-.085938.359376-.179688.539063-.265625 6.707031-3.34375 13.589844-6.777344 19.945313-11.125zm218.0625 179.230469c-2.671876 1.628906-6.25 1.75-10.671876 1.722656l-36.8125-.179688c-.691406-18.269531.316407-36.667968 3.046876-54.738281.332031-2.199219-1.183594-4.253906-3.382813-4.585937-2.199219-.335938-4.257813 1.183593-4.589844 3.382812-2.785156 18.453125-3.828125 37.242188-3.144531 55.902344l-200.632812-.984375c1.289062-23.152344.765624-46.542969-1.601563-69.59375-.226563-2.214844-2.214844-3.824219-4.421875-3.597657-2.214844.226563-3.824219 2.207032-3.597656 4.421876 2.339844 22.765624 2.84375 45.867187 1.554687 68.730468l-33.984375-.167968c-3.90625-.019532-7.308594-.175782-9.421875-1.890626-2.789062-2.269531-3.09375-7.183593-3.007812-12.152343.464843-26.609375 2.023437-54.839844 10.199219-80.992188 8.835937-28.273437 24.976562-51.058593 45.449218-64.152343 2.96875-1.898438 6.109375-3.640626 9.289063-5.308594 13.894531 27.355468 30.886719 57.980468 56.121093 81.65625 4.90625 4.605468 11.574219 10.339844 19.648438 13.871094 5.089844 2.222656 10.292969 3.347656 15.269531 3.347656 3.4375 0 6.769531-.535156 9.875-1.617188 8.898438-3.09375 15.203125-10.144531 21.402344-17.71875 18.074219-22.066406 36.78125-46.304687 60.464844-78.339844 5.078125 2.945313 10.152343 6.027344 14.835937 9.449219 19.042969 13.90625 33.882813 34.863281 42.921875 60.597657 7.496094 21.347656 11.085938 45.96875 10.980469 75.277343-.035156 9.789063-1.820312 15.234375-5.789062 17.660157zm0 0"/></svg>