<svg height="512pt" viewBox="-81 0 512 512.0011" width="512pt" xmlns="http://www.w3.org/2000/svg"><path d="m170.234375 391.277344c-22.941406-14.265625-43.855469-29.484375-69.894531-50.875-.136719-.085938-.257813-.171875-.375-.261719l-1.199219-.933594-.277344-1.496093c-.984375-5.289063-1.945312-10.578126-2.886719-15.871094l-1.0625-5.96875 5.90625 1.371094c3.925782.914062 7.910157 1.375 11.84375 1.375 1.917969 0 3.84375-.109376 5.714844-.332032-8.683594-6.230468-16.066406-14.738281-21.335937-24.65625l-1.929688-3.628906 3.679688-1.832031c2.066406-1.027344 4.175781-2.253907 6.257812-3.640625l3.9375-2.621094 1.929688 4.324219c3.328125 7.464843 9 13.886719 17.84375 20.214843 8.417969 6.03125 18.574219 10.105469 30.195312 12.113282 5.03125.871094 10.210938 1.3125 15.386719 1.3125 11.128906 0 22.027344-2.015625 32.390625-5.984375 14.585937-5.582031 27.558594-14.925781 37.523437-27.027344l2.335938-2.839844 3.027344 2.089844c3.125 2.160156 6.4375 4.03125 9.851562 5.5625l3.898438 1.746094-2 3.777343c-8.78125 16.554688-22.347656 29.886719-38.195313 37.535157.882813.101562 1.757813.121093 2.640625.121093 7.589844 0 15.226563-1.386718 22.695313-4.117187l6.804687-2.488281-1.519531 7.082031-1 4.609375-.390625 1.820312-1.703125.90625c-24.023437 17.820313-49.632813 34.226563-76.054687 48.722657l-2.050782 1.125zm0 0" fill="#b2eaf9"/><g fill="#ffbf48"><path d="m237.066406 325.929688c25.449219-19.761719 38.824219-53.679688 33.285156-84.398438-1.816406-10.113281-5.484374-20.015625-9.03125-29.59375l-.0625-.167969c-5.277343-14.234375-10.265624-27.679687-10.160156-42.347656.054688-5.746094.910156-11.640625 1.738282-17.339844 1.570312-10.707031 3.1875-21.734375-.605469-31.859375-3.632813-9.710937-11.304688-16.296875-18.71875-22.667968l-.304688-.261719c-2.246093-1.9375-4.570312-3.9375-6.742187-6.007813-10.703125-10.175781-14.800782-28.050781-16.292969-37.800781l-.023437-.003906c-2.585938 32.824219-8.601563 67.03125-35.125 95.058593-9.65625 10.210938-21.1875 19.078126-32.335938 27.652344-19.398438 14.917969-39.457031 30.347656-49.359375 52.820313-11.777344 26.757812-4.851563 61.417969 16.476563 82.417969l8.21875 8.09375-11.464844-1.265626c-12.144532-1.34375-23.84375-7.035156-32.09375-15.613281l-10.933594 6.140625-3.921875 2.214844-1.734375-4.160156c-10.242188-24.574219-11.90625-53.269532-4.5625-78.71875 3.023438-10.445313 7.492188-20.519532 11.820312-30.265625l.050782-.113281c5.269531-11.898438 10.71875-24.199219 13.503906-37.105469 2.871094-13.300781 2.898438-27.199219 2.929688-40.640625v-.132813c.019531-13.726562.042968-27.894531 3.066406-41.425781 6.886718-30.820312 30.511718-57.746094 60.179687-68.59375 10.515625-3.84375 21.898438-5.792969 33.839844-5.792969 17.476563 0 35.082031 4.21875 50.90625 12.199219 21.375 10.777344 36.640625 26.863281 42.992187 45.285156 6.265626 18.210938 3.882813 36.96875 1.363282 56.828125-1.507813 11.859375-3.066406 24.117188-2.53125 36.070313.804687 17.847656 6.308594 35.269531 11.628906 52.117187 1.109375 3.5 2.527344 7.984375 3.867188 12.4375 5.984374 19.9375 11.269531 43.300781 5.101562 65.457031-6.445312 23.167969-27.175781 42.675782-51.578125 48.535157zm0 0"/><path d="m259.285156 291.691406c-19.714844-8.816406-34.59375-28.304687-37.910156-49.648437l-.308594-1.980469 1.402344-1.429688c3.589844-3.664062 7.015625-7.851562 10.1875-12.4375 6.183594-8.90625 11.425781-19.988281 15.855469-29.679687l4.296875-9.40625 3.148437 9.851563c1.609375 5.039062 3.457031 10.019531 5.242188 14.839843 3.566406 9.617188 7.257812 19.5625 9.09375 29.738281 2.839843 15.761719.871093 32.371094-5.683594 48.042969l-1.582031 3.78125zm0 0"/><path d="m93.082031 285.90625c-7.449219-18.769531-7.339843-39.5.304688-56.867188 2.488281-5.648437 5.671875-11.023437 9.734375-16.433593l3.828125-5.09375 2.921875 5.664062c5.320312 10.304688 12.179687 19.222657 20.390625 26.503907l1.660156 1.46875-.371094 2.1875c-3.183593 18.90625-15.8125 36.019531-32.949219 44.667968l-3.90625 1.96875zm0 0"/></g><path d="m219.914062 489.148438c5.234376-24.007813 10.414063-47.722657 15.597657-71.433594l19.625-89.953125 1.660156-.867188c3.171875-1.660156 6.230469-3.554687 9.097656-5.640625 5.925781-4.304687 11.128907-9.429687 15.46875-15.230468l2.761719-3.691407 3.265625 3.253907c22.761719 22.65625 40.0625 51.398437 50.035156 83.113281 10.132813 32.242187 12.3125 66.1875 6.304688 98.167969-1.351563 7.148437-3.582031 14.945312-9.902344 18.589843-4.183594 2.414063-9.460937 2.414063-13.699219 2.414063l-42.371094.011718.144532-4.144531c.960937-27.292969 3.996094-54.644531 9.027344-81.289062-5.109376 26.703125-8.144532 54.152343-9.089844 81.570312l-.136719 3.859375-61.882813.011719zm0 0" fill="#288fc9"/><path d="m26.40625 507.941406c-5.960938 0-11.640625-.300781-15.582031-3.941406-3.734375-3.449219-4.648438-8.90625-5.210938-13.75-7.390625-63.003906 11.933594-127.996094 53.015625-178.308594l.476563-.585937 15.253906-8.613281 2.144531 1.976562c4.539063 4.191406 9.867188 7.542969 15.835938 9.960938l2.050781.832031.386719 2.175781c11.03125 61.882812 24.082031 124.222656 38.789062 185.285156l1.191406 4.933594-73.332031.023438.445313-4.402344c2.882812-28.679688 2.039062-57.644532-2.511719-86.085938 4.523437 28.6875 5.335937 57.921875 2.355469 86.898438l-.367188 3.589844-34.886718.007812h-.054688zm0 0" fill="#288fc9"/><path d="m177.527344 258.164062c-10.867188 0-21.730469-2.636718-31.421875-7.628906-15.867188-8.167968-29.289063-22.597656-37.785157-40.628906l-1.136718-2.40625 1.785156-1.980469c9.773438-10.839843 21.96875-20.214843 33.761719-29.28125 11.164062-8.59375 22.699219-17.46875 32.34375-27.65625 17.738281-18.75 28.152343-42.09375 32.769531-73.464843l2.164062-14.722657 5.507813 13.824219c2.867187 7.195312 6.535156 12.953125 10.910156 17.113281 2.179688 2.074219 4.515625 4.089844 6.777344 6.039063l.277344.238281c7.398437 6.355469 15.058593 12.925781 18.683593 22.640625 1.578126 4.207031 2.34375 8.859375 2.34375 14.230469 0 5.699219-.828124 11.40625-1.707031 17.453125-.851562 5.78125-1.714843 11.660156-1.761719 17.476562-.035156 5.03125.53125 10.210938 1.738282 15.828125l.367187 1.707031s-1.007812 1.4375-1.007812 1.4375-1.472657 3.234376-1.804688 3.957032c-5.066406 11.171875-10.816406 23.855468-17.730469 33.820312-8.710937 12.578125-18.785156 21.5625-29.9375 26.703125-7.511718 3.46875-16.207031 5.300781-25.136718 5.300781zm0 0" fill="#ffdac4"/><path d="m173.984375 319.8125c-5.144531 0-10.328125-.445312-15.398437-1.320312-11.4375-1.972657-21.871094-6.152344-30.164063-12.089844-9.496094-6.796875-15.417969-13.835938-18.644531-22.160156l-1.011719-2.617188 2.117187-1.84375c9.820313-8.546875 16.886719-20.058594 19.898438-32.417969l1.394531-5.71875 4.804688 3.398438c2.964843 2.101562 6.027343 3.96875 9.101562 5.550781 9.8125 5.046875 20.667969 7.714844 31.386719 7.714844 8.988281 0 17.472656-1.816406 25.222656-5.390625 4.527344-2.09375 8.953125-4.871094 13.15625-8.261719l4.9375-3.984375 1.464844 6.171875c3.128906 13.15625 10.585938 25.433594 21 34.578125l2.917969 2.5625-2.476563 2.992187c-9.921875 12.007813-22.839844 21.289063-37.351562 26.847657-10.363282 3.972656-21.25 5.988281-32.355469 5.988281zm0 0" fill="#ffdac4"/><path d="m215.761719 507.890625 4.722656-21.652344c5.023437-23.019531 9.988281-45.78125 14.960937-68.535156 4.78125-21.910156 9.5625-43.820313 14.402344-65.957031l2.230469-10.21875-8.480469 6.121094c-22.167968 15.992187-45.503906 30.730468-69.351562 43.804687l-2.140625 1.175781 3.046875 115.273438zm0 0" fill="#5bd0fc"/><path d="m134.082031 504.851562.738281 3.058594 40.273438-.011718-3.066406-115.4375-1.828125-1.140626c-20.433594-12.707031-40.445313-27.082031-62.980469-45.234374l-8.457031-6.816407 2.015625 10.671875c9.84375 52.066406 21.050781 104.183594 33.304687 154.910156zm0 0" fill="#5bd0fc"/><path d="m341.300781 387.476562c-10.34375-32.878906-28.34375-62.542968-52.058593-85.789062-.039063-.039062-.089844-.066406-.128907-.101562 2.96875-5.082032 5.28125-10.472657 6.832031-16.050782 6.4375-23.140625 1.023438-47.214844-5.125-67.714844-1.242187-4.144531-2.570312-8.34375-3.851562-12.40625-5.257812-16.625-10.695312-33.816406-11.472656-51.160156-.519532-11.589844 1.015625-23.679687 2.496094-35.375 2.472656-19.453125 5.023437-39.570312-1.550782-58.664062-6.695312-19.433594-22.675781-36.335938-45-47.597656-27.894531-14.066407-60.78125-16.53125-87.976562-6.589844-30.929688 11.308594-55.558594 39.378906-62.742188 71.519531-3.125 13.980469-3.148437 28.382813-3.171875 42.3125-.023437 13.273437-.042969 26.996094-2.832031 39.917969-2.703125 12.539062-8.09375 24.6875-13.304688 36.433594-4.386718 9.890624-8.921874 20.113281-12 30.777343-7.828124 27.121094-5.824218 57.257813 5.453126 83.148438-41.355469 51.070312-60.777344 116.769531-53.289063 180.59375.699219 5.980469 1.972656 12.089843 6.492187 16.257812 5.011719 4.617188 11.804688 5.011719 18.339844 5.011719h.046875l148.308594-.035156c.121094.011718.234375.035156.359375.035156h.105469c.09375 0 .175781-.027344.269531-.035156l144.632812-.03125c4.726563-.003906 10.613282-.003906 15.726563-2.953125 7.796875-4.496094 10.4375-13.777344 11.863281-21.359375 6.140625-32.636719 3.917969-67.265625-6.421875-100.144532zm-284.140625-158.25c2.929688-10.132812 7.347656-20.105468 11.628906-29.746093 5.375-12.121094 10.933594-24.652344 13.8125-38 2.96875-13.757813 2.992188-27.917969 3.011719-41.609375.023438-13.492188.042969-27.445313 2.976563-40.5625 6.601562-29.527344 29.230468-55.320313 57.644531-65.707032 25.140625-9.191406 55.636719-6.867187 81.574219 6.214844 20.441406 10.308594 35.003906 25.589844 41.007812 43.023438 5.964844 17.316406 3.640625 35.632812 1.179688 55.023437-1.527344 12.03125-3.105469 24.472657-2.554688 36.75.824219 18.40625 6.421875 36.109375 11.835938 53.234375 1.277344 4.03125 2.597656 8.199219 3.820312 12.289063 5.816406 19.394531 10.96875 42.074219 5.078125 63.238281-6.238281 22.421875-26.082031 40.296875-48.65625 45.71875 26.144531-20.308594 40.675781-55.503906 34.773438-88.277344-1.894531-10.511718-5.652344-20.640625-9.285157-30.433594-5.148437-13.890624-10.011718-27.007812-9.90625-40.9375.039063-5.476562.882813-11.25 1.699219-16.828124 1.632813-11.167969 3.320313-22.714844-.828125-33.796876-3.992187-10.664062-12.054687-17.597656-19.855468-24.300781-2.308594-1.984375-4.699219-4.039062-6.894532-6.128906-9.863281-9.382813-13.691406-26.28125-15.089844-35.515625-.300781-1.976562-2-3.425781-3.988281-3.425781-.046875 0-.097656 0-.148437.003906-2.046875.074219-3.714844 1.671875-3.871094 3.71875-2.484375 32.058594-8.320312 65.472656-34.003906 92.617187-9.425782 9.960938-20.835938 18.742188-31.875 27.230469-19.800782 15.230469-40.273438 30.976563-50.578125 54.382813-12.710938 28.867187-4.972657 64.921875 17.332031 86.871094-11.132812-1.226563-21.898438-6.34375-29.648438-14.40625-1.273437-1.324219-3.285156-1.617188-4.886718-.714844l-10.894532 6.148437c-9.929687-23.824219-11.5625-51.296875-4.410156-76.074219zm121.890625 274.671876-2.886719-108.933594c24.066407-13.195313 47.488282-27.996094 69.769532-44.078125-4.832032 22.144531-9.613282 44.054687-14.394532 65.960937-6.296874 28.832032-12.59375 57.671875-19 87.042969zm-41.085937.011718c-12.324219-51.046875-23.464844-102.933594-33.253906-154.714844 22.800781 18.375 42.699218 32.660157 63.378906 45.523438l2.894531 109.183594zm110.539062-164.8125c-.148437.082032-.296875.160156-.441406.261719-24.019531 17.816406-49.480469 34.132813-75.714844 48.519531-22.757812-14.148437-43.714844-29.410156-69.632812-50.699218-.097656-.078126-.203125-.128907-.300782-.199219-.976562-5.28125-1.933593-10.5625-2.878906-15.839844 6.203125 1.441406 12.632813 1.867187 18.933594 1.117187 1.660156-.195312 3.023438-1.390624 3.433594-3.003906.414062-1.617187-.210938-3.320312-1.570313-4.285156-8.492187-6.027344-15.285156-14.089844-20.140625-23.214844 2.3125-1.15625 4.546875-2.460937 6.699219-3.894531 3.660156 8.210937 9.714844 15.082031 19.164063 21.847656 8.917968 6.382813 19.632812 10.6875 31.839843 12.792969 5.328125.917969 10.703125 1.375 16.070313 1.375 11.515625 0 22.988281-2.101562 33.824218-6.253906 15.285157-5.855469 28.789063-15.597656 39.175782-28.222656 3.304687 2.28125 6.816406 4.269531 10.492187 5.925781-8.128906 15.328125-20.757812 28.257812-36.402343 35.8125-1.664063.804687-2.570313 2.636719-2.195313 4.445312.371094 1.808594 1.929687 3.132813 3.777344 3.214844.929687.039063 1.863281.058594 2.796875.058594 8.097656 0 16.253906-1.503907 24.078125-4.367188-.335938 1.539063-.671875 3.074219-1.007813 4.609375zm12.417969-51.058594c-18.632813-8.324218-32.460937-26.449218-35.59375-46.609374 3.730469-3.8125 7.277344-8.132813 10.621094-12.957032 6.234375-8.992187 11.507812-20.035156 16.195312-30.296875 1.625 5.078125 3.472657 10.074219 5.304688 15.007813 3.507812 9.464844 7.136719 19.253906 8.90625 29.066406 2.773437 15.394531.59375 31.378906-5.433594 45.789062zm-116.671875-33.890624c10.535156 5.425781 22 8.160156 33.21875 8.160156 9.367188 0 18.5625-1.90625 26.894531-5.753906 4.878907-2.25 9.546875-5.191407 13.996094-8.78125 3.363281 14.132812 11.335937 27.082031 22.25 36.65625-9.484375 11.472656-21.785156 20.332031-35.707031 25.660156-14.523438 5.566406-30.304688 7.109375-45.632813 4.460937-10.847656-1.871093-20.710937-5.816406-28.519531-11.40625-8.902344-6.367187-14.28125-12.703125-17.238281-20.347656 10.328125-8.992187 17.933593-21.226563 21.164062-34.488281 3.070313 2.183594 6.265625 4.140625 9.574219 5.839844zm104.574219-102.699219c-.855469 5.851562-1.738281 11.902343-1.785157 17.9375-.042968 5.6875.660157 11.242187 1.824219 16.691406-.113281.171875-.226562.339844-.3125.53125-.609375 1.332031-1.226562 2.691406-1.847656 4.066406-5.019531 11.050781-10.707031 23.574219-17.382813 33.203125-8.300781 11.976563-17.835937 20.507813-28.335937 25.355469-15.832031 7.308594-36.15625 6.441406-53.042969-2.253906-15.15625-7.800781-27.871094-21.535157-36-38.777344 9.4375-10.472656 21.117188-19.480469 33.222656-28.792969 11.285157-8.679687 22.957032-17.65625 32.816407-28.078125 21.476562-22.699219 29.917969-49.121093 33.816406-75.628906 2.742187 6.882813 6.554687 13.476563 11.867187 18.53125 2.34375 2.230469 4.8125 4.351563 7.199219 6.402344 7.351563 6.320312 14.292969 12.285156 17.558594 21.011719 3.421875 9.140624 1.957031 19.175781.402344 29.800781zm-142.507813 63.566406c5.554688 10.75 12.808594 20.136719 21.289063 27.652344-2.972657 17.625-14.84375 33.710937-30.800781 41.761719-6.800782-17.109376-7.21875-36.824219.246093-53.777344 2.492188-5.65625 5.636719-10.816406 9.265625-15.636719zm-79.863281 288.917969c-.015625 0-.03125 0-.046875 0-5.144531 0-9.992188-.222656-12.867188-2.875-2.722656-2.507813-3.46875-7.132813-3.953124-11.269532-7.273438-61.984374 11.734374-125.828124 52.144531-175.320312l12.058593-6.804688c4.953126 4.566407 10.78125 8.183594 17.050782 10.722657 11.035156 61.945312 24.097656 124.332031 38.835937 185.523437l-63.832031.015625c2.921875-29.019531 2.074219-58.300781-2.535156-87.117187-.351563-2.199219-2.417969-3.695313-4.617188-3.34375-2.199218.351562-3.695312 2.417968-3.34375 4.617187 4.539063 28.394531 5.335938 57.253907 2.386719 85.84375zm313.347656-17.804688c-1.175781 6.253906-3.042969 13.023438-7.96875 15.863282-3.246093 1.871093-7.738281 1.875-11.699219 1.875l-38.230468.007812c.949218-27.015625 3.941406-54.140625 8.953125-80.683594.410156-2.1875-1.027344-4.296875-3.214844-4.710937-2.183594-.414063-4.296875 1.027343-4.710937 3.214843-5.101563 27.035157-8.140626 54.664063-9.09375 82.183594l-53.042969.011719c6.277343-28.777344 12.453125-57.054687 18.621093-85.324219 6.375-29.183594 12.746094-58.375 19.234376-88.121094 3.308593-1.734374 6.519531-3.71875 9.597656-5.953124 6.320312-4.59375 11.8125-10.035157 16.320312-16.066407 22.289063 22.175781 39.238282 50.308594 49.042969 81.472657 9.941406 31.617187 12.082031 64.894531 6.191406 96.230468zm0 0"/></svg>