<svg height="511pt" viewBox="-92 0 511 511.99814" width="511pt" xmlns="http://www.w3.org/2000/svg"><path d="m249.777344 502.015625c1.144531-25.894531 1.195312-52.160156.148437-78.0625l-.117187-2.925781 2.75-.996094c.976562-.355469 1.769531-.832031 2.417968-1.457031 1.765626-1.710938 2.230469-4.347657 2.558594-6.902344.613282-4.8125 1.097656-9.78125 1.449219-14.769531.253906-3.691406.363281-7.273438-1.074219-10.453125-1.207031-2.652344-3.457031-4.851563-6.6875-6.527344l-2.585937-1.339844.480469-2.871093c2.042968-12.183594 4.382812-25.878907 6.675781-39.316407l.515625-3.007812c2.335937-13.632813 4.738281-27.671875 6.851562-40.230469l1.027344-6.085938 5.136719 3.421876c25.921875 17.273437 44.398437 48.300781 50.691406 85.125 6.152344 36.039062 1.230469 72.285156-4.824219 109.339843-.988281 6.101563-2.113281 11.476563-5.859375 15.324219-4.96875 5.109375-12.8125 5.59375-20.417969 5.648438l-39.320312.292968zm0 0" fill="#fff"/><path d="m246.644531 158.542969c1.179688-9.984375 1.328125-19.988281.4375-29.726563l-.308593-3.367187 3.269531-.863281c.953125-.253907 1.960937-.382813 2.992187-.382813 3.3125 0 6.621094 1.289063 9.078125 3.535156 3.523438 3.210938 5.59375 8.277344 5.683594 13.902344.09375 5.65625-1.835937 11.183594-5.296875 15.152344-2.917969 3.332031-7.046875 5.582031-11.332031 6.179687l-5.132813.71875zm0 0" fill="#ffdac4"/><path d="m173.59375 302.847656c-.703125-.789062-1.371094-1.4375-2.039062-1.984375-2.074219-1.707031-4.460938-2.855469-6.902344-3.324219l-14.070313-2.691406 13.433594-4.988281c1.230469-.457031 2.332031-1.175781 3.304687-1.8125 13.085938-8.621094 26.554688-17.621094 40.054688-26.757813l8.949219-6.058593-2.847657 10.425781c-1.75 6.390625-3.132812 12.933594-4.113281 19.441406l.390625 2.828125-2.53125 1.246094-31.582031 15.964844zm0 0" fill="#fff"/><path d="m149.371094 301.71875c-9.976563-4.5625-20.316406-8.839844-30.730469-12.71875l-2.519531-.9375-.082032-2.652344c-2-6.5625-3.640624-13.28125-4.878906-19.972656l-2.070312-11.214844 8.621094 7.464844c12.601562 10.90625 25.796874 18.917969 39.335937 26.839844.773437.457031 1.816406 1.070312 2.941406 1.4375l13.191407 4.285156-13.445313 3.398438c-2.109375.535156-4.179687 1.699218-5.980469 3.367187l-1.957031 1.808594zm0 0" fill="#fff"/><path d="m19.234375 507.9375c-2.746094 0-5.605469-.1875-7.9375-1.554688-4.722656-2.761718-5.691406-9.011718-6.015625-14.765624-2.070312-37.558594.332031-75.355469 7.140625-112.339844 4.269531-23.175782 11.769531-52.148438 31.992187-70.636719 3.867188-3.535156 8.375-6.875 14.183594-10.519531l5.082032-3.183594 13.988281 83.644531-2.582031 1.339844c-3.230469 1.675781-5.480469 3.875-6.691407 6.535156-1.433593 3.171875-1.324219 6.753907-1.070312 10.449219.355469 5.019531.839843 9.988281 1.449219 14.769531.390624 3.113281.953124 5.351563 2.554687 6.90625.636719.613281 1.433594 1.089844 2.421875 1.453125l2.738281 1.003906-.117187 2.914063c-1.0625 26.359375-.996094 53.074219.210937 79.40625l.1875 4.152344zm0 0" fill="#fff"/><path d="m97.859375 419.480469 1.894531-1.371094c.0625-.046875.128906-.089844.1875-.140625 1.8125-1.582031 2.34375-4.171875 2.640625-6.726562.972657-8.25 1.699219-20.15625-3.152343-28.378907-1.015626-1.714843-2.304688-3.074219-3.835938-4.03125l-1.867188-1.167969-.011718-2.203124c-.160156-30.34375-2.90625-60.902344-8.167969-90.828126l-.433594-2.464843 2.03125-1.46875c7.023438-5.074219 12.636719-10.71875 16.683594-16.777344l5.472656-8.195313 1.789063 9.691407c1.039062 5.621093 2.363281 11.28125 3.941406 16.816406l1.148438 4.023437-4.070313.964844c-.261719.0625-.503906.160156-.742187.289063-1.265626.722656-1.664063 2.472656-1.160157 5.1875l9.523438 51.273437c.480469 2.628906 1.542969 2.855469 1.890625 2.929688.089844.015625.226562.03125.34375.03125.824218 0 1.691406-.667969 2.105468-.988282l29.128907-22.457031 2.347656 1.425781c1.90625 1.160157 4.007813 1.898438 6.082031 2.132813l3.683594.417969-.140625 3.703125c-2.097656 56.988281-2.300781 114.722656-.605469 171.59375l.121094 4.089843-62.8125.46875zm0 0" fill="#fff"/><path d="m164.625 502.941406c-1.710938-57.457031-1.492188-115.714844.652344-173.148437l.097656-2.625 2.449219-.953125c.605469-.234375 1.148437-.484375 1.617187-.746094l2.15625-1.1875 32.835938 22.460938c.46875.316406 1.316406.890624 2.109375.890624.179687 0 .339843-.027343.5-.085937.976562-.332031 1.386719-1.414063 1.667969-2.433594 4.710937-17.558593 10.570312-39.414062 5.496093-59.429687l-4.847656.082031.746094-4.796875c.96875-5.5 2.230469-11.03125 3.757812-16.433594l1.882813-6.664062 4.832031 4.960937c2.882813 2.957031 6.265625 5.648438 10.054687 8.003907 2.476563 1.53125 5.292969 3.058593 8.601563 4.671874l2.714844 1.320313-.523438 2.972656c-5.445312 30.8125-8.664062 65.679688-8.832031 95.664063l-.011719 2.207031-1.875 1.167969c-1.546875.964844-2.800781 2.28125-3.824219 4.023437-4.855468 8.222657-4.125 20.132813-3.15625 28.371094.296876 2.566406.828126 5.160156 2.703126 6.800781.007812 0 .09375.054688.175781.109375l1.839843 1.257813-.09375 2.234375-3.875 84.777343-59.734374.4375zm0 0" fill="#fff"/><path d="m159.210938 276.253906c-7.835938-7.492187-16.777344-13.914062-25.429688-20.125-12.109375-8.6875-23.546875-16.898437-32.789062-28-11.074219-13.304687-18.566407-30.703125-21.679688-50.320312-1.917969-12.03125-2.265625-24.859375-1.054688-39.203125l7.652344-1.265625c6.363282 14.570312 14.425782 28.515625 23.960938 41.445312l3.414062 4.628906-5.523437 1.589844c-2.660157.765625-5.289063 1.152344-7.808594 1.152344-.621094 0-1.246094-.019531-1.855469-.066406 8.25 6.675781 18.949219 10.46875 29.335938 10.46875 4.726562 0 9.226562-.757813 13.375-2.25 5.734375-2.054688 13.855468-7.4375 19.085937-14.855469l3.265625-4.628906 3.273438 4.625c5.242187 7.417969 13.359375 12.804687 19.082031 14.855469 4.167969 1.496093 8.671875 2.253906 13.382813 2.253906 10.390624 0 21.089843-3.792969 29.359374-10.410156-.132812-.003907-.265624-.003907-.398437-.003907-.492187 0-.984375.011719-1.46875.011719-2.386719 0-4.871094-.34375-7.390625-1.023438l-5.628906-1.523437 3.445312-4.703125c9.285156-12.675781 17.054688-26.378906 23.089844-40.726562l7.6875 1.5c.507812 39.125-15.546875 78.648437-42.9375 105.726562-11.894531 11.753906-25.921875 21.5-40.449219 31.273438l-2.671875 1.796874zm0 0" fill="#d34242"/><path d="m127.371094 196.515625c-6.46875 0-13.109375-1.46875-19.214844-4.253906l-9.484375-4.328125 9.941406-3.128906c8.375-2.632813 15.949219-8.484376 21.484375-12.757813 12.433594-9.605469 23.121094-14.074219 33.644532-14.074219 1.070312 0 2.152343.050782 3.214843.144532 10.542969.9375 19.328125 6.242187 29.273438 13.917968 5.523437 4.277344 13.089843 10.128906 21.492187 12.769532l9.964844 3.132812-9.503906 4.324219c-6.113282 2.785156-12.761719 4.253906-19.226563 4.253906-4.707031 0-9.222656-.761719-13.414062-2.269531-8.214844-2.941406-18.820313-11.566406-22.339844-20.902344-3.585937 9.335938-14.191406 17.960938-22.410156 20.90625-4.195313 1.503906-8.710938 2.265625-13.421875 2.265625zm0 0" fill="#d34242"/><path d="m247.6875 420.625c-.371094 0-.707031-.007812-.988281-.015625-4.707031-.101563-9.390625-.34375-13.917969-.710937-2.269531-.171876-4.644531-.460938-6.320312-1.925782-1.832032-1.613281-2.367188-4.1875-2.675782-6.730468-1.507812-12.9375-.480468-22.203126 3.144532-28.34375 2.378906-4.011719 6.253906-6.039063 11.523437-6.039063 2.09375 0 4.445313.332031 6.988281.988281 6.273438 1.59375 10.570313 4.578125 12.40625 8.628906.835938 1.835938 1.226563 3.992188 1.226563 6.773438 0 1.246094-.082031 2.535156-.160157 3.648438-.332031 4.867187-.816406 9.835937-1.441406 14.765624-.347656 2.652344-.796875 5.164063-2.53125 6.859376-1.9375 1.863281-4.894531 2.101562-7.253906 2.101562zm0 0" fill="#ffbf48"/><path d="m78.640625 420.621094c-2.382813 0-5.355469-.238282-7.261719-2.089844-1.769531-1.726562-2.226562-4.339844-2.542968-6.871094-.617188-4.863281-1.105469-9.828125-1.449219-14.757812-.246094-3.707032-.351563-7.277344 1.0625-10.414063 1.839843-4.058593 6.136719-7.042969 12.429687-8.644531 2.535156-.648438 4.886719-.980469 6.984375-.980469 5.257813 0 9.128907 2.023438 11.503907 6.011719 3.640624 6.1875 4.667968 15.453125 3.152343 28.351562-.289062 2.535157-.816406 5.113282-2.660156 6.738282-1.734375 1.476562-4.1875 1.773437-6.355469 1.933594-4.5.367187-9.183594.609374-13.890625.710937 0 0-.667969.011719-.972656.011719zm0 0" fill="#ffbf48"/><g fill="#5b5d6d"><path d="m244.472656 377.542969c-2.058594-.457031-4.050781-.691407-5.925781-.691407-.53125 0-1.0625.019532-1.566406.058594l-4.355469.332032.050781-4.367188c.335938-29.007812 3.339844-61.320312 8.457031-90.984375l.871094-5.050781 6.519532 2.882812c4.070312 1.796875 8.6875 3.832032 13.019531 6.136719l2.542969 1.351563-.476563 2.839843c-2.203125 13.195313-4.746094 28.070313-7.371094 43.425781-2.371093 13.84375-4.808593 28.101563-6.949219 40.828126l-.699218 4.160156zm0 0"/><path d="m228.492188 419.941406h4.027343l.257813.023438c4.335937.351562 8.777344.578125 13.195312.675781l3.757813.085937.148437 3.753907c1.035156 25.875.976563 52.101562-.179687 77.949219l-.167969 3.792968-24.996094.179688zm0 0"/><path d="m203.601562 150.613281c-6.789062 0-13.371093-2.054687-18.53125-5.78125-8.984374-6.496093-14.113281-18.40625-12.757812-29.640625l.433594-3.585937 48.925781.90625c.960937 0 2.070313-.0625 3.21875-.132813l.15625-.007812c1.097656-.066406 2.34375-.144532 3.523437-.144532 1.382813 0 2.4375.105469 3.316407.332032l2.742187.699218.25 2.820313c.035156.402344.0625.925781.074219 1.351563l.007813.351562c.480468 10.949219-5.359376 22.269531-14.527344 28.105469-4.863282 3.089843-10.683594 4.726562-16.832032 4.726562zm0 0"/><path d="m171.945312 324.433594 2.511719-3.34375c2.242188-2.988282 3.324219-6.46875 3.042969-9.800782-.070312-.898437-.277344-1.863281-.621094-2.882812l-1.089844-3.277344 38.582032-19.503906.871094 5.394531c2.964843 18.316407-2.085938 37.199219-6.144532 52.375l-1.457031 5.457031zm0 0"/><path d="m163.109375 327.074219c-6.964844 0-13.679687-5.722657-14.664063-12.5-.527343-3.683594.761719-7.953125 3.441407-11.433594 2.515625-3.25 5.902343-5.328125 9.304687-5.707031.429688-.046875.839844-.074219 1.234375-.074219 3.066407 0 6.296875 1.257813 9.089844 3.542969 3.402344 2.800781 5.613281 6.671875 5.925781 10.371094.027344.339843.042969.679687.042969 1.039062 0 7.160156-5.929687 13.886719-12.949219 14.683594-.464844.054687-.949218.078125-1.425781.078125zm0 0"/><path d="m122.410156 150.613281c-6.144531 0-11.964844-1.632812-16.832031-4.726562-9.160156-5.828125-15-17.148438-14.53125-28.164063l.023437-.355468c.011719-.378907.03125-.835938.054688-1.183594l.179688-2.914063 2.828124-.714843c.878907-.226563 1.933594-.328126 3.3125-.328126 1.175782 0 2.414063.074219 3.511719.140626l.171875.011718c1.144532.066406 2.246094.132813 3.210938.132813l48.925781-.910157.433594 3.589844c1.355469 11.226563-3.765625 23.136719-12.746094 29.636719-5.171875 3.734375-11.753906 5.785156-18.542969 5.785156zm0 0"/><path d="m110.21875 292.40625-1.355469-6.953125 6.65625 2.429687c10.769531 3.9375 21.648438 8.386719 32.335938 13.222657l3.6875 1.671875-1.714844 3.667968c-1.289063 2.753907-1.800781 5.644532-1.445313 8.136719.300782 2.0625 1.105469 4.046875 2.390626 5.886719l2.1875 3.128906-32.324219 24.914063zm0 0"/><path d="m76.660156 503.667969c-1.210937-26.140625-1.292968-52.78125-.242187-79.183594l.148437-3.757813 3.757813-.082031c4.417969-.101562 8.859375-.328125 13.199219-.679687l.175781-.011719c.097656-.007813.195312-.011719.296875-.011719h3.820312l3.992188 87.378906-24.972656.191407zm0 0"/><path d="m63.753906 294.976562 5.839844-3.378906c3.730469-2.148437 7.085938-4.09375 10.429688-6.1875l5.070312-3.171875.996094 5.894531c4.714844 27.886719 7.253906 56.398438 7.546875 84.746094l.042969 4.363282-4.351563-.332032c-.503906-.039062-1.035156-.058594-1.566406-.058594-1.871094 0-3.867188.234376-5.925781.691407l-4.121094.921875zm0 0"/></g><path d="m85.113281 135.316406c-1.777343-4.171875-3.441406-8.460937-4.953125-12.746094.003906.007813.003906.007813 0 .007813s-.023437-.03125-.042968-.0625l-.621094-1.035156.050781-1.203125c.867187-19.9375 3.289063-45.796875 14.464844-68.980469 11.648437-24.203125 31.808593-41.390625 53.921875-45.972656 4.066406-.839844 8.320312-1.265625 12.644531-1.265625 15.070313 0 30.460937 5.074218 43.335937 14.292968 15.148438 10.847657 27.109376 27.074219 34.59375 46.917969 6.671876 17.675781 7.414063 36.164063 7.628907 55.128907l.007812.648437-.199219.617187c-1.347656 4.207032-2.859374 8.425782-4.492187 12.53125l-1.480469 3.734376-8.636718-3.46875 1.460937-3.695313c1.648437-4.191406 2.425781-8.703125 2.234375-13.050781l-.011719-.375c-.121093-2.738282-.386719-3.941406-2.554687-4.6875-.964844-.324219-2.265625-.484375-3.96875-.484375-1.167969 0-2.390625.070312-3.570313.144531l-.207031.011719c-1.007812.0625-1.957031.121093-2.816406.121093l-48.949219-.902343c-.628906 2.378906-.925781 4.910156-.917969 7.546875l.015625 3.886718-18.152343.578126.070312-4.199219c.042969-2.695313-.25-5.316407-.871094-7.800781l-48.984375.890624c-.851562 0-1.789062-.058593-2.78125-.121093l-.191406-.011719c-1.222656-.074219-2.441406-.144531-3.613281-.144531-1.703125 0-3.003906.160156-3.984375.492187-2.164063.742188-2.425781 1.945313-2.539063 4.714844l-.019531.402344c-.199219 4.644531.707031 9.472656 2.617187 13.898437l1.582032 3.664063-8.488282 3.683594zm0 0" fill="#ffdac4"/><path d="m210.472656 181.644531c-4.941406-2.652343-9.746094-6.210937-14.203125-9.660156-8.019531-6.191406-17.558593-12.882813-29.308593-13.929687-1.050782-.09375-2.125-.140626-3.183594-.140626-13.890625 0-25.890625 8.03125-33.707032 14.070313-4.359374 3.371094-9.0625 6.855469-13.875 9.472656l-3.03125 1.648438-2.078124-2.761719c-10.4375-13.878906-19.175782-29.03125-25.972657-45.027344l-1.550781-3.652344 8.453125-3.667968 1.582031 3.6875c2.542969 5.910156 6.785156 10.96875 11.949219 14.25 4.917969 3.125 10.757813 4.777344 16.886719 4.777344 6.757812 0 13.34375-2.070313 18.546875-5.832032 5.933593-4.289062 10.214843-10.789062 12.058593-18.300781l.722657-2.945313 14.566406-.476562 3.699219-.617188.851562 3.652344c1.765625 7.570313 6.195313 14.382813 12.148438 18.6875 5.203125 3.761719 11.792968 5.832032 18.558594 5.832032 6.128906 0 11.96875-1.648438 16.882812-4.773438 5.46875-3.484375 9.84375-8.871094 12.324219-15.171875l1.476562-3.746094 8.648438 3.472657-1.464844 3.699218c-6.523437 16.496094-15.230469 32.082032-25.886719 46.324219l-2.0625 2.757813zm0 0" fill="#ffdac4"/><path d="m161.644531 290.21875c-1.542969-.0625-2.9375-.792969-4.460937-1.671875-.425782-.246094-.769532-.449219-1.109375-.652344l-4.054688-2.371093 5.847657-9.976563 3.625 3.039063c14.796874-9.9375 30.070312-20.191407 43.023437-32.941407l.03125-.046875.261719-.25 4.984375-4.75 1.65625 6.683594c.460937 1.867188 1.15625 3.769531 2.066406 5.652344l1.503906 3.109375-2.859375 1.941406c-15.367187 10.421875-30.460937 20.511719-44.855468 29.988281l-.074219.050782c-1.804688 1.203124-3.453125 2.203124-5.339844 2.203124h-.140625zm0 0" fill="#ffdac4"/><path d="m155.46875 287.539062c-15.257812-8.96875-30.160156-18.1875-44.707031-32.296874l-1.6875-1.632813.605469-2.269531c.4375-1.640625.753906-3.304688.941406-4.941406l.824218-7.246094 5.667969 4.589844c5.417969 4.390624 11.117188 8.480468 16.632813 12.4375 9.535156 6.847656 19.394531 13.929687 27.726562 22.382812l2.527344 2.277344-1.625 2.832031-3.457031 5.898437zm0 0" fill="#ffdac4"/><path d="m73.109375 161.738281c-6.175781-.664062-11.832031-4.417969-14.757813-9.808593-3.316406-6.117188-2.902343-14.066407 1.023438-19.789063 3.480469-5.078125 9.523438-8.230469 15.773438-8.230469l4.71875.054688-.578126 4.457031c-1.339843 10.382813-1.929687 20.226563-1.757812 29.261719l.089844 4.539062zm0 0" fill="#ffdac4"/><path d="m103.402344 149.3125c5.679687 3.609375 12.351562 5.402344 19.027344 5.402344 7.417968-.003906 14.835937-2.210938 20.894531-6.59375 6.859375-4.957032 11.601562-12.445313 13.597656-20.59375l11.6875-.375c.128906-.003906.253906-.03125.378906-.050782 1.933594 8.316407 6.722657 15.976563 13.703125 21.019532 6.058594 4.382812 13.476563 6.59375 20.894532 6.59375 6.675781 0 13.347656-1.792969 19.027343-5.402344 10.511719-6.6875 16.957031-19.15625 16.410157-31.769531l-.011719-.328125c-.101563-2.484375-.273438-6.636719-5.25-8.339844-2.769531-.945312-6.148438-.738281-9.128907-.554688-1.136718.074219-2.203124.140626-3.035156.125l-48.570312-.902343c-1.871094-.023438-3.523438 1.226562-3.984375 3.042969-.707031 2.796874-1.019531 5.660156-1.003907 8.519531l-10.070312.320312c.042969-2.964843-.265625-5.941406-.996094-8.839843-.460937-1.816407-2.136718-3.074219-3.984375-3.042969l-48.570312.902343c-.832031.015626-1.898438-.050781-3.035157-.121093-2.980468-.1875-6.359374-.394531-9.128906.550781-4.980468 1.703125-5.148437 5.855469-5.25 8.339844l-.015625.332031c-.539062 12.609375 5.902344 25.082031 16.414063 31.765625zm72.882812-33.644531 45.160156.839843c1.140626.015626 2.378907-.058593 3.6875-.136718 1.984376-.125 4.425782-.277344 5.761719.058594.027344.332031.046875.761718.058594 1.113281l.015625.347656c.414062 9.636719-4.683594 19.527344-12.683594 24.617187-9.125 5.800782-22.109375 5.414063-30.871094-.921874-7.910156-5.714844-12.296874-16.21875-11.128906-25.917969zm-81.242187 2.222656.015625-.347656c.015625-.351563.03125-.78125.058594-1.113281 1.335937-.335938 3.777343-.183594 5.765624-.058594 1.304688.078125 2.542969.152344 3.683594.136718l45.160156-.839843c1.167969 9.699219-3.21875 20.199219-11.125 25.917969-8.765624 6.335937-21.75 6.722656-30.871093.921874-8-5.089843-13.097657-14.980468-12.6875-24.617187zm0 0"/><path d="m324.023438 374.933594c-7.046876-41.242188-29.332032-75.699219-59.613282-92.167969-4.667968-2.539063-9.539062-4.6875-14.253906-6.761719-6.152344-2.707031-11.957031-5.265625-17.382812-8.628906-5.074219-3.148438-16.976563-11.84375-17.984376-24.644531-.046874-.597657-.226562-1.148438-.5-1.640625 18.214844-20.730469 30.367188-46.683594 35.117188-73.886719 6.027344-.144531 11.960938-2.957031 16.140625-7.734375 4.117187-4.699219 6.417969-11.222656 6.3125-17.894531-.105469-6.730469-2.65625-12.867188-7.003906-16.835938-4.082031-3.726562-9.640625-5.273437-14.65625-4.355469-.230469-20.339843-1.171875-38.742187-7.890625-56.546874-7.777344-20.613282-20.234375-37.484376-36.03125-48.789063-17.597656-12.601563-39.71875-17.726563-59.164063-13.699219-23.339843 4.828125-44.5625 22.839844-56.765625 48.183594-11.230468 23.308594-13.929687 49.5-14.851562 70.324219-7.585938-.101563-15.175782 3.714843-19.476563 9.988281-4.769531 6.960938-5.265625 16.617188-1.234375 24.027344 3.75 6.902344 11.269532 11.558594 19.09375 11.992187.296875 4.3125.769532 8.5 1.417969 12.585938 3.234375 20.351562 11.039063 38.429687 22.570313 52.277343 2.859374 3.433594 5.957031 6.621094 9.203124 9.628907-.214843.519531-.332031 1.082031-.316406 1.675781.1875 5.953125-1.726562 21.417969-23.476562 36.425781-4.996094 3.445313-10.441406 6.582031-15.707032 9.617188-8.878906 5.113281-18.0625 10.402343-25.898437 17.5625-11.09375 10.144531-24.898437 27.597656-33.242187 72.90625-6.871094 37.300781-9.292969 75.421875-7.203126 113.292969.226563 4.132812.765626 13.808593 8.019532 18.050781 3.300781 1.933593 7.058594 2.113281 10.039062 2.113281.351563 0 .695313-.003906 1.023438-.007812l268.636718-2.003907c6.257813-.046875 16.738282-.125 23.304688-6.882812 4.929688-5.070313 6.101562-12.253907 6.957031-17.5 6.105469-37.429688 11.070313-74.058594 4.816407-110.671875zm-64.355469-85.546875c-2.230469 13.34375-4.84375 28.625-7.375 43.417969-2.371094 13.847656-4.808594 28.109374-6.945313 40.839843-2.464844-.550781-5.527344-.964843-8.671875-.722656.328125-28.582031 3.347657-61.09375 8.394531-90.347656.613282.273437 1.226563.542969 1.835938.808593 4.257812 1.875 8.640625 3.820313 12.761719 6.003907zm-4.738281 107.234375c-.339844 4.832031-.816407 9.726562-1.425782 14.542968-.222656 1.753907-.53125 3.691407-1.359375 4.492188-1.070312 1.039062-3.96875.980469-5.359375.953125-4.542968-.09375-9.144531-.328125-13.675781-.695313-1.203125-.097656-3.210937-.257812-4.015625-.957031-.832031-.726562-1.148438-2.625-1.332031-4.199219-1.410157-12.011718-.554688-20.460937 2.613281-25.828124.671875-1.132813 2.40625-4.066407 8.078125-4.066407 1.644531 0 3.617187.246094 5.992187.851563 3.539063.90625 8.105469 2.753906 9.761719 6.414062 1.046875 2.3125.9375 5.335938.722657 8.492188zm-22.472657 27.332031c4.453125.359375 8.964844.585937 13.433594.691406 1.023437 25.769531.964844 51.84375-.1875 77.605469l-16.972656.125 3.582031-78.433594c.046875.003906.101562.007813.144531.011719zm-3.933593-149.726563c2.910156 1.804688 5.921874 3.394532 8.964843 4.871094-5.496093 31.082032-8.722656 66.042969-8.898437 96.339844-1.949219 1.226562-3.722656 2.96875-5.15625 5.394531-5.460938 9.246094-4.71875 22.042969-3.683594 30.867188.375 3.199219 1.152344 6.816406 4.050781 9.339843.175781.15625.367188.277344.550781.417969l-3.695312 80.980469-52.027344.386719c-1.714844-57.398438-1.496094-115.539063.648438-172.882813.722656-.285156 1.421875-.605468 2.101562-.976562l30.796875 21.074218c.707031.484376 2.324219 1.589844 4.371094 1.589844.585937 0 1.207031-.089844 1.851563-.3125 3.070312-1.058594 3.898437-4.152344 4.171874-5.167968 4.832032-18.011719 10.84375-40.429688 5.511719-61.449219-.300781-1.1875-1.125-2.171875-2.238281-2.679688-.570312-.257812-1.1875-.375-1.796875-.355469.949219-5.398437 2.175781-10.765624 3.664063-16.046874 3.050781 3.136718 6.671874 6.039062 10.8125 8.609374zm-47.035157 36.71875c-.105469-1.265624-.390625-2.542968-.8125-3.800781l30.621094-15.480469c2.738281 16.925782-1.777344 34.699219-6.058594 50.699219l-27.582031-18.871093c2.691406-3.578126 4.207031-8.03125 3.832031-12.546876zm23.921875-25.34375-28.835937 14.582032c-.757813-.855469-1.574219-1.671875-2.476563-2.410156-2.640625-2.171876-5.660156-3.585938-8.695312-4.164063 1.667968-.617187 3.070312-1.535156 4.144531-2.242187 13.339844-8.789063 26.785156-17.773438 40.070313-26.765626-1.789063 6.542969-3.203126 13.210938-4.207032 19.902344-.058594.375-.042968.742188 0 1.097656zm-54.371094 12.484376c-10.132812-4.636719-20.539062-8.9375-31-12.839844-.019531-.308594-.0625-.621094-.160156-.933594-1.957031-6.417969-3.5625-12.988281-4.789062-19.601562 12.714844 10.996093 25.730468 18.960937 39.933594 27.273437.957031.558594 2.222656 1.296875 3.726562 1.785156-2.765625.703125-5.421875 2.195313-7.710938 4.316407zm-4.839843 6.667968c-1.589844 3.394532-2.253907 7.0625-1.773438 10.402344.398438 2.761719 1.492188 5.347656 3.070313 7.601562l-24.125 18.597657-9.167969-49.390625c-.019531-.113282-.039063-.21875-.054687-.320313 10.804687 3.941407 21.566406 8.355469 32.050781 13.109375zm6.207031 9.25c-.371094-2.589844.640625-5.816406 2.652344-8.417968 1.84375-2.390626 4.242187-3.914063 6.574218-4.179688.261719-.03125.523438-.042969.785157-.042969 2.140625 0 4.488281.9375 6.5625 2.640625 2.539062 2.085938 4.253906 5 4.46875 7.609375.4375 5.269531-4.109375 10.808594-9.363281 11.40625-5.246094.597657-10.925782-3.785156-11.679688-9.015625zm107.011719-183.308594c2.714843 2.476563 4.308593 6.488282 4.378906 11.003907.074219 4.703125-1.5 9.242187-4.316406 12.460937-2.328125 2.660156-5.570313 4.386719-8.867188 4.851563 1.203125-10.136719 1.378907-20.390625.453125-30.554688 2.679688-.714843 6.035156.121094 8.351563 2.238281zm-161.808594-77.664062c11.125-23.09375 30.242187-39.464844 51.136719-43.785156 17.28125-3.578125 37.035156 1.042968 52.839844 12.355468 14.492187 10.375 25.964843 25.964844 33.179687 45.082032 6.257813 16.585937 7.144531 34.214844 7.367187 53.761718-6.679687 20.792969-16.695312 40.1875-29.769531 57.671876-4.578125-2.453126-9.097656-5.777344-13.65625-9.292969-8.464843-6.542969-18.570312-13.613281-31.390625-14.753907-16.546875-1.472656-30.578125 7.714844-39.691406 14.753907-4.449219 3.4375-8.867188 6.6875-13.335938 9.121093-12.976562-17.257812-23.1875-36.332031-30.355468-56.703124-.101563-.285157-.238282-.542969-.390625-.789063.875-20.082031 3.425781-45.324219 14.066406-67.421875zm34.945313 122.171875c12.773437-9.871094 23.585937-14.03125 34.046874-13.105469 9.582032.851563 17.792969 5.855469 27.179688 13.105469 5.796875 4.476563 13.675781 10.566406 22.742188 13.417969-9.574219 4.363281-20.410157 5.171875-29.632813 1.863281-7.199219-2.585937-16.875-10.410156-19.949219-18.550781-.59375-1.570313-2.097656-2.605469-3.773437-2.605469s-3.179688 1.035156-3.773438 2.605469c-3.074219 8.136718-12.75 15.964844-19.953125 18.550781-9.21875 3.308594-20.050781 2.503906-29.628906-1.863281 9.0625-2.851563 16.949219-8.941406 22.742188-13.417969zm-70.6875-25.183594c-2.617188-4.816406-2.292969-11.09375.804687-15.617187 2.792969-4.074219 7.722656-6.550782 12.648437-6.492188-1.363281 10.613282-1.960937 20.515625-1.789062 29.847656-4.84375-.519531-9.34375-3.464843-11.664062-7.738281zm21.394531 27.164063c-1.851563-11.652344-2.195313-24.265625-1.019531-38.246094 6.523437 14.9375 14.710937 29.074219 24.410156 42.226562-2.710938.773438-5.457032 1.140626-8.257813.9375-1.75-.128906-3.40625.902344-4.050781 2.542969-.648438 1.648438-.148438 3.519531 1.234375 4.625 9.195313 7.359375 20.710937 11.289063 31.859375 11.289063 5.070312 0 10.0625-.8125 14.730469-2.484375 6.953125-2.496094 15.578125-8.632813 21-16.316407 5.421875 7.683594 14.042969 13.820313 21 16.316407 14.921875 5.355469 33.210937 1.898437 46.589843-8.804688 1.378907-1.105469 1.878907-2.976562 1.234376-4.625-.648438-1.644531-2.296876-2.671875-4.050782-2.542969-2.675781.195313-5.304687-.128906-7.898437-.832031 9.46875-12.929687 17.363281-26.832031 23.546875-41.539062.496094 37.957031-14.714844 76.109375-41.75 102.832031-11.90625 11.773438-26.023438 21.488281-39.859375 30.800781-8.015625-7.667969-17.074219-14.171875-25.867188-20.480469-11.898437-8.542968-23.140625-16.613281-32.050781-27.316406-10.601562-12.730468-17.792969-29.460937-20.800781-48.382812zm48.152343 82.25c9.398438 6.746094 19.121094 13.726562 27.207032 21.941406.78125.792969 1.824218 1.203125 2.875 1.203125.78125 0 1.5625-.226563 2.246094-.6875 15.011718-10.082031 30.535156-20.511719 43.769531-33.59375.019531-.015625.035156-.035156.054687-.054687.542969 2.175781 1.328125 4.324218 2.34375 6.425781-14.8125 10.054687-29.878906 20.132812-44.800781 29.96875-.96875.636719-2.449219 1.644531-3.296875 1.582031-.710938-.015625-1.917969-.722656-2.71875-1.191406-16.414062-9.605469-31.183594-18.710938-45.550781-32.65625.492187-1.835938.84375-3.675782 1.054687-5.515625 5.476563 4.433593 11.191406 8.539062 16.816406 12.578125zm-24.257812 6.707031c1.070312 5.789063 2.417969 11.539063 4.027344 17.195313-.585938.132812-1.183594.351562-1.773438.6875-2.015625 1.152343-4.191406 3.71875-3.136718 9.414062l9.515624 51.257812c.808594 4.347657 3.164063 5.722657 4.996094 6.113282.40625.085937.796875.121094 1.171875.121094 2.199219 0 3.867188-1.285157 4.558594-1.816407l26.949219-20.777343c2.351562 1.429687 4.984375 2.371093 7.707031 2.679687-2.101563 57.023437-2.304687 114.808594-.609375 171.871094l-54.875.410156-3.734375-81.839844c.183594-.140625.375-.261719.550781-.417969 2.898438-2.523437 3.675782-6.136718 4.050782-9.339843 1.03125-8.820313 1.777343-21.621094-3.683594-30.867188-1.433594-2.425781-3.207032-4.167969-5.15625-5.394531-.160156-30.59375-2.929688-61.359375-8.230469-91.492188 7.449219-5.382812 13.40625-11.429687 17.671875-17.804687zm-25.296875 115.578125c10.574219-2.707031 13.207031 1.75 14.070313 3.214844 3.171874 5.367187 4.027343 13.8125 2.617187 25.828125-.183594 1.574219-.503906 3.472656-1.332031 4.195312-.804688.699219-2.8125.863281-4.015625.960938-4.535157.363281-9.136719.597656-13.675781.691406-1.390626.027344-4.289063.085937-5.363282-.953125-.828125-.800781-1.132812-2.738281-1.355468-4.492188-.609376-4.800781-1.089844-9.695312-1.425782-14.542968-.21875-3.15625-.328125-6.179688.71875-8.492188 1.660156-3.660156 6.222656-5.507812 9.761719-6.410156zm-1.441406 42.925781c4.464843-.105469 8.976562-.332031 13.433593-.691406.042969-.003906.097657-.007813.144532-.011719l3.625 79.414063-16.96875.125c-1.203125-26.160157-1.277344-52.660157-.234375-78.835938zm1.726562-135.839843c4.691407 27.738281 7.203125 55.992187 7.488281 84.117187-3.140624-.242187-6.207031.171875-8.671874.722656l-12.804688-76.597656c1.136719-.660156 2.28125-1.320313 3.4375-1.984375 3.488281-2.007812 7.046875-4.078125 10.550781-6.257812zm-61.898437 215.128906c-2.421875.015625-5.148438.035156-6.925782-1.003906-3.117187-1.820313-3.796874-7.121094-4.042968-11.535157-2.054688-37.238281.328125-74.714843 7.082031-111.390625 4.152344-22.558594 11.402344-50.722656 30.753906-68.414062 4.171875-3.8125 8.761719-7.035156 13.613281-10.078125l12.515626 74.863281c-4.011719 2.078125-6.902344 4.925781-8.488282 8.429688-1.820312 4.019531-1.699218 8.316406-1.417968 12.375.347656 5 .839843 10.046874 1.46875 15 .394531 3.109374 1.042968 6.648437 3.746093 9.265624 1.15625 1.125 2.480469 1.859376 3.828125 2.34375-1.070312 26.476563-1.003906 53.285157.207032 79.753907zm291.003906-19.621094c-.886719 5.429688-1.855469 10.171875-4.78125 13.175781-3.890625 4.003907-10.820312 4.390625-17.585938 4.4375l-35.105468.261719c1.148437-26.023438 1.199218-52.371094.148437-78.398438 1.347657-.484374 2.671875-1.21875 3.828125-2.34375 2.703125-2.617187 3.351563-6.15625 3.746094-9.265624.628906-4.96875 1.125-10.015626 1.472656-15 .277344-4.058594.402344-8.355469-1.421875-12.375-1.585937-3.503907-4.476562-6.351563-8.484375-8.429688 2.1875-13.066406 4.71875-27.859375 7.171875-42.210938 2.339844-13.671874 4.75-27.75 6.863281-40.347656 24.78125 16.511719 42.863282 46.730469 48.972657 82.476563 6.042969 35.386719 1.167969 71.285156-4.824219 108.019531zm0 0"/></svg>