<svg height="512pt" viewBox="-91 0 512 512.0002" width="512pt" xmlns="http://www.w3.org/2000/svg"><path d="m67.730469 506.570312-.589844-3.273437c-2.203125-12.28125-.867187-26.121094 4.207031-43.554687 1.648438-5.609376 3.582032-11.382813 5.289063-16.472657l.085937-.253906c3.132813-9.371094 6.375-19.0625 8.378906-28.894531 7.121094-34.992188-1.164062-71.488282-7.820312-100.816406l-1.097656-4.820313 4.945312-.0625c4.984375-.066406 9.902344-.929687 14.617188-2.570313l5.121094-1.78125.1875 5.417969c.597656 16.839844 1.410156 39.898438 9.433593 59.464844 10.691407 26.082031 30.46875 37.28125 45.414063 39.066406 1.675781.199219 3.394531.300781 5.105468.300781 12.859376 0 26.242188-5.519531 36.726563-15.144531 10.199219-9.375 18.011719-22.449219 23.222656-38.855469 4.351563-13.738281 6.414063-28.042968 8.316407-42.714843l.605468-4.703125 4.535156 1.394531c4.390626 1.351563 8.914063 2.035156 13.445313 2.035156 1.710937 0 3.492187-.113281 5.292969-.339843l6.710937-.839844-2.5 6.285156c-6.742187 16.976562-8.765625 37.199219-6.011719 60.117188 2.160157 17.941406 6.882813 35.644531 11.453126 52.765624 1.054687 3.957032 2.101562 7.902344 3.125 11.847657 5.230468 20.214843 10 41.917969 9.46875 63.660156l-.097657 3.925781zm0 0" fill="#d34242"/><path d="m67.371094 96.332031c.8125-3.5625 1.757812-7.164062 2.816406-10.703125l.503906-1.691406 1.589844-.769531c33.046875-15.957031 70.277344-24.394531 107.667969-24.394531 24.914062 0 49.382812 3.675781 72.726562 10.925781l2.882813-.363281 1.25 2.613281c3.796875 8.039062 6.058594 16.03125 6.71875 23.761719l.535156 6.308593-5.925781-2.226562c-26.515625-9.941407-56.0625-14.984375-87.816407-14.984375-13.015624 0-26.425781.871094-39.851562 2.589844-21.078125 2.691406-40.535156 7.261718-57.824219 13.578124l-6.910156 2.523438zm0 0" fill="#d34242"/><path d="m163.992188 362.03125c-2.601563 0-5.132813-.421875-7.53125-1.253906-4.757813-1.644532-8.515626-4.71875-10.304688-8.433594-1.980469-4.078125-1.746094-9.421875.609375-13.9375 3.054687-5.890625 9.234375-10.304688 16.132813-11.515625 1.269531-.222656 2.539062-.332031 3.78125-.332031 4.898437 0 9.328124 1.695312 12.816406 4.90625 6.214844 5.714844 6.574218 16.714844.769531 23.535156-3.742187 4.402344-9.824219 7.03125-16.273437 7.03125zm0 0" fill="#d34242"/><path d="m247.753906 310.308594c-12.121094 0-24.25-5.128906-32.4375-13.71875-10.085937-10.570313-13.507812-25.835938-8.320312-37.128906 2.691406-5.855469 7.175781-10.28125 11.921875-14.96875l2.890625 2.769531-2.8125-2.839844c3.609375-3.578125 7.347656-7.273437 10.089844-11.582031 6.160156-9.679688 6.90625-22.609375 1.898437-32.933594-2.929687-6.039062-7.589844-11.054688-12.09375-15.90625-3.074219-3.296875-6.246094-6.703125-8.910156-10.488281-3.03125-4.328125-6.957031-12.738281-8.910157-21.800781-2.226562-10.292969-1.234374-18.058594 2.867188-22.453126 1.453125-1.542968 3.617188-2.324218 6.441406-2.324218.617188 0 1.277344.039062 1.964844.117187l.285156.027344c3.378906.417969 7.523438 1.730469 12.316406 3.910156 8.597657 3.898438 17.066407 9.589844 20.339844 12.054688 12.480469 9.417969 19.773438 22.675781 19.503906 35.46875-.097656 4.921875-1.230468 9.585937-2.429687 14.523437-1.308594 5.394532-2.65625 10.960938-2.382813 16.558594.515626 11.050781 7.050782 20.457031 13.375 29.554688 5.550782 7.976562 10.769532 15.480468 12.898438 24.402343 4.007812 16.75-5.996094 36.234375-22.292969 43.4375-4.984375 2.203125-10.4375 3.320313-16.203125 3.320313zm0 0" fill="#ffbf48"/><path d="m80.691406 308.414062c-6.046875 0-11.972656-1.28125-17.128906-3.703124-16.132812-7.574219-25.683594-27.285157-21.289062-43.941407 2.332031-8.859375 7.726562-16.242187 13.4375-24.058593 6.535156-8.953126 13.296874-18.210938 14.085937-29.277344.394531-5.597656-.824219-11.203125-2.007813-16.625-1.085937-4.957032-2.109374-9.648438-2.089843-14.566406.023437-12.789063 7.617187-25.878907 20.316406-35 3.316406-2.382813 11.894531-7.871094 20.613281-11.59375 5.785156-2.46875 10.589844-3.71875 14.277344-3.71875 3.011719 0 5.285156.828124 6.757812 2.464843 4.003907 4.507813 4.8125 12.289063 2.355469 22.53125-2.167969 9.007813-6.285156 17.328125-9.410156 21.574219-2.757813 3.742188-6.007813 7.074219-9.148437 10.292969-4.628907 4.761719-9.398438 9.667969-12.46875 15.621093-5.234376 10.203126-4.789063 23.148438 1.140624 32.96875 2.664063 4.417969 6.332032 8.203126 9.878907 11.863282 4.683593 4.84375 9.050781 9.359375 11.589843 15.261718 3.894532 9.03125 2.398438 20.671876-3.894531 30.386719l-.40625.625-.597656.4375-.207031.714844-.480469.644531c-1.148437 1.511719-2.355469 2.902344-3.597656 4.132813-8.21875 8.234375-19.789063 12.964843-31.726563 12.964843zm0 0" fill="#ffbf48"/><path d="m275.867188 179.417969c-2.511719 0-5.035157-.054688-7.207032-.109375l-3.640625-.089844-.25-3.636719c-.820312-12.003906-7.910156-23.878906-19.449219-32.578125-3.496093-2.644531-11.710937-8.15625-20.34375-12.082031-4.648437-2.109375-8.746093-3.40625-12.179687-3.855469l-.265625-.035156-.261719-.070312c-15.59375-4.246094-31.9375-6.398438-48.578125-6.398438-18.070312 0-36.324218 2.53125-54.25 7.523438l-.585937.582031-.75.308593c-.507813.203126-1.007813.40625-1.535157.625-8.625 3.683594-17.011718 9.019532-20.601562 11.589844-11.910156 8.5625-19.488281 20.914063-20.257812 33.042969l-.28125 4.449219-4.394532-.761719c-13.839844-2.398437-27.683594-5.398437-41.148437-8.921875-5.316407-1.394531-10.757813-3.117188-13.734375-7.488281-2.5625-3.777344-2.785156-9.25-.589844-14.289063 2.003906-4.59375 5.59375-8.324218 9.175781-11.675781 27.378907-25.589844 66.324219-41.769531 115.742188-48.085937 13.441406-1.71875 26.859375-2.589844 39.882812-2.589844 49.851563 0 94.414063 12.523437 128.863281 36.214844 14.421876 9.921874 21.453126 20.320312 20.894532 30.902343-.601563 11.523438-10.488282 20.3125-20.019532 23.914063-8.230468 3.097656-16.871093 3.515625-24.234374 3.515625zm0 0" fill="#5b5d6d"/><path d="m73.886719 74.792969c7.023437-18.257813 17.058593-33.566407 29.820312-45.503907 17.140625-16.035156 39.507813-25.230468 61.363281-25.230468 4.933594 0 9.804688.480468 14.476563 1.417968 21.375 4.296876 41.765625 18.085938 60.609375 40.992188 4.238281 5.136719 8.003906 10.347656 11.191406 15.484375l5.433594 8.761719-9.921875-2.804688c-21.574219-6.097656-44.078125-9.1875-66.886719-9.1875-34.703125 0-69.535156 7.316406-100.730468 21.164063l-8.824219 3.914062zm0 0" fill="#5b5d6d"/><g fill="#ffdac4"><path d="m275.378906 507.746094.09375-4.066406c.5-21.730469-4.261718-43.375-9.484375-63.527344-.804687-3.132813-1.636719-6.257813-2.46875-9.386719l-.65625-2.46875c-4.570312-17.125-9.296875-34.839844-11.445312-52.75-2.773438-23.09375-.707031-43.441406 6.152343-60.46875l1.792969-4.457031 4.058594 2.570312c22.945313 14.53125 42.085937 42.675782 52.507813 77.210938 9.847656 32.664062 10.15625 67.390625 9.671874 97.371094-.105468 6.800781-.929687 14.234374-6.222656 17.8125-3.179687 2.164062-7.285156 2.347656-11.214844 2.347656zm0 0"/><path d="m164.546875 268.597656c-.945313 0-1.878906-.019531-2.808594-.0625-15.882812-.730468-30.925781-6.464844-43.496093-16.589844l-.714844-.390624-.507813-.636719c-2.164062-2.738281-4.605469-5.273438-6.96875-7.722657-3.722656-3.847656-7.21875-7.460937-9.867187-11.847656-5.921875-9.804687-6.363282-22.722656-1.121094-32.90625 3.027344-5.902344 7.542969-10.554687 12.328125-15.484375l.117187-.121093c2.996094-3.070313 6.382813-6.539063 9.152344-10.292969 2.835938-3.847657 6.914063-11.953125 9.164063-20.652344 2.503906-9.667969 2.082031-17.597656-1.183594-22.324219l-3.589844-5.191406 6.226563-1.03125c10.824218-1.792969 21.765625-2.699219 32.515625-2.699219 12.421875 0 24.742187 1.207031 36.625 3.59375l6.054687 1.21875-3.585937 5.027344c-3.328125 4.667969-3.90625 12.582031-1.625 22.277344 2.050781 8.714843 5.929687 16.882812 8.664062 20.78125 2.632813 3.75 5.820313 7.179687 8.902344 10.492187 4.503906 4.84375 9.160156 9.851563 12.089844 15.902344 5.003906 10.300781 4.265625 23.203125-1.882813 32.871094-2.75 4.316406-6.332031 7.855468-10.121094 11.605468-2.832031 2.785157-6.019531 5.921876-8.601562 9.40625l-.417969.566407-.839843.558593-.070313.03125c-12.941406 8.53125-29.53125 13.621094-44.4375 13.621094zm0 0"/><path d="m164.878906 388.558594-.027344 15.671875.007813 4.039062-4.035156-.027343c-1.820313-.015626-3.429688-.109376-4.925781-.289063-18.746094-2.238281-36.550782-17.558594-45.351563-39.023437-8.03125-19.578126-8.78125-40.96875-9.503906-61.65625-.011719-.054688-.800781-3.152344-.800781-3.152344l2.695312-1.496094c3.582031-1.992188 6.792969-4.394531 9.542969-7.144531.601562-.597657 1.222656-1.269531 1.90625-2.042969l2.679687-3.042969 3.003906 2.71875c11.488282 10.390625 23.628907 20.3125 36.089844 29.496094l5.0625 3.730469-5.523437 3.003906c-3.929688 2.136719-7.039063 5.261719-9 9.039062-2.390625 4.59375-2.613281 9.828126-.597657 14 1.824219 3.78125 5.492188 6.785157 10.335938 8.457032 2.441406.84375 4.996094 1.269531 7.582031 1.269531 6.441407 0 12.53125-2.640625 16.292969-7.070313 5.726562-6.734374 5.359375-17.992187-.769531-23.621093-.945313-.867188-1.996094-1.644531-3.113281-2.292969l-5.445313-3.1875 5.207031-3.566406c11.625-7.964844 22.773438-16.816406 33.136719-26.300782l3.0625-2.804687 2.6875 3.164063c.074219.085937.148437.167968.230469.253906 3.339844 3.5 7.390625 6.460937 11.988281 8.757812l2.546875 1.269532-.363281 2.824218c-1.8125 14.003906-3.863281 29.878906-8.585938 44.765625-5.191406 16.375-13 29.4375-23.207031 38.824219-8.019531 7.378906-17.976562 12.46875-28.039062 14.328125l-4.714844.875zm0 0"/><path d="m159.667969 325.097656c-13.867188-10.011718-27.40625-20.996094-40.1875-32.605468l-2.421875-2.199219 1.675781-2.8125c4.410156-7.394531 6.054687-16.101563 4.503906-23.878907l-1.6875-8.46875 7.550781 4.1875c10.148438 5.632813 21.125 8.753907 32.628907 9.273438.886719.046875 1.792969.066406 2.800781.066406 11.320312 0 23.761719-2.957031 35.027344-8.332031l7.339844-3.5-1.707032 7.953125c-1.8125 8.425781.085938 17.796875 5.207032 25.703125l1.835937 2.835937-2.488281 2.285157c-11.695313 10.742187-24.316406 20.625-37.515625 29.371093l-1.34375 1.84375-2.257813-.21875c-.648437-.0625-1.316406-.09375-1.976562-.09375-1.039063 0-2.097656.078126-3.148438.230469l-2.386718.347657zm0 0"/><path d="m31.496094 506.359375c-4.847656-.023437-9.472656-.277344-12.773438-3.097656-4.027344-3.433594-4.515625-9.214844-4.667968-14.839844-.910157-33.042969-1.847657-67.214844 6.480468-99.898437 8.496094-33.378907 27.078125-61.171876 50.980469-76.257813l4.785156-3.019531 1.25 5.523437c7.6875 33.984375 14.042969 67.15625 7.488281 99.339844-2.035156 9.945313-5.304687 19.707031-8.46875 29.144531l-.214843.648438c-1.730469 5.171875-3.515625 10.519531-5.066407 15.832031-4.90625 16.816406-6.320312 30.222656-4.449218 42.1875l.730468 4.644531zm0 0"/></g><path d="m319.816406 389.230469c-10.660156-35.332031-29.910156-63.65625-53.375-78.917969 17.796875-8.359375 28.207032-29.117188 23.761719-47.707031-2.304687-9.648438-7.992187-17.828125-13.492187-25.734375-6.28125-9.035156-12.214844-17.566406-12.683594-27.457032-.234375-5.027343.988281-10.078124 2.285156-15.429687.832031-3.449219 1.679688-6.980469 2.15625-10.621094 2.378906.058594 4.808594.117188 7.292969.117188 8.476562 0 17.410156-.625 25.773437-3.777344 14.941406-5.636719 22.140625-17.867187 22.644532-27.496094.636718-12.09375-6.984376-23.691406-22.652344-34.46875-10.390625-7.144531-21.691406-13.273437-33.734375-18.382812-.351563-17.726563-8.363281-35.871094-24.492188-55.46875-19.457031-23.636719-40.632812-37.902344-62.945312-42.394531-26.839844-5.40625-57.269531 4.105468-79.417969 24.828124-24.375 22.800782-34.460938 52.988282-38.628906 74.292969-.007813.039063-.003906.078125-.011719.121094-19.574219 8.191406-36.398437 18.824219-50.328125 31.84375-3.894531 3.636719-7.816406 7.730469-10.128906 13.011719-2.757813 6.308594-2.394532 13.285156.949218 18.207031 3.769532 5.539063 10.273438 7.621094 16.074219 9.136719 14.011719 3.664062 28.359375 6.757812 42.632813 9.195312.183594.03125.359375.03125.539062.039063.417969 3.242187 1.109375 6.410156 1.78125 9.507812 1.171875 5.378907 2.28125 10.460938 1.925782 15.480469-.699219 9.878906-6.824219 18.273438-13.3125 27.15625-5.679688 7.78125-11.554688 15.824219-14.085938 25.417969-4.949219 18.773437 5.367188 40.148437 23.492188 48.65625 1.664062.785156 3.386718 1.4375 5.144531 1.992187-23.703125 15.96875-41.828125 43.539063-50.386719 77.144532-8.464844 33.226562-7.515625 67.6875-6.601562 101.011718.171874 6.253906.800781 13.300782 6.089843 17.816406 4.703125 4.011719 11.132813 4.046876 15.390625 4.074219l35.347656.199219c.324219.082031.652344.140625.992188.140625.3125 0 .628906-.039063.945312-.113281.015626-.003906.027344-.011719.046876-.015625l238.59375 1.359375c.363281.003906.738281.003906 1.125.003906 3.945312 0 8.960937-.222656 13.132812-3.042969 7.746094-5.238281 7.921875-15.960937 8.003906-21.113281.492188-30.292969.179688-65.390625-9.84375-98.613281zm-72.433594-13.199219c2.183594 18.167969 6.945313 36.035156 11.554688 53.316406 1.046875 3.941406 2.097656 7.878906 3.121094 11.824219 5.179687 20.007813 9.859375 41.40625 9.34375 62.554687l-200.324219-1.140624c-2.082031-11.632813-.757813-25 4.117187-41.71875 1.589844-5.457032 3.441407-10.980469 5.230469-16.324219 3.207031-9.566407 6.519531-19.457031 8.589844-29.625 7.085937-34.789063-.597656-70.609375-7.832031-102.496094 5.355468-.066406 10.75-1.007813 15.878906-2.792969.6875 19.519532 1.722656 41.332032 9.726562 60.84375 11.351563 27.6875 32.566407 39.597656 48.636719 41.515625 1.84375.21875 3.707031.328125 5.582031.328125 13.765626 0 28.152344-5.839844 39.429688-16.199218 10.726562-9.859376 18.914062-23.515626 24.328125-40.585938 4.59375-14.484375 6.699219-29.742188 8.472656-43.414062 4.753907 1.460937 9.707031 2.21875 14.617188 2.21875 1.941406 0 3.875-.132813 5.789062-.371094-6.988281 17.582031-9.105469 38.421875-6.261719 62.066406zm-123.503906-201.113281c6.273438-8.507813 17.230469-34.347657 8.046875-47.632813 22.898438-3.785156 45.839844-3.511718 67.699219.871094-9.335938 13.105469.972656 39.058594 7.03125 47.683594 2.785156 3.96875 6.070312 7.503906 9.246094 10.921875 4.503906 4.847656 8.757812 9.425781 11.421875 14.914062 4.410156 9.089844 3.753906 20.464844-1.664063 28.984375-2.511718 3.945313-5.941406 7.332032-9.574218 10.917969-3.121094 3.082031-6.304688 6.238281-8.980469 9.855469-.039063.027344-.078125.039062-.117188.0625-13.113281 8.714844-30.375 13.707031-45.066406 13.039062-15.023437-.6875-29.257813-6.117187-41.167969-15.707031-.1875-.152344-.390625-.277344-.59375-.390625-2.246094-2.851562-4.757812-5.464844-7.230468-8.019531-3.546876-3.667969-6.898438-7.132813-9.316407-11.132813-5.222656-8.644531-5.613281-20.03125-.996093-29.015625 2.789062-5.425781 7.148437-9.90625 11.765624-14.644531 3.253907-3.34375 6.617188-6.804688 9.496094-10.707031zm37.675782 97.671875c.980468.046875 1.972656.070312 2.976562.070312 11.957031 0 25.128906-3.179687 36.746094-8.71875-1.816406 8.46875-.535156 18.988282 5.761718 28.71875-11.53125 10.59375-23.976562 20.34375-37.019531 28.980469-.410156.269531-.738281.609375-1.011719.980469-1.984374-.195313-4.023437-.140625-6.074218.160156-.242188-.324219-.523438-.632812-.871094-.882812-13.84375-9.996094-27.242188-20.878907-39.894531-32.371094 5.417969-9.089844 6.574219-18.78125 4.988281-26.710938 10.5625 5.867188 22.242188 9.21875 34.398438 9.773438zm2.03125 58.242187c1.046874-.183593 2.082031-.273437 3.09375-.273437 3.851562 0 7.363281 1.324218 10.113281 3.851562 4.621093 4.25 4.824219 12.828125.429687 18.003906-4.3125 5.066407-12.492187 7-19.453125 4.589844-3.757812-1.300781-6.675781-3.628906-8.007812-6.390625-1.4375-2.976562-1.230469-6.945312.542969-10.355469 2.503906-4.8125 7.59375-8.425781 13.28125-9.425781zm-48.277344-32.523437c.730468-.734375 1.417968-1.476563 2.078125-2.230469 11.597656 10.492187 23.8125 20.472656 36.40625 29.753906-4.539063 2.472657-8.289063 6.179688-10.640625 10.707031-2.96875 5.707032-3.210938 12.277344-.652344 17.582032 2.289062 4.746094 6.777344 8.472656 12.632812 10.5 2.894532 1.003906 5.90625 1.484375 8.886719 1.484375 7.460938 0 14.710938-3.023438 19.34375-8.472657 7.148438-8.414062 6.628907-22.039062-1.113281-29.160156-1.171875-1.078125-2.449219-2.007812-3.800781-2.804687 11.777343-8.070313 23.046875-17.011719 33.578125-26.648438.113281.125.222656.25.339844.375 3.789062 3.96875 8.273437 7.191407 13.136718 9.617188-1.785156 13.855469-3.816406 29.546875-8.425781 44.078125-4.984375 15.710937-12.421875 28.191406-22.101563 37.085937-7.625 7.007813-16.816406 11.632813-26.0625 13.339844l-.039062-14.96875c-.007812-2.222656-1.8125-4.019531-4.035156-4.019531 0 0-.003906 0-.007813 0-2.226562.007812-4.027343 1.816406-4.023437 4.042968l.042968 15.667969c-1.503906-.007812-2.996093-.085937-4.472656-.261719-17.332031-2.066406-33.875-16.421874-42.132812-36.566406-7.765625-18.933594-8.5-39.980468-9.210938-60.332031-.011718-.332031-.074218-.652344-.160156-.957031 3.804688-2.105469 7.335938-4.710938 10.433594-7.8125zm154.78125-56.835938c5.304687 7.632813 10.316406 14.839844 12.269531 23.007813 3.582031 14.964843-5.402344 32.394531-20.023437 38.851562-14.292969 6.316407-32.855469 2.320313-44.128907-9.5-8.980469-9.417969-12.097656-22.863281-7.578125-32.703125 2.386719-5.195312 6.628906-9.382812 11.121094-13.816406 3.792969-3.742188 7.710938-7.609375 10.710938-12.324219 6.886718-10.828125 7.71875-25.285156 2.117187-36.832031-3.1875-6.574219-8.058594-11.816406-12.769531-16.882812-3.128906-3.367188-6.085938-6.550782-8.558594-10.066407-2.695312-3.84375-6.4375-11.847656-8.273438-20.339843-1.910156-8.828126-1.242187-15.53125 1.882813-18.878907.777344-.832031 2.484375-1.28125 5.25-.941406.007813 0 .015625 0 .027344.003906 2.679687.328125 6.351562 1.394531 11.152343 3.574219 8.308594 3.773438 16.445313 9.25 19.585938 11.617188 11.457031 8.640624 18.152344 20.671874 17.914062 32.191406-.09375 4.46875-1.171874 8.929687-2.316406 13.652344-1.371094 5.667968-2.789062 11.527343-2.496094 17.707031.578126 12.210937 7.457032 22.109375 14.113282 31.679687zm-163.644532-209.265625c20.277344-18.96875 47.996094-27.710937 72.316407-22.8125 20.445312 4.117188 40.066406 17.449219 58.3125 39.617188 4.230469 5.140625 7.835937 10.148437 10.871093 15.050781-55.941406-15.816406-117.195312-11.410156-170.320312 12.167969 5.753906-14.972657 14.746094-30.859375 28.820312-44.023438zm-32.421874 54.566407c54.761718-26.453126 119.390624-31.292969 177.46875-13.253907.570312.179688 1.144531.214844 1.699218.144531 3.625 7.675782 5.730469 15.113282 6.347656 22.390626-37.808593-14.179688-82.359374-18.667969-129.578124-12.625-21.535157 2.753906-41.125 7.367187-58.691407 13.792968.757813-3.328125 1.667969-6.832031 2.753907-10.449218zm-53.121094 78.359374c-4.585938-1.199218-9.246094-2.640624-11.445313-5.871093-1.773437-2.609375-1.863281-6.707031-.226562-10.441407 1.722656-3.941406 4.980469-7.304687 8.242187-10.351562 26.75-25 64.941406-40.828125 113.511719-47.042969 64.191406-8.210937 123.128906 3.496094 165.972656 32.957031 13.199219 9.078126 19.648438 18.296876 19.167969 27.402344-.507812 9.722656-9.125 17.238282-17.4375 20.371094-9.351562 3.527344-19.78125 3.402344-29.933594 3.152344-.890625-13.035156-8.558594-26.101563-21.023437-35.503906-3.640625-2.742188-12.175781-8.464844-21.105469-12.519532-5.066406-2.300781-9.5-3.6875-13.304688-4.183594-33.355468-9.085937-69.640624-8.695312-104.953124 1.132813-.683594.191406-1.265626.558594-1.738282 1.027344-.527344.210937-1.054687.417969-1.597656.652343-9.019531 3.847657-17.691406 9.371094-21.386719 12.03125-13.019531 9.351563-21.074219 22.675782-21.929687 36.035157-13.671875-2.367188-27.394532-5.339844-40.8125-8.847657zm25.238281 96.65625c2.144531-8.125 7.320313-15.214843 12.800781-22.722656 6.875-9.414062 13.984375-19.148437 14.84375-31.34375.433594-6.171875-.847656-12.0625-2.089844-17.761718-1.035156-4.75-2.011718-9.234376-2-13.703126.027344-11.519531 7-23.394531 18.652344-31.765624 3.195313-2.296876 11.457032-7.582032 19.847656-11.164063 5.808594-2.476563 9.96875-3.398437 12.714844-3.398437 1.925782 0 3.160156.453124 3.773438 1.140624 3.046875 3.417969 3.558594 10.136719 1.445312 18.917969-2.03125 8.449219-5.957031 16.363281-8.742187 20.144531-2.550781 3.460938-5.578125 6.570313-8.785157 9.867188-4.824218 4.957031-9.816406 10.085938-13.15625 16.582031-5.867187 11.414063-5.371093 25.886719 1.265626 36.871094 2.890624 4.78125 6.71875 8.742187 10.421874 12.570313 4.390626 4.535156 8.53125 8.820312 10.800782 14.066406 3.441406 7.976562 1.90625 18.15625-3.582032 26.625-.21875.160156-.429687.339844-.621093.546875-.441407.480469-.730469 1.042969-.898438 1.632812-.980469 1.292969-2.054687 2.539063-3.230469 3.710938-11.542968 11.558593-30.191406 15.125-44.339843 8.480469-14.464844-6.789063-23.042969-24.421876-19.121094-39.296876zm-24.824219 238.429688c-2.773437-2.367188-3.132812-7.179688-3.261718-11.90625-.902344-32.773438-1.835938-66.660156 6.351562-98.800781 8.335938-32.722657 26.117188-59.265625 49.242188-73.859375 6.953124 30.726562 14.105468 65.054687 7.464843 97.65625-1.972656 9.683594-5.203125 19.335937-8.332031 28.671875-1.816406 5.417969-3.691406 11.019531-5.328125 16.628906-5.039063 17.277344-6.523437 31.402344-4.566406 43.929687l-31.367188-.179687c-4.082031-.023437-7.933593-.203125-10.203125-2.140625zm300.285156-12.507812c-.097656 5.773437-.699218 12.019531-4.460937 14.5625-2.324219 1.574218-5.773437 1.683593-9.695313 1.660156l-27.980468-.160156c.515625-22.085938-4.285156-44.089844-9.601563-64.625-1.027343-3.960938-2.082031-7.917969-3.136719-11.878907-4.535156-17.007812-9.222656-34.597656-11.335937-52.199219-2.703125-22.460937-.710937-42.109374 5.894531-58.503906 22.21875 14.082032 40.578125 41.066406 50.8125 74.992188 9.6875 32.113281 9.984375 66.46875 9.503906 96.152344zm0 0"/></svg>