<svg height="511pt" viewBox="-80 0 511 511.99795" width="511pt" xmlns="http://www.w3.org/2000/svg"><path d="m176.082031 342.222656c-14.621093 0-28.726562-4.15625-40.804687-12.023437l-1.980469-.925781-.410156-2.117188c-1.136719-6.921875-2.226563-13.355469-3.335938-19.664062l-2.253906-12.851563 9.070313 9.378906c3.53125 3.652344 7.777343 6.664063 12.625 8.953125 7.3125 3.449219 16.066406 5.335938 26.015624 5.597656.792969.03125 1.523438.039063 2.246094.039063 17.523438 0 27.332032-5.90625 32.472656-10.859375l8.578126-8.265625-1.851563 11.769531c-1.007813 6.398438-1.972656 13.050782-2.875 19.769532l-.289063 2.152343-1.960937.929688c-11.34375 5.382812-23.203125 8.117187-35.242187 8.117187-.003907 0-.003907 0-.003907 0zm0 0" fill="#59bd8b"/><path d="m153.222656 506.609375-.242187-3.730469c-3.570313-55.003906-9.773438-110.660156-18.4375-165.425781l-1.265625-8 7.121094 3.859375c10.851562 5.878906 23.195312 8.988281 35.695312 8.988281 10.386719 0 20.746094-2.074219 30.789062-6.164062l6.324219-2.574219-.84375 6.769531c-5.472656 43.910157-8.046875 88.160157-10.539062 130.949219-.597657 10.296875-1.21875 20.890625-1.871094 31.40625l-.230469 3.769531-3.777344-.015625c-1.308593-.007812-2.628906-.011718-3.960937-.011718-4.53125 0-9.4375.03125-15.910156.101562l-1.867188.015625c-4.894531.039063-9.867187.078125-14.699219.078125zm0 0" fill="#59bd8b"/><path d="m239.316406 189.863281c-1.0625-7.105469-.480468-14.234375.140625-21.777343l.039063-.4375c.148437-1.820313.292968-3.628907.414062-5.425782.667969-9.890625.632813-20.121094-4.082031-27.949218-1.863281-3.078126-4.015625-6.042969-6.097656-8.914063l-.125-.167969c-3.230469-4.441406-6.289063-8.640625-8.679688-13.546875-3.195312-6.59375-7.753906-19.355469-2.398437-30.824219-14.472656 9.023438-32.011719 14.011719-49.429688 14.015626-4.574218 0-9.148437-.34375-13.597656-1.019532-6.117188-.925781-20.652344-4.308594-23.460938-15.6875-2.433593 22.855469-5.492187 42.980469-18.941406 57.699219-.414062.449219-1.929687 2.078125-1.929687 2.078125-6.117188 6.605469-8.644531 9.339844-8.457031 19.277344l.019531.757812c.042969 2.394532.070312 4.746094.09375 7.085938l.003906.515625c.097656 7.679687.199219 15.621093.851563 23.519531l.617187 7.464844-6.546875-3.640625c-5.789062-3.214844-10.734375-7.816407-14.300781-13.304688-4.910157-7.570312-7.097657-16.644531-6.164063-25.546875 1.304688-12.511718-3.917968-22.355468-9.445312-32.777344-5.792969-10.917968-11.777344-22.195312-8.671875-36.238281 3.296875-14.945312 14.976562-27.75 29.753906-32.625l.761719-.25c2.75-.894531 5.578125-1.816406 7.050781-4.167969 1.074219-1.722656 1.117187-3.839843 1.160156-5.886718.011719-.527344.023438-1.050782.058594-1.578125.378906-7.183594 4.644531-14.390625 11.398437-19.242188 5.734376-4.117187 13.105469-6.660156 21.910157-7.546875 1.695312-.175781 3.347656-.273437 5.097656-.378906l.773437-.046875c4.566407-.265625 9.277344-.539063 13.703126-1.890625 2.367187-.726562 4.65625-1.769531 6.875-2.773438l.359374-.164062c1.640626-.75 3.1875-1.460938 4.832032-2.082031 4.203125-1.566407 8.679687-2.355469 13.320312-2.355469 12.550782 0 24.765625 5.894531 31.882813 15.390625 5.566406-3.285156 12.097656-5.027344 18.917969-5.027344 8.628906 0 16.875 2.777344 23.222656 7.824219 6.453125 5.128906 16.578125 16.992188 11.835937 38.832031-1.550781 7.140625-.175781 8.359375 3.910157 11.972657.683593.601562 1.628906 1.433593 2.65625 2.417968 5.808593 5.496094 9.757812 12.328125 11.410156 19.738282 2.332031 10.488281-.03125 21.949218-6.324219 30.65625-.984375 1.367187-2.039063 2.632812-3.15625 3.976562l-.425781.515625c-3.160156 3.761719-6.132813 7.304687-7.292969 11.867187-1.085937 4.339844-.289063 8.671876.554687 13.261719.300782 1.59375.535157 2.882813.726563 4.179688 1.960937 13.515625-7.464844 22.445312-16.574219 31.078125-.492187.472656-1 .949218-1.523437 1.441406l-5.5625 5.242188zm0 0" fill="#644c4c"/><path d="m169.929688 285.949219c-7.550782 0-13.875-1.628907-18.804688-4.851563-7.078125-4.605468-10.789062-12.015625-12.652344-17.421875-2.390625-6.894531-3.183594-14.128906-3.84375-21.550781-.828125-9.214844-1.289062-18.15625 2.121094-26.210938 3.453125-8.179687 11.160156-14.996093 20.617188-18.238281 5.496093-1.886719 11.085937-2.839843 16.621093-2.839843 16.757813 0 28.832031 8.511718 32.960938 16.425781 4.6875 8.96875 4.835937 19.589843 4.601562 28.839843-.195312 7.570313-.671875 13.863282-2.339843 19.992188-1.363282 5.007812-4.222657 12.046875-10.085938 17.105469-5.125 4.410156-12.222656 7.113281-21.699219 8.273437-2.609375.316406-5.132812.476563-7.496093.476563zm.53125-68.914063c-4.082032 3.871094-7.621094 7.226563-13.773438 7.882813-.394531.050781-.859375.085937-1.328125.121093-1.785156.136719-3.640625.277344-5.121094 1.28125-1.578125 1.066407-2.390625 2.863282-2.921875 4.308594-4.082031 11.1875 1.265625 25.035156 11.925782 30.863282 3.679687 2.007812 7.980468 3.070312 12.429687 3.070312 7.796875 0 15.480469-3.269531 20.546875-8.738281 5.722656-6.179688 8.023438-14.40625 7.03125-25.15625-.523438-5.671875-2.890625-6.78125-6.800781-6.78125-.847657 0-1.691407.0625-2.433594.113281-.964844.070312-2.066406.148438-3.1875.148438-1.398437 0-2.605469-.128907-3.683594-.394532-5.167969-1.289062-8.578125-4.519531-11.488281-7.816406h-.015625zm0 0" fill="#644c4c"/><path d="m250.617188 504.710938c-12.171876-38.355469-14.230469-82.582032-5.648438-121.382813l.171875-.789063.46875-.660156c2.195313-3.097656 4.558594-6.867187 5.4375-11.332031.78125-3.964844.253906-7.941406-.292969-10.964844l-.296875-1.652343 1.042969-1.46875c8.277344-13.539063 17.433594-26.898438 27.214844-39.707032l2.539062-3.328125 3.207032 2.6875c7.316406 6.132813 14.167968 12.796875 20.359374 19.808594 2.085938 2.386719 4.132813 4.953125 4.332032 8.003906.203125 3.175781-1.632813 6.125-3.257813 8.722657-27.097656 43.710937-36.121093 99.792968-24.132812 150.011718l1.148437 4.800782-4.9375.128906c-8.058594.207031-15.941406.320312-23.421875.339844l-3.113281.007812zm0 0" fill="#5b5d6d"/><path d="m98.390625 507.929688c-7.480469-.019532-15.359375-.132813-23.421875-.339844l-4.933594-.128906 1.144532-4.800782c11.992187-50.21875 2.964843-106.308594-24.148438-150.03125-1.609375-2.589844-3.445312-5.53125-3.242188-8.695312.203126-3.058594 2.246094-5.628906 4.324219-8 6.203125-7.023438 13.050781-13.6875 20.371094-19.820313l3.207031-2.6875 2.539063 3.328125c9.726562 12.738282 18.84375 26.03125 27.09375 39.507813l.792969 1.292969-.265626 1.492187c-.765624 4.3125-.863281 7.617187-.316406 10.398437.890625 4.523438 3.347656 8.414063 5.636719 11.621094l.539063.761719.179687 1.105469c8.683594 38.90625 6.652344 83.277344-5.570313 121.804687-.011718.0625-.027343.121094-.042968.183594l-.773438 3.015625zm0 0" fill="#5b5d6d"/><g fill="#3a6082"><path d="m282.230469 504.296875c-12.0625-48.5-4.8125-101.402344 19.898437-145.136719l2.757813-4.875 3.71875 4.191406c16.160156 18.214844 28.027343 41.332032 34.320312 66.855469 5.734375 23.28125 6.957031 48.464844 3.636719 74.847657l-.402344 3.179687-3.1875.300781c-18.601562 1.769532-37.6875 3-56.722656 3.667969l-3.238281.113281zm0 0"/><path d="m216.441406 507.257812c-4-.152343-8.296875-.324218-12.628906-.554687l-4.03125-.210937.25-4.03125c.539062-8.683594 1.054688-17.433594 1.554688-26.011719l.304687-5.164063c3.402344-58.582031 6.921875-119.160156 17.75-178.394531l.785156-4.308594-.597656-.136719.492187-3.605468c.113282-.851563.210938-1.722656.296876-2.75.578124-7.132813-.125-14.230469-.890626-20.234375l-.542968-4.242188 4.269531-.257812c1.285156-.074219 2.625-.113281 3.988281-.113281 14.039063 0 33.507813 4.28125 45.355469 13.847656 5.152344 4.160156 8.894531 8.632812 11.125 13.292968 2.703125 5.648438 3.242187 11.839844 1.476563 16.984376-2.914063 8.558593-11.261719 13.617187-18.625 18.078124-7.5 4.550782-15.691407 10.117188-17.984376 18.660157-1.46875 5.46875-.292968 10.929687.949219 16.714843l.023438.105469c1.101562 5.144531 2.242187 10.460938 1.226562 15.597657-1.132812 5.730468-4.761719 10.53125-8.273437 15.167968-1.164063 1.53125-2.386719 3.152344-3.507813 4.792969-9.351562 13.734375-11.765625 30.605469-14.101562 46.917969-.210938 1.507812-.421875 2.996094-.644531 4.480468-2.953126 20.070313-4.269532 40.519532-3.910157 60.769532.015625.109375.023438.207031.03125.308594l.335938 4.464843zm8.335938-217.460937c3.226562 1.015625 6.703125 1.511719 10.625 1.511719 3.925781 0 8.296875-.527344 12.984375-1.5625 3.28125-.730469 7.769531-2.128906 9.019531-5.890625.613281-1.832031.304688-4.074219-.84375-6.152344-1.035156-1.882813-2.554688-3.421875-4.023438-4.910156 1.453126 1.5625 2.953126 3.085937 3.972657 4.945312 1.144531 2.058594 1.449219 4.300781.824219 6.128907-1.253907 3.71875-5.714844 5.101562-8.960938 5.820312-4.765625 1.050781-9.003906 1.5625-12.957031 1.5625-4.339844 0-8.332031-.648438-11.863281-1.9375l-1.125-.257812zm0 0"/><path d="m248.496094 347.800781c-.511719-3.816406-.398438-6.890625.355468-9.683593 2.296876-8.53125 10.128907-13.871094 17.949219-18.609376l.3125-.191406 5.28125 5.789063c-5.714843 7.847656-11.285156 16.027343-16.558593 24.308593l-5.882813 9.246094zm0 0"/><path d="m246.09375 507.910156c-7.199219-.050781-14.488281-.183594-21.667969-.390625l-4.695312-.136719.882812-4.613281c-.363281-20.222656.953125-40.71875 3.910157-60.890625.132812-.882812.652343-4.46875.652343-4.46875 1.792969-12.558594 3.652344-25.558594 8.804688-37.261718l7.628906 2.121093c-4.292969 33.253907-1.328125 68.933594 8.339844 100.46875l1.597656 5.207031zm0 0"/><path d="m134.164062 503.492188c-1.53125-20.320313-3.714843-40.71875-6.484374-60.632813-.363282-2.632813-.695313-5.265625-1.019532-7.914063-1.984375-15.730468-4.027344-31.949218-13.292968-45.554687-1.09375-1.609375-2.296876-3.199219-3.460938-4.738281l-.082031-.105469c-3.492188-4.628906-7.101563-9.414063-8.226563-15.109375-1.078125-5.453125.550782-12.167969 2.277344-19.28125 3.5625-14.617188 5.296875-25.472656-4.910156-32.042969-3.605469-2.316406-8.003906-2.589843-12.257813-2.851562-2.835937-.171875-5.503906-.332031-8.097656-1.011719-1.09375-.292969-2.160156-.683594-3.195313-1.167969l-1.011718-.472656-.574219-.863281-1.078125-.113282-.894531-.667968c-3.925781-2.9375-6.664063-7.082032-7.710938-11.664063-2.097656-9.21875 3.308594-19.351562 15.636719-29.3125 3.121094-2.511719 6.492188-4.726562 10.03125-6.585937.171875-.097656.410156-.21875.667969-.324219l3.417969-1.417969 4.203124 8.25-2.5 2.039063c-.070312.058593-.132812.105469-.1875.15625-1.429687 1.453125-2.949218 2.988281-4 4.890625-1.144531 2.082031-1.453124 4.328125-.839843 6.152344 1.257812 3.761718 5.738281 5.160156 9 5.882812 4.703125 1.042969 9.074219 1.570312 13.007812 1.570312 3.316407 0 6.441407-.378906 9.28125-1.128906l4.171875-1.097656.78125 4.242188c12.746094 69.15625 21.519532 139.753906 26.089844 209.832031l.261719 4.042969-4.042969.210937c-3.789062.203125-7.59375.359375-10.816406.484375l-3.855469.152344zm0 0"/><path d="m102.996094 502.738281c9.710937-31.652343 12.652344-67.457031 8.289062-100.820312l7.65625-2.070313c4.617188 10.980469 6.09375 22.707032 7.660156 35.121094l.027344.226562c.316406 2.554688.636719 5.121094.992188 7.65625 2.757812 19.921876 4.929687 40.214844 6.457031 60.324219l.320313 4.171875-4.183594.128906c-7.59375.238282-15.457032.382813-23.367188.433594l-5.449218.035156zm0 0"/><path d="m112.535156 290.535156c-3.949218 0-8.179687-.507812-12.933594-1.558594-3.25-.71875-7.710937-2.105468-8.96875-5.839843-.609374-1.84375-.292968-4.070313.855469-6.132813 1.011719-1.855468 2.535157-3.398437 4.003907-4.890625l-3.804688 2.855469-5.042969-9.921875 3.527344-1.828125c8.957031-4.640625 18.992187-7.089844 29.019531-7.089844 1.386719 0 2.792969.046875 4.171875.140625l4.195313.285157-.492188 4.175781c-.851562 7.1875-1.644531 15.53125-.355468 23.578125l.53125 3.304687-3.160157 1.105469c-3.453125 1.203125-7.339843 1.816406-11.546875 1.816406zm0 0"/><path d="m97.046875 349.308594c-6.113281-9.601563-12.636719-19.058594-19.382813-28.109375l-5.75-7.71875 9.527344 1.371093c1.777344.253907 3.566406.375 5.25.476563 4.257813.261719 8.648438.53125 12.242188 2.835937 10.800781 6.972657 7.796875 19.695313 5.382812 29.917969l-2.179687 9.214844zm0 0"/><path d="m66.695312 507.328125c-19.035156-.664063-38.117187-1.898437-56.71875-3.664063l-3.191406-.304687-.402344-3.179687c-3.320312-26.382813-2.097656-51.566407 3.636719-74.847657 6.292969-25.519531 18.160157-48.640625 34.320313-66.855469l3.722656-4.191406 2.753906 4.878906c24.707032 43.730469 31.960938 96.628907 19.898438 145.132813l-.78125 3.144531zm0 0"/></g><path d="m246.003906 207.097656c1.078125-4.945312 1.960938-10.050781 2.84375-15.285156l.136719-.773438.125-1.6875 1.097656-1.0625c3.394531-3.273437 6.90625-6.855468 9.578125-10.859374l2.464844-3.6875 3.414062 2.828124c3.96875 3.289063 6.425782 8.347657 6.578126 13.535157.199218 6.191406-2.84375 12.582031-7.9375 16.667969-3.867188 3.109374-8.917969 4.945312-14.21875 5.175781l-5.1875.222656zm0 0" fill="#ffdac4"/><path d="m129.945312 257.65625c-10.328124-6.078125-18.855468-14.785156-24.664062-25.175781-5.707031-10.207031-8.648438-21.867188-8.507812-33.707031l.070312-5.917969 5.464844 2.269531c.75.3125 1.433594.570312 2.09375.792969-1.273438-10.429688-1.386719-20.378907-1.507813-30.910157l-.007812-.578124c-.027344-2.152344-.058594-4.300782-.09375-6.460938l-.019531-.753906c-.191407-9.941406 2.332031-12.667969 8.429687-19.246094l1.941406-2.105469c12.003907-13.125 15.746094-31.875 17.660157-46.746093l.941406-7.316407 5.617187 4.785157c5.867188 4.996093 14.632813 6.769531 18.128907 7.300781 4.425781.667969 8.984374 1.011719 13.542968 1.011719 14.324219 0 28.625-3.300782 41.367188-9.546876l6.464844-3.171874-.726563 7.164062c-.914063 9.054688 2.570313 17.871094 4.730469 22.320312 2.363281 4.871094 5.542968 9.242188 8.613281 13.46875l.140625.191407c2.195312 3.027343 4.273438 5.882812 6.140625 8.980469 4.726563 7.835937 4.71875 18.507812 4.085937 27.914062-.125 1.855469-.28125 3.714844-.4375 5.578125l-.015624.179687c-.714844 8.703126-1.449219 17.664063.710937 26.160157.425781 1.683593 1.1875 1.773437 1.433594 1.800781 0 0 .066406.003906.121093.003906.109376 0 .210938-.019531.335938-.066406l6.542969-2.351562-1.257813 6.839843c-1.863281 10.144531-4 18.84375-8.371094 28.332031-3.011718 6.550782-9.863281 18.613282-21.90625 25.738282l-6.855468 4.058594.84375-7.925782c.3125-2.941406.511718-6.265625.617187-10.457031.238281-9.25.097657-19.875-4.605469-28.875-3.90625-7.484375-11.757812-12.835937-22.097656-15.074219-3.5-.753906-7.21875-1.136718-11.050781-1.136718-5.859375 0-11.574219.898437-16.519531 2.589843-9.605469 3.300781-17.136719 9.964844-20.652344 18.277344-3.402344 8.035156-2.917969 17.371094-2.128906 26.246094.332031 3.664062.710937 7.570312 1.359375 11.410156l1.425781 8.46875zm0 0" fill="#ffdac4"/><path d="m177.03125 318.535156c-.707031 0-1.382812-.007812-2.019531-.027344-9.941407-.265624-18.6875-2.144531-25.984375-5.589843-8.640625-4.082031-15.40625-10.503907-19.050782-18.085938-4.753906-9.878906-4.269531-21.421875-3.039062-32.425781l.652344-5.832031 5.191406 2.738281c.652344.347656 1.316406.683594 1.992188 1.011719.027343.003906 2.578124.296875 2.578124.296875l.828126 2.375c.050781.144531.230468.699218.230468.699218 1.878906 5.421876 5.601563 12.847657 12.675782 17.453126 4.9375 3.226562 11.285156 4.863281 18.867187 4.863281 2.359375 0 4.875-.164063 7.472656-.480469 9.511719-1.164062 16.621094-3.871094 21.734375-8.28125 4.652344-4.007812 8.148438-9.933594 10.113282-17.140625l.460937-2.015625 1.945313-.921875c.660156-.273437 1.308593-.5625 1.953124-.867187l4.949219-2.371094.742188 5.4375c1.15625 8.484375 1.808593 15.597656 1.222656 22.726562-.558594 6.945313-2.675781 16.804688-9.574219 24.300782-9.222656 10.03125-23.546875 12.136718-33.941406 12.136718zm0 0" fill="#ffdac4"/><path d="m171.640625 264.472656c-4.449219 0-8.726563-1.050781-12.367187-3.042968-10.632813-5.8125-15.96875-19.621094-11.886719-30.78125.773437-2.132813 1.707031-3.5 2.933593-4.304688 1.40625-.953125 3.230469-1.097656 4.992188-1.238281.496094-.039063.945312-.078125 1.398438-.125 4.9375-.527344 8.28125-2.796875 12.074218-6.285157l2.746094-2.523437 2.710938 2.5625c2.800781 2.652344 5.625 4.265625 8.875 5.074219 1.09375.269531 2.324218.402344 3.757812.402344h.003906c1.085938 0 2.132813-.070313 3.144532-.140626 1.152343-.082031 2.074218-.148437 2.855468-.148437 5.671875 0 6.085938 4.386719 6.304688 6.746094 1.003906 10.871093-1.226563 18.851562-7.003906 25.105469-5.042969 5.449218-12.722657 8.699218-20.539063 8.699218zm0 0" fill="#ffdac4"/><path d="m89.386719 212.554688c-4.585938 0-9.089844-1.816407-12.359375-4.980469-4.441406-4.304688-6.664063-11.03125-5.800782-17.550781.628907-4.714844 2.253907-8.628907 4.960938-11.964844l3.601562-4.4375 2.9375 4.90625c.210938.355468.433594.722656.667969 1.078125 3.027344 4.667969 6.957031 8.613281 11.679688 11.726562l1.953125 1.285157-.164063 2.332031c-.285156 4.089843-.1875 8.308593.304688 12.53125l.367187 3.195312-3.039062 1.046875c-1.605469.550782-3.324219.832032-5.109375.832032zm0 0" fill="#ffdac4"/><path d="m189.730469 220.011719c-1.933594.136719-3.929688.277343-5.628907-.144531-3.855468-.960938-6.566406-3.320313-9.453124-6.574219-.722657-.8125-1.742188-1.300781-2.828126-1.347657-1.085937-.054687-2.148437.339844-2.941406 1.082032l-1.160156 1.09375c-3.867188 3.664062-6.664062 6.3125-11.453125 6.824218-.398437.042969-.800781.070313-1.207031.101563-2.097656.160156-4.707032.359375-7.070313 1.960937-2.550781 1.730469-3.746093 4.394532-4.421875 6.242188-4.742187 12.976562 1.429688 29.011719 13.757813 35.75 4.402343 2.402344 9.363281 3.5625 14.351562 3.5625 8.679688 0 17.441407-3.503906 23.480469-10.027344 6.53125-7.054687 9.175781-16.292968 8.074219-28.230468-1.027344-11.179688-9.140625-10.601563-13.5-10.292969zm-.492188 33.046875c-6.960937 7.519531-19.28125 9.65625-28.046875 4.863281-8.820312-4.820313-13.421875-16.679687-10.050781-25.902344.5625-1.542969 1.054687-2.121093 1.367187-2.332031.59375-.402344 1.902344-.503906 3.164063-.597656.488281-.039063.972656-.078125 1.449219-.125 6.464844-.691406 10.621094-3.878906 14.367187-7.324219 2.78125 2.628906 6.121094 4.921875 10.664063 6.050781 2.945312.734375 5.828125.527344 8.148437.363282 4.597657-.324219 4.597657-.324219 4.902344 2.988281.886719 9.664062-1.007813 16.660156-5.964844 22.015625zm0 0"/><path d="m346.867188 424.363281c-6.675782-27.125-19.449219-51.5-36.9375-70.507812 1.714843-2.804688 3.546874-6.199219 3.28125-10.195313-.285157-4.351562-2.910157-7.660156-5.34375-10.421875-7.121094-8.070312-14.96875-15.570312-23.351563-22.34375 2.007813-2.386719 3.664063-5.09375 4.730469-8.222656 2.101562-6.152344 1.496094-13.457031-1.660156-20.039063-2.53125-5.292968-6.535157-10.101562-12.238282-14.707031-12.902344-10.425781-33.925781-15.078125-49.621094-14.726562 6.804688-5.710938 12.589844-13.464844 16.886719-22.8125 2.257813-4.910157 3.941407-9.640625 5.289063-14.359375.351562.011718.703125.027344 1.050781.027344 6.589844 0 12.984375-2.160157 17.90625-6.117188 6.050781-4.867188 9.675781-12.515625 9.449219-19.960938-.21875-7.085937-3.847656-13.71875-9.449219-17.597656 1.429687-3.976562 2.015625-8.371094 1.300781-13.316406-.210937-1.449219-.476562-2.886719-.734375-4.277344-.773437-4.164062-1.503906-8.097656-.621093-11.597656.921874-3.65625 3.601562-6.851562 6.441406-10.238281 1.269531-1.507813 2.578125-3.070313 3.777344-4.730469 6.96875-9.636719 9.585937-22.316406 7-33.925781-1.828126-8.207031-6.183594-15.753907-12.59375-21.824219-1.015626-.960938-1.933594-1.773438-2.746094-2.492188-3.609375-3.195312-3.679688-3.253906-2.632813-8.070312 3.800781-17.511719-1.039062-33.132812-13.277343-42.867188-11.980469-9.527343-29.796876-11.324218-43.632813-4.742187-11.519531-12.773437-31.359375-17.820313-47.652344-11.714844-1.859375.695313-3.628906 1.507813-5.339843 2.289063-2.238282 1.023437-4.347657 1.988281-6.507813 2.648437-3.949219 1.210938-8.214844 1.457031-12.730469 1.71875-1.976562.117188-4.023437.234375-6.0625.441407-9.527344.964843-17.558594 3.753906-23.871094 8.289062-7.738281 5.5625-12.632812 13.921875-13.085937 22.359375-.03125.554687-.042969 1.113281-.054687 1.675781-.035157 1.5625-.0625 3.039063-.554688 3.824219-.683594 1.097656-2.804688 1.78125-4.855469 2.445313l-.785156.257812c-16.105469 5.316406-28.839844 19.296875-32.445313 35.609375-3.421874 15.5 2.917969 27.457031 9.050782 39.015625 5.234375 9.871094 10.175781 19.191406 9 30.449219-.679688 6.492187.148437 13.050781 2.339844 19.160156-4.714844 4.425781-7.476563 9.910156-8.382813 16.722656-1.035156 7.773438 1.648437 15.820313 6.996094 21 4.101562 3.96875 9.6875 6.132813 15.1875 6.132813 1.765625 0 3.519531-.230469 5.214843-.6875 1.511719 6.472656 3.902344 12.738281 7.136719 18.53125 3.683594 6.59375 8.460938 12.574218 14.03125 17.695312-13.964843.722656-27.589843 5.828125-38.539062 14.667969-13.8125 11.15625-19.542969 22.382813-17.042969 33.371094 1.023438 4.511719 3.472656 8.648437 6.792969 11.878906-7.835938 6.460937-15.191407 13.554687-21.898438 21.160156-2.4375 2.757813-5.058593 6.070313-5.347656 10.421875-.261719 3.992188 1.566406 7.382813 3.285156 10.191406-17.488281 19.007813-30.261719 43.382813-36.941406 70.511719-6.09375 24.742188-7.203125 51.515625-3.296875 79.574219.257812 1.84375 1.746094 3.273438 3.597656 3.457031 31.21875 3.066407 62.742188 4.601563 94.226563 4.601563 17.203125 0 34.398437-.464844 51.515625-1.386719.136718.015625.273437.046875.414062.046875 2.242188.023438 4.535156.03125 6.859375.03125 5.503907 0 11.179688-.050781 16.71875-.101562 7.765625-.070313 15.792969-.144532 23.195313-.070313.074218.007813.148437.027344.222656.03125 17.546875.96875 35.175781 1.449219 52.816406 1.449219 31.480469 0 63.011719-1.539063 94.222656-4.601563 1.851563-.183593 3.339844-1.613281 3.597657-3.457031 3.902343-28.058594 2.792969-54.828125-3.300781-79.574219zm-118.382813 18.097657c.21875-1.480469.429687-2.972657.644531-4.46875 1.769532-12.378907 3.605469-25.082032 8.515625-36.226563-4.347656 33.695313-1.425781 69.851563 8.476563 102.144531-7.199219-.046875-14.390625-.179687-21.578125-.386718.046875-.257813.070312-.527344.066406-.800782-.355469-20.074218.949219-40.351562 3.875-60.261718zm23.976563-95.195313c-.375-2.828125-.433594-5.542969.253906-8.101563 1.90625-7.097656 9.027344-11.914062 16.160156-16.234374.09375-.058594.191406-.117188.285156-.175782-5.820312 7.988282-11.402344 16.1875-16.699218 24.511719zm-115.625-20.757813c-1.082032-6.578124-2.195313-13.152343-3.347657-19.710937 3.800781 3.9375 8.480469 7.277344 13.800781 9.792969 7.792969 3.683594 17.085938 5.695312 27.617188 5.984375.792969.019531 1.578125.03125 2.34375.03125 18.460938 0 29.207031-6.148438 35.253906-11.972657-1.042968 6.609376-2.003906 13.230469-2.894531 19.859376-24.179687 11.472656-51.109375 10.113281-72.265625-3.71875-.164062-.109376-.335938-.183594-.507812-.265626zm-2.429688-62.199218c.078125.230468.140625.464844.222656.699218 2.078125 6.003907 6.242188 14.257813 14.277344 19.496094 5.617188 3.664063 12.675781 5.503906 21.046875 5.503906 2.535156 0 5.191406-.167968 7.964844-.507812 10.308593-1.257812 18.113281-4.273438 23.855469-9.21875 5.261718-4.535156 9.191406-11.148438 11.359374-19.125.027344-.09375.046876-.191406.074219-.289062.726563-.300782 1.445313-.621094 2.160157-.960938.980468 7.261719 1.785156 14.671875 1.199218 21.867188-.515625 6.324218-2.414062 15.261718-8.53125 21.914062-9.148437 9.953125-24.546875 11.054688-32.910156 10.828125-9.40625-.257813-17.613281-2.015625-24.394531-5.21875-7.804688-3.6875-13.894531-9.4375-17.148438-16.195313-4.410156-9.160156-3.769531-20.421874-2.671875-30.25.726563.378907 1.457032.753907 2.195313 1.105469.421875.203125.859375.300781 1.300781.351563zm73.140625-24.308594c-.1875 7.285156-.632813 13.3125-2.191406 19.042969-1.21875 4.472656-3.742188 10.730469-8.847657 15.128906-4.492187 3.871094-10.890624 6.265625-19.566406 7.324219-9.996094 1.222656-17.945312-.039063-23.632812-3.746094-6.121094-3.992188-9.394532-10.566406-11.058594-15.378906-2.238281-6.464844-3-13.433594-3.640625-20.597656-.78125-8.695313-1.226563-17.097657 1.816406-24.304688 3.023438-7.144531 9.839844-13.128906 18.238281-16.011719 21.394532-7.335937 39.726563 2.054688 44.738282 11.65625 4.257812 8.148438 4.371094 18.152344 4.144531 26.886719zm60.699219-49.777344c.152344 4.96875-2.316406 10.117188-6.4375 13.433594-3.261719 2.617188-7.476563 4.105469-11.890625 4.292969 1.089843-4.996094 1.960937-10.082031 2.878906-15.46875l.15625-.921875c.023437-.132813.019531-.257813.027344-.386719 3.65625-3.523437 7.300781-7.285156 10.136719-11.519531 3.023437 2.503906 5.003906 6.46875 5.128906 10.570312zm-196.878906-70.839844c-5.699219-10.746093-11.082032-20.898437-8.296876-33.5 3-13.59375 13.640626-25.25 27.101563-29.695312l.738281-.242188c3.105469-1.003906 6.964844-2.253906 9.207032-5.84375 1.667968-2.667968 1.730468-5.582031 1.78125-7.925781.007812-.476562.019531-.949219.042968-1.414062.324219-6.023438 3.964844-12.09375 9.742188-16.246094 5.148437-3.699219 11.871094-5.992187 19.972656-6.8125 1.867188-.1875 3.738281-.296875 5.71875-.414063 4.796875-.277343 9.75-.566406 14.625-2.058593 2.667969-.820313 5.125-1.941407 7.5-3.027344 1.65625-.757813 3.226562-1.472656 4.816406-2.070313 3.808594-1.425781 7.851563-2.105468 11.902344-2.105468 11.027344 0 22.121094 5.039062 28.679688 13.792968 1.234374 1.652344 3.519531 2.101563 5.292968 1.046876 11.398438-6.800782 27.199219-5.757813 37.5625 2.484374 5.726563 4.550782 14.695313 15.132813 10.414063 34.84375-1.957031 9.015626.425781 11.625 5.171875 15.820313.753906.667969 1.601562 1.417969 2.546875 2.308594 5.238281 4.960937 8.789062 11.089843 10.265625 17.722656 2.089844 9.390625-.027344 19.648437-5.664063 27.445313-1.03125 1.425781-2.191406 2.8125-3.421875 4.277343-3.296875 3.929688-6.707031 7.996094-8.082031 13.441407-1.316406 5.214843-.386719 10.210937.511719 15.046874.253906 1.375.496094 2.671876.679687 3.960938 1.664063 11.453125-6.605469 19.292969-15.363281 27.59375-.511719.480469-1.023438.96875-1.539062 1.460938-1-6.6875-.425782-13.65625.179687-20.964844.160156-1.945313.320313-3.886719.449219-5.824219.707031-10.546875.632812-21.515625-4.65625-30.28125-1.980469-3.28125-4.230469-6.375-6.410156-9.367187-3.128907-4.300782-6.082032-8.363282-8.308594-12.949219-2.890625-5.941407-7.039063-17.398438-2.378906-27.375.753906-1.621094.355468-3.542969-.984376-4.726563-1.339843-1.183594-3.296874-1.34375-4.8125-.394531-17.617187 11.066406-39.578124 15.609375-60.253906 12.472656-4.152344-.632812-17.882812-3.414062-20.171875-12.699219-.46875-1.902343-2.242187-3.203124-4.191406-3.054687-1.957031.132813-3.53125 1.65625-3.734375 3.605469-2.300781 22.144531-5.234375 41.601562-17.859375 55.410156-.667969.734375-1.304687 1.417969-1.902344 2.066406-6.285156 6.78125-9.75 10.515625-9.527343 22.070313l.015624.777343c.042969 2.347657.070313 4.6875.097657 7.019532.09375 7.953125.191406 16.117187.867187 24.335937-5.203125-2.898437-9.660156-7.023437-12.890625-12-4.40625-6.792969-6.375-14.941406-5.535156-22.949219 1.429687-13.703124-4.328125-24.5625-9.898437-35.0625zm8.441406 85.316407c-3.550782-3.4375-5.316406-8.855469-4.613282-14.144531.53125-3.976563 1.859376-7.21875 4.09375-9.976563.246094.40625.492188.808594.75 1.207031 3.328126 5.132813 7.726563 9.515625 12.828126 12.882813-.308594 4.417969-.191407 8.863281.328124 13.269531-4.363281 1.503906-9.84375.191406-13.386718-3.238281zm28.96875 25.832031c-5.371094-9.613281-8.136719-20.6875-8.007813-31.710938.773438.316407 1.554688.617188 2.347657.886719 1.316406.449219 2.773437.1875 3.851562-.691406s1.628906-2.253906 1.449219-3.632813c-1.289063-10.117187-1.40625-19.980468-1.53125-30.417968-.027344-2.351563-.054688-4.707032-.097657-7.070313 0 0 0 0 0-.003906l-.015624-.78125c-.160157-8.304687 1.4375-10.03125 7.375-16.4375.609374-.660156 1.257812-1.355469 1.941406-2.101563 12.488281-13.664062 16.574218-32.574218 18.683594-48.933593 6.414062 5.46875 15.4375 7.488281 20.113281 8.199219 19.34375 2.9375 39.734375-.292969 57.273437-8.894532-.988281 9.78125 2.476563 19.050782 5.113282 24.472656 2.539062 5.226563 5.84375 9.769532 9.042968 14.164063 2.171875 2.988281 4.222656 5.808594 6.023438 8.792969 4.148437 6.875 4.105468 16.785156 3.515625 25.574218-.125 1.894532-.285157 3.796876-.441407 5.699219-.742187 9.003907-1.511718 18.3125.816407 27.472657 1.003906 3.949218 3.726562 4.664062 4.851562 4.789062.199219.023438.390625.03125.578125.03125.625 0 1.1875-.121094 1.695313-.296875-1.773438 9.628906-3.808594 18.105469-8.070313 27.378906-3.019531 6.570313-9.394531 17.503907-20.308594 23.96875.355469-3.378906.53125-6.921875.632813-10.78125.25-9.746093.089844-20.96875-5.058594-30.824219-4.46875-8.558593-13.277343-14.640624-24.804687-17.132812-9.644532-2.078125-20.746094-1.492188-29.699219 1.578125-10.6875 3.667969-19.089844 11.140625-23.046875 20.5-3.765625 8.910156-3.261719 18.800781-2.421875 28.164063.351563 3.953124.75 7.859374 1.390625 11.71875-9.621094-5.675782-17.746094-13.929688-23.191406-23.679688zm-26.480469 42.574219c11.429687-9.230469 26.175781-13.835938 40.792969-12.84375-.898438 7.640625-1.675782 16.257812-.324219 24.671875-5.953125 2.082031-13.246094 2.136718-22.300781.132812-4.433594-.980468-5.730469-2.285156-6.039063-3.207031-.246093-.734375-.03125-1.847656.554688-2.914063.761719-1.386718 2.027343-2.667968 3.363281-4.023437 1.566406-1.585937 1.546875-4.140625-.039062-5.703125-1.585938-1.5625-4.136719-1.546875-5.699219.039062-1.589844 1.609376-3.386719 3.433594-4.6875 5.796876-1.6875 3.0625-2.105469 6.472656-1.140625 9.359374 2.125 6.355469 9.519531 7.988282 11.949218 8.527344 5.011719 1.109375 9.613282 1.660156 13.859376 1.660156 3.691406 0 7.109374-.417968 10.292968-1.257812 12.710938 68.96875 21.46875 139.375 26.03125 209.371094-3.582031.179687-7.167968.335937-10.753906.476562-1.53125-20.28125-3.714844-40.75-6.507812-60.882812-.363282-2.605469-.691407-5.222656-1.019532-7.84375-2.03125-16.179688-4.132812-32.90625-13.953125-47.328125-1.160156-1.703125-2.410156-3.355469-3.617187-4.953125-3.386719-4.480469-6.585938-8.710938-7.535156-13.523438-.90625-4.585937.621093-10.886718 2.242187-17.554687 3.003906-12.359375 6.738281-27.742188-6.632813-36.351563-4.480468-2.882812-9.632812-3.199218-14.183593-3.480468-2.625-.160157-5.105469-.3125-7.328125-.898438-.863282-.226562-1.699219-.539062-2.503906-.914062-.042969-.054688-.070313-.117188-.113282-.175782-.695312-.898437-1.699218-1.414062-2.75-1.527344-3.0625-2.285156-5.359375-5.625-6.207031-9.347656-2.191406-9.632812 6.539063-19.078125 14.25-25.304687zm18.121094 74.054687c-6.15625-9.667968-12.699219-19.15625-19.546875-28.351562 1.882812.269531 3.753906.402344 5.582031.511718 3.914063.242188 7.605469.46875 10.316406 2.214844 7.566407 4.871094 6.628907 13.011719 3.648438 25.625zm14.839843 54.242188c4.398438 10.460937 5.855469 22.007812 7.371094 34.066406.332032 2.65625.664063 5.308594 1.03125 7.945312 2.757813 19.863282 4.914063 40.054688 6.429688 60.0625-7.746094.238282-15.503906.386719-23.265625.433594 9.9375-32.410156 12.847656-68.710937 8.433593-102.507812zm-101.351562 24.890625c6.144531-24.957031 17.6875-47.417969 33.421875-65.160157 23.992187 42.453126 31.261719 94.910157 19.507813 142.199219-18.886719-.664062-37.742188-1.875-56.488282-3.652343-3.257812-25.894532-2.0625-50.566407 3.558594-73.386719zm61.167969 77.292969c12.25-51.308594 3.152343-108.246094-24.644531-153.070313-1.363282-2.195313-2.773438-4.46875-2.648438-6.324219.117188-1.820312 1.71875-3.773437 3.34375-5.617187 6.125-6.941407 12.816406-13.4375 19.929688-19.390625 9.585937 12.554687 18.613281 25.710937 26.855468 39.167968-.738281 4.183594-1.03125 8.167969-.300781 11.871094.996094 5.039063 3.5 9.242188 6.304687 13.167969.011719.058594.007813.117187.023438.179687 8.605469 38.359376 6.605469 82.144532-5.488281 120.125-.023438.078126-.027344.15625-.046875.234376-7.777344-.019532-15.554688-.136719-23.328125-.34375zm100.964843-1.058594c-6.34375.054687-12.851562.113281-19.0625.09375-3.59375-55.304688-9.789062-110.871094-18.480468-165.789063 11.609375 6.289063 24.472656 9.464844 37.59375 9.464844 10.785156 0 21.742187-2.152344 32.308594-6.460937-5.476563 43.910156-8.0625 88.097656-10.570313 131.21875-.597656 10.285156-1.214844 20.878906-1.863281 31.382812-6.496094-.03125-13.296875.027344-19.925782.089844zm29.839844-31.007813c3.40625-58.539062 6.9375-119.046875 17.695313-177.90625 3.613281 1.132813 7.535156 1.699219 11.824219 1.699219 4.246093 0 8.847656-.554688 13.855468-1.660156 2.433594-.539063 9.828125-2.171875 11.949219-8.527344.964844-2.882812.550781-6.296875-1.136719-9.359375-1.300781-2.363281-3.101562-4.1875-4.691406-5.796875-1.5625-1.585938-4.113281-1.605469-5.699219-.039062-1.585937 1.5625-1.601562 4.117187-.039062 5.699218 1.339843 1.359375 2.601562 2.640625 3.367187 4.027344.585938 1.0625.796875 2.179688.550782 2.914062-.308594.921876-1.605469 2.226563-6.039063 3.207032-9.273437 2.050781-16.714844 1.960937-22.746094-.273438-.160156-.058594-.320312-.089844-.484375-.125.136719-1.027344.242188-2.011718.316406-2.949218.582032-7.136719-.035156-14.1875-.914062-21.082032 14.46875-.871094 34.976562 3.46875 46.59375 12.851563 4.683594 3.78125 8.058594 7.789062 10.035156 11.914062 2.246094 4.695313 2.722656 9.78125 1.296875 13.957031-2.453125 7.195313-10.136719 11.851563-16.917969 15.964844-8.160156 4.945313-17.089843 11.058594-19.773437 21.039063-1.71875 6.40625-.382813 12.613281.910156 18.621093 1.074219 4.988282 2.085938 9.703126 1.226563 14.058594-.949219 4.8125-4.148438 9.042969-7.535156 13.523438-1.210938 1.597656-2.460938 3.25-3.621094 4.957031-9.875 14.507813-12.359375 31.847656-14.757813 48.617187-.210937 1.488282-.421875 2.96875-.640625 4.4375-2.988281 20.347657-4.320312 41.0625-3.957031 61.578126.003906.136718.03125.261718.046875.394531-4.191406-.15625-8.382812-.332031-12.566406-.542969.644531-10.449219 1.257812-20.980469 1.851562-31.199219zm48.664063 32.410157c-.019531-.078126-.023438-.15625-.050781-.234376-12.027344-37.777343-14.066407-81.296874-5.617188-119.507812 2.722656-3.839844 5.125-7.957031 6.09375-12.871094.84375-4.257812.453125-8.402344-.273438-12.445312.050782-.070313.105469-.136719.152344-.210938 8.289063-13.566406 17.382813-26.828125 27.042969-39.476562 7.113281 5.953125 13.804687 12.449218 19.929687 19.390625 1.625 1.84375 3.226563 3.796875 3.34375 5.617187.125 1.855469-1.285156 4.128906-2.65625 6.335938-27.789062 44.8125-36.886718 101.75-24.636718 153.058594-7.773438.207031-15.550782.324218-23.328125.34375zm88.054687-4.25c-18.746094 1.777343-37.601562 2.988281-56.488281 3.652343-11.753906-47.285156-4.488281-99.738281 19.507813-142.199219 15.734374 17.742188 27.277343 40.203126 33.421874 65.160157 5.621094 22.820312 6.816407 47.492187 3.558594 73.386719zm0 0"/></svg>