<svg height="512pt" viewBox="-64 0 512 512.00012" width="512pt" xmlns="http://www.w3.org/2000/svg"><path d="m302.871094 426.867188c-.039063-4.285157-.101563-8.214844-.1875-12.007813l-.082032-3.726563 76.105469-7.128906.578125 3.71875c1.09375 7.042969.855469 13.628906-.714844 19.570313l-.78125 2.949219-74.878906.621093zm0 0" fill="#fff"/><path d="m87.210938 429.75c-.195313 0-.386719-.015625-.574219-.039062-26.332031-.820313-52.847657-3.667969-78.8125-8.46875l-3.804688-.703126.578125-3.824218c1.371094-9.113282 3.664063-18.214844 6.816406-27.050782l1.15625-3.238281 3.371094.65625c24.285156 4.707031 48.726563 10.035157 72.644532 15.839844l3.128906.757813-.59375 26.070312zm0 0" fill="#fff"/><path d="m216.425781 507.933594c-35.476562 0-71.289062-.679688-106.445312-2.027344-6.25-.234375-13.238281-.890625-17.078125-5.75-2.992188-3.773438-3.136719-8.953125-3.019532-14.375l3.171876-136.945312-.613282 23.574218-.105468 4.558594-4.503907-.699219c-10.835937-1.675781-21.078125-3.464843-30.980469-5.191406l-.113281-.019531c-8.019531-1.398438-17.996093-3.140625-28.109375-4.738282l-6.054687-.957031 3.316406-5.15625c1.367187-2.132812 2.660156-4.050781 3.953125-5.867187 13.75-19.261719 32.25-35.003906 53.503906-45.535156l2.167969-1.074219 1.957031 1.417969c5.558594 4.03125 11.675782 7.117187 18.1875 9.175781h3.445313l.523437 3.414062c1.351563 9.046875 3.96875 17.800781 7.773438 26.019531 3.871094 8.371094 8.882812 15.933594 14.886718 22.488282-.8125-11.019532-1.273437-22.390625-1.316406-33.824219l-.019531-5.566406 5.28125 1.757812c8.765625 2.917969 17.867187 4.765625 27.050781 5.488281l9.890625.777344-7.664062 6.300782c-8.125 6.679687-13.699219 15.890624-15.683594 25.925781-2.199219 11.0625-.128906 22.398437 1.871094 33.363281.726562 4.015625 1.550781 8.5625 2.105469 12.929688.441406 3.566406.742187 7.363281-.054688 11.003906-.871094 3.988281-3.050781 7.238281-5.980469 8.917968 1.925781.71875 3.992188 1.058594 6.152344 1.058594 3.605469 0 7.363281-.941406 10.867187-2.726562 4.539063-2.304688 8.746094-5.902344 13.242188-11.328125 6.667969-8.039063 11.941406-17.722657 15.242188-28.007813l4.046874-12.601562 3.609376 12.730468c1.617187 5.703126 3.890624 10.9375 6.761718 15.550782 9.1875 14.785156 25.503906 24.339844 41.5625 24.339844 1.445313 0 2.90625-.082032 4.339844-.242188-7.660156-6.566406-9.433594-17.054688-9.804688-22.726562-.363281-5.601563.113282-11.042969.625-16.804688l.015626-.175781c.253906-2.832031.492187-5.601563.640624-8.378907.65625-12.707031-1.054687-23.859374-5.085937-33.148437-2.097656-4.847656-4.886719-9.234375-8.285156-13.050781l-5.414063-6.070313 8.113282-.582031c12.472656-.894531 24.820312-3.3125 36.695312-7.191406l5.003906-1.632813.230469 5.261719c.359375 8.117188.230469 16.320312-.386719 24.378906 9.8125-12.601562 14.101563-25.460937 17.285156-37.476562l3.667969-13.867188 9.765625 33.3125c1.371094-9.625 2.402344-19.410156 3.132813-29.09375l.601562-7.945312 6.011719 5.226562c23.480469 20.414063 39.09375 47.136719 50.070312 68.136719l2.605469 4.984375-67.207031 9.96875-.179688-4.449219c-.265624-6.535156-.5625-13.039062-.855468-19.511719l-.175782-3.859374c1.757813 39.835937 3.648438 81.019531.566407 121.503906-.519531 6.902344-1.511719 14.667968-6.765625 19.390625-4.867188 4.375-11.769532 4.871093-19.003906 5.015625-19.5.417968-39.363282.625-59.035157.625zm0 0" fill="#fff"/><path d="m124.121094 359.683594c-15.972656-24.046875-19.933594-55.5-10.339844-82.082032-5.441406 8.789063-12.871094 16.570313-21.546875 22.472657l-10.175781 6.925781 4.160156-11.582031c9.933594-27.667969 10.121094-57.386719 9.394531-77.332031-.421875-11.457032-1.3125-23.082032-2.171875-34.324219l-.019531-.214844c-1.386719-18.023437-2.816406-36.65625-2.359375-55.144531.839844-35.132813 8.984375-63.757813 24.210938-85.085938 7.53125-10.5625 17.414062-19.554687 28.578124-26 10.136719-5.851562 21.121094-9.429687 31.765626-10.351562 3.734374-.316406 7.609374-.742188 11.589843-1.191406l.335938-.035157c6.085937-.664062 12.378906-1.351562 18.429687-1.625.824219-.035156 1.648438-.054687 2.472656-.054687 19.949219 0 40.554688 10.167968 55.117188 27.191406 18.65625 21.796875 26.300781 50.492188 31.324219 75.6875 5.800781 29.121094 8.601562 59.066406 11.308593 88.03125l.167969 1.769531c.710938 7.585938 1.449219 15.429688 2.238281 23.101563 3.316407 32.5625 3.433594 65.613281.34375 98.238281l-7.820312.746094-4.351562-14.820313-.320313 1.09375c-3.175781 13.417969-6.175781 26.066406-12.304687 37.960938l-7.554688-1.847656c.074219-19.875-2.785156-39.648438-8.503906-58.765626l-1.148438 4.746094-7.605468 33.050782-4.808594-11.398438c-7.222656-17.109375-14.253906-37.320312-11.621094-57.484375 1.980469-15.207031 8.929688-28.546875 16.285156-42.664063l.074219-.140624c2.574219-4.945313 5.238281-10.058594 7.609375-15.160157 9.476562-20.480469 11.894531-37.828125 7.191406-51.558593-2.167968-6.335938-7.792968-9.417969-17.195312-9.417969-1.144532 0-2.332032.046875-3.617188.140625l-3.4375.25-.757812-3.359375c-1.4375-6.351563-2.992188-12.585938-4.625-18.519531-2.703125 7.332031-5.183594 14.59375-7.425782 21.582031l-.777343 2.425781-2.53125.320312c-1.367188.171876-2.484375.277344-3.511719.332032-12.296875.652344-24.710938.980468-36.902344.980468-3.335937 0-6.699218-.023437-10.003906-.074218-1.632812-.019532-7.75-.386719-17.585938-.988282l-4.347656-.269531-.585937-3.046875c-2.09375-10.890625-4.609375-21.710937-7.480469-32.164062-3.734375 10.160156-7.214844 20.613281-10.417969 31.0625l-.914062 2.988281-3.121094-.167969c-7.429687-.394531-12.648437-.644531-16.429687-.773437-2.472657-.082031-4.355469-.121094-5.738282-.121094h-.441406c-.511719.007813-1.835938.019531-2.351562.25-.003907.015625-.007813.035156-.011719.054687-4.375 31.621094 8.484375 62.410157 20.925781 92.1875l.5 1.203126c11.738281 28.109374 22.84375 58.011718 18.578125 87.390624l-1.046875 7.191407-5.515625-4.726563c-7.601563-6.511718-12.632813-15.484375-14.167969-25.269531-2.238281 21.867187-2.78125 44.0625-1.683594 65.96875l.726563 14.542969zm0 0" fill="#d34242"/><g fill="#288fc9"><path d="m302.484375 406.808594c-.140625-4.660156-.300781-9.3125-.46875-13.941406l-.128906-3.578126 67.214843-9.976562 1.285157 2.628906c3.195312 6.542969 5.410156 12.046875 6.972656 17.335938l1.378906 4.660156-76.125 7.132812zm0 0"/><path d="m223.753906 334.835938c-2.167968-1.464844-4.457031-2.691407-6.796875-3.640626l-2.882812.234376-1.136719-2.644532c-.464844-1.101562-.960938-2.078125-1.523438-2.992187-2.4375-3.96875-5.878906-6.679688-9.945312-7.835938l-6.222656-1.769531 46.800781-51.246094 1.296875 8.210938c2.667969 16.894531 9.769531 32.863281 16.035156 46.949218 1.535156-6.40625 3.007813-12.816406 4.476563-19.222656l.507812-2.207031 7.8125.070313c1.695313 8.011718 2.910157 16.207031 3.613281 24.363281l.269532 3.117187-2.964844 1.011719c-14.984375 5.113281-30.589844 7.878906-46.375 8.21875l-1.683594.242187zm0 0"/><path d="m244.617188 436.015625c-14.511719-1.59375-28.640626-10.808594-36.871094-24.054687-8.886719-14.292969-11.714844-33.527344-7.761719-52.769532l-.25-3.070312 2.890625-1.003906c4.332031-1.527344 7.742188-4.535157 9.863281-8.695313 1.496094-2.953125 2.238281-6.359375 2.144531-9.84375l-.183593-6.910156 6.082031 3.277343c8.320312 4.484376 15.207031 12.273438 19.390625 21.933594 4.027344 9.289063 5.738281 20.433594 5.085937 33.125-.140624 2.746094-.386718 5.539063-.628906 8.238282l-.011718.140624c-.5 5.609376-1.011719 11.34375-.632813 16.988282.414063 6.351562 2.058594 12.09375 4.753906 16.617187l4.113281 6.902344zm0 0"/><path d="m196.292969 356.148438c-7.925781 0-15.53125-5.375-18.082031-12.777344-2.28125-6.605469-.320313-14.746094 4.777343-19.792969 4.03125-3.988281 9.003907-6.1875 13.996094-6.1875.65625 0 1.316406.039063 1.960937.117187 5.148438.621094 9.441407 3.5 12.414063 8.324219 3.886719 6.324219 4.296875 14.203125 1.070313 20.566407-2.875 5.648437-8.269532 9.183593-14.792969 9.699218-.445313.035156-.894531.050782-1.34375.050782zm0 0"/><path d="m152.402344 432.355469c.628906-1.207031 1.101562-2.53125 1.414062-3.941407.796875-3.640624.496094-7.453124.046875-11.027343-.53125-4.265625-1.324219-8.613281-2.085937-12.820313l-.019532-.101562c-2.089843-11.472656-4.0625-22.3125-1.867187-33.34375 2.519531-12.742188 10.890625-24.136719 22.382813-30.476563l4.214843-2.324219 1.511719 4.574219c.054688.160157.101562.324219.148438.488281 2.195312 6.390626 8.316406 11.445313 15.230468 12.589844l2.925782.484375.386718 2.941407c3 22.902343-3.992187 47.15625-18.707031 64.882812-4.496094 5.421875-8.699219 9.019531-13.226563 11.324219-2.71875 1.375-5.523437 2.238281-8.339843 2.566406l-7.488281.871094zm0 0"/><path d="m172.257812 338.390625c-13.179687-.011719-26.140624-2.285156-38.578124-6.757813l-2.699219-.96875.054687-2.867187c.121094-6.792969.347656-12.917969.695313-18.726563l.738281-12.359374 6.632812 10.457031c3.46875 5.472656 8.171876 10.105469 13.59375 13.390625 3.050782-13.324219 2.875-27.660156-.488281-43.84375l-2.78125-13.382813 9.558594 9.769531c12.054687 12.328126 23.542969 25.429688 34.144531 38.9375l3.5 4.460938-5.375 1.804688c-3 1.003906-5.871094 2.8125-8.300781 5.222656-3.046875 3.015625-5.035156 7.109375-5.601563 11.53125l-.585937 4.558594c0-.003907-4.484375-1.222657-4.507813-1.226563zm0 0"/><path d="m103.410156 317.492188c-5.53125-1.984376-10.75-4.707032-15.515625-8.09375l-5.03125-3.574219 5.320313-3.132813c5.269531-3.101562 10.144531-6.84375 14.492187-11.121094l8.390625-8.265624-1.621094 11.667968c-.839843 6.003906-1.070312 12.234375-.691406 18.515625l.367188 6.054688zm0 0"/><path d="m86.894531 402.449219c-22.871093-5.519531-46.253906-10.617188-69.488281-15.152344l-4.84375-.949219 1.929688-4.539062c2.042968-4.820313 4.332031-9.507813 6.796874-13.929688l1.355469-2.429687 2.75.425781c10.660157 1.648438 20.496094 3.355469 31.328125 5.253906l.917969.160156c9.976563 1.734376 20.296875 3.53125 31.21875 5.203126l3.472656.535156-.613281 26.582031zm0 0"/></g><path d="m296.050781 500.726562c3.960938-4.78125 4.789063-11.707031 5.253907-17.820312 1.109374-14.726562 1.640624-30.433594 1.617187-48.011719l-.003906-3.972656 64.035156-.523437.117187 3.910156c.535157 17.816406.457032 35.777344-.230468 53.386718-.183594 4.796876-.613282 9.769532-3.675782 13.167969-3.492187 3.890625-9.296874 4.507813-14.460937 4.78125-19.398437 1.011719-35.601563 1.542969-49.546875 1.632813l-8.574219.054687zm0 0" fill="#ffdac4"/><path d="m193.640625 257.894531c-.496094 0-.988281-.003906-1.484375-.015625-20.203125-.445312-41.761719-11.613281-54.9375-28.460937-.027344-.019531-1.035156-.722657-1.035156-.722657l-1.34375-3.21875c-11.980469-28.691406-24.371094-58.363281-21.316406-88.796874l.363281-3.632813 3.652343.03125c4.121094.035156 12.347657.398437 24.445313 1.074219 2.179687-7.167969 4.488281-14.390625 6.890625-21.496094l4.433594-13.125 3.242187 13.46875c1.746094 7.253906 3.335938 14.746094 4.726563 22.269531l2.292968.164063c9.976563.617187 17.855469 1.105468 19.714844 1.132812 3.207032.046875 6.480469.070313 9.714844.070313 12.347656 0 24.863281-.332031 37.203125-.984375 1.59375-.085938 3.460937-.296875 6.058594-.683594 1.152343-3.554688 2.40625-7.382812 3.761719-11.398438l4.421874-13.136718 3.257813 13.472656c.714844 2.96875 1.40625 6 2.058594 9.015625 2.699219-.261719 5.015625-.40625 7.132812-.40625 3.441407 0 13.914063 0 17.113281 9.335937 4.703126 13.714844 2.28125 31.046876-7.195312 51.515626-2.316406 4.988281-4.84375 9.875-7.671875 15.292968-3.898437 7.476563-7.925781 15.207032-11.0625 23.226563l-.308594.785156s-.679687.675781-.722656.714844c-13.167969 15.339843-33.128906 24.507812-53.40625 24.507812zm0 0" fill="#ffdac4"/><path d="m192.949219 311.703125c-12.769531-16.238281-26.695313-31.761719-41.386719-46.136719l-2.207031-.558594-.667969-2.175781c-1.539062-5.210937-3.375-10.671875-5.605469-16.691406l-4.976562-13.421875 11.210937 8.898438c12.679688 10.058593 28.289063 16.007812 42.832032 16.324218.496093.007813.988281.019532 1.492187.019532 15.617187 0 31.101563-5.386719 43.597656-15.160157l8.550781-6.691406-2.167968 10.640625c-.328125 1.613281-.585938 3.125-.785156 4.617188-.503907 3.875-.664063 7.976562-.476563 12.175781l.132813 3.015625-2.867188.957031-43.761719 47.894531zm0 0" fill="#ffdac4"/><path d="m42.773438 506.453125c-3.125 0-6.210938-.015625-9.25-.054687-5.628907-.070313-11.925782-.511719-15.402344-4.847657-2.609375-3.257812-2.785156-7.667969-2.738282-12.285156.210938-20.421875 1.089844-41.21875 2.609376-61.8125l.320312-4.324219 4.285156.667969c21.222656 3.300781 42.769532 5.3125 64.046875 5.976563.128907-.007813.253907-.015626.378907-.015626h4.09375l-1.296876 56.023438c-.089843 4.132812-.21875 9.78125 2.640626 13.875l4.351562 6.230469-7.597656.0625c-6.230469.050781-12.5.136719-18.671875.226562l-.457031.007813c-9 .132812-18.304688.269531-27.3125.269531zm0 0" fill="#ffdac4"/><path d="m382.757812 404.054688c.003907-.15625.019532-.304688.003907-.464844-.046875-.515625-.199219-.996094-.421875-1.433594-.085938-.375-.167969-.746094-.265625-1.121094-2.519531-9.992187-7.144531-19.328125-11.285157-27.296875-12.242187-23.574219-29.6875-53.234375-56.351562-74.53125 1.496094-26.585937.910156-53.285156-1.792969-79.773437-.84375-8.253906-1.632812-16.691406-2.398437-24.847656-2.726563-29.097657-5.542969-59.183594-11.375-88.441407-5.128906-25.714843-12.964844-55.039062-32.21875-77.539062-15.878906-18.5625-39.203125-29.496094-60.847656-28.5468752-6.300782.2734372-12.773438.9882812-19.035157 1.6796872-3.792969.417969-7.71875.851563-11.496093 1.171875-11.242188.972656-22.808594 4.734375-33.449219 10.882813-11.667969 6.734375-21.992188 16.128906-29.859375 27.164062-15.699219 21.992188-24.101563 51.382813-24.96875 87.351563-.453125 18.613281.984375 37.390625 2.375 55.550781.863281 11.273437 1.753906 22.929687 2.179687 34.371094 1.328125 36.304687-2.917969 63.648437-13.367187 86.046875-.40625.875-.46875 1.835937-.238282 2.726562-20.328124 10.765625-38.03125 26.230469-51.40625 44.972656-14.324218 20.066407-23.492187 43.613282-26.507812 68.085938-.261719 2.105469 1.15625 4.050781 3.238281 4.453125 3.5625.6875 7.140625 1.332031 10.722657 1.945313-1.550782 20.808593-2.457032 41.90625-2.671876 62.761718-.054687 5.160156.179688 10.5625 3.628907 14.871094 4.960937 6.195312 13.785156 6.308594 18.523437 6.367188 3.117188.039062 6.285156.058593 9.484375.058593 9.128907 0 18.5-.136719 27.644531-.273437 12.292969-.179688 25.003907-.363282 36.90625-.214844.019532.003906.035157.003906.054688.003906.316406 0 .625-.046875.921875-.117187.46875.019531.925781.039062 1.339844.054687 35.394531 1.351563 71.113281 2.027344 106.746093 2.027344 19.710938 0 39.398438-.207031 58.988282-.621094 2.390625-.050781 4.8125-.144531 7.191406-.40625.445312.179688.921875.289063 1.429688.300782 3.414062.058593 6.925781.089843 10.5625.089843 15.332031 0 32.859374-.542969 54.171874-1.664062 4.320313-.226563 12.359376-.652344 17.277344-6.117188 3.957032-4.394531 4.5-10.179687 4.714844-15.730469.6875-17.742187.761719-35.726562.230469-53.492187l6.582031-.054687c1.691406-.011719 3.195312-1.085938 3.765625-2.679688 2.890625-8.132812 3.316406-17.609375 1.273437-27.570312zm-76.746093-11.339844 60.78125-9.015625c2.554687 5.234375 5.011719 10.886719 6.730469 16.707031l-67.046876 6.28125c-.132812-4.667969-.292968-9.328125-.464843-13.972656zm-206.402344-174.78125c-.429687-11.601563-1.328125-23.339844-2.195313-34.691406-1.375-17.960938-2.796874-36.53125-2.355468-54.738282.828125-34.328125 8.722656-62.207031 23.472656-82.863281 7.203125-10.101563 16.652344-18.699219 27.324219-24.863281 9.625-5.5625 20.039062-8.960938 30.105469-9.832032 3.875-.328124 7.851562-.765624 11.695312-1.191406 6.128906-.675781 12.46875-1.378906 18.5-1.640625 19.265625-.847656 40.066406 9.015625 54.371094 25.734375 18.042968 21.089844 25.511718 49.179688 30.433594 73.875 5.75 28.84375 8.550781 58.722656 11.257812 87.613282.765625 8.175781 1.554688 16.628906 2.402344 24.914062 3.304687 32.367188 3.414062 65.058594.34375 97.453125l-4.351563-14.828125c-.515625-1.757812-2.152343-2.945312-3.972656-2.898438-1.832031.046876-3.398437 1.324219-3.820313 3.101563l-.257812 1.097656c-3.1875 13.464844-6.058594 25.585938-11.964844 37.046875.078125-20.277344-2.824218-40.371094-8.671875-59.921875-.523437-1.753906-2.203125-2.945312-3.992187-2.875-1.828125.058594-3.390625 1.34375-3.800782 3.125l-1.089843 4.746094c-1.609375 6.996094-3.214844 13.992187-4.828125 20.992187-7.179688-17.007812-13.808594-36.46875-11.339844-55.414062 1.890625-14.507812 8.683594-27.539062 15.871094-41.335938 2.621094-5.03125 5.332031-10.230468 7.753906-15.464843 9.933594-21.449219 12.410156-39.800781 7.351562-54.535157-4.128906-12.070312-17.101562-12.542968-24.886718-11.972656-1.40625-6.238281-2.972656-12.511718-4.667969-18.699218-.464844-1.695313-1.972656-2.894532-3.730469-2.964844-1.734375-.066406-3.355468 1.007812-3.953125 2.660156-2.660156 7.386719-5.148437 14.683594-7.410156 21.730469-1.269531.15625-2.3125.253906-3.226563.304687-15.507812.820313-31.199218 1.125-46.632812.902344-1.707031-.027344-9.484375-.5-18.652344-1.066406-2.09375-10.914063-4.632812-21.824219-7.550781-32.46875-.464844-1.695313-1.976563-2.894532-3.730469-2.964844-1.785156-.074219-3.355468 1.011719-3.953125 2.664062-3.738281 10.375-7.234375 20.875-10.410156 31.257813-7.113281-.386719-12.53125-.644531-16.503906-.78125-2.789063-.097656-4.863281-.136719-6.351563-.125-2.007812.023437-5.75.058594-6.289062 3.722656-4.527344 32.710938 8.546875 64.023438 21.1875 94.308594l.5 1.195313c11.582031 27.738281 22.417968 57.054687 18.3125 85.285156-6.769532-5.804688-11.433594-14.003906-12.820313-22.851563-.316406-2.003906-2.101562-3.449219-4.097656-3.40625-2.027344.054688-3.699219 1.613281-3.898437 3.628907-2.195313 22.078124-2.742188 44.410156-1.636719 66.570312-15.089844-22.71875-19.179688-52.820312-9.910157-78.515625.703126-1.945313-.183593-4.109375-2.050781-5.003906-.558593-.269531-1.152343-.394531-1.738281-.394531-1.367188 0-2.691406.695312-3.445312 1.933593-5.125 8.40625-12.152344 15.722657-20.324219 21.273438 10.078125-28.058594 10.394531-57.894531 9.628906-78.828125zm140.128906 195.703125c.460938 7.0625 2.300781 13.347656 5.316407 18.40625-13.207032-1.453125-26.160157-9.722657-33.914063-22.195313-8.347656-13.429687-10.988281-31.597656-7.242187-49.847656.078124-.378906.082031-.75.054687-1.117188 5.246094-1.847656 9.503906-5.539062 12.09375-10.644531 1.855469-3.644531 2.699219-7.703125 2.582031-11.769531 7.46875 4.015625 13.78125 11.136719 17.625 20.003906 3.777344 8.710938 5.378906 19.253906 4.757813 31.328125-.140625 2.71875-.390625 5.519531-.632813 8.226563-.507812 5.722656-1.03125 11.636718-.640625 17.609375zm-64.835937 8.09375c-4.132813 4.980469-7.933594 8.253906-11.957032 10.304687-2.296874 1.167969-4.675781 1.894532-6.988281 2.164063.78125-1.503907 1.375-3.164063 1.765625-4.925781.929688-4.25.601563-8.464844.109375-12.386719-.554687-4.410157-1.359375-8.84375-2.140625-13.132813-2.011718-11.101562-3.917968-21.582031-1.882812-31.855468 2.3125-11.671876 10.003906-22.019532 20.394531-27.746094.058594.179687.101563.367187.164063.546875 2.742187 7.945312 10.144531 13.859375 18.351562 15.21875 2.863281 21.828125-3.757812 44.867187-17.816406 61.8125zm69.453125-191.304688c-.070313.074219-.152344.128907-.214844.207031-12.796875 14.988282-32.214844 23.679688-51.902344 23.246094-19.074219-.421875-39.445312-11.003906-51.902343-26.96875-.265626-.335937-.582032-.605468-.917969-.835937-.128907-.308594-.257813-.625-.386719-.933594l-.5-1.199219c-11.796875-28.257812-23.980469-57.453125-21.027344-86.867187 3.359375.035156 10.332032.296875 24.257813 1.074219 1.851562.109374 3.546875-1.078126 4.085937-2.863282 2.125-7.074218 4.40625-14.214844 6.816406-21.34375 1.753907 7.304688 3.320313 14.683594 4.675782 22.058594.335937 1.820312 1.871094 3.179688 3.71875 3.292969l2.113281.128906c10.503906.648437 18.09375 1.113281 20.054687 1.140625 15.617188.230469 31.492188-.078125 47.183594-.914062 1.703125-.089844 3.695313-.3125 6.445313-.714844 1.53125-.222656 2.796875-1.300782 3.261719-2.777344 1.171874-3.699219 2.40625-7.476562 3.703124-11.308594.714844 2.980469 1.394532 5.960938 2.039063 8.925782.429687 2 2.367187 3.378906 4.390625 3.152343 12.050781-1.324219 18.027344.539063 19.972656 6.226563 4.359375 12.703125 1.992188 29.035156-7.042968 48.535156-2.339844 5.0625-5.007813 10.179688-7.585938 15.125-3.992188 7.660156-8.054688 15.464844-11.238281 23.613281zm-52.292969 31.515625c.527344.011719 1.054688.015625 1.582031.015625 16.65625 0 33.011719-5.800781 46.054688-16.003906-.324219 1.609375-.605469 3.234375-.820313 4.882813-.5625 4.308593-.703125 8.613281-.515625 12.882812-.632812.210938-1.226562.5625-1.707031 1.089844l-40.5625 44.421875c-12.851562-16.339844-26.875-31.988281-41.734375-46.515625-.53125-.519532-1.167969-.847656-1.839844-1.015625-1.679687-5.683594-3.609375-11.339844-5.6875-16.945313 13.125 10.410156 29.550781 16.839844 45.230469 17.1875zm5.265625 90.167969c-6.472656.511719-13.21875-3.890625-15.335937-10.039063-1.796876-5.210937-.226563-11.648437 3.816406-15.65625 3.691406-3.660156 8.316406-5.453124 12.664062-4.933593 3.894532.464843 7.175782 2.695312 9.480469 6.445312 3.164063 5.144531 3.511719 11.53125.90625 16.664063-2.253906 4.433594-6.347656 7.105468-11.53125 7.519531zm-43.042969-27.871094c1.191406-.507812 2.066406-1.558593 2.355469-2.824219 3.417969-15.144531 2.621094-30.402343-.523437-45.519531 11.964843 12.238281 23.320312 25.179688 33.863281 38.609375-3.550781 1.199219-6.929688 3.285156-9.851563 6.179688-3.765625 3.734375-6.089844 8.710937-6.742187 13.863281-.339844-.089844-.6875-.15625-1.054688-.15625-.019531 0-.03125 0-.050781 0-12.753906 0-25.269531-2.210937-37.246094-6.523437.101563-6.191407.320313-12.378907.683594-18.558594 3.761719 5.929687 8.859375 11.007812 14.898438 14.664062 1.113281.675782 2.476562.773438 3.667968.265625zm72.128906 7.226563c-.144531 0-.285156.03125-.425781.050781-2.390625-1.613281-4.910156-2.96875-7.527343-4.023437-.605469-.242188-1.230469-.3125-1.839844-.261719-.507813-1.210938-1.101563-2.394531-1.800782-3.53125-2.984374-4.851563-7.261718-8.171875-12.261718-9.59375l36.832031-40.328125c2.738281 17.339844 10.0625 33.847656 16.328125 47.949218.703125 1.589844 2.363281 2.546876 4.070312 2.378907 1.726563-.164063 3.152344-1.417969 3.542969-3.105469 1.648438-7.144531 3.289063-14.285156 4.933594-21.429688 1.664063 7.898438 2.84375 15.863282 3.53125 23.882813-14.640625 5-29.898437 7.699219-45.382813 8.011719zm-121.644531-17.734375c-5.191406-1.855469-10.070312-4.398438-14.550781-7.597657 5.53125-3.25 10.679688-7.195312 15.261719-11.707031-.886719 6.378907-1.113281 12.859375-.710938 19.304688zm-16.933593 84.828125c-23.007813-5.554688-46.414063-10.65625-69.667969-15.1875 1.964843-4.625 4.167969-9.148438 6.617187-13.542969 10.921875 1.691406 21.253906 3.492187 31.25 5.238281 10.28125 1.792969 20.914063 3.648438 32.21875 5.386719zm-72.648438-7.554688c24.183594 4.691406 48.546875 10.003906 72.457031 15.800782l-.4375 18.949218c-.09375-.011718-.183593-.035156-.277343-.039062-26.222657-.808594-52.570313-3.636719-78.382813-8.410156 1.355469-8.96875 3.597656-17.78125 6.640625-26.300782zm55.292969 111.179688c-12.289063.179687-25.003907.363281-36.90625.210937-4.71875-.058593-9.949219-.371093-12.328125-3.34375-1.789063-2.234375-1.902344-5.882812-1.859375-9.746093.210937-20.453126 1.089843-41.136719 2.597656-61.550782 21.410156 3.324219 43.09375 5.355469 64.695313 6.023438h.125c.074218 0 .144531-.015625.21875-.019532l-1.199219 51.925782c-.101563 4.460937-.246094 11.097656 3.359375 16.265625-6.242188.050781-12.523438.144531-18.703125.234375zm204.90625 1.128906c-54.835938 1.164062-110.4375.691406-165.253907-1.398438-5.359374-.207031-11.308593-.71875-14.09375-4.238281-2.175781-2.75-2.261718-7.152343-2.152343-11.804687l3.160156-136.9375c.054687-2.226563-1.710937-4.074219-3.9375-4.125-.03125 0-.0625 0-.09375 0-2.183594 0-3.980469 1.746094-4.03125 3.9375l-.542969 23.574218c-10.839844-1.679687-21.09375-3.46875-31.023437-5.203124-9.042969-1.574219-18.355469-3.203126-28.160157-4.753907 1.238282-1.929687 2.511719-3.835937 3.84375-5.703125 13.390626-18.761718 31.367188-34.046875 52.019532-44.265625 5.886718 4.261719 12.375 7.542969 19.328125 9.746094.40625.128906.816406.191406 1.21875.191406h.007812c2.800781 18.730469 10.902344 36.695313 23.667969 50.621094.78125.851563 1.867188 1.308594 2.972656 1.304687.542969 0 1.089844-.109374 1.609375-.332031 1.578125-.691406 2.546875-2.300781 2.410157-4.019531-.886719-11.117188-1.328126-22.300781-1.359376-33.496094 9.09375 3.03125 18.464844 4.925782 27.996094 5.675782-8.65625 7.125-14.882812 17.1875-17.074218 28.246093-2.332032 11.773438-.203126 23.507813 1.859374 34.859375.761719 4.183594 1.546876 8.511719 2.070313 12.703125.40625 3.203125.6875 6.59375.015625 9.652344-.621094 2.839844-2.140625 5.195313-4.0625 6.304687-1.367188.789063-2.148438 2.300782-2 3.871094.148438 1.566406 1.195312 2.90625 2.683594 3.429688 2.347656.820312 4.867187 1.226562 7.457031 1.226562 4.195313 0 8.574219-1.070312 12.679687-3.160156 5.039063-2.5625 9.648438-6.484375 14.507813-12.339844 7.144531-8.613281 12.539063-18.65625 15.972656-29.339844 1.6875 5.957032 4.089844 11.546876 7.207031 16.5625 10.023438 16.125 27.625 26.234376 44.960938 26.230469 1.601562 0 3.203125-.085937 4.792969-.261719 1.601562-.175781 2.945312-1.289062 3.414062-2.832031.46875-1.539062-.023437-3.210937-1.253906-4.253906-6.554687-5.546875-8.089844-14.835937-8.417969-19.875-.351562-5.355469.125-10.703125.628906-16.367187.246094-2.78125.503907-5.660157.652344-8.527344.683594-13.328125-1.136718-25.089844-5.414062-34.949219-2.289063-5.285156-5.34375-10.058594-8.964844-14.121094 12.808594-.914062 25.425781-3.382812 37.648438-7.371093.347656 7.933593.222656 15.902343-.386719 23.890624-.136719 1.777344.910156 3.429688 2.574219 4.070313 1.660156.640625 3.546874.113281 4.636718-1.296875 9.679688-12.519531 14.28125-25.132812 17.933594-38.917969l5.730469 19.546875c.539062 1.828125 2.273437 3.023438 4.175781 2.886719 1.898438-.144531 3.4375-1.59375 3.691406-3.480469 1.320313-9.742187 2.347656-19.523437 3.09375-29.324218 22.589844 19.636718 38.019532 45.675781 49.148438 66.96875l-57.242188 8.488281c-.320312-7.835938-.675781-15.636719-1.03125-23.386719-.101562-2.222656-1.980468-3.949219-4.210937-3.84375-2.226563.101562-3.949219 1.988281-3.84375 4.214844 1.8125 39.714844 3.691406 80.785156.640625 121.003906-.464844 6.140625-1.308594 13.003906-5.457032 16.726562-3.835937 3.449219-9.945312 3.855469-16.402343 3.992188zm87.460937-15.773438c-.164062 4.242188-.492187 8.25-2.652344 10.648438-2.472656 2.75-7.339843 3.226562-11.707031 3.457031-19.164062 1.007813-35.21875 1.542969-49.359375 1.636719 4.664063-5.628906 5.640625-13.242188 6.160156-20.074219 1.21875-16.050781 1.652344-32.195312 1.632813-48.316406l56.148437-.460937c.53125 17.632812.460938 35.492187-.222656 53.109374zm11.859375-61.273437-67.832031.5625c-.042969-4.023437-.105469-8.046875-.191406-12.0625l68.648437-6.429687c1 6.4375.804688 12.523437-.625 17.929687zm0 0"/></svg>