<svg height="511pt" viewBox="-94 0 511 511.99835" width="511pt" xmlns="http://www.w3.org/2000/svg"><path d="m290.371094 507.9375c-11.804688-.019531-23.632813-.039062-35.46875-.066406l-3.859375-.007813-.128907-3.859375c-1.222656-36.9375-.773437-74.277344 1.335938-110.980468-2.175781 36.6875-2.625 73.933593-1.398438 110.695312l.140626 4.144531-4.144532-.011719c-56.144531-.140624-112.816406-.410156-168.449218-.808593l-3.664063-.027344-9.476563-117.359375 9.414063 117.355469-4.363281-.027344c-13.394532-.089844-26.765625-.199219-40.105469-.3125-5.628906-.046875-11.433594-.414063-15.074219-4.242187-2.765625-2.90625-3.515625-6.988282-4.097656-11.269532-4.410156-32.53125-3.941406-65.472656 1.398438-97.90625 5.234374-31.785156 15.0625-52.644531 30.929687-65.644531 9.050781-7.425781 20.027344-12.078125 30.644531-16.578125.925782-.402344 1.875-.804688 2.820313-1.207031l.910156-.390625c8.277344-3.558594 17.792969-7.894532 25.839844-14.257813l7.679687-6.074219-1.230468 9.710938c-2.085938 16.492188.394531 33.175781 7.179687 48.25 3.976563 8.832031 8.742187 14.117188 14.570313 16.15625 1.765624.621094 3.617187.933594 5.511718.933594 3.773438 0 7.738282-1.234375 11.476563-3.578125l6.769531-4.246094-.660156 7.964844c-1.273438 15.394531-1.429688 27.605469-.476563 37.320312.398438 4.082031.933594 8.027344 3.027344 11.433594 1.9375 3.15625 5.265625 5.195313 8.472656 5.195313.515625 0 1.035157-.058594 1.539063-.171876 2.800781-.632812 5.253906-2.96875 6.566406-6.25 1.171875-2.933593 1.359375-6.121093 1.539062-9.207031l2.480469-42.996093 5.050781 1.835937c2.023438.734375 4.183594 1.105469 6.421876 1.105469 7.292968 0 15.503906-4.167969 20.429687-10.375 7.203125-9.09375 9-21.390625 9.726563-29.84375.242187-2.828125.40625-5.714844.5625-8.511719l.03125-.515625c.332031-5.945312.675781-12.101562 1.734374-18.035156l1.125-6.300782 5.171876 3.773438c6.925781 5.058594 14.609374 9.210938 22.042968 13.226562 7.925782 4.285157 16.113282 8.707032 23.40625 14.25 20.964844 15.921876 35.804688 42.359376 41.785156 74.441407 5.378907 28.824219 3.5625 58.453125 1.808594 87.105469-.597656 9.746093-2.175781 19.359374-9.617187 23.691406-4.234375 2.476562-9.574219 2.476562-13.863281 2.476562zm0 0" fill="#ff8984"/><g fill="#ffb3b3"><path d="m189.628906 362.46875c-2.863281 0-5.609375-.566406-7.945312-1.644531-9.824219-4.523438-13.507813-16.332031-15.421875-24.824219l-.890625-3.945312 3.957031-.84375c7.066406-1.511719 12.863281-6.371094 18.195313-11.21875 9.613281-8.765626 18.84375-18.15625 27.425781-27.914063l9.410156-10.695313-2.464844 14.03125c-1.070312 6.070313-1.414062 12.351563-1.714843 17.894532-.179688 3.234375-.34375 6.144531-.589844 9.03125-.726563 8.445312-2.523438 20.722656-9.722656 29.804687-5.121094 6.464844-12.6875 10.324219-20.238282 10.324219zm0 0"/><path d="m165.816406 418.191406c-3.796875 0-6.863281-2.792968-8.339844-5.179687-2.085937-3.390625-2.636718-7.492188-3.023437-11.40625-1.417969-14.363281-.121094-31.5625 1.167969-44.945313 0 .015625-.003906.023438-.003906.023438-.003907 0-.007813-.023438-.011719-.046875l-.328125-1.726563 1.050781-1.410156c1.863281-2.5 3.496094-5.386719 4.996094-8.835938l3.988281-9.164062 3.4375 9.386719c2.03125 5.542969 4.601562 9.679687 7.863281 12.644531l1.488281 1.351562-.199218 2c-.011719.125-.027344.25-.050782.371094l-2.375 41.308594c-.171874 2.992188-.363281 6.320312-1.542968 9.246094-1.277344 3.199218-3.773438 5.582031-6.511719 6.203125-.523437.117187-1.0625.179687-1.605469.179687zm0 0"/><path d="m137.257812 364.070312c-1.894531 0-3.730468-.308593-5.464843-.914062-5.804688-2.027344-10.558594-7.300781-14.535157-16.121094-7.519531-16.722656-9.738281-35.878906-6.238281-53.945312l1.421875-7.359375 5.320313 5.28125c4.492187 4.460937 8.242187 9.714843 11.867187 14.796875l.207032.289062c2.480468 3.460938 5.039062 7.042969 7.816406 10.335938 7.191406 8.527344 15.28125 13.691406 23.386718 14.933594l4.640626.710937-1.4375 4.46875c-2.011719 6.246094-4.722657 13.386719-9.617188 18.980469-3.625 4.132812-10.085938 8.542968-17.367188 8.542968zm0 0"/></g><path d="m221.40625 69.148438c-13.289062-3.753907-26.457031-8.574219-39.136719-14.335938l-4.050781-1.839844 2.257812-3.835937c2.105469-3.566407 2.707032-7.683594 1.746094-11.910157-.324218-1.421874-.828125-2.851562-1.496094-4.25l-1.742187-3.640624 41.644531-19.46875c.894532-.414063 1.652344-.699219 2.332032-.882813l4.019531-1.074219.914062 4.058594c.066407.292969.136719.652344.203125 1.09375 2.753906 17.417969 2.164063 35.789062-1.699218 53.109375l-.921876 4.128906zm0 0" fill="#d34242"/><path d="m162.828125 58.320312c-.433594 0-.875-.011718-1.3125-.035156-7.351563-.363281-13.941406-3.980468-17.1875-9.441406-4.28125-7.199219-1.699219-15.1875 2.148437-20.265625 1.492188-1.972656 7.015626-8.375 15.425782-8.375 1.347656 0 2.710937.175781 4.054687.527344 7.933594 2.144531 14.433594 8.777343 16.207031 16.519531 1.421876 6.230469-.535156 12.019531-5.507812 16.3125-3.558594 3.066406-8.46875 4.757812-13.828125 4.757812zm0 0" fill="#d34242"/><path d="m100.296875 70.917969c-.65625 0-1.289063-.085938-1.875-.257813-4.640625-1.410156-5.71875-7.3125-6.128906-11.628906l-3.792969-40.203125c-.347656-3.753906-.347656-8.324219 2.796875-10.390625 1.046875-.683594 2.335937-1.011719 3.949219-1.011719 1.335937 0 2.664062.21875 3.375.339844 16.109375 2.644531 31.609375 7.820313 46.058594 15.394531l4.078124 2.132813-2.683593 3.742187c-4.480469 6.238282-5.265625 13.441406-2.105469 19.269532l2.105469 3.882812-4.070313 1.710938c-5.105468 2.144531-10.886718 4.683593-16.375 7.101562-6.769531 2.972656-13.761718 6.042969-19.484375 8.375-1.875.777344-3.890625 1.542969-5.847656 1.542969zm0 0" fill="#d34242"/><path d="m254.484375 308.179688c-1.375-.761719-2.753906-1.503907-4.128906-2.246094-7.554688-4.085938-15.363281-8.304688-22.40625-13.492188-20.578125-15.1875-24.796875-33.910156-22.15625-45.367187.003906-.058594 0-.121094 0-.183594v-1.742187l1.273437-1.183594c13.902344-12.941406 22.761719-31.296875 24.308594-50.367188l.3125-3.789062 3.796875.117187c.261719.007813.527344.011719.785156.011719 11.222657 0 21.957031-7.03125 26.105469-17.097656 1.738281-4.203125 2.152344-8.289063 1.207031-11.820313-1.113281-4.1875-4.253906-7.445312-7.996093-8.308593-.742188-.171876-1.488282-.253907-2.28125-.253907-2.914063 0-5.824219 1.171875-8.636719 2.304688-2.132813.863281-4.34375 1.761719-6.601563 2.167969-.925781.164062-1.863281.246093-2.796875.246093-9.113281 0-17.230469-7.628906-22.539062-13.367187-17.359375-18.746094-32.769531-40.113282-45.789063-63.511719-2.363281-4.234375-4.527344-6.382813-6.421875-6.382813-.066406 0-.132812.003907-.199219.007813-3.003906.210937-5.160156 5.828125-7.066406 10.785156-.496094 1.296875-1.070312 2.78125-1.644531 4.113281-5.042969 11.703126-14.300781 25.371094-24.773437 36.574219-5.007813 5.355469-10.730469 10.003907-17.003907 13.816407-.328125.195312-.707031.429687-1.15625.710937-.84375.523437-1.894531 1.171875-3.074219 1.882813-6.371093 3.816406-10.882812 5.8125-13.421874 5.941406l-.847657.042968-.792969-.304687c-2.472656-.953125-5.113281-1.4375-7.84375-1.4375-6.695312 0-13.273437 2.972656-17.589843 7.953125-5.464844 6.3125-6.148438 14.21875-1.867188 21.691406 1.859375 3.257813 5.304688 5.699219 9.203125 6.535156.945313.203126 1.882813.308594 2.796875.308594.960938 0 1.898438-.113281 2.785157-.335937l3.699218-.925781 1.101563 3.648437c7.152343 23.695313 15.753906 48.117187 35.074219 63.519531l.394531.300782 1.875 1.46875-.398438 2.351562c3.828125 8.5 2.414063 22.960938-9.359375 36.144531-7.261718 8.125-17.046875 13.386719-23.773437 16.636719l-1.777344.859375-1.761719-.890625c-2.273437-1.144531-8.234375-5.21875-9.480468-8.503906l-.167969-.445313-.0625-.472656c-3.664063 2.382813-8.007813 3.648437-12.601563 3.652344-5.574218 0-10.859375-1.871094-14.886718-5.265625-7.488282-6.308594-10.152344-17.824219-6.199219-26.78125-3.203125 1.511718-6.851563 2.335937-10.585938 2.335937-6.1875 0-12.222656-2.238281-16.554687-6.140625-7.113282-6.40625-9.878906-17.578125-6.578125-26.5625 3.300781-8.976562 12.640625-15.691406 22.210937-15.96875-7.035156-7.917968-10.667968-18.90625-9.6875-29.441406.980469-10.523438 6.585938-20.644531 14.992188-27.074219.683594-.519531 1.375-1.015625 2.070312-1.515625l.457032-.328125c3.542968-2.515625 7.1875-5.105469 8.539062-9.15625.941406-2.796875.578125-5.828125.222656-8.761719l-.101562-.859374c-4.210938-35.285157 11.796875-71.625 40.777344-92.585938l5.679687-4.105469 1.089844 11.699219c.410156 4.34375 1.496093 10.28125 6.144531 11.679688.617188.179687 1.25.269531 1.921875.269531 2.089844 0 4.1875-.855469 5.867187-1.539063 5.941407-2.429687 13.449219-5.730468 19.480469-8.382812 7.046875-3.097656 13.324219-5.84375 18.75-8.078125l2.179688-.898438 1.839843 1.472657c3.558594 2.84375 8.210938 4.546874 13.109376 4.800781.394531.015625.820312.023437 1.253906.023437 4.929687 0 9.570312-1.460937 13.074218-4.117187l1.917969-1.453125 2.183594 1.015625c14.621094 6.800781 29.925781 12.351562 45.492187 16.5 1.574219-6.046875 2.722657-12.3125 3.457032-18.644531l.71875-6.199219 5.332031 3.242187c15.265625 9.28125 27.25 23.460938 33.753906 39.929688 7.214844 18.304687 7.507813 39.398437.800781 57.882812 1.0625-.09375 2.113282-.15625 3.15625-.15625 10.667969 0 21.023438 6.734375 25.175782 16.378906 4.597656 10.683594 1.289062 24.300782-7.695313 31.675782 10.109375 1.28125 18.835938 9.808594 20.3125 19.890625 1.457031 10.082031-4.480469 20.742187-13.816406 24.796875l-.785156.335937c-2 .839844-4.019531 1.683594-4.898438 3.527344-.953125 1.996094-.226562 4.078125.898438 6.800781l.171875.421875c.105468.257813.210937.507813.308594.761719 2.984374 7.679688.542968 17.0625-5.804688 22.316406-3.425781 2.824219-7.914062 4.378906-12.644531 4.378906-3.78125 0-7.367188-.996093-10.375-2.882812 3.472656 5.023438 4.839843 11.652344 3.699219 18.222656-1.019532 5.898438-3.929688 11.132813-8.203126 14.738282l-2.105468 1.773437zm0 0" fill="#ffbf48"/><path d="m176.773438 27.257812c-3.015626-3.222656-6.738282-5.492187-10.765626-6.574218-1.300781-.347656-2.65625-.523438-4.023437-.523438-3.765625 0-7.539063 1.304688-10.90625 3.777344l-2.046875 1.503906-2.234375-1.21875c-3.964844-2.160156-8.085937-4.171875-12.25-5.96875l-7.328125-3.167968 6.921875-3.972657c8.039063-4.617187 17.15625-7.054687 26.371094-7.054687 1.132812 0 2.277343.035156 3.402343.109375 10.851563.695312 21.507813 4.875 30 11.765625l4.953126 4.023437-20.105469 9.417969zm0 0" fill="#ffbf48"/><path d="m159.710938 262.457031c-15.566407.003907-30.40625-4.992187-41.78125-14.058593-19.699219-15.707032-28.441407-41.070313-36.359376-67.875-1.8125 1.269531-3.992187 1.945312-6.351562 1.945312-.917969 0-1.851562-.101562-2.769531-.296875-3.882813-.835937-7.304688-3.273437-9.160157-6.519531-4.203124-7.332032-3.507812-15.414063 1.859376-21.609375 4.25-4.898438 11-7.9375 17.625-7.9375 2.742187 0 5.417968.507812 7.941406 1.503906.328125.132813.695312.191406 1.144531.191406 2.589844 0 7.089844-1.9375 13.757813-5.933593 1.15625-.695313 2.191406-1.332032 3.03125-1.851563.488281-.3125.90625-.566406 1.230468-.761719 6.269532-3.8125 11.992188-8.464844 17-13.828125 10.476563-11.191406 19.742188-24.867187 24.789063-36.582031.550781-1.28125 1.113281-2.734375 1.640625-4.109375l.039062-.097656c1.371094-3.574219 2.71875-6.933594 4.109375-8.75l2.746094-3.589844 3.230469 3.164063c1.082031 1.0625 2.238281 2.695312 3.445312 4.863281 13.023438 23.386719 28.4375 44.761719 45.800782 63.527343 5.328124 5.742188 13.464843 13.386719 22.539062 13.386719.945312 0 1.902344-.085937 2.839844-.25 2.25-.394531 4.375-1.253906 6.621094-2.160156 2.996093-1.207031 5.738281-2.3125 8.609374-2.3125.785157 0 1.554688.085937 2.285157.253906 3.71875.859375 6.839843 4.101563 7.945312 8.261719 1.1875 4.460938.003907 8.871094-1.199219 11.785156-4.082031 9.878906-15.046874 17.050782-26.074218 17.050782-1.585938 0-3.15625-.148438-4.675782-.441407-.726562 27.050781-16.027343 52.511719-39.019531 64.902344-9.863281 5.320313-21.21875 8.128906-32.839843 8.128906zm0 0" fill="#ffdac4"/><path d="m164.714844 331.636719c-12.78125 0-23.152344-10.664063-27.019532-15.246094-2.9375-3.484375-5.753906-7.445313-8.019531-10.628906-4.273437-5.984375-8.699219-12.175781-14.378906-17.125l-2.660156-2.316407 1.96875-2.929687c3.234375-4.808594 8.441406-14.40625 7.007812-24.632813l-1.085937-7.742187 6.914062 3.648437c9.6875 5.113282 20.84375 7.816407 32.261719 7.816407 11.707031 0 23.050781-2.796875 32.875-8.089844 2.074219-1.117187 4.132813-2.371094 6.117187-3.730469l6.273438-4.289062-.011719 7.597656c-.011719 6.050781 1.660157 12.214844 4.957031 18.320312 2.027344 3.757813 4.683594 7.472657 7.902344 11.046876l2.355469 2.613281-2.292969 2.667969c-9.53125 11.101562-19.757812 21.644531-30.398437 31.332031-5.351563 4.871093-11.167969 9.753906-18.28125 11.230469-1.46875.300781-2.976563.457031-4.484375.457031zm0 0" fill="#ffdac4"/><path d="m319.503906 393.921875c-6.171875-33.082031-21.558594-60.402344-43.324218-76.933594-3.964844-3.007812-8.152344-5.679687-12.402344-8.171875 3.789062-4.015625 6.425781-9.3125 7.433594-15.125.714843-4.125.570312-8.277344-.367188-12.148437 6.4375.789062 13.222656-.960938 18.265625-5.125 7.664063-6.332031 10.613281-17.65625 7.011719-26.921875-.160156-.410156-.332032-.820313-.503906-1.238282-.433594-1.046874-1.242188-3-.996094-3.519531.21875-.457031 1.8125-1.125 2.765625-1.523437.292969-.121094.585937-.246094.875-.371094 10.960937-4.761719 17.929687-17.273438 16.210937-29.101562-1.367187-9.414063-8.136718-17.679688-16.824218-21.386719 6.476562-8.792969 8.257812-21.132813 3.925781-31.199219-4.480469-10.414062-15.21875-17.75-26.46875-18.722656 5.140625-18.015625 4.246093-37.851563-2.621094-55.269532-7.296875-18.496093-21.390625-34.367187-38.847656-43.890624.570312-10.328126.074219-20.71875-1.527344-30.859376-.214844-1.359374-.660156-4.191406-2.941406-6.070312-3.820313-3.164062-8.667969-.898438-10.261719-.15625l-19.554688 9.140625c-.097656-.113281-.1875-.230469-.296874-.335937-9.554688-8.765626-21.945313-14.050782-34.882813-14.878907-12.929687-.820312-25.898437 2.828125-36.5 10.304688-.234375.164062-.441406.351562-.632813.554687-8.988281-3.242187-18.265624-5.660156-27.773437-7.21875-2.304687-.378906-6.59375-1.085937-10.199219 1.289063-5.597656 3.675781-4.878906 11.292969-4.609375 14.15625l2.476563 26.289062c-32.257813 21.035157-50.851563 60.769531-46.289063 99.019531l.09375.773438c.320313 2.632812.625 5.117188-.027343 7.078125-.929688 2.785156-3.890626 4.890625-7.027344 7.117187-.902344.640626-1.796875 1.28125-2.65625 1.9375-9.285156 7.097657-15.480469 18.285157-16.570313 29.925782-.871093 9.328125 1.53125 18.976562 6.539063 26.917968-8.484375 2.554688-15.746094 9.089844-18.828125 17.472657-3.917969 10.648437-.765625 23.386719 7.667969 30.980469 6.460937 5.8125 15.601562 8.230468 24.101562 6.796874-.96875 8.828126 2.433594 18.046876 9.339844 23.871094 7.816406 6.597656 19.171875 8.035156 28.429687 3.984375 1.25 1.570313 2.863281 3.035157 4.511719 4.292969-.03125.015625-.066406.027344-.097656.042969-1.234375.527343-2.472656 1.054687-3.714844 1.585937-10.894531 4.628906-22.160156 9.417969-31.625 17.175782-21.902344 17.957031-28.957031 47.480468-32.359375 68.125-5.40625 32.816406-5.882813 66.164062-1.417969 99.117187.648438 4.765625 1.578125 9.738281 5.179688 13.523437 5.128906 5.394532 13.171875 5.460938 17.976562 5.503907 87.480469.746093 176.148438 1.171875 263.542969 1.269531h.597656c4.71875 0 10.453125-.113281 15.445313-3.027344 10.339844-6.03125 11.203125-20.164062 11.621094-26.953125 1.769531-28.917969 3.601562-58.820312-1.863282-88.097656zm-97.183594-380.425781c.800782-.375 1.335938-.554688 1.675782-.640625.046875.214843.097656.488281.148437.816406 2.6875 17.019531 2.113281 34.777344-1.648437 51.628906-13.167969-3.722656-26.109375-8.472656-38.574219-14.128906 2.601563-4.40625 3.40625-9.558594 2.199219-14.828125-.398438-1.757812-1.007813-3.464844-1.789063-5.09375zm-74.554687 33.304687c-3.269531-5.496093-1.164063-11.769531 1.894531-15.804687 2.558594-3.375 7.074219-6.792969 12.242188-6.792969.992187 0 2.011718.125 3.042968.402344 6.414063 1.722656 11.890626 7.289062 13.316407 13.535156.761719 3.335937.652343 8.191406-4.214844 12.390625-3.050781 2.632812-7.539063 4.007812-12.328125 3.765625-6.039062-.304687-11.386719-3.175781-13.953125-7.496094zm15.890625-38.636719c10.140625.648438 19.878906 4.492188 27.742188 10.882813l-11.707032 5.472656c-3.40625-3.636719-7.800781-6.394531-12.652344-7.699219-6.183593-1.664062-12.839843-.140624-18.320312 3.890626-4.113281-2.234376-8.308594-4.28125-12.582031-6.128907 8.308593-4.769531 17.917969-7.046875 27.519531-6.417969zm-70.164062 3.617188c.980468-.644531 3.335937-.257812 4.46875-.070312 15.71875 2.578124 30.789062 7.621093 44.863281 14.996093-5.367188 7.460938-6.257813 16.332031-2.371094 23.507813-5.085937 2.136718-10.839844 4.660156-16.441406 7.125-6.738281 2.960937-13.707031 6.019531-19.375 8.335937-1.988281.8125-3.867188 1.507813-5.089844 1.144531-1.683594-.507812-2.816406-3.332031-3.273437-8.171874l-3.789063-40.199219c-.351563-3.753907-.011719-5.996094 1.007813-6.667969zm-16.136719 283.613281c-.167969-1.355469-1.019531-2.535156-2.253907-3.128906-1.277343-.617187-2.785156-.511719-3.96875.273437-6.742187 4.460938-16.480468 3.894532-22.65625-1.320312-6.179687-5.210938-8.378906-14.714844-5.117187-22.109375.679687-1.550781.324219-3.363281-.902344-4.535156-1.222656-1.171875-3.046875-1.453125-4.566406-.707031-7.183594 3.53125-16.710937 2.210937-22.660156-3.148438-5.949219-5.351562-8.257813-14.691406-5.496094-22.203125s10.574219-13.128906 18.574219-13.355469c1.570312-.042968 2.96875-.996094 3.589844-2.4375.621093-1.445312.34375-3.117187-.703126-4.285156-6.335937-7.054688-9.59375-16.902344-8.710937-26.34375.882813-9.4375 5.910156-18.515625 13.441406-24.273438.785157-.597656 1.605469-1.183593 2.429688-1.769531 3.863281-2.742187 8.238281-5.851562 10.003906-11.132812 1.230469-3.6875.78125-7.367188.382813-10.613281l-.09375-.75c-4.039063-33.847657 11.59375-68.945313 39.152343-88.871094l.445313 4.722656c.296875 3.167969 1.207031 12.800781 8.980468 15.136719 1.042969.3125 2.070313.4375 3.070313.4375 2.878906 0 5.492187-1.066407 7.390625-1.839844 5.765625-2.355469 12.78125-5.4375 19.566406-8.417969 6.460938-2.839844 13.121094-5.765625 18.660156-8.042968 4.140626 3.3125 9.574219 5.375 15.402344 5.671874.488282.023438.972656.035157 1.457032.035157 5.8125 0 11.3125-1.769531 15.492187-4.933594 14.832031 6.894531 30.351563 12.527344 46.148437 16.734375.339844.09375.6875.136719 1.035157.136719.710937 0 1.414062-.1875 2.039062-.554688.929688-.542969 1.601563-1.4375 1.867188-2.476562 1.601562-6.273438 2.769531-12.683594 3.523437-19.152344 14.382813 8.757813 25.929688 22.328125 32.105469 37.980469 6.863281 17.402344 7.140625 37.464844.765625 55.050781-.476562 1.320313-.234375 2.792969.640625 3.890625.878906 1.097656 2.261719 1.65625 3.652344 1.484375 9.832031-1.246094 20.207031 4.691406 24.125 13.796875 3.914062 9.105469 1.09375 20.710938-6.566407 27-1.246093 1.023438-1.765624 2.691406-1.3125 4.242188.449219 1.546874 1.78125 2.679687 3.382813 2.875 8.238281 1.003906 15.628906 8.226562 16.824219 16.441406 1.195312 8.214844-3.835938 17.238281-11.449219 20.546875-.253906.109375-.511719.21875-.773437.328125-2.273438.949218-5.382813 2.253906-6.929688 5.488281-1.792969 3.761719-.277344 7.414063.824219 10.078125.152343.363281.300781.722656.4375 1.074219 2.339843 6.023437.351562 13.667969-4.628907 17.78125-4.984374 4.113281-12.863281 4.628906-18.339843 1.191406-1.625-1.023437-3.746094-.753906-5.070313.640625-1.320312 1.394531-1.472656 3.527344-.367187 5.097656 2.90625 4.121094 4.027343 9.65625 3.066406 15.1875-.863281 4.996094-3.332031 9.410156-6.839844 12.359375-1.394531-.761719-2.785156-1.515625-4.167969-2.265625-7.441406-4.019531-15.136718-8.179687-21.929687-13.191406-19.050781-14.058594-23.019531-31.039062-20.625-41.304688.078125-.347656.097656-.6875.085937-1.027343 14.496094-13.484375 23.929688-32.640625 25.578126-52.964844 12.867187.390625 25.765624-7.570313 30.710937-19.554687 2.070313-5.019532 2.542969-9.992188 1.371094-14.382813-1.496094-5.601563-5.800781-9.988281-10.964844-11.171875-4.941406-1.136719-9.386719.660156-13.308594 2.242188-2.050781.828124-3.984375 1.609374-5.824219 1.933593-8.210937 1.457031-16.3125-6.097656-21.6875-11.902343-17.140624-18.507813-32.359374-39.617188-45.230468-62.734376-2.109375-3.785156-5.492188-8.757812-10.386719-8.425781-5.550781.394531-8.085937 6.984375-10.53125 13.355469-.542969 1.414062-1.058594 2.746094-1.578125 3.957031-4.871094 11.304688-13.847656 24.546875-24.019531 35.417969-4.765625 5.097656-10.203125 9.515625-16.15625 13.132812-.324219.191407-.726563.445313-1.203125.738282-.820313.511718-1.863282 1.15625-3.027344 1.855468-8.21875 4.921876-10.964844 5.339844-11.554688 5.363282-10.285156-3.957032-22.542968-.84375-29.890624 7.636718-6.554688 7.558594-7.421876 17.386719-2.316407 26.296876 2.417969 4.226562 6.84375 7.390624 11.832031 8.464843 2.554688.546875 5.066407.519531 7.390626-.0625 7.789062 25.804688 16.882812 49.921875 36.410156 65.492188.136718.109375.28125.210937.421875.316406-.128907.761719-.042969 1.570313.296875 2.324219 4.574218 10.144531-1.070313 23.292968-8.695313 31.824218-6.113281 6.84375-14.328125 11.746094-22.53125 15.703126-2.820312-1.425782-6.96875-4.851563-7.539062-6.347657zm30.316406-150.09375c1.207031-.722656 2.285156-1.394531 3.136719-1.921875.449218-.277344.832031-.515625 1.132812-.699218 6.585938-3.996094 12.597656-8.878907 17.867188-14.515626 10.769531-11.515624 20.3125-25.621093 25.535156-37.738281.582031-1.351562 1.148438-2.828125 1.695312-4.25.882813-2.296875 2.429688-6.324219 3.597657-7.847656.53125.511719 1.457031 1.621094 2.75 3.945313 13.183593 23.683593 28.78125 45.3125 46.359375 64.292968 6.660156 7.1875 16.910156 16.496094 29.003906 14.363282 2.671875-.46875 5.097656-1.449219 7.445312-2.398438 3.226563-1.304688 6.011719-2.429688 8.480469-1.863281 2.257813.519531 4.257813 2.6875 4.980469 5.394531.898438 3.375-.066406 6.878906-1.035156 9.226562-4.054688 9.832032-15.855469 16.207032-26.300782 14.214844-1.15625-.222656-2.363281.078125-3.285156.820313-.921875.742187-1.46875 1.851562-1.5 3.035156-.65625 25.609375-15.132812 49.730469-36.882812 61.453125-22.226563 11.980469-51.105469 9.703125-70.226563-5.542969-18.800781-14.988281-27.292969-39.714843-35.019531-65.875-.371094-1.257812-1.328125-2.253906-2.566406-2.675781-.425782-.144531-.863282-.214844-1.300782-.214844-.839843 0-1.667968.261719-2.367187.769532-2.085937 1.511718-4.578125 1.269531-5.878906.988281-2.746094-.589844-5.246094-2.347657-6.53125-4.585938-3.371094-5.886719-2.855469-12.085937 1.414062-17.011719 4.386719-5.058593 13.03125-8.515624 21.0625-5.328124 3.570313 1.421874 8.910157-.332032 18.433594-6.035157zm52.089844 121.183594c11.984375 0 24.039062-2.820313 34.714843-8.574219 2.230469-1.203125 4.390626-2.523437 6.476563-3.949218-.007813 6.660156 1.820313 13.53125 5.441406 20.230468 2.203125 4.078125 5.078125 8.078125 8.445313 11.816406-9.347656 10.898438-19.449219 21.320313-30.058594 30.984376-4.9375 4.496093-10.273438 8.996093-16.394531 10.265624-12.855469 2.660157-24.402344-9.621093-27.632813-13.449218-2.746094-3.257813-5.324218-6.871094-7.816406-10.367188-4.429688-6.207031-9.019531-12.601562-15.015625-17.824218 5.207031-7.75 9.015625-17.710938 7.648437-27.414063 10.382813 5.480469 22.25 8.285156 34.191407 8.28125zm-44.816407 27.371094c4.207032 4.179687 7.738282 9.101562 11.425782 14.273437 2.589844 3.625 5.265625 7.371094 8.222656 10.878906 9.542969 11.3125 18.851562 15.238282 25.84375 16.3125-2.128906 6.59375-4.625 12.769532-8.824219 17.570313-4.183593 4.78125-11.757812 8.855469-18.496093 6.492187-4.722657-1.65625-8.714844-6.230468-12.210938-13.992187-7.257812-16.136719-9.308594-34.230469-5.960938-51.535156zm44.589844 62.03125c2.226563-2.988281 3.984375-6.21875 5.457032-9.621094 1.976562 5.378906 4.773437 10.449219 8.933593 14.222656-.011719.101563-.039062.195313-.046875.296875l-2.394531 41.546875c-.160156 2.777344-.324219 5.644531-1.257813 7.976563-.789062 1.980468-2.238281 3.472656-3.691406 3.800781-2.113281.480469-4.484375-1.292969-5.65625-3.199219-1.636718-2.660156-2.105468-6.25-2.445312-9.703125-1.386719-14.066406-.101563-30.992187 1.171875-44.167969.039062-.394531 0-.777343-.070313-1.152343zm10.628906-20.765625c8.042969-1.714844 14.3125-6.949219 20.046876-12.167969 9.722656-8.859375 19.035156-18.335937 27.742187-28.226563-1.082031 6.140626-1.433594 12.332032-1.769531 18.367188-.164063 2.929688-.332032 5.964844-.582032 8.902344-.679687 7.929687-2.335937 19.425781-8.871093 27.667968-6.902344 8.703126-17.191407 10.375-23.371094 7.53125-7.730469-3.558593-11.191406-13.164062-13.195313-22.074218zm143.15625 146.410156c-.53125 8.632812-1.820312 17.089844-7.636718 20.480469-3.320313 1.9375-7.890625 1.925781-11.972656 1.925781-12.90625-.011719-25.84375-.039062-38.796876-.066406-1.222656-36.742188-.785156-73.941406 1.332032-110.621094.128906-2.222656-1.570313-4.128906-3.792969-4.257812-2.195313-.136719-4.125 1.570312-4.253906 3.792968-2.128907 36.828125-2.570313 74.175782-1.347657 111.066406-56.023437-.136718-112.363281-.40625-168.421874-.808593l-9.183594-113.710938c-.175782-2.21875-2.128906-3.855469-4.339844-3.691406-2.21875.175781-3.875 2.121094-3.695312 4.34375l9.121093 113.003906c-13.386719-.101562-26.761719-.203125-40.101562-.316406-4.773438-.042969-9.644531-.308594-12.203125-2.996094-1.945313-2.042969-2.542969-5.449219-3.03125-9.050781-4.355469-32.160156-3.890625-64.699219 1.382812-96.722656 5.070313-30.765625 14.449219-50.847656 29.519532-63.203125 8.566406-7.027344 19.292968-11.582031 29.664062-15.992188 1.25-.53125 2.5-1.0625 3.746094-1.59375 8.789062-3.777343 18.472656-8.257812 26.75-14.804687-2.164063 17.078125.390625 34.59375 7.5 50.390625 4.445312 9.882812 9.972656 15.867187 16.894531 18.292969 2.277344.796874 4.570313 1.15625 6.832031 1.15625 4.867188 0 9.582032-1.664063 13.605469-4.1875-1 12.066406-1.667969 25.949218-.476563 38.039062.429688 4.386719 1.066407 9.015625 3.601563 13.136719 2.714844 4.410156 7.351563 7.105469 11.878906 7.105469.8125 0 1.625-.089844 2.417969-.269532 4.089844-.921875 7.601562-4.164062 9.40625-8.671875 1.417969-3.546875 1.632812-7.242187 1.820312-10.503906l2.164063-37.582031c11.609375 4.210937 24.625-2.058594 31.351563-10.542969 7.886718-9.945313 9.816406-23.019531 10.582031-31.988281.261719-3.058594.433593-6.152344.597656-9.144532.339844-6.089843.675781-11.902343 1.6875-17.5625 7.144531 5.222657 14.949219 9.445313 22.503906 13.527344 7.789063 4.210938 15.847657 8.5625 22.878907 13.90625 20.167968 15.316406 34.472656 40.886719 40.277343 71.988282 5.277344 28.304687 3.476563 57.699218 1.738281 86.132812zm0 0"/></svg>