<svg height="512pt" viewBox="-88 0 512 512.00043" width="512pt" xmlns="http://www.w3.org/2000/svg"><path d="m206.503906 507.867188-.785156-2.980469c-5.195312-19.789063-17.992188-38.648438-39.117188-57.664063-8.6875-7.816406-18.074218-15.113281-27.15625-22.171875l-.230468-.183593c-9.238282-7.164063-18.792969-14.574219-27.71875-22.640626-20.222656-18.265624-32.726563-36.375-38.230469-55.363281l-.945313-3.261719 4.628907-2.207031c1.023437-.484375 2.042969-.96875 3.058593-1.460937 8.257813-4.011719 17.761719-9.039063 25.65625-15.902344l3.449219-3 2.515625 3.816406c19.742188 29.941406 42.148438 58.320313 66.605469 84.351563 1.589844 1.6875 3.203125 3.390625 4.8125 5.070312l.15625.164063.082031.109375.207032.203125c1.859374 1.941406 3.714843 3.867187 5.546874 5.765625l.289063.300781c10.074219 10.457031 20.425781 21.203125 29.535156 32.691406 13.496094 17.023438 22.203125 33.160156 26.613281 49.332032l1.378907 5.058593zm0 0" fill="#bc88e5"/><path d="m180.445312 411.449219c-.730468-.769531-1.460937-1.539063-2.175781-2.304688-6.320312-6.722656-12.550781-13.65625-18.507812-20.601562l-2.894531-3.371094 3.660156-2.523437c23.683594-16.347657 44.785156-37.554688 61.027344-61.324219l2.542968-3.71875 3.390625 2.960937c8.398438 7.328125 18.328125 12.519532 26.9375 16.632813l3.925781 1.878906-2.203124 3.753906c-16.707032 28.488281-41.597657 53.359375-70.089844 70.039063l-2.734375 1.601562zm0 0" fill="#bc88e5"/><path d="m271.191406 507.917969.328125-4.300781c1.886719-24.765626.8125-49.699219-3.199219-74.117188 3.984376 24.65625 5.042969 49.792969 3.085938 74.722656l-.289062 3.691406-24.304688-.015624-.753906-3.03125c-4.203125-16.855469-13.082032-33.671876-27.144532-51.410157-9.078124-11.4375-19.382812-22.136719-29.347656-32.484375l-2.675781-2.785156-3.5-3.628906 4.328125-2.582032c28.429688-16.980468 52.238281-41.101562 68.851562-69.753906l1.816407-3.136718 4.640625 2.113281c12.308594 5.636719 25.023437 11.460937 35.40625 20.351562 18.996094 16.28125 26.882812 39.757813 30.152344 56.582031 4.171874 21.449219 3.472656 43.613282 2.796874 65.042969-.242187 7.828125-1.003906 16.46875-7.050781 21.128907-4.355469 3.359374-10.007812 3.632812-16.402343 3.632812zm0 0" fill="#985bbc"/><path d="m69.40625 507.777344-.425781-3.511719c-2.878907-23.566406-2.613281-47.386719.789062-70.800781-3.417969 23.117187-3.726562 46.621094-.976562 69.84375l.527343 4.472656-46.683593-.03125c-4.539063 0-8.273438-.15625-11.492188-2.09375-6.390625-3.839844-7.15625-12.527344-7.0625-20.515625.242188-22.359375.492188-45.488281 5.808594-67.742187 4.171875-17.398438 13.453125-41.511719 33.984375-57.578126 7.363281-5.773437 15.949219-10.21875 24.128906-14.164062l4.199219-2.027344 1.363281 4.460938c5.667969 18.542968 18.0625 36.269531 37.898438 54.191406 8.855468 8.007812 18.4375 15.445312 27.707031 22.636719l.273437.214843c9.066407 7.042969 18.441407 14.324219 27.113282 22.132813 20.34375 18.308594 32.9375 36.457031 38.5 55.480469l1.5 5.128906zm0 0" fill="#985bbc"/><path d="m77.726562 300.308594c-2.195312-8.445313-1.519531-16.921875-.917968-21.21875.914062-6.648438 2.59375-12.945313 4.375-19.613282 1.597656-5.988281 3.25-12.1875 4.210937-18.472656 2.804688-18.316406-.324219-37.105468-3.351562-55.277344-3.308594-19.902343-6.433594-38.6875-2.886719-57.769531 3.792969-20.316406 15.484375-39.039062 32.078125-51.375 9.140625-6.800781 19.988281-11.75 31.367187-14.316406l.390626-.078125c10.753906-2.425781 23.046874-5.199219 34.71875-5.199219 4.402343 0 8.542968.402344 12.304687 1.195313 17.695313 3.765625 33.839844 14.371094 45.472656 29.863281 5.054688 6.734375 9.472657 14.53125 13.132813 23.171875 1.222656 2.882812 2.683594 5.738281 4.097656 8.496094l.070312.136718c2.046876 4 3.980469 7.78125 5.339844 11.796876 5.027344 14.859374 5.972656 32.714843 2.8125 53.066406-2.230468 14.386718-6.191406 28.523437-10.019531 42.195312l-.25.890625c-1.53125 5.503907-3.117187 11.199219-4.558594 16.820313-2.8125 10.945312-6.132812 25.464844-6.878906 40.773437l-7.921875.574219c-1.363281-6.953125-1.683594-15.097656-.949219-24.210938.339844-4.285156.855469-8.652343 1.351563-12.875l.019531-.171874c1.289063-10.828126 2.613281-21.96875 1.207031-32.871094-2.257812-17.585938-11.617187-35.226563-27.816406-52.4375-1.730469-1.84375-3.539062-3.691406-5.097656-5.277344-4.601563-4.679688-9.359375-9.515625-13.269532-15.03125-4.628906-6.535156-7.117187-13.328125-8.066406-22.019531-.164062-1.546875-.496094-3.316407-.851562-5.191407-1.070313-5.636718-2.28125-12.019531.058594-16.359374l-.054688-.03125-.003906.007812c-7.707032 14.261719-19.761719 24.648438-32.527344 35.644531l-.078125.070313c-3.527344 3.035156-7.921875 6.808594-11.925781 10.527344-14.078125 13.070312-30.199219 33.378906-27.019532 55.890624 2.707032 19.117188-3.542968 37.257813-10.15625 56.460938-4.660156 13.527344-9.476562 27.519531-10.546874 41.511719zm0 0" fill="#d34242"/><path d="m140.171875 60.039062c-9.214844-14.492187-6.300781-35.597656 6.5-47.046874 6.492187-5.8125 15.214844-9.007813 24.558594-9.007813 8.554687 0 16.695312 2.753906 22.914062 7.761719 13.335938 10.71875 17.375 31.511718 9.066407 46.453125l-1.480469 3.410156-3.496094-1.191406c-2.800781-.957031-5.5625-1.726563-8.199219-2.28125-3.839844-.816407-7.886718-1.214844-12.375-1.214844-11.558594 0-24.085937 2.816406-33.234375 4.871094l-2.742187.617187zm0 0" fill="#d34242"/><path d="m207.550781 41.351562c.007813-1.210937-.042969-2.46875-.15625-3.742187l-.34375-3.898437 61.546875-6.734376 2 15.636719-63.082031 2.960938zm0 0" fill="#af7979"/><path d="m72.628906 42.613281 1.972656-15.636719 60.621094 6.628907-.304687 3.871093c-.101563 1.265626-.148438 2.558594-.140625 3.835938l.03125 4.222656zm0 0" fill="#af7979"/><g fill="#ffdac4"><path d="m252.144531 222.765625c1.417969-5.085937 3.257813-11.792969 4.90625-18.605469l2.792969-11.539062 4.757812 10.875c1.167969 2.664062 1.589844 5.574218 1.300782 8.902344-.4375 5.300781-3.058594 10.546874-7.183594 14.375l-10.371094 9.621093zm0 0"/><path d="m163.390625 293.171875c-13 0-26.109375-4.480469-36.90625-12.617187-11.171875-8.398438-19.941406-20.75-24.765625-34.855469l-.488281-.515625-.011719-2.21875.175781-.570313c3.625-11.890625 7.050781-26.035156 4.964844-40.773437-3.183594-22.484375 12.917969-42.773438 26.988281-55.832032 3.832032-3.558593 7.898438-7.058593 11.828125-10.441406l.277344-.238281c8.640625-7.445313 17.574219-15.140625 24.714844-24.039063l5.558593-6.933593 1.503907 8.757812c.175781 1.023438.359375 2.019531.546875 2.980469.339844 1.800781.6875 3.652344.855468 5.1875.925782 8.585938 3.488282 15.59375 8.070313 22.066406 3.863281 5.457032 8.628906 10.3125 13.238281 15.007813 1.742188 1.773437 3.472656 3.535156 5.136719 5.300781 16.1875 17.214844 25.539063 34.847656 27.796875 52.414062 1.273438 9.867188.355469 19.496094-.78125 29.3125l-.117188.992188-.703124 1.007812s.003906-.007812.015624-.027343c-11.011718 20.460937-35.480468 43.496093-63.285156 45.839843-1.515625.128907-3.070312.195313-4.613281.195313zm0 0"/><path d="m171.480469 323.46875c-.027344-.027344-.042969-.035156-.042969-.035156-17.089844-4.765625-33.550781-13.183594-47.550781-24.324219l-1.792969-1.429687.328125-2.269532c.457031-3.167968.515625-6.316406.179687-9.351562l-.953124-8.636719 7.183593 4.890625c10.34375 7.046875 22.628907 10.929688 34.597657 10.929688 1.523437 0 3.066406-.066407 4.578124-.199219 11.414063-.960938 22.714844-5.253907 33.589844-12.753907l6.289063-4.339843-.019531 7.640625c-.007813 3.851562.6875 7.863281 2.066406 11.921875l.902344 2.652343-2.222657 1.785157c-9.808593 9.183593-20.679687 17.296875-32.3125 24.109375l-2.636719 1.546875zm0 0"/><path d="m80.800781 230.84375c-7.335937-3.226562-12.699219-10.644531-13.347656-18.460938-.65625-7.808593 3.191406-15.761718 9.804687-20.261718l5.21875-3.546875.984376 6.234375c1.527343 9.722656 3.074218 21.175781 2.945312 32.417968l-.066406 6.050782zm0 0"/></g><path d="m154.492188 382.328125c-8.96875-10.71875-17.667969-21.84375-25.855469-33.070313l-3.449219-4.726562 5.660156-1.496094c28.171875-7.449218 54.457032-21.765625 76.007813-41.402344l3.804687-3.46875 2.417969 4.546876c2.289063 4.300781 5.28125 8.496093 8.890625 12.46875l2.113281 2.324218-1.757812 2.605469c-16.53125 24.503906-38.144531 46.269531-62.503907 62.949219l-2.996093 2.054687zm0 0" fill="#f9d889"/><path d="m123.609375 342.246094c-4.207031-5.921875-8.515625-12.238282-12.804687-18.769532l-1.703126-2.59375 2.089844-2.292968c.789063-.867188 1.492188-1.695313 2.148438-2.527344 3.128906-3.949219 5.539062-8.273438 7.15625-12.855469l1.820312-5.140625 4.359375 3.277344c11.800781 8.882812 25.460938 15.992188 39.5 20.5625l9.183594 2.992188-8.605469 4.378906c-12.203125 6.210937-25.089844 11.027344-38.300781 14.328125l-3.019531 1.210937zm0 0" fill="#f9d889"/><path d="m332.574219 417.359375c-3.394531-17.464844-11.613281-41.855469-31.5-58.890625-10.804688-9.257812-23.792969-15.207031-36.351563-20.960938l-3.292968-1.515624c-.277344-.289063-.582032-.554688-.953126-.757813-.546874-.300781-1.136718-.449219-1.722656-.484375-12.167968-5.691406-24.535156-12.207031-33.582031-22.085938-8.511719-9.292968-16.078125-23.621093-12.167969-36.261718 4.949219-4.386719 9.402344-9.195313 13.253906-14.175782-1.492187 20.160157 1.96875 35.21875 10.597657 45.988282 1.132812 1.414062 3.066406 1.898437 4.730469 1.1875 1.664062-.710938 2.652343-2.441406 2.414062-4.234375-2.78125-21.074219 1.769531-42.886719 6.046875-59.535157.898437-3.5 1.851563-7.027343 2.820313-10.53125 9.34375-3.46875 16.25-12.375 17.089843-22.382812.597657-7.109375-1.480469-12.757812-6.683593-18.089844.625-3.085937 1.199218-6.183594 1.683593-9.296875 3.257813-20.996093 2.257813-39.496093-2.980469-54.988281-1.46875-4.347656-3.59375-8.484375-5.644531-12.488281-1.449219-2.824219-2.816406-5.488281-3.96875-8.214844-3.78125-8.9375-8.363281-17.023437-13.625-24.03125-8.574219-11.421875-19.507812-20.304687-31.703125-25.964844 1.710938-3.203125 2.921875-6.636719 3.652344-10.179687.054688.003906.101562.015625.15625.015625.0625 0 .125-.003907.191406-.003907l59.777344-2.804687c1.125-.054687 2.175781-.574219 2.898438-1.433594.722656-.863281 1.054687-1.988281.914062-3.101562l-1.992188-15.707031c-.277343-2.183594-2.253906-3.75-4.4375-3.5l-58.238281 6.367187c-2.226562-8.070313-6.742187-15.480469-13.257812-20.722656-14.863281-11.953125-38.523438-11.332031-52.738281 1.386719-5.679688 5.085937-9.601563 11.882812-11.617188 19.242187l-57.324219-6.273437c-2.183593-.246094-4.160156 1.320312-4.4375 3.5l-1.992187 15.707031c-.140625 1.117187.191406 2.242187.914062 3.101562.722656.863281 1.773438 1.382813 2.898438 1.433594l59.242187 2.78125c.757813 3.667969 2.019531 7.214844 3.796875 10.511719-9.621094 2.925781-18.726562 7.476562-26.632812 13.351562-17.40625 12.9375-29.667969 32.582032-33.640625 53.898438-3.691407 19.78125-.355469 39.8125 2.867187 59.183594.03125.1875.0625.371093.09375.558593-9.574218 4.628907-15.617187 15.152344-14.726562 25.765625.882812 10.523438 8.476562 19.816406 18.558594 22.863282-.15625 1.609374-.335938 3.210937-.582032 4.808593-.921875 6.027344-2.550781 12.132813-4.121094 18.035157-1.730468 6.496093-3.523437 13.214843-4.480468 20.105468-2.296875 16.566406 1.570312 31.101563 10.613281 39.871094.769531.75 1.785156 1.140625 2.808594 1.140625.632812 0 1.273437-.152344 1.859375-.457031 1.542968-.800782 2.394531-2.5 2.121094-4.214844-2.957032-18.414062 3.238281-36.410156 9.796874-55.464844.449219-1.304687.902344-2.613281 1.347657-3.925781 3.773437 7.976563 8.789062 15.214844 14.75 21.304687-.019531.613282.085937 1.242188.367187 1.835938 3.976563 8.402344 3.570313 22.457031-6.285156 34.914062-1.09375 1.382813-2.257812 2.695313-3.476562 3.949219-.40625.289063-.753907.628907-1.019532 1.019531-7.761718 7.605469-17.675781 13.035157-27.425781 17.769532-2.191406 1.0625-4.398437 2.109375-6.609375 3.152344-10.316406 4.878906-20.984375 9.925781-30.261719 17.1875-21.464843 16.808593-31.109375 41.816406-35.421875 59.835937-5.421875 22.640625-5.679687 46.03125-5.9296872 68.648437-.0625 5.53125-.2070308 18.480469 9.0468752 24.039063 4.441406 2.667969 9.722656 2.671875 13.582031 2.675781l285.105469.183594h.183594.457031c5.472656 0 12.777343-.117188 18.425781-4.472656 8.066406-6.222656 8.433594-17.863282 8.628906-24.121094.683594-21.6875 1.394532-44.117188-2.867187-66.046875zm-151.378907-10.9375c-6.277343-6.679687-12.410156-13.515625-18.398437-20.484375 24.125-16.648438 45.511719-38.140625 62.066406-62.355469 8.320313 7.253907 18.082031 12.570313 27.832031 17.226563-16.449218 28.050781-40.605468 52.195312-68.65625 68.609375-.949218-1-1.90625-1.996094-2.84375-2.996094zm28.351563-101.835937c2.417969 4.535156 5.582031 9.007812 9.457031 13.28125-16.257812 24.101562-37.46875 45.472656-61.445312 61.894531-8.921875-10.664063-17.496094-21.628907-25.691406-32.859375 28.867187-7.632813 55.613281-22.203125 77.679687-42.316406zm-3.398437-7.785157c-.046876.039063-.097657.066407-.144532.109375-9.671875 9.078125-20.328125 17.023438-31.722656 23.699219-.46875-.457031-1.039062-.820313-1.714844-1.007813-16.691406-4.664062-32.613281-12.820312-46.183594-23.621093.515626-3.609375.558594-7.105469.195313-10.363281 11.011719 7.507812 24.078125 11.617187 36.855469 11.617187 1.644531 0 3.285156-.066406 4.910156-.203125 12.925781-1.089844 25.019531-6.199219 35.53125-13.457031-.011719 4.304687.753906 8.757812 2.273438 13.226562zm55.773437-84.753906c-.375 4.480469-2.617187 8.722656-5.917969 11.789063 1.714844-6.164063 3.40625-12.414063 4.9375-18.734376.910156 2.082032 1.203125 4.308594.980469 6.945313zm3.210937-180.667969.941407 7.445313-54.527344 2.558593c.011719-1.375-.046875-2.753906-.164063-4.125zm-115.792968-15.40625c11.402344-10.207031 30.382812-10.703125 42.304687-1.109375 11.921875 9.589844 15.5 28.234375 7.976563 41.558594-.039063.070313-.058594.140625-.09375.210937-2.84375-.96875-5.730469-1.792968-8.667969-2.414062-15.421875-3.277344-32.265625.292969-47.304687 3.671875-8.214844-12.910156-5.617188-31.714844 5.785156-41.917969zm-72.199219 22.851563.945313-7.445313 52.847656 5.78125c-.117188 1.390625-.167969 2.785156-.152344 4.179688zm-5.707031 173.222656c-.535156-6.414063 2.765625-13.003906 8.078125-16.613281 1.664062 10.550781 3.019531 21.226562 2.898437 31.746094-5.957031-2.617188-10.429687-8.632813-10.976562-15.132813zm10.167968 87.253906c-2.015624-7.726562-1.402343-15.570312-.835937-19.660156.886719-6.394531 2.535156-12.585937 4.28125-19.132813 1.628906-6.113281 3.3125-12.433593 4.304687-18.890624 2.894532-18.945313-.285156-38.058594-3.359374-56.542969-3.253907-19.539063-6.324219-37.996094-2.898438-56.378907 3.605469-19.34375 14.734375-37.167968 30.523438-48.90625 8.707031-6.46875 19.027343-11.175781 29.859374-13.613281l.296876-.066406c10.824218-2.4375 22.710937-5.117187 33.929687-5.117187 3.9375 0 7.789063.328124 11.484375 1.113281 16.742188 3.558593 32.050781 13.625 43.101562 28.347656 4.867188 6.484375 9.121094 13.996094 12.648438 22.332031 1.265625 3 2.769531 5.925782 4.21875 8.753906 2.007812 3.914063 3.902344 7.609376 5.183594 11.390626 4.816406 14.25 5.707031 31.464843 2.648437 51.167968-2.179687 14.066406-6.113281 28.132813-9.914062 41.734375-1.628907 5.820313-3.308594 11.832031-4.839844 17.796875-3.058594 11.917969-6.25 26.398438-6.992187 41.570313-1.308594-6.621094-1.601563-14.296875-.894532-23.113281.339844-4.273438.863282-8.664063 1.363282-12.90625 1.3125-11.03125 2.664062-22.4375 1.195312-33.847657-2.375-18.441406-12.085938-36.835937-28.867188-54.671875-1.703124-1.8125-3.464843-3.605468-5.164062-5.335937-4.71875-4.804688-9.171875-9.34375-12.855469-14.542969-4.21875-5.960938-6.484375-12.171875-7.347656-20.140625-.183594-1.695313-.535156-3.546875-.90625-5.507813-.894531-4.738281-2.011719-10.632812-.347656-13.714843 1.058593-1.957031.324219-4.40625-1.632813-5.460938-1.960937-1.058593-4.40625-.328125-5.464844 1.632813-.003906.003906-.003906.011718-.007812.015625-7.367188 13.640625-19.183594 23.808593-31.691406 34.574219-3.988282 3.4375-8.117188 6.992187-12.039063 10.628906-14.777343 13.71875-31.675781 35.160156-28.253906 59.378906 2.566406 18.152344-3.527344 35.855469-9.980469 54.597656-4.757812 13.839844-9.640625 28.019532-10.746094 42.515625zm23.613282-55.738281c4.222656-13.84375 7.152344-28.011719 5.101562-42.503906-2.933594-20.773438 12.386719-39.929688 25.757813-52.34375 3.808593-3.535156 7.875-7.039063 11.8125-10.425782 8.882812-7.644531 17.976562-15.472656 25.398437-24.722656.179688 1.050782.375 2.078125.558594 3.0625.34375 1.800782.664062 3.496094.8125 4.875 1.003906 9.285156 3.796875 16.886719 8.785156 23.933594 4.054688 5.730469 8.949219 10.714844 13.679688 15.53125 1.671875 1.703125 3.402344 3.464844 5.046875 5.214844 15.59375 16.574218 24.589843 33.453125 26.742187 50.179687 1.199219 9.300781.339844 18.601563-.789062 28.339844-.113282.15625-.230469.308594-.324219.480469-10.492187 19.542968-33.78125 41.589844-60.128906 43.8125-13.335938 1.125-27.464844-3.117188-38.78125-11.632813-10.753907-8.089843-19.15625-20.089843-23.660157-33.78125-.003906-.007812-.007812-.011719-.011718-.019531zm19.054687 60.980469c12.234375 9.207031 26.113281 16.429687 40.675781 21.164062-11.933593 6.070313-24.550781 10.808594-37.601562 14.054688-.167969.042969-.320312.113281-.476562.171875-4.355469-6.144532-8.59375-12.359375-12.714844-18.648438.796875-.890625 1.578125-1.796875 2.324218-2.742187 3.59375-4.539063 6.128907-9.285157 7.792969-14zm-42.515625 38.988281c9.207032-4.46875 18.574219-9.554688 26.539063-16.480469 19.835937 30.089844 42.359375 58.636719 67.023437 84.894531 1.597656 1.699219 3.21875 3.402344 4.839844 5.09375.136719.171876.285156.328126.445312.46875 1.960938 2.050782 3.917969 4.085938 5.847657 6.085938 9.964843 10.339844 20.269531 21.035156 29.277343 32.394531 13.144532 16.570313 21.636719 32.277344 25.886719 47.90625l-32.019531-.019531c-5.40625-20.5625-18.59375-40.074219-40.320312-59.628906-8.867188-7.980469-18.394532-15.378906-27.609376-22.53125-9.214843-7.15625-18.742187-14.554688-27.484374-22.453125-19.652344-17.753907-31.792969-35.289063-37.066407-53.515625 1.550781-.734375 3.101563-1.46875 4.640625-2.214844zm-68.539062 158.699219c-4.664063-2.800781-5.21875-10.183594-5.140625-17.035157.246093-22.175781.5-45.105468 5.707031-66.867187 4.015625-16.769531 12.917969-39.988281 32.554688-55.359375 7.035156-5.511719 15.210937-9.761719 23.402343-13.707031 5.882813 19.242187 18.6875 37.601562 39.035157 55.984375 8.964843 8.097656 18.613281 15.589844 27.945312 22.835937 9.101562 7.066407 18.511719 14.371094 27.160156 22.160157 19.777344 17.800781 32.003906 35.371093 37.335938 53.625l-128.269532-.082032c-2.832031-23.179687-2.574218-46.632812.789063-69.75.320313-2.203125-1.207031-4.25-3.410156-4.570312-2.210938-.320313-4.25 1.207031-4.570313 3.410156-3.417968 23.5-3.726562 47.335938-.933594 70.90625l-42.179687-.027344c-3.910156-.003906-7.089844-.117187-9.425781-1.523437zm314.167968-19.078125c-.214843 6.820312-.835937 14.394531-5.496093 17.988281-3.355469 2.59375-8.308594 2.804687-13.953125 2.796875l-32.429688-.023438c1.917969-25.039062.839844-50.289062-3.230468-75.070312-.363282-2.195312-2.4375-3.683594-4.632813-3.324219-2.199219.359375-3.6875 2.433594-3.324219 4.632813 3.996094 24.347656 5.035156 49.15625 3.101563 73.757812l-17.480469-.011718c-4.34375-17.410157-13.46875-34.742188-27.894531-52.921876-9.25-11.664062-19.691407-22.5-29.789063-32.976562-.820312-.855469-1.660156-1.730469-2.488281-2.589844 29.105469-17.375 53.257813-41.84375 70.265625-71.183594l1.332031.609376c12.054688 5.523437 24.515625 11.238281 34.460938 19.757812 18.121093 15.523438 25.683593 38.097656 28.832031 54.300781 4.089844 21.042969 3.398438 43.011719 2.726562 64.257813zm0 0"/></svg>