<svg height="512pt" viewBox="-86 0 512 512.00014" width="512pt" xmlns="http://www.w3.org/2000/svg"><path d="m171.648438 379.242188c-18.746094-14.128907-39.523438-31.117188-48.875-53.976563-3.105469-7.601563-10.613282-13.367187-22.953126-17.625-1.570312-.539063-3.175781-1.050781-4.75-1.554687l-.859374-.277344c-6.484376-2.070313-12.609376-4.027344-18.027344-7.484375l-3.820313-2.441407 2.894531-3.484374c3.003907-3.621094 6.511719-6.757813 10.425782-9.324219l2.804687-1.839844 2.300781 2.445313c5.316407 5.652343 12.140626 9.214843 18.714844 9.777343-2.09375-4.492187-3.574218-9.246093-4.492187-14.578125l-2.417969-14.09375 9.378906 10.792969c14.0625 16.171875 29.097656 31.640625 44.699219 45.976563 2.117187 1.941406 4.972656 4.554687 8.433594 4.882812.277343.03125.523437.042969.769531.042969 4.382812 0 8.285156-3.648438 10.617188-5.832031l55.539062-51.941407 1.210938 7.386719c.910156 5.546875 2.503906 10.394531 4.875 14.816406 1.773437-2.441406 3.449218-4.976562 5.039062-7.53125l1.910156-3.070312 13.707032 6.707031-.832032 3.167969c-2.882812 11.007812-11.328125 19.621094-17.902344 24.90625-4.847656 3.890625-10.171874 7.316406-15.320312 10.628906l-.296875.1875c-4.292969 2.765625-8.726563 5.621094-12.871094 8.738281-14.523437 10.933594-26.535156 26.203125-33.828125 43l-2.019531 4.65625zm0 0" fill="#939baa"/><path d="m171.914062 279.917969c-.949218 0-1.894531-.015625-2.84375-.050781-17.074218-.617188-33.816406-6.878907-47.148437-17.632813l-2.644531-2.136719 1.683594-2.957031c.375-.664063.738281-1.335937 1.085937-2.027344l2.113281-4.167969 3.792969 2.730469c11.890625 8.5625 26.445313 13.273438 40.984375 13.273438h.105469c.277343 0 .558593 0 .835937-.007813 15.082032-.226562 30.519532-5.742187 42.40625-15.136718l3.957032-3.128907 2.144531 4.566407c.8125 1.730468 1.765625 3.410156 2.832031 4.988281l2.558594 3.78125-4.085938 2.039062c-.042968.023438-.089844.046875-.132812.074219-13.640625 10.175781-30.574219 15.792969-47.644532 15.792969zm0 0" fill="#939baa"/><g fill="#644c4c"><path d="m101.304688 291.265625c-11.285157-5-18.019532-17.226563-20.359376-26.171875-2.921874-11.222656-2.351562-22.53125-1.746093-34.503906.140625-2.703125.277343-5.492188.378906-8.234375.601563-17.988281-.878906-36.246094-2.308594-53.898438-.976562-11.996093-1.980469-24.363281-2.324219-36.621093-1.042968-36.992188 5.035157-65.585938 18.582032-87.421876 12.335937-19.882812 33.035156-33.773437 56.796875-38.117187 8.082031-1.476563 15.832031-2.226563 23.039062-2.226563 18.992188 0 34.976563 5.125 47.511719 15.226563 7.695312 6.195313 14.570312 14.058594 20.441406 23.371094 5.8125 9.21875 10.582032 19.765625 14.167969 31.351562 6.25 20.230469 8.535156 41.28125 10.683594 64.726563 2.757812 30.054687 4.667969 57.105468.109375 83.808594-3.730469 21.84375-12.019532 43.304687-23.96875 62.066406l-4.554688 7.148437-2.625-8.058593c-2.664062-8.1875-3.332031-18.148438-2.042968-30.445313.445312-4.277344 1.078124-8.609375 1.6875-12.796875l.027343-.195312c1.203125-8.273438 2.449219-16.828126 2.34375-25.3125-.15625-12.191407-3.078125-24.292969-5.90625-35.996094-1.09375-4.503906-2.070312-8.558594-2.945312-12.65625-2.765625-13.019532-5.59375-32.222656 1.769531-48.679688-29.410156 1.765625-59.320312 2.683594-88.925781 2.683594-11.890625 0-23.902344-.148438-35.703125-.441406.011718 0-.03125.03125-.039063.042968-3.96875 16.367188-1.019531 33.414063 1.832031 49.894532l.019532.125c1.882812 10.914062 3.828125 22.203125 3.789062 33.3125-.042968 10.476562-1.847656 20.917968-3.589844 31.015625l-.03125.171875c-.792968 4.621094-1.613281 9.398437-2.257812 14.117187-1.328125 9.761719-2.605469 24.3125 1.589844 37.878907l2.597656 8.402343zm0 0"/><path d="m225.671875 263.496094c-7.132813-6.996094-11.058594-17.007813-10.5-26.773438l-.394531-2.261718 1.761718-1.441407c5.160157-4.339843 9.5625-9.226562 13.085938-14.515625l8.089844-12.144531-.765625 14.570313c-.339844 6.445312-1.253907 12.753906-2.222657 19.433593-.617187 4.222657-1.25 8.5625-1.707031 12.894531-.269531 2.511719-.449219 4.976563-.550781 7.542969l-.359375 9.007813zm0 0"/><path d="m103.976562 266.519531c-.054687-5.527343.355469-11.402343 1.246094-17.957031.632813-4.664062 1.445313-9.386719 2.230469-13.957031l.164063-.945313c.492187-2.90625.992187-5.84375 1.457031-8.800781l1.476562-9.402344 5.683594 7.636719c2.703125 3.628906 5.832031 7.023438 9.308594 10.085938l1.410156 1.246093-.058594 1.878907c-.394531 12.652343-6.511719 25.082031-16.367187 33.253906l-6.472656 5.371094zm0 0"/></g><path d="m170.777344 250.445312c-24.050782 0-47.871094-14.011718-59.316406-34.882812l-.988282-1.355469.140625-1.507812c.3125-3.421875.472657-6.515625.480469-9.453125.050781-11.183594-1.914062-22.5-3.8125-33.441406-2.777344-16.078126-5.402344-31.261719-2.539062-46.53125l.625-3.339844 3.398437.078125c10.703125.242187 21.601563.363281 32.390625.363281 27.484375 0 55.308594-.792969 82.699219-2.359375l5.746093-.328125-1.695312 5.5c-4.6875 15.230469-2.058594 31.902344.332031 43.121094.871094 4.097656 1.84375 8.160156 2.933594 12.660156 2.011719 8.308594 4.09375 16.898438 5.160156 25.476562l.238281 1.90625-1.324218 1.363282c-9.164063 23.121094-34.679688 41.007812-60.734375 42.617187-1.234375.074219-2.488281.113281-3.734375.113281zm0 0" fill="#ffdac4"/><path d="m165.871094 326.40625c-.257813 0-.511719-.011719-.765625-.035156-3.1875-.308594-5.785157-2.476563-8.386719-4.863282-15.964844-14.671874-31.320312-30.507812-45.648438-47.070312l-2.59375-3 2.976563-2.621094c1.941406-1.710937 3.722656-3.566406 5.296875-5.519531l2.492188-3.089844 3.109374 2.46875c13.238282 10.511719 29.828126 16.640625 46.71875 17.253907.933594.03125 1.886719.046874 2.84375.046874 17.089844 0 34.035157-5.617187 47.71875-15.824218-.011718.011718-.019531.015625-.023437.015625s.007813-.019531.019531-.039063l2.726563-3.855468 3.355469 3.320312c.875.867188 1.703124 1.605469 2.539062 2.269531l3.640625 2.882813-55.441406 51.851562c-3.011719 2.816406-6.554688 5.808594-10.578125 5.808594zm0 0" fill="#ffdac4"/><path d="m168.941406 266.886719c-15.089844 0-30.625-5.285157-42.625-14.503907l-2.214844-1.707031.839844-2.667969c.691406-2.203124 1.210938-4.417968 1.539063-6.585937l.945312-6.253906 5.246094 3.535156c11.289063 7.613281 24.765625 11.808594 37.945313 11.808594 1.300781 0 2.617187-.039063 3.90625-.113281 11.851562-.742188 23.792968-4.820313 34.519531-11.800782l5.558593-3.617187.605469 6.605469c.132813 1.445312.367188 2.914062.691407 4.371093l.582031 2.613281-2.191407 1.535157c-.058593.042969-.117187.082031-.179687.121093-12.191406 10.359376-28.253906 16.410157-44.171875 16.652344-.332031.003906-.664062.007813-.996094.007813zm0 0" fill="#ffdac4"/><path d="m173.140625 503.707031c2.035156-40.140625 3.125-80.863281 3.234375-121.039062l-.019531-.078125-.152344-1.054688.398437-.988281c7.175782-17.988281 19.601563-34.269531 34.988282-45.851563 4.289062-3.226562 8.941406-6.210937 13.046875-8.84375 5.1875-3.339843 10.550781-6.792968 15.445312-10.722656 10.648438-8.542968 17.082031-18.296875 18.609375-28.207031l-9.785156-4.808594-3.800781-1.859375 2.070312-3.691406c4.589844-8.171875 8.523438-16.804688 11.695313-25.652344l1.289062-3.601562 3.65625 1.128906c9.789063 3.027344 20.953125 7.15625 29.519532 14.832031 10.941406 9.792969 13.269531 21.738281 11.800781 29.648438-1.476563 7.933593-6.832031 14.945312-11.132813 20.578125-5.117187 6.726562-10.925781 14.359375-19.238281 18.125-5.691406 2.597656-11.8125 3.09375-18.289063 3.621094-2.9375.238281-5.949218.480468-8.882812.9375-21.976562 3.460937-40.761719 20.183593-46.734375 41.613281 5.941406-21.0625 25.136719-38.152344 46.746094-41.546875 2.964843-.46875 5.960937-.710938 8.859375-.945313 6.203125-.5 12.617187-1.019531 18.332031-3.625 6.992187-3.179687 12.398437-9.316406 16.769531-14.902343l2.777344-3.554688 3.195312 3.1875c22.792969 22.738281 32 53.429688 35.710938 75.167969 4.808594 28.160156 3.671875 57.003906 2.574219 84.894531-.316407 7.992188-1.09375 16.167969-6.714844 21.082031-4.335937 3.789063-10.410156 4.539063-16.777344 5.023438-12.855469.984375-26.164062 1.84375-40.6875 2.636719l-3.914062.214843-.292969-3.910156c-2.765625-37.148437-1.519531-74.613281 3.699219-111.351563-5.277344 36.675782-6.523438 74.082032-3.769531 111.167969l.300781 4.085938-4.089844.203125c-28.402344 1.417968-57.480469 2.1875-86.425781 2.285156l-4.226563.015625zm0 0" fill="#f9d889"/><path d="m169.078125 507.941406c-32.273437-.042968-65.257813-.953125-98.027344-2.71875l-3.863281-.207031.078125-3.867187c.695313-34.695313-1.425781-69.6875-6.300781-104.003907 4.800781 34.246094 6.925781 69.144531 6.25 103.722657l-.082032 4.15625-4.148437-.242188c-12.5-.726562-24.988281-1.578125-37.113281-2.535156-8.046875-.632813-16-2.070313-19.648438-8.226563-2.183594-3.707031-2.167968-8.40625-2.15625-12.183593v-.230469c.089844-31.296875.183594-63.664063 5.496094-95.085938 1.71875-10.148437 4.464844-23.300781 10.472656-35.027343 6.050782-11.777344 14.933594-20.855469 25.015625-25.566407l1.183594-.554687 1.28125.253906c3.066406.601562 6.492187.988281 10.785156 1.21875l1.609375.078125c9.304688.484375 18.882813.980469 26.222656 6.398437 2.199219 1.613282 4.101563 3.632813 5.945313 5.585938.820313.867188 1.761719 1.859375 2.710937 2.78125 4.496094 4.394531 9.855469 7.878906 15.03125 11.246094l.160157.105468c2.242187 1.460938 4.558593 2.976563 6.777343 4.542969 9.398438 6.640625 14.828126 13.128907 17.085938 20.421875-2.203125-7.328125-7.640625-13.828125-17.046875-20.476562-1.996094-1.414063-4.089844-2.777344-6.117187-4.101563l-.917969-.601562c-5.382813-3.507813-10.464844-6.820313-14.921875-11.171875-.769532-.753906-1.515625-1.53125-2.296875-2.347656l-.40625-.429688c-1.75-1.863281-3.699219-3.945312-5.972657-5.613281-7.359374-5.414063-17.375-5.9375-26.214843-6.398438l-1.632813-.082031c-9.601562-.515625-20.257812-2.019531-26.648437-9.292969-4.890625-5.589843-6.695313-14.402343-4.953125-24.183593 4.082031-22.863282 24.707031-41.488282 47.984375-43.324219l3.96875-.3125.332031 3.964843c.351562 4.21875.96875 7.96875 1.882812 11.460938 1.214844 4.671875 3.046876 8.972656 5.449219 12.796875l2.058594 3.277344-3.210937 2.164062c-4.90625 3.3125-9.246094 7.613281-12.546876 12.433594 6.117188 5.167969 13.941407 7.664063 21.503907 10.082031 1.96875.628906 3.832031 1.226563 5.664062 1.859375 12.304688 4.234375 19.800781 9.980469 22.914063 17.570313 10.253906 25.074218 34.375 43.136718 51.988281 56.328125l1.609375 1.207031-.007812 2.011719c-.152344 39.605469-1.234376 79.609375-3.226563 118.898437.003906.070313.003906.140625.003906.214844v4.003906zm0 0" fill="#f9d889"/><path d="m337.253906 390.894531c-5.503906-32.257812-18.382812-59.152343-37.242187-77.773437-.121094-.121094-.257813-.214844-.390625-.316406 3.984375-5.390626 8.144531-11.78125 9.511718-19.144532 2.132813-11.476562-2.882812-24.28125-13.085937-33.417968-9.109375-8.160157-20.695313-12.484376-30.871094-15.632813 2.15625-7.015625 3.875-14.15625 5.105469-21.367187 4.644531-27.210938 2.71875-54.53125-.0625-84.863282-2.175781-23.703125-4.496094-44.992187-10.851562-65.558594-7.46875-24.15625-19.898438-43.757812-35.945313-56.691406-18.339844-14.777344-43.175781-19.433594-73.824219-13.832031-24.890625 4.546875-46.589844 19.117187-59.527344 39.976563-13.976562 22.53125-20.253906 51.863281-19.183593 89.671874.347656 12.316407 1.355469 24.765626 2.332031 36.804688 1.421875 17.554688 2.894531 35.703125 2.292969 53.476562-.089844 2.699219-.230469 5.472657-.367188 8.15625-.257812 5.121094-.519531 10.320313-.480469 15.535157-24.914062 1.839843-47.550781 22.039062-51.945312 46.675781-1.152344 6.46875-1.921875 18.65625 5.898438 27.570312 2.269531 2.585938 4.945312 4.535157 7.863281 6.015626-8.027344 5.496093-14.992188 13.589843-20.058594 23.464843-6.273437 12.238281-9.101563 25.777344-10.863281 36.207031-5.382813 31.824219-5.4726565 64.441407-5.558594 95.980469-.0117188 4.277344-.0234375 9.597657 2.730469 14.25 5.226562 8.835938 17.105469 9.769531 22.816406 10.214844 48.328125 3.800781 96.992187 5.703125 145.667969 5.703125 47.25 0 94.507812-1.792969 141.429687-5.375 7.074219-.539062 13.863281-1.40625 19.136719-6.015625 6.835938-5.972656 7.765625-15.492187 8.097656-23.941406 1.109375-28.109375 2.253906-57.179688-2.625-85.773438zm-240.332031-344.371093c11.742187-18.929688 31.46875-32.15625 54.121094-36.296876 7.882812-1.4375 15.328125-2.15625 22.324219-2.15625 18.074218 0 33.148437 4.792969 44.992187 14.335938v.003906c14.792969 11.921875 26.308594 30.175782 33.300781 52.792969 6.128906 19.820313 8.390625 40.671875 10.527344 63.914063 2.730469 29.753906 4.628906 56.519531.144531 82.769531-3.65625 21.429687-11.707031 42.230469-23.402343 60.589843-2.507813-7.71875-3.101563-17.066406-1.871094-28.792968.445312-4.21875 1.074218-8.539063 1.683594-12.714844 1.234374-8.460938 2.511718-17.214844 2.402343-26.058594-.160156-12.652344-3.140625-24.976562-6.023437-36.894531-.996094-4.117187-2.027344-8.375-2.914063-12.546875-2.648437-12.46875-5.375-30.824219 1.503907-46.203125.574218-1.289063.4375-2.785156-.367188-3.941406-.800781-1.160157-2.144531-1.816407-3.5625-1.730469-41.191406 2.539062-82.992188 3.304688-124.246094 2.28125-1.875-.023438-3.570312 1.234375-4.015625 3.078125-4.179687 17.191406-1.160156 34.652344 1.761719 51.539063 1.867188 10.789062 3.792969 21.941406 3.753906 32.738281-.042968 10.089843-1.816406 20.386719-3.53125 30.347656-.808594 4.714844-1.648437 9.589844-2.308594 14.433594-1.4375 10.585937-2.636718 25.472656 1.734376 39.601562-9.253907-4.101562-15.695313-14.265625-18.113282-23.53125-2.765625-10.601562-2.207031-21.621093-1.617187-33.292969.136719-2.714843.28125-5.523437.375-8.289062.613281-18.234375-.875-36.621094-2.316407-54.398438-.96875-11.9375-1.96875-24.277343-2.308593-36.382812-1.023438-36.179688 4.855469-64.046875 17.972656-85.195312zm77.128906 329.523437c-17.839843-13.441406-38.464843-30.023437-47.574219-52.296875-3.574218-8.738281-11.867187-15.242188-25.355468-19.886719-1.890625-.648437-3.820313-1.265625-5.6875-1.863281-6.199219-1.980469-12.121094-3.871094-17.097656-7.050781 2.730468-3.292969 5.964843-6.183594 9.542968-8.53125 6.402344 6.8125 14.253906 10.425781 21.289063 11.023437.117187.007813.230469.011719.34375.011719 1.316406 0 2.558593-.644531 3.316406-1.738281.820313-1.191406.941406-2.730469.320313-4.035156-1.953126-4.074219-3.347657-8.535157-4.195313-13.484376 14.101563 16.222657 29.214844 31.785157 45.015625 46.304688 2.367188 2.171875 5.941406 5.457031 10.757812 5.921875.386719.035156.769532.054687 1.144532.054687 5.964844 0 10.722656-4.449218 13.351562-6.910156l50.074219-46.828125c.976563 5.976563 2.726563 11.277344 5.300781 16.0625.664063 1.230469 1.917969 2.03125 3.3125 2.113281 1.394532.070313 2.734375-.5625 3.535156-1.707031 1.773438-2.523437 3.476563-5.097656 5.113282-7.71875l7.519531 3.679688c-2.597656 9.878906-10.269531 17.765625-16.542969 22.800781-4.722656 3.792969-10 7.183594-15.101562 10.464844-4.410156 2.835937-8.96875 5.765625-13.285156 9.015625-15.1875 11.425781-27.503907 27.117187-35.097657 44.597656zm50.269531-208.90625c.910157 4.285156 1.953126 8.597656 2.960938 12.769531 2.070312 8.554688 4.050781 16.769532 5.078125 25.03125-.351563.367188-.640625.804688-.839844 1.304688-8.566406 21.714844-32.648437 38.574218-57.257812 40.09375-23.625 1.453125-48.027344-12.039063-59.355469-32.816406-.089844-.164063-.199219-.308594-.308594-.453126.292969-3.253906.484375-6.523437.5-9.808593.042969-11.503907-1.945312-23.015625-3.871094-34.144531-2.710937-15.679688-5.28125-30.546876-2.550781-45.101563 38.332031.859375 77.109375.1875 115.410157-2.003906-4.914063 15.949219-2.324219 33.09375.234374 45.128906zm-53.703124 87.375c1.378906 0 2.761718-.042969 4.140624-.128906 12.84375-.792969 25.5625-5.339844 36.464844-12.4375.152344 1.640625.410156 3.269531.769532 4.875-.097657.074219-.203126.128906-.296876.210937-11.46875 9.839844-26.714843 15.613282-41.824218 15.84375-14.601563.226563-29.507813-4.75-41.113282-13.664062.742188-2.355469 1.308594-4.757813 1.679688-7.191406 11.785156 7.945312 25.859375 12.492187 40.179688 12.492187zm-45.007813 2.40625c12.46875 8.96875 27.996094 14.023437 43.328125 14.023437.351562 0 .703125 0 1.054688-.007812 16.027343-.242188 32.179687-6.046875 44.777343-16.003906.898438 1.925781 1.945313 3.78125 3.136719 5.539062-.246094.113282-.480469.253906-.707031.421875-13.769531 10.277344-30.816407 15.597657-47.984375 14.972657-16.308594-.589844-32.105469-6.519532-44.78125-16.742188.410156-.722656.800781-1.457031 1.175781-2.203125zm-5.746094 8.886719c13.945313 11.066406 31.230469 17.472656 49.058594 18.117187.996094.035157 1.996094.054688 2.992187.054688 17.980469 0 35.667969-5.847657 50.109376-16.625.347656-.257813.628906-.578125.867187-.914063.917969.898438 1.867187 1.757813 2.875 2.558594l-52.050781 48.679688c-2.585938 2.414062-5.570313 4.964843-8.21875 4.714843-1.960938-.191406-3.992188-1.921875-6.074219-3.835937-15.929687-14.636719-31.152344-30.355469-45.328125-46.742188 2.089844-1.832031 4.023438-3.839844 5.769531-6.007812zm110.902344-26.003906c-.621094 4.253906-1.265625 8.65625-1.722656 13.039062-.285157 2.707031-.46875 5.292969-.570313 7.792969-6.242187-6.113281-9.8125-14.9375-9.308594-23.6875.015626-.296875-.003906-.585938-.046874-.863281 5.367187-4.523438 10.070312-9.707032 13.835937-15.367188-.324219 6.273438-1.234375 12.539062-2.1875 19.085938zm-121.582031 9.292968c.640625-4.707031 1.46875-9.507812 2.269531-14.152344.535156-3.125 1.074219-6.28125 1.570313-9.464843 2.914062 3.90625 6.234374 7.488281 9.871093 10.703125-.359375 11.582031-6.003906 22.90625-14.917969 30.292968-.054687-5.285156.347657-11.042968 1.207032-17.378906zm-99.515625 242.878906c-1.625-2.746093-1.613281-6.664062-1.601563-10.125.085938-31.210937.171875-63.488281 5.441406-94.660156 1.664063-9.855468 4.320313-22.613281 10.09375-33.871094 5.640626-11.003906 13.855469-19.433593 23.140626-23.769531 3.773437.738281 7.636718 1.089844 11.34375 1.285157l1.628906.085937c8.683594.449219 17.65625.910156 24.042968 5.609375 1.90625 1.402344 3.609376 3.207031 5.410157 5.113281.910156.960938 1.847656 1.953125 2.835937 2.917969 4.78125 4.664062 10.316406 8.265625 15.667969 11.75 2.253906 1.46875 4.585937 2.984375 6.78125 4.535156 8.636719 6.097656 13.582031 11.925782 15.570313 18.339844.535156 1.730469 2.128906 2.839844 3.847656 2.839844.394531 0 .796875-.058594 1.195312-.183594 2.128906-.65625 3.316406-2.914062 2.660156-5.042969-2.542968-8.203125-8.457031-15.363281-18.621093-22.539062-2.320313-1.640625-4.714844-3.199219-7.03125-4.707031-5.257813-3.421876-10.226563-6.65625-14.441407-10.765626-.871093-.851562-1.710937-1.742187-2.605468-2.683593-1.964844-2.082031-4.003906-4.234375-6.488282-6.066407-8.335937-6.132812-19-6.683593-28.40625-7.171874l-1.613281-.082032c-8.757812-.46875-18.4375-1.777344-23.839843-7.941406-4.085938-4.660156-5.554688-12.253906-4.023438-20.835938 3.761719-21.070312 23.066406-38.359374 44.359375-40.039062.339844 4.070312.949219 8.128906 2 12.144531 1.390625 5.335938 3.445313 9.960938 5.929687 13.902344-5.324218 3.589844-9.996093 8.203125-13.613281 13.496094-1.167969 1.710937-.847656 4.035156.742188 5.367187 6.734375 5.636719 14.957031 8.261719 22.910156 10.800782 1.847656.589843 3.691406 1.179687 5.511719 1.804687 11.164062 3.847656 17.875 8.855469 20.515625 15.316406 10.480469 25.617188 34.011719 43.570313 53.289062 58.011719-.144531 39.484375-1.230469 79.472656-3.230469 118.902344-.003906.074218.011719.144531.011719.21875-32.640625-.035156-65.28125-.953125-97.8125-2.707032.695313-34.890624-1.4375-70.097656-6.339843-104.648437-.3125-2.203125-2.351563-3.734375-4.558594-3.425781-2.203125.3125-3.738282 2.355468-3.425782 4.558594 4.832032 34.03125 6.9375 68.710937 6.265626 103.078124-12.359376-.722656-24.707032-1.5625-37.03125-2.53125-6.96875-.542968-13.789063-1.6875-16.511719-6.28125zm322.152343-15.625c-.277343 7.082032-.921874 14.320313-5.347656 18.1875-3.414062 2.984376-8.558594 3.597657-14.445312 4.046876-13.507813 1.03125-27.046875 1.894531-40.601563 2.628906-2.746093-36.800782-1.519531-73.957032 3.667969-110.484375.3125-2.207031-1.222656-4.246094-3.425781-4.558594-2.210938-.316406-4.246094 1.21875-4.558594 3.421875-5.261719 37.042969-6.507813 74.722656-3.734375 112.039062-28.695312 1.425782-57.464844 2.183594-86.242188 2.273438 2.035157-40.203125 3.128907-80.988281 3.246094-121.226562 0-.222657-.03125-.441407-.066406-.652344 6.90625-17.320313 18.800781-32.9375 33.683594-44.136719 4.078125-3.070313 8.511718-5.917969 12.796875-8.675781 5.277343-3.394532 10.738281-6.902344 15.792969-10.960938 11.441406-9.1875 18.378906-19.8125 20.054687-30.722656.269531-1.742188-.625-3.457031-2.210937-4.230469l-9.761719-4.78125c4.703125-8.394531 8.710937-17.191406 11.960937-26.257812 9.382813 2.894531 20.039063 6.820312 28.039063 13.988281 9.707031 8.6875 11.804687 19.097656 10.535156 25.9375-1.292969 6.96875-6.121094 13.300781-10.375 18.886719-4.84375 6.351562-10.328125 13.550781-17.710937 16.910156-5.074219 2.308594-10.859376 2.777344-16.984376 3.273437-2.992187.242188-6.089843.492188-9.15625.972657-23.496093 3.695312-43.578124 21.574219-49.96875 44.484375-.597656 2.144531.65625 4.367187 2.800782 4.96875.359375.097656.726562.148437 1.082031.148437 1.765625 0 3.386719-1.167969 3.882813-2.949219 5.472656-19.613281 23.339843-35.523437 43.457031-38.683593 2.765625-.4375 5.578125-.664063 8.554687-.90625 6.546875-.53125 13.316406-1.078125 19.671875-3.972657 7.78125-3.539062 13.550781-10.070312 18.261719-16.085937 22.027344 21.988281 30.96875 51.808594 34.589844 73.015625 4.734375 27.761719 3.605468 56.402344 2.511718 84.101562zm0 0"/></svg>