<svg height="512pt" viewBox="-92 0 512 512.00198" width="512pt" xmlns="http://www.w3.org/2000/svg"><path d="m186.953125 355.113281c-4.082031 0-8.304687-1.273437-11.886719-3.582031-4.101562-2.640625-7.476562-6.46875-10.023437-11.378906l-2.304688-4.441406 4.84375-1.269532c3.976563-1.042968 7.691407-3.808594 10.484375-6.101562 10.660156-8.746094 20.03125-18.988282 27.855469-30.445313l5.6875-8.328125 1.566406 9.960938c2.121094 13.472656.171875 27.066406-5.636719 39.308594-3.695312 7.792968-8.34375 12.847656-13.816406 15.019531-2.097656.835937-4.375 1.257812-6.769531 1.257812zm0 0" fill="#bc88e5"/><path d="m135.308594 357.621094c-1.058594 0-2.109375-.089844-3.121094-.273438-7.28125-1.292968-13.777344-7.597656-16.535156-16.058594-2.535156-7.78125-2.003906-16.132812-1.046875-24 .171875-1.425781.351562-2.851562.542969-4.289062.539062-4.121094.972656-7.570312 1.195312-11.167969l.652344-10.539062 6.492187 8.328125c8.339844 10.695312 17.765625 20.484375 28.011719 29.097656 2.339844 1.96875 4.886719 3.949219 7.644531 5.101562l4.589844 1.910157-2.855469 4.074219c-2.730468 3.902343-6.09375 8.355468-10.292968 11.792968-4.730469 3.882813-10.160157 6.023438-15.277344 6.023438zm0 0" fill="#bc88e5"/><path d="m302.386719 507.929688c-.519531 0-1.042969-.003907-1.574219-.007813l-31.351562-.359375 1.222656-4.90625c2.804687-11.289062 6.296875-25.335938 7.039062-39.160156.816406-15.398438-1.996094-29.226563-8.140625-39.992188-1.722656-3.007812-3.746093-5.882812-5.53125-8.425781-3.167969-4.519531-6.15625-8.785156-8.109375-13.765625-5.28125-13.433594-.984375-27.242188 2.050782-34.277344 4.28125-9.972656 10.804687-18.664062 17.675781-27.421875l2.582031-3.296875 3.171875 2.734375c17.761719 15.289063 30.535156 37.488281 36.941406 64.195313 7.03125 29.371094 5.515625 59.460937 3.105469 85.019531-.582031 6.175781-1.625 13.078125-6.640625 16.773437-3.621094 2.667969-8.324219 2.890626-12.441406 2.890626zm0 0" fill="#985bbc"/><path d="m169.601562 506.386719-.292968-3.632813c-4.085938-50.59375-6.449219-102.242187-7.023438-153.507812l-.121094-10.867188 7.136719 8.195313c1.738281 1.996093 3.671875 3.6875 5.742188 5.027343 3.570312 2.289063 7.816406 3.554688 11.945312 3.554688 2.410157 0 4.679688-.417969 6.753907-1.242188 5.492187-2.1875 10.15625-7.253906 13.855468-15.058593 5.203125-10.988281 7.324219-23.234375 6.132813-35.417969l-1.136719-11.664062 8.03125 8.535156c2.113281 2.242187 4.441406 4.339844 6.929688 6.242187 2.777343 2.128907 5.902343 4.210938 9.554687 6.363281l2.886719 1.707032-1.175782 3.140625c-21.914062 58.515625-32.402343 122.453125-30.328124 184.902343l.136718 4.183594zm0 0" fill="#985bbc"/><path d="m124.761719 505.863281.105469-4.058593c1.65625-63.839844-16.542969-127.460938-32.597657-183.59375l-.808593-2.828126 2.453124-1.613281c6.21875-4.09375 11.203126-8.285156 15.246094-12.820312l8.003906-8.984375-1.035156 11.988281c-.253906 2.960937-.640625 5.976563-1.050781 9.0625l-.542969 4.28125c-.953125 7.851563-1.484375 16.210937 1.0625 24.023437 2.769532 8.46875 9.28125 14.785157 16.589844 16.089844 1 .179688 2.039062.269532 3.078125.269532 5.152344 0 10.609375-2.144532 15.367187-6.035157 1.5625-1.285156 3.074219-2.75 4.617188-4.476562l6.867188-7.707031.117187 10.324218c.570313 50.730469 2.90625 101.949219 6.949219 152.234375l.351562 4.371094zm0 0" fill="#985bbc"/><path d="m17.167969 504.609375c-3.320313-.035156-6.503907-.214844-8.910157-1.96875-3.605468-2.644531-4.128906-7.699219-4.152343-12.769531-.140625-27.199219-.289063-55.261719 5.984375-82.199219 6.199218-26.601563 18.902344-49.507813 35.769531-64.5l3.351563-2.984375 2.578124 3.675781c6.8125 9.699219 13.855469 20.121094 18.589844 31.511719 4.089844 9.824219 8.105469 24.683594 4.027344 39.683594-2.019531 7.40625-5.683594 13.894531-9.570312 20.761718-2.820313 4.988282-5.742188 10.140626-7.882813 15.648438-5.230469 13.4375-5.976563 29.839844-2.222656 48.753906l.957031 4.835938zm0 0" fill="#985bbc"/><path d="m244.78125 81.871094c-4.515625-8.292969-10.757812-15.921875-18.546875-22.667969l-11.246094-9.746094 14.617188 2.792969c6.386719 1.222656 12.132812 4.519531 16.179687 9.292969 4.210938 4.972656 6.582032 11.699219 6.511719 18.460937l-.164063 15.363282zm0 0" fill="#d34242"/><path d="m77.695312 81.859375c-.558593-7.433594 1.785157-14.839844 6.441407-20.320313 5.007812-5.902343 12.757812-9.554687 20.730469-9.769531l12.0625-.320312-9.480469 7.464843c-6.949219 5.46875-13.078125 11.75-18.214844 18.667969-1.398437 1.882813-2.761719 3.882813-4.167969 6.113281l-6.460937 10.234376zm0 0" fill="#d34242"/><g fill="#ffbf48"><path d="m251.921875 74.867188c-.867187-5.0625-2.976563-9.6875-6.097656-13.371094-3.917969-4.625-9.539063-7.886719-15.832031-9.1875l-3.191407-.660156.003907-3.261719c.007812-11.097657 3.945312-22.042969 10.804687-30.03125 7.476563-8.730469 18.539063-14.074219 29.578125-14.285157.21875-.003906.441406-.003906.667969-.003906 14.121093 0 28.175781 8.894532 34.175781 21.628906 6.132812 13.015626 3.878906 29.726563-5.480469 40.640626-7.027343 8.183593-17.902343 13.066406-29.097656 13.066406-3.523437 0-6.964844-.488282-10.234375-1.457032l-4.5 1.636719zm0 0"/><path d="m208.695312 506.84375-.128906-3.816406c-2.117187-62.121094 8.21875-125.777344 29.886719-184.089844l1.585937-4.265625 4.027344 2.117187c2.339844 1.230469 4.851563 2.519532 8.144532 4.179688 7.117187 3.589844 14.472656 7.304688 21.171874 11.890625.488282.335937.964844.675781 1.433594 1.015625l3.351563 2.4375-2.554688 3.261719c-6.890625 8.804687-13.429687 17.523437-17.683593 27.433593-5.238282 12.1875-5.964844 24.378907-2.046876 34.324219 1.960938 5 5.089844 9.464844 8.113282 13.78125l.1875.269531c1.917968 2.742188 3.730468 5.332032 5.34375 8.152344 6.136718 10.753906 8.949218 24.574219 8.128906 39.957032-.726562 13.746093-4.097656 27.324218-7.363281 40.453124l-.554688 3.617188zm0 0"/><path d="m84.550781 181.636719c-2.128906 0-5.21875-.226563-7.46875-2.195313-1.863281-1.621094-2.757812-4.152344-3.449219-6.394531-10.039062-32.320313-4.042968-68.886719 15.648438-95.421875 9.089844-12.234375 21.292969-22.472656 35.289062-29.601562 7.550782-3.832032 27.273438-12.746094 47.359376-12.746094 7.429687 0 14.234374 1.238281 20.222656 3.675781 20.53125 8.363281 47.136718 24.460937 57.320312 53.648437 8.550782 24.480469 5.800782 53.800782-7.542968 80.4375l-1.609376 3.214844-3.367187-1.257812c-23.90625-8.9375-41.238281-34.632813-42.148437-62.488282-3.3125 13.441407-10.019532 26.105469-19.464844 36.625l-6.773438-3.933593c2.484375-7.5 4.351563-15.269531 5.554688-23.097657-7.808594 16.316407-20.136719 30.574219-35.71875 41.21875-15.582032 10.648438-33.347656 16.949219-51.375 18.21875-.960938.066407-1.746094.097657-2.476563.097657zm0 0"/><path d="m55.339844 505.058594-.324219-3.6875c-4.019531-19.351563-3.347656-36.132813 1.992187-49.878906 2.074219-5.335938 4.8125-10.195313 7.710938-15.34375l.171875-.300782c3.710937-6.566406 7.546875-13.347656 9.578125-20.773437 4.085938-15.015625.058594-29.890625-4.035156-39.726563-4.761719-11.457031-11.660156-21.664062-18.910156-31.976562l-2.261719-3.21875 3.179687-2.316406c7.207032-5.246094 15.441406-9.570313 22.703125-13.386719l.292969-.152344c2.988281-1.578125 6.082031-3.207031 9.074219-4.871094.8125-.449219 1.628906-.917969 2.464843-1.402343l4.441407-2.585938 1.414062 4.945312c15.773438 55.214844 33.648438 117.800782 31.972657 181.542969l-.105469 3.9375zm0 0"/><path d="m72.703125 77.953125c-3.269531.957031-6.714844 1.449219-10.238281 1.449219-11.199219 0-22.078125-4.882813-29.097656-13.070313-9.363282-10.917969-11.621094-27.628906-5.492188-40.636719 6.109375-12.9375 19.878906-21.628906 34.269531-21.628906l.566407.003906c11.046874.210938 22.109374 5.550782 29.601562 14.285157 6.847656 7.996093 10.78125 18.941406 10.792969 30.03125l.003906 3.257812-3.195313.664063c-6.289062 1.300781-11.910156 4.5625-15.828124 9.1875-3.125 3.6875-5.230469 8.308594-6.085938 13.363281l-.800781 4.707031zm0 0"/></g><path d="m166.863281 272.183594c-15.984375 0-33.667969-5.140625-47.304687-13.753906-13.28125-8.390626-22.363282-21.347657-24.304688-34.652344l-.019531-.148438c-.332031-2.273437-.6875-4.054687-2.058594-5.109375-1.238281-.953125-2.867187-.960937-4.441406-.96875h-.378906c-6.058594-.074219-12.597657-1.820312-17.542969-4.667969-6.566406-3.78125-10.300781-9.40625-10.523438-15.835937-.28125-7.695313 4.144532-15.429687 11.019532-19.238281l2.859375-1.582032 2.121093 2.488282c.28125.332031.519532.574218.742188.765625 1.734375 1.519531 4.113281 2.21875 7.503906 2.21875.875 0 1.761719-.050781 2.511719-.101563 28.636719-2.011718 55.675781-16.25 74.171875-39.058594l6.890625 3.8125c-1.675781 4.917969-3.671875 9.851563-5.9375 14.652344 11.734375-8.390625 21.183594-19.949218 27.371094-33.386718l4.675781-10.15625 2.828125 10.816406c6.027344 23.050781 23.019531 41.867187 43.296875 47.929687 1.136719-2.082031 2.199219-4.222656 3.285156-6.554687l1.660156-3.574219 3.597657 1.609375c9.378906 4.191406 14.902343 15.113281 12.582031 24.867188-2.214844 9.285156-11.660156 16.558593-21.503906 16.558593-1.414063 0-2.820313-.148437-4.175782-.445312-2.902343 29-25.539062 54.992187-53.851562 61.828125-4.636719 1.121094-9.707031 1.6875-15.074219 1.6875zm0 0" fill="#ffdac4"/><path d="m164.1875 334.832031c-.355469 0-.707031-.015625-1.0625-.046875-4.453125-.402344-8.164062-3.242187-11.582031-6.109375-12.753907-10.726562-24.085938-23.082031-33.679688-36.734375l-1.277343-1.8125.863281-2.042968c3.03125-7.183594 3.910156-14.902344 2.46875-21.730469l-1.734375-8.246094 7.484375 3.867187c12.605469 6.507813 27.675781 10.242188 41.347656 10.242188 5.339844 0 10.363281-.558594 14.933594-1.65625 6.816406-1.644531 13.425781-4.4375 19.644531-8.300781l5.761719-3.582031.34375 6.777343c.042969.8125.082031 1.605469.113281 2.398438.265625 6.113281.515625 11.84375 2.980469 17.613281.164062.398438.332031.769531.5 1.128906l1.40625 3.027344-2.730469 1.921875c-8.539062 13.992187-19.28125 26.351563-31.933594 36.742187-3.941406 3.234376-8.667968 6.542969-13.847656 6.542969zm0 0" fill="#ffdac4"/><path d="m322.3125 402.304688c-7.550781-31.523438-24.113281-57.375-46.632812-72.796876-6.898438-4.726562-14.390626-8.507812-21.636719-12.164062-8.605469-4.347656-16.738281-8.449219-24.019531-14.019531-6.890626-5.265625-12.394532-12.175781-15.496094-19.449219-2.175782-5.105469-2.410156-10.5-2.65625-16.210938-.101563-2.414062-.21875-4.90625-.472656-7.464843 14.515624-11.691407 24.917968-28.640625 27.871093-47.035157 11.761719.34375 23.375-8.027343 26.148438-19.667968 2.824219-11.832032-4.019531-24.761719-14.992188-29.597656 9.375-24.140626 10.621094-49.488282 3.257813-71.527344.128906-.203125.25-.417969.347656-.648438 1.289062-3.125 2.015625-6.457031 2.230469-9.828125 3.59375 1.042969 7.328125 1.550781 11.074219 1.550781 12.144531 0 24.402343-5.261718 32.292968-14.464843 10.375-12.09375 12.875-30.609375 6.078125-45.019531-6.796875-14.410157-22.65625-24.257813-38.597656-23.9531255-12.179687.2343755-24.363281 6.1054685-32.589844 15.7070315-7.386719 8.617187-11.617187 20.195312-11.773437 32.03125-1.433594.070312-2.855469.234375-4.265625.503906-7.332031-4.941406-15.613281-9.316406-24.796875-13.058594-26.476563-10.792968-58.4375 2.851563-70.949219 9.21875-2.933594 1.492188-5.785156 3.121094-8.554687 4.863282-.460938-.375-1-.664063-1.621094-.804688-1.773438-.410156-3.578125-.636719-5.390625-.722656-.15625-11.835938-4.386719-23.414063-11.773438-32.03125-8.230469-9.601563-20.410156-15.472656-32.589843-15.7070315-15.925782-.3085935-31.804688 9.5429685-38.597657 23.9531255-6.796875 14.414062-4.296875 32.925781 6.074219 45.019531 7.894531 9.203125 20.152344 14.46875 32.292969 14.464843 3.746093 0 7.484375-.507812 11.078125-1.546874.214844 3.367187.941406 6.699218 2.230468 9.824218.023438.050782.050782.097656.074219.148438-12.113281 25.039062-14.628906 55.042968-6.265625 82.191406-8.351562 4.429688-13.800781 13.617188-13.46875 23.132812.546875 15.613282 16.914063 24.230469 32.042969 24.414063l.433594.003906c.605469.003907 1.59375.007813 1.976562.128907.238281.421874.417969 1.660156.527344 2.417968l.027344.207032c1.910156 13.125 10.164062 25.878906 22.347656 34.867187-.078125.742187.042969 1.515625.402344 2.230469 4.566406 9.082031 3.03125 21.550781-3.914063 31.769531-7.09375 10.4375-18.441406 17.582031-27.53125 22.640625-3.050781 1.695312-6.21875 3.363281-9.285156 4.976562-8.046875 4.238282-16.371094 8.617188-23.910156 14.214844-20.664063 15.34375-36.007813 40.800782-43.203125 71.683594-6.390625 27.421875-6.238281 55.75-6.089844 83.140625.0195312 3.835937.0625 11.8125 5.796875 16.019531 3.644531 2.675782 8.054688 2.726563 11.277344 2.765625l283.65625 3.3125c.59375.007813 1.214844.015625 1.859375.015625 4.515625 0 10.082031-.359375 14.601562-3.695312 6.902344-5.089844 7.796875-14.566406 8.277344-19.65625 2.441406-25.882813 3.972656-56.382813-3.203125-86.347656zm-51.1875-66.148438c.453125.3125.898438.628906 1.34375.949219-6.824219 8.710937-13.683594 17.777343-18.214844 28.328125-5.652344 13.148437-6.394531 26.421875-2.09375 37.371094 2.132813 5.421874 5.402344 10.089843 8.566406 14.605468 1.929688 2.757813 3.753907 5.363282 5.324219 8.113282 5.757813 10.085937 8.390625 23.140624 7.613281 37.753906-.714843 13.425781-4.058593 26.863281-7.292968 39.859375-.03125.128906-.035156.253906-.054688.382812l-53.75-.628906c-2.101562-61.667969 8.140625-124.703125 29.640625-182.566406 2.738281 1.449219 5.484375 2.84375 8.203125 4.214843 7.007813 3.539063 14.257813 7.199219 20.714844 11.617188zm-46-26.425781c3.1875 2.4375 6.535156 4.609375 9.953125 6.628906-22.113281 59.039063-32.679687 123.4375-30.582031 186.4375l-31.207032-.363281c-4.09375-50.761719-6.4375-102.257813-7-153.234375 1.816407 2.09375 3.980469 4.082031 6.585938 5.753906 6.851562 4.40625 15.414062 5.433594 22.34375 2.679687 6.464844-2.570312 11.84375-8.308593 15.992188-17.058593 5.539062-11.6875 7.757812-24.722657 6.507812-37.519531 2.25 2.386718 4.722656 4.625 7.40625 6.675781zm-106.550781 8.035156c.167969-1.410156.355469-2.820313.539062-4.230469.492188-3.753906.984375-7.578125 1.222657-11.453125 8.46875 10.859375 18.039062 20.828125 28.589843 29.699219 2.519531 2.117188 5.363281 4.347656 8.679688 5.730469-2.832031 4.042969-5.859375 7.96875-9.546875 10.988281-4.855469 3.976562-10.382813 5.769531-15.160156 4.914062-5.855469-1.046874-11.128907-6.289062-13.4375-13.359374-2.300782-7.03125-1.785157-14.867188-.886719-22.289063zm90.648437-17.617187c1.976563 12.515624.148438 25.480468-5.296875 36.972656-3.246093 6.847656-7.179687 11.226562-11.683593 13.019531-4.554688 1.808594-10.304688 1.054687-15.007813-1.96875-4.105469-2.636719-6.84375-6.414063-8.636719-9.859375 4.539063-1.1875 8.542969-4.03125 12.011719-6.878906 11.015625-9.046875 20.605469-19.554688 28.613281-31.285156zm-5.40625-32.136719c.265625 6.179687.539063 12.566406 3.292969 19.023437.179687.417969.367187.832032.558594 1.246094-.441407.308594-.828125.707031-1.125 1.199219-8.296875 13.59375-18.742188 25.613281-31.050781 35.71875-3.625 2.976562-7.890626 5.96875-12.011719 5.597656-3.308594-.300781-6.441407-2.726563-9.367188-5.1875-12.5-10.507813-23.585937-22.613281-32.976562-35.96875 3.359375-7.964844 4.308593-16.472656 2.695312-24.109375 13.34375 6.886719 28.921875 10.6875 43.1875 10.6875 5.5625 0 10.921875-.578125 15.871094-1.773438 7.378906-1.78125 14.390625-4.800781 20.816406-8.789062.039063.789062.074219 1.578125.109375 2.355469zm38.914063-203.882813c3.699219 4.359375 5.621093 10.117188 5.566406 15.832032-4.757813-8.742188-11.28125-16.707032-19.4375-23.78125 5.335937 1.023437 10.355469 3.800781 13.871094 7.949218zm-2.085938-43.167968c6.75-7.882813 16.703125-12.699219 26.621094-12.894532 12.839844-.246094 25.664063 7.703125 31.148437 19.335938 5.484376 11.628906 3.46875 26.570312-4.902343 36.328125-8.371094 9.761719-22.832031 14.03125-35.160157 10.382812-.851562-.25-1.714843-.199219-2.488281.078125-.953125-5.597656-3.316406-10.953125-6.984375-15.277344-4.597656-5.421874-11.113281-9.085937-18.070312-10.523437.003906-10.160156 3.550781-20.097656 9.835937-27.429687zm-169.082031 53.152343c-12.332031 3.648438-26.789062-.621093-35.160156-10.382812-8.371094-9.757813-10.386719-24.699219-4.902344-36.332031 5.484375-11.628907 18.289062-19.539063 31.148438-19.332032 9.914062.191406 19.867187 5.011719 26.621093 12.894532 6.285157 7.332031 9.828125 17.269531 9.835938 27.425781-6.957031 1.441406-13.476563 5.105469-18.070313 10.523437-3.671875 4.328125-6.03125 9.683594-6.984375 15.277344-.777343-.273438-1.640625-.324219-2.488281-.074219zm15.621094-9.984375c4.367187-5.152344 11.054687-8.179687 17.792968-8.363281-7.191406 5.667969-13.59375 12.214844-18.953124 19.4375-1.527344 2.058594-2.96875 4.183594-4.339844 6.355469-.464844-6.226563 1.457031-12.664063 5.5-17.429688zm5.316406 15.878906c8.714844-11.742187 20.433594-21.566406 33.890625-28.414062 8.988281-4.574219 40.199219-18.738281 64.25-8.9375 19.765625 8.054688 45.363281 23.488281 55.058594 51.257812 8.238281 23.59375 5.542969 51.601563-7.339844 77.335938-22.257813-8.320312-38.691406-32.503906-39.554687-58.875-.066407-2.015625-1.613282-3.671875-3.621094-3.878906-2-.207032-3.855469 1.101562-4.328125 3.0625-3.105469 12.867187-9.605469 24.996094-18.488281 34.898437 2.5625-7.726562 4.472656-15.667969 5.703124-23.746093.304688-1.976563-.890624-3.878907-2.804687-4.464844-1.914063-.585938-3.964844.320312-4.824219 2.128906-7.433594 15.6875-19.292968 29.394531-34.292968 39.640625-15.003907 10.25-32.085938 16.308594-49.402344 17.53125-2.636719.183594-5.527344.195313-7.035156-1.117187-1.070313-.9375-1.726563-2.84375-2.257813-4.558594-9.664063-31.136719-3.898437-66.339844 15.046875-91.863282zm6.710938 143.195313-.027344-.195313c-.320313-2.199218-.796875-5.527343-3.570313-7.660156-2.292969-1.769531-4.929687-1.785156-6.859375-1.800781l-.394531-.003906c-9.761719-.117188-23.683594-5.355469-24.078125-16.632813-.21875-6.28125 3.472656-12.5625 8.960938-15.601562.359374.414062.738281.820312 1.171874 1.199218 2.945313 2.566407 6.605469 3.1875 10.125 3.1875.941407 0 1.871094-.042968 2.773438-.105468 30.015625-2.117188 58.234375-17.367188 77.015625-40.53125-1.652344 4.84375-3.582031 9.59375-5.773437 14.238281-.785157 1.660156-.347657 3.644531 1.066406 4.820313 1.414062 1.175781 3.445312 1.246093 4.9375.167968 12.292968-8.871094 22.246094-21.152344 28.613281-34.992187 6.277344 24.015625 23.921875 44.132812 46.019531 50.738281 1.835938.550781 3.804688-.269531 4.710938-1.957031 1.191406-2.226563 2.304687-4.476563 3.351562-6.738281 7.425782 3.324218 12.222656 12.316406 10.320313 20.285156-2.101563 8.816406-12.074219 15.078125-20.925781 13.132812-1.125-.246094-2.300782 0-3.234376.675782-.929687.675781-1.527343 1.71875-1.640624 2.867187-2.710938 27.339844-24.066407 51.863281-50.777344 58.308594-17.746094 4.285156-41.578125-.363281-59.300782-11.5625-12.308593-7.777344-20.714843-19.679688-22.484374-31.839844zm12.9375 80.40625c-.25 2.902344-.632813 5.851563-1.027344 8.878906-.1875 1.4375-.378906 2.875-.550782 4.308594-1.011718 8.34375-1.558593 17.234375 1.222657 25.761719 3.222656 9.855468 10.949219 17.230468 19.6875 18.792968 1.242187.222657 2.507812.332032 3.789062.332032 6.039063 0 12.382813-2.429688 17.894531-6.941406 1.835938-1.503907 3.515626-3.164063 5.070313-4.910157.574219 50.742188 2.90625 101.980469 6.964844 152.507813l-36.332031-.425782c1.652343-63.53125-15.695313-125.160156-32.746094-184.804687 5.550781-3.664063 11.199218-8.089844 16.027344-13.5zm-35.144532 24.375c3.105469-1.632813 6.316406-3.324219 9.453125-5.066406.824219-.460938 1.671875-.941407 2.527344-1.433594 16.691406 58.421875 33.441406 118.746094 31.816406 180.335937l-61.796875-.722656c-.011718-.109375-.011718-.214844-.03125-.324218-3.902344-18.695313-3.308594-34.789063 1.765625-47.832032 2.011719-5.167968 4.742188-10.003906 7.636719-15.128906 3.835938-6.789062 7.804688-13.8125 9.945312-21.679688 4.386719-16.101562.140626-31.902343-4.191406-42.324218-4.945312-11.882813-12.144531-22.507813-19.332031-32.734375 6.882813-5.011719 14.664063-9.121094 22.207031-13.089844zm-66.390625 171.421875c-2.164062-1.585938-2.484375-5.53125-2.503906-9.558594-.148437-26.929687-.296875-54.773437 5.878906-81.273437 6.078125-26.089844 18.234375-47.9375 34.527344-62.417969 6.828125 9.734375 13.621094 19.816406 18.167969 30.75 3.847656 9.253906 7.644531 23.207031 3.859375 37.105469-1.878907 6.898437-5.429688 13.183593-9.1875 19.835937-2.90625 5.144532-5.910157 10.464844-8.128907 16.167969-5.519531 14.183594-6.324218 31.335937-2.421874 50.988281l-33.585938-.394531c-2.765625-.03125-5.167969-.144531-6.605469-1.203125zm306.875-11.515625c-.5 5.3125-1.34375 11.207031-5.035156 13.929687-2.761719 2.039063-6.882813 2.15625-11.582031 2.105469l-26.308594-.308593c3.210938-12.910157 6.425781-26.234376 7.15625-39.910157.859375-16.164062-2.136719-30.75-8.664062-42.183593-1.753907-3.070313-3.773438-5.953126-5.726563-8.738282-3.023437-4.316406-5.878906-8.398437-7.660156-12.929687-4.75-12.085938-.789063-24.761719 1.996093-31.238281 4.128907-9.617188 10.648438-18.234376 17.148438-26.535157 16.960938 14.601563 29.476562 36.285157 35.660156 62.101563 6.898438 28.816406 5.398438 58.488281 3.015625 83.707031zm0 0"/></svg>