<svg height="511pt" viewBox="-92 1 511 511.99995" width="511pt" xmlns="http://www.w3.org/2000/svg"><path d="m253.984375 106.808594c-28.597656-16.640625-62.453125-25.871094-95.335937-25.996094h-.683594c-9.746094 0-19.59375.765625-29.261719 2.28125-18.042969 2.832031-35.558594 8.199219-52.066406 15.957031-4.152344 1.953125-8.199219 4.035157-12.035157 6.1875-.277343.167969-.621093.363281-.960937.558594l-6.046875 3.480469.050781-6.972656c.046875-6.789063 1.257813-16.722657 4.515625-22.378907 3.578125-6.261719 10.679688-9.5625 16.46875-11.738281 12.347656-4.652344 26.625-7.617188 44.921875-9.328125 10.6875-1.007813 21.53125-1.515625 32.234375-1.515625 26.53125 0 53.117188 3.105469 79.019532 9.234375 5.773437 1.367187 11.304687 2.898437 15.609374 6.554687 5.601563 4.738282 7.785157 12.210938 8.632813 17.640626.597656 3.925781.757813 7.816406.914063 11.582031l.308593 8.109375zm0 0" fill="#ffbf48"/><path d="m215.445312 400.039062c-2.394531 0-4.847656-.367187-7.292968-1.097656-12.332032-3.664062-20.355469-17.679687-17.167969-29.992187 2.273437-8.828125 8.816406-15.46875 17.5-17.765625 2.132813-.5625 4.277344-.84375 6.378906-.84375 6.707031 0 13.039063 2.722656 17.839844 7.664062 9.769531 10.078125 7.863281 22.53125 3.265625 30.136719-3.488281 5.753906-10.707031 11.898437-20.523438 11.898437zm0 0" fill="#ffbf48"/><path d="m235.734375 297.394531c-3.25-2.710937-6.101563-5.289062-8.710937-7.890625-9.179688-9.125-24.421876-27.894531-23.605469-51.214844-.003907-.0625-.003907-.125-.003907-.1875v-1.894531l1.460938-1.199219c17.414062-14.296874 28.191406-35.816406 28.832031-57.566406.429688-14.792968-3.710937-28.109375-11.664062-37.496094-7.976563-9.414062-19.527344-14.84375-30.695313-20.09375l-2.890625-1.363281c-9.902343-4.699219-20.871093-10.660156-27.210937-19.253906-.617188-.828125-1.441406-1.78125-2.375-1.78125-.066406 0-.132813.003906-.199219.011719-.800781.089844-1.382813.753906-1.910156 1.425781-6.875 8.765625-15.429688 14.761719-22.894531 19.472656-3.128907 1.972657-6.367188 3.886719-9.496094 5.738281l-.175782.105469c-6.5625 3.890625-13.351562 7.914063-19.5625 12.695313-15.222656 11.691406-23.664062 32.21875-21.511718 52.300781 2.039062 18.984375 13.199218 37.273437 29.855468 48.917969.613282.429687 1.238282.839844 1.867188 1.242187l1.492188.957031.292968 1.746094c1.679688 9.976563-1.371094 25.417969-14.964844 38.832032-3.6875 3.640624-8.015624 7.070312-13.226562 10.488281l-1.464844.960937-1.789062-.449218c-1.53125-.246094-3.101563-.445313-4.839844-.660157-6.472656-.789062-13.171875-1.609375-17.945312-5.933593-5.839844-5.285157-8.710938-15.304688-3.671876-21.789063-10.632812-1.121094-18.902343-4.246094-24.605468-9.34375-3.71875-3.320313-6.265625-7.503906-7.367188-12.09375-1.015625-4.246094-.710937-8.507813.863282-12 .808593-1.789063 1.949218-3.496094 3.050781-5.148437 2.042969-3.042969 4.148437-6.179688 4.097656-9.84375-.066406-4.765626-3.753906-8.59375-7.003906-11.972657l-.351563-.375c-4.519531-4.703125-10.625-12-11.117187-20.628906-.6875-11.703125 8.96875-21.152344 14.785156-25.742187 2.464844-1.9375 5.085937-3.777344 7.625-5.558594l.363281-.253906c5.730469-4.003907 11.601563-8.105469 16.058594-13.519532 6.332031-7.691406 8.839844-18.492187 5.964844-25.679687l-1.257813-3.144531 3.257813-1.984376c.5-.304687 1.023437-.625 1.585937-.9375 3.703125-2.089843 7.746094-4.171874 11.996094-6.167968 16.476563-7.753906 33.988281-13.121094 52.042969-15.953125 9.707031-1.519531 19.527344-2.289063 29.1875-2.289063h.746094c34.335937.132813 69.421874 10.105469 98.800781 28.078125l2.589843 1.582031-.828124 2.917969c-1.375 4.859375-2.445313 11.699219.242187 16.695313 2.933594 5.453125 7.832031 9.503906 12.570313 13.425781l1.183593.972656c4.882813 4.074219 10.257813 8.941407 12.488281 15.371094 2.25 6.480469.75 14.332031-3.734374 19.53125-.554688.632813-1.128907 1.242187-1.703126 1.847656-2.742187 2.878907-4.664062 5.144531-4.4375 8.125.285157 3.679688 3.640626 5.679688 7.996094 7.910157l.226563.117187c.832031.421875 1.617187.824219 2.375 1.261719 5.902343 3.378906 9.917969 9.96875 10.230469 16.785156.3125 6.808594-3.101563 13.730469-8.695313 17.632812-.363281.257813-.777344.53125-1.199219.816407l-.179687.121093c-3.917969 2.625-6.859375 4.90625-6.238281 8.296876.3125 1.691406 1.53125 2.988281 2.710937 4.242187l.566406.605469c6.464844 7.136718 7.941407 18.789062 3.652344 28.402344-3.816406 8.53125-11.828125 15.6875-21.980469 19.640624-6.769531 2.628907-12.167968 3.167969-18.195312 3.167969-2.214844 0-4.542969-.078125-7.003906-.15625l-.992188-.03125-1.871094.375zm0 0" fill="#644c4c"/><path d="m71.074219 63.886719c7.851562-20.625 26.691406-39.191407 50.394531-49.664063 15.238281-6.734375 30.292969-10.148437 44.75-10.148437 4.441406 0 8.824219.332031 13.035156.992187 29.804688 4.671875 56.6875 28.410156 65.375 57.726563l2.09375 7.0625-7.0625-2.089844c-1.382812-.410156-2.871094-.792969-4.824218-1.25-25.921876-6.136719-52.519532-9.246094-79.0625-9.246094-10.699219 0-21.539063.507813-32.226563 1.511719-18.328125 1.714844-32.609375 4.683594-44.941406 9.332031-.742188.273438-1.484375.5625-2.226563.878907l-8.644531 3.671874zm0 0" fill="#644c4c"/><path d="m250.554688 503.839844c.46875-31.296875 2.351562-74.71875 4.480468-103.246094-.921875 11.339844-1.75 25.378906-2.476562 40.597656l-.175782 3.675782-3.679687.128906c-21.402344.753906-43.175781 1.136718-64.726563 1.136718-37.660156 0-75.660156-1.160156-112.949218-3.449218l-3.617188-.222656-.132812-3.621094c-.660156-17.65625-1.878906-33.433594-3.519532-45.625 4.035157 30.625 4.851563 78.71875 3.257813 107.523437l-.21875 3.929688-3.929687-.152344c-10.722657-.417969-21.597657-.871094-32.332032-1.351563-7.046875-.324218-13.757812-.957031-18.515625-5.085937-5.96875-5.1875-6.765625-13.917969-7.042969-21.695313-1.019531-28.300781-.113281-56.925781 2.695313-85.078124 2.164063-21.6875 6.03125-44 19.539063-60.289063 9.570312-11.550781 22.753906-18.851563 36.558593-25.917969l2.585938-1.328125c12.457031-6.355469 25.328125-12.921875 35.355469-22.816406 2.148437-2.113281 4.167968-4.445313 6-6.933594l4.796874-6.519531 2.265626 7.769531c4.394531 15.101563 9.011718 30.445313 13.71875 45.601563.535156 1.726562 1.308593 3.542968 2.964843 3.957031.21875.054687.449219.082031.675781.082031 1.769532 0 3.378907-1.933594 3.984376-2.660156l12.523437-15.015625-.027344 11.082031c-.039062 16.4375.4375 33.105469 1.414063 49.542969.039062.738281.09375 1.730469.6875 2.429687.1875.230469.769531.917969 2.648437.917969.328125 0 .617188-.023437.824219-.039062l11.113281-.753907c1.414063-.09375 3.53125-.234374 4.773438-1.5625 1.199219-1.289062 1.25-3.332031 1.28125-4.6875l1.289062-53.570312 6.351563 5.273438c2.652344 2.203124 5.335937 4.234374 7.96875 6.039062 7.96875-15.882812 13.988281-32.710938 17.949218-50.03125l2.25-9.855469 5.101563 8.730469c4.839844 8.277344 10.667969 14.796875 14.707031 18.808594 10.371094 10.324218 22.71875 18.695312 34.660156 26.789062 4.121094 2.792969 8.085938 5.492188 11.898438 8.179688 13.765625 9.730468 30.746094 23.253906 39.910156 41.644531 8.476563 16.96875 9.765625 36.921875 10.308594 54.289063.578125 18.324218.457031 37.007812-.359375 55.53125-.398437 8.777343-1.351563 18.652343-7.742187 24.816406-6.378907 6.148437-16.117188 6.761718-25.542969 6.859375-12.824219.140625-25.730469.195312-35.539063.230469l-4.074218.011718zm-35.644532-153.578125c-2.152344 0-4.320312.285156-6.445312.847656-8.710938 2.304687-15.273438 8.964844-17.558594 17.820313-3.246094 12.570312 4.640625 26.351562 17.230469 30.097656 2.464843.726562 4.945312 1.09375 7.359375 1.09375 8.445312 0 15.929687-4.351563 20.527344-11.933594 4.984374-8.230469 5.910156-20.769531-3.269532-30.230469-4.808594-4.964843-11.144531-7.695312-17.84375-7.695312zm0 0" fill="#288fc9"/><path d="m241.695312 507.902344c-56.617187 0-114.066406-1.042969-170.746093-3.105469l-4.074219-.148437.226562-4.070313c.214844-3.847656.386719-8.097656.503907-12.632813l.113281-4.304687 4.285156.429687c44.515625 4.457032 89.820313 6.71875 134.660156 6.71875 13.136719 0 26.554688-.195312 39.875-.585937l4.203126-.125-.089844 4.207031c-.066406 3.34375-.128906 6.574219-.179688 9.679688l-.0625 3.933594zm0 0" fill="#288fc9"/><path d="m157.300781 251.601562c-14.707031 0-28.820312-3.902343-40.824219-11.289062l-.203124-.121094c-1.179688-.738281-2.238282-1.433594-3.238282-2.125-16.65625-11.640625-27.804687-29.910156-29.835937-48.871094-2.15625-20.050781 6.273437-40.554687 21.476562-52.238281 6.332031-4.851562 13.457031-9.066406 19.742188-12.789062l.726562-.433594c2.894531-1.714844 5.882813-3.488281 8.753907-5.304687 7.046874-4.445313 15.152343-10.078126 21.867187-18.183594l3.136719-3.785156 3.066406 3.839843c6.472656 8.101563 17.003906 13.769531 26.449219 18.246094l2.980469 1.398437c11.128906 5.246094 22.636718 10.667969 30.578124 20.050782 7.945313 9.367187 12.085938 22.664062 11.65625 37.441406-.800781 27.359375-17.769531 53.996094-42.222656 66.285156-10.253906 5.15625-22.046875 7.878906-34.109375 7.878906zm0 0" fill="#ffdac4"/><path d="m160.296875 293.289062c-2.789063 0-5.367187-1.308593-7.980469-2.765624-12.898437-7.195313-25.125-15.804688-36.339844-25.589844l-2.035156-1.773438.882813-2.550781c1.535156-4.421875 2.308593-8.832031 2.308593-13.109375v-6.375l5.742188 2.773438c10.5 5.070312 22.40625 7.75 34.4375 7.75 12.09375 0 23.894531-2.714844 34.125-7.851563 1.957031-.984375 3.929688-2.105469 5.871094-3.328125l5.667968-3.582031.457032 6.6875c.285156 4.167969 1.0625 8.355469 2.308594 12.449219l.933593 3.074218-2.796875 1.578125-.035156.027344-.054688.03125-34.152343 27.949219c-2.773438 2.277344-5.53125 4.347656-8.738281 4.585937-.210938.015625-.40625.019531-.601563.019531zm0 0" fill="#ffdac4"/><g fill="#5bd0fc"><path d="m184.023438 446.210938c-37.371094 0-75.132813-1.144532-112.234376-3.402344l-4.359374-.265625.117187 4.363281c.300781 11.109375.378906 22.519531.230469 32.996094l-.054688 3.667968 3.652344.371094c44.699219 4.496094 90.207031 6.773438 135.25 6.773438 13.429688 0 27.003906-.203125 40.351562-.605469l3.773438-.117187.105469-3.773438c.3125-11.527344.769531-24.308594 1.328125-36.953125l.1875-4.324219-4.324219.152344c-21.351563.738281-42.890625 1.117188-64.023437 1.117188zm0 0"/><path d="m186.964844 321.953125 2.097656-4.445313c7.332031-15.550781 12.875-32.003906 16.476562-48.90625l2.371094-11.148437-38.222656 31.292969c-1.527344 1.257812-3.433594 2.820312-5.574219 3.761718l-4.644531 2.046876 3.074219 4.039062c5.886719 7.726562 12.78125 14.589844 20.496093 20.398438zm0 0"/><path d="m150.070312 367.332031.238282 4.03125 15.054687-1.019531c1.390625-.097656 2.425781-.234375 3.296875-.613281l1.558594-.671875.601562-1.585938c.335938-.890625.421876-1.90625.453126-3.316406l1.21875-50.484375 1.15625-2.523437-1.960938-1.964844c-3.414062-3.425782-6.558594-7.027344-9.34375-10.707032l-3.035156-4.011718-9.84375 11.792968-1.433594 1.691407.722656 2.125c-.25 18.875.195313 38.140625 1.316406 57.257812zm0 0"/><path d="m154.832031 291.921875c-.847656-.40625-1.710937-.855469-2.558593-1.324219-11.089844-6.195312-21.738282-13.46875-31.648438-21.625l-10-8.234375 3.617188 12.4375c4.808593 16.515625 9.625 32.539063 14.316406 47.625.042968.136719.085937.277344.144531.457031l1.867187 6.53125 4.808594-4.828124c.1875-.1875.382813-.410157.605469-.671876l23.484375-28.144531zm0 0"/></g><path d="m327.828125 420.339844c-.558594-17.792969-1.890625-38.257813-10.734375-55.984375-9.566406-19.1875-27.046875-33.140625-41.207031-43.152344-3.941407-2.789063-7.992188-5.535156-11.914063-8.191406-5.042968-3.417969-10.148437-6.894531-15.144531-10.527344 5.851563-.105469 11.269531-.835937 17.9375-3.429687 11.148437-4.339844 19.976563-12.273438 24.21875-21.769532 5.011719-11.222656 3.289063-24.375-4.289063-32.734375-.21875-.242187-.445312-.484375-.667968-.726562-.710938-.753907-1.589844-1.691407-1.683594-2.195313-.1875-1.03125 2.867188-3.078125 4.507812-4.179687.492188-.328125.972657-.652344 1.433594-.972657 6.707032-4.683593 10.804688-12.988281 10.4375-21.160156-.367187-8.171875-5.1875-16.078125-12.285156-20.140625-.898438-.515625-1.832031-.992187-2.738281-1.457031-3.324219-1.699219-5.6875-3.027344-5.808594-4.613281-.109375-1.394531 1.632813-3.222657 3.3125-4.992188.636719-.664062 1.265625-1.328125 1.839844-1.996093 5.492187-6.359376 7.261719-15.601563 4.503906-23.539063-2.570313-7.414063-8.429687-12.734375-13.71875-17.140625l-1.203125-.996094c-4.644531-3.847656-9.03125-7.480468-11.582031-12.21875-1.675781-3.117187-1.523438-8.476562.359375-14.566406.828125-.84375 1.257812-2.019531 1.136718-3.226562-.273437-2.699219-.386718-5.394532-.507812-8.25-.167969-3.914063-.335938-7.964844-.960938-12.015626-1.351562-8.773437-4.816406-15.738281-10.027343-20.152343-.9375-.792969-1.921875-1.496094-2.9375-2.128907-3.386719-16.289062-12.242188-31.917968-24.945313-44.023437-12.730468-12.128906-28.808594-20.234375-45.273437-22.816406-18.683594-2.929688-39.457031.339843-60.070313 9.453125-27.539062 12.171875-48.550781 34.808594-54.839844 59.074218-.113281.429688-.132812.859376-.101562 1.28125-2.4375 1.894532-4.625 4.195313-6.261719 7.046876-4.367187 7.617187-5.207031 20.414062-5.011719 26.773437.039063 1.375.15625 4.960937 2.894532 6.648437 3.070312 5.132813 2.117187 15.074219-4.519532 23.125-4.117187 4.996094-9.519531 8.769532-15.234374 12.761719-2.714844 1.894531-5.519532 3.855469-8.191407 5.964844-11.121093 8.78125-16.921875 19.144531-16.335937 29.183594.585937 9.96875 7.289062 18.035156 12.277344 23.238281l.324218.339844c2.867188 2.980468 5.828125 6.0625 5.871094 9.203125.03125 2.390625-1.5625 4.769531-3.402344 7.53125-1.199218 1.789062-2.433594 3.636719-3.378906 5.734375-4.117188 9.128906-.96875 21.246094 7.492188 28.808594 5.300781 4.734374 12.460937 7.933593 21.332031 9.53125-1.789063 6.6875-.03125 15.277343 6.929687 21.582031 4.414063 3.996093 9.980469 5.472656 15.398438 6.320312-3.496094 1.894531-7.039063 3.707031-10.546875 5.5l-2.601563 1.328125c-13.632812 6.984375-27.789062 14.820313-37.839844 26.941406-14.214843 17.152344-18.230468 40.167969-20.453124 62.488282-2.824219 28.351562-3.734376 57.164062-2.710938 85.628906.332031 9.273438 1.585938 18.671875 8.4375 24.621094 5.757812 5 13.21875 5.730468 21 6.085937 70.058594 3.164063 140.9375 4.761719 211.34375 4.761719 16.183594 0 32.34375-.085938 48.460938-.253906 10.25-.105469 20.878906-.8125 28.335937-8.003906 7.46875-7.203126 8.550781-18.003907 8.976563-27.558594.824218-18.519532.949218-37.304688.367187-55.84375zm-204.746094-402.457032c19.191407-8.488281 38.40625-11.550781 55.554688-8.859374 28.648437 4.492187 53.921875 27.136718 62.152343 54.902343-1.679687-.492187-3.375-.914062-5.046874-1.308593-36.921876-8.734376-74.796876-11.363282-112.570313-7.820313-18.6875 1.753906-33.296875 4.792969-45.980469 9.570313-.777344.292968-1.574218.605468-2.382812.941406 7.4375-19.523438 25.378906-37.308594 48.273437-47.425782zm-57.460937 64.035157c2.957031-5.15625 9.257812-8.050781 14.417968-9.992188 11.992188-4.515625 25.9375-7.40625 43.890626-9.089843 36.898437-3.464844 73.890624-.894532 109.953124 7.636718 5.269532 1.246094 10.304688 2.621094 13.941407 5.703125 4.679687 3.960938 6.535156 10.460938 7.265625 15.21875.554687 3.605469.710937 7.257813.871094 11.125.015624.273438.023437.550781.035156.828125-29.277344-17.03125-63.535156-26.414062-97.328125-26.539062-.234375-.003906-.46875-.003906-.703125-.003906-9.929688 0-19.980469.789062-29.882813 2.339843-18.421875 2.886719-36.300781 8.363281-53.144531 16.285157-4.257812 2-8.390625 4.128906-12.289062 6.324218-.34375.191406-.675782.386719-1 .578125.050781-7.089843 1.351562-15.84375 3.972656-20.414062zm20.398437 206.058593c-1.726562-.28125-3.488281-.496093-5.1875-.703124-6.125-.753907-11.914062-1.464844-15.746093-4.933594-4.417969-4.003906-6.820313-11.710938-3.195313-16.367188.902344-1.160156 1.101563-2.71875.519531-4.070312-.578125-1.351563-1.847656-2.28125-3.308594-2.425782-9.746093-.972656-17.253906-3.761718-22.320312-8.289062-6.6875-5.980469-7.835938-14.320312-5.511719-19.464844.667969-1.484375 1.667969-2.984375 2.730469-4.570312 2.265625-3.386719 4.832031-7.226563 4.765625-12.125-.089844-6.328125-4.542969-10.964844-8.121094-14.691406l-.324219-.335938c-4.105468-4.277344-9.613281-10.8125-10.039062-18.117188-.582031-9.886718 8.066406-18.261718 13.277344-22.375 2.484375-1.960937 5.191406-3.855468 7.808594-5.679687 5.910156-4.128906 12.023437-8.398437 16.84375-14.246094 6.707031-8.140625 10.292968-20.460937 6.589843-29.710937.003907 0 .003907-.003906.007813-.003906.554687-.34375 1.15625-.714844 1.800781-1.078126 3.726563-2.097656 7.683594-4.132812 11.765625-6.054687 16.148438-7.589844 33.292969-12.84375 50.957031-15.613281 9.714844-1.523438 19.59375-2.28125 29.304688-2.238282 33.722656.125 67.925781 9.867188 96.722656 27.488282-1.578125 5.574218-2.753906 13.492187.574219 19.675781 3.296875 6.125 8.503906 10.4375 13.542968 14.609375l1.183594.984375c4.453125 3.710937 9.363282 8.125 11.257813 13.582031 1.796875 5.1875.597656 11.460938-2.988281 15.617188-.492188.570312-1.03125 1.132812-1.574219 1.703125-2.628907 2.761719-5.902344 6.203125-5.519531 11.183593.480468 6.214844 6.089843 9.085938 10.183593 11.179688.859375.441406 1.671875.855469 2.402344 1.273438 4.753906 2.722656 7.984375 8.019531 8.230469 13.496093.246094 5.472657-2.5 11.039063-6.992188 14.175781-.417968.292969-.859375.585938-1.304687.886719-3.625 2.425781-9.105469 6.097657-7.953125 12.347657.519531 2.839843 2.300781 4.738281 3.730468 6.261718.195313.210938.390626.417969.578126.625 5.375 5.925782 6.566406 15.804688 2.898437 24.015625-3.378906 7.570313-10.589844 13.960938-19.777344 17.535157-8.3125 3.238281-14.402343 3.042968-23.613281 2.75l-1-.035157c-.042969 0-.085938 0-.128906 0-.273438 0-.542969.027344-.800782.078125-2.925781-2.441406-5.761718-4.976562-8.445312-7.644531-8.742188-8.699219-23.285156-26.5625-22.425781-48.464844 0-.035156-.007813-.070312-.007813-.109375 17.929688-14.726562 29.617188-37.386718 30.292969-60.542968.460937-15.777344-4.015625-30.050782-12.617187-40.195313-8.546876-10.085937-20.511719-15.714844-32.082032-21.15625l-2.84375-1.339844c-9.441406-4.476562-19.882812-10.113281-25.703125-18.007812-.683593-.929688-2.773437-3.757813-6.238281-3.371094-2.523438.277344-3.984375 2.144531-4.605469 2.9375-6.511719 8.300781-14.714843 14.035156-21.882812 18.554687-3.074219 1.9375-6.289063 3.839844-9.398438 5.683594-6.722656 3.984375-13.675781 8.101563-20.140625 13.066406-16.300781 12.519532-25.351562 34.464844-23.050781 55.902344 2.15625 20.117188 13.949219 39.46875 31.542969 51.765625.65625.460938 1.324218.898438 1.992187 1.332031 2.300781 13.671876-5.5 27.113282-13.824219 35.320313-3.800781 3.75-8.074218 7.015625-12.609374 9.988281-.074219-.015625-.144532-.046875-.222657-.058594zm66.515625 20.84375 6.617188-7.925781c2.988281 3.933594 6.234375 7.636719 9.703125 11.117188-.214844.480469-.34375 1.007812-.355469 1.566406l-1.222656 50.480469c-.007813.398437-.035156 1.554687-.199219 1.996094-.445313.191406-1.640625.273437-2.050781.300781l-10.960938.742187c-1.113281-18.890625-1.558594-38.054687-1.316406-56.972656.007812-.457031-.082031-.890625-.214844-1.304688zm-16.496094-187.007812c7.355469-4.640625 15.753907-10.5 22.804688-19.011719 6.957031 8.707031 17.941406 14.660157 27.863281 19.363281l2.863281 1.351563c10.789063 5.074219 21.949219 10.320313 29.359376 19.066406 7.308593 8.621094 11.109374 20.957031 10.703124 34.738281-.757812 25.929688-16.84375 51.179688-40.019531 62.828126-22.042969 11.078124-50.113281 9.664062-71.097656-3.277344-.039063-.027344-.078125-.050782-.117187-.074219-1.042969-.644531-2.078126-1.3125-3.082032-2.015625-15.710937-10.980469-26.230468-28.179688-28.144531-46.011719-2.003906-18.699219 5.824219-37.789062 19.941406-48.636719 6.078125-4.667968 12.820313-8.660156 19.335938-12.523437 3.15625-1.871094 6.421875-3.800781 9.589843-5.796875zm21.277344 133.839844c12.449219-.003906 24.867188-2.730469 35.921875-8.285156 2.125-1.070313 4.195313-2.25 6.207031-3.519532.316407 4.667969 1.195313 9.128906 2.472657 13.34375-.230469.125-.453125.273438-.664063.445313l-34.144531 27.957031c-2.355469 1.929688-4.472656 3.539062-6.503906 3.683594-1.894531.136718-4.082031-.984375-6.339844-2.242188-12.710937-7.097656-24.6875-15.546875-35.660156-25.109375 1.660156-4.796875 2.523437-9.667969 2.527343-14.425781 11.183594 5.398438 23.695313 8.152344 36.183594 8.152344zm-6.988281 38.433594c.878906.492187 1.8125.984374 2.78125 1.441406l-20.113281 24.105468c-.167969.199219-.316406.367188-.449219.511719-.046875-.140625-.101563-.300781-.15625-.480469-4.90625-15.78125-9.703125-31.761718-14.308594-47.601562 10.066407 8.273438 20.871094 15.671875 32.246094 22.023438zm15.390625 2.082031c2.613281-1.148438 4.769531-2.90625 6.507812-4.328125l29.394532-24.070313c-3.53125 16.578125-8.945313 32.703125-16.171875 48.03125-7.464844-5.621093-14.066407-12.207031-19.730469-19.632812zm81.136719 189.945312c-58.226563 1.753907-117.117188-.320312-175.078125-6.15625.148437-10.386719.082031-21.738281-.234375-33.160156 37.304687 2.269531 74.925781 3.417969 112.488281 3.417969 21.429688 0 42.839844-.386719 64.15625-1.128906-.554688 12.519531-1.015625 25.234374-1.332031 37.027343zm-175.757813 14.683594c.214844-3.929687.386719-8.207031.507813-12.746094 44.71875 4.476563 89.972656 6.742188 135.058593 6.742188 13.351563 0 26.695313-.199219 39.992188-.59375-.074219 3.347656-.132812 6.585937-.179688 9.699219-58.363281.058593-117.0625-.976563-175.378906-3.101563zm248.296875-24.976563c-.359375 8-1.1875 16.964844-6.519531 22.109376-5.320312 5.132812-14.1875 5.652343-22.8125 5.742187-11.816406.125-23.65625.191406-35.511719.226563.460938-30.765626 2.355469-74.59375 4.46875-103.007813.167969-2.222656-1.5-4.160156-3.726562-4.324219-2.242188-.175781-4.160157 1.503906-4.328125 3.726563-.863282 11.640625-1.691406 25.859375-2.402344 40.707031-58.875 2.070312-118.480469 1.296875-177.28125-2.304688-.628906-16.582031-1.789062-32.851562-3.554688-46.011718-.300781-2.210938-2.324218-3.769532-4.539062-3.464844-2.210938.296875-3.761719 2.328125-3.46875 4.539062 4.105469 30.5625 4.882812 78.171876 3.308594 106.757813-10.789063-.410156-21.5625-.859375-32.316406-1.347656-6.300782-.285157-12.273438-.8125-16.066407-4.113281-4.75-4.125-5.414062-11.871094-5.664062-18.8125-1.011719-28.105469-.109375-56.550782 2.675781-84.542969 2.09375-21.042969 5.800781-42.648438 18.632812-58.132813 9.082032-10.953125 21.882813-18.03125 35.308594-24.910156l2.589844-1.320312c12.71875-6.496094 25.871094-13.210938 36.339844-23.535157 2.375-2.34375 4.511718-4.824219 6.40625-7.40625 4.4375 15.207031 9.042968 30.527344 13.746094 45.667969.480468 1.542969 1.757812 5.640625 5.816406 6.648438.570312.140624 1.117187.203124 1.640625.203124 3.632812 0 6.15625-3.023437 7.058593-4.105468l5.421876-6.496094c-.039063 16.582031.433593 33.289062 1.417968 49.785156.066406 1.074219.183594 3.066406 1.617188 4.769532 1.703125 2.023437 4.121094 2.339843 5.714844 2.339843.464843 0 .855468-.023437 1.140624-.042969l11.066407-.75c1.785156-.121093 5.101562-.34375 7.421875-2.828124 2.238281-2.390626 2.316406-5.601563 2.359375-7.328126l1.09375-45.308593c2.648437 2.203125 5.394531 4.300781 8.261719 6.261719.964843.65625 2.167968.867187 3.296874.574218 1.128907-.292968 2.078126-1.0625 2.597657-2.105468 8.070312-16.195313 14.179687-33.285157 18.210937-50.90625 4.917969 8.421874 10.824219 15.136718 15.335938 19.628906 10.65625 10.597656 23.179687 19.085937 35.292968 27.296875 3.886719 2.632812 7.90625 5.359375 11.78125 8.097656 13.390626 9.46875 29.878907 22.585937 38.644532 40.164063 8.113281 16.265624 9.359375 35.695312 9.886718 52.636718.574219 18.332032.449219 36.914063-.363281 55.222656zm0 0"/><path d="m207.445312 347.238281c-10.128906 2.683594-17.761718 10.414063-20.414062 20.6875-3.765625 14.597657 5.375 30.589844 19.964844 34.929688 2.855468.847656 5.710937 1.261719 8.5 1.261719 9.679687 0 18.5625-4.96875 23.953125-13.859376 5.78125-9.539062 6.84375-24.085937-3.820313-35.085937-7.433594-7.667969-17.96875-10.636719-28.183594-7.933594zm25.09375 38.835938c-3.777343 6.234375-12.132812 12.347656-23.242187 9.039062-10.363281-3.078125-17.113281-14.839843-14.445313-25.167969 1.914063-7.40625 7.390626-12.976562 14.65625-14.898437 1.785157-.472656 3.582032-.703125 5.359376-.703125 5.546874 0 10.890624 2.253906 14.964843 6.453125 8.1875 8.445313 6.578125 18.894531 2.707031 25.277344zm0 0"/></svg>