<svg height="512pt" viewBox="-88 0 512 512.00133" width="512pt" xmlns="http://www.w3.org/2000/svg"><path d="m174.175781 503.75c-1.3125-18.050781-1.558593-36.464844-.726562-54.730469l.160156-3.511719 45.203125-3.773437c1.753906-.148437 4.363281-.371094 5.792969-2.09375 1.296875-1.570313 1.230469-3.824219 1.183593-5.472656-.949218-33.382813-3.128906-82.890625-8.121093-129.277344l-.542969-2.804687 2.476562-1.425782c3.046876-1.746094 5.980469-3.636718 8.722657-5.613281 3.660156-2.65625 7.730469-5.996094 10.085937-10.5625l1.890625-3.660156 3.605469 1.996093c30.203125 16.734376 66.703125 40.867188 80.988281 79.308594 7.78125 20.933594 8.011719 43.550782 7.519531 68.820313-.324218 16.523437-.789062 33.671875-1.378906 50.96875-.246094 7.109375-.773437 13.375-4.722656 18.089843-5.34375 6.398438-14.828125 6.96875-23.300781 7.003907l-47.910157.164062 6.351563-69.53125-6.414063 69.53125-80.59375.296875zm0 0" fill="#59bd8b"/><path d="m43.632812 507.941406c-11.214843 0-22.820312-.625-30.683593-8.113281-8.851563-8.421875-9.191407-21.804687-8.78125-34.792969 1.171875-37.550781 2.503906-80.109375 21.179687-115.980468 15.792969-30.316407 44.738282-54.636719 77.421875-65.054688l3.644531-1.160156 1.324219 3.582031c.347657.9375.734375 1.789063 1.152344 2.535156 2.734375 4.84375 7.164063 8.085938 11.136719 10.621094 2.671875 1.707031 5.53125 3.316406 8.503906 4.789063l2.226562 1.101562v3.007812l-.078124.292969c-4.339844 39.398438-6.625 79.492188-6.78125 119.179688 2.78125 1.257812 5.859374 1.910156 8.929687 1.910156 1.3125 0 2.703125-.132813 4.136719-.398437l4.855468-.90625-.492187 19.609374.113281.027344 32.097656-2.683594-.195312 4.535157c-.765625 17.757812-.515625 35.640625.742188 53.152343l.308593 4.269532-115.941406.421875.316406-4.308594c1.695313-23.019531.4375-46.175781-3.746093-68.820313 4.152343 22.859376 5.402343 46.21875 3.644531 69.445313l-.277344 3.683594zm0 0" fill="#59bd8b"/><g fill="#f7b36f"><path d="m148.480469 140.921875c-19.457031 0-37.097657-.222656-53.925781-.683594-6.386719-.179687-13.589844-.378906-20.214844-2.511719-7.257813-2.332031-12.503906-6.730468-14.394532-12.058593-3.246093-9.136719 4.261719-18.84375 13.390626-22.945313 8.757812-3.933594 18.792968-4.261718 28.320312-4.261718l128.691406.429687c3.671875 0 7.507813-.105469 10.816406-.207031 3.496094-.105469 7.105469-.214844 10.6875-.214844 7.304688 0 13.039063.476562 18.042969 1.492188 13.210938 2.660156 15.9375 11.097656 15.890625 17.707031-.066406 9.636719-5.753906 21.238281-32.457031 21.792969l-.179687.003906c-34.175782.714844-69.515626 1.457031-104.667969 1.457031zm0 0"/><path d="m270.214844 250.902344c-6.785156 0-13.671875-2.25-19.386719-6.339844-7.074219-5.054688-12.476563-12.460938-16.992187-23.304688-10.441407-25.039062-10.515626-53.800781-.199219-78.917968l.996093-2.421875 21.902344-.460938-1.011718 4.910157c-4.789063 23.257812 4.503906 50.757812 23.671874 70.054687l1.140626 1.152344.019531 1.617187c.121093 9.628906.121093 19.371094 0 28.960938l-.039063 3.003906-2.890625.800781c-2.265625.625-4.695312.945313-7.210937.945313zm0 0"/><path d="m101.316406 98.402344c-1.433594 0-2.890625.007812-4.359375.035156l-4.136719.082031.054688-4.132812c.347656-25.292969 18.605469-50.039063 45.441406-61.582031 11.6875-5.027344 25.195313-7.683594 39.0625-7.683594 16.460938 0 32.882813 3.652344 47.488282 10.5625 12.808593 6.042968 21.898437 13.503906 27.007812 22.175781 6.902344 11.707031 6.675781 26.121094 6.511719 36.644531l-.0625 3.996094-4-.0625c-.886719-.011719-1.773438-.019531-2.660157-.019531-3.457031 0-6.941406.09375-10.5.199219-3.199218.09375-6.828124.203124-10.304687.203124 0 0-128.542969-.417968-129.542969-.417968zm74.417969-60.292969c-.222656 0-.445313.007813-.667969.015625-7.144531.320312-14.667968 4.722656-18.300781 10.710938-2.574219 4.234374-2.9375 8.605468-1.0625 12.648437 1.871094 4.027344 6.058594 7.273437 11.195313 8.675781 2.027343.558594 4.207031.839844 6.488281.839844 2.792969 0 5.679687-.429688 8.582031-1.273438 6.3125-1.84375 10.902344-5.386718 12.589844-9.710937 1.503906-3.855469.605468-8.519531-2.464844-12.804687-3.957031-5.527344-10.378906-9.101563-16.359375-9.101563zm0 0"/><path d="m78.148438 250.902344c-2.515626 0-4.941407-.316406-7.210938-.945313l-2.890625-.804687-.039063-2.996094c-.128906-9.3125-.128906-18.785156 0-28.964844l.019532-1.625 1.144531-1.148437c20.222656-20.289063 29.136719-46.148438 23.84375-69.171875l-1.15625-5.03125 5.164063.136718c4.542968.125 9.25.226563 14.390624.3125l2.660157.042969.984375 2.46875c9.96875 24.902344 9.773437 53.363281-.542969 78.085938-4.515625 10.84375-9.917969 18.25-16.996094 23.304687-5.703125 4.085938-12.582031 6.335938-19.371093 6.335938zm0 0"/></g><path d="m170.101562 313.871094c-18.023437 0-35.324218-4.960938-50.035156-14.347656-3.964844-2.515626-8.390625-5.746094-11.117187-10.605469-2.886719-5.109375-3.058594-11.332031-.429688-15.472657.410157-.664062.933594-1.320312 1.433594-1.953124l.121094-.148438c.65625-.820312 1.457031-1.820312 1.992187-2.863281l2.039063-3.960938-1.3125-.203125-.953125-1.648437c-.589844-1.023438-1.386719-1.972657-2.09375-2.8125-.371094-.433594-.75-.878907-1.105469-1.335938-3.140625-4.074219-4.644531-13.453125-3.046875-18.945312l-.527344-1.914063 1.199219-1.578125c.273437-.355469.542969-.707031.8125-1.078125l2.675781-3.691406 3.3125 3.132812c15.519532 14.679688 38.230469 23.445313 60.75 23.445313l1.371094-.007813c21.679688-.328124 42.964844-8.570312 58.34375-22.613281l3.515625-3.214843 2.558594 4.023437c5.523437 8.703125 3.671875 23.582031-3.558594 30.214844l-.226563.464843.324219-.183593 2.066407 3.117187c2.230468 3.371094 2.652343 8.5 1.046874 12.761719-2.105468 5.566406-6.722656 9.460937-10.964843 12.539063-16.832031 12.175781-37.496094 18.878906-58.183594 18.882812-.003906-.003906-.003906-.003906-.007813-.003906zm64.089844-46.292969c-7.9375 4.804687-17.957031 8.511719-30.570312 11.296875 11.910156-2.5625 21.480468-6 29.273437-10.449219l1.871094-1.066406zm-116.300781-.5625c10.226563 7.03125 22.515625 11.160156 34.835937 11.738281-13.757812-.695312-27.1875-5.65625-38.035156-14.144531l-.378906-.054687zm0 0" fill="#d34242"/><path d="m144.789062 310.65625 4.734376 1.035156c6.734374 1.480469 13.660156 2.230469 20.582031 2.230469 14.40625 0 28.972656-3.257813 42.125-9.421875l5.089843-2.386719.585938 5.589844c4.78125 45.679687 6.890625 93.984375 7.816406 126.464844.066406 2.503906-.09375 4.097656-1.113281 5.375l-.066406.078125c-1.195313 1.414062-3.003907 1.820312-5.730469 2.046875l-77.414062 6.460937zm0 0" fill="#d34242"/><path d="m132.804688 429.796875c-2.003907 0-3.992188-.277344-5.914063-.816406l-2.933594-.828125.019531-3.046875c.25-37.957031 2.453126-76.378907 6.554688-114.195313l.558594-5.179687 4.859375 1.878906c1.992187.769531 3.972656 1.460937 5.878906 2.050781l2.890625.894532-2.894531 117.488281-2.773438.835937c-2.015625.609375-4.117187.917969-6.246093.917969zm0 0" fill="#d34242"/><path d="m273.015625 207.433594c-15.617187-19.460938-22.105469-44.472656-16.929687-65.277344l.675781-2.71875 2.785156-.296875c4.449219-.46875 8.460937-1.339844 11.929687-2.59375l4.933594-1.777344.414063 5.226563c1.710937 21.546875 2.824219 43.363281 3.3125 64.84375l.269531 11.796875zm0 0" fill="#ffbf48"/><path d="m71.679688 96.953125c3.03125-23.261719 14.070312-45.121094 31.089843-61.550781 19.285157-18.621094 45.988281-30.003906 73.257813-31.226563 1.621094-.074219 3.273437-.109375 4.902344-.109375 26.882812 0 52.4375 9.679688 70.109374 26.5625 18.40625 17.578125 27 42.835938 22.433594 65.917969l-.769531 3.871094-3.878906-.710938c-2.167969-.398437-4.425781-.699219-6.710938-.890625l-3.726562-.308594.058593-3.738281c.171876-10.640625.402344-25.214843-6.515624-36.945312-5.113282-8.664063-14.207032-16.132813-27.035157-22.195313-14.59375-6.902344-31.027343-10.550781-47.53125-10.550781-13.898437 0-27.40625 2.652344-39.066406 7.667969-26.664063 11.46875-45.367187 37.023437-45.480469 62.144531l-.015625 3.628906-3.617187.335938c-4.691406.433593-8.707032 1.222656-12.273438 2.410156l-6.054687 2.019531zm0 0" fill="#ffbf48"/><path d="m173.386719 70.929688c-2.273438 0-4.449219-.28125-6.472657-.832032-5.121093-1.390625-9.292968-4.621094-11.15625-8.636718-1.839843-3.96875-1.460937-8.445313 1.058594-12.597657 3.679688-6.054687 11.011719-10.347656 18.246094-10.679687.21875-.007813.429688-.015625.644531-.015625 5.871094 0 12.4375 3.644531 16.335938 9.066406 3.054687 4.277344 3.949219 8.921875 2.460937 12.753906-1.6875 4.3125-6.261718 7.835938-12.554687 9.679688-2.855469.835937-5.738281 1.261719-8.5625 1.261719zm0 0" fill="#ffbf48"/><path d="m68.21875 204.957031c.476562-20.90625 1.542969-42.113281 3.167969-63.027343l.371093-4.757813 4.621094 1.195313c3.503906.910156 7.433594 1.449218 12.363282 1.707031l2.886718.152343.765625 2.785157c5.65625 20.652343-.734375 44.796875-17.09375 64.585937l-7.347656 8.882813zm0 0" fill="#ffbf48"/><path d="m173.742188 257.820312c-22.722657 0-45.546876-8.898437-61.058594-23.804687.011718.007813.011718.011719.007812.011719-.007812 0-.03125-.011719-.058594-.027344l-3.414062-1.9375 1.871094-3.449219c1.265625-2.332031 2.433594-4.792969 3.480468-7.316406 9.851563-23.621094 10.472657-51.003906 1.695313-75.128906l-1.980469-5.445313 5.796875.078125c8.851563.121094 18.207031.179688 28.59375.179688 28.875 0 57.84375-.507813 79.859375-.949219l5.882813-.117188-2.054688 5.511719c-9.0625 24.324219-8.546875 51.972657 1.414063 75.867188.9375 2.25 1.988281 4.476562 3.121094 6.617187l1.375 2.597656-2.066407 2.085938c-15.296875 15.457031-38.132812 24.882812-61.082031 25.21875-.457031.003906-.917969.007812-1.382812.007812zm0 0" fill="#ffdac4"/><path d="m152.074219 63.171875c2.359375 5.082031 7.507812 9.140625 13.773437 10.847656 2.402344.65625 4.9375.984375 7.542969.984375 3.160156 0 6.425781-.480468 9.695313-1.4375 7.519531-2.199218 13.0625-6.609375 15.203124-12.097656 2.003907-5.144531.929688-11.191406-2.941406-16.589844-4.925781-6.871094-12.957031-11.085937-20.460937-10.75-8.53125.382813-17.183594 5.460938-21.539063 12.632813-3.25 5.347656-3.699218 11.179687-1.273437 16.410156zm8.164062-12.226563c2.972657-4.894531 9.144531-8.5 15.011719-8.761718 4.6875-.214844 10.269531 2.824218 13.542969 7.390625 2.253906 3.144531 2.976562 6.410156 1.980469 8.96875-1.207032 3.089843-4.925782 5.816406-9.953126 7.285156-4.472656 1.308594-9.039062 1.457031-12.851562.414063-3.941406-1.074219-7.226562-3.554688-8.582031-6.46875-1.613281-3.476563-.425781-6.722657.851562-8.828126zm0 0"/><path d="m328.703125 360.714844c-14.804687-39.820313-52.714844-64.914063-84.492187-82.359375.257812-4.097657-.707032-8.398438-3.09375-11.597657 4.121093-5.3125 6.109374-12.90625 5.710937-20.128906.539063.429688 1.082031.84375 1.640625 1.242188 6.523438 4.667968 14.277344 7.113281 21.6875 7.113281 4.121094 0 8.136719-.757813 11.769531-2.308594 1.464844-.625 2.425781-2.054687 2.453125-3.644531.570313-37.046875-.664062-74.550781-3.664062-111.480469-.035156-.398437-.140625-.765625-.277344-1.121093 5.476562-3.875 9.351562-9.777344 9.410156-18.734376.058594-9.246093-4.339844-16.042968-12.53125-19.65625 5.160156-24.707031-3.707031-51.464843-23.46875-70.347656-19.460937-18.59375-48.617187-28.898437-78-27.578125-28.257812 1.273438-55.921875 13.070313-75.90625 32.367188-19.066406 18.414062-30.703125 42.925781-32.835937 69.085937-8.53125 5.75-14.433594 15.777344-10.984375 25.46875 1.773437 4.992188 5.8125 9.265625 11.394531 12.21875-2.898437 36.390625-4.09375 73.3125-3.535156 109.777344.027343 1.59375.988281 3.019531 2.453125 3.644531 3.636718 1.550781 7.648437 2.308594 11.769531 2.308594 7.410156 0 15.164063-2.445313 21.6875-7.109375.371094-.269531.734375-.542969 1.101563-.824219.332031 5.097657 1.796874 10.539063 4.425781 13.941407.386719.5.808593 1 1.230469 1.5 1.0625 1.253906 2.0625 2.4375 2.058593 3.28125-.007812.773437-.882812 1.875-1.8125 3.039062-.578125.726562-1.230469 1.550781-1.808593 2.457031-1.65625 2.617188-2.382813 5.574219-2.453126 8.523438-34.191406 10.5625-64.359374 35.660156-80.886718 67.386719-19.105469 36.675781-20.453125 79.734374-21.644532 117.726562-.414062 13.296875-.0156245 28.285156 10.046876 37.867188 8.785156 8.359374 21.324218 9.226562 33.550781 9.226562h1.035156l258.285156-.929688c9.386719-.03125 19.941407-.714843 26.414063-8.457031 4.773437-5.707031 5.402344-12.980469 5.660156-20.558593.582031-16.949219 1.046875-34.117188 1.378906-51.03125.503906-25.679688.265625-48.695313-7.769531-70.308594zm-93.1875-79.671875c-1.738281 4.59375-5.8125 7.992187-9.574219 10.710937-31.011718 22.429688-72.695312 24.195313-103.730468 4.398438-3.550782-2.265625-7.492188-5.132813-9.777344-9.191406-2.144532-3.8125-2.367188-8.488282-.539063-11.375.347657-.542969.8125-1.128907 1.308594-1.75.8125-1.019532 1.71875-2.167969 2.417969-3.527344 11.503906 7.914062 25.289062 12.339844 39.277344 12.515625h.050781c2.203125 0 4-1.769531 4.03125-3.980469.027343-2.226562-1.757813-4.054688-3.980469-4.082031-13.652344-.171875-27.089844-4.894531-37.839844-13.304688-.558594-.4375-1.199218-.683593-1.851562-.785156-.765625-1.324219-1.703125-2.445313-2.507813-3.390625-.34375-.410156-.6875-.8125-1-1.222656-2.367187-3.0625-3.601562-11.105469-2.363281-15.367188.21875-.738281.199219-1.488281.007812-2.179687.292969-.382813.585938-.765625.871094-1.160157 16.296875 15.421876 39.890625 24.535157 63.503906 24.535157.453126 0 .910157-.003907 1.363282-.007813 22.65625-.339844 45.113281-9.113281 61.042968-23.660156 4.542969 7.152344 2.945313 20.457031-3.386718 25.566406-.015625.011719-.027344.027344-.046875.039063-.175781.074219-.351563.148437-.523438.25-7.636719 4.632812-17.292969 8.195312-29.515625 10.898437-2.171875.480469-3.546875 2.628906-3.066406 4.804688.414062 1.882812 2.082031 3.164062 3.933594 3.164062.289062 0 .582031-.03125.871094-.097656 12.292968-2.714844 22.257812-6.300781 30.386718-10.949219 1.46875 2.222657 1.828125 5.988281.636719 9.148438zm-90.011719 162.726562 3.15625-128.167969c7.027344 1.542969 14.222656 2.320313 21.441406 2.320313 14.917969 0 29.9375-3.292969 43.824219-9.796875 4.773438 45.539062 6.875 93.574219 7.796875 126.15625.046875 1.582031-.035156 2.511719-.242187 2.761719-.15625.191406-.808594.457031-3 .640625zm-7.605468-18.714843c-3.222657.960937-6.691407.988281-9.921876.078124.246094-37.886718 2.449219-76.140624 6.527344-113.792968 2.027344.785156 4.074219 1.5 6.144532 2.140625zm-23.296876-194.53125c1.296876-2.382813 2.519532-4.945313 3.667969-7.695313 10.320313-24.738281 10.902344-52.898437 1.757813-78.027344 9.539062.125 19.09375.183594 28.644531.183594 26.769531 0 53.53125-.429687 79.945313-.949219-9.4375 25.320313-8.953126 53.800782 1.46875 78.792969 1.03125 2.46875 2.125 4.78125 3.277343 6.957031-14.574219 14.722656-36.3125 23.699219-58.300781 24.027344-22.199219.34375-44.480469-8.144531-59.601562-22.679688-.261719-.25-.554688-.445312-.859376-.609374zm161.753907 15.574218c-7.210938 2-16.210938.210938-23.195313-4.785156-6.441406-4.605469-11.410156-11.464844-15.632812-21.589844-10.050782-24.101562-10.109375-51.714844-.1875-75.863281 4.765625-.097656 9.523437-.195313 14.261718-.296875-5.035156 24.476562 4.546876 53.324219 24.75 73.675781.121094 9.636719.125 19.265625.003907 28.859375zm-.214844-41.171875c-14.765625-18.390625-21.097656-41.984375-16.171875-61.808593 4.171875-.4375 8.660156-1.28125 12.867188-2.808594 1.699218 21.417968 2.808593 43.027344 3.304687 64.617187zm-170.597656-166.644531c18.589843-17.953125 44.347656-28.925781 70.667969-30.113281 27.222656-1.222657 54.167968 8.25 72.0625 25.351562 17.589843 16.804688 25.59375 40.429688 21.273437 62.253907-2.339844-.429688-4.710937-.738282-7.101563-.945313.191407-12.015625.214844-26.683594-7.074218-39.035156-5.527344-9.375-15.207032-17.375-28.765625-23.785157-28.417969-13.441406-62.863281-14.566406-89.894531-2.9375-28.367188 12.203126-47.773438 39.027344-47.890626 65.796876-4.4375.414062-8.886718 1.175781-13.171874 2.601562 2.914062-22.410156 13.398437-43.257812 29.894531-59.1875zm-8.664063 56.164062c.3125-23.488281 17.699219-47.074218 43.019532-57.96875 24.96875-10.738281 56.875-9.660156 83.261718 2.820313 12.074219 5.707031 20.574219 12.636719 25.269532 20.589844 6.113281 10.363281 6.140624 23.109375 5.957031 34.550781-4.460938-.070312-8.933594.054688-13.335938.183594-3.714843.109375-7.214843.210937-10.6875.203125l-126.058593-.417969c-2.414063-.007812-4.898438-.011719-7.425782.039062zm-33.164062 29.890626c-2.441406-6.875 3.945312-14.675782 11.265625-17.964844 8.03125-3.609375 17.757812-3.90625 26.675781-3.90625.882812 0 1.757812.003906 2.621094.007812l126.058594.414063c3.589843.007812 7.335937-.097657 10.953124-.207031 9.386719-.277344 19.097657-.5625 27.808594 1.199218 8.585938 1.734375 12.734375 6.238282 12.6875 13.761719-.074218 11.433594-9.679687 17.429687-28.539062 17.824219-51.988282 1.089844-105.746094 2.21875-158.582032.773437-6.097656-.167969-13.007812-.359375-19.089843-2.3125-5.972657-1.921875-10.40625-5.507812-11.859375-9.589843zm8.5 80.710937c.480468-20.980469 1.546875-41.972656 3.164062-62.800781 4.390625 1.140625 8.933594 1.601562 13.160156 1.828125 5.375 19.636719-.8125 42.21875-16.324218 60.972656zm22.984375 36.265625c-6.984375 4.996094-15.984375 6.785156-23.195313 4.785156-.125-9.59375-.117187-19.21875 0-28.855468 21.136719-21.199219 30.476563-48.695313 24.917969-72.890626 4.800781.125 9.609375.230469 14.421875.3125 9.589844 23.957032 9.425781 51.222657-.515625 75.058594-4.222656 10.125-9.1875 16.984375-15.628906 21.589844zm-50.492188 262.621094c-11.382812.046875-22.128906-.460938-28.996093-7.003906-7.65625-7.285157-7.925782-19.6875-7.546876-31.773438 1.160157-37.128906 2.480469-79.210938 20.734376-114.253906 15.386718-29.539063 43.335937-52.96875 75.089843-63.089844.40625 1.105469.882813 2.152344 1.417969 3.101562 3.15625 5.609376 8.074219 9.230469 12.46875 12.035157 2.882812 1.839843 5.851562 3.503906 8.886719 5.003906-.003907.03125-.019531.058594-.019531.09375-4.386719 39.644531-6.6875 79.980469-6.84375 119.882813-.003907 1.59375.929687 3.042968 2.386718 3.695312 3.316406 1.484375 6.929688 2.234375 10.542969 2.234375 1.632813 0 3.261719-.167969 4.863281-.472656l-.359375 14.675781c-.027343 1.144531.429688 2.246094 1.265625 3.03125.75.707031 1.738282 1.097656 2.765625 1.097656.109375 0 .222657-.003906.335938-.011718l27.644531-2.308594c-.769531 17.820312-.527344 35.832031.75 53.613281l-107.335938.386719c1.71875-23.339844.445313-46.824219-3.800781-69.839844-.402343-2.191406-2.511719-3.640625-4.695312-3.234375-2.1875.40625-3.636719 2.507813-3.230469 4.695313 4.15625 22.546874 5.375 45.550781 3.640625 68.410156zm283.707031-73.066406c-.332031 16.871093-.792968 34-1.375 50.910156-.21875 6.351562-.65625 11.914062-3.789062 15.660156-4.25 5.085938-12.6875 5.542969-20.257812 5.570312l-43.507813.15625 5.957031-65.152343c.203125-2.214844-1.429687-4.179688-3.648437-4.382813-2.21875-.195312-4.179688 1.429688-4.382813 3.648438l-6.027344 65.914062-73.210937.265625c-1.3125-17.996093-1.550781-36.234375-.726563-54.261719l41.707032-3.476562c2.105468-.175781 6.027344-.503906 8.535156-3.53125 2.25-2.714844 2.15625-6.109375 2.097656-8.136719-.949218-33.441406-3.132812-83.105469-8.160156-129.78125-.003906-.050781-.023438-.09375-.027344-.140625 3.097656-1.785156 6.132813-3.71875 9.070313-5.84375 4.121093-2.980468 8.578125-6.695312 11.300781-11.960937 30.199219 16.726562 65.542969 40.53125 79.175781 77.199219 7.542969 20.289062 7.753907 42.5 7.269531 67.34375zm0 0"/></svg>