<svg height="512pt" viewBox="-82 0 512 512.00195" width="512pt" xmlns="http://www.w3.org/2000/svg"><path d="m109.320312 159.75c-5.402343 0-11.53125 0-17.175781-1.503906-3.632812-.96875-10.265625-3.5-13.855469-9.582032-3.660156-6.203124-2.902343-15.148437 1.847657-21.757812 4.054687-5.632812 10.859375-9.917969 19.164062-12.066406 7.425781-1.9375 15.214844-2.128906 22.746094-2.3125l41.902344-.976563c11.710937-.265625 23.667969-.660156 34.222656-1.007812 9.632813-.320313 19.59375-.648438 29.519531-.902344.957032-.023437 1.90625-.035156 2.839844-.035156 20.914062 0 35.570312 6.195312 43.5625 18.414062 4.605469 7.054688 5.753906 14.695313 3.0625 20.445313-2.117188 4.523437-6.742188 8.113281-12.691406 9.847656-5.308594 1.539062-11.109375 1.539062-16.226563 1.539062zm0 0" fill="#59bd8b"/><path d="m201.71875 34.421875c-8.117188-2.359375-16.589844-3.554687-25.171875-3.554687-6.730469 0-13.449219.742187-19.96875 2.207031l-1.773437.398437s-1.492188-1.09375-1.492188-1.097656c-2.835938-1.046875-5.054688-3.601562-5.960938-6.863281-.929687-3.265625-.355468-6.628907 1.539063-8.980469 1.75-2.191406 4.578125-3.457031 7.742187-3.457031.242188 0 .480469.007812.726563.023437 3.40625.210938 6.394531 1.859375 7.988281 4.417969 1.003906-7.304687 7.746094-13.332031 15.089844-13.453125h.226562c7.238282 0 14.074219 5.800781 15.238282 12.9375 1.339844-.703125 2.855468-1.089844 4.429687-1.089844 3.191407 0 6.214844 1.535156 7.890625 4.003906 2.613282 3.824219 1.777344 9.539063-1.824218 12.472657l-1.515626 2.90625zm0 0" fill="#59bd8b"/><g fill="#939baa"><path d="m205.546875 383.542969c-6.816406 0-13.449219-1.792969-19.1875-5.191407l-2.503906-1.480468.636719-2.839844c2.085937-9.273438 7.929687-19.328125 16.027343-27.574219 5.1875-5.269531 11.023438-10.003906 16.664063-14.582031l.089844-.074219c7.296874-5.929687 14.839843-12.058593 20.992187-19.367187 7.117187-8.476563 12.378906-18.777344 15.214844-29.78125l.839843-3.261719 3.359376.269531c11.488281.9375 20.65625 9.464844 22.292968 20.742188 1.773438 12.316406-6.546875 24.988281-18.546875 28.253906 3.285157 6.160156 2.71875 14.351562-1.394531 19.957031-3.441406 4.675781-9.277344 7.574219-15.238281 7.574219-1.144531 0-2.28125-.109375-3.375-.324219-3.046875 11.445313-11.789063 21.144531-22.855469 25.335938-4.125 1.558593-8.5 2.34375-13.015625 2.34375zm0 0"/><path d="m171.625 507.824219c-3.5 0-6.996094-.003907-10.492188-.015625l-3.71875-.007813-.261718-3.710937c-2.835938-40.386719-2.117188-81.261719 2.136718-121.488282l.960938-9.101562 6.023438 6.886719c5.582031 6.375 12.132812 10.476562 18.953124 11.851562-.890624-2.6875-1.441406-5.507812-1.597656-8.414062l-.355468-6.679688 6.050781 2.847657c3.90625 1.835937 8.132812 2.984374 12.5625 3.40625l3.609375.347656.214844 123.933594-3.980469.03125c-10.351563.074218-20.484375.113281-30.105469.113281zm0 0"/><path d="m150.066406 378.746094c-4.007812 0-8.003906-.871094-11.554687-2.515625-7.144531-3.328125-12.6875-9.839844-14.828125-17.421875-2.585938.925781-5.300782 1.402344-8.109375 1.402344-4.378907 0-8.605469-1.152344-12.21875-3.335938-5.976563-3.605469-10.253907-10.140625-11.15625-17.054688-.074219-.542968-.132813-1.117187-.1875-1.703124-.195313-2.015626-.398438-4.105469-1.480469-5.867188-1.582031-2.558594-4.542969-3.628906-7.40625-4.664062-1.414062-.507813-2.574219-.941407-3.683594-1.488282-9.34375-4.671875-11.3125-17.761718-7.300781-27.0625 3.761719-8.722656 11.417969-15.15625 18.300781-20.503906l3.402344-2.640625 2.382812 3.585937c2.59375 3.90625 5.503907 7.570313 8.660157 10.890626l.308593-3.613282.660157-9.511718 6.324219 7.136718c11.769531 13.28125 24.980468 29.023438 32.804687 47.78125 2.152344 5.144532 3.941406 10.695313 5.519531 15.59375l.0625.199219c2.148438 6.613281 4.371094 13.449219 7.449219 19.804687.648437 1.34375 1.355469 2.664063 2.15625 4.039063l2.582031 4.429687-4.925781 1.425782c-2.511719.726562-5.121094 1.09375-7.761719 1.09375zm0 0"/></g><path d="m177.925781 389.621094c-7.886719-3.96875-14.941406-11.746094-19.863281-21.894532-3.140625-6.507812-5.351562-13.371093-7.496094-20.007812-1.667968-5.144531-3.394531-10.464844-5.523437-15.582031-8.808594-21.113281-24.949219-39.074219-39.191407-54.921875l-.265624 3.085937-.753907 11.035157-6.480469-8.964844c-15.351562-21.234375-20.207031-49.636719-12.671874-74.128906 1.0625-3.453126 2.367187-6.878907 3.625-10.191407 1.699218-4.472656 3.453124-9.09375 4.640624-13.816406 1.269532-5.074219 2.335938-12.609375.207032-19.671875l-1.730469-5.757812 5.980469.628906c3.589844.378906 7.28125.378906 10.851562.378906h1.9375l1.289063 1.632812c4.4375 4.691407 2.839843 11.851563 2.238281 13.953126-.792969 2.777343-1.996094 5.296874-3.269531 7.964843l-.082031.179688c-.964844 1.996093-1.816407 3.789062-2.523438 5.652343-3.300781 8.632813-3.273438 18.519532.070312 27.125 4.238282 10.902344 12.292969 14.769532 17.898438 14.769532.359375 0 .710938-.015625 1.0625-.039063 5.296875-.4375 9.710938-3.882812 13.980469-7.210937 1.296875-1.019532 2.578125-2.011719 3.878906-2.933594 7.285156-5.128906 16.464844-7.949219 25.855469-7.949219 6.628906 0 13.140625 1.425781 18.828125 4.121094 2.710937 1.296875 5.222656 2.8125 7.882812 4.417969l.269531.160156c4.722657 2.875 9.585938 5.835938 15.078126 6.992188 1.613281.34375 3.28125.515624 4.964843.515624 5.394531 0 10.695313-1.734374 14.921875-4.886718 5.597656-4.167969 9.304688-10.820313 9.917969-17.792969.488281-5.703125-1.003906-11.386719-2.445313-16.882813-.578124-2.167968-1.140624-4.308593-1.597656-6.503906-1.171875-5.605468-2.167968-15.9375 4.3125-22.085937l1.15625-1.097657h3.136719l.789063.011719c2.046874 0 3.742187-.027343 5.34375-.085937l6.125-.230469-2.261719 5.699219c-2.707031 6.824218-1.90625 14.460937-.757813 19.664062.957032 4.324219 2.4375 8.667969 3.746094 12.5 1.226562 3.601563 2.378906 7 3.292969 10.609375 3.730469 14.71875 2.554687 29.800781 1.03125 43.988281l-.75 6.964844-5.617188-4.179687c-1.597656-1.191407-2.984375-2.609375-4.125-4.21875 3.777344 21.792969-2.417969 44.859375-16.613281 61.761719-6.171875 7.335937-13.414062 13.210937-21.082031 19.433593l-.203125.164063c-5.578125 4.535156-11.34375 9.226562-16.457032 14.425781-12.089843 12.292969-18.207031 26.574219-16.777343 39.183594l.835937 7.347656zm0 0" fill="#d34242"/><path d="m88.707031 112.417969c2.152344-28.589844 18.738281-55.285157 43.285157-69.667969 13.230468-7.753906 28.628906-11.851562 44.539062-11.851562 15.027344 0 29.683594 3.691406 42.382812 10.675781 25.171876 13.847656 42.496094 40.351562 45.214844 69.167969l.648438 6.914062-6.304688-2.902344c-7.515625-3.460937-16.910156-5.214844-27.929687-5.214844-.9375 0-1.890625.015626-2.855469.039063-9.917969.253906-19.878906.582031-29.511719.898437-10.570312.351563-22.550781.746094-34.230469 1.011719l-41.886718.976563c-7.539063.183594-15.332032.371094-22.777344 2.304687-1.699219.445313-3.429688 1.011719-5.132812 1.675781l-5.921876 2.316407zm0 0" fill="#cbe580"/><path d="m205.558594 383.765625 3.625-.347656c3.269531-.3125 6.429687-1.039063 9.394531-2.160157 10.046875-3.800781 18.246094-12.164062 21.933594-22.367187l.976562-2.710937 2.882813.070312c.148437.003906.300781.007812.449218.007812 5.953126 0 11.796876-2.914062 15.253907-7.601562 3.363281-4.578125 4.441406-10.898438 2.808593-16.496094l-.964843-3.308594 3.128906-1.441406c2.515625-1.164062 4.859375-2.777344 6.964844-4.800781l2.65625-2.554687 2.761719 2.4375c20.046874 11.949218 42.832031 25.539062 55.15625 47.597656 10.125 18.117187 11.71875 39.675781 12.414062 58.460937.652344 17.148438.648438 34.621094-.011719 51.929688-.304687 8.113281-1.390625 16.226562-7.207031 20.644531-4.050781 3.078125-9.253906 3.515625-15.144531 3.742188-14.019531.558593-28.570313 1.042968-43.242188 1.453124l-3.832031.105469-.269531-3.824219c-1.523438-21.523437-1.136719-43.175781 1.152343-64.351562-2.335937 21.078125-2.730468 42.617188-1.242187 64.011719l.289063 4.167969-4.175782.109374c-20.582031.53125-41.277344.902344-61.515625 1.101563l-4.03125.039063zm0 0" fill="#5b5d6d"/><path d="m153.035156 507.78125c-25.203125-.132812-50.550781-.507812-75.339844-1.121094l-4.375-.109375.5-4.347656c2.5625-22.339844 2.332032-44.972656-.679687-67.265625 2.976563 22.519531 3.175781 45.390625.527344 67.988281l-.429688 3.632813-3.652343-.101563c-14.375-.390625-27.675782-.820312-40.664063-1.308593-7.613281-.28125-15.453125-1-20.296875-6.316407-4.832031-5.3125-4.800781-13.359375-4.394531-20.480469 1.496093-26.015624 4.492187-52.246093 8.898437-77.96875 2.808594-16.375 6.578125-35.210937 15.828125-51.488281 9.296875-16.34375 23.992188-28.121093 39.3125-31.5l2.964844-.65625 1.429687 2.683594c1.617188 3.035156 3.878907 5.296875 6.726563 6.71875 1.117187.558594 2.296875.988281 3.542969 1.441406l.164062.058594c2.847656 1.027344 5.800782 2.09375 7.378906 4.648437 1.066407 1.730469 1.269532 3.828126 1.46875 5.855469.054688.5625.109376 1.125.183594 1.675781.933594 7.054688 5.117188 13.449219 11.191406 17.117188 3.644532 2.195312 7.863282 3.355469 12.199219 3.355469 1.613281 0 3.226563-.164063 4.789063-.488281l3.191406-.664063 1.292969 2.992187c2.679687 6.1875 7.667969 11.347657 13.6875 14.152344 3.554687 1.652344 7.566406 2.523438 11.605469 2.523438 1.5 0 3.011718-.121094 4.488281-.367188l5.175781-.851562-.546875 5.21875c-4.203125 39.984375-4.929687 80.59375-2.15625 120.695312l.296875 4.296875zm0 0" fill="#5b5d6d"/><path d="m263.089844 192.925781c-.277344 0-.550782-.003906-.824219-.023437l-2.816406-.160156-.792969-2.707032c-.59375-2.019531-1.003906-3.585937-1.335938-5.078125-1.25-5.65625-2.03125-13.882812 1.332032-20.96875l1.007812-2.128906 2.351563-.152344c.328125-.019531.65625-.027343.984375-.027343 4.878906 0 9.535156 2.21875 12.457031 5.941406 3.734375 4.746094 4.367187 11.542968 1.570313 16.910156-2.628907 5.023438-8.226563 8.394531-13.933594 8.394531zm0 0" fill="#ffdac4"/><path d="m126.71875 231.03125c-5.984375 0-13.792969-4.554688-17.742188-14.734375-3.34375-8.582031-3.371093-18.453125-.078124-27.074219.683593-1.808594 1.496093-3.503906 2.355468-5.296875l.261719-.554687c1.21875-2.550782 2.476563-5.191406 3.261719-7.945313 1.050781-3.671875 1.050781-7.3125 0-10.261719l-1.910156-5.347656 130.128906.097656-2.632813 5.679688c-2.808593 6.054688-1.839843 13.570312-1.015625 17.515625.425782 2.054687.972656 4.136719 1.5 6.148437l.09375.355469c1.445313 5.488281 2.9375 11.167969 2.4375 16.867188-.597656 6.945312-4.292968 13.582031-9.886718 17.746093-4.21875 3.140626-9.492188 4.871094-14.851563 4.871094-1.683594 0-3.359375-.171875-4.980469-.515625-5.472656-1.152343-10.34375-4.113281-15.054687-6.976562-2.628907-1.59375-5.351563-3.246094-8.167969-4.582031-5.78125-2.742188-12.332031-4.191407-18.941406-4.191407-9.289063 0-18.449219 2.847657-25.789063 8.019531-1.339843.941407-2.695312 2-3.894531 2.933594-4.253906 3.324219-8.660156 6.761719-14 7.199219-.367188.03125-.730469.046875-1.09375.046875zm0 0" fill="#ffdac4"/><path d="m86.09375 196.742188h-.222656c-5.734375 0-11.382813-4.179688-13.4375-9.941407-1.90625-5.363281-.777344-12.09375 2.878906-17.148437 3.0625-4.203125 7.640625-7.375 13.25-9.171875l3.605469-1.15625 1.351562 3.539062c2.847657 7.457031 1.769531 15.730469.363281 21.355469-.914062 3.652344-2.136718 7.105469-3.207031 10l-1.203125 3.25zm0 0" fill="#ffdac4"/><path d="m349.066406 428.402344c-.726562-19.273438-2.378906-41.414063-12.929687-60.296875-12.777344-22.863281-36.859375-37.316407-56.324219-48.921875 3.488281-5.746094 5.160156-12.59375 4.179688-19.355469-1.859376-12.859375-12.269532-22.652344-24.992188-24.128906.789062-5.117188 1.101562-10.3125.886719-15.496094 1.160156.59375 2.367187 1.09375 3.617187 1.484375 1.148438.359375 2.398438.1875 3.40625-.46875 1.007813-.65625 1.671875-1.730469 1.804688-2.925781 1.804687-15.992188 3.847656-34.121094-.480469-51.214844-.886719-3.496094-2.023437-6.898437-3.144531-10.203125 6.480468-.683594 12.476562-4.628906 15.527344-10.460938 3.53125-6.757812 2.738281-15.320312-1.976563-21.3125-1.847656-2.351562-4.230469-4.199218-6.882813-5.476562 4.101563-2.335938 7.28125-5.601562 9.078126-9.4375 3.292968-7.03125 2.046874-16.144531-3.335938-24.382812-2.460938-3.761719-5.484375-6.988282-9.03125-9.707032.023438-.203125.046875-.40625.042969-.617187-1.109375-31.75-19.8125-62.15625-47.644531-77.464844-3.183594-1.753906-6.476563-3.289063-9.839844-4.625 3.417968-4.480469 3.792968-11.003906.546875-15.773437-2.871094-4.214844-8.0625-6.308594-12.980469-5.664063-3.105469-7.003906-10.441406-12.066406-18.21875-11.953125-7.015625.113281-13.59375 4.488281-16.902344 10.59375-1.773437-.886719-3.773437-1.421875-5.875-1.550781-4.730468-.28125-9.15625 1.566406-11.871094 4.941406-2.714843 3.371094-3.566406 8.101563-2.285156 12.648437.554688 1.960938 1.480469 3.722657 2.660156 5.230469-5.609374 1.914063-11.035156 4.378907-16.167968 7.386719-27.15625 15.914062-44.9375 46.402344-45.5 77.859375-2.773438 1.945313-5.402344 4.378906-7.59375 7.429687-5.746094 7.996094-6.566406 18.523438-2.046875 26.1875 1.824219 3.097657 4.496093 5.75 7.800781 7.820313-4.292969 2.136719-7.941406 5.109375-10.5625 8.726563-4.488281 6.195312-5.800781 14.199218-3.417969 20.890624 2.398438 6.742188 8.644531 11.710938 15.371094 12.515626-.769531 2.089843-1.519531 4.214843-2.183594 6.371093-6.902343 22.433594-4.074219 47.179688 6.925781 67.667969-7.402343 5.671875-15.996093 12.707031-20.3125 22.707031-2.117187 4.90625-2.777343 10.726563-1.855468 16.175781-16.347656 3.859376-31.203125 15.828126-41.128906 33.289063-9.578126 16.847656-13.4375 36.09375-16.300782 52.808594-4.429687 25.839843-7.441406 52.222656-8.949218 78.414062-.460938 7.945313-.453126 16.96875 5.445312 23.449219 5.890625 6.476562 15.039062 7.34375 23.148438 7.652344 42.359374 1.59375 84.972656 2.472656 127.621093 2.644531.320313.085937.652344.140625.996094.140625.097656 0 .203125 0 .304687-.007812.246094-.019532.476563-.066407.703126-.125 4.582031.015624 9.160156.03125 13.738281.03125 34.496093 0 68.996093-.476563 103.378906-1.40625.003906 0 .007813.003906.011719.003906.03125 0 .0625-.003906.097656-.003906 15.753906-.425782 31.484375-.9375 47.179688-1.558594 5.082031-.199219 12.042968-.476563 17.441406-4.574219 7.15625-5.429687 8.464844-14.609375 8.808594-23.71875.65625-17.332031.660156-34.910156.011718-52.238281zm-73.054687-127.421875c1.476562 10.207031-5.683594 21.113281-15.636719 23.816406-1.1875.320313-2.160156 1.171875-2.648438 2.300781-.484374 1.132813-.425781 2.425782.160157 3.507813 2.597656 4.804687 2.152343 11.238281-1.089844 15.640625-3.238281 4.402344-9.25 6.742187-14.609375 5.691406-2.09375-.410156-4.132812.871094-4.675781 2.925781-2.691407 10.203125-10.496094 18.859375-20.367188 22.589844-9.328125 3.527344-20.179687 2.53125-28.746093-2.542969 2.164062-9.652344 8.332031-18.890625 14.972656-25.648437 5.011718-5.097657 10.765625-9.765625 16.328125-14.28125 7.476562-6.070313 15.207031-12.34375 21.621093-19.972657 7.652344-9.105468 13.078126-19.910156 16.035157-31.359374 9.46875.777343 17.289062 7.894531 18.65625 17.332031zm-2.542969-118.300781c-2.046875 3.917968-6.578125 6.476562-10.972656 6.230468-.472656-1.601562-.914063-3.203125-1.273438-4.820312-1.152344-5.210938-1.796875-12.398438 1.039063-18.394532 3.777343-.242187 7.699219 1.417969 10.039062 4.390626 2.742188 3.484374 3.222657 8.664062 1.167969 12.59375zm-118.753906-154.046876c-1.621094-.582031-2.9375-2.148437-3.511719-4.191406-.578125-2.039062-.277344-4.0625.804687-5.40625 1.082032-1.34375 2.992188-2.070312 5.109376-1.941406 2.117187.125 3.925781 1.074219 4.839843 2.535156.902344 1.445313 2.617188 2.167969 4.277344 1.800782 1.664063-.363282 2.921875-1.734376 3.140625-3.421876.683594-5.304687 5.78125-9.859374 11.128906-9.945312h.15625c5.289063 0 10.441406 4.351562 11.289063 9.578125.210937 1.300781 1.042969 2.414063 2.226562 2.984375 1.1875.574219 2.578125.53125 3.722657-.113281 2.230468-1.253907 5.570312-.46875 7.011718 1.644531 1.4375 2.113281.945313 5.507812-1.035156 7.125-.449219.367188-.792969.8125-1.039062 1.296875-15.25-4.425781-31.640626-4.890625-47.136719-1.410156-.296875-.214844-.617188-.40625-.984375-.535157zm-20.707032 17.570313c25.007813-14.652344 57.578126-15.09375 82.972657-1.125 24.035156 13.222656 40.597656 38.78125 43.160156 66.039063-8.707031-4.003907-19.578125-5.875-32.554687-5.539063-9.851563.25-19.863282.582031-29.542969.902344-11.207031.367187-22.792969.75-34.183594 1.011719l-41.695313.972656c-7.832031.183594-15.933593.371094-23.886718 2.4375-1.722656.449218-3.617188 1.042968-5.582032 1.820312 2.035157-27.074218 17.839844-52.761718 41.3125-66.519531zm-50.621093 83.039063c3.492187-4.867188 9.503906-8.605469 16.917969-10.535157 7.046874-1.832031 14.671874-2.011719 22.046874-2.183593l41.691407-.96875c11.429687-.265626 23.039062-.648438 34.265625-1.019532 9.664062-.316406 19.660156-.644531 29.484375-.898437 20.964843-.53125 35.410156 5.039062 42.953125 16.578125 3.84375 5.882812 4.886718 12.070312 2.785156 16.550781-1.632812 3.488281-5.34375 6.296875-10.183594 7.699219-4.796875 1.394531-10.164062 1.382812-15.328125 1.386718l-138.695312-.101562c-5.433594-.003906-11.050781-.007812-16.152344-1.363281-3.042969-.8125-8.570313-2.894531-11.4375-7.753907-2.875-4.882812-2.199219-12.03125 1.652344-17.390624zm152.042969 54.6875c.476562 2.273437 1.070312 4.523437 1.644531 6.703124 1.417969 5.398438 2.761719 10.492188 2.324219 15.5-.507813 5.832032-3.605469 11.394532-8.292969 14.882813-4.691407 3.492187-10.90625 4.859375-16.621094 3.65625-4.785156-1.007813-9.164063-3.667969-13.796875-6.480469-2.722656-1.65625-5.539062-3.363281-8.53125-4.785156-15.546875-7.367188-34.679688-5.734375-48.75 4.167969-1.390625.980469-2.742188 2.035156-4.046875 3.054687-3.976563 3.101563-7.734375 6.03125-11.875 6.371094-6.429687.535156-12.28125-5.714844-14.78125-12.148438-2.988281-7.683593-3.011719-16.503906-.070313-24.199218.675782-1.769532 1.507813-3.507813 2.390626-5.34375 1.328124-2.769532 2.699218-5.628906 3.601562-8.789063 1.308594-4.570312 1.242188-9-.074219-12.699219l118.1875.085938c-3.207031 6.910156-2.347656 15.058594-1.308593 20.023438zm-159.222657 1.53125c-1.480469-4.160157-.558593-9.441407 2.351563-13.457032 2.535156-3.5 6.488281-6.195312 11.222656-7.714844 2.445312 6.394532 1.542969 13.675782.21875 18.960938-.808594 3.230469-1.890625 6.371094-3.078125 9.582031-.285156-.058593-.578125-.09375-.878906-.089843-4.089844.089843-8.328125-3.042969-9.835938-7.28125zm13.296875 23.957031c1.023438-3.320313 2.300782-6.691407 3.539063-9.949219 1.742187-4.578125 3.539062-9.316406 4.777343-14.261719 1.492188-5.957031 2.492188-14.058593.164063-21.796875 3.796875.394532 7.574219.402344 11.273437.402344.082032.101562.148438.207031.238282.300781 2.453125 2.492188 2.320312 6.898438 1.375 10.1875-.714844 2.507813-1.882813 4.945313-3.121094 7.523438-.910156 1.90625-1.855469 3.875-2.648438 5.953125-3.648437 9.539062-3.617187 20.472656.082032 29.996094 4.707031 12.105468 14.011718 17.316406 21.632812 17.316406.445313 0 .890625-.015625 1.324219-.054688 6.542969-.535156 11.660156-4.523437 16.175781-8.046875 1.285156-1.003906 2.5-1.953125 3.730469-2.816406 11.550781-8.132813 27.886719-9.527344 40.652344-3.476563 2.617187 1.242188 5.136719 2.773438 7.800781 4.390626 5.011719 3.039062 10.1875 6.1875 16.320312 7.476562 7.949219 1.671875 16.582032-.222656 23.101563-5.078125 6.503906-4.84375 10.804687-12.5625 11.511719-20.652344.554687-6.402343-1.03125-12.425781-2.5625-18.25-.574219-2.175781-1.113282-4.230469-1.546875-6.304687-.8125-3.882813-2.109375-13.378906 3.148437-18.363282h1.542969.792969c1.765625 0 3.609375-.011718 5.484375-.085937-3.015625 7.613281-2.285157 15.925781-.941407 22 .984376 4.46875 2.449219 8.769531 3.863282 12.929687 1.203125 3.53125 2.335937 6.867188 3.203125 10.300782 3.496093 13.808594 2.460937 28.339844.925781 42.582031-1.242188-.929687-2.34375-2.050781-3.253906-3.316406-1.09375-1.53125-3.101563-2.101563-4.839844-1.375-1.734375.730469-2.734375 2.566406-2.410156 4.417969 3.628906 20.59375-2.234375 42.445312-15.691406 58.453124-5.914063 7.039063-13.015626 12.800782-20.527344 18.898438-5.734375 4.65625-11.667969 9.46875-16.996094 14.890625-13.097656 13.324219-19.453125 28.679687-17.894531 42.4375-7.09375-3.570313-13.46875-10.582031-18.058594-20.0625-2.988281-6.171875-5.082031-12.640625-7.300781-19.492187-1.695313-5.242188-3.449219-10.660157-5.636719-15.898438-9.054687-21.71875-25.445313-39.960938-39.90625-56.054688-1.082031-1.203124-2.777344-1.644531-4.308594-1.117187s-2.597656 1.917969-2.710937 3.53125l-.214844 3.082031c-14.414062-19.9375-19.304688-47.160156-12.089844-70.617187zm-13.6875 91.199219c3.191406-7.394532 9.542969-13.074219 17.078125-18.925782 2.6875 4.046875 5.722657 7.878906 9.09375 11.429688 1.097657 1.15625 2.78125 1.558594 4.285157 1.019531 1.503906-.542969 2.546874-1.917969 2.660156-3.515625l.25-3.59375c12.597656 14.214844 24.804687 29.152344 32.109375 46.667969 2.054687 4.933593 3.757812 10.191406 5.40625 15.277343 2.203125 6.808594 4.484375 13.847657 7.710937 20.519532.722656 1.492187 1.5 2.921875 2.300782 4.3125-5.417969 1.574218-11.390626 1.175781-16.519532-1.210938-6.097656-2.839844-10.832031-8.402344-12.65625-14.878906-.304687-1.082031-1.050781-1.988281-2.054687-2.496094-1.003907-.511718-2.171875-.578125-3.226563-.1875-5.429687 2.011719-11.878906 1.402344-16.832031-1.585937-4.957031-2.988281-8.503906-8.410157-9.261719-14.144531-.066406-.515626-.117187-1.039063-.167968-1.5625-.230469-2.375-.492188-5.0625-2.058594-7.59375-2.320313-3.75-6.277344-5.179688-9.460938-6.332032-1.1875-.425781-2.308594-.832031-3.261718-1.308594-7.195313-3.597656-8.617188-14.421874-5.394532-21.890624zm-64.230468 195.519531c-3.792969-4.167969-3.722657-11.25-3.359376-17.5625 1.492188-25.890625 4.46875-51.96875 8.84375-77.511719 2.75-16.042969 6.433594-34.472656 15.367188-50.191406 8.824219-15.523438 22.425781-26.425782 36.699219-29.566406 1.890625 3.542968 4.691406 6.527343 8.46875 8.414062 1.375.6875 2.773437 1.195312 4.128906 1.683594 2.414063.871094 4.5 1.625 5.339844 2.988281.582031.9375.730469 2.492187.890625 4.136719.0625.613281.121094 1.222656.203125 1.828125 1.082031 8.234375 5.972656 15.710937 13.089843 20 5.9375 3.582031 13.125 4.757812 19.871094 3.367187 3.042969 7.042969 8.6875 12.9375 15.660156 16.183594 4.15625 1.933594 8.726563 2.902344 13.296876 2.902344 1.71875 0 3.4375-.140625 5.132812-.414063-4.230469 40.230469-4.957031 81.023438-2.164062 121.382813-25.117188-.125-50.21875-.496094-75.261719-1.117188 2.597656-22.679687 2.367187-45.621094-.695313-68.257812-.296875-2.207032-2.324218-3.75-4.535156-3.453125-2.203125.296875-3.75 2.328125-3.453125 4.535156 3 22.207031 3.195313 44.71875.585937 66.96875-13.5625-.363281-27.105468-.792969-40.621093-1.300781-6.769531-.253906-13.699219-.851563-17.488281-5.015625zm149.554687 7.675781c-2.8125-40.160156-2.101563-80.761719 2.121094-120.796875 6.097656 6.960937 13.402343 11.574219 21.175781 13.140625.269531.054688.535156.082031.796875.082031 1.152344 0 2.265625-.496093 3.039063-1.382812.953124-1.09375 1.246093-2.609375.769531-3.976563-.832031-2.386718-1.285157-4.820312-1.421875-7.265625 4.363281 2.050781 9.082031 3.304688 13.878906 3.765625l.203125 116.332032c-13.519531.101562-27.042969.136718-40.5625.101562zm179.855469-23.480469c-.273438 7.128907-1.140625 14.199219-5.628906 17.605469-3.121094 2.371094-7.683594 2.734375-12.882813 2.9375-14.375.566406-28.777344 1.042969-43.203125 1.449219-1.5-21.171875-1.132812-42.558594 1.140625-63.644531.242187-2.214844-1.359375-4.203126-3.574219-4.441407-2.21875-.238281-4.203125 1.363281-4.441406 3.578125-2.3125 21.441406-2.695312 43.195313-1.191406 64.726563-20.453125.53125-40.941406.898437-61.449219 1.097656l-.203125-116.242187c3.558594-.339844 7.074219-1.132813 10.429688-2.402344 11.183593-4.226563 20.230468-13.535156 24.277343-24.75 7.371094.1875 14.648438-3.273438 19.023438-9.222656 4.183593-5.6875 5.394531-13.265626 3.433593-19.988282 2.988282-1.371094 5.699219-3.269531 8.058594-5.542968.167969.144531.339844.28125.535156.398437 19.675782 11.730469 41.972657 25.027344 53.773438 46.148437 9.679688 17.320313 11.226562 38.328126 11.914062 56.664063.640626 17.128906.636719 34.5-.011718 51.628906zm0 0"/></svg>