<svg height="511pt" viewBox="-87 0 511 511.99996" width="511pt" xmlns="http://www.w3.org/2000/svg"><path d="m309.5 507.933594c-.683594 0-1.371094-.003906-2.054688-.015625l-34.699218-.496094-.460938-84.410156.402344 84.40625-214.828125-3.109375.261719-4.191406c1.738281-27.472657.707031-55.175782-3.058594-82.347657 3.722656 27.289063 4.742188 55.125 2.972656 82.734375l-.242187 3.800782-35.984375-.515626c-4.644532-.070312-8.746094-.324218-11.957032-2.691406-5.011718-3.726562-5.472656-10.761718-5.222656-17.808594.996094-29.230468 2.027344-59.464843 9.753906-88.316406 6.042969-22.589844 19.054688-53.730468 46.683594-73.78125 5.996094-4.347656 12.503906-8.027344 18.800782-11.585937 6.003906-3.398438 12.21875-6.910157 17.953124-10.976563 4.320313-3.066406 8.152344-6.394531 11.390626-9.890625l4.09375-4.417969 2.484374 5.488282c4.734376 10.457031 10.277344 20.542968 16.476563 29.972656 1.507813 2.292969 5.027344 7.65625 10.007813 7.65625.042968 0 .332031 0 .433593-.003906 1.785157-.097656 3.457031-.867188 5.082031-2.351563l6.953126-6.335937-1.71875 62.773437c-.101563 3.644531-.214844 7.78125.921874 11.542969 1.261719 4.175781 4.027344 7.328125 7.398438 8.421875.933594.300781 1.890625.453125 2.832031.453125 4.941407 0 9.226563-3.894531 11.113281-7.515625 2.679688-5.144531 2.75-11.480469 2.804688-16.574219l.683594-57.355468 5.9375 3.476562c1.339844.785156 2.691406 1.363281 4.007812 1.71875 1.472656.410156 2.988282.613281 4.523438.613281 6.605468 0 13.851562-3.710937 19.882812-10.179687 2.730469-2.929688 5.167969-6.199219 7.527344-9.363282 3.039062-4.09375 6.167969-8.304687 9.996094-11.835937 0-.003906 2.273437-2.992187 2.273437-2.992187l3.089844 1.921874c5.253906 3.265626 11.039063 5.6875 16.632813 8.027344l.164062.070313c3.5 1.460937 7.113281 2.976562 10.554688 4.671875 26.925781 13.332031 48.4375 41.410156 59.019531 77.027344 9.539062 32.113281 10.050781 66.0625 10.542969 98.894531.113281 7.476562-.183594 15.117187-5.042969 20.070312-4.570313 4.675781-11.535157 5.320313-18.386719 5.320313zm0 0" fill="#f0f2fa"/><g fill="#fff"><path d="m49.785156 321.761719c-.886718-48.78125-1.003906-121.742188 8.171875-191.832031 1.246094-9.523438 2.851563-20.773438 5.355469-32l.761719-3.417969 3.488281.304687c28.472656 2.476563 57.339844 3.734375 85.800781 3.734375 37.46875 0 75.3125-2.15625 112.488281-6.40625l3.464844-.394531.863282 3.378906c.601562 2.355469 1.148437 4.664063 1.617187 6.863282 5.835937 27.28125 5.886719 55.519531 5.9375 82.832031l.277344 130.492187-6.175781-3.960937c-2.753907-1.765625-5.59375-3.375-8.433594-4.78125-3.5-1.730469-7.167969-3.265625-10.714844-4.746094-6.59375-2.761719-12.769531-5.339844-18.449219-9.199219-9.0625-6.144531-17.859375-16.847656-17.082031-26.90625l.097656-1.246094.789063-.972656c2.882812-3.542968 5.566406-7.5 7.96875-11.761718 7.164062-12.402344 11.390625-27.214844 12.941406-45.3125.082031-1.023438.277344-2.414063.503906-4.023438l.027344-.203125c1.089844-7.816406 1.996094-15.859375.140625-20.765625l-.457031-1.210938.335937-1.246093c-.269531-3.214844.355469-6.980469.90625-10.304688l.035156-.207031c.324219-2.011719.664063-4.089844.8125-6.023438.4375-5.894531.660157-11.839843.660157-17.644531 0-10.074219-3.007813-16.996093-9.464844-21.789062-6.070313-4.503907-14.03125-5.4375-21.660156-6.003907-10.59375-.777343-21.511719-1.171874-32.453125-1.171874-16.480469 0-33.394532.890624-50.277344 2.652343-9.0625.953125-18.496094 2.371094-25.429688 8.128907-17.082031 14.214843-11.808593 47.246093-9.554687 61.351562l.910156 1.273438-.191406 1.539062c-2.492187 19.714844 2.339844 40.453125 13.253906 56.898438 3.636719 5.46875 7.964844 10.527343 12.859375 15.039062l1.601563 1.476562-.371094 2.148438c-2.695313 15.539062-15.785156 26.859375-23.347656 32.226562-5.820313 4.128907-12.269531 7.769532-17.957031 10.984376l-.101563.054687c-6.277344 3.558594-12.773437 7.234375-18.695313 11.539063-1.59375 1.148437-3.175781 2.371093-4.710937 3.632812l-6.390625 5.253906zm0 0"/><path d="m151.929688 74.984375c-24.957032 0-50.191407-1.25-75.007813-3.714844l-5.535156-.550781 2.28125-5.070312c3.238281-7.207032 7.019531-13.835938 11.230469-19.703126 16.359374-22.8125 42.765624-38.257812 70.632812-41.3125 3.460938-.378906 7-.570312 10.515625-.570312 24.707031 0 49.25 9.363281 67.339844 25.6875 9.644531 8.710938 17.878906 19.617188 24.476562 32.417969l2.589844 5.023437-5.601563.773438c-33.9375 4.65625-68.5625 7.019531-102.921874 7.019531zm0 0"/><path d="m193.242188 326.234375c-1.535157 0-3.042969-.203125-4.480469-.601563-9.425781-2.601562-13.910157-12.703124-15.398438-16.925781-1.292969-3.636719-2.125-7.308593-3.003906-11.191406l-.023437-.113281c-.632813-2.800782-1.1875-5.144532-1.84375-7.496094l-1.457032-5.230469 5.425782.15625c.664062.019531 1.332031.039063 2.003906.039063 8.253906 0 15.875-1.558594 22.660156-4.632813 4.988281-2.25 9.769531-5.472656 14.214844-9.585937l4.699218-4.339844 1.847657 6.121094c1.730469 5.742187 6.125 11.933594 12.058593 16.992187l3.367188 2.878907-3.203125 3.058593c-3.578125 3.417969-6.582031 7.441407-9.488281 11.332031-2.457032 3.304688-4.78125 6.433594-7.527344 9.382813-5.9375 6.359375-13.359375 10.15625-19.851562 10.15625zm0 0"/><path d="m164.136719 401.859375c-.949219 0-1.882813-.148437-2.773438-.433594-3.351562-1.09375-6.09375-4.226562-7.355469-8.375-1.121093-3.722656-1.019531-7.648437-.921874-11.449219l1.78125-64.871093s0 0-.003907 0c-.003906 0-.015625-.050781-.027343-.101563l-.277344-1.4375.714844-1.273437c2.839843-5.089844 5.503906-10.273438 7.90625-15.414063l4.921874-10.511718 2.601563 11.308593c.816406 3.554688 1.574219 6.519531 2.59375 9.429688 1.199219 3.390625 2.757813 6.410156 4.640625 8.964843l.792969 1.078126-.695313 59.0625c-.066406 5.394531-.136718 11.449218-2.804687 16.554687-1.867188 3.59375-6.136719 7.46875-11.09375 7.46875zm0 0"/><path d="m142.296875 327.382812c-4.40625 0-7.644531-4.082031-9.976563-7.644531-7-10.652343-13.109374-22.027343-18.160156-33.804687l-.863281-2.015625 1.234375-1.8125c2.605469-3.824219 4.535156-7.800781 5.730469-11.828125l1.636719-5.507813 4.597656 3.449219c9.695312 7.269531 20.96875 12.445312 32.597656 14.960938 1.625.34375 3.269531.644531 4.871094.882812l5.082031.757812-1.980469 4.738282c-4.308594 10.320312-9.394531 20.410156-15.117187 29.992187-2.101563 3.519531-5.058594 7.589844-9.273438 7.820313-.121093.007812-.25.011718-.378906.011718zm0 0"/></g><path d="m174.476562 284.808594c-4.992187 0-10.167968-.570313-15.375-1.699219-21.105468-4.546875-40.058593-17.476563-51.996093-35.46875-11.386719-17.148437-16.105469-38.675781-12.953125-59.0625l.507812-3.273437 3.3125-.113282c.105469-.003906.214844-.003906.320313-.003906 4.851562 0 9.683593 3.71875 12.882812 6.835938l.203125.195312c4.210938 4.113281 8.945313 8.738281 14.566406 8.738281.390626 0 .789063-.019531 1.183594-.0625 3.828125-.429687 6.941406-2.984375 9.949219-5.457031l1.59375-1.300781 1.101563-.886719h.039062c8.945312-6.976562 19.445312-13.824219 30.386719-13.824219 5.449219 0 10.761719 1.707031 15.792969 5.066407 1.472656.988281 2.839843 2.074218 4.289062 3.226562l-2.394531 3.203125 2.480469-3.136719c3.550781 2.8125 7.222656 5.71875 11.695312 6.320313.605469.082031 1.21875.121093 1.824219.121093 6.210937 0 11.472656-4.375 16.113281-8.234374.722656-.601563 1.4375-1.1875 2.136719-1.757813.574219-.457031 1.132812-.929687 1.71875-1.433594 3.125-2.664062 5.730469-4.738281 8.496093-5.300781.644532-.132812 1.222657-.191406 1.773438-.191406 1.476562 0 2.714844.453125 3.6875 1.351562 3.171875 2.988282 3.597656 9.363282 1.605469 23.542969l-.027344.199219c-.21875 1.609375-.410156 2.996094-.496094 4.019531-1.554687 18.09375-5.78125 32.90625-12.933593 45.285156-5.335938 9.4375-14.6875 22.070313-28.855469 28.476563-6.785157 3.070312-14.398438 4.625-22.628907 4.625zm-6.421874-77.457032c-4.125 3.917969-7.703126 7.308594-13.914063 7.976563-.441406.042969-.867187.074219-1.292969.105469-1.882812.152344-3.742187.300781-5.230468 1.308594-1.589844 1.074218-2.402344 2.886718-2.933594 4.34375-4.136719 11.308593 1.265625 25.292968 12.039062 31.183593 3.707032 2.027344 8.050782 3.097657 12.5625 3.097657 7.878906 0 15.636719-3.296876 20.753906-8.828126 5.78125-6.242187 8.101563-14.550781 7.105469-25.402343-.527343-5.730469-2.917969-6.851563-6.871093-6.851563-.851563 0-1.703126.058594-2.453126.113282-.980468.070312-2.085937.148437-3.199218.148437-1.429688 0-2.660156-.132813-3.761719-.40625-5.195313-1.292969-8.644531-4.550781-11.597656-7.875l-.03125-.007813zm0 0" fill="#644c4c"/><path d="m153.46875 98.464844c-28.1875 0-56.675781-1.21875-84.675781-3.621094l-4.734375-.40625 1.210937-4.597656c1.488281-5.667969 3.207031-11.109375 5.101563-16.164063l1.082031-2.890625 3.070313.316406c25.679687 2.632813 51.703124 3.96875 77.34375 3.96875 34.789062 0 69.898437-2.429687 104.355468-7.222656.035156-.011718 3.742188-1.582031 3.742188-1.582031l1.585937 3.617187c2.417969 5.519532 4.5625 11.300782 6.371094 17.191407l1.410156 4.609375-4.785156.539062c-36.652344 4.140625-74.023437 6.242188-111.078125 6.242188zm0 0" fill="#5b5d6d"/><path d="m125.996094 200.886719c-5.660156 0-10.382813-4.617188-14.546875-8.6875l-.195313-.1875c-4.621094-4.507813-9.117187-6.878907-13.027344-6.878907-.484374 0-.96875.039063-1.4375.113282l-4.019531.644531-.574219-4.027344c-3.988281-27.957031-.558593-46.015625 10.480469-55.203125 6.898438-5.742187 16.324219-7.15625 25.390625-8.109375 16.828125-1.761719 33.707032-2.652343 50.167969-2.652343 10.964844 0 21.914063.398437 32.554687 1.179687 7.609376.550781 15.546876 1.46875 21.621094 5.976563 6.355469 4.714843 9.445313 11.828124 9.445313 21.742187 0 5.898437-.226563 11.839844-.671875 17.65625-.132813 1.898437-.453125 3.859375-.792969 5.929687l-.046875.28125c-.300781 1.839844-.566406 3.488282-.738281 5.117188l-.4375 4.125-4.105469-.585938c-.308594-.046874-.632812-.066406-.960938-.066406-.558593 0-1.160156.0625-1.796874.1875-2.96875.613282-6.027344 3.214844-8.484376 5.304688-.5625.492187-1.15625.988281-1.707031 1.429687-.539062.4375-1.089843.890625-1.648437 1.355469l-.511719.421875c-4.660156 3.863281-9.894531 8.207031-16.121094 8.210937-.585937 0-1.179687-.042968-1.757812-.117187-4.488281-.613281-8.140625-3.515625-11.675781-6.324219-1.417969-1.125-2.882813-2.28125-4.375-3.277344-5.222657-3.492187-10.40625-5.191406-15.851563-5.191406-11.253906 0-22.242187 7.488282-31.503906 14.816406-.546875.429688-1.085938.871094-1.621094 1.3125-3.011719 2.472657-6.121094 5.023438-9.933594 5.445313-.371093.039063-.742187.058594-1.117187.058594zm0 0" fill="#efb17c"/><path d="m169.242188 255.285156c-4.492188 0-8.8125-1.0625-12.496094-3.074218-10.742188-5.867188-16.128906-19.820313-12.007813-31.105469.785157-2.148438 1.679688-3.480469 2.90625-4.3125 1.496094-1.007813 3.339844-1.148438 5.125-1.289063.535157-.035156.96875-.070312 1.394531-.113281 4.996094-.535156 8.382813-2.835937 12.21875-6.378906l2.75-2.542969 2.71875 2.582031c2.832032 2.691407 5.691407 4.328125 8.996094 5.148438 1.109375.277343 2.347656.410156 3.789063.410156 1.128906 0 2.265625-.082031 3.179687-.148437 1.179688-.082032 2.109375-.148438 2.898438-.148438 5.738281 0 6.144531 4.445312 6.363281 6.832031 1.011719 10.984375-1.242187 19.039063-7.089844 25.355469-5.085937 5.496094-12.84375 8.785156-20.746093 8.785156zm0 0" fill="#efb17c"/><path d="m336.996094 482.5625c-.492188-33.132812-1-67.390625-10.710938-100.066406-8.632812-29.042969-24.386718-53.242188-44.417968-68.929688.121093-.386718.203124-.789062.203124-1.214844l-.269531-127.539062c-.054687-27.539062-.113281-56.015625-6.027343-83.664062-4.671876-21.832032-15.34375-52.464844-39.664063-74.414063-21.671875-19.558594-51.960937-29.328125-81.019531-26.140625-28.992188 3.179688-56.464844 19.25-73.496094 42.988281-10.578125 14.746094-16.996094 31.839844-21.289062 49.628907-.0625.183593-.101563.378906-.136719.578124-2.800781 11.738282-4.691407 23.765626-6.242188 35.617188-9.433593 72.121094-9.121093 148.367188-8.0625 199.480469-19.957031 19.996093-30.203125 45.601562-35.40625 65.039062-7.832031 29.265625-8.878906 59.75-9.890625 89.226563-.175781 5.101562-.5390622 15.714844 6.855469 21.199218 4.519531 3.351563 10.1875 3.433594 14.324219 3.496094l285.644531 4.136719c.65625.007813 1.316406.015625 1.984375.015625 7.59375 0 15.804688-.800781 21.429688-6.546875 5.9375-6.066406 6.3125-14.632813 6.191406-22.890625zm-262.878906-407.488281c25.835937 2.65625 51.792968 3.992187 77.753906 3.992187 35.101562 0 70.199218-2.425781 104.980468-7.265625.367188-.054687.707032-.167969 1.03125-.308593 2.507813 5.695312 4.554688 11.347656 6.21875 16.753906-64.617187 7.300781-130.171874 8.175781-194.964843 2.617187 1.402343-5.320312 3.039062-10.605469 4.980469-15.789062zm14.027343-26.796875c15.714844-21.90625 41.070313-36.734375 67.824219-39.671875 26.808594-2.941407 54.746094 6.074219 74.738281 24.113281 10.222657 9.226562 17.871094 20.160156 23.601563 31.28125-58.609375 8.046875-118.121094 9.140625-176.988282 3.285156 2.972657-6.625 6.527344-13.011718 10.824219-19.007812zm-26.222656 82.175781c1.332031-10.191406 2.910156-20.929687 5.292969-31.65625 28.613281 2.488281 57.375 3.75 86.148437 3.75 37.746094 0 75.503907-2.152344 112.945313-6.433594.589844 2.316407 1.117187 4.566407 1.578125 6.71875 5.734375 26.824219 5.792969 54.871094 5.851562 81.996094l.257813 123.160156c-2.871094-1.835937-5.8125-3.511719-8.824219-5.003906-3.613281-1.789063-7.347656-3.347656-10.960937-4.855469-6.355469-2.660156-12.363282-5.167968-17.730469-8.808594-7.976563-5.410156-15.980469-14.890624-15.335938-23.292968 3.011719-3.703125 5.808594-7.820313 8.351563-12.320313 7.449218-12.894531 11.84375-28.25 13.441406-46.941406.082031-.957031.277344-2.367187.503906-4.003906 1.226563-8.757813 2.074219-17.066407-.074218-22.738281.105468-.414063.160156-.84375.125-1.289063-.226563-2.777344.328124-6.144531.863281-9.40625.351562-2.164063.71875-4.402344.882812-6.566406.453125-5.949219.679688-11.992188.675781-17.960938 0-11.292969-3.625-19.472656-11.082031-25.003906-6.9375-5.152344-15.535156-6.167969-23.742187-6.773437-26.96875-1.976563-55.042969-1.476563-83.445313 1.492187-9.675781 1.011719-19.773437 2.539063-27.566406 9.019531-18.835937 15.671875-13.316406 50.28125-10.957031 65.0625.101562.632813.355468 1.199219.703125 1.6875-2.621094 20.714844 2.320312 42.175782 13.890625 59.605469 3.847656 5.792969 8.390625 11.082031 13.476562 15.773437-2.4375 14.054688-14.511718 24.53125-21.71875 29.644532-5.554687 3.945312-11.683594 7.410156-17.605468 10.761718-6.410157 3.625-13.039063 7.375-19.1875 11.835938-1.683594 1.222656-3.3125 2.488281-4.894532 3.785156-.921875-50.65625-.808594-122.882812 8.136719-191.238281zm34.238281 50.84375c-2.171875-15.207031-4.253906-40.472656 9.074219-51.5625 6.054687-5.035156 14.804687-6.320313 23.25-7.203125 27.929687-2.917969 55.523437-3.414062 82.015625-1.46875 7.027344.515625 14.324219 1.34375 19.527344 5.207031 5.335937 3.960938 7.824218 9.847657 7.824218 18.53125.003907 5.765625-.21875 11.605469-.652343 17.351563-.136719 1.816406-.460938 3.785156-.800781 5.871094-.289063 1.757812-.578126 3.542968-.777344 5.332031-1.179688-.167969-2.539063-.152344-4.089844.167969-4 .8125-7.496094 3.789062-10.304688 6.179687-.566406.480469-1.105468.945313-1.617187 1.355469-.726563.582031-1.457031 1.1875-2.203125 1.808594-4.6875 3.894531-9.53125 7.921874-14.804688 7.210937-3.375-.457031-6.457031-2.902344-9.722656-5.488281-1.476562-1.171875-3.003906-2.382813-4.632812-3.472656-18.890625-12.636719-36.183594-2.75-52.058594 9.8125-.5625.441406-1.125.902343-1.6875 1.363281-2.671875 2.195312-5.195312 4.265625-7.828125 4.558593-4.242187.472657-8.410156-3.585937-12.429687-7.507812l-.226563-.222656c-6.167969-6.019532-12.382813-8.703125-17.855469-7.824219zm1.945313 7.890625c3.871093-.132812 8.332031 3.804688 10.28125 5.707031l.226562.21875c4.859375 4.742188 10.902344 10.644531 18.949219 9.75 5.007812-.554687 8.753906-3.628906 12.054688-6.335937.527343-.433594 1.050781-.863282 1.574218-1.277344 15.582032-12.328125 28.789063-18.652344 42.578125-9.429688 1.355469.90625 2.6875 1.964844 4.101563 3.085938 3.789062 3.003906 8.082031 6.410156 13.652344 7.160156 8.78125 1.183594 15.578124-4.460937 21.035156-8.996094.710937-.59375 1.410156-1.171874 2.101562-1.726562.566406-.457031 1.167969-.964844 1.792969-1.5 2.105469-1.789062 4.722656-4.019531 6.6875-4.421875 1.449219-.292969 1.828125.0625 1.949219.179687 2.800781 2.625 1.03125 15.28125.367187 20.046876-.246093 1.746093-.457031 3.257812-.554687 4.429687-1.492188 17.488281-5.542969 31.746094-12.40625 43.625-5.0625 8.953125-13.863282 20.878906-27.039063 26.832031-12.78125 5.777344-26.363281 4.640625-35.507812 2.667969-20.097657-4.335937-38.144531-16.644531-49.515625-33.773437-10.902344-16.421876-15.339844-36.785157-12.328125-56.242188zm60.140625 97.894531c1.59375.347657 3.316406.664063 5.128906.933594-4.238281 10.148437-9.222656 20.058594-14.863281 29.488281-1.46875 2.457032-3.695313 5.742188-6.058594 5.871094-1.933594.121094-4.144531-1.800781-6.789063-5.820312-6.890624-10.492188-12.875-21.652344-17.828124-33.191407 2.851562-4.1875 4.949218-8.53125 6.257812-12.949219 10.082031 7.570313 21.761719 12.996094 34.152344 15.667969zm-1.160156 94.546875 1.777343-64.792968c.011719-.332032-.035156-.652344-.101562-.96875 2.867187-5.117188 5.558593-10.351563 8.042969-15.671876.75 3.269532 1.570312 6.597657 2.726562 9.867188 1.339844 3.800781 3.101562 7.164062 5.191406 10.011719l-.683594 57.71875c-.058593 4.910156-.125 10.480469-2.347656 14.75-1.722656 3.304687-5.691406 6.179687-9.089844 5.074219-2.480468-.804688-4.085937-3.488282-4.765624-5.730469-.945313-3.121094-.84375-6.75-.75-10.257813zm20.046874-74.25c-1.222656-3.460937-2.035156-7.058594-2.898437-10.863281-.570313-2.527344-1.167969-5.109375-1.890625-7.683594.703125.023438 1.410156.035157 2.125.035157 7.640625 0 16.074219-1.261719 24.308594-4.984376 5.410156-2.445312 10.535156-5.917968 15.28125-10.296874 2.125 7.0625 7.300781 13.769531 13.28125 18.882812-3.808594 3.640625-6.917969 7.800781-9.921875 11.835938-2.402344 3.226562-4.671875 6.273437-7.257813 9.046874-5.035156 5.398438-13.023437 10.449219-20.335937 8.429688-7.609375-2.101562-11.410157-10.773438-12.691407-14.402344zm147.90625 192.433594c-3.882812 3.96875-10.792968 4.203125-17.535156 4.109375l-30.777344-.445313-.441406-80.484374c-.011718-2.226563-1.785156-4.027344-4.050781-4.007813-2.226563.011719-4.023437 1.828125-4.011719 4.054687l.4375 80.320313-206.542968-2.992187c1.75-27.703126.714843-55.660157-3.089844-83.148438-.308594-2.207031-2.34375-3.742188-4.546875-3.441406-2.207031.304687-3.746094 2.339844-3.441407 4.546875 3.75 27.085937 4.757813 54.632812 3.007813 81.929687l-32.183594-.46875c-3.945312-.054687-7.390625-.238281-9.640625-1.90625-3.511718-2.605468-3.804687-8.484375-3.601562-14.449218.996094-29.027344 2.027344-59.039063 9.621094-87.417969 5.878906-21.96875 18.492187-52.222657 45.171874-71.578125 5.78125-4.191406 12.207032-7.828125 18.421876-11.34375 6.101562-3.453125 12.410156-7.023438 18.300781-11.203125 4.578125-3.25 8.59375-6.75 12.007812-10.429688 4.785157 10.582031 10.410157 20.828125 16.78125 30.523438 1.722657 2.621093 6.21875 9.464843 13.351563 9.464843.203125 0 .410156-.007812.617187-.019531 3.070313-.167969 5.554688-1.523437 7.597657-3.382812l-1.464844 53.363281c-.109375 3.957031-.230469 8.441406 1.089844 12.8125 1.640624 5.429688 5.375 9.566406 9.984374 11.066406 1.371094.445313 2.734376.652344 4.074219.652344 6.28125 0 11.972657-4.503906 14.664063-9.667969 3.113281-5.976562 3.195312-12.855469 3.257812-18.378906l.597656-50.464844c1.589844.925781 3.25 1.652344 4.980469 2.128907 1.8125.5 3.675781.746093 5.574219.746093 7.699219 0 15.898438-4.039062 22.808594-11.449219 2.886718-3.097656 5.398437-6.46875 7.824218-9.730468 3.066407-4.117188 5.960938-8.007813 9.480469-11.265625.203125-.1875.382813-.390625.539063-.605469 5.503906 3.421875 11.4375 5.910156 17.199218 8.316406 3.496094 1.460938 7.109376 2.972656 10.492188 4.648438 25.925781 12.832031 46.6875 40.015625 56.960938 74.582031 9.394531 31.605469 9.894531 65.300781 10.378906 97.886719.097656 6.554687-.121094 13.277344-3.894532 17.128906zm0 0"/><path d="m154.804688 255.777344c4.441406 2.429687 9.445312 3.59375 14.480468 3.59375 8.757813 0 17.601563-3.53125 23.695313-10.113282 6.589843-7.121093 9.253906-16.441406 8.144531-28.492187-1.035156-11.25-9.203125-10.671875-13.59375-10.359375-1.953125.136719-3.976562.28125-5.703125-.148438-3.902344-.972656-6.648437-3.363281-9.570313-6.652343-.722656-.8125-1.742187-1.300781-2.828124-1.351563-1.09375-.050781-2.148438.34375-2.941407 1.085938l-1.167969 1.105468c-3.914062 3.707032-6.742187 6.382813-11.601562 6.902344-.398438.042969-.808594.074219-1.21875.105469-2.113281.164063-4.742188.363281-7.121094 1.976563-2.566406 1.738281-3.769531 4.417968-4.453125 6.285156-4.785156 13.089844 1.441407 29.269531 13.878907 36.0625zm-6.308594-33.292969c.460937-1.261719.933594-2.0625 1.402344-2.378906.605468-.414063 1.933593-.515625 3.21875-.613281.488281-.039063.976562-.074219 1.457031-.125 6.539062-.699219 10.738281-3.929688 14.523437-7.414063 2.8125 2.664063 6.1875 4.984375 10.785156 6.128906 2.96875.738281 5.878907.53125 8.21875.367188 4.6875-.332031 4.683594-.335938 4.996094 3.054687.898438 9.777344-1.019531 16.855469-6.035156 22.273438-7.046875 7.613281-19.515625 9.773437-28.390625 4.925781-8.925781-4.878906-13.585937-16.886719-10.175781-26.21875zm0 0"/></svg>