<svg height="512pt" viewBox="-83 0 512 512.00154" width="512pt" xmlns="http://www.w3.org/2000/svg"><path d="m262.441406 507.757812-185.152344-1.476562c-5.136718-.050781-10.878906-.425781-14.078124-4.324219-2.410157-2.90625-2.660157-6.8125-2.71875-11.242187l-1.171876-98.46875.339844 33.957031.046875 4.050781-55.53125-.070312-.074219-3.917969c-.4375-23.648437 2.277344-43.882813 8.308594-61.867187 7.550782-22.46875 20.882813-41.582032 37.542969-53.832032 8.792969-6.457031 18.769531-11.3125 28.417969-16.003906 2.304687-1.117188 4.605468-2.242188 6.894531-3.375 4.535156-2.269531 10.492187-5.347656 16.242187-9.027344l5.621094-3.59375.519532 6.652344c1.292968 16.511719 6.054687 32.539062 10.65625 48.042969 1.703124 5.765625 3.460937 11.722656 6.648437 17.042969 3.539063 5.898437 8.429687 9.972656 13.769531 11.476562 1.597656.445312 3.257813.675781 4.9375.675781 5.820313 0 10.734375-2.613281 13.832032-4.804687l6.746093-4.765625-2.242187 41.808593c-.195313 3.621094-.394532 7.335938.535156 10.894532 1.035156 3.945312 3.484375 7.050781 6.554688 8.308594 1.042968.425781 2.152343.640624 3.296874.640624 4.296876 0 9.003907-3.199218 11.199219-7.609374 2.679688-5.410157 2.425781-12.015626 2.222657-17.328126l-1.398438-36.453124 6.871094 5.628906c1.132812.925781 2.296875 1.746094 3.453125 2.4375 3.589843 2.113281 7.625 3.234375 11.652343 3.234375 2.902344 0 5.695313-.609375 8.078126-1.757813 6.207031-2.984375 9.988281-9.214844 12.589843-14.308594 10.027344-19.609374 13.3125-43.332031 9.007813-65.085937l-2.113282-10.699219 8.527344 6.792969c6.355469 5.058594 13.199219 9.359375 19.648438 13.257813 25.832031 15.59375 54.234375 36.035156 69.007812 69.382812 8.511719 19.214844 11.875 40.425781 9.722656 61.339844-.382812 3.734375-1.167968 7.867187-4.074218 10.234375-2.25 1.816406-5.308594 2.21875-8.25 2.46875-3.402344.296875-6.960938.441406-10.871094.441406-5.171875 0-10.226562-.246094-15.574219-.507813-3.953125-.195312-8.449219-.40625-12.902343-.488281l-3.933594-.070312.066406-39.214844-.207031 85.800781c-.015625 9.160156-.945313 18.261719-7.628907 22.785156-3.992187 2.714844-9.007812 2.945313-13.800781 2.945313zm-6.070312-111.992187c-.972656 0-2.019532.09375-3.03125.1875-.855469.082031-1.757813.167969-2.507813.167969l-45.722656.320312c-.890625 0-2.683594 0-4.359375.5-2.113281.625-2.863281 1.6875-3.246094 2.433594-.652344 1.289062-.550781 2.867188-.472656 4.136719l1.621094 23.886719c.148437 2.285156.402344 6.09375 2.835937 8.109374 1.800781 1.488282 4.339844 1.671876 6.382813 1.820313 10.914062.773437 22.1875 1.570313 33.390625 1.570313 3.558593 0 7.035156-.082032 10.335937-.253907 4.847656-.246093 8.632813-.910156 11.355469-3.367187 2.730469-2.464844 4.054687-6.492188 4.046875-12.300782 0-4.949218-.699219-9.929687-2.078125-14.808593l-.308594-1.121094c-1.019531-3.753906-2.714843-10.019531-5.917969-11.003906-.609374-.1875-1.367187-.277344-2.324218-.277344zm0 0" fill="#59bd8b"/><path d="m92.675781 88.203125c-.566406-10.210937-1.011719-22.042969.914063-33.296875 1.679687-9.820312 5.980468-23.535156 16.941406-33.101562 11.207031-9.773438 26.398438-12.769532 40.996094-15 9.347656-1.421876 19.390625-2.734376 29.519531-2.734376 8.570313 0 16.113281.925782 23.0625 2.832032 17.488281 4.804687 32.765625 16.542968 41.90625 32.210937 8.480469 14.542969 11.457031 32.386719 8.167969 48.964844l-1.210938 6.101563-5.046875-3.636719c-12.753906-9.179688-28.164062-15.632813-44.570312-18.660157-7.867188-1.453124-16.140625-2.1875-24.589844-2.1875-13.183594 0-27.109375 1.785157-41.394531 5.308594-15.808594 3.902344-28.371094 9.214844-38.402344 16.25l-5.890625 4.128906zm79.480469-71.035156c-6.113281 0-12.925781 3.113281-17.347656 7.9375-5.472656 5.980469-6.414063 12.972656-2.574219 19.179687 2.640625 4.28125 7.476563 6.722656 10.886719 8.1875 4.785156 2.058594 8.949218 3.054688 12.730468 3.054688 1.484376 0 2.917969-.15625 4.257813-.472656 7.523437-1.738282 12.09375-6.289063 12.871094-12.820313 1.035156-8.625-5.074219-19.128906-13.621094-23.421875-2.179687-1.089844-4.601563-1.644531-7.203125-1.644531zm0 0" fill="#d34242"/><path d="m241.265625 438.835938c-11.15625 0-22.375-.792969-33.222656-1.554688l-.152344-.011719c-2.5-.179687-4.699219-.4375-6.355469-1.804687-2.242187-1.867188-2.632812-5.144532-2.824218-8.074219l-1.609376-23.863281c-.160156-2.039063-.054687-3.074219.421876-4.050782l.269531-.5625.347656-.367187c1.242187-1.410156 3.359375-2.027344 6.980469-2.046875l45.734375-.320312c.761719 0 1.660156-.085938 2.457031-.164063.957031-.085937 2.144531-.191406 3.171875-.191406.691406 0 1.238281.046875 1.730469.152343l.902344.1875.730468.566407c1.488282 1.160156 2.796875 3.292969 4.703125 10.332031.054688.1875.308594 1.113281.308594 1.113281 1.371094 4.820313 2.070313 9.792969 2.082031 14.792969.011719 5.796875-1.304687 9.808594-4.03125 12.261719-3.023437 2.726562-7.425781 3.160156-11.320312 3.355469-3.253906.164062-6.730469.25-10.324219.25zm0 0" fill="#cbe580"/><path d="m206.371094 364.40625c-3.980469 0-8-1.128906-11.625-3.257812-5.324219-3.132813-9.90625-8.445313-13.253906-15.367188-2.621094-5.410156-4.273438-11.234375-5.613282-16.273438l-1.183594-4.429687 4.554688-.566406c10.371094-1.292969 20.976562-6.59375 29.867188-14.929688 8.761718-8.230469 15.132812-18.375 19.703124-26.292969l5.425782-9.40625 1.96875 10.679688c4.003906 21.695312.730468 44.347656-9.222656 63.789062-2.609376 5.09375-6.390626 11.320313-12.542969 14.28125-2.453125 1.175782-5.167969 1.773438-8.078125 1.773438zm0 0" fill="#cbe580"/><path d="m172.414062 414.476562c-1.15625 0-2.273437-.21875-3.316406-.644531-3.046875-1.246093-5.480468-4.332031-6.507812-8.261719-.929688-3.574218-.71875-7.457031-.53125-10.878906l2.351562-43.765625.660156-.9375c2.246094-3.191406 4.191407-6.941406 5.941407-11.464843l3.957031-10.203126 3.558594 10.347657c.898437 2.625 1.851562 4.960937 2.90625 7.136719.664062 1.378906 1.40625 2.714843 2.261718 4.085937l.5625.902344 1.480469 38.816406c.210938 5.296875.46875 11.894531-2.226562 17.304687-2.214844 4.449219-6.777344 7.5625-11.097657 7.5625zm0 0" fill="#cbe580"/><path d="m143.738281 362.402344c-1.703125 0-3.382812-.230469-4.996093-.683594-5.328126-1.496094-10.207032-5.566406-13.730469-11.457031-3.167969-5.273438-4.9375-11.246094-6.644531-17.019531-4.253907-14.324219-8.648438-29.136719-10.320313-44.46875l-1.589844-14.570313 8.769531 11.742187c7.980469 10.683594 17.933594 20.253907 28.785157 27.683594 9.652343 6.609375 18.003906 10.105469 26.261719 10.988282h5.195312l-1.5625 5.171874c-2.214844 7.238282-5.023438 15.515626-10.359375 22.136719-4.074219 5.066407-11.417969 10.476563-19.808594 10.476563zm0 0" fill="#cbe580"/><path d="m95.578125 117.261719c-3.320313 0-6.316406-.085938-9.160156-.261719-1.183594-.078125-2.183594-.253906-3-.527344l-3.210938-1.066406.523438-3.347656c.890625-5.683594 12.292969-16.519532 17.898437-20.492188 10.101563-7.164062 22.78125-12.5625 38.765625-16.5 14.261719-3.523437 28.179688-5.308594 41.359375-5.308594 8.445313 0 16.714844.734376 24.585938 2.1875 22.996094 4.242188 43.578125 15.015626 57.949218 30.335938 3.242188 3.457031 4.34375 6.457031 3.269532 8.910156l-.054688.121094c-1.511718 3.171875-5.917968 3.566406-9.09375 3.585938l-117.402344.730468c-6.394531.039063-13.023437.390625-20.40625.816406-7.277343.402344-14.765624.816407-22.023437.816407zm0 0" fill="#ffbf48"/><path d="m175.851562 55.464844c-3.761718 0-7.917968-.996094-12.703124-3.046875-5.398438-2.320313-8.847657-4.910157-10.855469-8.152344-3.828125-6.203125-2.890625-13.167969 2.570312-19.121094 4.40625-4.816406 11.167969-7.933593 17.222657-7.933593 2.621093 0 5.058593.558593 7.242187 1.652343 8.667969 4.347657 14.640625 14.609375 13.585937 23.363281-.453124 3.765626-2.714843 10.4375-12.8125 12.769532-1.34375.3125-2.777343.46875-4.25.46875zm0 0" fill="#ffbf48"/><path d="m242.464844 157.75c-.824219-1.085938-1.746094-2.070312-2.742188-2.921875-1.667968-1.414063-3.515625-2.507813-5.472656-3.667969l1.914062-3.515625-2.03125 3.445313c-2.097656-1.234375-4.269531-2.511719-6.070312-4.207032-4.078125-3.816406-5.71875-9.132812-6.371094-12.921874-.835937-4.773438-.621094-9.695313-.414062-14.453126l-.386719-4.332031 30.472656-.191406.191407 3.824219c.625 12.460937-.03125 24.957031-1.953126 37.144531l-1.460937 9.265625zm0 0" fill="#644c4c"/><path d="m96.617188 167.082031c-4.082032-14.816406-6.59375-30.144531-7.46875-45.566406l-.246094-4.332031 4.335937.105468c.808594.019532 1.578125.039063 2.363281.039063 7.234376 0 14.71875-.417969 21.953126-.820313 2.210937-.125 4.410156-.246093 6.605468-.355468l4.199219-.210938v4.605469l-.042969.230469c-.445312 5.910156-3.167968 11.609375-7.488281 15.667968-1.332031 1.253907-2.828125 2.371094-4.273437 3.449219l-.082032.0625c-2.3125 1.734375-4.5 3.375-6.199218 5.589844-3.285157 4.285156-4.0625 9.636719-4.882813 15.304687l-.027344.1875c-.28125 1.929688-.574219 3.921876-.980469 5.816407zm0 0" fill="#644c4c"/><g fill="#ffdac4"><path d="m280.910156 501.546875c4.238282-5.855469 4.253906-14.734375 4.261719-19.503906l.078125-46.53125 4.058594.070312c4.15625.066407 8.296875.269531 12.304687.464844l.375.019531c5.0625.253906 10.292969.511719 15.652344.511719 3.597656 0 6.9375-.128906 10.203125-.394531l4.15625-.339844.167969 4.164062c.691406 17.113282.355469 34.332032-1 51.183594-.3125 3.855469-.777344 7.542969-2.992188 10.316406-3.011719 3.773438-8.277343 4.664063-13.523437 5.0625-9.792969.757813-19.757813 1.1875-30.453125 1.320313l-7.949219.097656zm0 0"/><path d="m248.558594 184.570312-4.984375-.117187 1.195312-4.839844c.511719-2.085937.945313-4.003906 1.324219-5.871093-.003906.003906-.003906.003906-.003906.003906v-.609375l.125-.484375c2.0625-8.085938 3.585937-16.378906 4.523437-24.652344l.339844-2.988281 2.964844-.503907c.800781-.136718 1.632812-.207031 2.464843-.207031 6.839844 0 13.441407 4.472657 16.046876 10.871094 2.984374 7.289063.875 16.492187-5.136719 22.375-4.554688 4.46875-11.191407 7.03125-18.203125 7.03125-.21875-.003906-.4375-.003906-.65625-.007813zm0 0"/><path d="m170.359375 240.246094c-16.015625 0-30.832031-4.140625-42.851563-11.976563-17.179687-11.214843-28.167968-30.6875-27.996093-49.605469l.015625-1.410156.890625-1.085937c3.414062-4.167969 4.238281-9.832031 5.035156-15.304688.796875-5.441406 1.609375-11.023437 4.875-15.277343 1.703125-2.21875 3.992187-3.933594 6.207031-5.59375 1.507813-1.125 3-2.242188 4.347656-3.507813 4.371094-4.113281 7.105469-9.898437 7.503907-15.878906l-.84375-4.648438 4.644531-.144531c1.738281-.054688 3.789062-.109375 5.820312-.121094l83.394532-.515625-.183594 4.199219c-.214844 4.828125-.429688 9.78125.402344 14.605469.945312 5.441406 3.15625 9.917969 6.398437 12.945312 1.835938 1.722657 4.023438 3.011719 6.140625 4.257813 2.132813 1.253906 3.894532 2.324218 5.515625 3.695312 5.082031 4.34375 7.636719 11.640625 6.371094 18.171875l.019531.472657-.085937.417968c-4.238281 21.0625-12.46875 37.433594-24.46875 48.652344-8.773438 8.195312-21.117188 13.847656-35.695313 16.339844-5.125.871094-10.324218 1.3125-15.457031 1.3125zm0 0"/><path d="m174.285156 324.769531c-1.277344 0-2.5625-.0625-3.816406-.191406-8.320312-.851563-16.710938-4.347656-26.417969-11-12.96875-8.878906-24.398437-20.550781-33.046875-33.757813l-1.917968-2.929687 2.652343-2.289063c2.417969-2.085937 4.519531-4.144531 6.433594-6.296874 8.25-9.300782 12.746094-20.753907 12.332031-31.421876l-.25-6.515624 5.921875 2.730468c10.234375 4.71875 22.0625 7.210938 34.207031 7.210938 5.089844 0 10.289063-.441406 15.441407-1.3125 9.675781-1.652344 18.347656-4.6875 25.769531-9.023438l6.394531-3.730468-.382812 7.394531c-.574219 11.0625 3.769531 23.15625 11.910156 33.179687.976563 1.199219 2.019531 2.390625 3.195313 3.648438l1.972656 2.109375-1.378906 2.53125c-6.527344 12.035156-13.777344 24.605469-24.234376 34.429687-10.46875 9.824219-22.820312 15.234375-34.785156 15.234375zm0 0"/><path d="m89.367188 186.085938c-5.214844 0-10.199219-2.042969-13.671876-5.605469-5.332031-5.472657-6.804687-14.140625-3.582031-21.078125 2.960938-6.339844 9.710938-10.699219 16.800781-10.851563l3.359376-.074219.652343 3.292969c1.628907 8.199219 3.761719 16.425781 6.34375 24.445313l.210938.648437-.019531.683594c-.03125 1.101563-.027344 2.121094.007812 3.121094l.109375 3.066406-3.0625.9375c-2.1875.933594-4.605469 1.414063-7.148437 1.414063zm0 0"/><path d="m48.914062 507.203125c-7.175781 0-14.390624-.683594-21.441406-2.023437-3.984375-.765626-8.050781-1.859376-10.78125-4.675782-3.613281-3.710937-4.03125-9.214844-4.160156-15.003906l-1.230469-55.246094 48.414063.070313.714844 60.378906c.039062 2.9375.085937 6.964844 1.875 10.050781l3.144531 5.433594-6.25.558594c-3.417969.300781-6.875.457031-10.285157.457031zm0 0"/></g><path d="m161.542969 56.144531c5.261719 2.261719 9.992187 3.382813 14.3125 3.382813 1.785156 0 3.503906-.191406 5.160156-.574219 9.144531-2.109375 14.953125-8.027344 15.9375-16.238281 1.238281-10.339844-5.703125-22.410156-15.796875-27.480469-10.113281-5.078125-22.636719-.097656-29.289062 7.167969-6.675782 7.289062-7.808594 16.257812-3.035157 23.992187 3.230469 5.234375 8.800781 8.070313 12.710938 9.75zm-3.734375-28.296875c4.722656-5.15625 13.390625-8.585937 19.726562-5.40625 7.136719 3.582032 12.253906 12.246094 11.410156 19.3125-.582031 4.839844-3.859374 7.984375-9.742187 9.34375-3.929687.910156-8.667969.136719-14.480469-2.359375-4.613281-1.984375-7.484375-4.074219-9.03125-6.578125-3.847656-6.238281-.324218-11.644531 2.117188-14.3125zm0 0"/><path d="m334.839844 360.378906c-15.222656-34.363281-44.238282-55.28125-70.617188-71.210937-10.746094-6.492188-22.933594-14.304688-31.546875-24.910157-8.933593-10.996093-12.808593-24.234374-10.367187-35.421874.113281-.527344.117187-1.046876.027344-1.546876.664062-.566406 1.316406-1.140624 1.949218-1.730468 9.847656-9.203125 17.257813-21.636719 22.140625-37.046875.914063.078125 1.828125.125 2.742188.125 7.980469 0 15.753906-2.953125 21.097656-8.1875 7.152344-7.007813 9.644531-18.035157 6.054687-26.816407-3.425781-8.382812-12.28125-13.828124-20.878906-13.367187.476563-7.078125.546875-14.1875.203125-21.304687 2.703125-.023438 10.046875-.214844 12.636719-6.152344 1.222656-2.808594 1.519531-7.398438-4.027344-13.308594-2.199218-2.34375-4.550781-4.570312-7.011718-6.699219.039062-.117187.09375-.226562.125-.351562 4.691406-18.613281 1.835937-38.796875-7.835938-55.375-9.671875-16.582031-25.832031-29.007813-44.34375-34.089844-18.296875-5.019531-37.601562-2.734375-54.261719-.195313-14.523437 2.210938-31.027343 5.453126-43.066406 15.960938-11.855469 10.347656-16.480469 25.003906-18.269531 35.476562-2.21875 12.980469-1.449219 26.089844-.703125 38.765626.023437.433593.132812.839843.285156 1.226562-6.253906 5.765625-14.105469 14.550781-12.28125 20.96875.660156 2.308594 2.617187 5.105469 8.144531 5.769531.425782 7.910157 1.273438 15.789063 2.53125 23.597657-8.09375.636718-15.664062 5.707031-19.125 13.132812-3.933594 8.433594-2.140625 18.972656 4.355469 25.632812 4.332031 4.441407 10.4375 6.839844 16.558594 6.835938 2.367187 0 4.738281-.363281 7.007812-1.101562 3.078125 16.734374 13.660157 32.65625 28.925781 42.617187.183594.117187.375.230469.5625.347656v.023438c2.320313 10.835937-1.6875 23.382812-10.71875 33.5625-8.59375 9.6875-20.308593 16.273437-31.691406 21.949219-2.273437 1.132812-4.558594 2.246093-6.847656 3.355468-9.820312 4.777344-19.976562 9.714844-29.046875 16.382813-17.585937 12.925781-31.0625 32.226562-38.980469 55.816406-6.515625 19.40625-9.265625 41.398437-8.414062 67.238281.070312 2.167969 1.851562 3.894532 4.023437 3.898438l3.148438.003906 1.148437 51.339844c.140625 6.359375.667969 12.96875 5.304688 17.746094 3.527344 3.632812 8.304687 4.953124 12.9375 5.835937 7.398437 1.40625 14.855468 2.113281 22.320312 2.113281 6.632813 0 13.265625-.558594 19.863282-1.671875.019531 0 .035156-.011719.054687-.015625 3.109375.695313 6.164063.726563 8.308594.742188l185.152343 1.480468c.535157.003907 1.089844.007813 1.664063.007813.820313 0 1.675781-.007813 2.554687-.042969.316407.085938.640626.144532.984376.148438 3.214843.046875 6.347656.066406 9.40625.066406 13.679687 0 25.925781-.445312 37.945312-1.375 6.167969-.476562 12.417969-1.605469 16.390625-6.585938 2.925781-3.664062 3.507813-8.195312 3.855469-12.519531 1.410156-17.535156 1.730468-35.335937.960937-52.921875 1.097657-.457031 2.160157-1.035156 3.144531-1.832031 4.070313-3.289063 5.101563-8.40625 5.570313-12.976563 2.226563-21.617187-1.25-43.542968-10.050781-63.410156zm-111.410156-13.847656c-2.316407 4.53125-5.628907 10.046875-10.71875 12.492188-4.644532 2.234374-10.753907 1.726562-15.9375-1.324219-4.640626-2.734375-8.679688-7.457031-11.683594-13.660157-2.355469-4.867187-3.933594-10.234374-5.351563-15.566406 11.167969-1.382812 22.476563-6.933594 32.109375-15.976562 8.414063-7.898438 14.824219-17.492188 20.4375-27.210938 3.796875 20.601563.671875 42.621094-8.855468 61.246094zm-41.6875 43.226562c.195312 5.105469.417968 10.890626-1.808594 15.367188-1.71875 3.464844-5.96875 6.375-9.320313 5.003906-1.859375-.757812-3.449219-2.890625-4.152343-5.570312-.769532-2.953125-.585938-6.355469-.410157-9.648438l2.292969-42.621094c2.707031-3.847656 4.742188-8.054687 6.398438-12.324218.882812 2.566406 1.886718 5.105468 3.089843 7.589844.757813 1.566406 1.589844 3.039062 2.464844 4.453124zm-21.3125-40.339843c-4.652344 5.78125-12.832032 10.632812-20.605469 8.445312-4.339844-1.21875-8.382813-4.648437-11.382813-9.648437-2.902344-4.835938-4.601562-10.5625-6.242187-16.105469-4.226563-14.25-8.5625-28.90625-10.179688-43.769531 8.257813 11.0625 18.390625 20.832031 29.734375 28.59375 10.3125 7.058594 19.304688 10.769531 28.304688 11.683594h.019531c-2.273437 7.457031-4.886719 14.894531-9.648437 20.800781zm64.835937-230.269531 22.296875-.140626c.609375 12.175782-.019531 24.328126-1.914062 36.324219-.976563-1.289062-2.089844-2.480469-3.328126-3.539062-1.957031-1.664063-4.0625-2.90625-6.097656-4.109375-2.019531-1.191406-3.925781-2.316406-5.421875-3.714844-3.277343-3.070312-4.621093-7.503906-5.171875-10.6875-.761718-4.414062-.550781-9.179688-.34375-13.785156.003906-.121094-.015625-.230469-.019531-.347656zm43.589844 37.53125c2.34375 5.734374.5625 13.308593-4.234375 18.007812-3.972656 3.890625-9.886719 6.019531-15.96875 5.878906.488281-1.988281.953125-4 1.363281-6.070312.058594-.289063.082031-.578125.074219-.859375 2.125-8.300781 3.667968-16.714844 4.617187-25.183594 5.546875-.945313 11.871094 2.652344 14.148438 8.226563zm-171.320313-101.097657c1.570313-9.179687 5.554688-21.96875 15.625-30.757812 10.40625-9.085938 24.960938-11.929688 38.976563-14.066407 15.839843-2.414062 34.144531-4.601562 50.914062.003907 16.496094 4.527343 30.894531 15.597656 39.511719 30.371093 8.070312 13.835938 10.8125 30.484376 7.699219 46.164063-13.136719-9.457031-29.011719-16.171875-46.183594-19.34375-20.808594-3.84375-43.574219-2.777344-67.664063 3.167969-16.292968 4.019531-29.296874 9.542968-39.742187 16.859375-.597656-10.792969-.945313-21.8125.863281-32.398438zm3.402344 39.25c9.671875-6.863281 21.90625-12.058593 37.410156-15.882812 22.96875-5.667969 44.59375-6.699219 64.265625-3.066407 22.164063 4.089844 41.964844 14.4375 55.757813 29.132813 2.429687 2.589844 2.726562 4.09375 2.515625 4.570313-.09375.214843-.796875 1.28125-5.507813 1.3125l-117.398437.730468c-6.75.042969-13.796875.4375-20.613281.816406-10.285157.578126-20.917969 1.167969-30.703126.5625-1.042968-.0625-1.652343-.214843-1.980468-.332031.535156-3.4375 9.769531-13.242187 16.253906-17.84375zm.492188 65.445313c-.285157 1.980468-.570313 3.921875-.964844 5.746094-4.011719-14.601563-6.460938-29.597657-7.328125-44.730469.820312.011719 1.636719.035156 2.460937.035156 7.359375 0 14.878906-.421875 22.21875-.832031 2.167969-.121094 4.355469-.238282 6.550782-.351563-.007813.054688-.023438.101563-.027344.152344-.332032 4.984375-2.609375 9.808594-6.25 13.230469-1.164063 1.097656-2.503906 2.101562-3.925782 3.164062-2.457031 1.835938-5 3.734375-7.058593 6.421875-3.914063 5.097657-4.808594 11.230469-5.675781 17.164063zm-6.34375 20.652344c-5.433594 2.367187-12.382813 1.003906-16.519532-3.238282-4.140625-4.242187-5.324218-11.226562-2.820312-16.597656 2.328125-4.988281 7.757812-8.425781 13.257812-8.542969 1.671875 8.40625 3.832032 16.714844 6.460938 24.886719-.035156 1.121094-.03125 2.246094.007812 3.367188-.128906.042968-.261718.070312-.386718.125zm8.421874-2.226563c4.109376-5.027344 5.0625-11.5 5.902344-17.265625.75-5.132812 1.457032-9.984375 4.089844-13.414062 1.382812-1.804688 3.378906-3.296876 5.492188-4.875 1.539062-1.148438 3.128906-2.339844 4.625-3.746094 5.105468-4.804688 8.300781-11.574219 8.765624-18.566406.023438-.351563-.011718-.695313-.078124-1.027344 1.929687-.058594 3.847656-.105469 5.726562-.117188l79.195312-.492187c-.226562 5.015625-.453124 10.203125.457032 15.457031 1.089844 6.304688 3.71875 11.5625 7.605468 15.199219 2.144532 2.007812 4.53125 3.414062 6.835938 4.773437 1.820312 1.074219 3.539062 2.089844 4.960938 3.300782 4.007812 3.417968 6.03125 9.1875 5.035156 14.359374-.054688.289063-.070313.578126-.066406.867188-4.066407 20.226562-11.898438 35.878906-23.277344 46.511719-8.210938 7.667969-19.84375 12.96875-33.640625 15.320312-20.15625 3.4375-40.363281-.234375-55.449219-10.070312-16.160156-10.546875-26.335938-28.578125-26.179688-46.214844zm17.652344 92.253906c9.046875-10.199219 13.789063-22.589843 13.34375-34.222656 10.792969 4.972656 23.125 7.570313 35.878906 7.570313 5.324219 0 10.726563-.449219 16.113282-1.371094 10.1875-1.734375 19.359375-4.972656 27.117187-9.503906-.621093 11.972656 3.925781 24.984374 12.804688 35.914062 1.082031 1.332031 2.210937 2.613281 3.378906 3.859375-6.425781 11.824219-13.542969 24.101563-23.46875 33.417969-10.734375 10.078125-23.65625 15.171875-35.457031 13.972656-7.601563-.769531-15.410156-4.046875-24.5625-10.3125-12.589844-8.617188-23.589844-19.871094-31.953125-32.65625 2.390625-2.0625 4.675781-4.269531 6.804687-6.667969zm-92.9375 230.289063c-3.335937-.632813-6.695312-1.5-8.664062-3.527344-2.601563-2.683594-2.917969-7.355469-3.027344-12.3125l-1.144531-51.148438 40.371093.058594.675782 56.4375c.039062 3.285156.097656 8.019532 2.410156 12.007813-10.21875.910156-20.484375.417969-30.621094-1.515625zm298.953125-10.375c-.257812 3.210937-.613281 6.25-2.121093 8.140625-2.050782 2.570312-6.355469 3.234375-10.707032 3.570312-9.6875.75-19.539062 1.179688-30.199218 1.308594 4.988281-6.898437 5.007812-16.644531 5.019531-21.84375l.074219-42.46875c4.21875.070313 8.441406.28125 12.554687.484375 5.179687.253906 10.464844.515625 15.847656.515625 3.46875 0 6.976563-.117187 10.523438-.402344.6875 16.855469.363281 33.898438-.992188 50.695313zm9.695313-67.910156c-.300782 2.921874-.847656 6.101562-2.621094 7.535156-1.359375 1.097656-3.746094 1.390625-6.074219 1.59375-8.757812.761718-17.125.351562-25.984375-.082032-4.21875-.207031-8.550781-.414062-12.9375-.488281l.0625-35.28125c.003906-2.226562-1.800781-4.03125-4.027344-4.035156h-.003906c-2.226562 0-4.03125 1.800781-4.03125 4.023437l-.148437 85.808594c-.015625 8.054688-.738281 15.992188-5.878907 19.476563-3.15625 2.144531-7.644531 2.285156-12.753906 2.242187l-185.148437-1.480468c-4.226563-.03125-8.910157-.28125-11.027344-2.851563-1.59375-1.933594-1.761719-5.113281-1.804687-8.765625l-1.175782-98.460938c-.023437-2.226562-1.867187-4.042968-4.078125-3.984374-2.226562.027343-4.007812 1.855468-3.984375 4.078124l.40625 33.960938-47.554687-.066406c-.433594-23.175782 2.222656-43.007813 8.097656-60.511719 7.28125-21.691406 20.105469-40.117187 36.113281-51.882813 8.480469-6.234374 18.300782-11.011718 27.800782-15.628906 2.308593-1.125 4.621093-2.25 6.917968-3.394531 5.566406-2.773437 11.214844-5.773437 16.621094-9.234375 1.328125 16.855469 6.132812 33.101562 10.808594 48.871094 1.785156 6.023437 3.632812 12.25 7.058594 17.960937 4.066406 6.773438 9.789062 11.484375 16.117187 13.261719 7.933594 2.234375 15.917969-.296875 22.164063-4.707031l-1.808594 33.5625c-.199219 3.726562-.425782 7.945312.664062 12.117187 1.347656 5.164063 4.679688 9.277344 8.90625 11 1.59375.652344 3.214844.945313 4.816406.945313 6.222657 0 12.109376-4.460938 14.773438-9.828125 3.136719-6.320313 2.863281-13.496094 2.640625-19.261719l-1.054687-27.585937c1.265624 1.039062 2.578124 1.976562 3.9375 2.78125 4.28125 2.519531 9.070312 3.800781 13.699218 3.800781 3.453125 0 6.820313-.710938 9.824219-2.15625 7.261719-3.492188 11.511719-10.429688 14.40625-16.089844 10.523437-20.578125 13.859375-44.980469 9.375-67.679687 6.570313 5.222656 13.574219 9.621093 20.070313 13.546874 25.300781 15.277344 53.097656 35.257813 67.414062 67.578126 8.234375 18.582031 11.484375 39.09375 9.402344 59.3125zm0 0"/><path d="m268.472656 405.992188c-1.316406-4.835938-3.300781-12.144532-8.605468-13.777344-2.203126-.679688-4.707032-.449219-6.910157-.246094-.808593.074219-1.570312.144531-2.125.148438l-45.746093.316406c-2.34375.019531-8.566407.0625-11.144532 5.121094-1.164062 2.28125-1 4.667968-.894531 6.25l1.613281 23.867187c.183594 2.734375.527344 7.816406 4.28125 10.921875 2.796875 2.3125 6.324219 2.558594 8.664063 2.726562 11.019531.777344 22.324219 1.578126 33.65625 1.578126 3.515625 0 7.03125-.078126 10.542969-.257813 4.921874-.25 10.003906-.957031 13.824218-4.390625 3.628906-3.265625 5.386719-8.265625 5.375-15.285156-.003906-5.34375-.757812-10.6875-2.230468-15.886719-.09375-.324219-.195313-.691406-.300782-1.085937zm-8.238281 26.265624c-2.046875 1.839844-5.636719 2.167969-8.839844 2.332032-14.34375.726562-29.027343-.308594-43.222656-1.3125-1.390625-.101563-3.289063-.234375-4.089844-.898438-1.085937-.894531-1.277343-3.726562-1.378906-5.25l-1.613281-23.871094c-.035156-.515624-.117188-1.730468.035156-2.042968 0-.007813.449219-.691406 4.015625-.71875l45.746094-.316406c.898437-.003907 1.867187-.09375 2.808593-.179688 1.109376-.101562 2.9375-.273438 3.695313-.105469.894531.691407 2.007813 3.449219 3.300781 8.210938.113282.429687.222656.824219.320313 1.175781 1.277343 4.484375 1.921875 9.089844 1.929687 13.695312.007813 4.535157-.90625 7.65625-2.707031 9.28125zm0 0"/></svg>