<svg height="512pt" viewBox="-90 0 512 512.00144" width="512pt" xmlns="http://www.w3.org/2000/svg"><g fill="#d34242"><path d="m198.71875 303.976562c-.949219-.746093-1.9375-1.4375-2.9375-2.058593-2.6875-1.65625-5.605469-2.8125-8.664062-3.425781l-4.898438-.988282s2.0625-4.621094 2.074219-4.648437c2.195312-7.078125-1.621094-15.484375-8.59375-18.777344l-11.222657-5.300781 12.207032-2.25c16.9375-3.125 32.394531-14.289063 40.347656-29.136719l2.285156-4.261719 3.757813 3.039063c1.320312 1.070312 2.386719 2.46875 3 3.949219 1.519531 3.625 1.285156 7.710937 1.058593 11.667968l-.070312 1.234375c-.230469 4.222657-.121094 9.027344 2.460938 12.5625 1.042968 1.417969 2.488281 2.632813 3.65625 3.609375l.078124.066406c1.828126 1.542969 3.550782 3.003907 4.464844 5.132813 2.066406 4.773437-1.3125 10.097656-3.511718 12.847656-7.746094 9.703125-19.730469 16.230469-32.085938 17.480469-.09375.019531-.1875.039062-.277344.054688l-1.742187.289062zm0 0"/><path d="m207.804688 380.65625c-7.351563 0-14.359376-1.34375-20.832032-3.996094l-3.636718-1.488281 1.421874-3.660156c1.222657-3.140625 2.171876-6.308594 2.824219-9.414063 3.984375-18.699218-1.101562-39.9375-12.960937-54.121094-.53125-.636718-1.09375-1.238281-1.6875-1.796874l-4.519532-4.265626 5.753907-2.347656c2.414062-.984375 5.078125-1.484375 7.910156-1.484375 4.679687 0 9.664063 1.417969 13.679687 3.894531 6.789063 4.191407 12.261719 11.058594 17.21875 21.613282 1.390626 2.953125 2.675782 6.019531 3.921876 8.984375l.261718.628906c2.226563 5.320313 4.53125 10.824219 7.496094 15.871094 2.851562 4.855469 7.71875 11.480469 14.710938 15.460937l5.683593 3.234375-5.472656 3.585938c-9.152344 5.996093-20.433594 9.300781-31.773437 9.300781zm0 0"/><path d="m149.457031 401.386719c.464844-6.804688-1.65625-14.621094-6.308593-23.234375-1.378907-2.542969-2.898438-5.09375-4.367188-7.558594l-.191406-.316406c-4.0625-6.769532-7.910156-13.175782-9.808594-20.605469-2.925781-11.433594-.316406-24.367187 6.808594-33.75 4.972656-6.570313 14.433594-14.332031 24.730468-14.582031h.46875c5.375 0 10.140626 2.308594 13.78125 6.679687 11.835938 14.152344 16.925782 35.375 12.960938 54.0625-3.8125 17.882813-15.824219 33.988281-32.136719 43.074219l-6.441406 3.585938zm0 0"/><path d="m166.617188 302.25c-1.863282-.648438-3.839844-.976562-5.875-.976562l-.425782.003906c-1.21875.03125-2.515625.183594-3.847656.453125l-3.253906.65625-1.246094-3.078125c-2.738281-6.765625-1.691406-14.628906 2.664062-20.027344 3.308594-4.105469 8.746094-6.65625 14.183594-6.65625 2.335938 0 4.542969.453125 6.554688 1.347656 7.109375 3.167969 11.132812 11.90625 8.789062 19.082032l1.230469 4.667968-4.8125.347656c-3.886719.273438-7.441406 1.523438-10.273437 3.617188l-1.695313 1.253906zm0 0"/><path d="m132.484375 315.839844c-.007813 0-.011719-.003906-.011719-.003906-11.082031-1.070313-21.921875-6.304688-29.683594-14.359376-2.136718-2.214843-3.96875-4.839843-5.15625-7.386718l-.179687-.382813-.09375-.410156-.253906-.390625-.160157-.484375c-1.285156-3.574219-1.273437-6.976563.035157-9.835937.671875-1.480469 1.691406-2.808594 2.675781-4.089844 1.21875-1.597656 2.46875-3.234375 3.0625-5.148438.996094-3.167968.113281-6.457031-.742188-9.640625-.554687-2.070312-1.128906-4.207031-1.207031-6.34375-.171875-4.660156 2.140625-9.597656 6.339844-13.546875 1.707031-1.605468 3.734375-3.101562 6.210937-4.585937l3.363282-2.019531 2.085937 3.324218c8.855469 14.121094 24.105469 23.96875 40.792969 26.34375l13.007812 1.851563-11.832031 5.710937c-2.484375 1.199219-4.554687 2.8125-6.15625 4.800782-4.28125 5.308593-5.378906 13.0625-2.800781 19.757812l1.316406 3.421875-3.292968 1.609375c-4.753907 2.328125-9.5625 6.15625-13.195313 10.511719l-1.558594 1.871093zm0 0"/></g><path d="m96.816406 257.300781c-12.28125-.777343-24.199218-6.195312-32.703125-14.859375-9.320312-9.472656-14.671875-23.070312-14.316406-36.371094.289063-10.984374 4.015625-21.03125 7.960937-31.671874l.132813-.367188c1.527344-4.136719 3.105469-8.414062 4.414063-12.660156 3.167968-10.300782 4.953124-21.136719 6.683593-31.613282 1.105469-6.761718 2.355469-14.40625 4.050781-21.742187 6.859376-29.828125 21.691407-56.378906 41.753907-74.757813 20.269531-18.554687 46.609375-29.199218 72.269531-29.199218 2.394531 0 4.796875.097656 7.144531.285156 23.078125 1.847656 45.335938 12.636719 61.0625 29.597656 15.742188 16.976563 24.832031 39.976563 24.9375 63.109375.03125 4.519531-.289062 9.148438-.59375 13.621094l-.023437.34375c-.574219 8.292969-1.167969 16.867187.308594 25.175781 1.425781 8.003906 4.75 15.582032 7.964843 22.910156 2.753907 6.3125 5.332031 12.203126 7.003907 18.570313 5.070312 19.335937.316406 40.921875-12.40625 56.332031-11.867188 14.390625-30.1875 22.984375-49.007813 22.984375-.828125 0-1.660156-.019531-2.488281-.054687l-4.054688-.164063.273438-4.960937c.234375-3.972656.480468-8.0625-1.054688-11.722656-.765625-1.835938-2.191406-3.515626-3.914062-4.617188l-4.21875-2.691406 3.554687-3.519532c15.523438-15.371093 24.402344-37.070312 23.746094-58.054687-.246094-7.597656-1.644531-13.257813-4.410156-17.808594-2.984375-4.914062-7.660157-8.539062-12.183594-12.046875l-.21875-.171875c-1.074219-.835937-2.140625-1.664062-3.1875-2.519531-14.023437-11.390625-27.90625-27.765625-34.421875-70.058594-9.097656 37.707032-36.117188 65.925782-70.574219 73.632813-.746093.164062-3.667969.78125-3.667969.78125-7.351562 1.515625-14.921874 3.074219-19.925781 8.457031-3.746093 4.046875-5.773437 10.078125-6.183593 18.4375-1.082032 22.332031 8.84375 45.882812 25.902343 61.457031l4.136719 3.78125-4.917969 2.683594c-3.738281 2.042969-6.386719 3.878906-8.585937 5.945313-3.183594 2.992187-5.335938 6.65625-6.066406 10.316406l-.6875 3.433594zm0 0" fill="#ffbf48"/><path d="m260.367188 507.742188 4.023437-102.230469-4.089844 102.234375-87.214843-.363282-4.921876-108.199218c-.003906-.019532-.867187-2.472656-.867187-2.472656l1.832031-1.78125c5.003906-4.859376 9.1875-10.417969 12.4375-16.519532l1.710938-3.214844 3.363281 1.402344c6.679687 2.796875 13.855469 4.210938 21.324219 4.210938 13.785156 0 27.414062-5.019532 37.394531-13.765625-10.046875-2.933594-16.773437-11.402344-20.652344-17.996094-3.042969-5.195313-5.355469-10.75-7.59375-16.121094l-.121093-.296875c-1.253907-2.992187-2.546876-6.085937-3.953126-9.066406-2.515624-5.335938-5.117187-9.660156-7.957031-13.21875l-4.015625-5.03125 6.289063-1.371094c9.253906-2.019531 17.921875-6.925781 24.410156-13.816406l2.5625-2.722656 2.890625 2.378906c35.148438 8.289062 65.773438 39.066406 79.890625 80.3125 12.777344 37.332031 11.984375 78.359375 9.226563 117.140625-.476563 6.667969-1.441407 14.101563-6.90625 17.953125-3.613282 2.53125-8.300782 2.742188-12.789063 2.742188zm-71.945313-93.332032c-.007813 0-.019531.003906-.027344.011719-1.320312 1.554687-1.929687 3.671875-1.707031 5.960937.292969 2.992188 1.957031 6.023438 4.335938 7.914063 4.109374 3.265625 9.808593 4.054687 14.828124 4.542969 8.949219.859375 18.394532 1.320312 28.878907 1.410156h.945312c3.128907 0 6.671875-.273438 9.203125-2.296875 4.09375-3.261719 4.753906-11.363281 2.816406-14.214844-1.355468-2.007812-3.90625-2.898437-8.269531-2.898437-1.253906 0-2.492187.066406-3.6875.132812-1.070312.0625-2.1875.117188-3.082031.117188l-44.230469-.679688-.003906-4zm0 0" fill="#288fc9"/><path d="m67.828125 506.953125.195313-4.167969c1.574218-33.925781 1.347656-68.269531-.667969-102.066406 1.960937 33.917969 2.175781 68.371094.585937 102.398438l-.179687 3.828124-41.660157-.164062c-6.046874-.035156-11.382812-.316406-15.503906-3.445312-6.050781-4.582032-6.703125-13.203126-6.511718-21.835938l1.089843-47.839844c.570313-25.050781 1.15625-50.960937 10.65625-74.769531 13.011719-32.632813 43.777344-58.144531 78.378907-65.003906l2.828124-.558594 1.425782 2.507813c1.140625 2.007812 2.617187 3.972656 4.273437 5.683593 7.019531 7.277344 16.433594 12.226563 26.515625 13.941407l5.441406.921874-2.570312 4.882813c-4.566406 8.679687-5.808594 19.039063-3.40625 28.425781 1.898438 7.421875 5.917969 14.132813 9.8125 20.625 1.449219 2.417969 3.082031 5.148438 4.550781 7.863282 4.441407 8.21875 8.84375 20.195312 4.617188 30.589843 5.007812-1.878906 9.792969-4.507812 14.265625-7.777343l6.019531-4.394532 5.039063 110.792969zm0 0" fill="#288fc9"/><path d="m167.917969 250.726562c-14.507813 0-28.398438-3.773437-40.175781-10.917968-23.550782-14.300782-38.480469-42.390625-37.152344-69.902344.398437-8.339844 2.414062-14.359375 6.167968-18.390625 4.980469-5.363281 12.523438-6.925781 19.816407-8.433594l.195312-.039062c1.195313-.246094 2.390625-.496094 3.566407-.75 29.238281-6.542969 53.839843-28.449219 65.78125-58.59375l4.757812-12.015625 2.863281 12.601562c5.546875 24.445313 15.269531 41.230469 31.519531 54.429688 1.105469.894531 2.242188 1.785156 3.386719 2.664062 4.765625 3.699219 9.214844 7.15625 12.191407 12.054688 2.757812 4.535156 4.15625 10.183594 4.398437 17.769531.863281 27.535156-14.539063 55.375-38.328125 69.273437-11.492188 6.703126-24.972656 10.25-38.988281 10.25zm0 0" fill="#ffdac4"/><path d="m167.039062 267.359375c-16.898437 0-33.488281-8.03125-44.378906-21.484375l5.175782-5.941406c11.734374 7.082031 25.601562 10.824218 40.09375 10.824218 13.058593 0 25.75-3.09375 36.703124-8.945312l4.863282 6.195312c-10.722656 11.96875-26.414063 19.203126-41.96875 19.351563zm0 0" fill="#ffdac4"/><path d="m239.367188 414.910156c-1.320313 0-2.617188.070313-3.628907.125l-.125.007813c-.980469.058593-1.902343.109375-2.703125.109375 0 0-45.359375-.691406-45.359375-.691406l-.671875 3.238281c-.179687.882812-.222656 1.835937-.125 2.667969.28125 2.964843 1.929688 5.984374 4.308594 7.875 4.105469 3.261718 9.5625 4.03125 14.800781 4.539062 8.902344.859375 18.347657 1.316406 28.863281 1.398438l.808594.003906c3.351563 0 6.800782-.277344 9.3125-2.285156 3.242188-2.582032 5.273438-10.464844 2.804688-14.128907-1.703125-2.519531-5.144532-2.859375-8.285156-2.859375zm0 0" fill="#5bd0fc"/><path d="m320.953125 368.78125c-14.34375-41.902344-45.335937-73.347656-81.148437-82.535156 2.777343-4.789063 3.371093-9.472656 1.644531-13.476563-1.300781-3.019531-3.609375-4.960937-5.644531-6.675781-1.175782-.988281-2.28125-1.921875-3-2.90625-.464844-.636719-.8125-1.359375-1.074219-2.140625 20.410156.527344 40.863281-8.6875 53.871093-24.457031 13.535157-16.40625 18.589844-39.378906 13.191407-59.953125-1.757813-6.699219-4.53125-13.035157-7.210938-19.160157-3.261719-7.449218-6.34375-14.484374-7.679687-22.007812-1.390625-7.804688-.839844-15.757812-.257813-24.175781.320313-4.65625.652344-9.46875.632813-14.265625-.121094-24.148438-9.605469-48.148438-26.027344-65.851563-16.421875-17.699219-39.644531-28.957031-63.714844-30.882812-28.652344-2.292969-59.488281 8.914062-82.484375 29.96875-20.671875 18.929687-35.933593 46.222656-42.976562 76.847656-1.679688 7.296875-2.910157 14.757813-4.097657 21.972656-1.703124 10.347657-3.46875 21.046875-6.558593 31.097657-1.3125 4.265624-2.921875 8.609374-4.472657 12.8125-3.882812 10.492187-7.898437 21.34375-8.210937 32.96875-.390625 14.589843 5.253906 28.925781 15.480469 39.335937 9.515625 9.683594 22.496094 15.453125 36.003906 16.105469.242188 1.148437.539062 2.265625.835938 3.363281.769531 2.863281 1.433593 5.335937.796874 7.355469-.394531 1.25-1.339843 2.484375-2.429687 3.914062-1.066406 1.394532-2.277344 2.976563-3.140625 4.871094-1.386719 3.027344-1.625 6.183594-1.109375 9.257812-35.519531 7.5-66.652344 33.460938-80.117187 67.222657-9.761719 24.484375-10.386719 51.949219-10.9375 76.179687l-1.085938 47.84375c-.21875 9.710938.609375 19.480469 8.117188 25.171875 5.550781 4.207031 12.710937 4.238281 17.9375 4.257813l279.84375 1.160156h1.0625c4.441406 0 10.132812-.222656 14.769531-3.484375 6.597656-4.636719 8.042969-12.832031 8.625-20.992187 2.789062-39.214844 3.578125-80.742188-9.433594-118.742188zm-86.90625-92.816406c1.277344 2.964844-1.644531 7.121094-2.960937 8.773437-7.125 8.933594-18.167969 14.925781-29.546876 16.019531-.121093.011719-.230468.046876-.347656.070313-1.070312-.835937-2.167968-1.609375-3.304687-2.308594-3.15625-1.945312-6.550781-3.257812-9.976563-3.949219.035156-.085937.082032-.167968.113282-.257812 2.96875-9.089844-1.789063-19.683594-10.617188-23.855469 18.003906-3.324219 34.5-15.027343 43.15625-31.183593.777344.636718 1.441406 1.484374 1.816406 2.375 1.167969 2.789062.964844 6.25.753906 9.914062l-.070312 1.222656c-.265625 4.941406-.089844 10.609375 3.226562 15.15625 1.292969 1.769532 2.902344 3.121094 4.320313 4.316406 1.550781 1.308594 2.886719 2.433594 3.4375 3.707032zm-80.601563 125.691406c.527344-7.570312-1.738281-16.078125-6.78125-25.40625-1.476562-2.734375-3.085937-5.417969-4.640624-8.015625-3.914063-6.535156-7.613282-12.707031-9.367188-19.554687-2.632812-10.269532-.285156-21.894532 6.121094-30.34375 4.792968-6.324219 13.347656-12.792969 21.644531-12.992188.121094-.003906.242187-.003906.363281-.003906 4.207032 0 7.808594 1.761718 10.714844 5.238281 11.085938 13.257813 15.84375 33.144531 12.113281 50.667969-3.585937 16.855468-15.085937 32.015625-30.167969 40.410156zm-52.1875-109.257812c-.109374-.484376-.289062-.933594-.546874-1.328126-.84375-2.335937-1.050782-4.726562-.097657-6.816406.488281-1.070312 1.328125-2.164062 2.214844-3.324218 1.359375-1.777344 2.898437-3.789063 3.714844-6.390626 1.339843-4.261718.253906-8.304687-.703125-11.867187-.519532-1.945313-1.015625-3.785156-1.074219-5.453125-.125-3.507812 1.726563-7.332031 5.085937-10.492188 1.636719-1.542968 3.527344-2.863281 5.527344-4.070312 9.464844 15.105469 25.976563 25.675781 43.617188 28.1875-2.882813 1.382812-5.492188 3.359375-7.53125 5.886719-5.234375 6.496093-6.484375 15.738281-3.410156 23.714843-5.914063 2.882813-10.996094 7.3125-14.519532 11.535157-.175781-.042969-.351562-.089844-.539062-.105469-10.230469-.972656-20.191406-5.773438-27.328125-13.171875-1.679688-1.742187-3.324219-3.964844-4.410157-6.304687zm19.929688-146.203126c31.019531-6.941406 56.253906-29.726562 68.648438-61.019531 4.667968 20.527344 13.199218 40.640625 32.90625 56.644531 1.136718.921876 2.300781 1.824219 3.464843 2.730469 4.425781 3.433594 8.605469 6.675781 11.207031 10.957031 2.390626 3.9375 3.605469 8.964844 3.820313 15.824219.820313 26.113281-13.785156 52.511719-36.347656 65.683594-22.558594 13.175781-52.726563 12.921875-75.066407-.632813-22.335937-13.550781-36.496093-40.1875-35.234374-66.285156.355468-7.355468 2.027343-12.542968 5.105468-15.859375 4.113282-4.4375 10.730469-5.800781 17.734375-7.246093 1.265625-.261719 2.523438-.519532 3.761719-.796876zm59.171875 145.613282c-.25.765625-.25 1.550781-.0625 2.273437-4.546875.320313-8.84375 1.789063-12.371094 4.390625-2.417969-.847656-4.992187-1.253906-7.695312-1.191406-1.542969.039062-3.0625.226562-4.558594.527344-2.152344-5.34375-1.375-11.742188 2.070313-16.019532 3.753906-4.65625 10.78125-6.484374 16-4.160156 5.234374 2.328125 8.324218 8.953125 6.617187 14.179688zm-12.871094-28.453125c-.152343 0-.300781.003906-.453125.003906-15.78125 0-31.347656-7.75-41.261718-20.003906 12.570312 7.59375 27.363281 11.398437 42.152343 11.398437 13.421875 0 26.839844-3.132812 38.589844-9.414062-9.824219 10.964844-24.292969 17.878906-39.027344 18.015625zm10.199219 42.050781c-.640625-.765625-1.3125-1.472656-2.003906-2.132812 5.75-2.359376 12.941406-.992188 17.972656 2.109374 6.085938 3.753907 11.078125 10.078126 15.703125 19.90625 1.414063 3 2.730469 6.15625 4.007813 9.210938 2.308593 5.523438 4.695312 11.238281 7.84375 16.597656 3.328124 5.667969 8.609374 12.605469 16.175781 16.90625-14.152344 9.277344-33.269531 11.359375-48.902344 4.953125 1.273437-3.261719 2.289063-6.617187 3.015625-10.035156 4.222656-19.851563-1.199219-42.429687-13.8125-57.515625zm-123.894531-99.230469c.277343-10.292969 3.886719-20.054687 7.710937-30.386719 1.59375-4.304687 3.242188-8.757812 4.617188-13.238281 3.253906-10.574219 5.0625-21.546875 6.8125-32.160156 1.167968-7.089844 2.378906-14.421875 3.996094-21.472656 6.683593-29.050781 21.089843-54.871094 40.566406-72.707031 21.371094-19.574219 49.925781-29.996094 76.394531-27.878907 22.078125 1.765625 43.382813 12.089844 58.445313 28.328125 15.066406 16.238282 23.765624 38.253906 23.875 60.402344.023437 4.5-.300782 9.164062-.613282 13.671875-.589844 8.539063-1.199218 17.363281.363282 26.148437 1.507812 8.464844 4.925781 16.273438 8.230468 23.828126 2.675782 6.109374 5.203125 11.882812 6.800782 17.972656 4.753906 18.109375.304687 38.332031-11.613282 52.777344-11.625 14.09375-30.003906 22.230468-48.25 21.476562l.050782-.90625c.246093-4.210938.527343-8.984375-1.363282-13.496094-1.105468-2.632812-3.070312-4.917968-5.453125-6.4375 16.035157-15.863281 25.636719-38.535156 24.929688-61.019531-.261719-8.308594-1.847657-14.585937-4.988281-19.753906-3.375-5.554688-8.347657-9.414063-13.15625-13.144531-1.117188-.867188-2.234376-1.734376-3.324219-2.621094-13.40625-10.886719-26.683594-26.605469-32.992188-67.570313-.292969-1.902343-1.894531-3.332031-3.820312-3.414062-1.921875-.078125-3.636719 1.214843-4.085938 3.089843-8.683593 36.214844-34.546875 63.289063-67.5 70.664063-1.195312.265625-2.40625.515625-3.628906.765625-7.566406 1.5625-16.148437 3.332031-22.015625 9.65625-4.425781 4.769531-6.796875 11.625-7.25 20.957031-1.160156 23.992188 9.433594 48.390625 27.191406 64.609375-3.25 1.785156-6.546875 3.855469-9.402344 6.542969-3.839843 3.613281-6.359374 7.992187-7.257812 12.445313-11.191406-.703126-22.253906-5.679688-30.097656-13.660157-8.574219-8.726562-13.496094-21.238281-13.171875-33.46875zm-40.773438 293.976563c-4.621093-3.5-5.101562-10.992188-4.929687-18.5625l1.089844-47.84375c.558593-24.699219 1.140624-50.242188 10.363281-73.375 12.632812-31.671875 42.03125-55.945313 75.449219-62.566406 1.363281 2.414062 3.066406 4.625 4.871093 6.496093 7.601563 7.878907 17.910157 13.257813 28.722657 15.101563-5.011719 9.515625-6.429688 20.777344-3.738282 31.28125 2.046875 7.980468 6.222656 14.953125 10.257813 21.695312 1.511719 2.519532 3.074219 5.128906 4.464843 7.703125 4.03125 7.457031 8.070313 18.222657 4.429688 27.175781-.605469 1.488282-.269531 3.195313.855469 4.34375.773437.785157 1.816406 1.207032 2.878906 1.207032.488281 0 .976563-.089844 1.449219-.269532 5.382812-2.074218 10.46875-4.898437 15.148437-8.316406l4.507813 99.144532-96.824219-.402344c1.578125-34.019532 1.359375-68.496094-.660156-102.488282-.132813-2.222656-2.050781-3.90625-4.265625-3.785156-2.222656.132813-3.917969 2.042969-3.785156 4.265625 2.011718 33.820313 2.226562 68.128907.640624 101.972657l-37.824218-.15625c-5.304688-.019532-9.953125-.234376-13.101563-2.621094zm309.324219-13.203125c-.40625 5.753906-1.183594 12.132812-5.21875 14.96875-2.695312 1.894531-6.648438 2.035156-11.164062 2.015625l-41.433594-.171875 3.863281-98.09375c.089844-2.226563-1.644531-4.101563-3.867187-4.1875-2.21875-.089844-4.101563 1.644531-4.1875 3.867187l-3.875 98.378906-79.550782-.328124-4.75-104.449219c-.015625-.40625-.113281-.78125-.242187-1.144531 5.257812-5.121094 9.734375-11.058594 13.183593-17.515626 7.261719 3.035157 15.058594 4.523438 22.859376 4.523438 14.507812 0 29.015624-5.101562 40.035156-14.761719 1.109375-.96875 1.597656-2.472656 1.277344-3.910156-.324219-1.441406-1.40625-2.589844-2.824219-2.996094-8.761719-2.511719-14.78125-10.15625-18.285157-16.128906-2.875-4.890625-5.050781-10.105469-7.359374-15.625-1.308594-3.132813-2.660157-6.375-4.148438-9.535156-2.625-5.574219-5.40625-10.199219-8.445312-14.011719 10.089843-2.195312 19.378906-7.441406 26.46875-14.972656.453124.367187.984374.648437 1.589843.789062 33.851563 7.988282 63.375 37.773438 77.058594 77.730469 12.542969 36.640625 11.746094 77.191406 9.015625 115.558594zm0 0"/><path d="m235.519531 410.980469c-1.074219.0625-2.09375.109375-2.867187.105469l-44.164063-.679688c-1.199219-.023438-2.351562.503906-3.128906 1.417969-2.039063 2.390625-2.980469 5.566406-2.652344 8.941406.402344 4.097656 2.578125 8.082031 5.828125 10.664063 4.972656 3.945312 11.351563 4.851562 16.9375 5.390624 9.035156.875 18.597656 1.339844 29.226563 1.425782.308593.003906.632812.007812.976562.007812 3.261719 0 8.03125-.246094 11.707031-3.175781 5.652344-4.507813 6.835938-14.859375 3.628907-19.589844-3.503907-5.171875-10.433594-4.785156-15.492188-4.507812zm6.835938 17.792969c-1.6875 1.34375-4.679688 1.4375-7.589844 1.410156-10.390625-.085938-19.71875-.539063-28.519531-1.386719-4.640625-.449219-9.445313-1.101563-12.699219-3.683594-1.523437-1.210937-2.628906-3.222656-2.8125-5.128906-.042969-.425781-.046875-.949219.066406-1.476563l41.730469.640626c1.058594.019531 2.210938-.046876 3.433594-.113282 2.597656-.144531 7.429687-.414062 8.371094.972656 1.121093 1.65625-.15625 7.308594-1.980469 8.765626zm0 0"/></svg>