<svg height="512pt" viewBox="-93 0 512 512.0009" width="512pt" xmlns="http://www.w3.org/2000/svg"><path d="m267.261719 313.003906c-9.476563-7.519531-19.707031-13.148437-30.417969-16.742187l-3.601562-1.207031 1.019531-3.660157c1.925781-6.902343 2-14.585937.21875-22.226562-2.882813-12.386719-10.007813-23.289063-15.890625-31.398438l-1.808594-2.488281 1.941406-2.386719c10.167969-12.492187 17.207032-29.996093 21.519532-53.515625.734374-4.03125 1.261718-7.941406-.332032-11.410156-1.957031-4.253906-6.445312-6.402344-10.785156-8.476562l-1.203125-.574219c-12.878906-6.226563-23.90625-16.261719-31.90625-29.023438-3.890625-6.226562-6.921875-12.902343-9.011719-19.84375-.855468-2.875-1.21875-5.910156-1.601562-9.125l-.019532-.152343c-.453124-3.792969-.914062-7.640626-2.203124-10.875-13.203126 33.828124-37.234376 57.429687-67.730469 66.457031-1.671875.503906-3.652344.878906-5.75 1.277343-3.96875.757813-8.429688 1.609376-11.378907 3.484376-4.722656 2.996093-6.277343 10.125-7.417968 15.328124l-.171875.777344c-3.277344 14.699219-1.453125 29.960938 5.144531 42.96875 2.910156 5.761719 6.828125 11.089844 11.648438 15.839844l2.160156 2.132812-1.46875 2.652344c-4.875 8.804688-10.945313 19.761719-13.277344 31.558594-1.664062 8.449219-1.113281 16.695312 1.597656 23.847656l1.738282 4.585938-4.84375.78125c-9.910157 1.59375-19.617188 5.035156-28.855469 10.234375l-2.558594 1.441406-2.128906-2c-13.148438-8.351563-21.777344-24.902344-21.984375-42.179687-.179688-15.253907 5.730468-31.546876 16.640625-45.871094 2.492187-3.265625 5.589843-7.328125 4.695312-11.558594-.640625-3.023438-3.203125-5.269531-5.460937-7.25l-.867188-.761719c-12.757812-11.414062-18.417968-30.203125-14.085937-46.757812 4.332031-16.558594 18.46875-30.167969 35.175781-33.863281-.027344 0 .023438-.03125.078125-.0625l1.292969-.734376 1.457031.289063c2.828125.558594 5.941406.84375 9.253906.84375 2.574219 0 5.332031-.171875 8.199219-.511719 37.011719-4.367187 71.710938-27.871094 92.828125-62.867187 5.203125-8.621094 8.085937-15.550781 9.3125-22.410157v-.058593l.011719-.050781v-3.222657l3.582031-.378906c.976563-.101563 1.972656-.15625 2.96875-.15625 10.878906 0 21.207031 5.964844 26.308594 15.199219 1.136719 2.066406 2.03125 4.242187 2.898437 6.339844 1.683594 4.09375 3.273438 7.957031 6.292969 10.960937 3.796875 3.773437 8.867187 5.273437 14.234375 6.859375 1.550781.457031 2.953125.875 4.34375 1.347656 13.957031 4.703125 26.097656 15.457032 32.460938 28.761719 6.355468 13.304687 7.101562 29.507813 1.992187 43.339844-1.171875 3.175781-2.589844 6.144531-4.089844 9.285156l-.082031.175781c-1.363281 2.832032-2.898438 6.03125-4.117188 9.269532-2.882812 7.714843-3.269531 14.449218-1.144531 20.019531 1.347657 3.527343 3.71875 6.546875 6.007813 9.46875l.105468.132812c1.496094 1.917969 2.90625 3.730469 4.117188 5.746094 6.921875 11.425781 4.75 27.601563-4.957031 36.808594-.683594.65625-1.417969 1.316406-2.171875 1.988281-4.804688 4.292969-8.144532 7.691406-7.285156 12.324219.605468 3.289062 3.441406 5.605469 5.945312 7.648437l.179688.148438c.695312.574218 1.414062 1.167968 2.078124 1.777344 7.539063 6.890624 10.015626 19.210937 6.011719 29.960937-3.265625 8.773437-10.519531 16.625-20.433593 22.101563l-2.332032 1.292968zm0 0" fill="#d34242"/><g fill="#ffbf48"><path d="m163.738281 322.78125c-11.859375 0-23.667969-1.316406-35.097656-3.910156-8.457031-1.917969-19.066406-5.109375-26.097656-12.8125-7.300781-7.980469-10.117188-20.566406-7.53125-33.664063 2.113281-10.746093 7.292969-20.714843 12.414062-30.003906l2.257813-4.105469 3.699218 2.875c11.46875 8.917969 26.25 14.421875 41.625 15.5 2.480469.171875 5.011719.257813 7.519532.257813 17.773437 0 32.769531-4.34375 44.570312-12.914063 2.226563-1.621094 4.375-3.429687 6.386719-5.378906l3.34375-3.234375 2.699219 3.789063c5.46875 7.683593 12.105468 18.039062 14.894531 30.015624 3.097656 13.316407.496094 26.441407-6.960937 35.113282-7.773438 9.03125-20.214844 12.671875-28.894532 14.625-11.34375 2.550781-23.058594 3.847656-34.828125 3.847656zm0 0"/><path d="m163.5625 457.660156c-5.980469 0-13.398438-.65625-17.722656-5.78125-3.804688-4.53125-3.882813-10.800781-3.621094-17.367187l4.425781-112.519531 4.148438.332031c4.410156.347656 8.765625.527343 12.945312.527343 11.804688-.011718 23.53125-1.308593 34.851563-3.855468 3.34375-.753906 8.382812-2.007813 13.460937-4.101563l4.480469-1.851562.964844 4.75c7.601562 37.398437 11.144531 75.6875 10.53125 113.792969-.082032 5.058593-.386719 9.910156-3.207032 13.621093-3.089843 4.070313-8.410156 5.589844-13.15625 6.699219-15.324218 3.597656-31.074218 5.53125-46.804687 5.742188-.425781.007812-.859375.011718-1.296875.011718zm0 0"/><path d="m135.769531 439.269531c-.859375 0-1.746093-.105469-2.632812-.316406-3.925781-.921875-7.558594-3.710937-9.488281-7.277344-3.144532-5.839843-2.988282-12.414062-2.453126-20.402343l6.195313-92.570313 4.488281.917969c3.691406.753906 7.417969 1.382812 11.078125 1.863281l3.621094.476563-4.433594 112.691406c-.003906.167968-.011719.292968-.019531.414062l-.179688 2.273438-2.050781 1.003906c-1.253906.613281-2.640625.925781-4.125.925781zm0 0"/></g><path d="m156.90625 507.914062c-25.832031 0-51.992188-.136718-77.75-.402343l-3.632812-.039063-.3125-3.621094c-1.195313-13.894531-2.335938-27.726562-3.4375-41.105468l-.542969-6.566406c-1.390625-16.972657-2.753907-33.597657-4.207031-50.382813 1.382812 16.773437 2.75 33.40625 4.140624 50.386719l.605469 7.339844c1.066407 12.945312 2.160157 26.199218 3.300781 39.554687l.378907 4.394531-4.410157-.054687c-14.144531-.167969-30.863281-.382813-47.597656-.6875-4.4375-.085938-8.351562-.347657-11.339844-2.699219-3.777343-2.976562-4.597656-8.164062-5.113281-13.226562-2.542969-24.972657-4.453125-51.746094-1.222656-78.316407 3.476563-28.550781 12.886719-53.671875 27.21875-72.648437 15.988281-21.171875 39.621094-35.59375 63.21875-38.578125l2.429687-.308594 1.378907 2.023437c.753906 1.105469 1.585937 2.152344 2.46875 3.117188 4.859375 5.320312 11.746093 9.046875 21.679687 11.734375l3.167969.855469-6.199219 92.582031c-.425781 6.285156-.953125 14.101563 2.460938 20.4375 1.902344 3.519531 5.640625 6.394531 9.519531 7.3125.890625.214844 1.773437.324219 2.648437.324219.582032 0 1.179688-.058594 1.835938-.175782l4.222656-.761718.464844 4.261718c.4375 3.992188 1.546875 6.929688 3.503906 9.246094 3.390625 4.023438 8.929688 5.820313 17.953125 5.820313l1.1875-.011719c15.671875-.214844 31.421875-2.148438 46.757813-5.746094 5.101562-1.195312 10.234375-2.839844 13.191406-6.726562 2.820312-3.710938 3.128906-8.582032 3.214844-13.664063.625-38.65625-3.015625-77.433593-10.8125-115.261719l-1.152344-3.070312 2.808594-1.792969c3.464844-2.101562 6.273437-4.425781 8.582031-7.109375 1.542969-1.789062 2.925781-3.867187 4.113281-6.179687l1.5625-3.039063 3.25 1.070313c31.957032 10.539062 59.21875 39.382812 72.925782 77.15625 13.171874 36.265625 13.386718 75.542969 11.855468 109.183593-.328125 7.011719-1.121094 14.871094-6.386718 19.492188-4.546876 4.007812-10.984376 4.453125-17.734376 4.574219-10.875.210937-22.351562.398437-36.117187.589843l-4.84375.070313.847656-4.769531c5.894531-33.175782 7.417969-66.964844 4.523438-100.433594 2.871093 34.027344 1.253906 68.328125-4.859375 101.949219l-.589844 3.242187-3.292969.042969c-31.738281.410156-63.992187.617187-95.863281.617187zm0 0" fill="#288fc9"/><path d="m86.285156 123.273438c-10.496094 0-18.503906-2.746094-23.789062-8.160157-11.316406-11.617187-6.390625-30.6875-3.75-38.347656 7.667968-22.257813 22.742187-41.601563 42.453125-54.476563 7.199219-4.695312 15.023437-8.519531 23.257812-11.371093 8.25-2.851563 16.816407-4.699219 25.46875-5.484375 1.136719-.097656 2.296875-.214844 3.488281-.335938l.761719-.078125c4.410157-.457031 9.421875-.980469 14.191407-.980469 7.164062 0 17.398437.992188 23.507812 9.558594 3.769531 5.289063 5.542969 12.378906 4.992188 19.960938l-.03125.410156-.109376.390625.03125.386719-.046874.402344c-.074219.679687-.175782 1.363281-.285157 2.046874-1.195312 6.988282-4.082031 13.992188-9.375 22.75-20.777343 34.457032-56.328125 58.535157-92.773437 62.835938-2.761719.328125-5.449219.492188-7.992188.492188zm0 0" fill="#5b5d6d"/><path d="m85.59375 31.601562c-3.421875-1.378906-7.035156-2.078124-10.746094-2.078124-2.71875 0-5.410156.382812-8.003906 1.136718l-1.222656.367188c-1.894532.578125-4.046875 1.230468-5.953125 1.230468-1.492188 0-2.753907-.398437-3.753907-1.183593-1.832031-1.484375-2.269531-3.886719-2.085937-5.648438.195313-1.804687.980469-3.6875 2.398437-5.777343 4.929688-7.316407 13.484376-12.0625 22.316407-12.375.3125-.011719.621093-.015626.929687-.015626 8.085938 0 16.074219 3.667969 21.375 9.808594l2.945313 3.417969-3.746094 2.515625c-3.59375 2.417969-7.074219 5.078125-10.335937 7.910156l-1.847657 1.605469zm0 0" fill="#5b5d6d"/><path d="m162.507812 256.851562c-2.460937 0-4.984374-.085937-7.496093-.261718-25.972657-1.804688-48.613281-15.765625-59.082031-36.433594-6.484376-12.800781-8.355469-28.449219-5.136719-42.925781l.164062-.761719c1.164063-5.242188 2.734375-12.335938 7.40625-15.296875 2.945313-1.871094 7.394531-2.71875 11.316407-3.464844 1.988281-.375 4.042968-.765625 5.789062-1.285156 26.984375-7.988281 48.613281-26.949219 62.550781-54.832031l5.855469-11.71875 1.6875 12.992187c.308594 2.378907.691406 4.898438 1.382812 7.1875 2.078126 6.953125 5.109376 13.636719 9.011719 19.875 7.992188 12.765625 19.027344 22.808594 31.910157 29.042969l1.175781.554688c4.351562 2.078124 8.847656 4.21875 10.804687 8.46875 1.59375 3.460937 1.035156 7.515624.324219 11.371093-5.753906 31.445313-16.585937 52.570313-33.113281 64.582031-11.785156 8.566407-26.777344 12.90625-44.550782 12.90625zm0 0" fill="#ffdac4"/><path d="m313.195312 371.972656c-8.195312-22.582031-21.105468-42.042968-36.949218-56.554687 9.441406-5.847657 16.351562-13.792969 19.683594-22.730469 4.570312-12.257812 1.652343-26.402344-7.089844-34.394531-.792969-.722657-1.613282-1.398438-2.410156-2.050781-2.160157-1.765626-4.199219-3.4375-4.53125-5.25-.46875-2.535157 2.195312-5.144532 6.011718-8.558594.777344-.695313 1.542969-1.378906 2.261719-2.0625 11.019531-10.472656 13.488281-28.867188 5.621094-41.878906-1.367188-2.261719-2.957031-4.292969-4.496094-6.261719-2.203125-2.816407-4.28125-5.472657-5.410156-8.421875-1.757813-4.605469-1.367188-10.375 1.164062-17.144532 1.117188-2.996093 2.5-5.878906 3.960938-8.929687 1.503906-3.144531 3.0625-6.394531 4.324219-9.808594 5.5625-15.0625 4.78125-32.011719-2.140626-46.5-6.925781-14.488281-19.621093-25.738281-34.835937-30.871093-1.492187-.503907-3.007813-.953126-4.476563-1.386719-4.867187-1.441407-9.464843-2.804688-12.527343-5.847657-2.4375-2.429687-3.875-5.921874-5.398438-9.617187-.917969-2.234375-1.871093-4.542969-3.097656-6.765625-6.160156-11.140625-19.207031-17.96875-31.851563-17.242188-.207031-6.917968-2.199218-13.382812-5.816406-18.457031-9.667968-13.5625-28.039062-11.660156-41.449218-10.265625-1.4375.148438-2.839844.292969-4.183594.417969-15.816406 1.441406-31.179688 6.253906-44.828125 13.996094-6.234375-7.863281-16.292969-12.53125-26.324219-12.175781-10.109375.351562-19.902344 5.78125-25.554688 14.167968-1.828124 2.710938-2.804687 5.128906-3.066406 7.605469-.394531 3.660156.992188 7.214844 3.609375 9.28125 1.957031 1.542969 4.097657 2.0625 6.214844 2.0625 2.578125 0 5.121094-.773437 7.234375-1.417969.386719-.117187.769531-.230468 1.144531-.339844 3.972657-1.160156 8.3125-1.257812 12.382813-.34375-11.355469 11.648438-20.144532 25.75-25.472656 41.21875-2.882813 8.378907-8.203126 29.292969 4.691406 42.507813 1.449218 1.488281 3.0625 2.796875 4.828125 3.933594-14.222657 6.148437-25.59375 18.941406-29.523438 33.972656-4.710937 17.996094 1.445313 38.414063 15.308594 50.816406.292969.261719.59375.527344.898437.792969 1.957032 1.714844 3.804688 3.335938 4.164063 5.039062.507813 2.386719-1.863281 5.5-3.996094 8.300782-11.425781 14.996094-17.613281 32.160156-17.421875 48.324218.207032 17.78125 8.3125 34.273438 21.339844 43.835938-9.460938 6.46875-18.097656 14.695312-25.441406 24.417969-14.769532 19.554687-24.457032 45.355469-28.011719 74.609375-3.277344 26.957031-1.355469 54.007812 1.207031 79.222656.574219 5.667969 1.613282 12.050781 6.652344 16.015625 4.316406 3.390625 10.007812 3.496094 13.773438 3.5625 44.359374.804687 89.019531 1.203125 133.6875 1.203125 46.816406 0 93.644531-.441406 140.128906-1.320312 5.699218-.109376 14.304687-.273438 20.347656-5.589844 6.472656-5.695313 7.394531-14.527344 7.75-22.359375 1.554688-34.027344 1.332031-73.796875-12.085938-110.757813zm-247.464843-345.152344c-.40625.121094-.820313.246094-1.238281.371094-2.261719.6875-5.078126 1.546875-6.101563.738282-.425781-.335938-.675781-1.230469-.585937-2.085938.117187-1.105469.6875-2.402344 1.734374-3.957031 4.234376-6.285157 11.574219-10.351563 19.144532-10.613281 7.207031-.253907 14.429687 2.953124 19.132812 8.410156-3.75 2.515625-7.335937 5.257812-10.734375 8.207031-6.773437-2.726563-14.332031-3.113281-21.351562-1.070313zm-3.203125 51.25c7.378906-21.425781 21.890625-40.042968 40.863281-52.429687 13.910156-9.078125 30.128906-14.6875 46.898437-16.21875 1.378907-.125 2.8125-.273437 4.285157-.425781 4.519531-.46875 9.253906-.960938 13.789062-.960938 8.214844 0 15.785157 1.613282 20.253907 7.882813 3.253906 4.5625 4.742187 10.753906 4.253906 17.355469-.128906.457031-.179688.933593-.136719 1.429687-.074219.613281-.15625 1.234375-.261719 1.851563-1.101562 6.4375-3.828125 13.015624-8.84375 21.328124-20.167968 33.425782-54.585937 56.769532-89.824218 60.929688-9.046876 1.066406-21.324219.804688-28.445313-6.496094-9.757813-10-5.230469-27.28125-2.832031-34.246094zm-.460938 229.835938c-12.054687-7.636719-19.964844-22.894531-20.15625-38.871094-.167968-14.375 5.433594-29.765625 15.816406-43.390625 2.828126-3.714843 6.707032-8.800781 5.429688-14.8125-.917969-4.320312-4.140625-7.152343-6.734375-9.429687-.28125-.246094-.566406-.496094-.84375-.742188-11.664063-10.433594-16.84375-27.617187-12.882813-42.761718 3.960938-15.140626 16.890626-27.585938 32.171876-30.972657.433593-.097656.824218-.273437 1.1875-.492187 3.085937.617187 6.433593.925781 10.039062.925781 2.738281 0 5.628906-.175781 8.660156-.535156 38.226563-4.507813 74.035156-28.722657 95.785156-64.773438 5.558594-9.214843 8.609376-16.65625 9.890626-24.132812.003906-.023438.007812-.046875.011718-.074219 9.964844-1.050781 20.488282 4.191406 25.355469 12.996094 1.007813 1.816406 1.828125 3.816406 2.699219 5.933594 1.757812 4.273437 3.578125 8.691406 7.171875 12.265624 4.507812 4.480469 10.308593 6.199219 15.921875 7.863282 1.460937.433594 2.839844.839844 4.1875 1.296875 12.972656 4.375 24.234375 14.359375 30.136718 26.707031 5.902344 12.347656 6.59375 27.386719 1.851563 40.222656-1.128906 3.0625-2.539063 6.003906-4.03125 9.121094-1.472656 3.078125-3 6.257812-4.242187 9.589844-3.242188 8.664062-3.625 16.351562-1.140626 22.851562 1.558594 4.078125 4.117188 7.347656 6.589844 10.511719 1.457032 1.859375 2.832032 3.617187 3.949219 5.464844 5.984375 9.894531 4.101563 23.886719-4.28125 31.855469-.660156.628906-1.363281 1.257812-2.078125 1.894531-4.410156 3.945312-9.894531 8.851562-8.570312 16.039062.875 4.714844 4.464843 7.660157 7.355468 10.027344.742188.609375 1.445313 1.1875 2.078125 1.761719 6.378907 5.832031 8.421875 16.367187 4.972657 25.621094-2.953126 7.929687-9.539063 14.984374-18.617188 20-9.734375-7.714844-20.398438-13.628907-31.636719-17.394532 2.070313-7.429687 2.226563-15.796875.265625-24.207031-2.953125-12.6875-9.894531-23.667969-16.546875-32.839844 10.578125-13.007812 17.9375-31.277343 22.339844-55.332031.824219-4.496094 1.453125-9.269531-.628906-13.792969-2.570313-5.585937-7.972657-8.164062-12.742188-10.441406l-1.160156-.554687c-12.195313-5.898438-22.648437-15.421876-30.230469-27.539063-3.710937-5.925781-6.59375-12.273437-8.570312-18.867187-.769532-2.574219-1.117188-5.503907-1.484375-8.601563-.476563-4-.96875-8.136719-2.460938-11.878906-.617187-1.539063-2.082031-2.5625-3.765625-2.539063-1.660156.007813-3.144531 1.03125-3.742187 2.574219-12.675781 32.648437-35.785157 55.402344-65.066407 64.070313-1.507812.445312-3.398437.808593-5.40625 1.191406-4.289062.816406-9.152343 1.746094-12.738281 4.027344-6.105469 3.878906-7.882812 11.949218-9.183593 17.84375l-.167969.765624c-3.472657 15.605469-1.527344 31.816407 5.476562 45.648438 3.167969 6.25 7.382813 11.925781 12.414063 16.886719-5.648438 10.195312-11.339844 20.765625-13.695313 32.71875-1.828125 9.273437-1.132812 18.351562 1.777344 26.035156-10.4375 1.675781-20.636719 5.324219-30.179687 10.699219-.171876-.15625-.347657-.308594-.550782-.433594zm76.085938 126.449219c-.003906.128906-.007813.257812-.011719.390625-1.433594.707031-2.984375.578125-4.09375.316406-2.796875-.664062-5.5-2.742188-6.875-5.296875-2.644531-4.890625-2.476563-10.890625-1.984375-18.222656l5.890625-87.996094c3.757813.769531 7.546875 1.402344 11.359375 1.898437zm8.0625.316406 4.261718-108.367187c4.410157.359374 8.835938.539062 13.261719.539062 12.015625 0 24.039063-1.316406 35.726563-3.945312 4.152344-.9375 9.125-2.25 14.113281-4.304688 7.535156 37.097656 11.054687 75.082031 10.445313 112.929688-.070313 4.371093-.308594 8.527343-2.390626 11.265624-2.28125 3-6.808593 4.269532-10.875 5.222657-15.042968 3.527343-30.5 5.425781-45.945312 5.640625-5.980469.085937-12.554688-.371094-15.910156-4.359375-2.878906-3.414063-2.914063-8.863281-2.6875-14.621094zm51.476562-119.644531c-22.300781 5.019531-45.871094 5-68.164062-.058594-7.890625-1.789062-17.75-4.726562-24.035156-11.605469-6.441407-7.054687-8.894532-18.34375-6.558594-30.199219 2.007812-10.167968 6.9375-19.664062 12-28.84375 11.957031 9.300782 27.238281 15.171876 43.796875 16.324219 2.441406.171875 5.050781.273438 7.792969.273438 14.234374 0 31.945312-2.796875 46.925781-13.683594 2.386719-1.734375 4.65625-3.648437 6.816406-5.734375 5.863281 8.230469 11.761719 17.871094 14.257813 28.59375 2.816406 12.082031.539062 23.898438-6.09375 31.605469-6.992188 8.121093-18.609376 11.496093-26.738282 13.328125zm-81.082031-154.765625c27.96875-8.28125 50.683594-28.273438 64.992187-56.886719.332032 2.625.746094 5.285156 1.511719 7.839844 2.183594 7.285156 5.367188 14.292968 9.457031 20.832031 8.390626 13.40625 19.992188 23.960937 33.558594 30.523437l1.199219.574219c3.875 1.847657 7.535156 3.59375 8.886719 6.527344 1.097656 2.390625.636718 5.609375.023437 8.972656-5.5625 30.386719-15.875 50.6875-31.53125 62.066407-15.910156 11.558593-35.65625 12.847656-49.417969 11.886718-24.578124-1.707031-45.953124-14.832031-55.789062-34.242187-6.074219-11.992188-7.824219-26.664063-4.800781-40.25l.175781-.78125c.992188-4.511719 2.355469-10.691407 5.628906-12.773438 2.289063-1.453125 6.34375-2.226562 9.925782-2.910156 2.207031-.421875 4.289062-.820313 6.179687-1.378906zm200.613281 322.101562c-.28125 6.171875-.925781 13.0625-5.023437 16.667969-3.527344 3.105469-9.1875 3.464844-15.167969 3.578125-12.015625.230469-24.050781.421875-36.105469.589844 5.949219-33.476563 7.5-67.601563 4.574219-101.484375-.191406-2.21875-2.15625-3.855469-4.363281-3.671875-2.222657.191406-3.867188 2.148437-3.675781 4.367187 2.90625 33.6875 1.308593 67.621094-4.742188 100.890625-57.71875.742188-115.765625.808594-173.523438.203125-1.386718-16.152344-2.703124-32.15625-3.976562-47.65625-1.34375-16.375-2.738281-33.308594-4.210938-50.394531-.191406-2.21875-2.15625-3.859375-4.367187-3.671875-2.21875.191406-3.863281 2.144531-3.671875 4.363281 1.472656 17.070313 2.863281 33.996094 4.207031 50.363281 1.253907 15.257813 2.550781 31.007813 3.914063 46.90625-15.886719-.183593-31.757813-.398437-47.578125-.6875-3.691407-.066406-6.914063-.25-8.933594-1.835937-2.554687-2.011719-3.1875-6.285156-3.613281-10.488281-2.515625-24.75-4.40625-51.261719-1.226563-77.433594 3.382813-27.847656 12.527344-52.300781 26.441407-70.722656 15.449218-20.453125 37.929687-34.160156 60.527343-37.023438.863281 1.265625 1.804688 2.460938 2.828125 3.582032 6.511719 7.128906 15.519532 10.703124 23.578125 12.882812l-5.976562 89.3125c-.457031 6.804688-1.023438 15.269531 2.933593 22.597656 2.457032 4.554688 7.101563 8.125 12.113282 9.3125 1.207031.285156 2.402344.425782 3.574218.425782.867188 0 1.71875-.085938 2.550782-.238282.445312 4.132813 1.628906 8.078125 4.421875 11.394532 5.261719 6.25 13.8125 7.234374 21 7.234374.402343 0 .800781-.003906 1.191406-.007812 16.027344-.222656 32.070313-2.191406 47.679687-5.851562 5.832032-1.367188 11.742188-3.308594 15.457032-8.199219 3.558594-4.679688 3.945312-10.480469 4.035156-16.019531.628906-38.96875-3.046875-78.085938-10.921875-116.257813-.039063-.183594-.105469-.347656-.164063-.515625 3.476563-2.101562 6.757813-4.6875 9.539063-7.914062 1.808594-2.105469 3.347656-4.449219 4.640625-6.964844 30.808594 10.160156 57.109375 38.039062 70.425781 74.726562 12.933594 35.632813 13.125 74.410156 11.609375 107.640625zm0 0"/></svg>