<svg height="511pt" viewBox="-84 0 511 511.9993" width="511pt" xmlns="http://www.w3.org/2000/svg"><path d="m183.996094 112.351562c-1.816406 0-3.648438-.558593-5.292969-1.617187-2.3125-1.472656-3.894531-3.730469-4.328125-6.1875l-.03125-.007813c-.585938 2.316407-2.234375 4.355469-4.554688 5.601563-1.417968.753906-2.949218 1.148437-4.449218 1.148437-.957032 0-1.875-.160156-2.726563-.472656-2.226562-.804687-4.074219-2.664062-5.058593-5.097656-.992188-2.429688-.964844-5.058594.085937-7.203125-1.152344.191406-2.300781.304687-3.453125.304687-3.921875 0-7.882812-1.300781-11.453125-3.753906-5.289063-3.640625-9.050781-9.410156-10.058594-15.4375-1.757812-10.65625 3.773438-22.785156 13.765625-30.191406 8.296875-6.152344 19.664063-9.679688 31.191406-9.679688 6.199219 0 12.128907 1.078126 17.140626 3.117188 7.371093 3.011719 16.636718 9.585938 18.917968 23.832031 2.242188 13.964844-7.332031 29.117188-20.90625 33.085938.765625 2.371093.476563 5.097656-.816406 7.515625-1.328125 2.4375-3.464844 4.167968-5.871094 4.78125-.652344.167968-1.371094.261718-2.101562.261718zm-23.671875-39.011718 1.128906 4.65625-1.089844-4.644532-.027343-.015624s-.003907 0-.011719.003906zm27.839843-1.148438s-.03125.003906-.035156.042969l-.519531 4.609375.582031-4.609375zm0 0" fill="#fff"/><path d="m297.707031 447.480469c-6.078125 0-11.246093-4.164063-13.824219-7.726563-3.734374-5.207031-5.273437-11.785156-6.53125-18.074218l-.132812-.667969.097656-.679688c.015625-.097656.03125-.199219.050782-.296875 1.664062-26.488281 7.761718-52.386718 18.125-76.933594l2.527343-5.988281 4.207031 4.957031c16.410157 19.328126 28.371094 42.167969 34.589844 66.050782 1.644532 6.308594 2.953125 13.027344 1.429688 19.414062-1.359375 5.757813-6.027344 12.273438-13.0625 12.953125-.273438.027344-.578125.046875-.882813.046875-3.144531 0-6.417969-1.65625-8.535156-4.316406-1.703125-2.136719-2.402344-4.59375-1.972656-6.921875l.023437-.121094.027344-.121093c.054688-.203126.109375-.40625.164062-.601563l.046876-.179687c-.128907.203124-.203126.421874-.25.648437l-.027344.121094-.03125.121093c-2.078125 7.367188-5.136719 15.226563-12.070313 17.648438-1.257812.445312-2.59375.667969-3.96875.667969zm0 0" fill="#d34242"/><path d="m205.746094 507.917969c-20.359375-.039063-41.320313-.292969-62.300782-.757813l-3.910156-.089844v-4.089843l.011719-.121094c0-55.875.738281-112.726563 2.191406-168.984375l7.632813-1.566406c3.894531 8.476562 6.074218 17.34375 6.472656 26.363281l-.03125.023437.089844-.015624c2.628906-12.542969 7.433594-24.433594 14.285156-35.335938l4.921875-7.832031 2.335937 8.945312c2.707032 10.355469 8.746094 19.617188 17.003907 26.070313-.902344-12.371094 1.949219-25.085938 8.082031-35.828125.992188-1.742188 1.941406-3.03125 3.359375-3.652344l.113281-.046875c.503906-.207031 1.046875-.308594 1.613282-.308594 2.578124 0 4.980468 1.976563 8.296874 6.828125.417969.617188.878907 1.238281 1.378907 1.867188l.871093 1.09375v1.957031l-.070312.253906c-6.832031 59.867188-9.636719 120.808594-8.339844 181.144532l.085938 4.09375zm0 0" fill="#d34242"/><path d="m37.015625 439.527344c-.335937 0-.667969-.015625-1.003906-.046875-7.425781-.699219-14.886719-7.171875-14.140625-15.6875-.84375.566406-1.773438 1.394531-2.90625 2.417969l-.082032.074218c-4.046874 3.625-6.683593 5.644532-9.019531 5.941406l-2.246093.285157-1.402344-1.777344c-1.519532-1.925781-1.910156-5.011719-1.449219-11.386719l.066406-.761718c.601563-8.898438 3.183594-17.730469 5.679688-26.273438 4.492187-15.386719 11.570312-29.527344 21.035156-42.039062 5.023437-6.617188 10.777344-12.816407 17.109375-18.421876l3.789062-3.355468 2.390626 4.464844c15.53125 29.046874 21.558593 64.335937 16.535156 96.816406l-.382813 2.488281-2.410156.730469c-1.160156.351562-2.367187.53125-3.59375.53125-1.792969 0-3.566406-.390625-5.136719-1.132813-3.285156-1.550781-5.820312-4.726562-6.613281-8.285156-2.019531 4.628906-7.507813 15.417969-16.21875 15.417969zm0 0" fill="#d34242"/><path d="m153.082031 342.027344c-5.40625-18.179688-17.703125-33.761719-33.742187-42.75l-.578125 4.097656-1.453125 10.941406-5.894532-9.332031c-5.035156-7.96875-7.914062-17.058594-8.324218-26.289063-4.300782 2.144532-7.96875 5.746094-10.371094 10.109376l-4.839844 8.800781-2.535156-9.71875c-2.535156-9.726563-1.828125-20.039063 1.988281-29.03125 1.523438-3.570313 3.457031-6.875 5.332031-10.070313l.054688-.089844c1.46875-2.527343 2.988281-5.144531 4.285156-7.820312 1.59375-3.300781 2.667969-6.480469 3.191406-9.433594l1.628907-9.175781 5.527343 7.496094c10.960938 14.855469 25.167969 26.027343 41.089844 32.304687 9.34375 3.683594 19.605469 5.632813 29.671875 5.632813 11.914063 0 23.464844-2.675781 33.40625-7.738281 16.257813-8.285157 28.78125-23.519532 33.507813-40.75l1.789062-6.527344 4.855469 4.714844c11.398437 11.070312 17.839844 27.402343 17.230469 43.6875l-7.570313 1.652343c-2.820312-5.59375-6.382812-10.757812-10.589843-15.347656 2.4375 10.234375-3.710938 20.320313-9.675782 28.976563-6.277344 9.125-12.238281 18.875-10.183594 28.886718.292969 1.433594.734376 2.78125 1.203126 4.207032l.046874.136718c.5 1.515625 1 3.023438 1.296876 4.546875.679687 3.582031-.0625 6.808594-1.980469 8.644531-1.234375 1.179688-2.988281 1.828126-4.941407 1.828126-1.289062 0-2.601562-.285157-3.792968-.824219-2.40625-1.085938-4.554688-3.085938-6.746094-6.300781-1.304688-1.90625-4.742188-6.917969-8.273438-6.917969-.59375 0-1.195312.136719-1.832031.417969-1.730469.753906-2.804687 2.644531-3.378906 3.660156-4.59375 8.046875-7.378906 17.257812-8.0625 26.644531l-.714844 9.847656-6.339843-7.566406c-6.78125-8.097656-10.808594-18.265625-11.335938-28.636719-6.449219 8.285156-11.605469 17.5-15.378906 27.375l-4.210938 11.011719zm0 0" fill="#644c4c"/><g fill="#5b5d6d"><path d="m209.910156 507.917969-.082031-3.914063c-1.277344-58.800781 1.355469-118.257812 7.820313-176.714844l.578124-5.21875 4.878907 1.941407c1.101562.441406 2.246093.660156 3.398437.660156 1.976563 0 3.75-.65625 4.996094-1.84375 1.960938-1.878906 2.683594-5.046875 1.988281-8.683594-.292969-1.558593-.777343-3.015625-1.285156-4.558593-.507813-1.519532-.953125-2.894532-1.253906-4.328126-.4375-2.117187-.523438-4.289062-.257813-6.652343l.558594-5.039063 4.769531 1.71875c22.097657 7.957032 42.894531 21.796875 60.140625 40.023438l1.917969 2.023437-1.234375 2.5c-.042969.085938-.089844.167969-.136719.253907-11.011719 25.117187-17.523437 51.746093-19.347656 79.148437l-.042969.632813-.238281.589843c-.011719.03125-.023437.0625-.03125.09375l-6.992187 67.074219c-.59375 5.660156-1.34375 10.644531-4.554688 14.316406-4.554688 5.234375-12.421875 5.746094-19.433594 5.816406-9.617187.109376-20.164062.160157-32.238281.160157zm0 0"/><path d="m257.476562 136.878906c-.863281 0-1.714843-.011718-2.550781-.019531l-157.960937-1.628906s-.710938-.273438-.726563-.28125l-.683593.265625-1.777344-.015625c-8.324219-.085938-18.679688-.191407-26.558594-5.4375l-.035156-.015625c-10.199219-5.109375-15.824219-23.855469-15.066406-34.015625.726562-9.820313 15.765624-13.421875 26.75-16.050781 2.9375-.699219 5.703124-1.359376 7.78125-2.046876 2.484374-.824218 5.054687-1.671874 7.160156-3.335937 3.566406-2.800781 5.078125-7.292969 6.535156-11.632813l.453125-1.304687c7.375-21.449219 22.632813-39.332031 41.867187-49.058594 10.539063-5.332031 22.472657-8.152343 34.511719-8.152343 10.367188 0 20.535157 2.136718 29.402344 6.183593 20.425781 9.304688 35.332031 29.175781 37.976563 50.617188.074218.578125.148437 1.175781.210937 1.769531.515625 4.558594 1.105469 9.757812 4.585937 12.917969 2.964844 2.6875 7.378907 3.214843 10.894532 3.375 1.5625.078125 3.128906.109375 4.644531.136719l.15625.003906c4.015625.070312 7.808594.140625 11.628906.929687 6.175781 1.269531 11.023438 4.460938 13.296875 8.753907 3.375 6.351562 1.171875 13.953124-1.375 21.191406-3.523437 10.0625-7.730468 20.242187-16.808594 24.484375-4.457031 2.082031-9.511718 2.367187-14.3125 2.367187zm-80.59375-27.527344c.519532.527344 1.125 1.015626 1.800782 1.453126 1.632812 1.046874 3.484375 1.605468 5.339844 1.605468.714843 0 1.421874-.089844 2.105468-.265625 2.425782-.621093 4.574219-2.371093 5.894532-4.796875.816406-1.515625 1.25-3.191406 1.242187-4.832031l-.011719-2.667969 2.457032-1.035156c12.390624-5.222656 20.148437-19.03125 18.046874-32.121094-1.792968-11.140625-8.523437-19.617187-18.960937-23.867187-5.042969-2.058594-11-3.144531-17.230469-3.144531-11.484375 0-22.839844 3.535156-31.160156 9.703124-10.171875 7.53125-15.582031 19.40625-13.785156 30.25 1.003906 6.039063 4.773437 11.828126 10.082031 15.480469 3.214844 2.214844 6.792969 3.507813 10.34375 3.730469l3.550781.226562.191406 3.550782c.058594 1.046875.292969 2.097656.707032 3.121094.992187 2.445312 2.851562 4.320312 5.101562 5.132812.867188.3125 1.792969.472656 2.753906.472656 1.511719 0 3.054688-.398437 4.460938-1.148437.613281-.339844 1.1875-.722657 1.667969-1.121094l2.824219-2.34375zm0 0"/><path d="m138.871094 209.382812c-4.570313 0-8.714844-1.121093-11.992188-3.246093-5.984375-3.867188-9.449218-11.605469-8.621094-19.25.761719-6.972657 4.972657-13.855469 11.265626-18.40625 4.972656-3.613281 11.199218-5.691407 17.074218-5.691407 2.527344 0 4.941406.375 7.167969 1.113282 6.117187 2.039062 10.625 6.832031 12.691406 13.492187 2.15625 6.929688.515625 15.011719-4.28125 21.089844-4.410156 5.625-11.378906 9.488281-19.101562 10.59375-1.417969.203125-2.832031.304687-4.203125.304687zm0 0"/><path d="m135.386719 506.96875c-15.722657-.382812-30.238281-.835938-44.367188-1.382812-6.476562-.25-12.921875-1.125-16.210937-5.808594-2.105469-2.984375-2.359375-6.78125-2.453125-11.070313-.359375-16.164062-.929688-33.507812-1.789063-54.585937l-.042968-1.136719.558593-.992187c5.753907-33.722657-.425781-70.347657-16.957031-100.480469l-1.636719-2.992188 2.691407-2.089843c15.199218-11.808594 32.902343-20.238282 51.191406-24.382813l2.832031-.640625 1.488281 2.496094c1.957032 3.285156 4.25 6.332031 6.8125 9.050781l1.035156-7.4375.855469-6.5 5.386719 3.734375c6.234375 4.324219 11.769531 9.675781 16.449219 15.90625l.929687 1.234375-.144531 1.539063c-.007813.082031-.019531.164062-.027344.246093-1.664062 59.960938-2.503906 120.957031-2.503906 181.292969v4.097656zm0 0"/></g><path d="m304.476562 507.460938c-7.179687 0-14.015624-.105469-20.398437-.210938l-2.347656-.035156c-3.898438-.0625-7.882813-.121094-12.007813-.15625l-7.527344-.058594 4.261719-6.207031c2.695313-3.921875 3.230469-9.046875 3.660157-13.167969l6.285156-60.339844 6.167968 10.554688c.375.648437.792969 1.289062 1.265626 1.949218 5.015624 6.96875 11.382812 7.71875 13.886718 7.71875 1.414063 0 2.792969-.21875 3.976563-.632812 3.546875-1.246094 6.390625-4.011719 8.691406-8.464844l2.476563-4.789062 3.867187 3.757812c.761719.742188 1.664063 1.394532 2.6875 1.941406l2.78125 1.488282-.796875 3.050781c1.816406 16.265625 2.6875 32.761719 2.589844 49.03125-.027344 3.953125-.261719 8.046875-2.769532 10.871094-2.96875 3.332031-8.074218 3.648437-12.628906 3.6875-1.398437.007812-2.769531.011719-4.121094.011719zm0 0" fill="#ffdac4"/><path d="m178.125 267.644531c-10.042969 0-20.300781-1.945312-29.65625-5.632812-19.425781-7.660157-36.351562-22.707031-47.660156-42.367188-2.617188 1.214844-5.585938 1.867188-8.617188 1.867188-6.214844 0-12.191406-2.636719-15.980468-7.058594-5.863282-6.847656-6.464844-17.621094-1.402344-25.0625 3.703125-5.421875 10.554687-8.921875 17.460937-8.921875 2.222657 0 4.371094.351562 6.378907 1.050781-.570313-3.242187-1.09375-6.539062-1.558594-10.132812l-.894532-6.84375 6.382813 2.628906c5.109375 2.101563 10.421875 4.007813 15.796875 5.652344l4.558594 1.394531-2.164063 4.246094c-1.394531 2.734375-2.257812 5.566406-2.566406 8.417968-.839844 7.660157 2.632813 15.417969 8.644531 19.308594 3.273438 2.125 7.429688 3.25 12.027344 3.25 1.398438 0 2.8125-.101562 4.203125-.300781 7.742187-1.105469 14.722656-4.972656 19.152344-10.613281 4.800781-6.101563 6.441406-14.207032 4.285156-21.152344-.292969-.941406-.648437-1.875-1.09375-2.855469l-1.371094-3.023437 50.023438-34.988282 36.199219.375-.578126 33.554688c2.210938-1.179688 4.773438-1.816406 7.449219-1.816406 6.046875 0 11.957031 3.15625 15.066407 8.042968 4.496093 7.089844 3.597656 17.148438-2.132813 23.921876-4.464844 5.277343-11.617187 8.429687-19.128906 8.429687-1.367188 0-2.734375-.105469-4.074219-.3125-1.722656 21.039063-15.59375 41.125-35.382812 51.203125-9.941407 5.0625-21.476563 7.738281-33.367188 7.738281zm0 0" fill="#ffdac4"/><path d="m119.507812 173.148438c-.0625-.046876-.09375-.0625-.097656-.0625-7.054687-2.117188-14.105468-4.71875-20.886718-7.707032l-2.199219-.96875-.175781-2.398437c-.566407-7.621094-.613282-15.339844-.144532-22.9375l.234375-3.792969 117.730469 1.21875-49.894531 34.898438-2.371094-2.515626c-2.191406-2.324218-4.851563-4.019531-7.910156-5.039062-2.253907-.75-4.691407-1.128906-7.238281-1.128906-5.921876 0-11.984376 2.027344-17.070313 5.714844-1.667969 1.203124-3.234375 2.609374-4.65625 4.175781l-2.414063 2.664062zm0 0" fill="#ffdac4"/><path d="m20.683594 506.925781c-1.976563 0-3.542969-.222656-4.773438-1.304687-1.566406-1.324219-1.859375-3.496094-1.804687-6.558594l1.179687-65.65625-1.492187-3.042969 2.597656-1.828125 4.066406-4.066406 2.296875 5.507812c2.128906 5.097657 7.582032 9.03125 13.257813 9.570313.328125.03125.65625.042969.988281.042969 5.925781 0 10.316406-4.964844 12.957031-9.132813l2.753907-4.347656 3.53125 3.742187c1.019531 1.082032 2.222656 1.953126 3.570312 2.589844 1.597656.757813 3.386719 1.160156 5.1875 1.160156.414062 0 .832031-.023437 1.246094-.0625l4.226562-.421874.167969 4.242187c.789063 19.8125 1.3125 36.128906 1.652344 51.347656.074219 3.296875.164062 7.394531 2.128906 10.597657l3.613281 5.878906-56.351562 1.722656c-.21875.007812-.585938.019531-1 .019531zm0 0" fill="#ffdac4"/><path d="m140.433594 98.414062c3.859375 2.652344 8.109375 4.160157 12.363281 4.425782.078125 1.476562.410156 2.964844.988281 4.398437 1.417969 3.503907 4.132813 6.199219 7.453125 7.402344 3.316407 1.199219 7.128907.867187 10.460938-.917969.839843-.449218 1.621093-.976562 2.335937-1.566406.734375.742188 1.566406 1.417969 2.476563 2 2.308593 1.480469 4.933593 2.253906 7.511719 2.253906 1.050781 0 2.09375-.128906 3.109374-.390625 3.496094-.898437 6.558594-3.363281 8.398438-6.757812 1.15625-2.136719 1.742188-4.472657 1.730469-6.761719 13.855469-5.84375 22.855469-21.449219 20.449219-36.4375-2.023438-12.578125-9.625-22.148438-21.410157-26.945312-15.984375-6.515626-37.972656-3.546876-52.277343 7.054687-11.363282 8.421875-17.390626 21.816406-15.347657 34.117187 1.175781 7.085938 5.570313 13.859376 11.757813 18.125zm8.390625-45.765624c11.996093-8.890626 31.097656-11.5 44.4375-6.066407 6.417969 2.613281 14.492187 8.339844 16.488281 20.757813 1.941406 12.082031-6.34375 25.179687-18.085938 28.609375-1.054687.304687-1.9375 1.03125-2.445312 2.003906s-.597656 2.109375-.246094 3.152344c.4375 1.304687.246094 2.875-.53125 4.308593-.777344 1.433594-1.988281 2.453126-3.324218 2.796876-1.332032.34375-2.886719.035156-4.257813-.84375-1.371094-.878907-2.300781-2.160157-2.546875-3.515626-.339844-1.875-1.941406-3.253906-3.84375-3.3125-.039062-.003906-.082031-.003906-.125-.003906-1.847656 0-3.46875 1.265625-3.914062 3.070313-.289063 1.191406-1.238282 2.316406-2.539063 3.011719-1.296875.695312-2.757813.863281-3.910156.441406-1.152344-.414063-2.171875-1.480469-2.722657-2.84375-.550781-1.363282-.558593-2.835938-.023437-3.9375.675781-1.378906.507813-3.019532-.429687-4.234375-.941407-1.214844-2.488282-1.792969-3.992188-1.484375-3.867188.78125-8.058594-.207032-11.808594-2.785156-4.421875-3.046876-7.550781-7.832032-8.378906-12.804688-1.523438-9.207031 3.378906-19.78125 12.199219-26.320312zm0 0"/><path d="m157.578125 78.972656c.457031 1.828125 2.097656 3.050782 3.90625 3.050782.324219 0 .652344-.039063.980469-.121094 2.160156-.539063 3.472656-2.726563 2.933594-4.886719l-1.15625-4.625c-.539063-2.160156-2.726563-3.472656-4.886719-2.929687-2.160157.539062-3.472657 2.726562-2.933594 4.886718zm0 0"/><path d="m187.179688 80.859375c.152343.019531.308593.027344.460937.027344 2.023437 0 3.765625-1.519531 4-3.574219l.527344-4.628906c.253906-2.210938-1.335938-4.210938-3.546875-4.460938-2.214844-.257812-4.210938 1.335938-4.460938 3.546875l-.53125 4.628907c-.25 2.210937 1.335938 4.207031 3.550782 4.460937zm0 0"/><path d="m340.75 407.097656c-6.902344-26.484375-20.433594-51.390625-39.132812-72.03125-18.226563-20.113281-40.539063-35.179687-64.714844-43.773437 1.851562-4.167969 4.59375-8.367188 7.515625-12.617188 4.128906-5.992187 8.332031-12.644531 10.078125-19.75 3.542968 5.558594 6.230468 11.664063 7.914062 18.050781.453125 1.730469 1.992188 2.953126 3.78125 3.003907 1.777344.042969 3.394532-1.078125 3.949219-2.777344 7.285156-22.316406.191406-48.527344-17.242187-64.210937 7.890624-.523438 15.425781-4.039063 20.289062-9.792969 6.847656-8.101563 7.878906-20.179688 2.449219-28.714844-4.664063-7.332031-13.652344-11.03125-21.78125-9.683594l.410156-23.882812.625.007812c.804687.007813 1.636719.015625 2.492187.015625 5.0625 0 10.890626-.300781 16.125-2.746094 10.492188-4.902343 15.105469-15.941406 18.925782-26.824218 2.71875-7.730469 5.265625-16.628906 1.125-24.4375-2.839844-5.363282-8.699219-9.308594-16.066406-10.832032-4.222657-.871093-8.425782-.945312-12.488282-1.015624-1.574218-.03125-3.0625-.058594-4.558594-.125-3.023437-.140626-6.378906-.53125-8.363281-2.328126-2.347656-2.132812-2.800781-6.148437-3.285156-10.402343-.070313-.597657-.136719-1.191407-.210937-1.777344-2.820313-22.820313-18.652344-43.945313-40.332032-53.824219-20.878906-9.511718-46.085937-8.75-67.429687 2.042969-20.164063 10.199219-36.160157 28.925781-43.878907 51.375l-.445312 1.316406c-1.335938 3.957031-2.597656 7.691407-5.203125 9.742188-1.546875 1.21875-3.773437 1.957031-5.925781 2.671875-1.90625.628906-4.59375 1.273437-7.441406 1.957031-12.207032 2.917969-28.917969 6.921875-29.867188 19.695313-.851562 11.441406 5.378906 31.757812 17.074219 37.832031 8.257812 5.402343 18.316406 5.867187 26.769531 5.976562-.734375 12.433594-.140625 24.90625 1.78125 37.207031-8.566406-.492187-17.375 3.523438-22.234375 10.65625-6.070313 8.914063-5.355469 21.8125 1.671875 29.996094 5.621094 6.550782 14.835938 9.550782 23.28125 8.109375.5625 4.945313-1.253906 10.148438-3.066406 13.910157-1.238282 2.5625-2.671875 5.019531-4.191406 7.621093-1.953126 3.34375-3.96875 6.796875-5.554688 10.53125-5.875 13.832031-4.855469 30.511719 2.660156 43.523438.695313 1.203125 1.941406 1.929687 3.28125 2-14.320312 5.242187-27.800781 12.976562-39.625 22.664062-.074218.058594-.148437.117188-.214844.179688-7.976562 6.5625-15.191406 14.007812-21.386718 22.191406-9.773438 12.90625-17.074219 27.484375-21.707032 43.359375-2.550781 8.742188-5.191406 17.78125-5.835937 27.175781l-.050781.691407c-.308594 4.25-.777344 10.671874 2.59375 14.546874 1.433594 1.652344 3.296875 2.589844 5.386718 2.71875.835938.050782 1.660157-.039062 2.476563-.226562l-1.132813 62.90625c-.039062 2.203125-.121093 6.792969 3.210938 9.699219 2.308594 2.015625 5.160156 2.296875 7.296875 2.296875.457031 0 .882813-.011719 1.261719-.023438l60.882812-1.859375c.308594-.011719.609375-.0625.898438-.136719 2.730468.488282 5.320312.59375 7.269531.667969 40.507813 1.566407 81.476563 2.355469 122.203125 2.355469 11.035156 0 22.058594-.058594 33.046875-.175781 3.828125-.039063 7.890625-.214844 11.707031-1.121094.53125.257813 1.117188.414063 1.746094.414063h.027344c8.726562-.058594 16.707031.070312 24.425781.195312 6.449219.105469 13.078125.210938 20.199219.210938 1.445312 0 2.914062-.003907 4.40625-.015626 5.425781-.035156 11.554687-.457031 15.636718-5.035156 3.457032-3.882812 3.777344-9.03125 3.804688-13.550781.097656-16.097656-.75-32.367187-2.507812-48.382813h.027343c7.710938-.75 14.546875-7.355468 16.621094-16.066406 1.726563-7.257812.320313-14.5625-1.453125-21.375zm-271.773438-280.933594c-8.3125-4.15625-13.539062-21.148437-12.871093-30.136718.511719-6.902344 14.46875-10.242188 23.703125-12.453125 3.019531-.722657 5.871094-1.40625 8.101562-2.144531 2.679688-.890626 5.722656-1.898438 8.378906-3.992188 4.484376-3.53125 6.273438-8.824219 7.851563-13.492188l.433594-1.277343c7.042969-20.480469 21.582031-37.539063 39.890625-46.800781 10.140625-5.128907 21.507812-7.714844 32.710937-7.714844 9.667969 0 19.214844 1.929687 27.738281 5.8125 19.183594 8.742187 33.1875 27.378906 35.675782 47.480468.070312.558594.132812 1.125.199218 1.695313.570313 5.03125 1.28125 11.289063 5.878907 15.460937 3.894531 3.539063 9.207031 4.214844 13.402343 4.414063 1.613282.074219 3.226563.101563 4.789063.128906 3.867187.070313 7.519531.136719 11.007813.855469 5.003906 1.03125 8.855468 3.476562 10.570312 6.710938 2.613281 4.929687.640625 11.589843-1.609375 17.988281-3.253906 9.269531-7.074219 18.613281-14.730469 22.191406-4.460937 2.082031-10.128906 2.027344-15.125 1.972656l-157.242187-1.625c-.355469-.144531-.730469-.253906-1.136719-.285156-.621094-.054687-1.214844.046875-1.761719.253906l-1.019531-.007812c-7.796875-.082031-17.503906-.183594-24.402344-4.78125-.136718-.09375-.28125-.175781-.433594-.253907zm53.261719 61.152344c.640625-5.863281 4.238281-11.695312 9.628907-15.601562v.003906c6.257812-4.535156 14.359374-6.113281 20.636718-4.023438 4.925782 1.640626 8.429688 5.40625 10.132813 10.886719 1.765625 5.683594.386719 12.363281-3.597657 17.433594-3.796874 4.824219-9.820312 8.140625-16.535156 9.101563-5.203125.742187-9.980468-.085938-13.449218-2.332032-4.75-3.078125-7.488282-9.292968-6.816407-15.46875zm32.8125-27.269531c-8.796875-2.929687-19.492187-.960937-27.914062 5.140625-1.953125 1.414062-3.710938 3.007812-5.269531 4.734375-.367188-.277344-.78125-.503906-1.246094-.644531-6.949219-2.085938-13.839844-4.632813-20.488282-7.554688-.550781-7.449218-.597656-14.929687-.140624-22.398437l101.460937 1.046875-36.84375 25.769531c-2.601563-2.773437-5.828125-4.851563-9.558594-6.09375zm-75.804687 51.796875c-4.65625-5.421875-5.148438-14.296875-1.125-20.203125 4.023437-5.90625 12.460937-8.695313 19.214844-6.347656 1.359374.472656 2.867187.183593 3.957031-.753907 1.089843-.941406 1.59375-2.394531 1.324219-3.808593-.625-3.269531-1.132813-6.558594-1.558594-9.855469 5.289062 2.171875 10.695312 4.105469 16.148437 5.777344-1.585937 3.09375-2.613281 6.402344-2.984375 9.792968-.992187 9.128907 3.203125 18.414063 10.449219 23.105469 3.949219 2.558594 8.875 3.890625 14.207031 3.890625 1.558594 0 3.152344-.113281 4.765625-.34375 8.746094-1.25 16.667969-5.660156 21.730469-12.101562 5.601562-7.121094 7.5-16.625 4.960938-24.804688-.359376-1.160156-.789063-2.265625-1.269532-3.324218l46.25-32.351563 30.886719.320313-.507813 29.527343c-.023437 1.441407.722657 2.785157 1.957032 3.527344 1.238281.742187 2.773437.765625 4.035156.066406 5.433594-3.027343 13.605469-.714843 17.144531 4.851563 3.527344 5.546875 2.753907 13.792968-1.804687 19.183594-4.441406 5.257812-12.113282 7.90625-19.542969 6.753906-1.105469-.171875-2.238281.121094-3.117187.816406-.882813.695312-1.433594 1.726562-1.523438 2.84375-1.570312 19.652344-14.59375 38.46875-33.171875 47.933594-17.660156 9-39.992187 9.726562-59.742187 1.945312-18.582032-7.320312-34.796876-21.753906-45.652344-40.636718-1.050782-1.828126-3.332032-2.539063-5.234375-1.628907-6.445313 3.082031-15.144531 1.25-19.796875-4.175781zm11.769531 48.574219c1.386719-3.261719 3.1875-6.347657 5.097656-9.613281 1.53125-2.625 3.113281-5.335938 4.492188-8.1875 1.757812-3.648438 2.9375-7.144532 3.535156-10.476563 11.304687 15.328125 26.175781 27.082031 42.835937 33.648437 10.019532 3.949219 20.660157 5.910157 31.140626 5.910157 12.386718 0 24.550781-2.738281 35.214843-8.171875 17.464844-8.902344 30.589844-25.171875 35.554688-43.261719 10.769531 10.464844 16.578125 25.703125 16.015625 40.671875-2.972656-5.890625-6.746094-11.375-11.210938-16.246094-1.246094-1.355468-3.25-1.695312-4.875-.828125-1.621094.867188-2.449218 2.726563-2.011718 4.511719 2.101562 8.59375-3.558594 17.789062-9.027344 25.730469-6.773438 9.832031-13.183594 20.402343-10.808594 31.960937.347656 1.703125.867188 3.269532 1.367188 4.785156.46875 1.421876.914062 2.765626 1.164062 4.0625.414062 2.160157.09375 4.113282-.816406 4.980469-.890625.855469-2.75.964844-4.324219.253907-1.710937-.769532-3.328125-2.332032-5.089844-4.914063-2.082031-3.050781-7.617187-11.152344-15.015625-7.90625-2.933594 1.285156-4.5 4.035156-5.253906 5.355469-4.914062 8.613281-7.851562 18.410156-8.570312 28.332031-6.152344-7.347656-9.921876-16.683594-10.410157-26.273437-.085937-1.683594-1.214843-3.140626-2.824219-3.640626-1.613281-.503906-3.367187.050782-4.398437 1.386719-6.628906 8.609375-11.996094 18.230469-15.886719 28.402344-5.589844-18.796875-18.492187-35.503906-35.617187-45.097656-1.167969-.652344-2.582031-.683594-3.777344-.085938-1.191406.597657-2.015625 1.75-2.1875 3.078125l-.539063 4.0625c-4.59375-7.273437-7.332031-15.773437-7.710937-24.332031-.0625-1.371094-.816406-2.613281-2-3.304687-1.1875-.691407-2.640625-.730469-3.863281-.105469-5.078125 2.59375-9.261719 6.789062-12.007813 11.777343-2.261719-8.710937-1.703125-18.195312 1.808594-26.464843zm114.742187 243.507812c-20.722656-.050781-41.492187-.308593-62.226562-.765625.003906-.058594.015625-.109375.015625-.167968 0-56.082032.742187-112.871094 2.183594-169.015626 3.59375 7.816407 5.738281 16.28125 6.113281 24.867188.085938 2.03125 1.671875 3.679688 3.699219 3.84375.109375.011719.21875.015625.328125.015625 1.890625 0 3.550781-1.328125 3.945312-3.207031 2.515625-12.011719 7.21875-23.613282 13.757813-34.027344 2.886719 11.054688 9.390625 21.160156 18.414062 28.210938 1.257813.984374 2.976563 1.128906 4.386719.375 1.40625-.753907 2.238281-2.269532 2.113281-3.863282-.894531-11.550781 1.777344-23.449218 7.515625-33.511718.664063-1.164063 1.167969-1.828126 1.496094-1.972657.050781-.023437 1.308594-.496093 5.113281 5.074219.441407.644531.960938 1.359375 1.550781 2.097656-.003906.019532-.007812.035156-.011718.050782-6.878906 60.195312-9.699219 121.414062-8.394532 181.996093zm-111.988281-204.863281c.351563-4.894531 2.589844-9.585938 6.042969-13.058594.75 4.292969 2.003906 8.507813 3.695312 12.539063-3.730468.90625-7.421874 1.984375-11.066406 3.226562.753906-.683593 1.25-1.640625 1.328125-2.707031zm-84.417969 129.199219c-1.117187-1.425781-.722656-6.832031-.59375-8.621094l.050782-.722656c.589844-8.53125 3.105468-17.144531 5.542968-25.5 4.351563-14.902344 11.207032-28.605469 20.386719-40.726563 4.894531-6.464844 10.464844-12.4375 16.566407-17.84375 15.21875 28.464844 21.046874 62.445313 16.113281 94.320313-1.914063.585937-4.058594.464843-5.863281-.390625-2.199219-1.042969-3.894532-3.164063-4.421876-5.542969-.378906-1.710937-1.824218-2.980469-3.574218-3.140625-1.742188-.152344-3.394532.835938-4.074219 2.453125-1.351563 3.203125-6.277344 13.613281-13.085937 12.957031-5.414063-.511718-11.078126-5.304687-10.539063-11.363281.140625-1.585937-.667969-3.105469-2.058594-3.878906-1.390625-.777344-3.109375-.65625-4.382812.300781-.960938.726562-2.015625 1.671875-3.128907 2.675781-1.628906 1.460938-5.363281 4.820313-6.9375 5.023438zm12.214844 74.648437c-.640625.019532-2.59375.078125-3.015625-.289062-.1875-.164063-.496093-.835938-.445312-3.484375l1.179687-65.65625c.011719-.648438-.144531-1.253907-.40625-1.800781.0625-.050782.128906-.101563.191406-.15625 2.804688 6.726562 9.691407 11.355468 16.566407 12.007812 6.632812.621094 12.855469-3.289062 17.699219-10.929688 1.351562 1.425782 2.964843 2.609376 4.765624 3.460938 2.671876 1.265625 5.636719 1.75 8.539063 1.460938.789063 19.617187 1.316406 36.023437 1.652344 51.273437.078125 3.609375.1875 8.484375 2.722656 12.601563zm56.515625-5.429687c-1.464843-2.082031-1.648437-5.246094-1.730469-8.859375-.351562-16.128906-.921874-33.550782-1.785156-54.660156.214844-.390626.378906-.820313.457032-1.289063 5.929687-34.769531-.40625-72.128906-17.386719-103.078125 14.605469-11.347656 31.695312-19.585938 49.613281-23.644531 2.097656 3.507812 4.558594 6.789062 7.34375 9.75 1.070312 1.132812 2.691406 1.550781 4.171875 1.070312 1.484375-.476562 2.558594-1.765625 2.761719-3.304687l.980468-7.421875c5.9375 4.117187 11.175782 9.230469 15.527344 15.019531-.011718.109375-.039062.214844-.042968.328125-1.664063 60.222656-2.507813 121.316406-2.503907 181.582031-14.8125-.363281-29.59375-.820312-44.316406-1.386718-5.449219-.210938-10.804687-.855469-13.089844-4.105469zm167.941407 6.28125c-10.707032.113281-21.449219.160156-32.203126.164062-1.269531-58.636719 1.359376-117.878906 7.804688-176.191406 4.472656 1.777344 9.484375 1 12.636719-2.011719 2.964843-2.839844 4.117187-7.332031 3.15625-12.328125-.347657-1.8125-.894531-3.46875-1.425781-5.074219-.449219-1.355468-.871094-2.636718-1.125-3.878906-.367188-1.792968-.40625-3.589844-.207032-5.390625 21.976563 7.910157 42.078125 21.546875 58.59375 39.007813-.042968.078125-.09375.148437-.128906.230468-11.253906 25.625-17.894531 52.761719-19.757812 80.679688-.144532.347656-.253907.71875-.292969 1.109375l-7 67.128906c-.519531 4.96875-1.148438 9.308594-3.585938 12.105469-3.46875 3.984375-10.316406 4.386719-16.464843 4.449219zm72.214843-2.65625c-1.882812 2.113281-5.980469 2.316406-9.667969 2.339843-8.726562.058594-16.710937-.070312-24.425781-.195312-4.660156-.074219-9.425781-.148438-14.390625-.1875 3.253906-4.738281 3.878906-10.609375 4.335938-15.019531l5.027344-48.179688c.449218.765625.9375 1.515625 1.464843 2.25 6.480469 9.003907 16.171875 10.734375 22.445313 8.535157 5.246094-1.839844 8.648437-6.007813 10.921875-10.394532 1.078125 1.046875 2.296875 1.910156 3.585937 2.59375-.117187.464844-.167968.953125-.113281 1.460938 1.808594 16.0625 2.675781 32.402344 2.578125 48.5625-.019531 3.1875-.171875 6.449218-1.761719 8.234375zm16.121094-74.5c-1.085937 4.570312-4.722656 9.4375-9.558594 9.90625-2.042969.207031-4.425781-.917969-5.910156-2.789063-.582031-.734375-1.457031-2.136718-1.167969-3.695312.066406-.242188.128906-.472656.191406-.695313.574219-2.105469-.628906-4.285156-2.714843-4.917969-2.085938-.636718-4.300781.503907-4.996094 2.570313-.121094.363281-.226563.730469-.3125 1.097656-1.914063 6.804688-4.445313 13.175781-9.535156 14.960938-4.757813 1.664062-10.363281-1.660157-13.226563-5.636719-3.335937-4.636719-4.722656-10.84375-5.855468-16.511719.023437-.136719.058593-.273437.066406-.417969 1.636718-26.1875 7.644531-51.675781 17.832031-75.820312 15.707031 18.496094 27.5625 40.625 33.777344 64.472656 1.511719 5.804688 2.726562 11.9375 1.410156 17.476563zm0 0"/></svg>