<svg height="511pt" viewBox="-90 0 511 511.99875" width="511pt" xmlns="http://www.w3.org/2000/svg"><path d="m206.457031 507.53125-.011719-3.972656c-.179687-68.953125 2.011719-138.867188 6.507813-207.800782l.078125-1.183593.710938-.949219c2.144531-2.871094 4.226562-5.832031 6.1875-8.800781l2.167968-3.285157 3.320313 2.117188c.070312.046875.144531.097656.21875.148438 13.738281 7.335937 27.941406 14.929687 41.484375 24.171874l1.886718 1.289063-.148437 2.277344c-4.230469 63.683593-7.894531 128.410156-10.886719 192.382812l-.179687 3.832031zm0 0" fill="#935252"/><path d="m70.765625 506.933594.125-4.101563c2.035156-68.296875.214844-137.433593-5.410156-205.492187l-.195313-2.355469 1.96875-1.304687c11.058594-7.347657 23.042969-12.863282 35.625-16.390626l2.714844-.761718 1.628906 2.300781c4.855469 6.855469 10.367188 13.3125 16.382813 19.191406l1.429687 1.398438-.261718 1.984375c0-.011719-.003907-.078125-.007813-.136719 3.976563 66.898437 5.171875 131.050781 3.769531 201.980469l-.074218 3.941406zm0 0" fill="#935252"/><g fill="#af7979"><path d="m257.855469 507.761719.195312-4.167969c2.917969-62.226562 6.464844-125.152344 10.546875-187.035156l.484375-7.390625 5.910157 4.457031c13.4375 10.125 23.6875 20.675781 31.34375 32.25 11.976562 18.105469 18.957031 40.980469 20.730468 67.992188 1.582032 23.957031-1.03125 48.203124-3.558594 71.648437-.714843 6.722656-1.707031 13.054687-6.003906 17.261719-4.851562 4.765625-12.488281 5.164062-19.269531 5.164062zm0 0"/><path d="m242.648438 119.636719c-16.621094 0-32.792969-5.777344-45.535157-16.269531l-3.242187-2.667969 2.824218-3.109375c5.59375-6.15625 10.882813-12.945313 15.714844-20.171875l2.195313-3.28125 3.3125 2.148437c7.757812 5.039063 17.144531 7.816406 26.429687 7.816406 1.570313 0 3.222656-.085937 4.902344-.261718l3.734375-.378906.617187 3.703124c1.585938 9.488282 1.828126 19.074219.726563 28.484376l-.363281 3.132812-3.132813.371094c-2.691406.320312-5.445312.484375-8.183593.484375zm0 0"/><path d="m227.859375 145.195312c-19.882813 0-39.894531-7.417968-54.902344-20.355468l-3.855469-3.320313 4.140626-2.960937c6.285156-4.5 12.34375-9.640625 18.003906-15.28125l2.589844-2.582032 2.804687 2.347657c12.628906 10.59375 29.410156 16.667969 46.039063 16.667969 1.9375 0 3.902343-.089844 6-.265626l5.371093-.457031-1.117187 5.273438c-.632813 2.96875-1.386719 5.863281-2.25 8.605469-1.035156 3.304687-2.351563 6.660156-4.964844 8.789062-2.609375 2.148438-6.09375 2.757812-9.464844 3.101562-2.757812.289063-5.585937.4375-8.394531.4375zm0 0"/><path d="m244.304688 84.027344c-9.292969 0-18.675782-2.78125-26.421876-7.835938l-3.253906-2.125 2.023438-3.3125c3.996094-6.527344 7.695312-13.441406 10.996094-20.550781.753906-1.632813 1.292968-2.910156 1.75-4.128906l2.625-7.039063 4.375 6.105469c7.167968 10.003906 12.378906 21.359375 15.488281 33.757813l1.140625 4.554687-4.679688.402344c-1.332031.113281-2.695312.171875-4.042968.171875zm0 0"/><path d="m104.203125 141.445312c-1.242187 0-2.503906-.023437-3.738281-.070312l-2.132813-.058594c-9.824219-.273437-19.730469-.992187-23.886719-6.398437-2.691406-3.527344-3.851562-9.335938-3.757812-18.847657l.039062-4.15625 4.152344.199219c2.613282.125 4.722656.183594 6.644532.183594 26.210937 0 52.621093-7.953125 74.367187-22.398437 24.304687-16.148438 42.949219-40.242188 52.503906-67.847657l1.574219-4.550781 4.1875 2.382812c1.492188.851563 2.863281 1.660157 4.195312 2.476563 5.15625 3.191406 11.210938 7.6875 12.316407 14.242187.792969 4.667969-1.089844 9.265626-3.082031 13.574219-14.710938 31.746094-35.734376 56.867188-60.789063 72.65625-10.488281 6.617188-21.832031 11.574219-33.710937 14.742188-9.628907 2.570312-19.347657 3.871093-28.882813 3.871093zm0 0"/><path d="m81.589844 112.210938c-2.285156 0-4.597656-.058594-6.871094-.175782l-3.941406-.207031.152344-3.941406c.039062-1.003907.066406-1.945313.078124-2.808594.101563-8.414063.882813-16.585937 2.316407-24.300781l.597656-3.199219 3.25-.066406c20.964844-.445313 41.996094-7.199219 59.222656-19.019531 17.523438-12.019532 31.503907-29.507813 39.386719-49.253907.015625-.042969 1.242188-3.445312 1.242188-3.445312l3.445312.777343c8.785156 1.980469 17.640625 5.144532 26.320312 9.410157l3.527344 1.730469-1.761718 3.75c.003906-.011719.03125-.089844.058593-.171876-9.511719 27.949219-28.234375 52.265626-52.753906 68.554688-21.707031 14.425781-48.085937 22.367188-74.269531 22.367188zm0 0"/><path d="m165.324219 507.351562.113281-4.09375c1.589844-56.96875 3.96875-114.433593 7.074219-170.800781l.191406-3.460937 3.457031-.300782c.519532-.046874 1.027344-.128906 1.503906-.246093 2.679688-.640625 4.898438-2.355469 7.125-4.207031 7.179688-5.964844 14.035157-12.679688 20.371094-19.960938l7.734375-8.882812-.726562 11.757812c-4.007813 65.015625-5.953125 131.074219-5.78125 196.339844l.011719 4.027344zm0 0"/><path d="m75.179688 72.40625c.375-1.46875.726562-2.75 1.078124-3.917969 6.789063-22.777343 20.902344-42.023437 38.71875-52.800781 12.601563-7.609375 27.703126-11.628906 43.671876-11.628906 2.882812 0 5.820312.136718 8.730468.40625 1.375.132812 2.851563.308594 4.65625.5625l5.117188.722656-1.980469 4.773438c-7.960937 19.183593-21.746094 36.199218-38.8125 47.914062-16.613281 11.398438-36.90625 18.128906-57.140625 18.949219l-5.359375.21875zm0 0"/><path d="m128.519531 507.183594.078125-4.0625c1.351563-68.417969.289063-130.1875-3.34375-194.394532l-.519531-9.207031 7.078125 5.910157c10.703125 8.9375 22.46875 16.066406 34.972656 21.1875 1.070313.441406 2.039063.800781 2.957032 1.105468l2.90625.960938-.167969 3.054687c-3.132813 56.898438-5.523438 114.664063-7.105469 171.703125l-.105469 3.90625zm0 0"/><path d="m19.519531 506.699219c-5.273437-.027344-10.511719-.574219-13.152343-4.382813-1.644532-2.367187-1.789063-5.34375-1.800782-8.703125-.039062-20.453125.417969-41.0625 1.355469-61.269531 1.316406-28.546875 3.644531-58.699219 16.097656-85.929688 8.332031-18.207031 21.242188-34.46875 37.335938-47.03125l5.855469-4.566406.59375 7.402344c5.324218 66.628906 7.011718 134.191406 5.011718 200.808594l-.117187 3.898437zm0 0"/></g><path d="m175.167969 328.675781c-2.957031 0-5.867188-1.09375-8.359375-2.117187-34.765625-14.246094-63.191406-43.832032-76.039063-79.140625-9.175781-25.234375-10.363281-52.6875-10.371093-73.789063l7.59375-1.75c1.390624 2.855469 2.960937 5.519532 4.671874 7.917969 7.164063 10.046875 17.683594 17.582031 29.617188 21.214844l5.4375 1.65625-3.394531 4.558593c-3.304688 4.441407-5.839844 9.328126-7.535157 14.515626 5.082032 3.035156 11.046876 4.617187 17.257813 4.617187 6.574219 0 12.835937-1.753906 18.109375-5.074219 2.925781-1.839844 6.039062-4.710937 8.773438-8.082031l3.105468-3.839844 3.109375 3.839844c2.730469 3.371094 5.84375 6.242187 8.769531 8.078125 5.277344 3.320312 11.542969 5.074219 18.117188 5.074219 6.210938 0 12.171875-1.582031 17.238281-4.578125-1.8125-5.609375-4.601562-10.8125-8.265625-15.503906l-3.105468-3.96875 4.570312-2.125c18.070312-8.390626 31.640625-26.628907 34.566406-46.464844l1.78125-12.054688 5.710938 10.765625c2.839844 5.351563 3.628906 11.722657 4.023437 17.246094 3.132813 43.324219-10.371093 88.582031-37.046875 124.175781l-.222656.296875-.273438.25-.167968.335938-.265625.355469c-8.269531 10.839843-17.632813 20.636718-27.824219 29.109374-2.128906 1.769532-4.429688 3.550782-7.101562 4.191407-.769532.191406-1.609376.289062-2.480469.289062zm0 0" fill="#644c4c"/><path d="m194.015625 226.324219c-6.523437 0-12.773437-1.761719-18.066406-5.085938-4.273438-2.703125-8.824219-7.484375-11.886719-12.492187-3.113281 5.007812-7.664062 9.789062-11.929688 12.484375-5.300781 3.332031-11.546874 5.09375-18.074218 5.09375-4.789063 0-9.574219-.992188-13.832032-2.863281l-3.570312-1.570313 1.480469-3.609375c3.703125-9.019531 9.871093-16.734375 17.835937-22.308594 9.851563-6.898437 19.546875-10.460937 28.816406-10.589844.175782-.011718.3125-.011718.398438-.011718 10.253906 0 21.265625 6.644531 26.914062 10.605468 3.957032 2.761719 7.5 6.089844 10.523438 9.894532 3.019531 3.769531 5.480469 7.949218 7.3125 12.410156l1.480469 3.609375-3.570313 1.570313c-4.257812 1.871093-9.042968 2.863281-13.832031 2.863281zm0 0" fill="#644c4c"/><path d="m255.757812 185.207031c-.339843 0-.679687-.011719-1.019531-.039062l-3.664062-.292969-.015625-3.675781c-.023438-3.964844-.167969-7.839844-.441406-11.527344-.441407-6.25-1.382813-13.378906-5.023438-18.972656l-3.019531-4.640625 5.355469-1.40625c1.394531-.371094 2.863281-.554688 4.355468-.554688 4.109375 0 8.132813 1.382813 11.332032 3.894532 5.347656 4.183593 8.488281 11.417968 8.1875 18.878906-.207032 5.421875-2.214844 10.453125-5.507813 13.792968-2.777344 2.839844-6.722656 4.542969-10.539063 4.542969zm0 0" fill="#efb17c"/><path d="m125.753906 201.914062-.15625-.054687c-13.109375-3.113281-25.078125-11.15625-32.878906-22.097656-7.273438-10.199219-10.964844-22.773438-10.390625-35.402344l.203125-4.425781 4.382812.648437c3.921876.582031 8.058594.703125 11.382813.796875l2.144531.0625c1.183594.046875 2.398438.066406 3.746094.066406 9.515625 0 19.246094-1.300781 28.910156-3.875 11.765625-3.132812 23.019532-8.035156 33.457032-14.570312l2.566406-1.609375 2.242187 2.035156c15.242188 13.835938 35.855469 21.769531 56.554688 21.769531 2.347656 0 4.765625-.109374 7.183593-.332031l4.648438-.421875-.289062 4.65625c-1.390626 22.316406-16.828126 43.726563-37.550782 52.070313l-2.363281.953125-1.863281-1.742188c-1.773438-1.660156-3.636719-3.179687-5.542969-4.515625-5.660156-3.964843-16.695313-10.613281-26.964844-10.613281h-.257812c-9.292969.089844-19.058594 3.660156-28.988281 10.613281-2.121094 1.484375-4.1875 3.1875-6.132813 5.070313l-1.742187 1.6875zm38.382813-62.484374.1875 1.574218c-.007813.003906-.019531.007813-.039063.011719l.089844-.011719-.183594-1.539062-.039062-.035156zm0 0" fill="#efb17c"/><path d="m75.980469 185.1875c-5.773438-.589844-12.285157-1.605469-16.460938-6.167969-3.71875-4.058593-4.804687-10.632812-2.765625-16.746093 1.605469-4.824219 4.996094-9.484376 10.355469-14.246094 1.699219-1.503906 3.570313-3.011719 5.75-3.859375 1.09375-.417969 2.246094-.640625 3.347656-.640625.402344 0 .800781.027344 1.183594.085937l3.507813.527344-.101563 3.542969c-.324219 11.238281-.597656 22.253906-.410156 33.460937l.074219 4.503907zm0 0" fill="#efb17c"/><path d="m168.160156 138.9375c-.289062-2.207031-2.296875-3.761719-4.519531-3.476562-2.207031.289062-3.765625 2.3125-3.476563 4.519531l.195313 1.515625c.269531 2.03125 2 3.511718 3.996094 3.511718.171875 0 .347656-.011718.527343-.035156 2.207032-.289062 3.761719-2.3125 3.472657-4.519531zm0 0"/><path d="m331.125 413.597656c-1.820312-27.707031-9.023438-51.246094-21.40625-69.96875-19.945312-30.148437-52.980469-47.824218-82.160156-63.402344 16.484375-27.425781 26.121094-58.976562 27.359375-90.964843.277343.015625.554687.027343.828125.027343 4.851562 0 9.808594-2.0625 13.457031-5.777343 4.042969-4.117188 6.410156-9.972657 6.664063-16.484375.34375-8.734375-3.390626-17.253906-9.738282-22.234375-4.070312-3.191407-9.070312-4.804688-13.972656-4.773438 1.035156-1.886719 1.773438-3.921875 2.40625-5.933593 10.09375-32.183594 2.851562-69.875-18.449219-96.023438-.367187-.445312-.804687-.789062-1.289062-1.035156-.035157-.371094-.085938-.738282-.148438-1.109375-1.382812-8.152344-8.308593-13.371094-14.183593-17.007813-16.933594-10.464844-35.167969-16.859375-52.738282-18.488281-19.78125-1.835937-39.265625 2.351563-54.875 11.789063-18.679687 11.289062-33.449218 31.386718-40.519531 55.128906-3.425781 11.507812-5.246094 24.1875-5.414063 37.683594-.015624 1.304687-.074218 2.800781-.136718 4.410156-.351563 8.902344-.832032 21.09375 4.410156 27.941406.683594.894531 1.472656 1.675781 2.339844 2.375-.722656.15625-1.453125.355469-2.171875.632812-2.785157 1.082032-4.996094 2.851563-6.972657 4.605469-5.90625 5.246094-9.675781 10.476563-11.519531 15.996094-2.5 7.492187-1.078125 15.648437 3.621094 20.777344 5.136719 5.609375 12.703125 6.867187 20.101563 7.574219.785156 20.027343 3.386718 40.359374 10.335937 59.472656 3.210937 8.824218 7.371094 17.300781 12.339844 25.292968-35.484375 10.753907-65.511719 36.832032-80.96875 70.625-12.75 27.878907-15.183594 59.75-16.464844 87.429688-.941406 20.359375-1.398437 41.035156-1.355469 61.457031.003906 2.949219.015625 7.40625 2.527344 11.027344 4.214844 6.066406 12.492188 6.101563 16.46875 6.121094l278.128906 1.234375c.261719 0 .519532.003906.777344.003906 7.957031-.003906 16.121094-.609375 21.945312-6.320312 5.675782-5.5625 6.589844-14.046876 7.191407-19.664063 2.550781-23.640625 5.183593-48.085937 3.582031-72.417969zm-107.523438-126.347656c13.511719 7.21875 27.882813 14.894531 41.269532 24.035156-4.238282 63.835938-7.902344 128.566406-10.890625 192.453125l-43.53125-.191406c-.179688-68.9375 2.003906-138.738281 6.5-207.523437 2.191406-2.9375 4.296875-5.9375 6.316406-8.996094.113281.074218.214844.160156.335937.222656zm-47.097656 45.429688c.699219-.0625 1.398438-.167969 2.101563-.335938 3.511719-.847656 6.246093-2.945312 8.746093-5.023438 7.496094-6.234374 14.445313-13.078124 20.828126-20.414062-4.019532 65.246094-5.964844 131.308594-5.792969 196.605469l-32.949219-.148438c1.578125-56.667969 3.949219-114.0625 7.066406-170.683593zm-15.132812 170.648437-28.777344-.125c1.351562-68.371094.28125-130.535156-3.351562-194.699219 10.84375 9.042969 22.996093 16.480469 36.023437 21.816406 1.054687.429688 2.132813.839844 3.222656 1.199219-3.136719 56.988281-5.53125 114.769531-7.117187 171.808594zm-23.109375-304.074219c9.25-6.472656 18.242187-9.796875 26.730469-9.878906h.195312c9.140625 0 19.335938 6.175781 24.625 9.878906 7.300781 5.109375 13.042969 12.316406 16.425781 20.546875-8.9375 3.933594-19.871093 3.257813-28.15625-1.953125-3.726562-2.347656-7.890625-6.738281-10.601562-11.191406-.730469-1.199219-2.035157-1.933594-3.445313-1.933594-1.402344 0-2.710937.734375-3.441406 1.933594-2.714844 4.453125-6.875 8.847656-10.601562 11.191406-8.289063 5.214844-19.21875 5.886719-28.15625 1.953125 3.382812-8.230469 9.128906-15.4375 16.425781-20.546875zm62.15625-1.734375c-1.878907-1.757812-3.871094-3.394531-5.980469-4.871093-6.070312-4.25-17.902344-11.335938-29.261719-11.335938-.085937 0-.171875 0-.257812 0-10.148438.097656-20.671875 3.910156-31.277344 11.335938-2.355469 1.644531-4.566406 3.480468-6.621094 5.472656-.121093-.042969-.238281-.09375-.363281-.125-12.214844-2.851563-23.398438-10.347656-30.683594-20.558594-6.738281-9.453125-10.179687-21.296875-9.640625-32.898438 4.164063.621094 8.390625.742188 11.886719.839844.746094.019532 1.449219.039063 2.097656.0625 1.289063.046875 2.582032.066406 3.875.066406 9.886719 0 19.9375-1.34375 29.9375-4.007812 12.164063-3.246094 23.78125-8.3125 34.546875-15.054688 16.066407 14.589844 37.574219 22.8125 59.238281 22.8125 2.515626 0 5.035157-.117187 7.550782-.34375-1.296875 20.898438-15.625 40.789063-35.046875 48.605469zm15.320312-117.875c8.464844 5.492188 18.523438 8.460938 28.605469 8.460938 1.773438 0 3.550781-.105469 5.316406-.289063 1.503906 9.050782 1.757813 18.300782.699219 27.363282-18.007813 2.148437-36.710937-3.375-50.703125-14.898438 5.738281-6.316406 11.113281-13.210938 16.082031-20.636719zm-21.675781 26.46875c13.507812 11.316407 31.027344 17.601563 48.617188 17.601563 2.113281 0 4.230468-.101563 6.339843-.28125-.585937 2.777344-1.300781 5.53125-2.148437 8.238281-.851563 2.707031-1.886719 5.417969-3.679688 6.886719-1.796875 1.472656-4.589844 1.9375-7.339844 2.226562-21.609374 2.25-43.855468-4.8125-60.285156-18.980468 6.476563-4.625 12.652344-9.871094 18.496094-15.691407zm67.089844 45.023438c4.351562 3.410156 6.902344 9.378906 6.660156 15.578125-.175781 4.4375-1.765625 8.503906-4.363281 11.148437-2.28125 2.328125-5.488281 3.546875-8.386719 3.320313-.023438-3.933594-.167969-7.871094-.449219-11.800782-.5-6.917968-1.609375-14.617187-5.664062-20.859374 3.992187-1.054688 8.695312-.136719 12.203125 2.613281zm-29.878906-99.25c.648437-1.40625 1.304687-2.882813 1.875-4.417969 6.933593 9.671875 11.941406 20.765625 14.859374 32.40625-9.757812.835938-19.738281-1.6875-27.9375-7.035156 4.042969-6.625 7.796876-13.605469 11.203126-20.953125zm-4.546876-14.621094c.601563 3.546875-1.039062 7.492187-2.769531 11.230469-14.378906 31.039062-34.878906 55.574218-59.285156 70.953125-10.160156 6.398437-21.132813 11.195312-32.617187 14.257812-10.539063 2.808594-21.113282 4.046875-31.445313 3.675781-.675781-.023437-1.402344-.042968-2.171875-.0625-6.105469-.167968-17.46875-.472656-20.816406-4.84375-2.550782-3.335937-2.992188-10.125-2.9375-16.367187 2.28125.113281 4.5625.191406 6.84375.191406 27.089844 0 53.96875-8.046875 76.582031-23.074219 25.058594-16.648437 44.230469-41.441406 54.070313-69.863281 1.367187.777344 2.722656 1.574219 4.074218 2.40625 4.433594 2.742188 9.632813 6.527344 10.472656 11.496094zm-47.140624-26.796875c8.507812 1.925781 17.070312 4.992188 25.445312 9.101562-.085938.167969-.175781.335938-.238281.519532-9.199219 27.03125-27.363281 50.621094-51.144531 66.421875-23.132813 15.371093-50.992188 22.964843-78.71875 21.53125.039062-1.042969.066406-2.023438.078124-2.917969.101563-8.246094.863282-16.144531 2.25-23.617188 21.722657-.453124 43.488282-7.425781 61.402344-19.71875 18.210938-12.5 32.738282-30.6875 40.898438-51.21875.011718-.035156.015625-.070312.027344-.101562zm-62.535157 8.644531c11.953125-7.226562 26.476563-11.050781 41.597657-11.050781 2.769531 0 5.5625.128906 8.363281.386719 1.480469.136719 2.972656.328125 4.46875.539062-7.671875 18.480469-20.890625 34.832031-37.386719 46.15625-16.089844 11.042969-35.527344 17.460938-55.042969 18.246094.328125-1.265625.671875-2.515625 1.039063-3.746094 6.503906-21.851562 19.976562-40.265625 36.960937-50.53125zm-54.585937 157.203125c-2.710938-2.960937-3.480469-8.09375-1.917969-12.777344 1.382813-4.140624 4.402344-8.238281 9.222656-12.519531 1.410157-1.253906 2.9375-2.5 4.535157-3.117187.878906-.339844 1.757812-.441406 2.492187-.332032-.304687 10.847657-.601563 22.15625-.40625 33.644532-5.664063-.585938-10.867187-1.558594-13.925781-4.898438zm21.929687-2.6875c1.4375 2.964844 3.105469 5.8125 5.011719 8.488282 7.664062 10.746093 19.074219 18.871093 31.714844 22.71875-3.523438 4.738281-6.292969 10.035156-8.132813 15.664062-.585937 1.796875.15625 3.761719 1.78125 4.722656 5.800781 3.425782 12.535157 5.132813 19.277344 5.132813 7.109375 0 14.222656-1.898438 20.238281-5.683594 3.339844-2.101563 6.8125-5.320313 9.753906-8.953125 2.9375 3.632812 6.410157 6.851562 9.75 8.953125 11.71875 7.371094 27.597657 7.59375 39.515626.550781 1.628906-.960937 2.371093-2.925781 1.78125-4.722656-1.972657-6.042969-5.027344-11.699219-8.925782-16.691406 19.320313-8.96875 33.726563-28.4375 36.835938-49.515625 2.429687 4.582031 3.191406 10.371093 3.574218 15.667969 3.117188 43.167968-10.386718 86.964843-36.257812 121.488281-.375.339843-.6875.746093-.914062 1.207031-7.96875 10.449219-17.0625 20.039062-27.199219 28.464844-1.84375 1.53125-3.652344 2.941406-5.480469 3.382812-2.535156.613282-5.664062-.527344-8.394531-1.644531-33.742188-13.824219-61.328125-42.535156-73.792969-76.804687-8.351562-22.964844-10.128906-48.1875-10.136719-72.425782zm36.410157 127.25c-.027344.230469-.046876.46875-.03125.707032 3.964843 66.625 5.160156 130.753906 3.757812 201.578124l-49.648438-.21875c2.042969-68.429687.222657-137.699218-5.414062-205.929687 10.550781-7.019531 22.1875-12.425781 34.488281-15.878906 5 7.066406 10.652344 13.683593 16.847657 19.742187zm-111.148438 199.164063c-.996094-1.4375-1.082031-3.773438-1.089844-6.445313-.039062-20.289062.414063-40.835937 1.351563-61.066406 1.300781-28.160156 3.589843-57.878906 15.742187-84.453125 8.195313-17.921875 20.769532-33.53125 36.160156-45.539063 5.308594 66.429688 6.992188 133.796876 4.996094 200.371094l-47.28125-.210937c-3.984375-.015625-8.273437-.347657-9.878906-2.65625zm309.875-14.890625c-.636719 5.917968-1.484375 11.5-4.820312 14.769531-3.832032 3.757813-10.496094 4.035156-17.042969 4.011719l-35.617188-.15625c2.902344-62.0625 6.449219-124.910156 10.539063-186.960938 11.691406 8.816406 22.285156 18.988282 30.40625 31.261719 11.597656 17.535156 18.355468 39.757813 20.082031 66.046875 1.554687 23.636719-1.039063 47.730469-3.546875 71.027344zm0 0"/></svg>