<svg height="511pt" viewBox="-90 0 511 511.99892" width="511pt" xmlns="http://www.w3.org/2000/svg"><path d="m241.777344 123.59375c-2.148438 0-4.3125-.535156-6.402344-1.050781-7.503906-1.867188-15.300781-3.472657-23.175781-4.777344-7.863281-1.292969-15.800781-2.277344-23.582031-2.929687-8.488282-.71875-17.101563-1.082032-25.605469-1.082032-19.554688 0-39.183594 1.910156-58.335938 5.679688-1.441406.28125-3.039062.707031-4.730469 1.15625l-.261718.066406c-4.277344 1.144531-8.421875 2.171875-12.015625 2.171875-4.480469 0-7.773438-1.652344-9.78125-4.90625-2.40625-3.894531-3.105469-8.34375-2.027344-12.859375 1.429687-6.0625 6.117187-12.171875 12.234375-15.9375 5.308594-3.265625 11.171875-5.117188 18.34375-6.894531 20.300781-5.058594 41.828125-7.621094 63.988281-7.621094 21.164063 0 43.285157 2.339844 65.75 6.953125 4.640625.957031 9.066407 2.070312 12.210938 5.152344 4.773437 4.664062 4.90625 12 4.628906 19.109375-.121094 3.195312-.261719 6.816406-1.425781 10.082031-1.28125 3.578125-3.785156 6.277344-6.699219 7.230469-.945313.304687-1.964844.457031-3.113281.457031zm0 0" fill="#94c668"/><path d="m83.253906 84.855469c.507813-27.175781 14.894532-53.160157 37.542969-67.8125 13.148437-8.507813 28.644531-13 44.8125-13 13.148437 0 26.089844 3.078125 37.421875 8.898437 24.820312 12.75 41.804688 38.011719 44.324219 65.929688l.554687 6.125-5.824218-1.976563c-1.992188-.675781-4.101563-1.148437-5.902344-1.523437-22.460938-4.609375-44.585938-6.949219-65.753906-6.949219-22.152344 0-43.691407 2.5625-64.011719 7.613281-5.421875 1.347656-11.707031 3.144532-17.195313 6.25l-6.101562 3.457032zm0 0" fill="#cbe580"/><path d="m235.390625 158.386719c-10.058594-8.554688-16.347656-21.085938-17.25-34.386719l-.355469-5.226562 5.136719 1.035156c4.105469.828125 8.285156 1.765625 12.429687 2.789062 1.691407.421875 3.789063.941406 5.816407 1.039063l4.25.195312-4.273438 39.449219zm0 0" fill="#c67045"/><path d="m91.574219 160.53125c-3.179688-10.796875-5.28125-22.03125-6.25-33.390625l-.347657-4.082031 4.085938-.25c3.644531-.226563 7.363281-1.21875 10.648438-2.09375 1.601562-.429688 3.425781-.914063 4.980468-1.222656 1.855469-.363282 3.726563-.71875 5.59375-1.042969l3.875-.675781.738282 3.863281c1.585937 8.292969.484374 17.054687-3.101563 24.675781-3.113281 6.644531-8.015625 12.320312-14.171875 16.417969l-4.519531 3.003906zm0 0" fill="#c67045"/><g fill="#ffdac4"><path d="m247.511719 179.09375c-1.589844 0-3.148438-.195312-4.632813-.582031l-4.574218-.15625.753906-4.503907c.433594-2.5625.84375-5.117187 1.253906-7.65625l.179688-1.121093c.273437-1.753907.558593-3.519531.851562-5.300781v-.3125l.199219-.6875c.21875-.675782.292969-1.34375.34375-1.785157l1.808593-16.652343 3.511719-.074219.394531-.003907c6.835938 0 13.683594 3.882813 17.03125 9.667969 3.835938 6.609375 3.28125 15.472657-1.347656 21.550781-3.582031 4.699219-9.628906 7.617188-15.773437 7.617188zm0 0"/><path d="m174.058594 243.109375c-.851563 0-1.710938-.011719-2.570313-.042969-20.328125-.671875-40.234375-9.324218-54.609375-23.742187-13.492187-13.542969-22.011718-32.300781-23.375-51.460938l-.179687-2.496093 2.167969-1.25c7.09375-4.097657 12.90625-10.410157 16.371093-17.777344 3.550781-7.550782 4.664063-16.257813 3.136719-24.511719l-.753906-4.070313 4.09375-.613281c14.78125-2.207031 29.839844-3.324219 44.769531-3.324219 8.476563 0 17.054687.359376 25.5 1.074219 8.617187.730469 17.386719 1.867188 26.070313 3.375l3.222656.5625.089844 3.269531c.398437 14.445313 7.328124 28.386719 18.53125 37.300782.550781.4375 1.09375.777344 1.617187 1.003906l2.824219 1.242188-.550782 3.464843c-2.023437 12.777344-3.941406 24.886719-8.761718 36.808594-4.339844 10.730469-12.582032 25.285156-27.195313 33.695313-8.527343 4.902343-19.039062 7.492187-30.398437 7.492187zm0 0"/><path d="m165.675781 323.4375c-1.480469-.359375-3.203125-1.507812-4.976562-3.316406-2.527344-2.597656-5.042969-5.203125-7.5625-7.816406-13.644531-14.21875-27.75-28.914063-44.722657-39.105469l-5.816406-3.492188 5.867188-3.398437c5.453125-3.160156 10.085937-7.847656 13.046875-13.203125 3.011719-5.453125 4.511719-11.972657 4.226562-18.367188l-.339843-7.515625 6.421874 3.921875c12.066407 7.378907 25.785157 11.523438 39.664063 11.988281.855469.027344 1.714844.035157 2.558594.035157 11.121093 0 21.453125-2.484375 29.878906-7.191407l5.988281-3.34375-.039062 6.859376c-.027344 5.105468 1.195312 10.113281 3.535156 14.476562 2.429688 4.503906 6.050781 8.367188 10.476562 11.171875l5.316407 3.367187-5.304688 3.382813c-17.328125 11.054687-39.03125 26.582031-53.160156 48.730469-.402344.625-.734375 1.136718-1.082031 1.539062l-1.597656 1.851563zm0 0"/><path d="m84.417969 179.9375c-5.363281 0-10.511719-2.117188-14.125-5.808594-5.234375-5.371094-6.925781-13.972656-4.121094-20.914062 2.789063-6.898438 9.929687-11.898438 17.367187-12.160156l3.433594-.125.640625 3.378906c1.332031 7.054687 3.132813 14.085937 5.347657 20.894531l.378906.757813.046875.820312c.136719 2.425781.402343 4.945312.78125 7.484375l.546875 3.644531-3.722656.875c-2.074219.765625-4.285157 1.152344-6.574219 1.152344zm0 0"/></g><path d="m318.011719 339.027344c-9.964844-21.832032-34.53125-37.710938-54.820313-49.105469l-1.347656-.757813-1.507812.347657c-2.105469.484375-3.8125.933593-5.382813 1.417969-11.996094 3.734374-21.386719 11.960937-25.183594 21.976562 3.753907-10.066406 13.160157-18.304688 25.15625-22.035156 2.738281-.851563 5.605469-1.480469 8.375-2.089844l.375-.085938c5.4375-1.1875 10.570313-2.308593 15.277344-4.933593 10.089844-5.640625 16.289063-18.320313 15.066406-30.832031-1.105469-11.296876-7.929687-22.578126-18.25-30.183594-9.011719-6.628906-20.386719-10.28125-32.027343-10.28125-6.273438 0-12.347657 1.046875-18.046876 3.113281l-1.230468.449219-.730469 1.085937c-3.480469 5.203125-7.425781 9.667969-11.722656 13.269531l-1.429688 1.164063v1.863281c-1.488281 6.867188-.4375 14.351563 2.882813 20.53125 3.132812 5.828125 8.449218 10.6875 14.59375 13.332032l1.898437.820312 1.765625-1.078125c2.394532-1.460937 4.78125-2.894531 7.152344-4.300781 3.125-1.863282 6.359375-3.789063 8.65625-6.632813 1.9375-2.421875 3.621094-6.554687 1.996094-10.210937-1.074219-2.457032-3.628906-4.441406-6.84375-5.304688-2.125-.566406-4.34375-.632812-5.832032-.632812-.945312 0-1.898437.03125-2.917968.0625l-.132813-.058594c.976563-.035156 1.992188-.070312 3.039063-.070312 2.363281 0 4.230468.207031 5.871094.648437 3.253906.871094 5.761718 2.8125 6.871093 5.3125 1.347657 3.054687.5625 7.089844-2.019531 10.296875-2.292969 2.867188-5.53125 4.785156-8.667969 6.648438-24.304687 14.441406-51.613281 32.015624-68.109375 57.875-.605468.941406-1.230468 1.917968-2.164062 2.46875-.148438.089843-.332032.171874-.515625.253906l-2.28125 1.003906-.101563 2.492188c-2.363281 58.765624-2.574218 118.339843-.621094 177.066406l.128907 3.894531 3.894531-.027344c25.621094-.183593 52.332031-.605469 79.398438-1.25l4.019531-.097656-.117188-4.019531c-1.234375-43.03125.636719-86.476563 5.617188-129.121094-4.921875 42.648438-6.789063 86.105469-5.550781 129.160156l.113281 3.988282 3.984375-.101563c12.074218-.3125 27.988281-.746094 44.003906-1.300781 5.4375-.191406 12.210938-.421875 17.355469-3.921875 8.359375-5.691407 9.488281-17.476563 9.488281-28.257813-.011719-30.714844-.703125-61.757812-2.0625-92.253906-.675781-15.410156-1.699219-29.175781-7.363281-41.597656zm-130.601563 64.871094-.109375-.050782 10.847657-1.113281-.792969-4.265625c-5.105469-27.429688-3.582031-56.015625 4.410156-82.675781.003906-.007813.019531-.015625.027344-.015625v-4l.027343 4.042968c-8.058593 26.886719-9.539062 55.691407-4.289062 83.296876l.683594 3.589843 3.636718-.355469 1.042969-.039062zm0 0" fill="#5bd0fc"/><path d="m165.164062 507.816406-.132812-4.109375c-1.949219-58.898437-1.726562-118.597656.65625-177.433593l.097656-2.375-2.039062-1.222657c-1-.597656-2.039063-1.445312-3.097656-2.527343-2.53125-2.578126-5.039063-5.1875-7.554688-7.808594l-.078125-.082032c-15.644531-16.273437-31.820313-33.101562-52.195313-43.15625l-1.039062-.503906c-6.113281-2.992187-13.039062-6.390625-14.714844-12.953125-1.34375-5.28125 1.515625-11.492187 6.953125-15.101562 4.984375-3.300781 11.316407-4.265625 16.859375-4.707031-5.800781.527343-11.855468 1.46875-16.832031 4.761718-4.429687 2.941406-8.484375 8.898438-6.914063 15.023438 1.652344 6.523437 8.550782 9.914062 14.648438 12.90625l2.035156 1.019531 1.898438-1.023437c7.4375-2.859376 13.894531-8.484376 17.738281-15.449219 3.875-7.015625 5.191406-15.542969 3.621094-23.351563l.746093-2.574218-2.101562-1.667969c-2.496094-1.984375-4.8125-4.042969-6.878906-6.105469-1.046875-1.054688-2.15625-2.253906-3.394532-3.660156l-1.3125-1.5-1.988281.148437-.113281.003907-.089844-.003907c-1.894531-.195312-3.832031-.292969-5.757812-.292969-21.769532 0-43.191406 12.761719-53.300782 31.746094-2.546874 4.769532-7.898437 17.007813-2.617187 27.679688 3.285156 6.644531 10.148437 11.652344 20.988281 15.308594 2.160156.726562 4.417969 1.40625 6.402344 2.003906l.117188.035156c6.28125 1.90625 12.777343 3.878906 18.304687 7.542969 9.976563 6.613281 12.273437 16.390625 10.128906 22.664062 2.078125-6.269531-.21875-16.019531-10.167969-22.613281-4.421874-2.929688-9.320312-4.765625-15.320312-6.617188l-1.332031-.390624-1.289063.492187c-21.023437 4.238281-40.121094 17.78125-51.078125 36.230469-12.75 21.492187-14.335937 47.703125-15.730469 70.828125l-4.480468 73.675781c-.605469 9.855469-.660156 20.039062 5.695312 26.792969 6.171875 6.570312 16.039063 7.316406 25.617188 7.511719 11.191406.222656 21.59375.394531 31.796875.53125l3.722656.046874.316406-3.710937c3.058594-36.050781 3.292969-72.574219.753907-108.546875 2.589843 35.753906 2.371093 72.082031-.648438 107.964844l-.359375 4.285156 4.300781.050781c19.171875.222657 38.554688.335938 57.609375.335938 9.121094 0 18.355469-.027344 27.441407-.078125zm-37.765624-190.640625.035156.027344c7.769531 24.648437 11.015625 51.371094 9.394531 77.277344l-.128906 2.042969-.003907-.734376c1.8125-26.304687-1.410156-53.46875-9.320312-78.609374.011719 0 .019531-.003907.023438-.003907zm13.609374 81.597657c-4.050781 0-8.070312.992187-11.652343 2.820312 1.351562-.714844 2.859375-1.324219 4.488281-1.8125l2.859375-.851562v-.167969l4.390625-.035157c1.152344 0 2.171875.0625 3.121094.257813-1.054688-.140625-2.132813-.210937-3.207032-.210937zm0 0" fill="#5bd0fc"/><path d="m144.753906 394.957031c-1.300781-.171875-2.617187-.238281-3.929687-.230469 1.652343-26.367187-1.644531-53.554687-9.570313-78.730468-.671875-2.125-2.933594-3.300782-5.058594-2.632813-2.121093.667969-3.300781 2.933594-2.632812 5.054688 7.785156 24.726562 10.941406 51.464843 9.125 77.324219-.003906.070312.011719.140624.007812.210937-1.800781.535156-3.554687 1.226563-5.214843 2.109375-1.96875 1.042969-2.714844 3.484375-1.671875 5.449219.722656 1.363281 2.121094 2.144531 3.566406 2.144531.636719 0 1.28125-.152344 1.882812-.472656 3.777344-2.003906 8.191407-2.796875 12.433594-2.234375 2.199219.289062 4.234375-1.257813 4.523438-3.464844.296875-2.207031-1.253906-4.234375-3.460938-4.527344zm0 0"/><path d="m202.476562 398.269531-1.015624.101563c-5.128907-26.972656-3.691407-55.097656 4.191406-81.402344.640625-2.132812-.570313-4.378906-2.703125-5.019531-2.128907-.636719-4.378907.570312-5.019531 2.703125-8.1875 27.320312-9.730469 56.511718-4.507813 84.542968l-6.53125.671876c-2.214844.226562-3.828125 2.207031-3.597656 4.421874.214843 2.074219 1.964843 3.621094 4.003906 3.621094.140625 0 .277344-.007812.417969-.023437l15.585937-1.601563c2.214844-.226562 3.828125-2.207031 3.597657-4.421875-.226563-2.210937-2.210938-3.816406-4.421876-3.59375zm0 0"/><path d="m329.4375 380.441406c-.703125-15.847656-1.773438-30.027344-7.734375-43.097656-5.128906-11.238281-15.410156-26.519531-49.082031-46.652344 2.832031-.835937 5.628906-1.890625 8.308594-3.386718 11.644531-6.503907 18.53125-20.480469 17.132812-34.773438-1.234375-12.613281-8.484375-24.660156-19.886719-33.054688-12.8125-9.433593-29.800781-13.019531-45.433593-10.035156 1.011718-2.078125 1.910156-4.097656 2.675781-6 2.792969-6.902344 4.664062-14.003906 6.121093-21.117187.105469.035156.203126.085937.308594.113281 1.855469.484375 3.761719.71875 5.667969.71875 7.28125 0 14.570313-3.40625 19-9.226562 5.59375-7.347657 6.265625-18.054688 1.636719-26.039063-4.054688-6.996094-11.941406-11.5-19.988282-11.703125l1.167969-10.765625c2.683594-1.808594 4.828125-4.632813 6.082031-8.148437 1.367188-3.824219 1.519532-7.789063 1.660157-11.285157.300781-7.652343.121093-16.300781-5.804688-22.136719.265625-.570312.414063-1.199218.382813-1.871093-1.441406-30.28125-19.796875-58.800781-46.765625-72.652344-26.964844-13.851563-60.839844-12.164063-86.296875 4.304687-25.453125 16.46875-40.878906 46.671876-39.300782 76.945313.007813.144531.042969.28125.0625.417969-3.679687 3.832031-6.328124 8.414062-7.449218 13.125-1.328125 5.597656-.453125 11.105468 2.53125 15.933594 1.796875 2.914062 4.117187 4.683593 6.695312 5.6875.28125 3.785156.699219 7.558593 1.230469 11.320312-8.613281.730469-16.703125 6.59375-19.949219 14.621094-3.398437 8.398437-1.351562 18.789062 4.976563 25.273437 4.417969 4.527344 10.792969 7.011719 17.128906 7.011719 2.484375 0 4.953125-.402344 7.304687-1.195312 2.445313 9.695312 6.570313 18.960937 12.171876 27.242187-23.109376.101563-45.78125 13.394531-56.703126 33.894531-5.996093 11.253906-6.964843 22.691406-2.664062 31.378906 3.34375 6.757813 9.675781 11.96875 19.289062 15.863282-17.515624 6.394531-32.867187 18.898437-42.382812 34.921875-13.242188 22.3125-14.867188 49.058593-16.300781 72.65625l-4.476563 73.675781c-.625 10.273438-.6640622 21.898438 6.789063 29.828125 7.253906 7.71875 18.511719 8.582031 28.496093 8.785156 32.351563.652344 64.867188.980469 97.425782.980469 55.835937 0 111.800781-.960938 167.261718-2.878906 5.652344-.195313 13.394532-.464844 19.511719-4.625 9.929688-6.757813 11.265625-19.773438 11.261719-31.617188-.007812-30.6875-.703125-61.789062-2.0625-92.4375zm-101.492188-180.019531c-4.097656 10.140625-11.847656 23.875-25.484374 31.726563-8.539063 4.914062-19.195313 7.308593-30.835938 6.921874-19.335938-.640624-38.253906-8.871093-51.910156-22.574218-12.933594-12.976563-20.925782-30.660156-22.222656-48.921875 7.808593-4.503907 14.136718-11.34375 17.984374-19.535157 3.941407-8.382812 5.136719-17.863281 3.453126-26.941406 22.898437-3.421875 46.160156-4.175781 69.34375-2.214844 8.613281.726563 17.210937 1.847657 25.714843 3.324219.433594 15.46875 7.914063 30.671875 20.042969 40.320313.84375.671875 1.679688 1.183594 2.503906 1.542968-.019531.125-.039062.246094-.058594.371094-2.007812 12.617188-3.902343 24.53125-8.53125 35.980469zm-60.585937 118.050781c-.226563.351563-.550781.863282-.734375 1.078125-.414062-.105469-1.5-.625-3.070312-2.234375-2.515626-2.574218-5.019532-5.179687-7.527344-7.789062-13.878906-14.441406-28.167969-29.3125-45.550782-39.761719 6.035157-3.492187 11.171876-8.648437 14.53125-14.722656 3.414063-6.175781 5.042969-13.398438 4.722657-20.480469 12.503906 7.636719 26.957031 12.078125 41.625 12.566406.902343.03125 1.792969.046875 2.683593.046875 11.839844 0 22.777344-2.648437 31.832032-7.703125-.03125 5.6875 1.339844 11.40625 4.015625 16.386719 2.75 5.125 6.917969 9.53125 11.851562 12.664063-20.296875 12.945312-40.789062 28.648437-54.378906 49.949218zm-56.386719-196.082031c1.425782 7.480469.457032 15.308594-2.792968 22.21875-2.824219 6.007813-7.273438 11.132813-12.765626 14.785156-3.128906-10.621093-5.167968-21.554687-6.101562-32.59375 4.035156-.246093 8.085938-1.328125 11.425781-2.21875 1.722657-.460937 3.347657-.894531 4.71875-1.167969 1.835938-.359374 3.675781-.699218 5.515625-1.023437zm127.007813 32.949219c-9.222657-7.839844-15.03125-19.542969-15.847657-31.609375 4.117188.832031 8.207032 1.746093 12.261719 2.75 1.972657.488281 4.226563 1.042969 6.589844 1.152343zm23.195312-3.40625c2.996094 5.167968 2.542969 12.363281-1.074219 17.117187-3.617187 4.75-10.433593 7.101563-16.210937 5.589844-.296875-.078125-.597656-.113281-.894531-.121094.507812-2.953125.976562-5.894531 1.441406-8.8125.296875-1.863281.59375-3.730469.902344-5.601562.003906-.03125 0-.058594.003906-.085938.351562-1.074219.460938-2.050781.519531-2.585937l1.429688-13.171875c5.476562-.117188 11.136719 2.941406 13.882812 7.671875zm-138.203125-131.53125c23.074219-14.925782 53.785156-16.460938 78.230469-3.902344 23.511719 12.078125 39.796875 36.457031 42.171875 62.726562-2.089844-.710937-4.257812-1.203124-6.386719-1.640624-46.792969-9.617188-91.050781-9.378907-131.539062.695312-6.074219 1.515625-12.441407 3.382812-18.195313 6.644531.472656-25.648437 14.109375-50.542969 35.71875-64.523437zm-43.226562 85.585937c1.210937-5.085937 5.210937-10.242187 10.445312-13.460937 4.855469-2.980469 10.390625-4.722656 17.203125-6.421875 39.3125-9.78125 82.367188-9.992188 127.972657-.625 4.03125.832031 7.851562 1.765625 10.222656 4.089843 3.609375 3.527344 3.671875 9.886719 3.425781 16.101563-.121094 3.0625-.246094 6.230469-1.191406 8.890625-.851563 2.378906-2.449219 4.207031-4.175781 4.769531-1.972657.648438-4.6875-.027343-7.316407-.675781h.003907c-15.441407-3.828125-31.382813-6.457031-47.382813-7.808594-28.488281-2.410156-57.101563-.84375-85.050781 4.65625-1.640625.320313-3.390625.792969-5.246094 1.285156-8.421875 2.253907-14.601562 3.503907-17.363281-.96875-1.859375-3.011718-2.378907-6.320312-1.546875-9.832031zm9.941406 69.011719c-5.574219 2.101562-12.371094.585938-16.53125-3.675781s-5.503906-11.09375-3.273438-16.613281c2.21875-5.488282 7.882813-9.449219 13.800782-9.660157 1.382812 7.304688 3.222656 14.523438 5.539062 21.589844.042969.132813.113282.246094.167969.371094.152344 2.628906.425781 5.25.824219 7.847656-.175782.039063-.351563.074219-.527344.140625zm-13.636719 328.578125c3.03125-36.027344 3.257813-72.542969.65625-108.589844-.160156-2.222656-2.105469-3.886719-4.3125-3.730469-2.21875.15625-3.890625 2.089844-3.730469 4.308594 2.589844 35.828125 2.347657 72.121094-.699218 107.921875-10.601563-.140625-21.191406-.316406-31.761719-.53125-8.726563-.175781-17.671875-.804687-22.785156-6.246093-5.257813-5.589844-5.164063-14.828126-4.617188-23.816407l4.476563-73.671875c1.378906-22.6875 2.941406-48.398437 15.1875-69.03125 10.382812-17.492187 28.488281-30.335937 48.425781-34.355468.226563-.046876.441406-.121094.648437-.199219 5.179688 1.601562 10.054688 3.320312 14.292969 6.132812 5.929688 3.929688 10.777344 11.378907 8.582031 18.015625-.703124 2.113282.445313 4.394532 2.558594 5.097656.417969.136719.847656.203126 1.269532.203126 1.6875 0 3.265624-1.070313 3.824218-2.765626 2.546875-7.683593-.054687-19.5-11.777344-27.269531-6.050781-4.015625-12.875-6.074219-19.46875-8.070312-2.085937-.628907-4.238281-1.277344-6.289062-1.972657-9.777344-3.300781-15.886719-7.648437-18.679688-13.292968-4.449218-8.988282.304688-19.789063 2.554688-24.015625 10.433594-19.585938 33.128906-31.660157 55.210938-29.355469.277343.027344.554687.027344.820312 0 1.152344 1.3125 2.332031 2.605469 3.5625 3.84375 2.28125 2.285156 4.703125 4.414062 7.230469 6.417969-.167969.589843-.214844 1.222656-.085938 1.867187 1.394531 6.941406.230469 14.472656-3.195312 20.667969-3.421875 6.195313-9.183594 11.1875-15.800781 13.699219-.140626.054687-.265626.128906-.398438.199218l-.175781-.089843c-5.585938-2.734375-11.359375-5.566407-12.566407-10.3125-1.035156-4.058594 1.859376-8.457031 5.253907-10.707031 4.230469-2.800782 9.699219-3.632813 14.980469-4.117188 2.21875-.199219 3.851562-2.164062 3.648437-4.378906-.203125-2.21875-2.179687-3.851563-4.382813-3.648438-6.027343.550782-12.964843 1.625-18.699218 5.425782-6.832032 4.523437-10.375 12.507812-8.613282 19.414062 2.125 8.355469 10.277344 12.351562 16.828126 15.566406l1.042968.511719c19.765625 9.746094 35.71875 26.351563 51.144532 42.410156 2.523437 2.625 5.042968 5.246094 7.574218 7.839844 1.378906 1.410156 2.683594 2.429687 3.902344 3.152344-2.382812 58.980469-2.605469 118.75-.652344 177.734375-28.363281.160156-56.714844.074218-84.984375-.261719zm239.652344-5.75c-4.191406 2.855469-10.324219 3.066406-15.253906 3.234375-14.621094.507812-29.28125.921875-43.957031 1.292969-1.230469-42.808594.621093-86.054688 5.523437-128.585938.253906-2.214843-1.332031-4.210937-3.542969-4.46875-2.210937-.257812-4.210937 1.332031-4.464844 3.542969-4.945312 42.902344-6.8125 86.523438-5.574218 129.707031-26.402344.625-52.859375 1.058594-79.332032 1.253907-1.949218-58.667969-1.734374-118.113282.621094-176.78125.34375-.148438.664063-.300782.9375-.464844 1.769532-1.046875 2.765625-2.609375 3.519532-3.792969 16.015624-25.09375 42.855468-42.347656 66.765624-56.558594 3.28125-1.949219 7-4.160156 9.75-7.585937 3.492188-4.351563 4.492188-10.007813 2.546876-14.410156-1.597657-3.613282-5.058594-6.371094-9.492188-7.5625-3.492188-.941407-6.996094-.820313-10.089844-.710938-2.226562.078125-3.964844 1.945312-3.890625 4.167969.078125 2.179687 1.867188 3.890625 4.027344 3.890625h.144531c2.652344-.09375 5.390625-.1875 7.714844.4375 2.007812.539062 3.621094 1.703125 4.210938 3.035156.84375 1.910156-.125 4.445312-1.457032 6.105469-1.835937 2.285156-4.628906 3.945312-7.597656 5.710937-2.363281 1.40625-4.757812 2.839844-7.167969 4.308594-5.328125-2.289062-9.914062-6.445312-12.65625-11.550781-2.875-5.355469-3.785156-11.835938-2.496093-17.78125.058593-.269531.089843-.542969.09375-.8125 5.054687-4.246094 9.160156-9.144531 12.480468-14.105469 15.222656-5.519531 33.285156-2.980469 46.328125 6.621094 9.425781 6.9375 15.648438 17.160156 16.644531 27.347656 1.074219 10.980469-4.289062 22.0625-13.039062 26.949219-4.210938 2.351562-9.09375 3.417969-14.269531 4.546875-2.945313.644531-5.996094 1.308594-8.988281 2.242187-13.175782 4.101563-23.539063 13.242188-27.71875 24.457031-.777344 2.085938.285156 4.40625 2.371093 5.183594.464844.171875.9375.253906 1.40625.253906 1.636719 0 3.171875-1 3.777344-2.625 3.3125-8.890624 11.746094-16.207031 22.558594-19.574218 1.660156-.515625 3.355469-.9375 5.097656-1.339844 19.792969 11.121094 43.667969 26.53125 53.132813 47.277344 5.363281 11.757812 6.351562 25.121094 7.015624 40.109375 1.355469 30.53125 2.046876 61.515625 2.054688 92.085937.007812 9.734375-.910156 20.308594-7.734375 24.949219zm0 0"/></svg>