<svg height="512pt" viewBox="-83 0 512 512" width="512pt" xmlns="http://www.w3.org/2000/svg"><path d="m185.339844 380.019531c-3.019532 0-5.914063-1.484375-8.617188-3.003906-13.695312-7.65625-27.023437-16.453125-39.605468-26.148437l-2.488282-1.917969 1.273438-2.871094c1.808594-4.070313 2.914062-8.851563 3.390625-14.625l.699219-8.5 6.089843 5.972656c9.628907 9.441407 20.183594 17.945313 31.367188 25.269531 1.4375.933594 3.375 2.195313 5.480469 2.195313.042968 0 .226562 0 .273437-.003906 2.871094-.195313 4.933594-2.550781 6.4375-4.269531l30.738281-35.273438-.535156 11.472656c-.273438 5.816406-.34375 13.3125 1.503906 19.703125l.847656 2.914063-2.582031 1.597656c-8.371093 7.984375-17.089843 15.84375-25.851562 23.3125-2.136719 1.832031-4.269531 3.515625-6.777344 4.019531-.542969.105469-1.089844.15625-1.644531.15625zm0 0" fill="#fff"/><path d="m32.179688 507.941406c-7.695313 0-15.519532-.707031-20.601563-5.835937-4.65625-4.714844-5.644531-11.9375-6.203125-18.335938-3.339844-38.601562-.28125-77.214843 9.09375-114.765625 6.328125-25.335937 16.332031-40.359375 30.574219-45.929687l2.082031-.8125 1.785156 1.347656c2.523438 1.910156 5.265625 3.328125 8.140625 4.21875 2.210938.679687 4.425781 1.027344 6.578125 1.027344 3.488282 0 6.6875-.882813 9.511719-2.621094.316406-.195313.652344-.417969.980469-.636719 1.316406-.867187 2.503906-1.644531 3.933594-1.882812.261718-.046875.554687-.070313.847656-.070313 3.226562 0 5.945312 2.953125 6.964844 5.867188.773437 2.234375.941406 4.59375 1.105468 6.878906l.003906.078125c.09375 1.183594.1875 2.40625.363282 3.59375 1.441406 9.8125 9.164062 18.394531 18.773437 20.863281 1.90625.488281 3.902344.738281 5.929688.738281 7.753906 0 15.492187-3.644531 20.195312-9.515624l2.449219-3.054688 3.105469 2.378906c12.363281 9.472656 25.449219 18.085938 38.898437 25.605469 2.605469 1.457031 5.632813 3.011719 8.636719 3.011719.535156 0 1.097656-.058594 1.675781-.167969 2.714844-.535156 4.976563-2.46875 6.796875-4.023437 8.25-7.042969 16.46875-14.429688 24.429688-21.964844l3.484375-3.292969 2.617187 4.015625c1.191407 1.832031 2.566407 3.355469 4.199219 4.65625 4.03125 3.222656 9.21875 4.789062 15.859375 4.789062 4.5 0 9.015625-.75 12.023437-1.3125 18.632813-3.511718 29.9375-10.777343 33.59375-21.597656 1.523438-4.492187 1.542969-9.308594 1.5625-13.964844v-.351562c.019532-2.210938.039063-4.296875.199219-6.425781.121094-1.597657.347657-3.296875.695313-5.191407l1.375-7.5 5.390625 5.394532c23.84375 23.875 33.859375 55.820312 38.0625 78.417968 5.664062 30.484376 4.769531 61.871094 3.902343 92.222657-.183593 6.511719-.796874 13.792969-5.773437 17.832031-3.777344 3.070312-8.769531 3.367188-14.433594 3.425781l-36.125.363281-.453125-3.523437c-3.8125-29.726563-5.582031-59.976563-5.261718-89.914063-.386719 29.460938 1.34375 59.398438 5.078124 88.984376l.5625 4.453124-212.34375 2.132813.441407-4.445313c3.128906-31.261718 2.242187-62.824218-2.640625-93.808593 4.859375 31.277343 5.71875 63.132812 2.492187 94.695312l-.363281 3.558594-38.445312.386719c-.582032.003906-1.164063.007812-1.75.007812zm0 0" fill="#d34242"/><path d="m244.429688 364.03125c-6.667969 0-11.851563-1.558594-15.851563-4.757812-8.753906-7.003907-9.304687-19.75-8.59375-32.476563l5.378906-95.871094-1.207031-2.5 1.898438-2.011719c14.355468-15.023437 21.804687-35.746093 19.921874-55.433593l-.179687-1.886719 1.347656-1.335938c4.855469-4.8125 8.296875-10.097656 10.222657-15.699218 2.816406-8.164063 1.800781-16.527344-2.644532-21.828125-1.191406-1.417969-2.675781-2.644531-4.414062-3.640625l-3.285156-1.886719 1.703124-3.382813c2.558594-5.089843 3.121094-13.886718-3.714843-21.929687-5.769531-6.785156-14.320313-10.378906-21.886719-13.214844l-2.597656-.960937c-7.496094-2.769532-14.570313-5.378906-20.554688-10.214844-8.203125-6.636719-13.195312-17.308594-13.023437-27.855469-3.445313 14.101563-16.570313 26.195313-35.175781 32.34375-4.25 1.402344-8.722657 2.542969-12.667969 3.546875-4.28125 1.089844-8.707031 2.214844-13.015625 3.648438-10.152344 3.402344-17.429688 8-22.242188 14.054687-5.527344 6.957031-7.253906 16.125-4.398437 23.363281l1.03125 2.617188-2.113281 1.855469c-.652344.574219-1.191407 1.117187-1.644532 1.65625-4.453125 5.300781-5.46875 13.660156-2.652344 21.824219 1.652344 4.78125 4.390626 9.324218 8.136719 13.503906l.925781 1.03125.089844 1.378906c1.601563 24.683594 10.671875 46.0625 25.535156 60.199219.8125.777343 1.601563 1.488281 2.40625 2.175781l1.554688 1.324219-.160156 2.023437.003906.015625c2.539062 21.089844 4.3125 42.46875 5.261719 63.550781.140625 3.191407.433593 6.628907.710937 9.953126 1.300782 15.425781 2.773438 32.914062-5.96875 44.433593-4.65625 6.148438-12.480468 9.96875-20.414062 9.96875-2.054688 0-4.082032-.253906-6.023438-.753906-9.585937-2.46875-17.289062-11.03125-18.734375-20.820313-.175781-1.257812-.277343-2.523437-.355469-3.703124-.175781-2.375-.347656-4.644532-1.117187-6.855469-1-2.863281-3.796875-5.910157-7-5.910157-.308594 0-.621094.027344-.929687.082032-1.4375.257812-2.722657 1.109375-3.851563 1.859375l-.308594.199219c-.246093.15625-.488281.316406-.734375.464843-2.773437 1.699219-6.054687 2.601563-9.492187 2.601563-2.148438 0-4.347657-.34375-6.535157-1.019532-7.046874-2.167968-13.222656-7.535156-16.121093-14.007812-4.6875-10.476562-3.320313-24.15625 3.753906-37.535156.664063-1.265625 1.378906-2.535156 2.125-3.863282l.226563-.398437c3.574218-6.324219 6.945312-12.292969 6.757812-19.179687-.109375-4.132813-1.53125-7.921876-3.039062-11.933594l-.039063-.109375c-1.207031-3.222657-2.351563-6.265625-2.839844-9.546875-.953125-6.445313.816407-12.90625 2.527344-19.15625.574219-2.082032 1.226563-4.484375 1.742187-6.824219 2.394532-10.894531 1.9375-22.246094 1.5-33.21875l-.015624-.347656c-.15625-3.972657-.316407-8.078125-.339844-12.105469-.164063-34.710938 10.429687-69.683594 29.824218-98.472656 21.011719-31.195313 50.6875-51.640625 81.421876-56.09375 4.277343-.617188 8.652343-.929688 13.007812-.929688 16.9375 0 34.425781 4.789063 50.574219 13.851563 19.40625 10.886719 36.058593 27.503906 46.890625 46.789062 20.078125 35.753907 24.421875 81.820313 12.238281 129.722657-2.148437 8.449218-4.816406 18.949218.671875 26.390624 2.675781 3.617188 6.636719 5.652344 10.828125 7.804688 4.019531 2.074219 8.082031 4.171875 10.738281 7.691406 5.574219 7.40625 3.15625 17.613282-.285156 27.539063l-11.691406 33.660156c-2.558594 7.375-5.199219 14.996094-5.820313 22.941406-.164062 2.179688-.1875 4.359375-.195312 6.777344-.023438 4.648437-.042969 9.460937-1.5625 13.960937-3.65625 10.800782-14.945313 18.054688-33.546875 21.558594-2.988282.566406-7.476563 1.308594-11.972656 1.308594zm0 0" fill="#ffbf48"/><path d="m211.140625 185.554688c-10.335937-8.542969-19.277344-19.1875-25.859375-30.78125-2.476562-4.363282-5.039062-9.574219-5.308594-15.191407-.222656-4.53125 1.40625-10.878906 6.726563-13.847656 1.769531-.984375 3.765625-1.484375 5.929687-1.484375 3.414063 0 7.128906 1.277344 10.191406 3.503906 3.046876 2.222656 5.214844 5.140625 7.308594 7.960938l.074219.097656c1.039063 1.386719 2.117187 2.820312 3.269531 4.136719 1.59375-1.390625 3-2.820313 4.550782-4.410157 4.078124-4.175781 7.929687-8.113281 13.929687-10.242187 2.445313-.855469 5.15625-1.308594 7.851563-1.308594 6.097656 0 11.519531 2.292969 14.871093 6.289063 5.296875 6.300781 4.835938 15.371094 2.636719 21.753906-3.636719 10.558594-11.882812 17.914062-18.160156 22.226562-7.539063 5.175782-15.980469 8.730469-23.976563 11.925782l-2.203125.878906zm0 0" fill="#5b5d6d"/><path d="m136.273438 186.183594c-8.011719-3.199219-16.464844-6.757813-23.980469-11.925782-6.273438-4.3125-14.519531-11.667968-18.15625-22.226562-2.207031-6.371094-2.671875-15.433594 2.640625-21.753906 3.339844-3.992188 8.757812-6.289063 14.863281-6.289063 2.679687 0 5.390625.453125 7.835937 1.304688 6.015626 2.128906 9.863282 6.066406 13.933594 10.230469 1.554688 1.59375 2.964844 3.027343 4.515625 4.429687 1.246094-1.367187 2.339844-2.835937 3.394531-4.253906 2.109376-2.832031 4.289063-5.757813 7.3125-7.945313 3.054688-2.226562 6.765626-3.5 10.183594-3.5 2.167969 0 4.164063.496094 5.929688 1.480469 5.304687 2.957031 6.941406 9.304687 6.730468 13.839844-.269531 5.636719-2.835937 10.839843-5.308593 15.191406-6.574219 11.59375-15.519531 22.242187-25.859375 30.785156l-1.828125 1.511719zm0 0" fill="#5b5d6d"/><g fill="#ffdac4"><path d="m171.460938 136.941406c-.492188-4.996094-2.992188-9.207031-6.691407-11.265625-1.734375-.96875-3.808593-1.480469-5.992187-1.480469-3.457032 0-7.070313 1.246094-10.1875 3.507813-3.011719 2.183594-5.097656 4.976563-7.308594 7.933594l-.480469.65625-2.753906 3.808593-3.320313-3.324218c-.429687-.433594-.851562-.863282-1.269531-1.292969-4.101562-4.1875-7.957031-8.125-13.949219-10.242187-2.515624-.886719-5.144531-1.339844-7.8125-1.339844-2.625 0-5.152343.433594-7.515624 1.289062l-3.996094 1.445313-1.203125-4.074219c-2.066407-7.015625-.183594-15.367188 4.914062-21.789062 4.820313-6.050782 12.089844-10.636719 22.226563-14.027344 4.175781-1.394532 8.511718-2.503906 12.707031-3.578125l.289063-.074219c4.179687-1.0625 8.492187-2.15625 12.675781-3.542969 13.195312-4.363281 23.875-11.839843 30.078125-21.054687l4.417968-6.5625 2.667969 7.445312c2.210938 6.175782 6.109375 11.738282 10.976563 15.667969 5.996094 4.84375 13.40625 7.582031 20.574218 10.230469.777344.28125 1.585938.582031 2.398438.882812l.1875.070313c7.570312 2.839843 16.117188 6.433593 21.871094 13.195312 4.945312 5.828125 7.675781 15.902344 3 23.101563l-1.449219 2.234375-2.621094-.476563c-1.359375-.25-2.761719-.375-4.160156-.375-2.667969 0-5.292969.449219-7.792969 1.332032-6.015625 2.121093-9.867187 6.066406-13.949218 10.242187l-.105469.105469c-.386719.394531-.769531.789062-1.164063 1.1875l-3.207031 3.210937-2.785156-3.585937c-.136719-.175782-.269531-.359375-.398438-.542969l-.15625-.214844c-2.242187-2.988281-4.328125-5.769531-7.3125-7.9375-3.117187-2.265625-6.734375-3.511719-10.1875-3.511719-2.1875 0-4.261719.511719-5.996093 1.480469-3.675782 2.046875-6.171876 6.230469-6.679688 11.191407l-.3125 3.074218-7.8125 1.207032zm0 0"/><path d="m177.390625 246.917969c-18.324219 0-36.035156-6.847657-48.589844-18.789063-13.078125-12.445312-21.582031-30.167968-24.601562-51.261718l-1.34375-9.394532 7.660156 5.597656c.605469.441407 1.191406.863282 1.753906 1.253907 7.757813 5.324219 16.445313 8.945312 26.179688 12.792969 11.167969-8.800782 20.757812-19.96875 27.773437-32.3125 1.757813-3.113282 3.695313-6.851563 4.675782-10.933594l.628906-2.601563 8.125-1.265625.832031 3.625c.976563 4.230469 3.046875 8.191406 4.742187 11.171875 7.011719 12.34375 16.605469 23.515625 27.742188 32.308594 9.742188-3.832031 18.417969-7.449219 26.21875-12.800781.1875-.128906.371094-.261719.546875-.390625l6.472656-4.660157.003907 7.808594c.007812 26.167969-15.457032 51.449219-38.488282 62.914063-9.105468 4.535156-19.59375 6.933593-30.324218 6.9375-.003907 0-.007813 0-.007813 0zm0 0"/><path d="m182.921875 356.332031c-1.910156 0-3.703125-1.0625-5.378906-2.152343-13.484375-8.824219-25.898438-19.21875-36.960938-30.933594l-1.042969-1.101563-.046874-1.515625c-.144532-4.507812-.515626-8.929687-.871094-13.203125l-.054688-.660156c-.28125-3.359375-.546875-6.535156-.683594-9.5-.847656-18.824219-2.363281-38.015625-4.507812-57.046875l-.917969-8.148438 6.984375 4.292969c11.101563 6.820313 24.613282 10.578125 38.046875 10.578125 10.734375 0 21.199219-2.386718 30.265625-6.902344 3.726563-1.855468 7.351563-4.148437 10.78125-6.808593l6.941406-5.382813-5.097656 90.746094-2.398437.933594-28.367188 32.523437c-1.789062 2.054688-3.753906 4.085938-6.320312 4.269531l-.140625.011719zm0 0"/></g><path d="m341.28125 390.820312c-4.535156-24.375-15.527344-58.636718-42.148438-83.417968-.15625-.148438-.328124-.265625-.5-.378906.847657-2.761719 1.796876-5.496094 2.734376-8.199219l11.6875-33.65625c2.382812-6.871094 7.347656-21.164063-.308594-31.316407-3.230469-4.289062-7.753906-6.613281-12.121094-8.863281-3.761719-1.933593-7.3125-3.757812-9.421875-6.613281-4.351563-5.886719-2.039063-14.964844-.003906-22.972656 12.445312-48.914063 7.957031-96.042969-12.632813-132.710938-23.949218-42.648437-71.074218-68.035156-114.59375-61.738281-31.855468 4.609375-62.550781 25.691406-84.210937 57.839844-19.847657 29.460937-30.683594 65.246093-30.515625 100.769531.019531 4.207031.191406 8.46875.351562 12.589844.449219 11.222656.871094 21.824218-1.402344 32.1875-.476562 2.175781-1.066406 4.335937-1.695312 6.621094-1.824219 6.660156-3.710938 13.546874-2.628906 20.828124.554687 3.726563 1.835937 7.140626 3.078125 10.4375 1.390625 3.699219 2.703125 7.191407 2.800781 10.664063.15625 5.757813-2.945312 11.25-6.230469 17.066406-.804687 1.425781-1.636719 2.898438-2.417969 4.371094-7.65625 14.496094-9.066406 29.472656-3.863281 41.085937.828125 1.855469 1.894531 3.632813 3.144531 5.292969-13.855468 6.921875-23.652343 22.464844-29.855468 47.3125-9.488282 38.007813-12.585938 77.070313-9.199219 116.097657.613281 7.109374 1.742187 15.167968 7.367187 20.84375 6.1875 6.25 15.304688 7.039062 23.65625 7.039062.539063 0 1.082032-.003906 1.613282-.007812l287.066406-2.875c4.964844-.050782 11.761719-.121094 16.949219-4.335938 6.3125-5.125 7.066406-13.460938 7.277343-20.871094.871094-30.589844 1.769532-62.222656-3.976562-93.089844zm-293.046875-112.726562c.726563-1.371094 1.492187-2.730469 2.304687-4.167969 3.683594-6.519531 7.492188-13.257812 7.269532-21.253906-.132813-4.828125-1.746094-9.125-3.308594-13.28125-1.144531-3.039063-2.222656-5.90625-2.648438-8.785156-.835937-5.605469.75-11.390625 2.425782-17.511719.628906-2.285156 1.277344-4.648438 1.796875-7.027344 2.492187-11.375 2.03125-22.996094 1.582031-34.234375-.160156-4.050781-.324219-8.242187-.347656-12.308593-.160156-33.921876 10.191406-68.09375 29.140625-96.222657 20.394531-30.269531 49.070312-50.085937 78.675781-54.367187 20.210938-2.925782 41.320312 1.378906 61.050781 12.445312 18.773438 10.523438 34.882813 26.601563 45.363281 45.261719 19.570313 34.851563 23.777344 79.875 11.847657 126.773437-2.230469 8.773438-5.289063 20.789063 1.332031 29.753907 3.230469 4.371093 7.796875 6.71875 12.21875 8.992187 3.726562 1.917969 7.25 3.730469 9.371094 6.542969 4.453125 5.90625 2.214844 14.941406-.871094 23.820313l-11.683594 33.660156c-2.644531 7.609375-5.378906 15.480468-6.035156 23.9375-.183594 2.390625-.195312 4.769531-.210938 7.074218-.023437 4.546876-.046874 8.84375-1.351562 12.691407-3.15625 9.332031-13.417969 15.691406-30.492188 18.910156-8.019531 1.507813-18.0625 2.570313-24.582031-2.648437-7.347656-5.878907-7.753906-17.472657-7.101562-29.132813l5.378906-95.863281c.039063-.707032-.121094-1.371094-.410156-1.96875 14.761719-15.449219 23.042969-37.335938 21.011719-58.585938 4.492187-4.449218 8.753906-10.167968 11.191406-17.238281 3.273437-9.480469 1.980468-19.328125-3.363282-25.695313-1.53125-1.820312-3.398437-3.339843-5.488281-4.542968 3.53125-7.023438 3.230469-17.535156-4.238281-26.324219-6.386719-7.511719-15.5-11.355469-23.535156-14.363281-.867188-.328125-1.742188-.648438-2.613282-.972656-7.179687-2.648438-13.957031-5.152344-19.421874-9.570313-7.273438-5.878906-11.695313-15.335937-11.542969-24.683594.035156-2.054687-1.484375-3.808593-3.523438-4.066406-2.035156-.25-3.949219 1.058594-4.425781 3.0625-3.058594 12.753906-15.195312 23.777344-32.476562 29.488281-4.03125 1.332032-8.285157 2.414063-12.398438 3.464844-4.363281 1.109375-8.878906 2.261719-13.289062 3.738281-10.921876 3.652344-18.808594 8.675781-24.113282 15.351563-6.460937 8.128906-8.339844 18.828125-4.988281 27.324218-.738281.648438-1.441406 1.339844-2.070313 2.09375-5.351562 6.367188-6.640624 16.210938-3.367187 25.695313 2.023437 5.875 5.308594 10.816406 8.9375 14.871094 1.664063 25.683593 11.164063 48 26.769531 62.839843.835938.796876 1.691406 1.566407 2.566406 2.316407-.019531.261719-.015624.53125.019532.800781 2.523437 20.917969 4.289062 42.199219 5.238281 63.257812.144531 3.175782.425781 6.539063.726563 10.105469 1.234374 14.710938 2.636718 31.386719-5.171876 41.679688-5.035156 6.640625-14.1875 9.832031-22.257812 7.753906-8.070312-2.070313-14.554688-9.277344-15.769531-17.523437-.15625-1.070313-.238281-2.199219-.328125-3.390626-.1875-2.554687-.382813-5.195312-1.328125-7.894531-1.695313-4.871093-6.625-9.484375-12.40625-8.457031-2.234375.398438-3.972657 1.542969-5.363281 2.460938-.304688.199218-.609376.402343-.917969.589843-3.566407 2.195313-8.09375 2.613281-12.761719 1.175781-5.976562-1.84375-11.207031-6.375-13.648438-11.828124-4.183593-9.332032-2.859374-21.734376 3.632813-34.023438zm58.796875-174.828125c4.304688-5.417969 10.964844-9.582031 20.359375-12.726563 4.132813-1.382812 8.5-2.492187 12.722656-3.570312 4.246094-1.082031 8.640625-2.203125 12.9375-3.621094 14.234375-4.703125 25.503907-12.761718 32.140625-22.621094 2.425782 6.78125 6.667969 12.941407 12.230469 17.4375 6.496094 5.25 14.222656 8.101563 21.695313 10.863282.863281.316406 1.726562.632812 2.582031.957031 7.089843 2.65625 15.082031 5.992187 20.21875 12.035156 4.144531 4.875 6.1875 12.945313 2.691406 18.335938-4.503906-.828125-9.378906-.515625-14 1.113281-6.886719 2.429688-11.253906 6.898438-15.480469 11.21875-.410156.417969-.820312.839844-1.238281 1.261719-.167969-.222657-.335937-.449219-.503906-.675781-2.296875-3.078126-4.671875-6.261719-8.175781-8.808594-6.480469-4.703125-14.523438-5.601563-20.484376-2.28125-4.859374 2.707031-8.078124 8.105468-8.710937 14.277344l-.574219.089843c-.609375-6.207031-3.835937-11.648437-8.71875-14.367187-5.960937-3.320313-14-2.425782-20.484375 2.28125-3.503906 2.546875-5.878906 5.730468-8.175781 8.804687-.167969.230469-.335938.457031-.503906.679688-.417969-.421875-.832032-.84375-1.238282-1.261719-4.226562-4.320312-8.59375-8.792969-15.480468-11.21875-6.039063-2.128906-12.507813-2.023438-18.015625-.035156-1.667969-5.636719-.101563-12.746094 4.207031-18.167969zm129.855469 67.695313c-6.851563 4.703124-14.585938 8.066406-23.199219 11.507812-9.96875-8.234375-18.554688-18.453125-24.925781-29.671875-2.238281-3.945313-4.558594-8.621094-4.789063-13.410156-.179687-3.660157 1.199219-8.222657 4.675782-10.15625 1.226562-.683594 2.589843-.976563 3.980468-.976563 2.785156 0 5.683594 1.167969 7.84375 2.734375 2.511719 1.828125 4.425782 4.394531 6.453125 7.105469 1.105469 1.484375 2.253907 3.023438 3.542969 4.496094.710938.8125 1.722656 1.308594 2.800781 1.371094 1.074219.0625 2.136719-.3125 2.941407-1.039063 1.679687-1.523437 3.207031-3.085937 4.683593-4.597656 3.90625-3.996094 7.28125-7.445313 12.394531-9.25 5.808594-2.046875 13.96875-1.410157 18.320313 3.777343 4.230469 5.03125 3.765625 12.535157 1.921875 17.878907-3.289062 9.53125-10.863281 16.261719-16.644531 20.230469zm-137.050781-38.113282c2.867187-3.414062 7.390624-4.859375 11.804687-4.859375 2.28125 0 4.535156.386719 6.515625 1.085938 5.113281 1.800781 8.488281 5.253906 12.394531 9.25 1.476563 1.511719 3.003907 3.074219 4.683594 4.597656.804687.726563 1.863281 1.101563 2.941406 1.035156 1.082031-.0625 2.089844-.554687 2.800781-1.367187 1.289063-1.476563 2.4375-3.011719 3.546876-4.496094 2.023437-2.714844 3.9375-5.277344 6.453124-7.105469 3.234376-2.351562 8.144532-3.804687 11.820313-1.761719 3.476563 1.9375 4.855469 6.5 4.675781 10.160157-.230468 4.789062-2.550781 9.464843-4.789062 13.40625-6.371094 11.222656-14.957032 21.4375-24.925782 29.675781-8.609374-3.441406-16.34375-6.804688-23.199218-11.511719-5.78125-3.96875-13.359375-10.695312-16.644532-20.226562-1.84375-5.34375-2.304687-12.847657 1.921876-17.882813zm10.15625 44.757813c8.125 5.582031 17.03125 9.292969 26.984374 13.230469.480469.1875.984376.28125 1.484376.28125.890624 0 1.773437-.292969 2.496093-.867188 11.542969-9.109375 21.480469-20.6875 28.738281-33.472656 1.984376-3.496094 4.023438-7.519532 5.09375-11.96875l1.796876-.277344c1.054687 4.558594 3.136718 8.675781 5.160156 12.246094 7.261718 12.785156 17.199218 24.359375 28.738281 33.472656.726563.570312 1.605469.867188 2.5.867188.5 0 1.003906-.09375 1.480469-.28125 9.960937-3.9375 18.863281-7.652344 26.984375-13.230469.25-.171875.507812-.355469.757812-.535157.007813 24.285157-14.472656 48.480469-36.265625 59.332032-23.820312 11.867187-55.105468 7.164062-74.386718-11.175782-12.386719-11.785156-20.539063-28.9375-23.390626-48.929687.621094.460937 1.234376.902344 1.828126 1.308594zm33.289062 154.171875c9.789062 9.601562 20.503906 18.253906 31.976562 25.757812 1.65625 1.085938 4.363282 2.859375 7.675782 2.859375.210937 0 .421875-.007812.632812-.023437 4.449219-.304688 7.367188-3.652344 9.109375-5.652344l23.175781-26.59375c-.34375 7.328125-.195312 14.617188 1.65625 21.003906-.207031.132813-.40625.28125-.589843.457032-8.335938 7.9375-17 15.75-25.753907 23.21875-1.800781 1.535156-3.414062 2.828124-4.96875 3.136718-2.199218.429688-4.914062-.953125-7.519531-2.410156-13.609375-7.609375-26.753906-16.300781-39.121093-25.828125 2.175781-4.894531 3.265624-10.332031 3.726562-15.925781zm73.25-15.972656c-.589844.226562-1.140625.582031-1.585938 1.09375l-28.347656 32.523437c-.863281.988281-2.46875 2.828125-3.582031 2.90625-.902344.070313-2.492187-.980469-3.34375-1.539063-13.191406-8.628906-25.355469-18.824218-36.179687-30.285156-.15625-4.691406-.542969-9.308594-.90625-13.628906-.292969-3.484375-.566407-6.773438-.703126-9.792969-.863281-19.066406-2.390624-38.3125-4.535156-57.3125 11.933594 7.328125 26.066406 11.167969 40.140625 11.167969 11.089844 0 22.144531-2.382812 32.046875-7.316406 4.058594-2.019532 7.882813-4.457032 11.453125-7.230469zm120.667969 167.878906c-.160157 5.621094-.636719 11.867187-4.296875 14.839844-2.78125 2.253906-7.054688 2.480468-11.949219 2.53125l-32.578125.324218c-3.78125-29.542968-5.550781-59.589844-5.222656-89.355468.027344-2.222657-1.761719-4.050782-3.984375-4.074219-.015625 0-.03125 0-.046875 0-2.207032 0-4.007813 1.777343-4.03125 3.988281-.328125 29.816406 1.425781 59.914062 5.171875 89.523438l-203.398438 2.039062c3.160157-31.582031 2.273438-63.46875-2.667969-94.828125-.347656-2.199219-2.410156-3.703125-4.609374-3.355469-2.199219.347656-3.703126 2.410156-3.355469 4.609375 4.878906 30.972657 5.722656 62.46875 2.523437 93.652344l-34.867187.351563c-7.453125.078124-15.085938-.222657-19.464844-4.640626-3.726563-3.765624-4.566406-10.164062-5.0625-15.867187-3.304687-38.136719-.28125-76.308594 8.992187-113.445313 5.984376-23.976562 15.203126-38.121093 28.152344-43.171874 2.824219 2.132812 6.007813 3.808593 9.367188 4.847656 6.917968 2.128906 13.796875 1.414062 19.363281-2.011719.378906-.234375.753906-.480469 1.128906-.726563.894531-.589843 1.742188-1.148437 2.34375-1.257812 1.105469-.1875 2.742188 1.347656 3.378907 3.171875.589843 1.699219.738281 3.710937.898437 5.839844.097656 1.28125.191406 2.609375.394531 3.96875 1.671875 11.367187 10.609375 21.300781 21.738282 24.160156 10.898437 2.800781 23.21875-1.375 30.242187-10.148437 12.46875 9.546874 25.699219 18.269531 39.382813 25.921874 3.109374 1.738282 6.671874 3.519532 10.585937 3.519532.796875 0 1.605469-.074219 2.429687-.238282 3.75-.738281 6.578126-3.152343 8.640626-4.914062 8.34375-7.117188 16.597656-14.546875 24.582031-22.097656 1.347656 2.066406 3.003906 3.957031 5.0625 5.605468 5.386719 4.308594 11.90625 5.65625 18.347656 5.65625 4.421875 0 8.808594-.636718 12.765625-1.378906 20.152344-3.796875 32.480469-11.953125 36.640625-24.25 1.722656-5.085937 1.75-10.242187 1.777344-15.234375.011719-2.257812.023437-4.390625.1875-6.492187.125-1.589844.351562-3.179688.636719-4.765625 23.023437 23.050781 32.808593 54.007812 36.960937 76.316406 5.582031 30.019531 4.695313 61.214844 3.839844 91.386719zm0 0"/></svg>