<svg height="512pt" viewBox="-90 0 512 512.00111" width="512pt" xmlns="http://www.w3.org/2000/svg"><path d="m88.453125 198.046875c-14.839844-27.5625-17.503906-61.449219-7.128906-90.644531 3.269531-9.191406 7.300781-15.863282 12.332031-20.402344l3.789062-3.421875 2.414063 4.503906c1.632813 3.046875 3.929687 4.902344 7.230469 5.84375 5.9375 1.695313 12.714844 1.835938 19.722656 1.835938h1.617188c3.152343 0 6.125 0 8.976562.144531 12.75.636719 25.929688 1.238281 39.175781 1.789062 15.101563.613282 29.820313 1.148438 43.738281 1.585938.609376.019531 1.269532.039062 1.964844.039062 2 0 4.570313-.167968 6.671875-1.5 3.964844-2.511718 4.613281-7.996093 4.761719-11.90625l.375-10.171874 6.648438 7.707031c11.027343 12.78125 17.054687 30.664062 16.972656 50.351562-.101563 21.847657-7.453125 42.949219-13.847656 58.890625-.652344 1.632813-1.34375 2.835938-2.109376 3.664063l-2.433593 2.617187-2.875-2.121094c-.59375-.441406-1.222657-1.082031-1.972657-2.015624-8.289062-10.34375-13.332031-23.671876-14.589843-38.546876-1.070313-12.617187.597656-26.503906 4.960937-41.269531-16.011718 10.152344-34.867187 15.535157-54.578125 15.539063-19.03125 0-37.339843-5.058594-52.9375-14.625 2.066407 28.535156-5.949219 58.582031-22.042969 82.453125l-3.699218 5.492187zm0 0" fill="#935252"/><path d="m271.980469 506.933594-.367188-3.589844c-2.394531-23.605469-2.820312-47.535156-1.269531-71.117188-1.59375 23.242188-1.195312 46.902344 1.132812 70.308594l.433594 4.394532h-5.503906l-42.910156-.066407v-4.914062l.292968-.609375c4.382813-12.972656 7.585938-26.476563 10.683594-39.539063l.109375-.464843c2.375-10 4.832031-20.339844 7.808594-30.34375 8.425781-28.339844 20.046875-48.851563 35.527344-62.710938l1.054687-.933594c1.792969-1.582031 4.019532-3.542968 5.691406-5.699218l2.949219-3.796876 3.199219 3.589844c14.164062 15.90625 24.976562 36.40625 31.257812 59.28125 5.671876 20.640625 7.96875 44.074219 6.832032 69.644532-.242188 5.273437-.96875 10.574218-4.605469 13.671874-3.214844 2.734376-7.863281 2.964844-11.964844 2.964844zm0 0" fill="#985bbc"/><path d="m17.402344 507.933594c-2.789063 0-5.695313-.21875-8.0625-1.792969-4.152344-2.765625-4.914063-8.347656-5.113282-13.445313-.820312-20.917968 1.515626-43.824218 7.148438-70.023437 2.25-10.464844 5.253906-22.652344 10.480469-33.71875 5.117187-10.820313 12.070312-19.738281 20.113281-25.796875l2.847656-2.144531 2.457032 2.582031c1.203124 1.265625 2.523437 2.445312 4 3.742188l1.050781.929687c15.503906 13.878906 27.121093 34.390625 35.535156 62.726563 3.011719 10.121093 5.496094 20.589843 7.902344 30.714843l.023437.097657c3.121094 13.144531 6.347656 26.738281 10.757813 39.75l.054687.179687c.058594.171875.109375.347656.148438.519531l1.027344 4.765625-4.875.082031c-12.015626.195313-24.804688.265626-37.945313.328126-.742187 0-1.464844 0-2.1875.011718l-4.480469.058594.449219-4.457031c2.367187-23.59375 2.785156-47.421875 1.238281-70.828125 1.503906 23.765625 1.058594 47.878906-1.390625 71.675781l-.367187 3.570313-3.585938.019531c-11.710937.066406-24.117187.167969-35.542968.429687-.574219.011719-1.136719.023438-1.683594.023438zm0 0" fill="#985bbc"/><path d="m215.683594 506.917969c-.4375 0-.828125-.011719-1.121094-.019531l-23.867188-.660157c-6.035156-.175781-12.246093-.6875-16.109374-4.785156-4.550782-4.820313-3.875-12.304687-2.886719-18.941406l9.230469-61.8125c3.121093-20.980469 6.355468-42.675781 13.667968-63.105469 6.078125-16.941406 14.402344-31.109375 24.75-42.121094l1.234375-1.339844c3.78125-4.101562 7.679688-8.324218 13.300781-8.324218.277344 0 .5625.011718.851563.035156 7.101563.511719 15.4375 4.082031 23.460937 10.046875 8.785157 6.527344 15.859376 15.078125 22.355469 23.277344 4.257813 5.378906 8.007813 11.179687 6.65625 17.171875-1.015625 4.535156-4.683593 7.777344-8.226562 10.917968l-1.117188.992188c-15.476562 13.855469-27.101562 34.375-35.53125 62.71875-3.015625 10.15625-5.503906 20.644531-7.90625 30.789062-3.121093 13.148438-6.34375 26.71875-10.769531 39.785157-.507812 1.519531-.988281 2.644531-1.792969 3.496093-1.589843 1.65625-4.015625 1.878907-6.179687 1.878907zm0 0" fill="#d34242"/><path d="m114.574219 506.917969c-2.15625 0-4.570313-.21875-6.148438-1.839844-.894531-.945313-1.34375-2.125-1.800781-3.460937-4.425781-13.050782-7.644531-26.609376-10.753906-39.71875l-.027344-.113282c-2.398438-10.109375-4.878906-20.5625-7.925781-30.816406-8.417969-28.34375-20.046875-48.863281-35.539063-62.726562l-1.074218-.964844c-3.5625-3.152344-7.226563-6.394532-8.261719-10.925782-1.347657-5.992187 2.40625-11.800781 6.664062-17.179687 6.496094-8.203125 13.570313-16.75 22.351563-23.28125 7.996094-5.949219 16.3125-9.515625 23.417968-10.042969.296876-.027344.59375-.035156.890626-.035156 5.632812 0 9.523437 4.222656 13.289062 8.308594l.414062.445312c.273438.292969.542969.585938.816407.871094 10.378906 11.054688 18.703125 25.230469 24.765625 42.15625 3.28125 9.167969 6.039062 19.445312 8.425781 31.425781 2.117187 10.613281 3.710937 21.324219 5.253906 31.683594l9.230469 61.808594c.988281 6.636719 1.660156 14.121093-2.886719 18.945312-3.863281 4.09375-10.078125 4.605469-16.113281 4.78125l-23.867188.660157c-.292968.007812-.6875.019531-1.121093.019531zm0 0" fill="#d34242"/><g fill="#ffbf48"><path d="m236.449219 33.632812c-4.550781 0-8.238281-2.015624-10.378907-5.671874-2.585937-4.433594-2.519531-10.65625.164063-15.136719 2.183594-3.640625 5.75-5.644531 10.039063-5.644531.117187 0 .523437.011718.523437.011718 8.335937.296875 12.09375 7.222656 12.058594 13.53125-.03125 6.0625-3.8125 12.6875-12.035157 12.90625zm0 0"/><path d="m222.144531 99.25c-.582031 0-1.1875-.011719-1.8125-.03125-15.046875-.480469-29.761719-1.015625-43.742187-1.59375-13.304688-.550781-26.488282-1.15625-39.183594-1.789062-2.542969-.117188-5.230469-.136719-7.75-.136719l-2.714844.003906c-7.054687 0-13.878906-.140625-19.832031-1.835937-7.929687-2.277344-9.085937-9.757813-10.207031-16.996094l-.417969-2.625c-1.605469-9.398438-2.859375-18.992188-3.722656-28.484375l-.878907-9.617188 28.371094 23.632813 16.171875-24.941406 2.546875-3.941407 3.488282 3.144531c7.71875 6.957032 14.011718 15.640626 18.199218 25.113282l16.960938-23.167969 2.972656-4.074219 3.289062 3.816406c6.320313 7.332032 11.847657 15.363282 16.421876 23.867188l28.085937-22.625 6.746094-5.445312-1.433594 53.15625c-.148437 5.320312-.828125 10.585937-4.792969 13.09375-2.054687 1.300781-4.574218 1.476562-6.765625 1.476562zm0 0"/><path d="m166.390625 372.644531c-9.695313 0-19.199219-2.953125-26.773437-8.3125l-1.769532-.664062-.683594-1.851563c-.464843-1.417968-.945312-2.832031-1.453124-4.238281-2.089844-5.839844-4.496094-11.453125-7.15625-16.6875-2.613282-5.148437-5.542969-10.03125-8.699219-14.519531l5.492187-5.625c8.613282 5.765625 17.699219 10.816406 27.007813 15.007812 3.4375 1.542969 7.449219 3.210938 11.5625 3.441406.394531.027344.730469.035157 1.054687.035157 6.113282 0 12.039063-3.003907 17.109375-5.816407 8.375-4.652343 16.726563-9.839843 24.820313-15.425781l5.464844 5.699219c-7.195313 9.554688-13.195313 20.957031-17.828126 33.882812-.679687 1.914063-1.34375 3.90625-2.03125 6.070313l-.445312 1.40625-1.253906.78125c-7.167969 4.457031-15.609375 6.8125-24.417969 6.816406zm0 0"/><path d="m182.296875 31.542969c-4.535156 0-8.210937-2.011719-10.34375-5.664063-2.582031-4.417968-2.515625-10.640625.15625-15.125 2.1875-3.648437 5.757813-5.652344 10.054687-5.652344.113282 0 .511719.011719.511719.011719 8.335938.292969 12.097657 7.214844 12.058594 13.519531-.015625 6.066407-3.789063 12.699219-12.039063 12.90625zm0 0"/><path d="m167.199219 506.277344c-2.351563 0-4.730469-.035156-7.066407-.097656l-7.214843-.203126 3.996093-6.011718c3.527344-5.304688 2.386719-12.914063 1.703126-17.460938l-9.230469-61.8125c-2.34375-15.769531-4.769531-32.066406-8.976563-47.925781l-2.21875-8.359375 7.804688 3.722656c6.246094 2.976563 13.308594 4.550782 20.429687 4.550782 6.09375 0 12.226563-1.175782 17.730469-3.398438l7.363281-2.976562-1.992187 7.6875c-4.023438 15.519531-6.382813 31.367187-8.667969 46.695312l-9.21875 61.8125c-.648437 4.265625-1.84375 12.195312 1.742187 17.523438l4.132813 6.144531-7.402344.089843c-.960937.011719-1.9375.019532-2.914062.019532zm0 0"/><path d="m137.726562 30.503906c-4.515624 0-8.179687-2.011718-10.3125-5.664062-2.589843-4.414063-2.53125-10.632813.144532-15.128906 2.1875-3.648438 5.757812-5.652344 10.058594-5.652344.183593 0 .382812.003906.582031.015625 8.292969.328125 12.03125 7.230469 11.996093 13.519531-.03125 6.070312-3.8125 12.699219-12.039062 12.90625-.140625.003906-.285156.003906-.429688.003906zm0 0"/><path d="m92.796875 33.421875c-4.53125 0-8.203125-2.015625-10.34375-5.671875-2.59375-4.414062-2.53125-10.636719.148437-15.121094 2.175782-3.644531 5.746094-5.648437 10.054688-5.648437h.519531c8.308594.292969 12.074219 7.214843 12.058594 13.519531-.03125 6.070312-3.808594 12.695312-12.03125 12.917969zm0 0"/></g><path d="m245.871094 228.21875c-2.820313 0-5.539063-.492188-8.089844-1.460938l-3.308594-1.257812.847656-3.433594c1.851563-7.535156 3.28125-15.097656 4.660157-22.414062l.136719-1.726563 1.210937-1.066406c.957031-.84375 1.828125-2.238281 2.59375-4.144531.878906-2.195313 1.761719-4.460938 2.621094-6.730469l1.253906-3.308594 3.4375.839844c7.875 1.921875 14.394531 8.132813 16.601563 15.820313 2.410156 8.386718-.59375 18.136718-7.292969 23.710937-3.996094 3.332031-9.207031 5.171875-14.671875 5.171875zm0 0" fill="#ffdac4"/><path d="m169.703125 285.269531c-1.59375 0-3.226563-.054687-4.84375-.15625-20.59375-1.316406-40.300781-10.898437-54.066406-26.285156-12.714844-14.222656-20.082031-33.363281-20.207031-52.523437l-.011719-1.671876 1.210937-1.207031c16.921875-22.609375 26.351563-51.875 25.878906-80.339843l-.109374-6.679688 5.941406 3.058594c14.136718 7.277344 30.308594 11.121094 46.773437 11.121094 16.300781 0 32.351563-3.773438 46.425781-10.910157l7.574219-3.84375-1.863281 8.285157c-2.558594 11.390624-3.425781 22.21875-2.585938 32.1875 1.265626 14.890624 6.3125 28.226562 14.605469 38.5625.464844.59375 1.511719 1.921874 2.878907 2.570312l2.78125 1.328125-.570313 3.027344c-2.902344 15.347656-5.769531 29.113281-11.410156 42.136719-4.804688 11.09375-13.785157 26.078124-29.3125 34.460937-8.339844 4.5-18.398438 6.878906-29.089844 6.878906zm0 0" fill="#ffdac4"/><path d="m164.996094 339.164062c-.359375 0-.714844-.011718-1.070313-.03125-4.097656-.226562-7.945312-1.820312-11.539062-3.433593-13.496094-6.082031-26.277344-13.8125-37.996094-22.980469l-2.941406-2.300781 2.097656-3.09375c6.03125-8.898438 9.3125-19.273438 9.480469-30.007813l.109375-6.929687 5.945312 3.5625c10.929688 6.550781 23.300781 10.433593 35.777344 11.230469 1.695313.109374 3.273437.160156 4.824219.160156 10.710937 0 20.785156-2.378906 29.140625-6.890625 2.507812-1.355469 5.003906-2.992188 7.414062-4.851563l6.214844-4.800781.230469 7.847656c.261718 8.917969 3.679687 17.96875 9.378906 24.832031l2.625 3.160157-3.230469 2.539062c-12.40625 9.746094-25.660156 18.554688-39.402343 26.183594-5.296876 2.9375-10.976563 5.804687-17.058594 5.804687zm0 0" fill="#ffdac4"/><path d="m82.355469 226.644531c-5.332031 0-10.441407-2.042969-14.015625-5.613281-5.5-5.488281-7.226563-14.308594-4.199219-21.453125 2.71875-6.402344 9.269531-11.15625 16.300781-11.832031l2.871094-.273438 1.167969 2.636719c1.699219 3.832031 3.566406 7.496094 5.558593 10.902344l.582032.996093-.039063 1.15625c-.199219 5.921876.269531 11.855469 1.390625 17.632813l.625 3.21875-3.035156 1.246094c-2.242188.917969-4.664062 1.382812-7.207031 1.382812zm0 0" fill="#ffdac4"/><path d="m325.992188 419.644531c-6.738282-24.523437-18.488282-46.289062-33.976563-62.9375-.199219-.214843-.417969-.398437-.648437-.5625 1.109374-7.210937-2.984376-13.625-7.636719-19.5-6.660157-8.410156-13.933594-17.195312-23.109375-24.019531-6.109375-4.542969-15.511719-10.113281-25.609375-10.839844-2.320313-.167968-4.394531.195313-6.28125.882813-.140625-.183594-.289063-.363281-.464844-.523438-8.136719-7.511719-12.496094-19.023437-11.378906-30.039062.085937-.863281-.109375-1.683594-.503907-2.382813 7.335938-7.871094 12.277344-16.839844 15.457032-24.183594 2.082031-4.8125 3.792968-9.734374 5.257812-14.714843 2.789063.953125 5.742188 1.425781 8.707032 1.425781 6.261718 0 12.550781-2.089844 17.34375-6.085938 7.894531-6.578124 11.425781-18.070312 8.59375-27.949218-2.515626-8.769532-9.960938-15.945313-18.722657-18.425782 4.683594-13.703124 8.675781-29.578124 8.753907-45.96875.109374-23.429687-8.199219-44.59375-22.796876-58.066406-.289062-.269531-.617187-.464844-.953124-.632812l1.019531-37.640625c6.996093-1.046875 13.832031-6.425781 13.878906-16.75.039063-8.464844-5.4375-17.226563-15.984375-17.597657-6.015625-.214843-11.179688 2.5625-14.195312 7.613282-3.457032 5.789062-3.527344 13.53125-.175782 19.265625.875 1.488281 1.945313 2.78125 3.183594 3.859375l-24.238281 19.570312c-3.886719-6.652344-8.339844-12.964844-13.289063-18.871094 5.699219-2.058593 10.539063-7.238281 10.578125-15.921874.039063-8.464844-5.4375-17.226563-15.980469-17.597657-6-.207031-11.179687 2.5625-14.199218 7.617188-3.457032 5.785156-3.527344 13.527343-.171875 19.261719 1.445312 2.476562 3.449219 4.410156 5.847656 5.71875l-12.949219 17.75c-3.925781-7.113282-8.972656-13.59375-14.882812-19.171876 4.402344-2.597656 7.757812-7.398437 7.792968-14.613281.039063-8.464843-5.4375-17.230469-15.984374-17.6015622-6.003907-.2109378-11.179688 2.5625002-14.195313 7.6171872-3.457031 5.785156-3.527344 13.527344-.175781 19.261719 1.9375 3.316406 4.871094 5.65625 8.410156 6.824219l-12.953125 20.027344-20.734375-17.265626c5.738281-2.035156 10.628906-7.222656 10.671875-15.949218.039063-8.464844-5.4375-17.230469-15.984375-17.601563-6.015625-.214843-11.179688 2.566407-14.195312 7.617188-3.457032 5.785156-3.527344 13.527343-.175782 19.261719 2.050782 3.507812 5.21875 5.921874 9.039063 7.015624.839843 12.734376 2.351562 25.566407 4.5 38.148438.140625.832031.273437 1.675781.402343 2.523438.214844 1.367187.441407 2.828124.738282 4.320312-6.804688 4.941406-12.09375 12.886719-16.125 24.226562-8.957032 25.210938-8.660156 53.042969.273437 78.011719-7.554687 1.515625-14.339843 6.792969-17.367187 13.945313-3.65625 8.636718-1.574219 19.292968 5.066406 25.914062 4.4375 4.421875 10.664062 6.808594 16.882812 6.808594 2.585938 0 5.164063-.417969 7.617188-1.269531 3.488281 11.8125 9.535156 22.855469 17.796875 32.09375 3.386719 3.78125 7.125 7.214843 11.125 10.296875-.050781.3125-.078125.632812-.054687.964844.921874 12.277343-2.789063 24.660156-10.226563 34.433593-3.472656-3.191406-7.714844-5.859375-13.363281-5.449219-10.097656.726563-19.503906 6.292969-25.613282 10.839844-9.175781 6.820313-16.449218 15.605469-23.109374 24.019532-4.886719 6.167968-9.167969 12.933593-7.4375 20.59375.191406.847656.453124 1.648437.761718 2.421874-8.722656 6.472657-16.183594 15.953126-21.660156 27.550782-5.410156 11.457031-8.488281 23.921875-10.785156 34.601562-5.707032 26.535156-8.074219 49.773438-7.238282 71.039063.226563 5.761719 1.214844 12.863281 6.917969 16.660156 3.25 2.167969 7.003907 2.484375 10.140625 2.484375.683594 0 1.339844-.015625 1.953125-.027344 14.445313-.332031 30.382813-.40625 45.796875-.484375 15.441406-.074219 31.410156-.148437 45.921875-.480469.359375-.007812.699219-.078124 1.027344-.175781.902344.113281 1.769531.15625 2.535156.15625.496094 0 .953125-.015625 1.351563-.023437l23.859375-.664063c2.398437-.070312 5.550781-.164062 8.78125-.832031.03125.007812.0625.019531.097656.023438 4.648437.5625 11.65625.851562 18.449219.851562 6.03125 0 11.882812-.226562 15.765625-.6875 2.890625.5 5.664062.582031 7.820312.644531l23.863281.664063c.398438.007812.855469.023437 1.347657.023437 1.105469 0 2.414062-.078125 3.753906-.363281.457031.183594.953125.292969 1.476563.292969 14.589843.03125 29.976562.054687 45.363281.074219 15.386719.019531 30.773437.039062 45.359375.074218h.65625c4.175781 0 10.101562-.175781 14.519531-3.925781 4.835937-4.109375 5.757813-10.402344 6.035156-16.585937 1.164063-25.996094-1.179687-49.855469-6.964843-70.910157zm-135.214844-63.429687c-.738282 2.0625-1.421875 4.136718-2.085938 6.214844-14.078125 8.761718-33.261718 8.214843-46.792968-1.386719-.296876-.210938-.613282-.359375-.933594-.480469-.480469-1.453125-.972656-2.902344-1.488282-4.347656v.003906c-4.34375-12.117188-9.820312-22.875-16.355468-32.144531 8.746094 5.859375 17.972656 10.996093 27.589844 15.324219 3.765624 1.695312 8.183593 3.527343 12.984374 3.796874.429688.023438.855469.035157 1.277344.035157 7.046875 0 13.507813-3.242188 19.054688-6.324219 8.605468-4.777344 17.015625-10.011719 25.148437-15.632812-7.4375 9.882812-13.609375 21.585937-18.398437 34.941406zm73.214844-155.777344c1.976562 6.90625-.492188 14.9375-6.007813 19.535156-5.09375 4.246094-12.59375 5.398438-18.777344 3.042969 1.875-7.601563 3.316407-15.265625 4.738281-22.800781.019532-.121094.015626-.238282.027344-.355469 1.4375-1.273437 2.664063-3.160156 3.664063-5.65625.871093-2.175781 1.761719-4.449219 2.648437-6.804687 6.390625 1.566406 11.890625 6.707031 13.707032 13.039062zm-34.328126-185.554688c1.464844-2.453124 3.691407-3.699218 6.613282-3.699218.125 0 .25.003906.375.007812 6.511718.230469 8.222656 6.082032 8.207031 9.503906-.019531 4.023438-2.164063 8.773438-8.140625 8.929688-3.28125.074219-5.714844-1.152344-7.191406-3.683594-1.855469-3.171875-1.796875-7.820312.136718-11.058594zm-54.121093-2.078124c1.464843-2.457032 3.691406-3.703126 6.617187-3.703126.125 0 .25.003907.375.007813 6.507813.230469 8.21875 6.082031 8.203125 9.503906-.019531 4.023438-2.160156 8.777344-8.140625 8.933594-3.273437.078125-5.714844-1.15625-7.191406-3.683594-1.855469-3.171875-1.796875-7.824219.136719-11.058593zm-44.679688 10.015624c-1.855469-3.171874-1.796875-7.820312.136719-11.058593 1.464844-2.457031 3.691406-3.699219 6.617188-3.699219.121093 0 .246093 0 .371093.003906 6.511719.230469 8.222657 6.085938 8.207031 9.507813-.019531 4.023437-2.164062 8.773437-8.140624 8.929687-3.257813.082032-5.710938-1.152344-7.191407-3.683594zm-9.980469 40.917969c1.140626-.175781 2.152344-.828125 2.777344-1.796875l16.125-24.933594c7.320313 6.605469 13.230469 14.742188 17.222656 23.765626.582032 1.316406 1.824219 2.222656 3.257813 2.375 1.433594.160156 2.839844-.46875 3.6875-1.632813l16.894531-23.171875c6.136719 7.105469 11.480469 14.875 15.933594 23.148438.566406 1.054687 1.574219 1.804687 2.75 2.039062 1.175781.242188 2.398438-.058594 3.332031-.8125l28.039063-22.640625-1.203125 44.492187c-.105469 4.007813-.539063 8.308594-2.921875 9.820313-1.429688.90625-3.710938.910156-6.328125.828125-14.488281-.457031-29.191407-.992188-43.699219-1.589844-12.988281-.535156-26.160156-1.136718-39.144531-1.785156-2.570313-.128906-5.195313-.140625-7.949219-.140625-.40625 0-.816406 0-1.226562 0-7.03125.007813-14.28125.011719-20.222657-1.6875-5.199219-1.484375-6.179687-6.195313-7.351562-13.757813-.140625-.890624-.277344-1.777343-.425781-2.644531-1.589844-9.3125-2.824219-18.765625-3.6875-28.214843l20.953124 17.449218c.886719.738282 2.042969 1.058594 3.1875.890625zm-34.980468-38.003906c-1.855469-3.171875-1.796875-7.820313.136718-11.058594 1.464844-2.457031 3.691407-3.699219 6.617188-3.699219.121094 0 .246094 0 .375.007813 6.507812.226563 8.21875 6.082031 8.203125 9.503906-.019531 4.023438-2.160156 8.773438-8.140625 8.929688-3.28125.085937-5.710938-1.15625-7.191406-3.683594zm-.804688 83.003906c3.023438-8.515625 6.722656-14.703125 11.238282-18.769531 1.859374 3.46875 4.78125 6.40625 9.660156 7.800781 7.027344 2.007813 14.832031 2.003907 22.441406 1.996094 3.085938 0 6.019531-.007813 8.765625.132813 13.007813.648437 26.203125 1.25 39.214844 1.785156 14.535156.601562 29.265625 1.136718 43.777343 1.59375.652344.019531 1.351563.039062 2.089844.039062 2.730469 0 5.945313-.300781 8.808594-2.121094 5.726562-3.628906 6.457031-10.8125 6.625-15.132812 10.304688 11.949219 16.078125 28.976562 15.992188 47.722656-.097657 21.171875-7.296876 41.808594-13.554688 57.417969-.59375 1.480469-1.070312 2.148437-1.328125 2.429687-.226563-.171874-.625-.539062-1.234375-1.300781-7.78125-9.710937-12.523438-22.289062-13.722656-36.375-1.027344-12.128906.589844-25.523437 4.816406-39.808593.476562-1.613282-.097656-3.351563-1.441406-4.363282-1.347656-1.015625-3.179688-1.085937-4.59375-.179687-30.703125 19.589843-72.1875 19.957031-103.230469.910156-1.285156-.792969-2.910156-.792969-4.203125-.007813-1.292969.789063-2.035156 2.230469-1.925781 3.742188 2.070312 27.90625-5.664063 56.679688-21.320313 79.898438-14.175781-26.339844-16.875-59.265626-6.875-87.410157zm-13.933594 109.460938c-4.300781-4.289063-5.707031-11.464844-3.335937-17.058594 2.160156-5.113281 7.480469-8.882813 13-9.410156 1.703125 3.863281 3.621094 7.636719 5.753906 11.300781-.214843 6.226562.285157 12.445312 1.460938 18.53125-5.558594 2.273438-12.625.878906-16.878907-3.363281zm42.613282 37.964843c-12.199219-13.632812-19.074219-31.625-19.191406-49.882812.085937-.089844.183593-.167969.257812-.269531 17.71875-23.585938 27.308594-53.460938 26.824219-82.988281 29.855469 15.367187 66.917969 15.398437 96.839843.214843-2.65625 11.792969-3.554687 22.988281-2.667968 33.398438 1.328125 15.683593 6.675781 29.769531 15.460937 40.734375.675781.84375 2.121094 2.644531 4.28125 3.679687-2.636719 13.945313-5.5 28.25-11.140625 41.285157-4.554687 10.515624-13.027344 24.695312-27.546875 32.53125-8.984375 4.851562-19.96875 7.011718-31.777343 6.253906-19.558594-1.253906-38.273438-10.351563-51.339844-24.957032zm13.242187 21.21875c11.359375 6.796876 24.289063 10.933594 37.578125 11.789063 1.714844.109375 3.40625.164063 5.089844.164063 11.398438 0 22.042969-2.515626 31.035156-7.371094 2.863282-1.542969 5.503906-3.308594 7.957032-5.207032.292968 9.878907 3.996093 19.675782 10.308593 27.277344-12.21875 9.59375-25.296875 18.285156-38.875 25.824219-5.117187 2.839844-10.570312 5.589844-15.960937 5.285156-3.425782-.191406-6.882813-1.636719-10.132813-3.097656-13.246093-5.964844-25.726562-13.53125-37.167969-22.480469 6.421876-9.464844 9.992188-20.738281 10.167969-32.183594zm-62.085937 226.042969c-.738282.003907-1.480469.007813-2.222656.011719 2.386718-23.703125 2.820312-47.730469 1.25-71.484375-.148438-2.222656-2.0625-3.898437-4.289063-3.757813-2.222656.148438-3.902344 2.070313-3.757813 4.289063 1.5625 23.59375 1.109376 47.460937-1.304687 70.996094-12.132813.066406-24.316406.171875-35.617187.429687-3.066407.070313-5.730469.035156-7.4375-1.101562-2.667969-1.777344-3.183594-6.421875-3.332032-10.269532-.808594-20.582031 1.5-43.160156 7.0625-69.027343 2.199219-10.234375 5.132813-22.140625 10.195313-32.855469 4.851562-10.273438 11.355469-18.628906 18.898437-24.308594 1.371094 1.441406 2.847656 2.75 4.253906 3.992188l1.039063.925781c14.914063 13.34375 26.148437 33.253906 34.355469 60.859375 2.988281 10.058594 5.464844 20.5 7.863281 30.601562 3.140625 13.238282 6.390625 26.925782 10.863281 40.117188.027344.078125.058594.167969.085938.25-12.25.207031-25.25.269531-37.90625.332031zm74.511718-1.1875-23.859374.664063c-1.078126.027344-3.601563.101562-4.289063-.617188-.339844-.351562-.683594-1.363281-.910156-2.03125-4.347657-12.828125-7.550781-26.332031-10.648438-39.390625-2.421875-10.207031-4.925781-20.761719-7.980469-31.03125-8.644531-29.082031-20.648437-50.203125-36.707031-64.574219l-1.074219-.957031c-3.230468-2.855469-6.28125-5.554687-7.027343-8.835937-.984375-4.355469 2.253906-9.210938 5.894531-13.8125 6.332031-7.992188 13.210938-16.316406 21.601562-22.554688 7.421876-5.519531 15.015626-8.8125 21.378907-9.269531.183593-.011719.363281-.019531.539062-.019531 3.609375 0 6.363281 2.691406 10.355469 7.023437.425781.464844.851562.921875 1.273438 1.375 9.972656 10.613281 18.015624 24.316407 23.894531 40.730469 7.164062 19.996094 10.378906 41.527344 13.488281 62.351562l9.226562 61.8125c.851563 5.707032 1.480469 12.09375-1.835937 15.609376-2.824219 2.992187-8.128906 3.382812-13.320313 3.527343zm20.796876-.058593c4.359374-6.5625 3.070312-15.332032 2.332031-20.269532l-9.226563-61.8125c-2.382812-15.984375-4.835937-32.375-9.074218-48.363281 6.886718 3.285156 14.519531 4.941406 22.152343 4.941406 6.570313 0 13.144531-1.230469 19.234375-3.691406-4.042968 15.59375-6.429687 31.546875-8.753906 47.113281l-9.226562 61.8125c-.738282 4.957032-2.035157 13.777344 2.386718 20.347656-3.226562.042969-6.609375.015626-9.824218-.078124zm54.429687.722656-23.863281-.664063c-5.191406-.144531-10.492188-.535156-13.316406-3.527343-3.320313-3.519532-2.691407-9.902344-1.839844-15.609376l9.226562-61.8125c3.109375-20.820312 6.320313-42.351562 13.488282-62.351562 5.882812-16.414062 13.921874-30.117188 23.894531-40.730469.425781-.453125.847656-.914062 1.277343-1.378906 4.1875-4.542969 7.011719-7.285156 10.890626-7 6.367187.457031 13.960937 3.75 21.378906 9.265625 8.390625 6.242188 15.273437 14.566406 21.601562 22.558594 3.644532 4.597656 6.878906 9.457031 5.894532 13.8125-.742188 3.28125-3.789063 5.976562-7.019532 8.832031l-1.082031.960937c-16.054687 14.367188-28.0625 35.492188-36.703125 64.574219-3.054688 10.269531-5.558594 20.820313-7.980469 31.027344-3.097656 13.058594-6.300781 26.5625-10.652343 39.398437-.226563.667969-.570313 1.675782-.910157 2.03125-.6875.714844-3.210937.644532-4.285156.613282zm110.230469-12.710938c-.195313 4.363282-.714844 8.691406-3.199219 10.800782-2.207031 1.871093-6.007813 2.027343-9.9375 2.011718-11.679687-.027344-23.875-.046875-36.171875-.0625-2.367188-23.359375-2.804688-47.042968-1.253906-70.457031.148437-2.21875-1.535156-4.140625-3.757813-4.289063-2.226562-.144531-4.140625 1.535157-4.289062 3.757813-1.558594 23.582031-1.136719 47.4375 1.199219 70.976563-.363282 0-.726563 0-1.089844 0-13.136719-.019532-26.269532-.035157-38.90625-.0625 0-.007813.003906-.015626.007812-.023438 4.472656-13.191406 7.71875-26.882812 10.863282-40.125 2.394531-10.097656 4.871093-20.539062 7.859374-30.59375 8.207032-27.609375 19.445313-47.515625 34.355469-60.859375l1.042969-.929687c2.105469-1.859376 4.363281-3.863282 6.195312-6.242188 13.761719 15.453125 24.253907 35.332031 30.394532 57.683594 5.566406 20.246094 7.816406 43.261718 6.6875 68.414062zm0 0"/></svg>