<svg height="511pt" viewBox="-86 0 511 511.99963" width="511pt" xmlns="http://www.w3.org/2000/svg"><path d="m151.804688 507.25 2.078124-5.40625c3.140626-8.167969 11.660157-14.09375 20.265626-14.09375.210937 0 .421874.003906.632812.007812 8.390625.28125 16.414062 6.140626 19.503906 14.246094l2.078125 5.449219zm0 0" fill="#985bbc"/><path d="m278.492188 507.804688-.484376-3.421876c-8.921874-62.640624-7.40625-125.882812 4.511719-187.96875l1.246094-6.5 5.175781 4.128907c19.792969 15.792969 34.3125 40.742187 40.890625 70.246093 7.175781 32.203126 5.003907 65.554688 2.90625 97.808594-.632812 9.6875-2.242187 19.230469-9.664062 23.472656-3.800781 2.179688-8.433594 2.363282-12.476563 2.363282zm0 0" fill="#935252"/><path d="m249.195312 172.75c-.519531 0-1.039062-.023438-1.550781-.074219l-4.546875.003907.480469-4.433594c.96875-8.945313 1.625-18.011719 1.949219-26.941406l.144531-3.972657 3.972656.117188c5.726563.171875 11.214844 3.152343 14.328125 7.777343 3.695313 5.492188 3.894532 13.296876.480469 18.972657-3.128906 5.195312-9.117187 8.550781-15.257813 8.550781zm0 0" fill="#935252"/><path d="m197.957031 225.402344c-11.578125 0-23.152343-4.992188-30.964843-13.355469-5.097657 8.078125-14.789063 12.902344-25.976563 12.902344-4.792969 0-9.511719-.90625-13.640625-2.617188-15.394531-6.363281-24.488281-20.875-29.402344-31.929687-5.542968-12.476563-8.957031-26.972656-10.433594-44.316406l-.480468-5.648438 5.484375 1.441406c1.183593.3125 2.410156.46875 3.652343.46875 3.277344 0 6.441407-1.082031 8.90625-3.046875 4.074219-3.265625 6.074219-8.949219 4.972657-14.140625l-.632813-2.976562 2.699219-1.40625c.839844-.4375 1.613281-.925782 2.308594-1.464844 3.179687-2.464844 5.023437-6.882812 4.378906-10.503906l-.832031-4.667969 102.351562-.6875-1.488281 5.144531c-.820313 2.84375-.105469 6.152344 1.875 8.636719.863281 1.085937 2.007813 2.0625 3.410156 2.90625l2.554688 1.542969-.75 2.886718c-1.109375 4.265626 0 8.914063 2.890625 12.132813 2.433594 2.699219 6.121094 4.3125 9.867187 4.3125.65625 0 1.332031-.050781 2.011719-.152344l4.816406-.730469-.222656 4.867188c-.414062 9.042969-1.152344 18.117188-2.191406 26.972656-1.371094 11.625-3.457032 24.914063-10.921875 35.535156-7.101563 10.117188-19.179688 16.9375-31.523438 17.800782-.898437.0625-1.8125.09375-2.71875.09375zm0 0" fill="#935252"/><path d="m170.902344 377.984375c-1.339844 0-2.703125-.011719-4.09375-.035156-15.566406-.261719-33.121094-1.964844-45.304688-12.621094-8.460937-7.398437-13.992187-18.691406-16.910156-34.515625-.972656-5.277344-1.632812-10.699219-2.269531-15.945312-.824219-6.867188-1.757813-14.636719-3.574219-22.058594l-.671875-2.746094 2.363281-1.550781c4.023438-2.640625 7.402344-5.351563 10.332032-8.289063 6.238281-6.246094 13.535156-17.152344 15.304687-29.023437l1.027344-6.882813 5.429687 4.347656c.203125.164063.410156.320313.621094.476563 3.851562 2.910156 7.886719 5.640625 11.792969 8.28125l.417969.285156c9.589843 6.480469 18.585937 12.5625 25.808593 21.023438h.027344c3.21875-6.070313 8.757813-11.226563 17.453125-16.238281 2.484375-1.429688 5.074219-2.777344 7.574219-4.085938l.125-.0625c4.042969-2.105469 8.222656-4.28125 12.109375-6.875l5.761718-3.839844.449219 6.910156c.828125 12.738282 10.882813 25.015626 20.476563 31.53125 1.171875.789063 2.480468 1.601563 3.988281 2.476563l2.234375 1.296875-.261719 2.570312c-1.457031 14.226563-3.105469 30.347657-8.6875 45.128907-6.246093 16.582031-16.851562 29.027343-29.851562 35.035156-10.316407 4.765625-21.796875 5.40625-31.671875 5.40625zm0 0" fill="#935252"/><path d="m86.992188 184.992188c-5.632813 0-11.011719-2.234376-14.765626-6.128907-5.3125-5.496093-7.070312-14.304687-4.273437-21.417969 2.4375-6.191406 8.304687-11.074218 14.945313-12.445312l4.359374-.894531.429688 4.429687c1.125 11.585938 3.109375 21.714844 6.078125 30.960938l1.386719 4.320312-4.457032.835938c-1.207031.222656-2.453124.339844-3.703124.339844zm0 0" fill="#935252"/><path d="m7.449219 506.644531-.371094-3.574219c-3.582031-34.5-3.332031-69.4375.734375-103.839843 3.015625-25.453125 10.007812-61.613281 35.828125-81.679688.378906-.300781.789063-.59375 1.207031-.890625l5.476563-3.945312 1.179687 6.160156c11.617188 60.679688 15.511719 122.664062 11.574219 184.238281l-.242187 3.757813zm0 0" fill="#935252"/><path d="m221.320312 507.550781-.265624-3.695312c-.660157-9.296875-5.941407-18.457031-13.773438-23.914063l-4.039062-2.8125 3.578124-3.378906c9.609376-9.074219 15.15625-22.269531 14.835938-35.304688-.367188-15.0625-8.40625-29.578124-20.976562-37.878906-7.414063-4.898437-16.757813-7.59375-26.308594-7.59375-8.519532 0-16.816406 2.085938-23.988282 6.03125-9.746093 5.347656-17.566406 14.152344-22.027343 24.789063-4.144531 9.910156-4.964844 20.59375-2.316407 30.089843 2.269532 8.105469 7.339844 15.496094 13.910157 20.269532l4 2.910156-3.679688 3.304688c-6.429687 5.765624-10.265625 14.28125-10.265625 22.78125v4.015624l-67.109375-.285156.269531-4.234375c3.96875-62.539062-.136718-125.4375-12.203124-186.957031l-.554688-2.820312 2.496094-1.421876c7.152344-4.078124 14.84375-7.300781 21.628906-10.144531l3.320312-1.390625c5.050782-2.136718 10.453126-4.503906 15.625-7.277344l4.679688-2.507812 1.121094 5.191406c1.417968 6.566406 2.253906 13.464844 2.988281 19.550782.597656 4.9375 1.269531 10.527343 2.265625 15.960937 2.929688 15.847656 8.46875 27.152344 16.9375 34.546875 12.191406 10.667969 29.761719 12.378906 45.335938 12.644531 1.34375.019531 2.703124.027344 4.0625.027344 9.3125 0 21.332031-.613281 31.722656-5.410156 13.015625-6.007813 23.636718-18.460938 29.90625-35.070313 5.070312-13.433594 6.84375-27.503906 8.351562-41.945312l.585938-5.605469 5.101562 2.40625c3.949219 1.863281 8.050782 3.539063 12.023438 5.160156l.433594.175781c5.761718 2.363282 11.71875 4.804688 17.257812 7.816407 1.714844.941406 3.441406 1.964843 5.144531 3.054687l2.300781 1.472656-.53125 2.675782c-12.484374 62.859375-14.296874 126.9375-5.382812 190.445312l.640625 4.574219zm0 0" fill="#985bbc"/><path d="m173.886719 463.96875c-8.347657 0-16.679688-4.382812-21.222657-11.164062-4.367187-6.535157-5.382812-15.28125-2.648437-22.828126 2.289063-6.3125 8.28125-12.429687 15.269531-15.574218 3.132813-1.402344 6.203125-2.113282 9.132813-2.113282 2.117187 0 4.160156.382813 6.070312 1.140626 13.152344 5.230468 21.140625 20.714843 17.101563 33.136718-2.859375 8.832032-11.292969 15.898438-20.511719 17.183594-1.046875.144531-2.121094.21875-3.191406.21875zm0 0" fill="#985bbc"/><path d="m102.503906 104.175781c-4.304687 0-9.285156-.125-13.933594-1.621093-2.179687-.703126-9.453124-3.542969-11.648437-10.539063-2.460937-7.863281 3.171875-15.859375 9.71875-19.386719 7.183594-3.878906 15.914063-4.089844 22.929687-4.257812 13.304688-.347656 26.785157-.523438 40.058594-.523438h3.429688c26.144531.0625 51.925781.832032 76.644531 2.289063.746094.042969 1.648437.0625 2.832031.0625.742188 0 1.511719-.007813 2.304688-.015625l.523437-.003906c1.007813-.015626 2.125-.03125 3.285157-.03125 7.691406 0 15.238281.652343 18.367187 5.398437 4.601563 6.953125 3.191406 19.71875-2.691406 24.386719-3.765625 2.996094-8.734375 3.277344-14.363281 3.324218l-135.183594.910157c-.816406.003906-1.546875.007812-2.273438.007812zm0 0" fill="#ffbf48"/><path d="m195.8125 507.445312-.734375-3.046874c-2.226563-9.214844-10.953125-16.394532-20.304687-16.703126-.230469-.007812-.453126-.011718-.675782-.011718-9.527344 0-18.761718 7.253906-21.027344 16.515625l-.75 3.0625-22.238281-.101563-.015625-3.96875c-.035156-10.542968 5.765625-20.796875 14.773438-26.117187-8.890625-4.371094-15.894532-13.027344-18.734375-23.210938-2.648438-9.46875-1.828125-20.144531 2.3125-30.046875 4.4375-10.613281 12.246093-19.40625 21.992187-24.765625 7.203125-3.957031 15.492188-6.046875 23.980469-6.046875 9.496094 0 18.816406 2.703125 26.25 7.617188 12.554687 8.289062 20.582031 22.777344 20.957031 37.816406.367188 15.039062-6.933594 29.914062-19.0625 38.8125 10.121094 4.628906 17.339844 14.78125 18.394532 25.910156l.417968 4.394532zm-21.375-95.199218c-2.988281 0-6.074219.707031-9.167969 2.101562-6.894531 3.089844-13.046875 9.359375-15.3125 15.605469-2.742187 7.566406-1.722656 16.335937 2.65625 22.882813 4.621094 6.902343 12.75 11.191406 21.214844 11.191406 1.132813 0 2.222656-.074219 3.242187-.21875 9.390626-1.296875 17.652344-8.214844 20.582032-17.21875 4.121094-12.667969-3.726563-27.878906-17.136719-33.214844-1.871094-.75-3.914063-1.128906-6.078125-1.128906zm0 0" fill="#ffbf48"/><g fill="#644c4c"><path d="m246.773438 70.53125c-2.878907-.394531-5.910157-.445312-8.230469-.445312-1.019531 0-2.015625.007812-2.972657.019531l-.242187.003906c-1.046875.015625-2.023437.027344-2.929687.027344-1.109376 0-1.972657-.019531-2.710938-.066407l-9.238281-.507812 4.003906-5.859375c3.476563-5.09375 7.289063-9.96875 11.328125-14.496094l2.078125-2.332031 2.765625 1.453125c6.722656 3.53125 11.015625 10.929687 10.6875 18.414063l-.191406 4.386718zm0 0"/><path d="m238.714844 140.957031c-3.734375 0-7.40625-1.605469-9.824219-4.296875-2.625-2.910156-3.78125-7.042968-3.085937-11.054687l.664062-3.828125 3.847656.550781c.121094.019531.242188.039063.359375.0625 1.253907.179687 2.550781.269531 3.890625.269531 2.296875 0 4.582032-.230468 6.722656-.46875l4.425782-.484375.011718 4.449219c.011719 3.457031-.027343 6.972656-.117187 10.449219l-.078125 2.902343-2.785156.828126c-.132813.035156-.257813.070312-.386719.09375-1.167969.351562-2.394531.527343-3.644531.527343zm0 0"/><path d="m234.578125 122.59375c-1.398437 0-2.664063-.082031-3.859375-.257812-2.464844-.355469-7.023438-1.492188-9.929688-5.132813-2.539062-3.175781-2.925781-7.664063-.917968-10.667969l.726562-3.054687 3.132813-.050781 17.484375-.121094h3.796875l.199219 3.789062c.171874 3.214844.300781 6.667969.40625 10.871094l.089843 3.664062-3.640625.410157c-2.296875.257812-4.898437.550781-7.488281.550781zm0 0"/><path d="m218.242188 69.453125c-4.527344-.21875-9.09375-.417969-13.683594-.597656l-4.402344-.171875.597656-4.367188c1.890625-13.800781 7.003906-27.195312 14.785156-38.734375l1.660157-2.457031 2.832031.871094c1.257812.386718 2.648438.570312 3.761719.71875.9375.125 1.929687.261718 2.855469.472656 4.1875.953125 7.902343 4.125 9.941406 8.488281 2.042968 4.378907 2.078125 9.273438.097656 13.09375l-.074219 1.398438-.914062 1.035156c-5.105469 5.71875-9.777344 11.90625-13.882813 18.394531l-1.246094 1.96875zm0 0"/><path d="m167.789062 274.96875c-6.628906-6.667969-14.609374-12.058594-22.332031-17.273438-4.082031-2.757812-8.242187-5.5625-12.21875-8.5625-8.277343-6.246093-19.011719-16.34375-23.152343-28.96875l-4.230469-12.894531 10.546875 8.539063c3.4375 2.78125 7.121094 4.996094 10.949218 6.585937 4.417969 1.828125 9.011719 2.757813 13.644532 2.757813 9.105468 0 17.875-3.652344 23.46875-9.765625l2.632812-2.875 2.941406 2.558593c7.609376 6.609376 17.742188 10.398438 27.808594 10.398438.902344 0 1.832032-.03125 2.839844-.101562 8.976562-.617188 17.757812-4.273438 24.714844-10.285157l10.285156-8.886719-3.832031 13.042969c-3.699219 12.589844-11.785157 24.011719-22.1875 31.332031-4.164063 2.9375-8.566407 5.234376-13.226563 7.660157l-.105468.054687c-2.398438 1.246094-5.113282 2.65625-7.699219 4.148438-6.683594 3.847656-11.53125 7.816406-14.828125 12.140625l-2.78125 3.652343zm0 0"/><path d="m196.496094 68.554688c-4.519532-.148438-9.046875-.277344-13.605469-.386719l-3.742187-.089844-.15625-3.742187c-.785157-18.636719-2.703126-37.335938-5.691407-55.570313l-.785156-4.796875 4.859375.152344c6.527344.207031 12.667969 2.507812 17.289062 6.484375 1.878907-1 4.046876-1.539063 6.304688-1.539063 1.410156 0 2.824219.207032 4.210938.613282 3.613281 1.0625 6.640624 3.410156 8.296874 6.4375.296876.53125.554688 1.09375.800782 1.640624l.164062.359376c.417969.929687.835938 1.855468 1.378906 2.714843l1.707032 2.703125-2.085938 2.089844c-7.914062 11.757812-13.039062 25.378906-14.84375 39.441406l-.464844 3.609375zm0 0"/><path d="m174.851562 68.007812c-6.535156-.109374-13.214843-.179687-19.851562-.210937l-3.367188-.015625-.558593-3.316406c-2.671875-15.816406-8.945313-31.121094-18.144531-44.261719l-2.460938-3.519531 3.683594-2.207032c2.972656-1.78125 5.539062-3.0625 8.074218-4.035156 3.769532-1.464844 7.511719-2.210937 11.113282-2.210937 2.394531 0 4.664062.339843 6.75 1.007812 2.355468-1.707031 5.039062-3.027343 8-3.921875l4.367187-1.316406.738281 4.5c2.984376 18.191406 4.910157 36.808594 5.71875 55.332031l.183594 4.246094zm0 0"/><path d="m120.746094 65.859375c-3.867188-7.351563-8.472656-14.367187-13.695313-20.851563l-2.164062-1.847656.996093-2.691406c3.460938-8.84375 11.644532-14.9375 20.445313-20.90625.269531-.195312.546875-.382812.824219-.566406l3.246094-2.167969 2.296874 3.15625c9.015626 12.800781 15.265626 27.703125 18.074219 43.09375l.863281 4.714844-4.792968.003906c-7.175782.011719-14.742188.078125-22.488282.203125l-2.460937.039062zm0 0"/><path d="m85.035156 66.410156c1.820313-9.550781 8.34375-18.171875 17.027344-22.5l3.105469-1.550781 1.917969 2.785156c4.292968 5.34375 8.1875 11.082031 11.578124 17.058594l3.3125 5.832031-6.964843.148438c-1.816407.035156-3.632813.074218-5.449219.121094-5.738281.140624-12.871094.316406-19.238281 2.617187l-6.601563 2.382813zm0 0"/><path d="m98.335938 123.300781c-2.753907 0-6.777344-.234375-9.929688-2.273437l-1.835938-1.1875.007813-2.183594c.007813-3.515625.046875-7 .097656-10.425781l.070313-4.835938 4.738281.976563c3.710937.765625 7.632813.867187 10.980469.867187h.058594c.753906 0 1.496093 0 2.21875-.007812l11.660156-.074219 1.199218 1.773438c2.886719 4.273437.675782 10.351562-3.199218 13.34375-4.253906 3.285156-10.027344 3.863281-14.585938 4.003906-.480468.011718-.976562.023437-1.480468.023437zm0 0"/><path d="m96.179688 142.257812c-2.65625 0-5.191407-.691406-7.328126-1.996093l-1.808593-1.105469-.101563-2.113281c-.164062-3.367188-.269531-6.824219-.324218-10.566407l-.078126-5.394531 5.1875 1.492188c1.828126.527343 3.980469.785156 6.582032.785156.507812 0 1.007812-.007813 1.488281-.027344 2.199219-.058593 4.074219-.222656 5.78125-.5l4.113281-.675781.503906 4.136719c.601563 4.910156-1.417968 10-5.148437 12.964843-2.410156 1.929688-5.5625 3-8.867187 3zm0 0"/></g><path d="m333.796875 383.40625c-8.238281-36.964844-28.503906-66.632812-55.601563-81.394531-5.832031-3.175781-12.003906-5.695313-17.96875-8.132813-8.167968-3.339844-15.886718-6.488281-22.792968-11.175781-14.792969-10.039063-20.390625-24.882813-18.269532-34.359375.03125-.148438.035157-.292969.050782-.441406 11.074218-10.699219 17.988281-25.414063 18.894531-40.902344.023437-.382812-.027344-.746094-.105469-1.097656 5.027344-8.886719 7.246094-19.140625 8.625-29.285156.125.027343.25.066406.382813.082031.726562.078125 1.460937.113281 2.1875.113281 7.503906 0 14.832031-4.039062 18.730469-10.507812 4.273437-7.097657 4.039062-16.480469-.589844-23.351563-3.910156-5.808594-10.664063-9.367187-17.597656-9.558594.144531-8.957031-.007813-17.917969-.484376-26.835937 2.640626-.578125 5.269532-1.601563 7.589844-3.445313 6.875-5.453125 9.859375-20.285156 3.554688-29.816406-1.316406-1.992187-3.121094-3.425781-5.207032-4.472656 1.324219-9.953125-4.429687-20.148438-13.382812-24.460938.84375-3.992187.328125-8.386719-1.535156-12.394531-2.566406-5.503906-7.324219-9.519531-12.734375-10.746094-1.09375-.246094-2.15625-.394531-3.1875-.53125-1.867188-.253906-3.625-.492187-4.496094-1.261718-.632813-.558594-1.152344-1.710938-1.699219-2.933594-.332031-.746094-.679687-1.519532-1.113281-2.3125-2.164063-3.972656-6.074219-7.03125-10.726563-8.398438-3.703124-1.085937-7.589843-1.015625-11.027343.152344-10.378907-7.472656-25.082031-7.949219-35.910157-1.105469-7.113281-1.660156-13.976562.019531-18.640624 1.824219-6.144532 2.378906-11.480469 6.003906-16.644532 9.507812-9.585937 6.507813-18.488281 13.210938-22.199218 23.332032-12.023438 5.210937-20.71875 17.535156-21.40625 30.652344-.027344.5625.0625 1.105468.246093 1.605468-6.050781 5.03125-10.265625 13.25-7.695312 21.472656 1.4375 4.578126 4.902343 8.535157 9.617187 11.167969-.183594 11.703125-.347656 24.035157.414063 36.460938-8.367188 1.335937-15.785157 7.167969-18.898438 15.105469-3.40625 8.675781-1.34375 19.019531 5.128907 25.726562 4.601562 4.769531 11.109374 7.375 17.648437 7.375 1.933594 0 3.867187-.234375 5.757813-.703125.496093 1.238281 1.003906 2.472656 1.550781 3.695313 2.355469 5.296874 5.636719 11.34375 10.046875 17.019531-.046875.261719-.070313.535156-.066406.8125.226562 14.46875 8.769531 26.503906 18.140624 35.390625.265626 11.84375-6.933593 24.519531-14.480468 32.074218-8.6875 8.703126-20.394532 14.066407-31.640625 18.816407l-3.304688 1.386719c-10.902343 4.570312-22.171875 9.296874-31.8125 16.789062-12.941406 10.0625-30.894531 29.757812-37.363281 84.414062-4.253906 35.941407-4.371094 72.398438-.351562 108.363282.226562 2.035156 1.945312 3.574218 3.988281 3.582031l301.898437 1.292969c.398438 0 .808594.003906 1.222656.003906 4.507813 0 9.855469-.207031 14.554688-2.902344 9.113281-5.222656 11.03125-16.445312 11.699219-26.738281 2.117187-32.542969 4.304687-66.191406-2.996094-98.953125zm-104.046875-257.117188c.136719.019532.265625.054688.402344.074219 1.480468.210938 2.957031.292969 4.417968.292969 2.480469 0 4.890626-.238281 7.15625-.488281.007813 3.445312-.03125 6.886719-.113281 10.332031-.101562.027344-.203125.035156-.304687.066406-3.273438 1.03125-7.152344-.027344-9.445313-2.578125-1.832031-2.042969-2.585937-4.992187-2.113281-7.699219zm30.902344 21.167969c2.867187 4.253907 3.019531 10.292969.371094 14.6875-2.648438 4.390625-8.0625 7.082031-13.15625 6.535157-.105469-.011719-.203126 0-.308594 0 .972656-9.035157 1.632812-18.125 1.96875-27.230469 4.355468.125 8.699218 2.402343 11.125 6.007812zm-19.035156-29.386719c-3.472657.386719-7.054688.773438-10.328126.308594-1.875-.265625-5.324218-1.097656-7.375-3.671875-1.433593-1.792969-1.746093-4.410156-.71875-5.953125.277344-.414062.457032-.867187.5625-1.328125l16.222657-.109375c.402343-.003906.816406-.003906 1.242187-.011718.1875 3.582031.308594 7.171874.394532 10.765624zm5.699218-51.503906c-4.066406-.558594-8.34375-.5-12.03125-.453125-2.011718.027344-3.910156.054688-5.347656-.03125-.722656-.042969-1.453125-.082031-2.175781-.121093 3.355469-4.925782 7.035156-9.644532 11-14.09375 5.253906 2.757812 8.816406 8.765624 8.554687 14.699218zm-24.050781-37.886718c.898437.121093 1.746094.238281 2.496094.40625 2.992187.679687 5.6875 3.027343 7.203125 6.289062 1.519531 3.257812 1.582031 6.832031.175781 9.558594-.261719.503906-.394531 1.054687-.429687 1.605468-5.257813 5.902344-10.054688 12.253907-14.277344 18.925782-4.539063-.226563-9.117188-.429688-13.71875-.609375 1.816406-13.214844 6.679687-25.976563 14.144531-37.035157 1.527344.464844 3.050781.671876 4.40625.859376zm-31.207031-15.035157c1.273437 1.09375 3.089844 1.285157 4.566406.480469 2.105469-1.152344 4.808594-1.371094 7.425781-.605469 2.613281.769531 4.769531 2.417969 5.921875 4.523438.28125.515625.550782 1.117187.835938 1.75.433594.976562.9375 2.085937 1.625 3.171875-.042969.054687-.09375.101562-.136719.160156-8.371094 12.347656-13.769531 26.648438-15.671875 41.4375-4.523438-.148438-9.0625-.28125-13.632812-.390625-.789063-18.730469-2.71875-37.566406-5.746094-56.054687 5.394531.167968 10.742187 2.019531 14.8125 5.527343zm-48.40625.527344c5.480468-2.121094 10.886718-2.515625 15.21875-1.125 1.226562.398437 2.570312.179687 3.613281-.582031 2.042969-1.492188 4.339844-2.589844 6.761719-3.3125 2.972656 18.089844 4.875 36.523437 5.667968 54.859375-6.597656-.117188-13.234374-.1875-19.894531-.210938-2.78125-16.449219-9.25-32.230469-18.8125-45.898437 2.417969-1.441406 4.890625-2.738282 7.445313-3.730469zm-15.027344 8.664063c.265625-.183594.535156-.367188.804688-.546876 8.710937 12.371094 14.6875 26.625 17.40625 41.507813-7.4375.015625-14.964844.082031-22.550782.207031-3.992187-7.589844-8.734375-14.824218-14.113281-21.503906-.171875-.210938-.363281-.402344-.566406-.570312 3.027343-7.734376 10.714843-13.457032 19.019531-19.09375zm-24.773438 24.65625c.015626.023437.023438.046874.039063.066406 4.199219 5.214844 7.984375 10.792968 11.292969 16.621094-1.90625.039062-3.8125.078124-5.726563.125-6.164062.15625-13.574219.351562-20.484375 2.859374 1.585938-8.359374 7.257813-15.878906 14.878906-19.671874zm-15.3125 28.65625c6.320313-3.40625 14.527344-3.617188 21.125-3.785157 13.476563-.34375 26.902344-.515625 39.964844-.515625 1.148438 0 2.289063.003906 3.429688.003906 26.109375.0625 51.816406.828126 76.40625 2.277344 1.722656.101563 3.765625.074219 5.929687.046875 6.285157-.085937 15.785157-.214843 18.285157 3.566407 3.421874 5.175781 2.40625 15.683593-1.84375 19.058593-2.789063 2.210938-7.042969 2.421875-11.910157 2.453125l-135.183593.914063c-5.074219.035156-10.316407.066406-14.941407-1.421875-3.535156-1.140625-7.773437-3.824219-9.0625-7.933594-1.753906-5.597656 2.589844-11.851562 7.800781-14.664062zm23.421876 39.957031c-3.339844 2.582031-8.304688 3.050781-12.261719 3.167969-3.03125.089843-6.695313-.035157-9.125-1.609376.011719-3.496093.054687-6.960937.105469-10.375 3.980468.820313 8.011718.949219 11.78125.949219.789062 0 1.570312-.003906 2.335937-.007812l9.488281-.066407c1.535156 2.28125.039063 6.113282-2.324218 7.941407zm-9.402344 20.023437c-3.171875 2.539063-8.15625 2.84375-11.621094.71875-.167969-3.488281-.269531-6.96875-.320312-10.425781 2.566406.738281 5.238281.9375 7.695312.9375.554688 0 1.097656-.011719 1.628906-.027344 1.945313-.058593 4.089844-.191406 6.285156-.550781.421876 3.441406-.984374 7.203125-3.667968 9.347656zm-27.453125 39.960938c-4.253907-4.414063-5.664063-11.476563-3.425781-17.183594 1.972656-5.027344 6.738281-8.898438 12.027343-9.984375 1.042969 10.730469 2.929688 21.441406 6.25 31.792969-5.277343.992187-11.121093-.761719-14.851562-4.625zm16.417969-30.339844c1.527343.398438 3.097656.601562 4.671874.601562 4.074219 0 8.144532-1.324218 11.398438-3.925781 5.347656-4.273437 7.804688-11.46875 6.390625-18.09375 1.003906-.523437 1.980469-1.132812 2.910156-1.847656 4.175781-3.234375 6.820313-9.050781 5.871094-14.375l92.253906-.625c-1.164062 4.011719-.265625 8.664063 2.589844 12.246094 1.203125 1.511719 2.722656 2.792969 4.46875 3.839843-1.417969 5.472657-.027344 11.554688 3.785156 15.804688 3.257813 3.628906 8.039063 5.644531 12.847657 5.644531.871093 0 1.742187-.070312 2.605468-.203125-.414062 8.933594-1.125 17.84375-2.167968 26.695313-1.308594 11.128906-3.285157 23.824219-10.222657 33.699219-6.429687 9.160156-17.363281 15.332031-28.527343 16.109374-11.15625.773438-22.84375-3.824218-30.484376-12-.851562-.917968-2.082031-1.378906-3.332031-1.261718-1.246093.121094-2.367187.8125-3.03125 1.875-7.066406 11.3125-23.488281 13.328125-34.648437 8.710937-14.175782-5.871093-22.65625-19.480469-27.273438-29.863281-6.015625-13.527344-8.835937-28.234375-10.105468-43.03125zm22.363281 73.171875c3.515625 2.84375 7.464843 5.320313 11.933593 7.167969 16.355469 6.769531 32.886719 1.519531 41.597657-7.996094 8.382812 7.269531 19.316406 11.375 30.429687 11.375 1.035156 0 2.074219-.035156 3.109375-.109375 9.992188-.695313 19.546875-4.757813 27.0625-11.253906-3.421875 11.644531-10.789062 22.25-20.652343 29.195312-3.984376 2.808594-8.308594 5.058594-12.882813 7.4375-2.582031 1.34375-5.25 2.734375-7.847656 4.230469-7.15625 4.121094-12.363281 8.390625-16.011719 13.179688-6.921875-6.957032-15.066406-12.460938-22.984375-17.808594-4-2.703125-8.136719-5.496094-11.992187-8.402344-8.363282-6.3125-18.027344-15.648438-21.761719-27.015625zm-.277344 64.125c6.9375-6.949219 14.535156-18.597656 16.421875-31.257813.253906.195313.511719.394532.761719.582032 4.023437 3.035156 8.25 5.890625 12.335937 8.652344 9.316406 6.292968 18.117188 12.238281 25.003906 20.300781.773438.90625 1.894532 1.414062 3.066407 1.414062.148437 0 .296875-.007812.449219-.023437 1.328124-.148438 2.496093-.945313 3.121093-2.128906 2.816407-5.359376 7.867188-10.011719 15.890625-14.632813 2.449219-1.410156 5.042969-2.757813 7.546875-4.0625 4.152344-2.160156 8.433594-4.394531 12.476563-7.09375.910156 13.949219 11.3125 27.175781 22.222656 34.578125 1.382812.9375 2.800781 1.800781 4.234375 2.636719-1.519531 14.847656-3.175781 30.136719-8.449219 44.117187-5.886718 15.605469-15.761718 27.261719-27.796875 32.820313-9.679687 4.46875-20.589843 5.230469-34.015625 5.003906-14.84375-.253906-31.527344-1.835937-42.738281-11.632813-7.753906-6.78125-12.859375-17.324218-15.609375-32.230468-.953125-5.15625-1.601562-10.519532-2.230469-15.707032-.894531-7.402343-1.828125-15.046874-3.660156-22.523437 3.898437-2.554687 7.601563-5.441406 10.96875-8.8125zm-37.535156 21.945313 3.324219-1.398438c5.3125-2.242188 10.730468-4.628906 15.964843-7.429688 1.367188 6.292969 2.164063 12.832032 2.933594 19.1875.644531 5.308594 1.308594 10.800782 2.304687 16.199219 3.09375 16.765625 9.058594 28.816407 18.234376 36.835938 13.164062 11.511719 31.605468 13.347656 47.90625 13.625 1.367187.023437 2.742187.039062 4.125.039062 11.308593 0 22.964843-.960937 33.40625-5.78125 13.96875-6.453125 25.320312-19.695312 31.960937-37.292969 5.25-13.914062 7.097656-28.589843 8.59375-42.9375 4.089844 1.925782 8.253906 3.628907 12.351563 5.300782 5.761718 2.355468 11.71875 4.789062 17.160156 7.75 1.660156.90625 3.292968 1.878906 4.898437 2.90625-12.578125 63.351562-14.394531 127.851562-5.417969 191.785156l-48.777343-.210938c-.75-10.652343-6.71875-20.8125-15.472657-26.914062 10.378907-9.796875 16.4375-23.984375 16.085938-38.3125-.402344-16.347656-9.125-32.101562-22.769531-41.113281-15.648438-10.335938-37.523438-11.035157-54.429688-1.738281-10.546875 5.800781-18.992187 15.300781-23.785156 26.757812-4.492187 10.738281-5.375 22.351562-2.480469 32.707031 2.542969 9.113281 8.125 17.136719 15.40625 22.425781-7.210937 6.472657-11.59375 16.058594-11.589844 25.765626l-58.847656-.253907c3.984375-62.902343-.140625-126.125-12.273437-187.980469 6.730469-3.839843 14.035156-6.925781 21.1875-9.921874zm122.894531 198.46875c-2.621094-10.847657-12.84375-19.390626-24.058594-19.761719-11.742187-.410157-22.949218 8.175781-25.726562 19.546875l-15.117188-.0625c-.03125-9.082032 4.972656-18.035156 12.8125-22.660156 1.28125-.753907 2.039063-2.152344 1.980469-3.636719s-.929687-2.816407-2.269531-3.464844c-7.878906-3.824219-14.097656-11.539063-16.636719-20.632813-2.40625-8.617187-1.640625-18.355468 2.15625-27.425781 4.089844-9.78125 11.277344-17.878906 20.230469-22.804687 14.355468-7.894532 32.882812-7.332032 46.101562 1.398437 11.476563 7.582031 18.8125 20.832031 19.152344 34.585938.339844 13.75-6.34375 27.34375-17.433594 35.480469-1.152344.847656-1.769531 2.246093-1.625 3.671874.152344 1.421876 1.042969 2.664063 2.351563 3.253907 8.800781 3.980469 15.148437 12.976562 16.058593 22.589843zm-8.425781-.039063-32.929688-.140625c2.59375-6.742188 9.792969-11.765625 17.03125-11.527344 6.890625.230469 13.441407 5.226563 15.898438 11.667969zm-178.753907-103.71875c2.925782-24.738281 9.667969-59.84375 34.304688-78.996094.480469-.375.988281-.714843 1.480469-1.074219 11.554687 60.324219 15.4375 121.929688 11.507812 183.230469l-48.023437-.207031c-3.554688-34.195312-3.3125-68.8125.730468-102.953125zm316.960938 82.132813c-.558594 8.566406-1.875 16.949218-7.664062 20.265624-3.257813 1.867188-7.765626 1.84375-11.734376 1.832032l-27.386718-.117188c-8.863282-62.203125-7.355469-124.960937 4.480468-186.648437 18.964844 15.125 33.050782 39.144531 39.480469 67.992187 7.050781 31.632813 4.902344 64.699219 2.824219 96.675782zm0 0"/><path d="m181.996094 409.65625c-5.484375-2.183594-12.007813-1.816406-18.371094 1.039062-7.9375 3.566407-14.78125 10.589844-17.429688 17.898438-3.167968 8.742188-1.984374 18.886719 3.097657 26.46875 5.386719 8.046875 14.90625 12.972656 24.535156 12.96875 1.273437 0 2.546875-.085938 3.8125-.257812 10.855469-1.507813 20.425781-9.523438 23.816406-19.945313 4.746094-14.601563-4.164062-32.082031-19.460937-38.171875zm11.792968 35.675781c-2.417968 7.4375-9.511718 13.378907-17.257812 14.453125-7.746094 1.074219-16.191406-2.714844-20.539062-9.210937-3.679688-5.488281-4.527344-12.859375-2.214844-19.234375 1.910156-5.273438 7.195312-10.613282 13.152344-13.289063 2.011718-.902343 4.664062-1.761719 7.492187-1.761719 1.507813 0 3.0625.246094 4.59375.855469 11.289063 4.496094 18.195313 17.667969 14.773437 28.1875zm0 0"/></svg>