<svg height="512pt" viewBox="-95 0 512 512.00023" width="512pt" xmlns="http://www.w3.org/2000/svg"><path d="m262.125 184.546875c-4.085938-4.304687-10.15625-6.875-16.238281-6.875-1.265625 0-2.527344.113281-3.753907.328125l-5.066406.898438 4.347656-58.617188 4.230469.601562c5.292969.75 11.421875 1.964844 16.769531 5.324219 5.640626 3.53125 10.71875 10.472657 9.347657 18.011719-.257813 1.382812-.722657 2.730469-1.167969 4.03125l-.054688.152344c-.785156 2.230468-1.585937 4.507812-1.378906 6.914062.226563 2.5625 1.550782 4.726563 2.949219 7.015625.839844 1.367188 1.578125 2.597657 2.144531 3.902344 1.535156 3.625 1.375 7.917969-.425781 11.816406-1.542969 3.328125-4.066406 5.945313-7.105469 7.367188l-2.613281 1.21875zm0 0" fill="#bfc7d8"/><path d="m63.457031 181.957031c-4.890625-3.179687-7.488281-9.449219-6.183593-14.914062.347656-1.5.96875-2.972657 1.570312-4.394531.90625-2.125 1.808594-4.238282 1.925781-6.527344.125-2.503906-.714843-4.894532-1.527343-7.203125-.519532-1.472657-.941407-2.707031-1.230469-4.003907-1.851563-8.363281 2.816406-16.390624 7.804687-21.113281 4.886719-4.636719 10.996094-7.652343 16.867188-10.222656l5.953125-2.605469-.355469 6.492188c-1.121094 20.375-2.019531 38.742187-1.664062 57.183594l.085937 4.464843-4.449219-.40625c-.699218-.0625-1.410156-.097656-2.113281-.097656-4.324219 0-8.746094 1.21875-12.457031 3.429687l-2.140625 1.273438zm0 0" fill="#bfc7d8"/><path d="m194.449219 410.917969c-2.367188-2.578125-4.726563-5.117188-7.066407-7.605469-2.335937-2.484375-4.675781-4.960938-7.03125-7.449219l-.925781-.980469c-5.371093-5.699218-10.925781-11.59375-16.328125-17.527343l-3.214844-3.53125 4.042969-2.546875c24.007813-15.105469 45.277344-35.40625 61.507813-58.699219l2.386718-3.425781 3.320313 2.53125c5.660156 4.3125 11.730469 7.980468 17.601563 11.527344l.25.148437c5.695312 3.457031 11.585937 7.027344 16.992187 11.101563 3.167969 2.390624 6.253906 5.007812 9.160156 7.777343l2.375 2.261719-1.753906 2.769531c-18.15625 28.710938-45.449219 51.667969-76.839844 64.640625l-2.582031 1.066406zm0 0" fill="#bc88e5"/><path d="m186.402344 503.925781c-2.046875-21.8125-14.25-43.695312-36.261719-65.042969-8.523437-8.269531-17.855469-15.960937-26.875-23.398437l-.09375-.074219c-10.476563-8.632812-21.308594-17.5625-30.949219-27.445312-13.140625-13.449219-24.210937-28.734375-32.894531-45.425782l-1.496094-2.875 2.5-2.058593c4.007813-3.296875 8.230469-6.257813 12.558594-8.800781 4.132813-2.429688 8.539063-4.597657 12.800781-6.695313l.140625-.066406c8.039063-3.941407 16.351563-8.019531 23.191407-14.035157l4.101562-3.605468 2.203125 5c14.582031 33.117187 40.199219 60.253906 64.976563 86.496094 2.355468 2.492187 4.695312 4.972656 7.027343 7.457031 25.667969 27.34375 53.90625 59.800781 64.144531 99.058593l1.300782 5-66.035156.148438zm0 0" fill="#bc88e5"/><path d="m252.019531 504.351562c-8.644531-35.40625-32.265625-65.171874-51.878906-87.144531l-3.6875-4.132812 5.082031-2.199219c29.664063-12.859375 55.679688-34.867188 73.253906-61.96875l2.84375-4.386719 3.492188 3.894531c16.238281 18.113282 24.769531 39.683594 29.0625 54.59375 8.09375 28.074219 9.019531 57.332032 8.859375 82.25-.046875 7.296876-.855469 15.289063-6.484375 19.261719-3.613281 2.554688-8.171875 2.773438-13.328125 2.785157l-28.992187.066406-4.632813-58.691406 4.226563 54.390624.335937 4.304688-17.40625.035156zm0 0" fill="#985bbc"/><path d="m19.464844 507.941406c-3.5625-.007812-8.441406-.019531-11.652344-2.789062-3.933594-3.398438-4.011719-9.304688-3.511719-15.179688 2.386719-28.289062 5.089844-60.355468 15.023438-89.742187 7.734375-22.828125 19.691406-42.5 34.578125-56.894531l3.816406-3.6875 2.496094 4.683593c8.523437 15.988281 19.277344 30.6875 31.960937 43.6875 9.605469 9.828125 20.402344 18.734375 30.84375 27.347657l.109375.089843c9.039063 7.453125 18.386719 15.15625 26.96875 23.472657 21.738282 21.078124 33.90625 42.6875 36.164063 64.226562l.460937 4.40625-132.195312.300781.117187-4.125c.597657-21.089843.558594-42.457031-.121093-63.507812.617187 21.078125.652343 42.527343.046874 63.753906l-.109374 3.878906-34.980469.078125zm0 0" fill="#985bbc"/><path d="m170.664062 329.101562 5.390626-2.625c1.113281-.542968 2.121093-1.125 2.878906-1.570312l37.617187-21.933594c.054688-.042968.105469-.078125.15625-.113281l2.859375-2.011719 2.375 2.570313c1.015625 1.09375 2.125 2.210937 3.308594 3.3125l2.519531 2.359375-1.964843 2.835937c-8.621094 12.46875-18.6875 24.113281-29.917969 34.617188l-2.652344 2.484375zm0 0" fill="#b2eaf9"/><path d="m143.8125 354.902344c-11.84375-14.902344-20.703125-28.824219-27.085938-42.566406l-5.207031-11.207032 10.789063 6.03125c13.460937 7.527344 27.628906 13.953125 42.113281 19.09375.773437.269532 1.6875.585938 2.617187.847656l6.140626 1.726563-26.398438 29.804687zm0 0" fill="#b2eaf9"/><path d="m248.480469 89.101562.070312-.730468c.03125-.304688.0625-.605469.082031-.90625.835938-10.234375-.097656-24.257813-9.257812-33.234375-6.753906-6.628907-16.433594-9-25.886719-10.570313-12.832031-2.136718-25.953125-3.21875-39.003906-3.21875-28.101563 0-55.675781 4.886719-81.964844 14.519532-4.6875 1.714843-8.148437 3.542968-9.792969 6.894531-1.355468 2.773437-1.066406 6.113281-.835937 8.796875l1.960937 23.3125-5.347656-1.234375c-22.949218-5.296875-45.644531-14.683594-65.636718-27.140625l-5.542969-3.457032 5.597656-3.367187c37.667969-22.667969 80.523437-36.535156 118.335937-48.773437l.128907-.042969c8.957031-2.894531 18.214843-5.886719 27.855469-5.886719.355468 0 .710937.003906 1.066406.011719 9.632812.226562 18.878906 3.539062 28.289062 7.210937 36.835938 14.359375 72.917969 31.710938 107.25 51.574219.214844.121094.453125.269531.644532.394531l5.070312 3.378906-5.117188 3.308594c-.203124.132813-.457031.277344-.742187.4375l-47.878906 26.167969zm0 0" fill="#5b5d6d"/><path d="m236.925781 120.40625c-3.675781 0-8.011719-1.066406-11.175781-1.847656-1.898438-.464844-3.601562-.878906-4.941406-1.078125-3.683594-.539063-7.410156-1.039063-11.21875-1.542969-1.699219-.21875-3.394532-.441406-5.09375-.671875-13.738282-1.867187-27.789063-3.078125-41.761719-3.605469-5.371094-.195312-10.839844-.296875-16.25-.296875-8.625 0-17.257813.253907-25.664063.753907-2.007812.121093-4.648437.5625-7.703124 1.070312l-.195313.03125c-4.03125.679688-10.132813 1.714844-15.230469 1.714844-4.820312 0-8.035156-.898438-10.109375-2.832032-3.242187-3.011718-3.367187-8.929687-3.464843-13.683593-.027344-1.292969-.058594-2.628907-.148438-3.773438l-2.019531-23.984375c-.222657-2.714844-.496094-6.042968.839843-8.78125 1.808594-3.707031 5.980469-5.484375 9.753907-6.863281 26.289062-9.628906 53.859375-14.515625 81.949219-14.515625 13.042968 0 26.160156 1.082031 38.988281 3.21875 9.4375 1.566406 19.101562 3.929688 25.855469 10.558594 9.144531 8.972656 10.074218 22.976562 9.246093 33.140625-.320312 3.859375-.894531 7.742187-1.453125 11.496093l-.066406.457032c-.210938 1.382812-.410156 2.753906-.609375 4.125-.140625.984375-.1875 2.3125-.242187 3.71875l-.007813.238281c-.195313 6.132813-.679687 8.617187-1.992187 10.207031-1.542969 1.828125-3.984376 2.746094-7.285157 2.746094zm0 0" fill="#5b5d6d"/><g fill="#ffdac4"><path d="m198.207031 209.589844c-4.871093 0-9.597656-1.167969-13.660156-3.371094-10.871094-5.898438-16.964844-19.132812-14.183594-30.789062 3.144531-13.210938 14.847657-18.78125 24.746094-19.585938.855469-.066406 1.730469-.101562 2.605469-.101562 9.617187 0 21.671875 4.265624 26.664062 16.238281 4.324219 10.382812 1.015625 23.757812-7.703125 31.117187-4.949219 4.1875-11.511719 6.492188-18.46875 6.492188zm0 0"/><path d="m128.308594 209.589844c-6.957032 0-13.511719-2.304688-18.464844-6.492188-8.71875-7.363281-12.035156-20.738281-7.710938-31.113281 4.992188-11.976563 17.046876-16.242187 26.664063-16.242187.886719 0 1.761719.035156 2.601563.101562 9.898437.804688 21.601562 6.371094 24.757812 19.589844 2.773438 11.65625-3.324219 24.886718-14.183594 30.785156-4.070312 2.207031-8.792968 3.371094-13.664062 3.371094zm0 0"/><path d="m245.976562 220.894531c-3.402343 0-6.730468-.769531-9.621093-2.230469l-2.492188-1.257812.320313-2.769531c.667968-5.835938 1.09375-11.613281 1.503906-17.195313l1.332031-17.972656 2.601563-.804688c1.988281-.617187 4.085937-.933593 6.238281-.933593 7.25 0 14.203125 3.519531 18.148437 9.1875 5.554688 7.953125 4.792969 19.816406-1.730468 27.003906-3.960938 4.367187-10.054688 6.972656-16.300782 6.972656zm0 0"/><path d="m167.589844 281.535156c-5.101563 0-10.363282-.375-15.632813-1.121094-18.355469-2.605468-32.457031-8.621093-41.910156-17.886718-13.261719-12.972656-17.710937-32.519532-19.902344-46.097656-5.402343-33.53125-3.429687-69.34375-1.84375-98.117188l.25-4.550781 4.480469.839843c1.417969.265626 3.0625.398438 4.890625.398438 4.8125 0 10.234375-.914062 15.015625-1.722656l.308594-.050782c2.875-.476562 5.59375-.929687 7.570312-1.046874 8.457032-.503907 17.085938-.761719 25.644532-.761719 5.417968 0 10.894531.105469 16.273437.308593 13.945313.523438 27.996094 1.738282 41.757813 3.601563l5.097656.679687c3.800781.496094 7.535156.992188 11.222656 1.539063 1.320312.191406 3.011719.597656 4.917969 1.074219l.128906.03125c3.449219.847656 7.347656 1.800781 10.882813 1.828125.089843-.003907.183593-.007813.28125-.007813h4.308593l-5.707031 76.957032c-.925781 12.507812-1.878906 25.441406-5.292969 37.753906-3.800781 13.726562-10.398437 24.945312-19.070312 32.4375-10.550781 9.101562-25.652344 13.914062-43.671875 13.914062zm-2.589844-99.707031c.378906 0 .757812.003906 1.136719.015625l3.316406.109375.507813 3.28125c1.359374 8.84375 6.933593 16.90625 14.554687 21.042969 4.105469 2.226562 8.855469 3.40625 13.730469 3.40625 6.925781 0 13.484375-2.324219 18.46875-6.535156 8.878906-7.503907 12.128906-20.621094 7.726562-31.1875-4.121094-9.894532-14.550781-16.285157-26.566406-16.285157-.914062 0-1.847656.039063-2.765625.113281-12.464844 1-22.203125 8.707032-24.8125 19.632813-.207031.859375-.367187 1.785156-.488281 2.828125l-.425782 3.59375-3.617187-.0625c-.28125-.007812-.5625-.007812-.847656-.007812-1.367188 0-2.617188.058593-3.824219.179687l-3.96875.394531-.40625-3.96875c-.101562-.96875-.269531-1.972656-.507812-2.972656-2.597657-10.914062-12.335938-18.621094-24.804688-19.617188-.914062-.074218-1.84375-.113281-2.753906-.113281-12.027344 0-22.457032 6.390625-26.574219 16.28125-4.40625 10.5625-1.160156 23.679688 7.722656 31.1875 4.988281 4.214844 11.546875 6.535157 18.464844 6.535157 4.871094 0 9.617187-1.179688 13.734375-3.410157 7.53125-4.082031 13.09375-12.050781 14.519531-20.792969l.480469-2.957031 2.96875-.371093c1.738281-.210938 3.429688-.320313 5.03125-.320313zm0 0"/><path d="m171.035156 327.691406c-2.167968 0-4.265625-.675781-6.589844-1.496094-16.046874-5.691406-31.710937-12.972656-46.566406-21.636718l-3.5-2.042969 2.089844-3.472656c4.179688-6.953125 5.824219-14.632813 4.507812-21.070313l-1.558593-7.628906 7.109375 3.175781c7.292968 3.257813 15.84375 5.597657 25.417968 6.953125 5.355469.753906 10.625 1.140625 15.667969 1.140625 13.683594 0 26.03125-2.894531 35.710938-8.371093l5.621093-3.183594.34375 6.453125c.363282 6.921875 3.09375 14.1875 7.886719 21.011719l2.503907 3.5625-40.878907 23.832031c-1.972656 1.136719-4.207031 2.425781-6.636719 2.707031-.339843.042969-.734374.066406-1.128906.066406zm0 0"/><path d="m76.785156 219.988281c-5.863281 0-11.457031-2.515625-14.964844-6.726562-5.796874-6.988281-5.996093-17.925781-.46875-25.449219 4.113282-5.625 11.328126-9.125 18.824219-9.125 1.085938 0 2.175781.074219 3.238281.226562l3.304688.464844.132812 3.332032c.433594 10.785156 1.3125 20.605468 2.683594 30.027343l.515625 3.558594s-3.535156.902344-3.558593.910156c-2.773438 1.828125-6.117188 2.78125-9.707032 2.78125zm0 0"/></g><path d="m157.605469 371.238281 2.234375 2.515625 2.859375-1.769531c9.421875-5.835937 18.519531-12.53125 27.042969-19.90625l3.460937-2.996094-21.253906-18.761719-25.125 28.347657 2.210937 2.640625c2.789063 3.328125 5.671875 6.671875 8.570313 9.929687zm0 0" fill="#5bd0fc"/><path d="m166.003906 185.84375c1.507813 9.8125 7.628906 19.082031 16.601563 23.949219 4.824219 2.613281 10.242187 3.890625 15.640625 3.890625 7.625 0 15.214844-2.546875 21.050781-7.480469 10.175781-8.597656 13.890625-23.648437 8.835937-35.78125-5.136718-12.332031-18.546874-19.816406-33.347656-18.621094-14.222656 1.144531-25.363281 10.050781-28.375 22.691407-.261718 1.089843-.445312 2.1875-.574218 3.292968-1.714844-.035156-3.429688.019532-5.136719.183594-.125-1.167969-.320313-2.328125-.59375-3.476562-3.011719-12.640626-14.152344-21.546876-28.378907-22.691407-14.808593-1.195312-28.207031 6.289063-33.34375 18.621094-5.054687 12.132813-1.339843 27.183594 8.835938 35.78125 5.835938 4.933594 13.421875 7.484375 21.050781 7.480469 5.398438 0 10.8125-1.277344 15.636719-3.890625 8.886719-4.824219 14.980469-13.960938 16.558594-23.667969 1.835937-.234375 3.6875-.335938 5.539062-.28125zm8.246094-9.480469c2.65625-11.140625 12.683594-15.84375 21.183594-16.527343.75-.058594 1.507812-.089844 2.28125-.089844 8.914062 0 18.945312 4.105468 22.972656 13.777344 3.683594 8.832031.847656 20.234374-6.59375 26.523437-7.371094 6.230469-18.996094 7.347656-27.640625 2.65625-9.332031-5.058594-14.574219-16.382813-12.203125-26.339844zm-34.1875 26.339844c-8.648438 4.6875-20.269531 3.570313-27.640625-2.65625-7.441406-6.289063-10.277344-17.691406-6.597656-26.523437 4.03125-9.671876 14.0625-13.777344 22.976562-13.777344.769531 0 1.53125.03125 2.28125.089844 8.496094.6875 18.523438 5.386718 21.179688 16.527343 2.375 9.957031-2.871094 21.28125-12.199219 26.339844zm0 0"/><path d="m314.09375 401.882812c-6.089844-21.128906-18.957031-50.539062-45.667969-70.671874-5.640625-4.253907-11.710937-7.925782-17.578125-11.476563-7-4.230469-13.609375-8.230469-19.644531-13.167969-12.527344-10.253906-19.15625-23.261718-17.726563-34.796875.03125-.25.03125-.496093.019532-.734375.136718-.117187.277344-.226562.414062-.34375 9.285156-8.007812 16.316406-19.914062 20.335938-34.421875 1.179687-4.257812 2.070312-8.566406 2.769531-12.890625 2.878906 1.070313 5.921875 1.601563 8.96875 1.601563 7.191406 0 14.375-2.898438 19.304687-8.328125 6.851563-7.550782 8.402344-18.972656 4.265626-28.144532 3.390624-1.898437 6.207031-4.953124 7.960937-8.753906 2.28125-4.945312 2.457031-10.4375.484375-15.074218-.695312-1.632813-1.570312-3.066407-2.417969-4.453126-1.199219-1.957031-2.230469-3.648437-2.375-5.277343-.132812-1.496094.464844-3.210938 1.160157-5.195313.523437-1.507812 1.066406-3.070312 1.386718-4.800781 1.722656-9.402344-4.371094-17.921875-11.179687-22.191406-4.835938-3.035157-10.304688-4.550781-15.601563-5.472657 1.050782-2.90625 1.179688-6.460937 1.292969-9.707031.050781-1.386719.09375-2.691406.214844-3.53125.191406-1.359375.394531-2.714843.597656-4.074219.035156-.222656.066406-.449218.101563-.671874.160156-.0625.316406-.136719.46875-.21875l45.855468-25.0625c1.417969-.773438 5.738282-3.132813 5.519532-7.773438-.191407-4.042969-3.789063-6.125-5.140626-6.910156-34.449218-19.9375-70.71875-37.382813-107.804687-51.84375-9.769531-3.8125-19.386719-7.25-29.683594-7.4843752-10.742187-.2421878-21.152343 3.1250002-30.34375 6.0976562-40.015625 12.953125-85.371093 27.628906-124.78125 52.601563-1.152343.730468-1.855469 1.996093-1.871093 3.359374-.015626 1.363282.660156 2.644532 1.792968 3.402344 22.523438 15.015625 48.375 25.976563 74.832032 31.757813.011718.410156.019531.832031.03125 1.265625.074218 3.53125.164062 7.605468 1.386718 11.183594-6.957031 3.023437-13.175781 6.191406-18.425781 11.167968-7.390625 7.007813-10.828125 16.5625-8.972656 24.9375.351562 1.589844.867187 3.054688 1.359375 4.46875.71875 2.042969 1.394531 3.976563 1.308594 5.667969-.074219 1.539063-.804688 3.253906-1.574219 5.066406-.679688 1.597657-1.378907 3.25-1.824219 5.113281-1.539062 6.476563 1.035156 13.476563 5.976562 17.777344-.425781.492188-.835937 1.003906-1.222656 1.53125-6.585937 8.992188-6.316406 22.078125.628906 30.4375 4.46875 5.375 11.265626 8.253906 17.996094 8.253906 3.550782 0 7.074219-.8125 10.238282-2.464843 2.550781 13.714843 7.601562 31.390625 20.269531 43.792969 2.035156 1.992187 4.277343 3.835937 6.695312 5.542968.042969.699219.253907 1.398438.675781 2.015625 5.054688 7.425781 3.359376 21.746094-8.191406 31.933594-6.417968 5.660156-14.152344 9.457031-22.34375 13.472656-4.371094 2.148438-8.898437 4.367188-13.210937 6.902344-4.832031 2.835937-9.472657 6.140625-13.898438 9.855469-.394531.0625-.785156.164062-1.164062.351562-1.042969.515625-1.75 1.425782-2.0625 2.460938-16.515625 14.992187-29.773438 36-38.222657 60.964844-10.078124 29.792968-12.816406 62.152343-15.230468 90.699218-.367188 4.34375-1.132813 13.378906 4.902344 18.589844 4.183593 3.613281 9.792968 3.78125 13.738281 3.78125h.605469l279.75-.636719c4.515624-.007812 10.699218-.023437 15.65625-3.519531 7.144531-5.039062 8.160156-14.234375 8.210937-22.5625.160156-25.210938-.785156-54.835938-9.015625-83.398438zm-50.519531-64.234374c3.132812 2.363281 6.066406 4.867187 8.804687 7.480468-17.753906 28.089844-44.273437 50.398438-74.988281 63.085938-2.375-2.589844-4.746094-5.140625-7.097656-7.644532-2.335938-2.484374-4.683594-4.972656-7.035157-7.464843-5.742187-6.078125-11.527343-12.207031-17.203124-18.441407 24.519531-15.429687 46.089843-36.023437 62.65625-59.800781 5.761718 4.390625 11.953124 8.136719 17.964843 11.773438 5.695313 3.445312 11.585938 7.007812 16.898438 11.011719zm-143.222657-26.992188c13.660157 7.632812 27.996094 14.140625 42.734376 19.363281.957031.339844 1.90625.664063 2.867187.9375l-19.003906 21.453125c-10.386719-13.058594-19.652344-26.8125-26.597657-41.753906zm51.945313 25.300781 14.832031 13.097657c-8.332031 7.207031-17.21875 13.753906-26.535156 19.53125-2.878906-3.246094-5.710938-6.523438-8.484375-9.847657zm50.21875-26.308593c-8.5 12.296874-18.386719 23.714843-29.363281 33.96875l-15.347656-13.550782c1.152343-.550781 2.207031-1.15625 3.160156-1.714844l37.734375-21.996093c.113281-.066407.207031-.148438.308593-.226563 1.105469 1.199219 2.28125 2.371094 3.507813 3.519532zm-132.214844-200.476563c-1.996093-1.855469-2.105469-7.050781-2.183593-10.839844-.03125-1.421875-.058594-2.765625-.164063-4.007812l-2.019531-24.007813c-.191406-2.308594-.410156-4.925781.445312-6.679687 1.160156-2.367188 4.5-3.753907 7.539063-4.867188 37.9375-13.898437 79.054687-17.742187 118.90625-11.105469 8.792969 1.460938 17.746093 3.621094 23.710937 9.46875 8.035156 7.875 8.816406 20.636719 8.054688 29.957032-.3125 3.878906-.910156 7.851562-1.484375 11.695312-.207031 1.378906-.414063 2.753906-.609375 4.136719-.179688 1.261719-.230469 2.777344-.285156 4.378906-.078126 2.203125-.238282 6.78125-1.082032 7.808594-2.175781 2.582031-9.847656.691406-14.429687-.4375-1.929688-.476563-3.75-.925781-5.308594-1.152344-3.761719-.550781-7.582031-1.054687-11.277344-1.542969-1.695312-.226562-3.386719-.449218-5.078125-.679687-13.910156-1.878906-28.089844-3.101563-42.152344-3.628906-5.445312-.207031-10.917968-.308594-16.394531-.308594-8.660156 0-17.324219.253906-25.90625.765625-2.269531.136719-5.070312.605469-8.316406 1.148438-6.921875 1.164062-18.503906 3.109374-21.964844-.101563zm169.015625 102.0625c-5.160156 5.6875-14.320312 7.304687-21.164062 3.851563.667968-5.820313 1.101562-11.632813 1.527344-17.359376l1.128906-15.246093c7.117187-2.207031 15.644531.589843 19.917968 6.722656 4.53125 6.492187 3.910157 16.171875-1.410156 22.03125zm8.503906-67.734375c-.203124 1.117188-.625 2.324219-1.070312 3.601562-.871094 2.5-1.859375 5.335938-1.574219 8.558594.308594 3.511719 2.019531 6.308594 3.527344 8.773438.726563 1.191406 1.414063 2.316406 1.878906 3.402344 1.082031 2.546874.941407 5.660156-.390625 8.539062-1.140625 2.480469-2.988281 4.398438-5.167968 5.414062-5.96875-6.292968-15.074219-9.234374-23.589844-7.726562l3.648437-49.21875c5.378907.757812 10.746094 1.953125 15.207031 4.75 4.355469 2.734375 8.570313 8.25 7.53125 13.90625zm-135.285156-129.714844c9-2.914062 18.308594-5.929687 27.679688-5.710937 8.980468.203125 17.863281 3.398437 26.933594 6.933593 36.703124 14.316407 72.601562 31.582032 106.695312 51.3125.164062.097657.308594.183594.433594.261719-.175782.109375-.386719.230469-.640625.371094l-41.175781 22.5c.058593-.570313.121093-1.136719.167968-1.707031.898438-11.039063-.183594-26.308594-10.449218-36.371094-7.558594-7.410156-17.9375-9.984375-28.03125-11.664062-41.226563-6.863282-83.761719-2.890626-123.003907 11.484374-4.84375 1.777344-9.652343 4.082032-12.007812 8.894532-1.835938 3.753906-1.488281 7.886718-1.234375 10.902344l1.496094 17.839843c-22.609376-5.222656-44.691407-14.355469-64.414063-26.640625 37.292969-22.433594 79.824219-36.195312 117.550781-48.40625zm-71.375 154.183594c.285156-1.203125.824219-2.472656 1.398438-3.820312.964844-2.273438 2.0625-4.851563 2.207031-7.828126.164063-3.261718-.851563-6.164062-1.75-8.726562-.4375-1.25-.847656-2.429688-1.097656-3.550781-1.492188-6.726563 2.453125-13.367188 6.644531-17.339844 4.261719-4.035156 9.644531-6.800781 15.726562-9.460937-1.042968 18.921874-2.039062 38.1875-1.675781 57.480468-5.933593-.535156-11.957031.886719-16.972656 3.878906-3.375-2.191406-5.40625-6.738281-4.480469-10.632812zm3.738282 42.730469c-4.574219-5.507813-4.71875-14.523438-.324219-20.519531 3.945312-5.390626 11.386719-8.277344 18.277343-7.300782.410157 10.164063 1.257813 20.324219 2.726563 30.429688-.4375.109375-.863281.277344-1.261719.539062-5.765625 3.832032-14.839844 2.359375-19.417968-3.148437zm29.199218 5.097656c-5.171875-32.070313-3.574218-65.15625-1.804687-97.261719 6.414062 1.191406 14.441406-.152344 21.308593-1.308594 2.890626-.484374 5.621094-.941406 7.457032-1.050781 13.753906-.820312 27.722656-.972656 41.523437-.453125 13.800781.519532 27.71875 1.71875 41.371094 3.566406 1.699219.230469 3.402344.453126 5.101563.679688 3.667968.484375 7.460937.988281 11.171874 1.53125 1.171876.171875 2.808594.574219 4.542969 1 3.664063.90625 8.019531 1.976562 12.125 1.976562.042969 0 .085938-.003906.128907-.003906l-5.386719 72.660156c-.910157 12.316407-1.855469 25.050782-5.160157 36.984376-3.59375 12.96875-9.757812 23.503906-17.832031 30.472656-17.152343 14.800781-42.527343 13.78125-56.125 11.859375-17.480469-2.472657-30.828125-8.117188-39.675781-16.777344-12.421875-12.160156-16.648438-30.867187-18.746094-43.875zm57.292969 68.632813c5.589844.792968 11.007813 1.183593 16.21875 1.183593 14.496094 0 27.347656-3.039062 37.679687-8.890625.414063 7.753906 3.414063 15.707032 8.613282 23.09375l-37 21.570313c-1.746094 1.019531-3.554688 2.074219-5.195313 2.265625-1.695312.207031-3.691406-.4375-5.929687-1.230469-15.898438-5.636719-31.3125-12.816406-45.886719-21.320313 4.425781-7.347656 6.625-16 5.003906-23.925781 7.609375 3.402344 16.453125 5.835938 26.496094 7.253907zm-76.480469 47.820312c4.054688-2.378906 8.441406-4.53125 12.679688-6.613281 8.289062-4.066407 16.855468-8.273438 24.074218-14.625 14.847657 33.734375 40.699219 61.117187 65.734376 87.628906 2.34375 2.488281 4.6875 4.964844 7.015624 7.449219 25.417969 27.078125 53.207032 59.058594 63.191407 97.328125l-57.21875.132812c-2.144531-22.796875-14.738281-45.511719-37.457031-67.539062-8.675782-8.410157-18.101563-16.179688-27.21875-23.695313-10.394532-8.566406-21.140626-17.425781-30.628907-27.140625-12.882812-13.195312-23.707031-28.148437-32.207031-44.484375 3.851562-3.167968 7.867188-5.992187 12.035156-8.441406zm-55.433594 171.6875c-3.652343-.007812-7.09375-.125-9.054687-1.816406-2.570313-2.222656-2.546875-6.988282-2.140625-11.808594 2.375-28.09375 5.070312-59.929688 14.839844-88.796875 7.582031-22.417969 19.1875-41.40625 33.558594-55.300781 8.71875 16.335937 19.671874 31.320312 32.632812 44.59375 9.789062 10.027344 20.710938 19.027344 31.269531 27.730468 8.992188 7.414063 18.292969 15.078126 26.734375 23.265626 21.050782 20.40625 32.804688 41.175781 34.972656 61.765624l-123.648437.28125c.597656-21.175781.566406-42.597656-.113281-63.746093-.070313-2.226563-1.925782-3.972657-4.15625-3.902344-2.226563.070313-3.972656 1.933594-3.902344 4.160156.675781 21.066407.707031 42.410157.105469 63.507813zm295.574219-18.703125c-.039062 6.277344-.640625 13.089844-4.800781 16.023437-2.65625 1.875-6.5625 2.035157-11.023438 2.046876l-25.292968.054687-4.339844-54.996094c-.175781-2.21875-2.117188-3.875-4.335938-3.703125-2.21875.175782-3.878906 2.117188-3.703124 4.335938l4.292968 54.382812-9.941406.023438c-8.410156-34.449219-30.265625-63.640625-52.78125-88.859375 30.519531-13.234375 56.917969-35.554688 75.023438-63.464844 15.339843 17.113281 23.703124 37.449219 28.195312 53.039063 7.949219 27.574218 8.859375 56.476562 8.707031 81.117187zm0 0"/></svg>