<svg height="512pt" viewBox="-96 0 512 512.00359" width="512pt" xmlns="http://www.w3.org/2000/svg"><g fill="#935252"><path d="m258.777344 507.75-.207032-3.757812c-3.191406-57.417969-1.96875-115.578126 3.632813-172.863282l.636719-6.511718 5.503906 3.535156c11.824219 7.597656 19.75 14.507812 25.703125 22.410156 13.425781 17.8125 16.558594 41.101562 18.441406 61.53125 2.25 24.382812 3.246094 49.191406 2.964844 73.730469-.082031 7.335937-.867187 14.683593-6.027344 18.769531-3.898437 3.082031-9.113281 3.339844-14.121093 3.339844zm0 0"/><path d="m242.394531 203.152344c-2.746093 0-5.375-.492188-7.816406-1.46875l-2.96875-1.183594.503906-3.160156c1.015625-6.40625 1.707031-12.835938 2.25-18.277344l.101563-1.042969.605468-.859375c2.558594-3.648437 4.382813-8.027344 5.574219-13.398437l.792969-3.566407 3.625.464844c7.597656.980469 14.371094 6.066406 17.257812 12.953125 3.273438 7.828125 1.21875 17.773438-4.882812 23.65625-3.878906 3.738281-9.359375 5.882813-15.042969 5.882813zm0 0"/><path d="m160.949219 265.085938c-1.8125 0-3.664063-.050782-5.507813-.152344-23.351562-1.273438-43.195312-10.429688-54.445312-25.113282-13.089844-17.089843-14.359375-39.015624-14.566406-61.867187l-.015626-2.054687 1.660157-1.210938c.96875-.707031 1.726562-1.980469 1.976562-3.320312.292969-1.613282.667969-3.175782 1.027344-4.691407.796875-3.363281 1.542969-6.53125 1.554687-10.164062.050782-15.167969 1.257813-30.421875 3.597657-45.339844 1.3125-8.390625 3.828125-18.574219 11.714843-22.882813 2.433594-1.328124 5.242188-2.003906 8.339844-2.003906 5.542969 0 10.796875 2.179688 13.433594 3.476563 2.800781 1.386719 5.398438 2.964843 8.144531 4.636719 3.757813 2.289062 7.613281 4.636718 11.789063 6.238281 4.066406 1.558593 8.433594 2.351562 12.980468 2.351562 8.277344 0 16.3125-2.640625 22.617188-7.433593 1.597656-1.214844 3.121094-2.582032 4.589844-3.902344l.089844-.078125c2.027343-1.828125 3.949218-3.554688 6.152343-5.035157 3.148438-2.121093 6.570313-3.289062 9.632813-3.289062 1.292968 0 2.519531.203125 3.644531.601562 6.554687 2.339844 8.882813 10.125 10.300781 17.429688l14.789063 76.199219-.058594.578125c-1.246094 12.792968-2.808594 26.359375-6.972656 39.234375-4.707031 14.5625-12.335938 26.355469-22.066407 34.097656-11.085937 8.828125-26.855468 13.695313-44.402343 13.695313zm0 0"/><path d="m157.476562 398.132812c-16.078124 0-31.582031-5.972656-42.53125-16.386718-8.738281-8.3125-15.308593-19.789063-19.53125-34.117188-3.890624-13.203125-5.371093-27.488281-6.554687-39-.015625-.0625-.644531-3.003906-.644531-3.003906l2.496094-1.457031c7.402343-4.332031 13.109374-8.945313 17.449218-14.09375 7.179688-8.523438 10.523438-19.28125 8.945313-28.777344l-1.261719-7.578125 6.933594 3.3125c9.5625 4.566406 20.855468 7.328125 32.664062 7.972656 1.816406.097656 3.65625.144532 5.449219.144532 14.015625 0 26.863281-3.050782 37.164063-8.820313l5.878906-3.292969.078125 6.738282c.136719 12.175781 6.070312 25.175781 16.277343 35.667968 2.949219 3.03125 6.253907 5.9375 10.101563 8.882813l2.011719 1.535156-.542969 2.546875c.949219 20.464844-4.285156 40.359375-14.738281 56.066406-11.320313 17.019532-28.609375 28.863282-47.433594 32.492188-3.992188.773437-8.101562 1.167968-12.210938 1.167968zm0 0"/><path d="m78.324219 205.34375c-6.191407 0-12.261719-2.597656-16.242188-6.941406-5.816406-6.34375-7.261719-16.554688-3.433593-24.269532 3.574218-7.1875 11.433593-12.015624 19.558593-12.015624h3.367188l.597656 3.320312c.386719 2.226562.824219 4.265625 1.339844 6.226562.152343.59375.550781 2.128907 1.496093 2.960938l1.34375 1.1875.011719 1.792969c.039063 7.140625.183594 14.820312.96875 22.601562l.328125 3.269531-3.140625.957032c-1.976562.601562-4.0625.910156-6.195312.910156zm0 0"/><path d="m21.089844 506.558594c-4.871094-.023438-9.519532-.28125-12.828125-3.109375-4.492188-3.839844-4.523438-10.542969-3.894531-17.21875l6.199218-65.828125c1.542969-16.308594 3.136719-33.167969 7.921875-49.152344 5.363281-17.902344 14.320313-32.40625 25.910157-41.949219 2.578124-2.125 5.550781-4.195312 9.089843-6.328125l6.082031-3.667968-.519531 187.445312zm0 0"/></g><path d="m219.902344 507.558594.289062-4.253906c1.078125-15.796876-.53125-38.105469-14.308594-54.691407-10.328124-12.425781-26.617187-19.847656-43.570312-19.847656-1.546875 0-3.109375.0625-4.644531.1875-17.5 1.441406-34.660157 11.019531-45.910157 25.625-10.078124 13.09375-15.660156 30.683594-15.320312 48.261719l.082031 4.097656-37.410156-.191406.515625-187.261719 2.1875-1.105469c3.300781-1.667968 6.675781-3.230468 9.933594-4.742187l1.03125-.476563c1.503906-.695312 3-1.378906 4.472656-2.066406 2.085938-.972656 4.125-1.957031 6.058594-2.921875l5.171875-2.585937.597656 5.75c1.164063 11.214843 2.703125 24.195312 6.269531 36.3125 4.230469 14.335937 10.808594 25.824218 19.550782 34.140624 10.957031 10.421876 26.5 16.398438 42.640624 16.398438 4.113282 0 8.203126-.390625 12.160157-1.15625 18.835937-3.636719 36.136719-15.492188 47.472656-32.519531 9.566406-14.371094 14.839844-32.59375 14.847656-51.316407l.007813-7.4375 6.199218 4.105469c5.386719 3.5625 11.152344 6.929688 16.242188 9.898438 1.226562.722656 2.4375 1.433593 3.640625 2.144531.8125.476562 1.65625.972656 2.484375 1.46875l2.183594 1.304688-.257813 2.53125c-5.910156 58.34375-7.273437 117.660156-4.042969 176.296874l.234376 4.242188zm0 0" fill="#59bd8b"/><path d="m82.785156 168.339844c-2.027344-9.644532-2.121094-19.710938-2.214844-29.445313-.027343-3.351562-.066406-6.875-.179687-10.359375-.820313-24.433594-.238281-49.175781 1.734375-73.53125 1.058594-13.082031 2.601562-26.871094 8.644531-39.015625 2.390625-4.792969 6.539063-10.636719 12.75-11.277343.410157-.039063.757813-.050782 1.101563-.050782 7.820312 0 13.292968 8.296875 16.726562 14.539063-.007812-6.9375 5.753906-13.386719 12.644532-14.101563.425781-.042968.855468-.0625 1.285156-.0625 6.539062 0 12.648437 4.949219 13.90625 11.269532 2.414062-7.085938 9.609375-12.238282 17.164062-12.238282.332032 0 .660156.007813.992188.027344 7.84375.484375 14.914062 6.664062 16.445312 14.375 1.648438-6.664062 8.316406-11.875 15.242188-11.875.367187 0 .738281.015625 1.105468.046875 7.285157.589844 13.644532 6.996094 14.179688 14.285156 1.195312-3.261719 4.679688-13.226562 12.125-13.601562.132812-.007813.273438-.011719.414062-.011719 3.964844 0 7.203126 2.835938 8.914063 5.488281 2.019531 3.152344 2.855469 6.855469 3.605469 10.691407 7.851562 40.769531 5.449218 82.753906 3.125 123.355468-.34375 5.949219-.734375 12.6875-2.46875 19.15625l-7.789063-.273437-12.523437-64.46875c-.859375-4.4375-2.871094-14.804688-10.328125-17.464844-1.136719-.410156-2.375-.613281-3.675781-.613281-3.113282 0-6.453126 1.140625-9.664063 3.304687-2.128906 1.429688-3.964844 3.054688-6.148437 5.035157l-.230469.207031c-1.496094 1.335937-2.910157 2.601562-4.460938 3.773437-6.3125 4.796875-14.3125 7.4375-22.527343 7.4375-4.539063 0-8.914063-.796875-13.011719-2.371094-4.21875-1.621093-8.046875-3.957031-11.75-6.21875-2.632813-1.601562-5.359375-3.261718-8.171875-4.644531-3.253906-1.597656-8.230469-3.507812-13.457032-3.507812-3.085937 0-5.90625.6875-8.378906 2.039062-7.90625 4.320313-10.429687 14.523438-11.746094 22.929688-2.34375 14.984375-3.550781 30.234375-3.59375 45.332031-.011718 3.632812-.792968 6.945312-1.550781 10.144531-.148437.613281-.285156 1.191407-.421875 1.785157zm0 0" fill="#644c4c"/><path d="m96.585938 506.9375-.082032-3.894531c-.378906-17.632813 5.199219-35.285157 15.308594-48.425781 11.222656-14.59375 28.367188-24.164063 45.855469-25.597657 1.542969-.125 3.117187-.1875 4.675781-.1875 16.917969 0 33.175781 7.410157 43.496094 19.820313 13.871094 16.703125 15.410156 39.222656 14.261718 55.171875l-.269531 3.730469zm0 0" fill="#f9d889"/><path d="m316.535156 411.714844c-1.933594-20.976563-5.171875-44.925782-19.246094-63.597656-9.835937-13.054688-23.734374-21.839844-37.125-29.71875-1.210937-.714844-2.425781-1.425782-3.644531-2.136719-11.757812-6.875-23.917969-13.988281-33.316406-23.652344-11.210937-11.53125-16.734375-25.84375-14.773437-38.289063.015624-.074218.007812-.144531.015624-.214843 10.089844-8.253907 17.980469-20.527344 22.839844-35.5625 1.335938-4.140625 2.410156-8.316407 3.296875-12.53125 2.527344.820312 5.175781 1.222656 7.820313 1.222656 6.542968 0 13.085937-2.445313 17.851562-7.035156 7.382813-7.117188 9.773438-18.691407 5.8125-28.152344-3.453125-8.25-11.464844-14.1875-20.242187-15.390625.359375-3.316406.550781-6.558594.722656-9.578125 2.335937-40.863281 4.753906-83.117187-3.191406-124.34375-.785157-4.074219-1.753907-8.363281-4.171875-12.128906-3.074219-4.78125-8.039063-7.601563-12.964844-7.339844-5.363281.277344-9.054688 3.722656-11.542969 7.484375-3.300781-4.53125-8.476562-7.691406-14.214843-8.15625-6.230469-.503906-12.320313 2.238281-16.335938 6.824219-3.824219-5.300781-9.957031-8.96875-16.535156-9.3789065-6.84375-.4335935-13.65625 2.7187495-18.109375 7.8671875-3.824219-4.628906-9.890625-7.476562-15.910157-6.847656-5.539062.574218-10.507812 4.019531-13.445312 8.699218-3.808594-4.898437-9.507812-9.8554682-17.007812-9.089843-6.378907.65625-11.90625 5.324219-15.980469 13.511719-6.371094 12.800781-7.96875 27.023437-9.058594 40.5-1.988281 24.5-2.574219 49.398437-1.746094 74.003906.113281 3.367187.144531 6.84375.175781 10.210937.0625 6.320313.125 12.765625.699219 19.195313-9.238281.371094-18.054687 5.898437-22.195312 14.238281-4.625 9.308594-2.949219 21.160156 4.070312 28.824219 4.894531 5.339844 12.046875 8.269531 19.207031 8.269531 2.054688 0 4.109376-.265625 6.113282-.761719 1.949218 11.886719 5.78125 23.730469 13.371094 33.636719 3.679687 4.800781 8.210937 9.039063 13.421874 12.652344-.011718.570312.089844 1.152343.335938 1.710937 4.640625 10.453125.09375 23-6.472656 30.796875-7.871094 9.347657-19.371094 15.203125-29.527344 19.960938-1.476562.6875-2.957031 1.371093-4.441406 2.054687-10.046875 4.632813-20.4375 9.425782-29.269532 16.699219-12.222656 10.0625-21.636718 25.246094-27.222656 43.914063-4.917968 16.425781-6.527344 33.546874-8.089844 50.109374l-6.179687 65.664063c-.457031 4.851563-1.410156 14.945313 5.292969 20.679687 4.714844 4.03125 11.171875 4.066407 15.445312 4.085938l273.3125 1.375c.40625 0 .824219.003906 1.25.003906 4.980469 0 11.332032-.28125 16.308594-4.214844 6.496094-5.132812 7.484375-13.566406 7.578125-21.917968.28125-24.65625-.722656-49.605469-2.980469-74.15625zm-57.90625-236.554688c2.664063 6.359375.992188 14.449219-3.96875 19.234375-4.765625 4.589844-12.457031 6.023438-18.597656 3.574219.972656-6.101562 1.660156-12.273438 2.273438-18.511719 3.195312-4.542969 5.070312-9.644531 6.214843-14.828125 6.046875.777344 11.726563 4.914063 14.078125 10.53125zm-172.515625-119.832031c1.027344-12.691406 2.507813-26.042969 8.238281-37.558594 1.589844-3.1875 4.941407-8.605469 9.585938-9.082031.226562-.023438.453125-.035156.683594-.035156 4.277344 0 8.609375 4.09375 13.226562 12.476562.890625 1.621094 2.765625 2.421875 4.554688 1.957032 1.785156-.46875 3.027344-2.09375 3.007812-3.941407-.050781-4.863281 4.148438-9.566406 8.988282-10.070312 4.835937-.496094 9.914062 3.246093 10.863281 8.015625.355469 1.796875 1.875 3.125 3.703125 3.238281 1.820312.121094 3.5-1.015625 4.074218-2.75 1.894532-5.695313 8.0625-9.859375 14.054688-9.492187 5.988281.371093 11.597656 5.273437 12.769531 11.15625.371094 1.859374 1.980469 3.207031 3.875 3.246093 1.851563.054688 3.558594-1.253906 4-3.09375 1.234375-5.183593 6.761719-9.195312 12.074219-8.765625 5.308594.429688 10.121094 5.28125 10.511719 10.589844.136719 1.90625 1.59375 3.453125 3.488281 3.703125 1.898438.25 3.707031-.863281 4.335938-2.667969 2.476562-7.09375 5.335937-10.773437 8.492187-10.9375 2.277344-.117187 4.539063 1.746094 5.761719 3.648438 1.644531 2.5625 2.375 5.859375 3.039062 9.292968 7.753906 40.246094 5.367188 81.988282 3.058594 122.359376-.324219 5.710937-.699219 12.28125-2.339844 18.351562l-12.511718-64.46875c-.988282-5.097656-3.308594-17.042969-12.914063-20.46875-5.09375-1.820312-11.261719-.675781-16.925781 3.136719-2.4375 1.644531-4.550782 3.546875-6.597656 5.386719-1.503907 1.351562-2.921876 2.628906-4.417969 3.765624-8.859375 6.730469-21.296875 8.507813-31.683594 4.519532-3.808594-1.460938-7.351563-3.617188-11.101563-5.898438-2.714843-1.652344-5.519531-3.359375-8.492187-4.824218-5.515625-2.710938-16.164063-6.503907-25.515625-1.390626-9.441406 5.15625-12.324219 16.507813-13.78125 25.820313-2.371094 15.148437-3.597656 30.609375-3.644531 45.945313-.007813 3.171874-.707031 6.128906-1.445313 9.253906-.140625.582031-.28125 1.175781-.417968 1.777344-1.953126-9.277344-2.046876-19.140626-2.136719-28.707032-.03125-3.414062-.0625-6.941406-.179688-10.40625-.824219-24.300781-.242187-48.886718 1.71875-73.082031zm-21.085937 140.371094c-4.742188-5.175781-5.917969-13.5-2.796875-19.789063 2.90625-5.851562 9.476562-9.800781 16.003906-9.792968.375 2.199218.835937 4.386718 1.40625 6.5625.246094.933593.875 3.316406 2.722656 4.949218.042969 7.085938.179688 14.941406.988281 22.980469-6.324218 1.933594-13.855468-.03125-18.324218-4.910156zm39.144531 41.691406c-11.972656-15.632813-13.53125-36.175781-13.738281-59.472656 1.773437-1.296875 3.109375-3.453125 3.546875-5.816407.28125-1.519531.640625-3.035156.988281-4.5.8125-3.433593 1.652344-6.984374 1.664062-11.085937.042969-14.929687 1.238282-29.976563 3.546876-44.722656 1.171874-7.488281 3.332031-16.523438 9.683593-19.992188 6.386719-3.492187 14.773438-.078125 18.085938 1.550781 2.648437 1.304688 5.183593 2.84375 7.863281 4.476563 3.890625 2.367187 7.914062 4.816406 12.40625 6.539063 12.933594 4.960937 28.417969 2.753906 39.449219-5.628907 1.761719-1.335937 3.371093-2.789062 4.929687-4.191406 1.925782-1.730469 3.742188-3.367187 5.710938-4.6875 3.464844-2.332031 7.09375-3.167969 9.710937-2.238281 4.652344 1.660156 6.507813 8.21875 7.710938 14.417968l14.679687 75.632813c-1.292968 13.246094-2.84375 26.148437-6.796875 38.390625-4.457031 13.800781-11.632812 24.933594-20.746093 32.195312-11.5625 9.210938-28.324219 13.71875-47.207032 12.683594-22.179687-1.210937-40.945312-9.796875-51.488281-23.550781zm7.054687 55.257813c8.066407-9.582032 11.574219-21.476563 9.824219-32.015626 9.964844 4.765626 21.589844 7.671876 34.171875 8.363282 1.910156.101562 3.800782.15625 5.671875.15625 14.761719 0 28.226563-3.238282 39.113281-9.328125.152344 13.113281 6.363282 27.042969 17.414063 38.40625 3.285156 3.378906 6.832031 6.433593 10.535156 9.265625-.070312.332031-.113281.671875-.097656 1.027344.929687 19.625-4.066406 38.710937-14.066406 53.738281-10.730469 16.128906-27.082031 27.347656-44.859375 30.78125-18.609375 3.59375-38.238282-1.847657-51.230469-14.199219-8.226563-7.824219-14.4375-18.707031-18.453125-32.347656-3.796875-12.886719-5.253906-27.0625-6.425781-38.453125-.015625-.144531-.058594-.28125-.085938-.421875 6.695313-3.921875 13.203125-8.699219 18.488281-14.972656zm-36.761718 24.144531c1.496094-.691407 2.992187-1.378907 4.480468-2.078125 2.011719-.9375 4.074219-1.925782 6.15625-2.96875 1.164063 11.179687 2.726563 24.519531 6.414063 37.03125 4.421875 15.015625 11.363281 27.097656 20.628906 35.910156 11.839844 11.257812 28.445313 17.503906 45.398438 17.503906 4.304687 0 8.636719-.40625 12.917969-1.230468 19.882812-3.84375 38.125-16.316407 50.042968-34.230469 10.082032-15.144531 15.503906-33.988281 15.515625-53.527344 5.386719 3.554687 10.949219 6.8125 16.429688 10.019531 1.210937.707032 2.421875 1.414063 3.625 2.125.824219.484375 1.644531.972656 2.46875 1.460938-5.9375 58.601562-7.296875 118.09375-4.054688 176.921875l-30.300781-.152344c1.152344-17.003906-.746094-40.085937-15.226562-57.515625-12.152344-14.625-31.929688-22.703125-51.625-21.089844-18.605469 1.527344-36.828126 11.683594-48.742188 27.167969-10.699219 13.902344-16.507812 32.277344-16.15625 50.777344l-29.3125-.144531.5-180.824219c3.582031-1.808594 7.234375-3.492188 10.839844-5.15625zm40.515625 140.261719c10.554687-13.710938 26.632812-22.703126 43.015625-24.046876 17.117187-1.40625 34.265625 5.570313 44.761718 18.203126 12.933594 15.566406 14.472657 36.773437 13.351563 52.328124l-115.605469-.582031c-.367187-16.761719 4.84375-33.382812 14.476563-45.902343zm-104.117188 43.351562c-3.097656-2.648438-3.035156-8.195312-2.511719-13.792969l6.183594-65.664062c1.523438-16.171875 3.097656-32.894531 7.785156-48.554688 5.128907-17.128906 13.640626-30.960937 24.621094-40 2.683594-2.210937 5.585938-4.175781 8.605469-6l-.488281 176.335938-33.949219-.171875c-4.097656-.023438-7.964844-.203125-10.246094-2.152344zm300.589844-14.628906c-.074219 6.347656-.667969 12.644531-4.515625 15.679687-2.949219 2.332031-7.417969 2.503907-12.519531 2.472657l-31.855469-.15625c-3.179688-57.269532-1.960938-115.167969 3.625-172.25 9.253906 5.945312 18.089844 12.726562 24.664062 21.445312 12.800782 16.984375 15.824219 39.609375 17.652344 59.484375 2.234375 24.277344 3.226563 48.945313 2.949219 73.324219zm0 0"/></svg>