<svg height="512pt" viewBox="-90 0 512 512.00037" width="512pt" xmlns="http://www.w3.org/2000/svg"><path d="m202.261719 507.933594c-43.742188 0-88.101563-.75-131.847657-2.234375l-3.855468-.132813-.011719-3.855468c-.160156-58.027344-3.515625-116.65625-9.972656-174.253907l-.261719-2.324219 1.898438-1.367187c3.492187-2.511719 7.15625-4.757813 10.890624-6.675781l4.285157-2.195313 1.375 4.617188c8.386719 28.175781 14.222656 57.25 17.34375 86.414062 3.089843-1.699219 6.777343-2.570312 11.007812-2.570312 2.894531 0 6.03125.386719 9.589844 1.183593 25.550781 5.707032 47.894531 25.289063 56.921875 49.882813 5.859375-15.160156 16.496094-28.460937 30.019531-37.460937 12.789063-8.503907 28.308594-13.1875 43.695313-13.1875.816406 0 1.625.015624 2.4375.039062 1.429687-27.597656 6.011718-55.082031 13.644531-81.722656l1.390625-4.847656 4.40625 2.457031c3.019531 1.683593 5.949219 3.539062 8.707031 5.507812l2.402344 1.71875-.933594 2.800781c-.027343.078126-.054687.15625-.085937.230469-13.160156 56.800781-16.929688 115.082031-11.179688 173.148438l.429688 4.328125-4.351563.066406c-19.179687.289062-38.675781.433594-57.945312.433594zm0 0" fill="#59bd8b"/><path d="m37.554688 340.054688c-19.699219-6.210938-34.089844-26.398438-33.472657-46.964844.621094-20.746094 16.996094-40.566406 37.28125-45.121094 3.320313-.753906 6.136719-1.570312 7.136719-3.996094.535156-1.289062.378906-2.816406.273438-3.828125-.878907-8.191406-3.203126-16.070312-6.898438-23.429687-1.160156-2.289063-2.457031-4.558594-3.792969-6.878906-3.117187-5.425782-6.03125-10.5-7.328125-16.347657-2.3125-10.367187 1.546875-21.988281 9.605469-28.914062.613281-.53125 1.277344-1.066407 1.941406-1.605469 4.511719-3.683594 7.925781-6.859375 7.359375-11.210938-.28125-2.125-1.566406-3.953124-2.808594-5.71875-.207031-.289062-.425781-.59375-.632812-.902343-5.546875-8.085938-7.609375-18.644531-5.507812-28.234375 2.070312-9.417969 8.230468-18.058594 16.476562-23.113282l1.941406-1.191406 2.019532 1.066406c1.835937.972657 6.597656 3.292969 11.148437 3.855469l4.328125.535157-.90625 4.269531c-1.570312 7.394531 1.167969 15.578125 6.820312 20.363281 3.96875 3.347656 9.339844 5.191406 15.128907 5.191406 4.617187 0 9.070312-1.179687 12.871093-3.417968 7.335938-4.292969 12.636719-12.316407 14.195313-21.460938l.527344-3.109375 3.148437-.210937c8.65625-.582032 16.472656-4.769532 20.902344-11.207032 5.539062-8.054687 5.03125-19.136718-1.175781-25.769531-3.050781-3.257813-7.777344-5.207031-12.644531-5.207031-.195313 0-.390626.003906-.585938.011718-1.726562.054688-3.398438.359376-4.976562.898438l-5.800782 1.984375.523438-6.113281c.246094-2.875.273437-5.320313.085937-7.695313-.382812-4.824219-2.992187-10.722656-6.644531-15.023437l-2.453125-2.890625 2.753906-2.605469c.050781-.046875.105469-.09375.152344-.148438 10.320313-13.453124 27.492187-21.851562 44.753906-21.851562 1.414063 0 2.839844.058594 4.234375.167969 18.5 1.511719 36.117188 13.042969 44.894532 29.386719 5.273437-1.742188 10.808593-2.632813 16.496093-2.632813 17.242188 0 34.101563 8.320313 43.996094 21.71875 13.496094 18.246094 13.710937 44.902344.507813 63.382813 5.222656.269531 10.324218 3.25 13.679687 8.023437 3.359375 4.777344 4.433594 10.59375 2.871094 15.550781-.824219 2.613282-2.195313 5.046875-3.648438 7.625l-.0625.105469c-2.578125 4.542969-5.238281 9.230469-3.859375 14.183594.75 2.71875 2.644532 5.007812 4.476563 7.222656 2.277343 2.734375 4.625 5.554687 4.589843 9.101563-.019531 2.882812-1.6875 5.460937-3.300781 7.953124-1.800781 2.777344-3.5 5.398438-3.242187 8.496094.371094 4.511719 4.875 7.503906 8.496094 9.910156l.300781.207032c21.714843 14.457031 35.523437 40.734375 35.113281 66.894531-.410156 25.960937-14.878906 51.691406-36.863281 65.550781l-2.722657 1.714844-2.257812-2.285156c-7.378906-7.464844-15.511719-13.519532-24.171875-18l-3.160156-1.632813 1.253906-3.332031c.859375-2.273438 1.042969-4.910156.519531-7.417969-.730468-3.4375-2.699218-6.417969-5.40625-8.167969-1.886718-1.214843-4.125-1.859374-6.464844-1.859374-.777343 0-1.574218.070312-2.367187.210937l-4.582031.796875-.105469-4.652344c-.042969-1.921875-.621094-3.664062-1.726563-5.175781-1.792968-2.445313-4.800781-3.910156-8.042968-3.910156-1.972656 0-3.828125.554687-5.367188 1.605469-1.183594.804687-2.15625 1.886718-2.890625 3.21875l-2.570312 4.652343-3.726563-3.726562c-3.796875-2.984375-6.464844-7.949219-7.460937-13.957031-.902344-5.390626-.429688-10.917969.023437-16.257813l.015625-.183594-1.09375-2.582031 2.035157-1.929688c7.582031-7.046874 13.8125-16.703124 18.019531-27.914062 5.433593-14.5 7.347656-30.046875 9.195312-45.085938-9.847656-1.324218-19.042969-7.875-23.457031-16.726562-4.417969-8.855469-4.109375-20.140625.78125-28.75-8.4375-.84375-19.238281-8.144531-23.074219-22.308594-1.710937-6.34375-2.066406-13.1875-1.15625-22.1875l.03125-.320312.082031-.308594c.984376-3.695312 1.484376-7.414062 1.484376-11.050781-.632813 3.578125-1.210938 7.402343-1.601563 11.082031l-.035156.335938-.09375.328124c-3.304688 11.722657-11.339844 22.859376-22.625 31.359376-13.222657 9.960937-28.8125 15.605468-46.351563 21.449218-2.550781.855469-5.542968 2.167969-6.089844 4.785156-.390624 1.875.523438 3.554688 1.859376 5.71875l.324218.535157c5.066406 8.347656 5.242188 19.660156.433594 28.15625-3.828125 6.789062-9.933594 10.214843-15.957031 12.910156l-.957031.429687c-5.0625 2.230469-8.664063 4.175782-9.125 9.027344-1.121094 11.714844 10.316406 27.714844 20.457031 37.855469 3.050781 3.042969 6.484375 5.9375 10.191406 8.597656l1.453125 1.039063.191406 1.777344c1.238282 11.335937-1.960937 23.152343-8.785156 32.425781l-3.292969 4.476562-3.199219-4.550781c-.664062-.941406-1.445312-1.722656-2.324218-2.320312-1.542969-1.054688-3.398438-1.605469-5.367188-1.605469-3.238281 0-6.246094 1.460937-8.039062 3.910156-1.109375 1.519531-1.691406 3.257813-1.726563 5.160156l-.085937 4.671875-4.601563-.804687c-.792969-.136719-1.589843-.207031-2.367187-.207031-2.339844 0-4.578125.644531-6.472656 1.863281-2.699219 1.738281-4.667969 4.71875-5.398438 8.171875-.378906 1.792968-.394531 3.601562-.050781 5.367187l.601562 3.066407-2.832031 1.324218c-11.167969 5.21875-21.246094 12.996094-29.960938 23.125l-1.722656 1.996094zm0 0" fill="#d34242"/><path d="m101.375 89.242188c-4.394531 0-8.730469-2.261719-11.035156-5.761719-1.539063-2.3125-2.949219-5.832031-.878906-9.363281 2.59375-4.339844 8.734374-6.296876 13.351562-6.296876.515625 0 1.03125.019532 1.527344.066407 5.335937.488281 8.867187 3.589843 9.449218 8.304687.554688 4.332032-1.808593 10.066406-8.316406 12.371094-.839844.292969-1.742187.496094-2.6875.601562-.46875.054688-.9375.078126-1.410156.078126zm0 0" fill="#d34242"/><g fill="#ffbf48"><path d="m235.621094 342.515625c-2.582032 0-5.175782-.683594-7.308594-1.929687-6.980469-4.085938-10.328125-13.246094-7.621094-20.855469-1.5 1.578125-3.722656 2.496093-6.160156 2.496093-1.398438 0-2.796875-.304687-4.054688-.878906-4.089843-1.898437-6.207031-5.914062-7.105468-8.136718-1.882813-4.636719-1.988282-9.640626-.285156-13.730469 1.875-4.554688 6.011718-7.804688 10.535156-8.269531.335937-.035157.679687-.050782 1.023437-.050782 3.335938 0 6.628907 1.628906 8.59375 4.25l.355469.472656.203125.558594c.214844.589844.492187 1.15625.828125 1.691406-.132812-.644531-.390625-1.242187-.691406-1.78125l-.285156-.507812-.128907-.570312c-.894531-3.945313.703125-8.226563 3.886719-10.410157 1.523438-1.039062 3.359375-1.582031 5.320312-1.582031 3.191407 0 6.257813 1.480469 8.007813 3.863281 1.300781 1.78125 3.039063 5.65625.054687 11.648438 1.625-1.023438 4.855469-2.792969 8.808594-2.792969 2.34375 0 4.5.621094 6.40625 1.847656 2.6875 1.730469 4.644532 4.6875 5.375 8.117188.722656 3.445312.121094 6.945312-1.640625 9.617187-1.75 2.664063-4.730469 4.589844-8.171875 5.28125-.90625.179688-1.824218.269531-2.734375.269531-2.523437 0-4.890625-.6875-6.847656-1.996093 3.21875 5.878906 6.5 13.324219 2.785156 18.972656-1.832031 2.796875-5.167969 4.40625-9.148437 4.40625zm0 0"/><path d="m191.355469 376.449219c-3.933594 0-8.140625-2.109375-10.714844-5.367188-5.011719-6.332031-4.800781-16.082031.480469-22.195312-1.046875.460937-2.160156.714843-3.355469.714843-2.457031 0-4.980469-1.105468-6.75-2.957031-1.386719-1.4375-2.40625-3.304687-3.023437-5.539062l-.238282-.855469.148438-.878906c.160156-.9375.25-1.90625.265625-2.875.007812-1.160156-.082031-2.367188-.269531-3.546875l-.128907-.796875.191407-.785156c.742187-3.023438 2.167968-5.703126 4.121093-7.75 2.589844-2.683594 6.242188-4.277344 9.789063-4.277344 1.050781 0 2.078125.136718 3.050781.40625 3.5.976562 6.484375 3.960937 7.433594 7.429687l.152343.5625-.011718.582031c-.015625.609376.042968 1.246094.164062 1.898438.105469-.664062.085938-1.300781-.003906-1.921875l-.082031-.585937.085937-.582032c.613282-4.011718 3.671875-7.417968 7.433594-8.277344.628906-.144531 1.292969-.21875 1.96875-.21875 4.382812 0 8.507812 3.09375 9.597656 7.203126.972656 3.679687-.515625 7.535156-4.191406 10.863281 1.28125-.230469 2.558594-.371094 3.824219-.371094 4.550781 0 8.347656 1.785156 10.691406 5.027344 1.875 2.59375 2.621094 6.066406 2.046875 9.523437-.574219 3.464844-2.40625 6.515625-5.027344 8.355469-1.984375 1.40625-4.4375 2.15625-7.082031 2.15625-.816406 0-1.644531-.074219-2.460937-.222656-3.445313-.613281-6.464844-2.472657-8.285157-5.097657.855469 6.664063 1.199219 14.796876-4.3125 18.695313-1.546875 1.101563-3.457031 1.683594-5.507812 1.683594zm0 0"/><path d="m144.117188 376.449219c-2.050782 0-3.957032-.582031-5.511719-1.679688-5.507813-3.90625-5.164063-12.039062-4.25-18.683593-1.878907 2.605468-4.894531 4.464843-8.339844 5.082031-.820313.144531-1.648437.21875-2.464844.21875-2.644531 0-5.097656-.746094-7.09375-2.164063-2.609375-1.832031-4.441406-4.878906-5.015625-8.347656-.585937-3.449219.160156-6.929688 2.054688-9.527344 2.335937-3.234375 6.132812-5.019531 10.683594-5.019531 1.269531 0 2.542968.140625 3.792968.417969-3.644531-3.375-5.132812-7.230469-4.160156-10.90625 1.089844-4.113282 5.21875-7.207032 9.601562-7.207032.671876 0 1.335938.074219 1.976563.222657 3.765625.863281 6.816406 4.273437 7.414063 8.289062l.082031.554688-.070313.554687c-.09375.691406-.113281 1.308594-.0625 1.894532.179688-.566407.234375-1.191407.226563-1.875l-.007813-.558594.148438-.539063c.964844-3.527343 3.882812-6.441406 7.425781-7.425781.976563-.273438 1.996094-.410156 3.046875-.410156 3.546875 0 7.203125 1.59375 9.777344 4.265625 1.964844 2.046875 3.398437 4.730469 4.144531 7.761719l.191406.785156-.128906.796875c-.195313 1.226562-.285156 2.425781-.269531 3.558593.015625.945313.105468 1.925782.261718 2.898438l.132813.847656-.222656.828125c-.601563 2.234375-1.621094 4.113281-3.03125 5.578125-1.773438 1.839844-4.296875 2.945313-6.746094 2.945313-1.199219 0-2.3125-.257813-3.3125-.761719 5.238281 6.144531 5.453125 15.894531.445313 22.238281-2.574219 3.257813-6.78125 5.367188-10.71875 5.367188zm0 0"/><path d="m97.613281 127.871094c-5.699219 0-11.035156-1.859375-15.027343-5.234375-7.832032-6.621094-9.644532-18.917969-3.960938-26.855469l.015625-.101562-.414063.578124-.589843.40625c-.933594.636719-2.078125.945313-3.5.945313-3.972657 0-11.90625-2.609375-16.183594-5.972656-5.832031-4.601563-9.585937-11.664063-9.804687-18.4375-.25-7.859375 3.515624-14.738281 10.1875-18.839844v-.152344l2.28125-1.097656c3.449218-1.640625 7.347656-2.507813 11.273437-2.507813 3.644531 0 7.316406.75 10.621094 2.179688 1.03125.445312 2.308593 1 3.460937 1 .542969 0 1.007813-.125 1.457032-.394531 1.433593-.855469 1.648437-2.597657 1.542968-5.503907-.179687-5 2.375-13.132812 7.457032-18.398437 3.621093-3.738281 7.09375-4.523437 9.371093-4.523437 6.195313.015624 10.785157 4.707031 12.976563 7.503906 3.289062 4.222656 5.546875 9.632812 5.898437 14.125.410157 5.191406-.261719 10.191406-1.183593 16.191406 2.664062-3.15625 6.808593-5.0625 11.417968-5.207031.203125-.007813.40625-.011719.613282-.011719 4.914062 0 9.496093 1.894531 12.574218 5.203125 6.089844 6.492187 6.601563 17.773437 1.152344 25.675781-4.75 6.929688-13.550781 11.238282-22.957031 11.238282-.398438 0-.792969-.007813-1.191407-.019532-.738281 10.429688-6.3125 19.902344-14.589843 24.753906-3.859375 2.261719-8.320313 3.457032-12.898438 3.457032zm5.253907-60.113282c-4.664063 0-10.855469 1.96875-13.433594 6.285157-1.167969 1.964843-1.972656 5.207031.851562 9.480469 2.328125 3.507812 6.695313 5.777343 11.125 5.777343.464844 0 .9375-.023437 1.402344-.070312.914062-.105469 1.828125-.3125 2.664062-.609375 5.609376-1.972656 9.050782-7.089844 8.382813-12.445313-.585937-4.671875-4.230469-7.871093-9.511719-8.351562-.476562-.042969-.976562-.066407-1.480468-.066407zm0 0"/><path d="m99.851562 342.519531c-3.972656 0-7.308593-1.605469-9.152343-4.410156-3.707031-5.652344-.425781-13.097656 2.847656-18.949219-2.007813 1.28125-4.375 1.972656-6.902344 1.972656-.90625 0-1.824219-.089843-2.730469-.269531-3.429687-.6875-6.414062-2.609375-8.179687-5.273437-1.765625-2.675782-2.359375-6.175782-1.640625-9.609375.71875-3.425781 2.679688-6.390625 5.378906-8.132813 1.910156-1.226562 4.0625-1.847656 6.402344-1.847656 2.925781 0 6.035156 1.003906 8.753906 2.828125-2.914062-6.046875-1.183594-9.910156.109375-11.679687 1.753907-2.386719 4.820313-3.867188 8.011719-3.867188 1.960938 0 3.796875.546875 5.304688 1.578125 3.203124 2.183594 4.804687 6.476563 3.890624 10.433594l-.125.539062-.265624.484375c-.324219.589844-.582032 1.1875-.757813 1.773438.394531-.503906.667969-1.0625.882813-1.652344l.203124-.554688.355469-.472656c1.96875-2.625 5.265625-4.25 8.609375-4.25.335938 0 .667969.015625 1 .046875 4.53125.464844 8.667969 3.71875 10.550782 8.289063 1.6875 4.054687 1.585937 9.058594-.289063 13.710937-.902344 2.226563-3.019531 6.238281-7.09375 8.128907-1.273437.582031-2.675781.886718-4.074219.886718-2.441406 0-4.664062-.914062-6.101562-2.511718 2.644531 7.640624-.710938 16.796874-7.683594 20.871093-2.125 1.25-4.71875 1.9375-7.304688 1.9375zm0 0"/></g><path d="m264.257812 503.757812c-5.726562-57.152343-2.21875-114.570312 10.429688-170.65625l1.472656-6.53125 5.050782 4.390626c19.226562 16.710937 33.148437 41.519531 39.210937 69.863281 7.480469 34.980469 3.25 71.257812-1.878906 102.132812l-.539063 3.246094-3.289062.09375c-15.09375.441406-30.707032.796875-46.410156 1.0625l-3.679688.0625zm0 0" fill="#efb17c"/><path d="m162.199219 439.460938c-11.316407-17.507813-29.816407-30.585938-49.484375-34.988282-3.511719-.78125-6.75-1.179687-9.625-1.179687-2.347656 0-4.535156.265625-6.496094.792969l-4.464844 1.195312-.542968-4.589844c-3-25.398437-8.089844-50.820312-15.125-75.566406l-2.164063-7.613281 7.414063 2.773437c.769531.285156 1.496093.5 2.21875.644532.777343.15625 1.605468.246093 2.445312.261718l5.4375.101563-1.71875 5.160156c-1.585938 4.777344-1.398438 8.710937.558594 11.691406 1.800781 2.746094 5.476562 4.515625 9.367187 4.515625 1.972657 0 3.949219-.453125 5.875-1.347656l7.300781-3.390625-1.707031 7.867187c-.359375 1.660157-.398437 3.378907-.113281 5.109376.578125 3.46875 2.417969 6.523437 5.050781 8.382812 1.976563 1.398438 4.515625 2.167969 7.152344 2.167969.816406 0 1.636719-.074219 2.441406-.21875.8125-.144531 1.628907-.363281 2.410157-.648438l5.089843-1.851562.273438 5.40625c.257812 5.023437 1.859375 8.613281 4.765625 10.667969 1.535156 1.085937 3.585937 1.6875 5.769531 1.6875 4.011719 0 7.859375-1.957032 10.550781-5.371094 3.535156-4.464844 4.574219-11.027344 2.652344-16.722656l-1.339844-3.957032 4.011719-1.164062c1.644531-.476563 3.125-1.367188 4.289063-2.574219.128906-.152344.214843-.253906.304687-.351563l2.9375-3.1875 2.941406 3.179688c.113281.125.222657.253906.332031.382812 1.136719 1.183594 2.621094 2.078126 4.257813 2.554688l4.003906 1.160156-1.328125 3.953125c-1.917968 5.699219-.875 12.265625 2.652344 16.722657 2.699219 3.417968 6.542969 5.375 10.554688 5.375 2.1875 0 4.234374-.601563 5.769531-1.6875 2.9375-2.078126 4.496093-5.570313 4.769531-10.675782l.285156-5.398437 5.078125 1.851562c.78125.285157 1.59375.503907 2.414063.648438.800781.144531 1.621094.214843 2.4375.214843 2.636718 0 5.175781-.765624 7.148437-2.160156 2.628907-1.855468 4.46875-4.917968 5.054688-8.398437.285156-1.71875.246093-3.4375-.113281-5.097657l-1.707032-7.871093 7.300782 3.394531c1.925781.894531 3.902343 1.347656 5.875 1.347656 3.882812 0 7.5625-1.773437 9.371093-4.519531 1.953125-2.976563 2.140625-6.910156.554688-11.6875l-1.714844-5.160156 5.433594-.101563c.839843-.015625 1.667969-.105468 2.460937-.265625.523438-.101562 1.085938-.257812 1.738282-.480469l7.175781-2.457031-2.023438 7.308594c-6.738281 24.332031-10.941406 49.453125-12.492187 74.667969l-.226563 3.6875-3.695312.066406c-14.976563.265625-30.042969 4.949219-42.425781 13.191406-8.910157 5.921875-16.738282 13.882813-22.648438 23.03125l-7.34375-2.496094c.929688-11.441406.328125-22.964843-1.796875-34.246093 2.070313 11.347656 2.671875 22.921875 1.71875 34.421875l-.96875 11.707031zm0 0" fill="#efb17c"/><path d="m173.402344 268.117188c-5.0625 0-10.296875-.535157-15.554688-1.597657-16.757812-3.382812-32.359375-11.625-43.9375-23.199219-8.160156-8.164062-21.652344-25.308593-20.453125-37.804687.5-5.1875 4.855469-7.109375 9.070313-8.964844l.992187-.445312c6.960938-3.117188 12.347657-6.515625 15.976563-12.933594 4.890625-8.652344 4.71875-19.730469-.4375-28.214844l-.355469-.597656c-1.203125-1.917969-2.082031-3.488281-1.882813-5.214844.316407-3.199219 4.203126-4.5 6.109376-5.136719 17.554687-5.851562 33.160156-11.5 46.382812-21.460937 6.179688-4.660156 11.378906-10.089844 15.445312-16.136719l5.769532-8.582031 1.507812 10.226563c.257813 1.757812.625 3.515624 1.085938 5.222656 2.820312 10.445312 9.769531 18.421875 18.582031 21.335937l3.945313 1.300781-1.453126 3.894532c-2.992187 8.023437-2.546874 16.964844 1.222657 24.535156 3.917969 7.859375 11.394531 13.859375 19.996093 16.046875l3.417969.871094-.433593 3.5c-1.777344 14.25-3.78125 28.128906-8.722657 41.339843-6.023437 16.066407-16.011719 28.605469-28.121093 35.296876-7.949219 4.398437-17.683594 6.71875-28.152344 6.71875zm0 0" fill="#efb17c"/><path d="m164.558594 324.90625c-.386719-.507812-.757813-.941406-1.132813-1.332031-2.625-2.734375-6.207031-4.300781-9.828125-4.300781-1.054687 0-2.085937.140624-3.066406.410156-1.613281.449218-3.144531 1.304687-4.425781 2.476562l-3.015625 2.746094-2.6875-3.066406c-1.367188-1.558594-3.089844-2.609375-4.984375-3.042969-.136719-.023437-.25-.039063-.359375-.0625l-4.46875-.886719 1.5625-4.617187.066406-.136719c1.832031-4.609375 1.921875-9.570312.234375-13.628906-1.890625-4.558594-6.015625-7.8125-10.519531-8.304688-.152344-.007812-.265625-.011718-.378906-.019531l-6.683594-.527344 3.636718-5.632812c4.75-7.347657 7.34375-15.851563 7.5-24.589844l.121094-6.691406 5.835938 3.273437c8.109375 4.550782 16.8125 7.785156 25.875 9.609375 5.265625 1.0625 10.492187 1.601563 15.539062 1.601563 10.476563 0 20.234375-2.324219 28.207032-6.722656.800781-.449219 1.675781-.972657 2.582031-1.554688l6.660156-4.269531-.507813 7.894531c-.203124 3.164062-.347656 7.324219.34375 11.464844.640626 3.867187 2.015626 7.394531 3.976563 10.214844l3.382813 4.859374-5.773438 1.324219c-4.007812.917969-7.546875 4.011719-9.226562 8.070313-1.683594 4.050781-1.601563 9 .222656 13.601562l.050781.097656.128906.367188 1.464844 4.320312-4.476563.886719c-.125.023438-.253906.046875-.382812.0625-1.933594.46875-3.621094 1.511719-4.972656 3.046875l-2.695313 3.0625-3.007812-2.757812c-1.269531-1.160156-2.792969-2.015625-4.410157-2.464844-.980468-.269531-2.011718-.410156-3.070312-.410156-3.625 0-7.203125 1.566406-9.820312 4.296875-.378907.394531-.75.832031-1.136719 1.335937l-3.183594 4.167969zm0 0" fill="#efb17c"/><path d="m62.34375 505.417969c-14.132812-.507813-28.113281-1.089844-41.554688-1.722657l-3.324218-.15625-.449219-3.296874c-4.289063-31.492188-9.148437-67.183594-2.527344-102.148438 5.226563-27.636719 17.980469-51.792969 35.917969-68.019531l5.808594-5.257813.851562 7.789063c6.082032 55.75 9.253906 112.542969 9.421875 168.800781l.011719 4.160156zm0 0" fill="#efb17c"/><path d="m101.414062 93.304688c.597657 0 1.199219-.03125 1.796876-.097657 1.238281-.132812 2.453124-.410156 3.613281-.816406 7.382812-2.605469 11.90625-9.476563 11-16.714844-.820313-6.542969-5.96875-11.1875-13.117188-11.835937-6.523437-.589844-15.046875 2.023437-18.707031 8.15625-1.441406 2.414062-3.234375 7.410156.953125 13.734375 3.089844 4.667969 8.738281 7.574219 14.460937 7.574219zm-8.492187-17.175782c1.617187-2.703125 6.679687-4.660156 11.058594-4.257812 4.613281.417968 5.640625 3.191406 5.84375 4.808594.351562 2.816406-1.277344 6.550781-5.683594 8.105468-.570313.203125-1.175781.339844-1.800781.40625-3.34375.363282-6.898438-1.246094-8.664063-3.910156-2.011719-3.042969-1.097656-4.574219-.753906-5.152344zm0 0"/><path d="m295.386719 339.550781c22.433593-14.757812 37.101562-41.269531 37.523437-68.121093.433594-27.511719-14.085937-55.140626-36.988281-70.390626l-.238281-.15625c-3.039063-2.023437-6.484375-4.316406-6.695313-6.867187-.144531-1.71875 1.128907-3.679687 2.597657-5.945313 1.839843-2.84375 3.929687-6.0625 3.960937-10.144531.042969-4.996093-2.910156-8.5625-5.515625-11.710937-1.636719-1.976563-3.183594-3.84375-3.703125-5.71875-.925781-3.324219 1.113281-6.921875 3.476563-11.089844 1.519531-2.683594 3.09375-5.457031 4.058593-8.523438 1.9375-6.15625.65625-13.300781-3.421875-19.109374-2.722656-3.875-6.429687-6.777344-10.511718-8.359376 10.878906-19.453124 9.597656-45.101562-3.730469-63.132812-13.859375-18.742188-39.402344-27.453125-61.835938-21.457031-9.863281-16-27.757812-27.117188-46.488281-28.640625-19.84375-1.613282-40.480469 7.542968-52.601562 23.324218-.046876.0625-.078126.128907-.121094.195313-2.789063-1.738281-5.90625-2.796875-9.265625-2.808594-.019531 0-.035157 0-.050781 0-4.414063 0-8.675782 1.992188-12.320313 5.761719-5.238281 5.417969-8.855469 14.402344-8.597656 21.433594.015625.347656.03125.847656.027343 1.304687-.308593-.121093-.628906-.261719-.898437-.378906-7.980469-3.445313-17.394531-3.285156-25.179687.433594-9.585938 4.578125-15.109376 13.507812-14.773438 23.886719.21875 6.792968 3.277344 13.566406 8.335938 18.757812-7.839844 5.75-13.601563 14.460938-15.679688 23.941406-2.339844 10.667969-.046875 22.410156 6.132812 31.417969.214844.308594.433594.621094.65625.933594 1 1.417969 1.949219 2.761719 2.097657 3.898437.296875 2.273438-2.265625 4.5625-5.917969 7.546875-.683594.558594-1.359375 1.113281-2 1.660157-9.160156 7.878906-13.550781 21.089843-10.925781 32.882812 1.4375 6.46875 4.65625 12.066406 7.773437 17.484375 1.3125 2.289063 2.558594 4.449219 3.675782 6.679687 3.476562 6.917969 5.664062 14.332032 6.492187 22.03125.039063.371094.164063 1.503907.023437 1.84375-.289062.6875-2.988281 1.296876-4.347656 1.601563-22.335937 5.023437-39.699218 26.066406-40.3867185 48.949219-.6484375 21.496094 13.4843745 42.253906 33.4296875 49.964844-11.023437 15.011718-19.023437 33.617187-22.960937 54.40625-6.761719 35.71875-1.820313 71.84375 2.957031 106.78125.261719 1.925781 1.863281 3.386718 3.800781 3.480468 61.320312 2.933594 123.171875 4.402344 184.925781 4.402344 38.75 0 77.472657-.578125 115.976563-1.738281 1.917968-.058594 3.53125-1.460938 3.851562-3.355469 5.527344-32.554688 10.132813-70.71875 2.394532-106.929688-5-23.378906-15.199219-44.257812-29.011719-60.425781zm-233.046875-282.824219c5.714844-2.730468 12.628906-2.847656 18.585937-.273437 1.988281.859375 5.308594 2.292969 8.550781.363281 3.75-2.234375 3.585938-6.652344 3.496094-9.089844-.15625-4.21875 2.171875-11.15625 6.335938-15.464843 2.128906-2.199219 4.371094-3.324219 6.546875-3.304688 4.453125.015625 8.035156 3.753907 9.773437 5.976563 2.785156 3.5625 4.773438 8.261718 5.066406 11.972656.375 4.785156-.273437 9.542969-1.160156 15.261719-.277344 1.796875.679688 3.554687 2.335938 4.296875 1.660156.742187 3.609375.285156 4.761718-1.121094 1.878907-2.285156 4.945313-3.664062 8.40625-3.777344 3.933594-.121094 7.714844 1.339844 10.136719 3.917969 4.855469 5.183594 5.203125 14.269531.789063 20.6875-4.195313 6.101563-12.335938 9.820313-20.707032 9.488281-2.195312-.105468-4.039062 1.578125-4.183593 3.753906-.613281 9.097657-5.433594 17.347657-12.582031 21.539063-7.417969 4.351563-17.230469 3.773437-23.324219-1.378906-6.195313-5.234375-7.730469-15.265625-3.289063-21.46875 1.296875-1.8125.90625-4.359375-.90625-5.652344-1.808594-1.296875-4.300781-.910156-5.597656.898437-1.609375 1.109376-10.816406-1.609374-14.941406-4.863281-4.929688-3.882812-8.105469-9.792969-8.285156-15.417969-.234376-7.183593 3.480468-13.140624 10.191406-16.34375zm-54.261719 236.480469c.574219-19 15.550781-37.152343 34.160156-41.339843 3.214844-.722657 8.078125-1.816407 9.964844-6.367188.929687-2.242188.679687-4.554688.546875-5.796875-.9375-8.660156-3.394531-17-7.304688-24.785156-1.222656-2.429688-2.578124-4.792969-3.894531-7.078125-2.941406-5.117188-5.71875-9.949219-6.890625-15.214844-1.996094-8.972656 1.34375-19.027344 8.3125-25.015625.589844-.507813 1.214844-1.015625 1.847656-1.53125 4.097657-3.351563 9.710938-7.9375 8.808594-14.835937-.40625-3.113282-2.125-5.550782-3.507812-7.507813-.199219-.28125-.398438-.5625-.59375-.847656-4.941406-7.199219-6.773438-16.59375-4.902344-25.125 1.84375-8.40625 7.3125-16.0625 14.652344-20.5625 3.398437 1.800781 8.164062 3.75 12.535156 4.289062-1.820312 8.558594 1.136719 18.324219 8.148438 24.25 4.8125 4.0625 11.207031 6.144531 17.707031 6.144531 5.148437 0 10.363281-1.308593 14.90625-3.972656 8.410156-4.933594 14.367187-14.007812 16.105469-24.242187 9.820312-.652344 18.761718-5.414063 23.929687-12.925781 6.582031-9.574219 5.914063-22.800782-1.550781-30.769532-3.984375-4.25-10.0625-6.664062-16.285156-6.464844-2.140626.070313-4.207032.449219-6.132813 1.109376.242187-2.796876.3125-5.550782.089844-8.347657-.429688-5.421875-3.203125-12.140625-7.585938-17.300781.1875-.164062.363281-.347656.519531-.550781 10.496094-13.667969 28.378907-21.59375 45.550782-20.199219 17.179687 1.398438 33.542968 12.109375 41.695312 27.289062.929688 1.730469 2.96875 2.539063 4.832032 1.917969 19.933593-6.675781 43.472656.746094 55.96875 17.648438 12.496093 16.90625 12.691406 41.585937.460937 58.683593-.859375 1.207032-.992187 2.785157-.339844 4.117188.648438 1.328125 1.976563 2.195312 3.457031 2.257812 3.957032.160157 7.902344 2.507813 10.550782 6.277344 2.648437 3.765625 3.515625 8.269532 2.328125 12.050782-.710938 2.25-2.007813 4.542968-3.382813 6.964843-2.835937 5.003907-6.050781 10.675781-4.230468 17.226563.984374 3.53125 3.257812 6.277344 5.261718 8.703125 1.976563 2.386719 3.683594 4.449219 3.667969 6.503906-.015625 1.734375-1.304687 3.71875-2.667969 5.820313-1.984375 3.066406-4.234375 6.539062-3.867187 11 .53125 6.4375 6.160156 10.179687 10.265625 12.914062l.238281.15625c20.675781 13.765625 33.785156 38.710938 33.394531 63.546875-.386718 24.691406-14.113281 49.0625-35 62.230469-7.566406-7.664063-16.03125-14.007813-25.183594-18.738282 1.125-2.976562 1.386719-6.351562.691407-9.652343-.945313-4.488281-3.550781-8.386719-7.148438-10.707031-3.449219-2.21875-7.5625-2.953126-11.691406-2.234376-.054687-2.722656-.886719-5.25-2.5-7.453124-4.269531-5.824219-12.917969-7.3125-18.882813-3.246094-1.757812 1.195312-3.144531 2.785156-4.140624 4.585937-.050782-.042969-.089844-.09375-.144532-.136719-3.140625-2.410156-5.332031-6.53125-6.171875-11.613281-.824219-4.953125-.359375-10.285156.085938-15.441406.058593-.683594-.074219-1.335937-.324219-1.925781 7.996094-7.4375 14.574219-17.527344 19.039062-29.441406 5.589844-14.921876 7.539063-30.71875 9.421876-46 .269531-2.195313-1.28125-4.203126-3.480469-4.488282-8.53125-1.113281-16.527344-6.804687-20.367188-14.503906-3.835937-7.703125-3.570312-17.511719.679688-24.996094.671875-1.1875.699219-2.640625.066406-3.851562-.632813-1.214844-1.835937-2.023438-3.199219-2.152344-10.105468-.949219-17.222656-10.679688-19.558594-19.316406-1.773437-6.566406-1.78125-13.429688-1.039062-20.75 1.066406-4.003906 1.617188-8.058594 1.617188-12.078125-.003907-2.101563-1.621094-3.851563-3.71875-4.015625-2.101563-.171875-3.96875 1.308594-4.296876 3.386718-.613281 3.867188-1.171874 7.621094-1.5625 11.289063-3.03125 10.753906-10.480468 21.191406-21.175781 29.25-12.734375 9.59375-28.011719 15.121094-45.214843 20.851563-2.089844.699218-7.648438 2.550781-8.742188 7.761718-.75 3.582032 1.050781 6.503906 2.367188 8.636719l.316406.515625c4.335937 7.144531 4.484375 16.828125.371094 24.105469-3.085938 5.457031-7.871094 8.4375-14.109376 11.230469l-.964843.429687c-4.535157 2-10.75 4.742187-11.472657 12.300781-1.617187 16.890625 17.722657 37.164063 21.617188 41.058594 3.273438 3.273438 6.863281 6.285156 10.691406 9.019531 1.136719 10.445313-1.824218 21.179688-8.03125 29.621094-.898437-1.28125-2.015625-2.421875-3.347656-3.328125-5.96875-4.066406-14.617188-2.582031-18.882812 3.246094-1.613282 2.203125-2.449219 4.726562-2.503907 7.449218-4.125-.71875-8.238281.019532-11.6875 2.238282-3.597656 2.316406-6.203125 6.21875-7.148437 10.703125-.496094 2.339843-.5 4.714843-.066406 6.964843-11.765626 5.496094-22.34375 13.734376-31.296876 24.136719-17.832031-5.621093-31.242187-24.332031-30.679687-43.03125zm163.675781 109.253907c-.410156-2.191407-2.519531-3.628907-4.707031-3.21875-2.1875.414062-3.628906 2.519531-3.21875 4.707031 2.078125 11.039062 2.652344 22.214843 1.726563 33.347656-11.78125-18.242187-30.828126-32-51.96875-36.726563-7.035157-1.574218-12.992188-1.695312-18.03125-.351562-3.039063-25.710938-8.164063-51.28125-15.25-76.191406.910156.34375 1.847656.628906 2.816406.820312 1.058594.210938 2.117187.324219 3.171875.34375-1.546875 4.660156-2.1875 10.28125 1.011719 15.144532 2.445312 3.722656 7.265624 6.324218 12.710937 6.324218 2.445313 0 5.019531-.535156 7.558594-1.71875-.457031 2.121094-.519531 4.371094-.144531 6.605469.75 4.523437 3.1875 8.53125 6.683593 11 3.496094 2.46875 8.089844 3.425781 12.601563 2.625 1.0625-.191406 2.089844-.46875 3.078125-.835937.253906 4.902343 1.703125 10.371093 6.453125 13.738281 2.195312 1.558593 5.046875 2.417969 8.082031 2.417969 4.726563 0 9.890625-2.089844 13.691406-6.890626 4.515625-5.710937 5.589844-13.667968 3.300781-20.480468 2.242188-.648438 4.363282-1.886719 6.058594-3.648438.125-.132812.234375-.277344.355469-.414062.121094.136718.230469.28125.355469.414062 1.695312 1.761719 3.820312 3 6.058594 3.648438-2.289063 6.8125-1.214844 14.769531 3.304687 20.480468 3.796875 4.800782 8.960937 6.890626 13.691406 6.890626 3.03125 0 5.882813-.859376 8.078125-2.414063 4.75-3.367187 6.199219-8.835937 6.453125-13.742187.988281.367187 2.019531.648437 3.078125.835937 4.515625.800781 9.109375-.152344 12.601563-2.621094 3.496093-2.46875 5.933593-6.480469 6.6875-11.003906.371093-2.234375.308593-4.484375-.148438-6.605469 2.542969 1.183594 5.113281 1.71875 7.558594 1.71875 5.445313 0 10.265625-2.601562 12.710937-6.324218 3.199219-4.863282 2.558594-10.484376 1.011719-15.144532 1.054688-.019531 2.113281-.132812 3.171875-.339844.769532-.15625 1.515625-.375 2.246094-.621093-6.816406 24.632812-11.0625 49.980469-12.632812 75.492187-15.757813.273438-31.445313 5.128906-44.570313 13.859375-9.476563 6.300781-17.609375 14.621094-23.785156 24.191407.964843-11.785157.347656-23.625-1.851563-35.3125zm-90.121094-101.246094c3.53125-2.277344 7.878907-1.007813 10.769532.9375 1.515625 1.019531 3.53125.890625 4.90625-.3125 1.378906-1.207032 1.769531-3.191406.953125-4.828125-1.066407-2.148438-1.984375-5.195313-.296875-7.5 1.679687-2.292969 5.488281-2.949219 7.839844-1.347657 1.882812 1.285157 2.761718 3.976563 2.25 6.230469-.449219.796875-.8125 1.644531-1.085938 2.53125-.589844 1.933594.339844 4 2.175781 4.84375 1.832031.84375 4.007813.199219 5.089844-1.507812.492187-.78125.894531-1.601563 1.207031-2.449219 1.289063-1.726562 3.710938-2.855469 6.003906-2.621094 3.023438.308594 5.9375 2.648438 7.253907 5.824219 1.296875 3.125 1.183593 7.023437-.300781 10.695313-.683594 1.679687-2.246094 4.695312-5.066407 5.996093-1.949219.898438-4.367187.601563-5.507812-.671875-1.285157-1.433594-3.40625-1.761718-5.0625-.777344-1.65625.980469-2.386719 2.996094-1.742188 4.8125 2.042969 5.769532-.59375 12.972657-5.875 16.0625-3.511719 2.050782-9.003906 1.964844-11.101562-1.226562-2.554688-3.886719.484375-10.304688 2.996093-14.792969.910157-1.628906.585938-3.671875-.789062-4.9375-.765625-.703125-1.746094-1.0625-2.730469-1.0625-.78125 0-1.570312.226563-2.257812.691407-1.773438 1.199218-4.164063 1.613281-6.5625 1.132812-2.398438-.476562-4.449219-1.773438-5.628907-3.5625-1.179687-1.785156-1.566406-4.183594-1.0625-6.574219.503907-2.390625 1.828126-4.429687 3.625-5.585937zm40.851563-148.335938-.347656-.5625c-.464844-.753906-1.429688-2.316406-1.335938-2.75 0-.007812.230469-.710937 3.398438-1.765625 17.886719-5.960937 33.808593-11.734375 47.515625-22.0625 6.613281-4.980469 12.136718-10.808593 16.363281-17.101562.28125 1.898437.667969 3.789062 1.179687 5.683593 3.597657 13.320313 12.511719 21.214844 21.195313 24.089844-3.332031 8.925782-2.898437 19.132813 1.382813 27.71875 4.480468 8.988282 12.921874 15.683594 22.597656 18.144532-1.703125 13.640624-3.695313 27.574218-8.507813 40.421874-5.691406 15.183594-15.035156 26.976563-26.3125 33.207032-11.082031 6.125-25.636719 7.792968-40.972656 4.699218-15.992187-3.226562-30.871094-11.082031-41.90625-22.113281-9.9375-9.933593-20.210937-24.996093-19.292969-34.589843.25-2.597657 2.132813-3.675782 6.703125-5.691407l1.007813-.445312c6.648437-2.980469 13.414062-6.816407 17.828125-14.625 5.589843-9.886719 5.394531-22.546875-.496094-32.257813zm106.019531 144.046875c-.269531-.886719-.636718-1.734375-1.082031-2.53125-.511719-2.257812.363281-4.949219 2.25-6.230469 2.347656-1.601562 6.15625-.945312 7.835937 1.347657 1.691407 2.304687.773438 5.351562-.296874 7.5-.8125 1.636719-.421876 3.621093.953124 4.824219 1.375 1.207031 3.390626 1.335937 4.910157.316406 2.886719-1.945313 7.234375-3.214844 10.765625-.9375 1.800781 1.15625 3.121094 3.195312 3.625 5.585937.503906 2.394531.117187 4.789063-1.0625 6.578125-1.179688 1.785156-3.230469 3.085938-5.625 3.5625-2.398438.476563-4.792969.0625-6.566406-1.136718-1.546876-1.042969-3.609376-.890626-4.984376.371093-1.375 1.265625-1.703124 3.308594-.792968 4.9375 2.511718 4.488281 5.554687 10.90625 2.996094 14.792969-2.09375 3.191406-7.589844 3.277344-11.097657 1.226562-5.285156-3.089843-7.917969-10.292968-5.875-16.0625.640625-1.816406-.089843-3.832031-1.746093-4.8125-.640626-.382812-1.347657-.566406-2.054688-.566406-1.117188 0-2.214844.464844-3.003906 1.34375-1.140625 1.273438-3.5625 1.566406-5.511719.671875-2.816406-1.304687-4.382813-4.316406-5.0625-6-1.488281-3.667969-1.597656-7.566406-.304687-10.691406 1.316406-3.175781 4.234374-5.515625 7.257812-5.824219 2.292969-.238281 4.714844.890625 6.003906 2.621094.3125.847656.714844 1.667969 1.207032 2.445312 1.082031 1.707032 3.257812 2.351563 5.089843 1.511719 1.835938-.84375 2.761719-2.910156 2.171875-4.84375zm-31.347656 59.703125c.703125 5.09375 1.203125 12.175782-2.59375 14.867188-3.113281 2.207031-8.261719.292968-10.785156-2.898438-3.796875-4.796875-3.628906-12.46875.375-17.097656 1.257812-1.457031 1.3125-3.601562.128906-5.117188-.785156-1.007812-1.972656-1.550781-3.179688-1.550781-.617187 0-1.238281.140625-1.820312.433594-1.527344.773437-3.886719.164063-5.375-1.378906-1.066406-1.113281-1.691406-2.5-2.054688-3.839844.1875-1.125.296876-2.289063.3125-3.488281.015626-1.4375-.097656-2.851563-.320312-4.234375.570312-2.316407 1.640625-4.378907 3.136719-5.9375 2.382812-2.480469 5.949219-3.597657 8.878906-2.785157 2.222656.617188 4.066406 2.550782 4.640625 4.628907-.019531.902343.054688 1.8125.230469 2.71875.386719 1.980469 2.164062 3.375 4.191406 3.257812 2.015625-.117187 3.636719-1.707031 3.789063-3.71875.070312-.925781.035156-1.847656-.089844-2.753906.34375-2.285156 2.140625-4.472656 4.363281-4.984375 2.769531-.636719 6.082031 1.363281 6.8125 4.109375.734375 2.761719-1.230469 5.265625-3.007813 6.878906-1.355468 1.230469-1.714843 3.21875-.871093 4.84375s2.675781 2.476563 4.457031 2.078125c3.398438-.761718 7.910156-.359375 10.371094 3.042969 1.253906 1.734375 1.742187 4.113281 1.339844 6.523437-.398438 2.410157-1.632813 4.503907-3.382813 5.738282-1.746094 1.234375-4.128906 1.699218-6.535156 1.269531-2.410157-.425781-4.488281-1.683594-5.703125-3.445313-1.058594-1.539062-3.039063-2.144531-4.777344-1.46875-1.738281.671876-2.789062 2.457032-2.53125 4.308594zm-40.109375-86.125c5.550781 1.121094 11.027344 1.675782 16.332031 1.675782 11.132813 0 21.496094-2.445313 30.136719-7.21875.953125-.527344 1.890625-1.097657 2.816406-1.691407-.257812 4.054688-.308593 8.191407.386719 12.386719.75 4.515625 2.351562 8.546875 4.636719 11.832031-5.230469 1.203125-9.832031 5.136719-12.03125 10.441407-2.097657 5.066406-1.996094 11.191406.28125 16.808593.011719.023438.023437.046875.03125.070313-.148438.03125-.300781.046875-.453125.078125-2.816406.648437-5.277344 2.214843-7.121094 4.320312-1.683594-1.550781-3.742188-2.734375-6.042969-3.375-5.789062-1.609375-12.40625.339844-16.851562 4.96875-.507813.527344-.980469 1.09375-1.429688 1.683594-.449219-.589844-.921875-1.15625-1.429687-1.6875-4.445313-4.625-11.058594-6.574219-16.851563-4.964844-2.300781.640625-4.359375 1.824219-6.042969 3.371094-1.84375-2.101563-4.300781-3.667969-7.121093-4.316406-.152344-.035157-.304688-.050781-.453125-.078125.007812-.023438.019531-.046875.03125-.070313 2.277344-5.617187 2.378906-11.742187.28125-16.808593-2.457032-5.925782-7.910156-10.152344-13.890625-10.757813-.132813-.015625-.261719-.007813-.394531-.015625 5.117187-7.921875 7.972656-17.261719 8.136718-26.695312 8.34375 4.679687 17.511719 8.121093 27.042969 10.042968zm6.574219 69.539063c-.363282 1.339843-.988282 2.730469-2.054688 3.839843-1.488281 1.546876-3.847656 2.152344-5.375 1.382813-1.71875-.871094-3.8125-.402344-4.996094 1.117187-1.1875 1.515626-1.132812 3.660157.128907 5.117188 4 4.628906 4.167969 12.300781.371093 17.097656-2.523437 3.1875-7.671874 5.105469-10.78125 2.898438-3.796874-2.691406-3.300781-9.773438-2.59375-14.871094.253907-1.847656-.792968-3.632812-2.535156-4.308594-.476562-.1875-.96875-.273437-1.457031-.273437-1.296875 0-2.550781.625-3.320313 1.742187-1.21875 1.761719-3.292968 3.019532-5.703124 3.445313-2.40625.429687-4.789063-.035157-6.539063-1.269531-1.746094-1.234376-2.980469-3.324219-3.382813-5.738282-.398437-2.410156.089844-4.789062 1.34375-6.523437 2.464844-3.402344 6.96875-3.804688 10.371094-3.042969 1.785156.398438 3.613282-.457031 4.457032-2.078125.84375-1.625.484374-3.613281-.871094-4.84375-1.777344-1.613281-3.738282-4.117187-3.007813-6.878906.730469-2.75 4.042969-4.75 6.8125-4.109375 2.222657.511718 4.019531 2.699218 4.363281 4.984375-.125.90625-.160156 1.828125-.089843 2.753906.15625 2.015625 1.773437 3.601563 3.789062 3.71875 2.019531.132813 3.808594-1.273437 4.191407-3.257813.175781-.90625.25-1.816406.230468-2.71875.574219-2.078124 2.417969-4.007812 4.640625-4.628906 2.925781-.8125 6.496094.308594 8.878907 2.785156 1.496093 1.558594 2.566406 3.621094 3.136718 5.9375-.222656 1.382813-.335937 2.796876-.320312 4.234376.015625 1.199218.128906 2.363281.3125 3.488281zm-145.207032 58.792969c5.148438-27.175782 17.5625-50.316407 34.679688-65.792969 6.070312 55.730469 9.230469 112.328125 9.390625 168.375-13.855469-.5-27.691406-1.066407-41.5-1.714844-4.539063-33.265625-8.878906-67.550781-2.570313-100.867187zm52.132813 102.863281c-.15625-58.15625-3.515625-116.910157-10-174.683594 3.324219-2.398437 6.789063-4.523437 10.378906-6.363281 8.3125 27.921875 14.105469 56.738281 17.207031 85.695312.144532 1.351563.957032 2.535156 2.164063 3.15625s2.648437.59375 3.828125-.074218c4.21875-2.386719 10.011719-2.710938 17.699219-.988282 24.265625 5.425782 45.480469 24.015625 54.042969 47.355469.578124 1.578125 2.078124 2.632813 3.757812 2.644531h.027344c1.671875 0 3.167968-1.03125 3.765625-2.59375 5.507812-14.390625 15.609375-27.019531 28.441406-35.554687 12.832031-8.535157 28.386719-12.972657 43.789063-12.484375 2.199218.085937 4.042968-1.628906 4.152343-3.824219 1.390625-27.328125 5.925781-54.488281 13.46875-80.789063 2.851563 1.585938 5.632813 3.339844 8.324219 5.265626-.039062.121093-.09375.238281-.125.363281-13.3125 57.351562-17.117188 116.109375-11.320312 174.679687-63.105469.945313-126.539063.335938-189.601563-1.804687zm244.050781.601562c-15.421875.449219-30.878906.796875-46.355468 1.0625-5.6875-56.777343-2.199219-113.734375 10.34375-169.382812 18.351562 15.949219 31.988281 39.902343 37.925781 67.679687 7.191406 33.660156 3.472656 68.175782-1.914063 100.640625zm0 0"/></svg>