<svg height="511pt" viewBox="-82 0 511 511.99908" width="511pt" xmlns="http://www.w3.org/2000/svg"><path d="m328.375 507.929688-51.777344-.476563.105469-4.0625c.636719-25.113281 3.644531-50.300781 8.949219-74.863281-5.367188 24.546875-8.378906 49.78125-9.023438 74.988281l-.101562 3.933594-76.914063-.710938.558594-4.453125c3.855469-30.847656 9.964844-61.652344 18.160156-91.5625l1.296875-4.726562 4.371094 2.21875c.777344.390625 1.582031.835937 2.328125 1.25l.117187.066406c.835938.472656 1.699219.960938 2.519532 1.359375 2.125 1.039063 4.539062 1.582031 6.984375 1.582031 3.292969 0 6.546875-.988281 9.164062-2.789062 2.867188-1.972656 5.050781-4.949219 6.148438-8.382813l1.421875-4.445312 4.175781 2.085937c2.246094 1.125 4.734375 1.71875 7.199219 1.71875.96875 0 1.9375-.09375 2.875-.273437 5.511718-1.070313 10.195312-5.210938 11.933594-10.554688.183593-.570312.34375-1.1875.507812-1.804687.488281-1.855469.992188-3.785156 2.386719-5.101563 1.121093-1.054687 2.628906-1.582031 4.492187-1.582031 1.410156 0 2.992188.28125 4.769532.617188 1.667968.320312 3.242187.625 4.800781.640624h.132812c5.726563 0 12.3125-5.113281 13.417969-13.671874.300781-2.296876.214844-4.691407-.261719-7.316407l7.164063-3.074219c11.429687 15.609376 19.359375 35.324219 23.570312 58.589844 4.3125 23.765625 4.324219 48.308594 4.332032 72.042969v.167969c0 6.542968-.699219 13.65625-5.902344 16.835937-2.675782 1.625-5.863282 1.761719-8.898438 1.761719zm0 0" fill="#935252"/><path d="m62.488281 505.472656.207031-4.160156c1.207032-24.289062.003907-48.78125-3.570312-72.792969 3.527344 24.144531 4.722656 48.738281 3.488281 73.113281l-.191406 3.832032-55.675781-.507813-.320313-3.613281c-2.210937-25.046875-2.457031-50.425781-.734375-75.4375.925782-13.527344 2.453125-27.941406 7.296875-41.695312 2.902344-8.234376 8.460938-19.960938 18.472657-29.070313l10.058593-9.152344-3.503906 13.144531c-.949219 3.566407-1.226563 6.769532-.835937 9.800782 1.109374 8.550781 7.710937 13.667968 13.453124 13.667968h.140626c1.523437-.015624 3.171874-.332031 4.761718-.636718 1.78125-.339844 3.363282-.621094 4.773438-.621094 1.871094 0 3.382812.535156 4.492187 1.59375 1.390625 1.3125 1.894531 3.242188 2.382813 5.105469.160156.601562.328125 1.21875.519531 1.816406 1.722656 5.320313 6.402344 9.457031 11.917969 10.527344.945312.183593 1.910156.273437 2.878906.273437 2.457031 0 4.945312-.59375 7.191406-1.714844l4.167969-2.085937 1.429687 4.4375c1.109376 3.4375 3.296876 6.417969 6.160157 8.390625 2.609375 1.800781 5.855469 2.792969 9.148437 2.792969 2.449219 0 4.867188-.546875 6.992188-1.585938.878906-.429687 1.847656-.976562 2.621094-1.414062l.308593-.171875c.691407-.382813 1.421875-.789063 2.136719-1.144532l4.875-2.4375 16.058594 100.5zm0 0" fill="#935252"/><g fill="#bfc7d8"><path d="m257.722656 87.523438c-2.066406-14.222657-7.714844-27.851563-16.339844-39.410157l-4.332031-5.804687 7.222657-.574219c12.472656-.992187 25.667968-2.378906 37.859374-7.410156 10.902344-4.507813 19.703126-11.832031 24.78125-20.625l4.570313-7.902344 2.714844 8.714844c2.320312 7.445312 3.734375 13.523437 4.457031 19.128906 1.003906 7.960937 1.070312 19.601563-4.308594 29.921875-4.65625 8.914062-13.222656 16.386719-24.117187 21.039062-7.824219 3.332032-16.785157 5.347657-28.207031 6.335938l-3.761719.328125zm0 0"/><path d="m130.472656 149.675781c-13.621094.003907-25.921875-.445312-37.609375-1.367187-6.960937-.546875-14.574219-1.867188-18.230469-7.503906-2.367187-3.632813-2.492187-8.128907-2.410156-12.804688.09375-4.652344.414063-9.480469 3.164063-13.035156 3.667969-4.78125 10.375-5.726563 16.375-6.238282 13.6875-1.171874 27.914062-2.03125 42.292969-2.5625 11.910156-.4375 24.28125-.660156 36.777343-.660156 12.472657 0 25.109375.210938 38.636719.636719 4.539062.144531 9.171875.488281 13.648438.820313 6.023437.441406 12.164062.890624 18.144531.894531.753906 0 1.507812-.007813 2.257812-.023438l1.382813-.03125c1.273437-.027343 2.480468-.050781 3.617187-.050781 6.507813 0 13.273438.597656 18.226563 7.753906 5.359375 7.707032 3.507812 19.472656-3.882813 24.675782-4.800781 3.371093-10.84375 3.960937-17.671875 4.34375l-46.078125 2.589843c-22.457031 1.261719-45.601562 2.5625-68.640625 2.5625zm0 0"/><path d="m187.847656 105.582031c-5.632812-.089843-11.308594-.132812-16.863281-.132812-3.839844 0-7.640625.023437-11.410156.0625l-4.0625.042969.402343-89.347657 3.320313-.558593c4.589844-.773438 9.308594-1.164063 14.019531-1.164063 4.445313 0 8.9375.347656 13.359375 1.035156l3.507813.542969-.125 3.546875c-.945313 27.140625-.304688 54.609375 1.898437 81.648437l.359375 4.390626zm0 0"/><path d="m78.261719 90.625c-17.941407-2.398438-34.199219-14.566406-41.421875-30.992188-6.296875-14.316406-5.5625-32.019531 1.921875-46.199218l3.816406-7.234375 3.367187 7.457031c4.246094 9.402344 13.34375 17.421875 24.339844 21.449219 7.5625 2.773437 15.925782 4.0625 26.324219 4.0625 2.128906 0 4.324219-.054688 6.714844-.164063l9.546875-.4375-6.386719 7.109375c-2.15625 2.398438-4.144531 4.804688-5.90625 7.148438-7.613281 10.148437-13.667969 21.953125-17.988281 35.085937l-1.039063 3.15625zm0 0"/></g><path d="m253.917969 107.960938c-1.527344-.1875-3.21875-.277344-5.324219-.277344-1.207031 0-2.402344.027344-3.574219.054687l-1.503906.03125c-.742187.015625-1.484375.023438-2.230469.023438-6.089844 0-12.5-.472657-18.160156-.890625-4.675781-.351563-9.238281-.679688-13.664062-.820313-4.117188-.136719-8.542969-.25-13.53125-.351562l-3.605469-.070313-.300781-3.597656c-2.214844-26.785156-2.886719-54.054688-2-81.0625l.164062-4.992188 4.835938 1.253907c11.917968 3.082031 23.109374 8.710937 32.371093 16.273437 20.667969 16.890625 32.550781 43.976563 31.011719 70.6875l-.246094 4.265625zm0 0" fill="#939baa"/><path d="m78.109375 105.457031c3.8125-19.867187 11.597656-38.058593 22.523437-52.597656 12.988282-17.285156 30.6875-29.800781 49.84375-35.246094l.175782-.046875 5.203125-1.722656-.402344 89.703125-3.910156.074219c-6.019531.109375-11.898438.273437-17.480469.484375-14.523438.53125-28.757812 1.394531-42.308594 2.5625-2.3125.199219-5.476562.472656-8.59375 1.382812l-6.28125 1.835938zm0 0" fill="#939baa"/><path d="m206.09375 413.734375c-1.917969 0-3.898438-.460937-5.570312-1.296875-3.410157-1.703125-6.398438-4.898438-9.140626-9.765625-8.621093-15.320313-8.996093-35.320313-.960937-50.949219l-.304687-2.074218 1.527343-1.445313c2.078125-1.949219 3.910157-3.996094 5.683594-5.980469l.078125-.089844c15.785156-17.707031 33.546875-38.652343 44.503906-63.097656l1.199219-2.679687 2.914063.339843c.3125.039063 1.175781.125 1.175781.125l.183593.019532c1.550782.164062 2.890626.304687 5.207032.667968 22.023437 3.472657 42.730468 14.179688 58.304687 30.148438 3.449219 3.539062 8.328125 9.015625 10.804688 15.703125 2.414062 6.535156 2.0625 13.464844-.933594 18.542969-2.644531 4.46875-7.75 7.464844-12.710937 7.464844-1.261719 0-2.484376-.191407-3.628907-.566407 2.921875 5.921875 5.820313 12.917969 4.882813 20.125-.839844 6.542969-6.191406 13.613281-13.367188 13.613281h-.136718c-1.5-.023437-3.03125-.3125-4.648438-.617187l-.113281-.019531c-1.503907-.289063-3.191407-.609375-4.773438-.609375-1.992187 0-3.394531.488281-4.554687 1.589843-1.382813 1.3125-1.898438 3.246094-2.394532 5.109376-.152343.589843-.316406 1.1875-.496093 1.765624-1.75 5.378907-6.414063 9.503907-11.902344 10.570313-.921875.179687-1.875.269531-2.832031.269531-4.660156 0-9.191406-2.085937-12.113282-5.578125.453126 5.683594-2.242187 11.410157-6.910156 14.617188-2.578125 1.785156-5.824218 2.773437-9.125 2.773437-2.4375 0-4.839844-.539062-6.941406-1.5625-.828125-.410156-1.636719-.863281-2.488281-1.347656l-.136719-.074219c-2.203125-1.246093-4.949219-2.792969-7.316406-2.792969-1.019532 0-1.90625.277344-2.804688.875-.824218.554688-1.457031 1.363282-2.074218 2.144532-.300782.402344-.695313.914062-1.117188 1.355468-1.664062 1.75-4.144531 2.726563-6.96875 2.726563zm0 0" fill="#af7979"/><path d="m140.460938 413.734375c-2.820313 0-5.300782-.976563-6.984376-2.75-.386718-.402344-.761718-.890625-1.09375-1.320313-.601562-.777343-1.234374-1.589843-2.085937-2.164062-.886719-.59375-1.773437-.871094-2.792969-.871094-2.367187 0-5.113281 1.550782-7.316406 2.792969l-.308594.175781c-.800781.445313-1.554687.867188-2.308594 1.238282-2.121093 1.03125-4.519531 1.574218-6.957031 1.574218-3.296875 0-6.539062-.984375-9.136719-2.777344-4.597656-3.167968-7.347656-9.035156-6.839843-14.59375-2.988281 3.472657-7.515625 5.558594-12.175781 5.558594-.957032 0-1.910157-.089844-2.832032-.269531-5.496094-1.066406-10.15625-5.195313-11.875-10.519531-.191406-.578125-.355468-1.203125-.515625-1.824219-.496093-1.855469-1.007812-3.78125-2.398437-5.097656-1.164063-1.105469-2.566406-1.59375-4.554688-1.59375-1.585937 0-3.269531.320312-4.75.605469l-.128906.023437c-1.621094.304687-3.152344.59375-4.648438.617187h-.140624c-7.164063 0-12.519532-7.066406-13.375-13.609374-.929688-7.214844 1.972656-14.207032 4.933593-20.09375-1.1875.339843-2.410156.53125-3.671875.53125-4.957031 0-10.066406-2.996094-12.707031-7.460938-3.003906-5.066406-3.355469-12-.941406-18.542969 2.480469-6.710937 7.359375-12.179687 10.816406-15.710937 14.734375-15.109375 34.3125-25.617188 55.117187-29.582032l3.394532-.644531 1.132812 3.261719c2.609375 7.507812 8.792969 12.898438 14.773438 18.109375 2.195312 1.921875 4.199218 3.675781 6.117187 5.554687 5.933594 5.828126 10.789063 12.855469 15.484375 19.652344l.058594.082032c6.230469 9.027343 12.671875 18.355468 21.636719 24.855468.410156.292969.832031.59375 1.257812.882813l1.09375.734375.464844 1.308594c7.96875 15.578124 7.578125 35.519531-1.023437 50.804687-2.734376 4.859375-5.722657 8.050781-9.132813 9.765625-1.691406.839844-3.667969 1.296875-5.585937 1.296875zm0 0" fill="#af7979"/><path d="m143.652344 506.21875-15.664063-97.988281 7.292969 4.246093c1.527344.886719 3.328125 1.355469 5.207031 1.355469 1.894531 0 3.828125-.464843 5.589844-1.339843 3.414063-1.714844 6.40625-4.917969 9.144531-9.78125 7.308594-12.992188 8.847656-28.695313 4.21875-43.082032l-2.355468-7.320312 7.347656 2.273437c3.066406.949219 6.136718 1.429688 9.125 1.429688 2.996094 0 5.894531-.484375 8.375-1.402344l7.722656-2.855469-2.527344 7.835938c-4.652344 14.40625-3.121094 30.121094 4.195313 43.121094 2.746093 4.863281 5.746093 8.066406 9.164062 9.789062 1.75.867188 3.6875 1.332031 5.570313 1.332031 1.707031 0 3.351562-.375 4.753906-1.09375l7.953125-4.058593-2.269531 8.636718c-7.394532 28.179688-12.945313 57.070313-16.496094 85.875l-.4375 3.542969zm0 0" fill="#644c4c"/><path d="m173.632812 356.015625c-6.601562 0-13.96875-2.59375-20.207031-7.117187-8.929687-6.480469-15.066406-15.351563-21.5625-24.75l-.0625-.09375c-4.691406-6.808594-9.539062-13.839844-15.542969-19.742188-1.886718-1.84375-3.890624-3.609375-6.125-5.554688-6.074218-5.304687-12.347656-10.785156-14.867187-18.398437-1.859375-5.574219-1.414063-11.609375-.984375-17.441406l3.996094.191406-3.992188-.292969c.222656-2.996094.449219-6.09375.359375-9.109375-.234375-8.132812-2.734375-16.019531-5.148437-23.648437-.582032-1.851563-1.148438-3.660156-1.6875-5.460938l-.28125-.925781c-.109375-.355469-.214844-.710937-.316406-1.0625-6.652344-23.253906-6.964844-47.96875-.902344-71.464844l.855468-3.324219 3.414063.339844c.820313.082032 1.554687.15625 2.28125.214844 7.027344.546875 14.398437.921875 22.53125 1.148438l2.230469.0625 1.121094 1.929687c3.878906 6.699219 4.171874 15.15625.765624 22.066406-1.152343 2.339844-2.652343 4.414063-4.238281 6.609375l-.066406.09375c-2.132813 2.949219-4.128906 5.703125-5.269531 9.003906-1.855469 5.386719-1.089844 12.035157 2.101562 18.230469 2.816406 5.480469 7.039063 10.066407 11.121094 14.292969l3.382812 3.5-4.085937 2.636719c-3.601563 2.328125-7.527344 3.605469-11.066406 3.605469-2.585938 0-4.894531-.664063-6.863281-1.976563 2.441406 7.269531 8.664062 13.488281 16.597656 16.671875 4.449218 1.785156 9.449218 2.691406 14.859375 2.691406 2.917969 0 5.953125-.273437 9.023437-.808594 6.804688-1.191406 16.308594-4.175781 22.9375-11.636718.175782-.195313.324219-.367188.472656-.546875l3.171876-3.847657 3.066406 3.925782c.121094.152344.246094.296875.371094.4375 6.65625 7.492187 16.160156 10.476562 22.964843 11.664062 3.0625.539063 6.101563.808594 9.027344.808594 5.40625 0 10.40625-.902344 14.855469-2.6875 7.9375-3.183594 14.160156-9.402344 16.648437-16.640625-2.011719 1.28125-4.324219 1.945313-6.910156 1.945313-4.167969 0-9.003906-1.839844-12.9375-4.925782l-.125-.105468-.59375-.511719-3.515625-2.984375 3.449219-3.058594c8.582031-7.613281 12.078125-20.367188 8.503906-31.015625-1.046875-3.105469-2.636719-6.050781-4.171875-8.898437l-.066406-.125c-1.722656-3.160157-3.511719-6.441407-4.550782-10.007813-2.1875-7.476563-.699218-16.101563 3.875-22.507813l1.117188-1.558593 22.613281-1.269531c1.386719-.078126 2.847657-.164063 4.359375-.292969l3.136719-.261719.992187 2.984375c4.207032 12.628906 2.75 25.816406 1.210938 39.78125l-.078125.714844c-.351563 3.234375-.714844 6.578125-.980469 9.832031-.554687 6.835938-.707031 13.832031-.855468 20.597656l-.003907.195313c-.230469 11.054687-.472656 22.492187-2.492187 33.550781-6.539063 35.765625-30.855469 65.417969-53.140625 90.40625-4.84375 5.421875-8.996094 9.757812-14.652344 12.140625-2.800781 1.183594-5.851563 1.78125-9.070313 1.78125zm0 0" fill="#c67045"/><path d="m207.019531 248.878906c-2.925781 0-5.957031-.273437-9.019531-.808594-6.800781-1.191406-16.296875-4.171874-22.902344-11.613281-1.28125-1.453125-2.515625-3.296875-3.570312-5.339843-1.152344 2.105468-2.355469 3.902343-3.640625 5.34375-6.601563 7.4375-16.09375 10.417968-22.898438 11.609374-3.058593.535157-6.09375.808594-9.015625.808594-5.394531 0-10.386718-.90625-14.835937-2.699218-4.445313-1.78125-8.410157-4.53125-11.460938-7.957032l-5.433593-6.097656 8.144531-.554688c4-.273437 8.363281-2.0625 11.96875-4.902343 2.714843-2.128907 5.121093-4.683594 7.445312-7.152344l.117188-.125c2.585937-2.738281 5.023437-5.328125 7.953125-7.523437 5.328125-4.015626 13.636718-6.820313 20.199218-6.820313 4.71875 0 8.585938 1.386719 11.183594 4.007813.0625.0625.148438.160156.234375.257812l.007813.007812.144531-.164062.078125-.082031c2.597656-2.640625 6.472656-4.03125 11.203125-4.03125 6.558594 0 14.871094 2.808593 20.207031 6.832031 2.917969 2.191406 5.359375 4.777344 7.941406 7.519531l.078126.082031c2.367187 2.511719 4.773437 5.0625 7.480468 7.183594l.488282.386719c3.523437 2.621094 7.675781 4.261719 11.484374 4.523437l8.144532.558594-5.429688 6.09375c-3.050781 3.425782-7.019531 6.179688-11.46875 7.960938-4.445312 1.789062-9.4375 2.695312-14.828125 2.695312zm0 0" fill="#c67045"/><path d="m253.050781 218.222656.015625-.808594c.148438-6.589843.296875-13.402343.847656-20.0625.289063-3.578124.699219-7.28125 1.0625-10.546874.027344-.296876.070313-.664063.113282-1.035157l.792968-6.511719 5.425782 3.683594c6.203125 4.210938 10.085937 11.363282 10.132812 18.671875.074219 8.429688-4.992187 16.652344-12.601562 20.457031l-5.789063 2.894532zm0 0" fill="#ffdac4"/><path d="m123.507812 222.085938c-4.210937-4.339844-8.5625-9.042969-11.414062-14.582032-3.1875-6.195312-3.949219-12.828125-2.09375-18.199218 1.125-3.28125 3.207031-6.15625 5.21875-8.9375l.105469-.148438c1.589843-2.199219 3.089843-4.273438 4.25-6.621094 2.742187-5.574218 3.074219-12.507812.882812-18.542968l-1.960937-5.417969 7.335937.070312c1.546875.015625 3.097657.035157 4.648438.035157 23 0 46.148437-1.300782 68.53125-2.558594l22.496093-1.265625-2.660156 5.988281c-2.5625 5.753906-3.023437 12.164062-1.308594 18.042969 1.042969 3.546875 2.828126 6.832031 4.558594 10.011719l.125.234374c1.582032 2.9375 3.078125 5.714844 4.101563 8.789063 3.605469 10.730469-.191407 23.9375-9.035157 31.394531l-2.878906 2.425782-2.769531-2.902344c-.164063-.171875-.324219-.339844-.488281-.519532-2.476563-2.625-5.042969-5.351562-7.988282-7.566406-4.484374-3.371094-12.476562-6.777344-20.210937-6.777344-3.730469 0-6.859375.796876-9.289063 2.371094l-2.175781 1.402344-2.171875-1.40625c-2.429687-1.570312-5.550781-2.367188-9.28125-2.367188-7.730468 0-15.722656 3.40625-20.210937 6.777344-2.972657 2.238282-5.542969 4.976563-8.027344 7.621094l-.570313.597656c-.671874.707032-1.332031 1.402344-2 2.078125l-2.871093 2.90625zm0 0" fill="#ffdac4"/><path d="m82.058594 224.121094c-3.0625-.214844-7.523438-.835938-10.882813-3.695313-2.558593-2.164062-4.34375-5.640625-4.886719-9.53125-.449218-3.132812-.195312-6.589843.804688-10.867187 1.007812-4.269532 2.3125-7.441406 4.113281-9.976563 1.316407-1.839843 2.957031-3.367187 4.753907-4.414062l5.828124-3.40625.1875 6.746093c.285157 10.183594 1.710938 20.328126 4.238282 30.15625l1.382812 5.378907zm0 0" fill="#ffdac4"/><path d="m343.847656 416.398438c-4.753906-26.261719-14.125-48.046876-27.847656-64.835938 3.328125-1.617188 6.269531-4.222656 8.261719-7.589844 3.617187-6.117187 4.082031-14.34375 1.246093-22.015625-2.734374-7.40625-7.992187-13.324219-11.707031-17.136719-16.175781-16.585937-37.691406-27.710937-60.578125-31.324218-1.921875-.304688-3.210937-.460938-4.457031-.59375 2.476563-6.59375 4.4375-13.414063 5.726563-20.476563 1.574218-8.628906 2.097656-17.386719 2.359374-26.007812.351563.097656.71875.152343 1.085938.152343.542969 0 1.09375-.109374 1.625-.34375 9.464844-4.167968 16.023438-14.304687 15.945312-24.644531-.078124-10.070312-6.441406-19.828125-15.570312-24.054687.894531-10.292969 1.035156-20.664063-2.019531-30.632813 2.523437-.722656 5-1.789062 7.277343-3.390625 9.28125-6.527344 11.566407-20.695312 4.890626-30.316406-2.304688-3.328125-4.945313-5.503906-7.765626-6.925781.011719-.070313.03125-.140625.039063-.214844.28125-3.691406.316406-7.390625.121094-11.070313 11.789062-1.035156 21.191406-3.164062 29.339843-6.640624 11.765626-5.019532 21.042969-13.152344 26.125-22.898438 4.652344-8.921875 6.292969-20.089844 4.738282-32.300781-1.347656-10.605469-4.785156-20.671875-8.109375-30.40625-.582031-1.703125-2.203125-2.8164065-4.011719-2.72656275-1.796875.08984375-3.316406 1.35546875-3.726562 3.10937475-2.695313 11.507813-12.511719 21.769531-26.257813 27.453125-12.871094 5.320313-27.246094 6.414063-41.152344 7.46875-.371093.027344-.722656.121094-1.058593.242188-2.621094-2.804688-5.421876-5.445313-8.40625-7.886719-22.171876-18.121094-53.054688-24.511719-80.59375-16.683594-13.484376 3.832031-26.261719 11.019531-37.304688 20.800781-.347656-.066406-.703125-.105468-1.070312-.074218-13.082032 1.058594-26.894532 1.40625-39.3125-3.140625-12.917969-4.734375-22.359376-14.953125-24.050782-26.035157-.242187-1.589843-1.40625-2.878906-2.960937-3.289062-1.550781-.410156-3.199219.140625-4.195313 1.402344-12.59375 15.992187-15.550781 39.257812-7.355468 57.894531 7.617187 17.316406 24.6875 30.230469 43.351562 33.199219-1.277344 4.789062-2.335938 9.695312-3.144531 14.703125-.101563.640625-.035157 1.265625.148437 1.847656-.457031.457031-.90625.941406-1.316406 1.472656-3.503906 4.546875-3.898438 10.351563-3.992188 15.433594-.09375 5.113281.0625 10.496094 3.066407 15.109375 2.636719 4.050781 6.613281 6.308594 11.015625 7.617188-2.488282 9.789062-3.910156 19.769531-4.25 29.78125-3.863282 1.023437-7.484375 3.605468-10.089844 7.265624-2.128906 2.988282-3.644531 6.609376-4.765625 11.402344-1.117187 4.769532-1.398437 8.703125-.875 12.375.699219 4.929688 2.933594 9.214844 6.289063 12.058594 4.761718 4.042969 11.070312 4.695312 16.128906 4.769531.3125 1 .628906 2 .9375 2.980469 2.441406 7.710938 4.746094 14.996094 4.960937 22.527344.082031 2.839844-.128906 5.722656-.355469 8.78125-.277343 3.78125-.558593 7.640625-.269531 11.507812-21.621093 4.136719-41.820312 14.957032-57.203125 30.722656-3.714844 3.8125-8.972656 9.734376-11.707031 17.136719-2.832031 7.671875-2.367187 15.898438 1.25 22.015625 1.835937 3.109375 4.480469 5.5625 7.492187 7.199219-11.089843 9.613281-17.296874 22.222656-20.632812 31.691406-5.003906 14.191407-6.574219 28.941407-7.519531 42.765625-1.820313 26.488282-1.453125 53.316406 1.085937 79.742188.195313 2.054687 1.910156 3.625 3.972656 3.644531l321.640626 2.976563c.402343.003906.820312.007812 1.25.007812 3.246093 0 7.296874-.21875 10.808593-2.367188 6.914063-4.226562 7.847657-12.632812 7.847657-20.296874-.007813-23.964844-.011719-48.746094-4.394532-72.9375zm-97.058594-135.597657c1.609376.164063 2.882813.296875 5.175782.660157 21.183594 3.34375 41.09375 13.636718 56.0625 28.988281 3.203125 3.285156 7.714844 8.339843 9.917968 14.300781 2 5.417969 1.769532 11.070312-.625 15.117188-2.453124 4.144531-7.671874 6.441406-11.644531 5.128906-1.546875-.515625-3.253906-.039063-4.320312 1.191406-1.066407 1.234375-1.28125 2.988281-.546875 4.445312 2.6875 5.347657 5.328125 11.640626 4.535156 17.773438-.636719 4.910156-4.558594 10.128906-9.40625 10.128906-.023438 0-.046875 0-.070312 0-1.191407-.011718-2.601563-.28125-4.089844-.566406-3.757813-.71875-8.90625-1.699219-12.816406 2.007812-2.21875 2.109376-2.9375 4.824219-3.515626 7.003907-.140624.539062-.285156 1.078125-.453124 1.597656-1.261719 3.898437-4.8125 7.039063-8.835938 7.820313-4.015625.78125-8.484375-.804688-11.117188-3.945313-1.132812-1.351563-3.011718-1.808594-4.636718-1.136719-1.625.675782-2.625 2.332032-2.46875 4.085938.375 4.167968-1.6875 8.5625-5.132813 10.9375-3.449219 2.375-8.289062 2.738281-12.050781.90625-.75-.363282-1.558594-.820313-2.414062-1.304688-3.878907-2.1875-9.1875-5.183594-14.308594-1.757812-1.378906.921875-2.292969 2.097656-3.023438 3.039062-.300781.382813-.578125.746094-.832031 1.007813-1.839844 1.9375-5.445313 1.839843-7.867187.625-2.671876-1.339844-5.109376-4.003907-7.441407-8.144531-7.980469-14.179688-8.328125-32.691407-.882812-47.164063.402343-.777344.515625-1.621094.398437-2.421875 2.242188-2.105469 4.21875-4.320312 6.003906-6.324219 16.566407-18.578125 34.238282-39.71875 45.171876-64.125.4375.042969.847656.085938 1.234374.125zm-99.722656 221.453125-13.792968-86.324218c2.128906 1.246093 4.625 1.90625 7.21875 1.902343 2.460937 0 4.996093-.578125 7.367187-1.765625 4.160156-2.082031 7.710937-5.8125 10.855469-11.398437 7.898437-14.035157 9.425781-31.0625 4.535156-46.265625 3.621094 1.125 7.101562 1.613281 10.308594 1.609375 3.679687 0 7-.632813 9.761718-1.652344-4.90625 15.214844-3.386718 32.261719 4.523438 46.308594 3.144531 5.585937 6.691406 9.316406 10.851562 11.398437 2.371094 1.1875 4.90625 1.765625 7.367188 1.765625 2.328125 0 4.585938-.523437 6.570312-1.535156-7.445312 28.34375-13.023437 57.359375-16.605468 86.410156zm120.378906-300.613281c.050782 6.949219-4.191406 13.75-10.398437 16.847656 0-.089843.003906-.183593.003906-.273437.144531-6.761719.292969-13.753906.84375-20.539063.28125-3.433593.675781-6.992187 1.054688-10.433593.035156-.328126.070312-.65625.109375-.988282 5.011718 3.402344 8.339844 9.3125 8.386718 15.386719zm16.210938-163.621094c11.855469-4.902343 21.261719-12.871093 26.722656-22.320312 1.894532 6.070312 3.515625 12.238281 4.304688 18.457031.9375 7.371094 1.023437 18.136719-3.886719 27.554688-4.226563 8.097656-12.089844 14.921874-22.140625 19.210937-7.371094 3.144531-16.015625 5.078125-26.972656 6.03125-2.167969-14.878906-8.101563-29.179687-17.089844-41.230469 13.097656-1.039062 26.472656-2.496094 39.0625-7.703125zm-29.25 65.96875c-3.222656-.394531-6.488281-.320312-9.605469-.25l-1.367187.03125c-6.515625.136719-13.382813-.371093-20.015625-.863281-4.535157-.335938-9.230469-.679688-13.824219-.824219-4.597656-.148437-9.109375-.257812-13.582031-.355469-2.207031-26.710937-2.875-53.792968-1.996094-80.59375 11.210937 2.898438 21.820313 8.128907 30.839844 15.5 19.789062 16.171876 31.023437 41.867188 29.550781 67.355469zm-68.40625-84.511719c-.949219 27.292969-.304688 54.878907 1.914062 82.101563-9.695312-.144531-19.136718-.167969-28.382812-.066406l.371094-81.914063c8.628906-1.457031 17.46875-1.46875 26.097656-.121094zm-145.5 38.542969c-5.917969-13.453125-5.058594-29.722656 1.804688-42.714843 4.648437 10.292968 14.347656 19.066406 26.601562 23.558593 11.21875 4.109375 23.078125 4.667969 34.605469 4.136719-2.132813 2.371094-4.1875 4.839844-6.128907 7.421875-7.90625 10.523437-14.175781 22.808594-18.589843 36.234375-16.441407-2.199219-31.613281-13.441406-38.292969-28.636719zm63.328125-2.753906c12.46875-16.589844 29.421875-28.597656 47.742187-33.804687.085938-.023438.171876-.042969.257813-.066407l-.363281 80.230469c-5.914063.109375-11.761719.269531-17.558594.480469-14.492188.53125-28.792969 1.398437-42.496094 2.574219-2.429687.207031-5.886718.507812-9.375 1.535156 3.707032-19.300782 11.195313-36.84375 21.792969-50.949219zm-25.839844 83.367187c-1.761719-2.703124-1.839843-6.539062-1.765625-10.5625.078125-3.964843.316406-8.058593 2.324219-10.660156 2.6875-3.488281 8.402344-4.253906 13.554687-4.695312 13.574219-1.167969 27.738282-2.023438 42.097657-2.550782 23.742187-.867187 48.316406-.875 75.136719-.023437 4.429687.140625 9.03125.476563 13.488281.808594 6.820312.503906 13.867187 1.023437 20.773437.882812l1.390625-.03125c8.996094-.207031 14.300781-.035156 18.472657 5.980469 4.09375 5.902344 2.683593 15.199219-2.902344 19.128906-3.929688 2.765625-9.160156 3.261719-15.585938 3.621094l-46.078125 2.589844c-34.703125 1.949218-70.585937 3.96875-105.710937 1.199218-5.992188-.46875-12.480469-1.515624-15.195313-5.6875zm135.714844 32.4375c1.15625 3.941407 3.042969 7.429688 4.871094 10.804688 1.550781 2.859375 3.011719 5.558594 3.957031 8.375 3.140625 9.339844-.289062 20.726562-7.824219 27.074219-.199219-.210938-.394531-.414063-.59375-.628907-2.613281-2.773437-5.316406-5.640624-8.542969-8.070312-8.378906-6.304688-24.347656-10.863281-34.074218-4.570312-9.730469-6.292969-25.695313-1.734376-34.074219 4.570312-3.230469 2.429688-5.933594 5.300781-8.542969 8.074219-.84375.894531-1.671875 1.757812-2.496094 2.605469-4.199218-4.335938-8.167968-8.644532-10.734374-13.636719-2.6875-5.222657-3.367188-10.710938-1.871094-15.058594.941406-2.734375 2.773437-5.261719 4.710937-7.933594 1.644531-2.269531 3.339844-4.613281 4.667969-7.304687 3.285156-6.664063 3.59375-14.703125 1.0625-21.679688 2.085938.019532 4.171875.046875 6.257812.046875 23.152344 0 46.261719-1.296875 68.871094-2.566406l15.84375-.890625c-2.882812 6.476562-3.492187 13.9375-1.488281 20.789062zm-86.875 58.746094c2.957031-2.324218 5.476563-5 7.917969-7.589844 2.488281-2.644531 4.84375-5.144531 7.523437-7.160156 6.703125-5.046875 20.519531-8.878906 26.136719-3.191406.039062.042969.101562.113281.125.136719.757812.824219 1.824219 1.292969 2.945312 1.296875h.019532c1.113281 0 2.175781-.457032 2.9375-1.269532l.140625-.15625c5.605469-5.695312 19.4375-1.867187 26.148437 3.183594 2.675782 2.015625 5.03125 4.515625 7.519532 7.15625 2.441406 2.589844 4.964843 5.269532 7.917968 7.59375 3.925782 3.085938 9.050782 5.398438 14.171875 5.746094-2.613281 2.925781-6.046875 5.335938-9.972656 6.914062-6.183594 2.480469-13.675781 3.050782-21.667969 1.652344-6.171875-1.082031-14.757812-3.75-20.601562-10.328125-1.0625-1.195312-2.101563-2.757812-3.007813-4.519531-.691406-1.34375-2.074219-2.1875-3.585937-2.1875-1.511719 0-2.894532.84375-3.585938 2.1875-.90625 1.761719-1.941406 3.320312-3.003906 4.515625-5.847656 6.582031-14.433594 9.25-20.605469 10.332031-7.992187 1.398438-15.484375.828125-21.664062-1.65625-3.929688-1.574218-7.363281-3.988281-9.976563-6.914062 5.117188-.34375 10.246094-2.65625 14.167969-5.742188zm-34.277344-77.457031c7.5625.597656 15.144531.953125 22.730469 1.160156 3.175781 5.488281 3.445312 12.59375.640625 18.285157-1.023437 2.078124-2.453125 4.050781-3.964844 6.136718-2.195312 3.035156-4.46875 6.171875-5.800781 10.039063-2.214844 6.414062-1.367188 14.207031 2.324219 21.375 3 5.835937 7.277343 10.554687 11.800781 15.234375-4.179688 2.699218-9.734375 4.203125-13.539062 1.660156-1.433594-.964844-3.328126-.902344-4.699219.152344-1.371094 1.058594-1.914063 2.871094-1.351563 4.507812 2.859375 8.316406 9.941406 15.4375 18.941406 19.046875 4.929688 1.980469 10.46875 2.980469 16.347657 2.980469 3.152343 0 6.40625-.289062 9.710937-.867188 7.4375-1.300781 17.847656-4.597656 25.242188-12.917968.1875-.210938.375-.429688.5625-.65625.1875.226562.375.445312.5625.65625 7.390625 8.316406 17.804687 11.617187 25.242187 12.917968 9.46875 1.65625 18.480469.929688 26.058594-2.113281 9-3.609375 16.082031-10.730469 18.941406-19.046875.5625-1.636718.019531-3.449218-1.351562-4.507812-1.367188-1.054688-3.261719-1.117188-4.699219-.15625-4.300781 2.875-10.84375.582031-15.105469-2.769532-.207031-.164062-.402343-.34375-.605469-.511718 9.636719-8.554688 13.773438-22.984375 9.640626-35.285156-1.171876-3.476563-2.871094-6.613282-4.511719-9.648438-1.703125-3.140625-3.3125-6.109375-4.222657-9.226562-1.855468-6.339844-.558593-13.679688 3.285157-19.0625l20.699219-1.160157c1.421874-.082031 2.925781-.167969 4.472656-.304687 3.921875 11.769531 2.523437 24.566406 1.035156 38.082031-.386719 3.496094-.785156 7.109375-1.074219 10.660156-.574219 7.023438-.726562 14.140625-.871093 21.027344-.230469 10.90625-.46875 22.183594-2.429688 32.925781-6.347656 34.738282-30.269531 63.875-52.195312 88.460938-4.492188 5.039062-8.320313 9.058594-13.21875 11.121094-8.6875 3.65625-18.804688-.132813-25.375-4.898438-8.40625-6.097656-14.367188-14.734375-20.679688-23.878906-4.816406-6.980469-9.800781-14.199219-16.035156-20.320313-2.027344-1.992187-4.195313-3.886719-6.292969-5.71875-5.925781-5.171875-11.523437-10.0625-13.707031-16.636719-1.609375-4.835937-1.210938-10.21875-.789063-15.917968.226563-3.125.46875-6.355469.375-9.605469-.25-8.660156-2.835937-16.828125-5.335937-24.730469-.5625-1.777344-1.125-3.589844-1.667969-5.398437-.023437-.113281-.066406-.222657-.101563-.335938-.15625-.527343-.324218-1.0625-.472656-1.589843-6.480468-22.652344-6.765625-46.597657-.878906-69.386719.789062.085937 1.582031.164062 2.363281.222656zm-22.304687 57.976563c-.375-2.648438-.140625-5.632813.742187-9.398438.875-3.738281 1.984375-6.460938 3.484375-8.566406.996094-1.402344 2.207032-2.519532 3.503906-3.277344.289063 10.433594 1.746094 20.84375 4.367188 31.035156-3.402344-.238281-6.421875-.921875-8.574219-2.746094-1.824219-1.542968-3.105469-4.113281-3.523437-7.046874zm-41.636719 114.414062c2.203125-5.957031 6.714844-11.015625 9.917969-14.300781 14.246094-14.609375 32.972656-24.628907 53.007812-28.441407 2.945313 8.457032 9.539063 14.226563 15.925782 19.808594 2.101562 1.835938 4.089843 3.570313 5.945312 5.394532 5.6875 5.582031 10.449219 12.480468 15.050781 19.148437 6.421875 9.300781 13.058594 18.917969 22.582031 25.824219.457032.332031.914063.648437 1.371094.957031.054688.136719.09375.273437.164063.40625 7.445312 14.472656 7.097656 32.984375-.886719 47.164063-2.332031 4.140624-4.761719 6.804687-7.4375 8.144531-2.425781 1.214843-6.03125 1.3125-7.871094-.625-.25-.261719-.53125-.625-.828125-1.007813-.730469-.941406-1.644531-2.117187-3.023437-3.039062-5.121094-3.425782-10.429688-.429688-14.308594 1.757812-.855469.484375-1.667969.9375-2.414062 1.304688-3.765626 1.832031-8.605469 1.46875-12.050782-.90625-3.445312-2.375-5.507812-6.769532-5.136718-10.9375.160156-1.753906-.839844-3.410156-2.46875-4.085938-1.628907-.671875-3.503907-.214844-4.636719 1.136719-2.628907 3.140625-7.097657 4.726563-11.117188 3.945313s-7.570312-3.921876-8.835937-7.816407c-.167969-.519531-.308594-1.058593-.449219-1.597656-.578125-2.183594-1.296875-4.898437-3.519531-7.007813-3.910156-3.707031-9.054688-2.722656-12.8125-2.007812-1.492188.285156-2.898438.554688-4.089844.566406-.023438 0-.046875 0-.074219 0-4.84375 0-8.769531-5.21875-9.40625-10.128906-.789062-6.132812 1.851563-12.425781 4.539063-17.769531.734375-1.457031.515625-3.214844-.550782-4.449219-1.0625-1.230469-2.769531-1.703125-4.316406-1.191406-3.976562 1.316406-9.195312-.984375-11.644531-5.125-2.390625-4.050782-2.625-9.703125-.625-15.121094zm-18.929687 101.433594c.910156-13.257813 2.394531-27.355469 7.078124-40.636719 2.902344-8.230469 8.1875-19.070313 17.390626-27.449219-.957032 3.601563-1.4375 7.433594-.933594 11.34375 1.390625 10.777344 9.921875 17.160156 17.417968 17.160156h.140626c1.910156-.023437 3.742187-.371093 5.515624-.710937 2.925782-.558594 4.90625-.863281 5.75-.0625.5625.535156.90625 1.839844 1.273438 3.222656.179688.679688.363281 1.359375.578125 2.015625 2.171875 6.707032 8.050781 11.90625 14.964844 13.246094 4.296875.835938 8.769531.140625 12.628906-1.792969 1.34375 4.1875 4.035156 7.9375 7.695313 10.460938 5.851562 4.035156 13.765624 4.628906 20.15625 1.515625.96875-.472656 1.921874-1.011719 2.84375-1.53125.722656-.40625 1.5-.839844 2.257812-1.222656l14.449219 90.433593-72.199219-.667969c1.222656-24.542968.011719-49.277343-3.609375-73.574218-.324219-2.203125-2.375-3.71875-4.582031-3.394532-2.199219.328126-3.71875 2.382813-3.390625 4.582032 3.558593 23.878906 4.734375 48.191406 3.511719 72.3125l-48.207032-.445313c-2.1875-24.816406-2.4375-49.964843-.730468-74.804687zm326.511718 76.574218c-1.863281 1.136719-4.519531 1.203126-7.78125 1.171876l-47.714844-.441407c.636719-24.875 3.613282-49.796875 8.859376-74.117187.472656-2.175782-.914063-4.320313-3.089844-4.789063-2.175782-.46875-4.320313.910157-4.789063 3.089844-5.363281 24.855469-8.398437 50.320313-9.042969 75.742187l-68.488281-.632812c3.824219-30.636719 9.886719-61.222656 18.046875-91.003906.734375.375 1.484375.792968 2.183594 1.1875.925781.519531 1.878906 1.058594 2.84375 1.53125 6.394531 3.113281 14.304688 2.519531 20.160156-1.515625 3.65625-2.519531 6.347656-6.273438 7.695313-10.460938 3.859375 1.9375 8.328125 2.628907 12.625 1.796875 6.917969-1.34375 12.792969-6.542968 14.964843-13.246094.214844-.660156.398438-1.339843.578126-2.023437.351562-1.320313.710937-2.6875 1.273437-3.21875.84375-.800781 2.824219-.496094 5.75.0625 1.773437.339844 3.605469.6875 5.515625.710937 7.558594.105469 16.160156-6.316406 17.5625-17.160156.375-2.90625.207031-5.773437-.292969-8.535156 11.070313 15.113281 18.75 34.21875 22.863281 56.933594 4.253907 23.476562 4.257813 47.890625 4.265626 71.5 0 5.429687-.476563 11.269531-3.988282 13.417968zm0 0"/></svg>