<svg height="512pt" viewBox="-90 0 512 512.11257" width="512pt" xmlns="http://www.w3.org/2000/svg"><path d="m76.09375 159.8125c-.601562-22.5 8.898438-45.300781 26.199219-62.5 17.601562-17.601562 41.398437-27.699219 65.199219-27.699219h.300781c24.699219.097657 49.101562 11.800781 63.601562 30.597657 11.796875 15.300781 17.097657 35 14.5 54l-7.902343.402343c-3.300782-13.402343-10.5-25.800781-20.300782-34.902343-13.199218-12.199219-32.097656-18.898438-53.199218-18.898438-10.597657 0-21.300782 1.699219-30.898438 4.898438-8.699219 2.902343-16.699219 7.300781-23.601562 12.902343-12.699219 10.300781-22.199219 25.699219-25.898438 42zm0 0" fill="#d34242"/><path d="m66.292969 258.710938c-7.101563 0-12.601563-2-15.898438-5.699219-2.101562-2.398438-3.101562-6-2.601562-9.300781.601562-3.398438 2.398437-5 3.800781-5.796876-1.402344.199219-3.601562.597657-6.101562.597657-7.597657 0-13.398438-3.5-16.398438-9.699219-2.902344-6.101562-2-13.699219 2.199219-19-9.398438-.699219-18-7.699219-20.601563-16.699219-1.699218-5.902343-.699218-12.800781 2.601563-18.402343 1.699219-2.796876 8.601562-10.296876 12.5-11.398438l.898437-.199219.902344.199219v-.101562c-5.5-1.699219-10-5.898438-12.699219-11.796876-3.300781-7.402343-3.300781-16.902343.097657-24 5.199218-11.101562 16.402343-19.703124 33.199218-25.703124-6.898437-6.699219-9.097656-17.898438-5.097656-26.699219 3.699219-8.199219 12.398438-13.699219 21.5-13.699219.597656 0 1.300781 0 1.898438.101562-4.699219-6.601562-4.097657-16.402343 1.402343-22.402343 3.199219-3.5 8.199219-5.597657 13.296875-5.597657 3.203125 0 6.300782.796876 8.800782 2.296876-1.800782-10.296876 4.699218-21.5 14.5-25 2.300781-.796876 4.699218-1.199219 7.199218-1.199219 8.203125 0 16 4.402343 19.902344 11.199219 2.300781-9.199219 11.097656-16.5 20.597656-16.796876h.703125c9.296875 0 18.199219 6.398438 21 15.296876 2.898438-4.097657 7.898438-6.699219 13.398438-6.699219 2.800781 0 5.398437.699219 7.699219 2 6.800781 4 9.5 13.699219 5.902343 20.699219 3.398438-3.699219 8.597657-5.796876 14.199219-5.796876 1.097656 0 2.300781.097657 3.398438.296876 6.902343 1 12.601562 4.902343 15.199218 10.5 3.402344-5.898438 10.203125-9.796876 17.402344-9.796876 3.097656 0 6.097656.699219 8.597656 2.097657 8.902344 4.800781 12.703125 16.800781 8.101563 25.902343 2.101562-.902343 4.398437-1.300781 6.699219-1.300781 7.902343 0 16.199218 5.398438 19.699218 12.800781 4.101563 8.796876 2.902344 20.5-3.199218 30.296876 11.199218 1.800781 21 11.203124 23.199218 22.300781 2.203125 11-2.699218 22.5-12.5 29.5l.300782.101562c2.402343 0 5.902343.800781 9.101562 4.699219 3.5 4.300781 5.300781 11.199219 4.097656 16.300781-1.597656 7.199219-6.597656 13.097657-11 18.300781l1.601563-.101562 1.300781 1.101562c1.398438 1.199219 3.398438 3.398438 4.199219 4.5l.199219.296876.101562.300781c1.5 3.199219 1.097656 6.800781.699219 10.300781v.398438c-.898438 8.601562-5.199219 16.402343-11.800781 21.5-5.398438 4.203124-12.097657 6.402343-19.097657 6.402343-3.800781 0-7.5-.699219-10.902343-2 .800781 5.5-4.898438 9.800781-10.5 11.398438-3.699219 1.101562-7.597657 1.601562-11.5 1.601562-6.398438 0-12.898438-1.5-18.597657-4.300781l-3.800781-1.898438 2.097656-3.703124c4-6.898438 6.800782-14.199219 8.402344-21.796876l.597656-2.902343 2.902344-.300781c8.398438-.898438 15.800781-4.597657 20.5-10.398438 5.898438-7.300781 6.898438-17.5 2.398438-24.800781-2.398438-3.898438-6.5-6.800781-11.199219-7.898438-1.300781-.300781-2.699219-.5-4-.5h-5.300781l1.5-5.101562c6.101562-21.300781 1.300781-45.597657-12.5-63.398438-14.5-18.800781-38.898438-30.5-63.597657-30.601562h-.402343c-23.800782 0-47.597657 10.101562-65.199219 27.800781-19.699219 19.699219-29.398438 47.300781-25.300781 72.101562l.5 2.898438-2.597657 1.300781c-5.101562 2.597657-9.203125 6.800781-11.203125 11.699219-3.199218 7.800781-1.199218 17.300781 4.902344 22.5 3.097656 2.699219 7.097656 4.101562 11.398438 4.101562 2.199218 0 4.5-.402343 6.5-1.203124l4.5-1.796876.902343 4.796876c1.597657 8.800781 4.898438 17.300781 9.699219 25.101562l1.597656 2.601562-2.097656 2.199219c-8.902344 9.5-21.902344 15.097657-34.800781 15.097657zm0 0" fill="#644c4c"/><path d="m302.792969 507.914062c-1.300781 0-2.699219 0-4.5-.101562-11.5-.5-102.601563-2.898438-132-2.898438h-3.898438l-.101562-3.902343c-1-56.097657.199219-112.800781 3.601562-168.699219l.199219-3.101562 3-.597657c.300781-.101562.699219-.101562 1-.199219 4.597656-1.300781 8.097656-4.800781 11.199219-7.902343 5.101562-5.097657 10.898437-10.898438 15.898437-17.300781l1.5-1.898438h.300782l3.300781-5.300781c.199219-.300781.300781-.5.5-.800781.199219-.296876.398437-.597657.601562-.898438 5.898438-10 8.398438-20.699219 7.097657-30.101562l-.597657-4.199219 4.199219-.398438c3.597656-.300781 7.300781-.5 10.898438-.5 11.300781 0 22.402343 1.597657 33.101562 4.597657 13.597656 3.902343 22.699219 9.800781 27.699219 17.800781 7.699219 12.402343 3.5 30.902343-8.699219 38.800781-3.699219 2.398438-9.902344 7.5-9.902344 7.5 19.902344 8.199219 45 30.898438 56 70.199219 8.703125 31.199219 5.902344 64.402343 2.5 89.902343-.699218 5.296876-1.5 10-4.5 13.597657-4.699218 5.699219-12.296875 6.402343-18.398437 6.402343zm0 0" fill="#288fc9"/><path d="m32.09375 507.710938c-8.5 0-18.902344-1-24.300781-8.898438-3.898438-5.601562-3.898438-12.601562-3.398438-20.601562l2.097657-35.199219c1.402343-23.800781 2.800781-48.398438 12.5-70.800781 13.402343-31.097657 36.902343-44.5 52.902343-46.398438l1.398438-1.101562-8.5-1.398438c-7.800781-1.199219-16.398438-3.101562-20.601563-9.601562-4.597656-7.296876-1.199218-16.898438 3.800782-22.796876 6.902343-8.101562 17.101562-12.601562 26.199218-16.5 12.800782-5.601562 27.402344-11.902343 42.5-12.902343l4.703125-.300781-.402343 4.703124c-1 10.898438 1.199218 22 6.300781 32.296876l3.199219 6.402343h.5l1.101562 1.597657c6 8.601562 13.898438 15.402343 22.800781 19.601562 2.796875 1.398438 5.5 2.300781 7.898438 2.699219l3.5.699219-3.699219 175.703124h-4.101562c-28.300782.097657-56.699219.5-84.597657 1.296876 0 0-26.203125.902343-36.402343 1.300781-2.199219.101562-3.898438.199219-5.398438.199219zm0 0" fill="#288fc9"/><path d="m164.492188 274.113281c-12.800782 0-25.300782-3.199219-36.199219-9.300781-20.601563-11.601562-34.898438-33.398438-37.300781-57-2.898438 2.601562-6.800782 4.101562-11.097657 4.101562-4.300781 0-8.300781-1.402343-11.402343-4.101562-6-5.199219-8.097657-14.699219-4.898438-22.398438 3-7.300781 10.398438-12.800781 18.800781-14.101562 1.597657-20.199219 11.898438-39.800781 27.597657-52.601562 6.902343-5.699219 14.902343-10 23.601562-12.898438 10-3.398438 20.300781-5.101562 30.597656-5.101562 20.601563 0 40.601563 7.101562 53.5 19.101562 14 13 22.300782 32.101562 22.203125 51.199219 2.296875-1.398438 5-2.097657 7.898438-2.097657 1.300781 0 2.699219.199219 4 .5 4.699219 1.097657 8.800781 4 11.199219 7.898438 4.402343 7.199219 3.402343 17.601562-2.398438 24.800781-5.199219 6.5-14 10.398438-23.402344 10.5-3.898437 23.398438-19.597656 44.300781-40.898437 54.5-9.699219 4.5-20.699219 7-31.800781 7zm0 0" fill="#efb17c"/><path d="m166.09375 328.914062c-3.402344 0-7.101562-1-11.402344-3.101562-21.699218-10.398438-35.699218-34.5-34-58.699219l.402344-6.402343 5.597656 3.300781c.5.300781 1 .601562 1.5.902343 10.800782 6.097657 23.402344 9.296876 36.203125 9.296876 11.097657 0 22.199219-2.5 31.898438-7.097657 2.699219-1.300781 5.398437-2.800781 8-4.5l5.5-3.601562.699219 6.5c1 9.300781-1.5 19.300781-7.300782 29-1.097656 1.902343-2.398437 3.800781-3.898437 5.902343l-.398438.5-.703125 1-.398437.5c-5.101563 6.597657-10.898438 12.5-16.601563 18.199219-2.898437 2.898438-6.597656 6.597657-11.097656 7.898438-1.300781.199219-2.601562.402343-4 .402343zm0 0" fill="#efb17c"/><path d="m326.992188 397.113281c-7-25.199219-24.5-56-53-70.402343 1.800781-.796876 3.5-1.699219 5.199218-2.796876 14.203125-9.203124 18.902344-29.902343 9.902344-44.402343-5.601562-9-15.402344-15.398438-30-19.597657-12.800781-3.703124-26.402344-5.300781-39.800781-4.703124 2.898437-2.898438 5.5-6 8-9.398438 10.300781 5.398438 22.601562 6.601562 33.800781 3.398438 5.398438-1.597657 10.800781-5.097657 12.800781-10.097657 10 2.199219 21.097657-.101562 29.199219-6.5 7.398438-5.800781 12.300781-14.699219 13.300781-24.300781v-.300781c.398438-3.800781.898438-8.5-1.203125-12.800781-.199218-.398438-2.097656-3.097657-4.5-5.398438 3.601563-4.5 7.203125-9.898438 8.601563-16.101562 1.5-6.398438-.5-14.398438-4.898438-19.796876-1.300781-1.601562-2.800781-2.902343-4.402343-3.902343 7.199218-7.800781 10.5-18.398438 8.402343-28.5-2.203125-11.097657-10.601562-20.398438-21.203125-24.199219 4.5-9.898438 4.902344-20.800781.902344-29.398438-4.402344-9.5-14.601562-15.402343-24.199219-15.101562 1.199219-9.398438-3.5-19.601562-12-24.199219-9-4.800781-20.601562-2.601562-27.703125 4.398438-3.597656-4-8.898437-6.800781-14.796875-7.597657-4.402343-.703124-8.800781-.203124-12.601562 1.199219-.5-6.300781-3.898438-12.402343-9.5-15.699219-6.800781-4-15.699219-3.300781-21.898438 1.296876-5.203125-7.398438-14.203125-12.5-23.300781-12.1992192-8.699219.3007812-17 5.6015622-21.5 13.0000002-7.101562-6.699219-18-9.398438-27.402344-6-9.699218 3.5-16.398437 12.800781-17.296875 22.902343-7.402343-1.5-15.703125.796876-20.902343 6.398438-5.199219 5.601562-6.800782 14.101562-4.597657 21.398438-8.902343 1.5-17.101562 7.5-20.902343 15.703124-3.800782 8.398438-2.800782 18.796876 2.101562 26.5-15 6.296876-25.199219 14.898438-30.300781 25.796876-3.898438 8.300781-4 18.800781-.101563 27.402343 1.800782 4 4.300782 7.398438 7.402344 9.898438-4.902344 4-8.800781 9.601562-8.902344 9.699219-3.898437 6.5-5.097656 14.601562-3 21.601562 2.5 8.601562 9.703125 15.699219 18.203125 18.398438-2.300781 5.703124-2.203125 12.300781.5 17.902343 3.5 7.398438 10.097657 11.597657 18.398438 12 0 .199219-.101563.300781-.101563.5-.699218 4.5.601563 9.300781 3.601563 12.597657 4.101562 4.601562 10.601562 7 18.898437 7h.101563c13.5 0 26.800781-5.597657 36.300781-15.097657 2.800781 3.597657 5.898438 7 9.199219 10.097657-14.199219 1.800781-27.601563 7.601562-39.601563 12.902343-9.398437 4.097657-20.097656 8.800781-27.597656 17.597657-5.902344 7-9.800781 18.601562-4.101562 27.601562 3.601562 5.699219 9.601562 8.398438 15.902343 10-19.800781 8.601562-34.203125 28.199219-41.402343 44.800781-9.898438 23-11.398438 49.097657-12.800782 72.199219l-1.898437 35.199219c-.398438 6.699219-.898438 15.902343 4.101562 23.199219 7.097657 10.101562 20.597657 11 33 10.5 86.5-3.597657 174.199219-3.5 260.699219.300781 1.398438.101562 3 .101562 4.800781.101562 6.796875 0 15.796875-1 21.296875-7.699219 3.703125-4.5 4.703125-9.902343 5.402344-15.601562 3.5-26 6.300781-59.800781-2.601562-91.699219zm-127.199219-104.699219c-1.101563 1.898438-2.398438 3.796876-3.699219 5.597657-.5.800781-.902344 1.300781-1.402344 1.902343-4.898437 6.296876-10.597656 12.097657-16.296875 17.796876-2.703125 2.703124-5.902343 5.902343-9.402343 6.902343-3.300782.898438-7.5.199219-12.597657-2.300781-20.300781-9.699219-33.300781-32.398438-31.703125-54.800781.5.300781 1.101563.601562 1.601563.902343 11.601562 6.5 24.898437 9.796876 38.199219 9.796876 11.601562 0 23.101562-2.5 33.601562-7.5 2.898438-1.398438 5.699219-3 8.398438-4.796876.902343 8.199219-1.398438 17.5-6.699219 26.5zm-133.398438-37.703124c-.101562 0-.101562 0 0 0-4.203125 0-9.800781-.796876-13-4.296876-1.300781-1.5-2-3.902343-1.601562-5.902343.199219-1 .601562-2.300781 1.800781-3 1.699219-1 2.5-3.097657 1.800781-5-.703125-1.898438-2.703125-2.898438-4.601562-2.5-4 .902343-13.800781 2-18-6.898438-2.199219-4.699219-1.5-10.699219 1.699219-14.699219.902343-1.203124 1.101562-2.800781.5-4.101562-.597657-1.398438-1.898438-2.300781-3.398438-2.398438-7.699219-.5-14.902344-6.300781-17-13.703124-1.402344-4.898438-.601562-10.597657 2.199219-15.199219 1.601562-2.699219 7.898437-9 10.199219-9.597657 2 .398438 4-.800781 4.601562-2.800781.597656-2.101562-.601562-4.402343-2.699219-5-4.402343-1.300781-8-4.699219-10.203125-9.601562-2.898437-6.398438-2.796875-14.5.101563-20.699219 4.699219-10.101562 15.101562-18 30.898437-23.601562 1.300782-.5 2.300782-1.597657 2.601563-2.898438.300781-1.398438-.101563-2.800781-1.101563-3.800781-5.699218-5.5-7.5-14.800781-4.199218-22.097657 3.300781-7.300781 11.5-12 19.402343-11.300781 1.597657.097657 3.097657-.601562 3.898438-2 .800781-1.402343.699219-3.101562-.199219-4.300781-3.601562-5-3.101562-12.800781 1.097656-17.300781 4.203125-4.5 11.902344-5.699219 17.101563-2.5 1.398437.800781 3.101562.699219 4.398437-.199219 1.300782-.898438 2-2.5 1.703125-4-1.5-8.398438 3.796875-17.601562 11.898438-20.5 8.101562-2.898438 18 .800781 22.199219 8.199219.800781 1.402343 2.402343 2.199219 4.101562 2 1.597656-.199219 3-1.398438 3.398438-3 1.800781-7.5 9-13.5 16.800781-13.699219 7.800781-.300781 15.398437 5.101562 17.699219 12.5.5 1.5 1.699218 2.5 3.300781 2.800781 1.5.199219 3-.5 3.898437-1.699219 3.203125-4.800781 10.703125-6.402343 15.601563-3.5 4.898437 2.898438 7 10.296876 4.398437 15.398438-.898437 1.800781-.398437 4 1.300782 5.199219 1.699218 1.199219 3.902343.902343 5.300781-.597657 3.199219-3.5 8.5-5.203124 14-4.300781 5.601562.800781 10.101562 3.898438 12.199219 8.199219.601562 1.398438 2 2.300781 3.5 2.300781s2.902343-.800781 3.699218-2.101562c3.800782-6.898438 13.703125-9.800781 20.601563-6.097657 7 3.699219 10 13.5 6.5 20.5-.800781 1.5-.5 3.296876.601562 4.597657 1.199219 1.199219 3 1.601562 4.5 1 7.898438-3.398438 17.699219 2.199219 21.097657 9.5 3.601562 7.601562 2.402343 17.800781-3 26.5-.699219 1.101562-.800782 2.601562-.199219 3.800781.601562 1.199219 1.699219 2.101562 3 2.300781 9.601562 1.5 18 9.597657 19.898437 19.097657 1.902344 9.402343-2.398437 19.402343-10.898437 25.402343-1.5 1-2.101563 2.898438-1.5 4.597657.601562 1.703124 2.199219 2.800781 3.898437 2.800781 2.300782-.097657 4.402344 1 6.101563 3.199219 2.800781 3.402343 4.199219 8.902343 3.300781 12.902343-1.402344 6.199219-6.101562 11.800781-10.199219 16.699219-1.402343 1.699219-1.203125 4.199219.5 5.699219.898438.699219 1.898438 1 2.898438.902343 1.101562.898438 2.800781 2.796876 3.398437 3.699219 1 2.199219.703125 5.097657.402344 8.199219v.300781c-.800781 7.5-4.5 14.398438-10.199219 18.800781-7.300781 5.699219-17.5 7.199219-26.203125 3.898438-1.296875-.5-2.898437-.300781-4 .601562-1.097656.898438-1.699218 2.296876-1.398437 3.796876.398437 2.800781-3.5 5.703124-7.699219 6.902343-9 2.597657-18.800781 1.699219-27.101562-2.402343 4.101562-7.097657 7.199218-14.898438 8.902343-22.898438 9.398438-.898438 17.898438-5.199219 23.199219-11.898438 6.898438-8.601562 8-20.703124 2.597656-29.402343-2.898437-4.800781-7.898437-8.300781-13.699218-9.699219-1.699219-.398438-3.300782-.601562-4.898438-.601562 6.398438-22.296876 1.5-48-13.199219-67-15.203125-19.699219-40.800781-32.097657-66.800781-32.199219-.101562 0-.199219 0-.402344 0-24.796875 0-49.597656 10.5-68 28.902343-20.699218 20.699219-30.699218 49.5-26.398437 75.597657-5.898438 3-10.699219 7.902343-13.199219 13.699219-3.902344 9.300781-1.402344 20.703124 6 27.101562 6.097656 5.300781 14.898438 6.5 21.898438 3.601562 1.800781 9.398438 5.300781 18.398438 10.199218 26.5-8.199218 8.199219-20 13.296876-31.796875 13.296876zm13.699219-95c-.601562-21 8.5-43 25-59.597657 16.898438-16.902343 39.597656-26.601562 62.300781-26.601562h.296875c23.5.101562 46.703125 11.199219 60.402344 29.101562 11.199219 14.597657 16.097656 33.398438 13.699219 51-3.398438-14-10.898438-27.101562-21.5-36.902343-24.300781-22.5-61.800781-23.699219-88.101563-14.898438-9.199218 3.101562-17.597656 7.699219-24.898437 13.601562-13.398438 11.199219-23.199219 27.199219-27.199219 44.296876zm14.800781 47.703124c-.203125-1.5-1.203125-2.800781-2.601562-3.402343-.5-.199219-.898438-.300781-1.398438-.300781-1 0-2 .402343-2.800781 1.101562-4.300781 4.101562-12.300781 4-17-.101562-4.699219-4.097657-6.300781-11.699219-3.800781-17.898438 2.5-6 8.601562-10.601562 15.601562-11.601562 1.898438-.296876 3.296875-1.796876 3.398438-3.699219 1.5-19.097657 11.300781-37.699219 26.101562-49.800781 6.597657-5.398438 14.097657-9.5 22.398438-12.296876 33.398437-11.203124 64.300781-1.5 80.101562 13.097657 13.199219 12.199219 21 30.199219 21 48.199219 0 1.5.796875 2.800781 2.097657 3.5 1.300781.703124 2.902343.703124 4.101562-.097657 2.398438-1.5 5.597656-2 8.800781-1.199219 3.597657.898438 6.898438 3.097657 8.699219 6 3.597656 5.796876 2.699219 14.296876-2 20.199219-4.5 5.597657-12.101562 8.898438-20.402344 9.097657-2 0-3.597656 1.402343-3.898437 3.402343-3.699219 22.097657-18.5 41.800781-38.699219 51.5s-44.902344 8.898438-64.402344-2.101562c-19.5-10.699219-33-31.398438-35.296875-53.597657zm-57.902343 296.199219c-10.699219.398438-21.199219-.101562-26-7-3.199219-4.601562-3.097657-10.902343-2.699219-18.101562l2.101562-35.199219c1.398438-23.5 2.796875-47.699219 12.097657-69.398438 12.699218-29.601562 34.699218-42.203124 49.699218-44 .800782-.101562 1.5-.402343 2-.902343l18 2.800781c6 .898438 12.101563 2.199219 14.800782 6.300781 1.101562 1.597657 1.699218 3.800781 2.300781 6.097657.398437 1.300781.699219 2.601562 1.199219 4 1.601562 4.5 4.199218 8.300781 6.699218 12 1.402344 2 2.703125 3.902343 3.800782 5.902343 2.5 4.5 4.199218 10.699219 1.402343 14.800781-1.300781 1.796876-.800781 4.296876 1 5.597657.699219.5 1.5.699219 2.296875.699219 1.300782 0 2.5-.597657 3.300782-1.796876 4.101562-6 3.800781-14.800781-1.097657-23.300781-1.300781-2.300781-2.800781-4.402343-4.203125-6.5-2.296875-3.402343-4.5-6.601562-5.796875-10.101562-.402343-1.097657-.703125-2.199219-1-3.398438-.703125-2.699219-1.601562-5.699219-3.402343-8.5-4.5-6.800781-12.800782-8.601562-20.199219-9.699219l-28.300781-4.402343c-6.898438-1.097657-14.597657-2.699219-17.800782-7.800781-3.296875-5.296876-.796875-13.097657 3.402344-18.097657 6.300781-7.402343 16.097656-11.601562 24.699219-15.402343 12.601562-5.5 26.800781-11.699219 41.199219-12.597657-1.097657 11.898438 1.402343 23.898438 6.699218 34.5-7.597656-.902343-15.199218-2.601562-22.5-5.199219-2.699218-1-5.898437-2.300781-6.796875-4.601562-.703125-1.699219-.101562-4.300781 1.898438-7.898438 1.101562-2 .398437-4.402343-1.601563-5.5-2-1.101562-4.398437-.402343-5.5 1.597657-2 3.699219-4.5 9.300781-2.296875 14.699219 2.097657 5.203124 7.296875 7.703124 11.597657 9.203124 9.800781 3.5 19.902343 5.5 30.199218 6.199219 6.203125 8.898438 14.5 16.300781 24.402344 21 3.199219 1.5 6.097656 2.5 8.898438 3.097657-3.398438 55.902343-4.597657 112.5-3.597657 168.402343-28.300781.097657-56.5.5-84.703125 1.300781l3.402344-88.300781c.097656-2.199219-1.601562-4.101562-3.902344-4.199219-2.199218-.101562-4.097656 1.597657-4.199218 3.898438l-3.398438 88.898438c-9.199219.101562-18.601562.5-28.101562.902343zm284.699218-16c-.597656 4.699219-1.296875 8.800781-3.699218 11.597657-4 4.902343-12.199219 5-19.597657 4.601562-12-.5-24.101562-1-36.101562-1.300781l.800781-94.898438c0-2.199219-1.800781-4-4-4.101562-2.199219 0-4 1.800781-4 4l-.800781 94.699219c-29.300781-.796876-58.601563-1.296876-88-1.296876-1-55.902343.199219-112.5 3.601562-168.402343.5-.097657.898438-.199219 1.398438-.300781 5.5-1.597657 9.601562-5.597657 12.898437-8.898438 5.601563-5.601562 11.203125-11.300781 16.203125-17.601562 2.898438.5 5.898438.800781 8.898438.800781 11.101562 0 22.199219-3.398438 31.199219-9.898438 4.902343-3.5 7.5-7.199219 8-11.300781.300781-2.199219-1.300782-4.199219-3.5-4.5-2.199219-.300781-4.199219 1.300781-4.5 3.5-.199219 1.800781-1.800782 3.699219-4.699219 5.800781-8.601563 6.199219-19.5 9.097657-30.101563 8.199219.402344-.601562.703125-1.101562 1.101563-1.699219 6.398437-10.902343 9.101562-22.402343 7.699219-32.699219 14.199218-1.300781 28.800781 0 42.5 4 12.601562 3.597657 21 8.898438 25.402343 16.097657 6.597657 10.601562 3 26.5-7.5 33.300781-3.300781 2.101562-7.203125 3.5-11.300781 5-6 2.101562-12.101562 4.300781-17 9.101562-1.402344 1.398438-2.601562 2.796876-3.699219 4.199219-1.601562 2-3.101562 3.800781-4.902343 4.898438-2.597657 1.699219-6.199219 2-10 2.402343-1.898438.199219-3.898438.398438-6 .796876-15.300782 2.902343-27.199219 18-26.5 33.601562.101562 2.199219 1.902343 3.898438 4 3.898438h.199218c2.203125-.097657 3.902344-2 3.800782-4.199219-.5-11.5 8.601562-23.097657 20-25.300781 1.601562-.296876 3.402343-.5 5.199218-.699219 4.300782-.398438 9.300782-.898438 13.5-3.597657 2.902344-1.800781 4.902344-4.402343 6.800782-6.601562 1-1.300781 2-2.5 3.101562-3.5 3.097656-3 7.398438-4.800781 11.898438-6.5.402343.5.902343.898438 1.5 1.101562 19 7.796876 43.101562 29.597657 53.699218 67.5 8.601563 30.296876 5.800782 63.097657 2.5 88.199219zm0 0"/><path d="m133.792969 438.3125c1 0 2-.398438 2.699219-1.101562 2.902343-2.699219 6.902343-4.296876 10.800781-4.296876 2.199219 0 4-1.902343 4-4.101562s-1.898438-4-4.101563-4c-.699218 0-1.398437.101562-2 .101562 2.203125-24.203124 3.300782-48.800781 3.402344-73.101562 0-2.199219-1.800781-4-4-4s-4 1.800781-4 4c-.101562 25.101562-1.300781 50.5-3.601562 75.5-2.097657 1-4.097657 2.398438-5.800782 4-1.597656 1.5-1.699218 4.101562-.199218 5.699219.601562.902343 1.699218 1.300781 2.800781 1.300781zm0 0"/><path d="m192.09375 429.3125c-1.199219-.699219-2.5-1.199219-3.800781-1.699219l.800781-76c0-2.199219-1.800781-4.101562-4-4.101562s-4.101562 1.800781-4.101562 4l-.800782 74.300781c-1-.101562-2-.101562-2.898437-.101562-2.199219 0-4 1.800781-4 4.101562 0 2.199219 1.800781 4 4 4 3.800781 0 7.5.898438 10.800781 2.699219.597656.300781 1.300781.5 1.898438.5 1.402343 0 2.800781-.800781 3.5-2.097657 1.300781-2.101562.601562-4.601562-1.398438-5.601562zm0 0"/></svg>