<svg height="511pt" viewBox="-90 0 511 511.99977" width="511pt" xmlns="http://www.w3.org/2000/svg"><path d="m268.445312 507.777344-.242187-3.730469c-2.558594-39.46875-3.75-79.355469-3.539063-118.550781-.269531 39.066406.910157 78.765625 3.441407 118.003906l.273437 4.273438-204.425781-.71875 1.289063-88.082032-1.347657 88.082032-35.007812-.125c-7.425781-.035157-15.726563-.542969-20.351563-6.1875-3.390625-4.125-3.789062-9.839844-3.902344-15.339844-.496093-24.808594 1.527344-49.742188 6.015626-74.117188 1.414062-7.726562 3.226562-15.78125 8.339843-21.871094 9.222657-10.960937 24.769531-11.585937 39.804688-12.1875l1.800781-.074218c12.207031-.5 24.523438-1.929688 36.59375-4.25 12.09375-2.316406 24.21875-5.570313 36.035156-9.671875 20.582032-7.148438 40.234375-16.855469 58.40625-28.839844 9.214844-6.085937 18.089844-12.789063 26.371094-19.929687 4.195312-3.621094 8.289062-7.394532 12.167969-11.210938.875-.859375 1.90625-2.128906 2.996093-3.476562l.222657-.273438c3.628906-4.503906 5.886719-6.9375 8.132812-7.707031.675781-.226563 1.398438-.339844 2.15625-.339844 2.761719 0 7.664063 1.339844 21.179688 11.769531l.242187.1875c.652344.496094 1.234375.945313 1.738282 1.316406 2.945312 2.210938 5.882812 4.632813 8.75 7.207032l.589843.53125.34375.714844.695313.28125.523437.480468c3.980469 3.761719 7.765625 7.800782 11.253907 12.003906 12.785156 15.417969 22.839843 34.25 29.070312 54.464844 10.234375 33.15625 12.023438 71.160156 5.625 119.59375l-.011719.101563c-.3125 2.277343-.683593 4.285156-2.070312 5.734375-1.847657 1.9375-4.769531 2.101562-7.601563 2.101562zm0 0" fill="#59bd8b"/><path d="m63.589844 319.195312c-10.84375-3.199218-19.636719-12.695312-21.96875-23.726562-2.339844-11.125 1.960937-23.46875 10.699218-30.71875-.445312.023438-.875.0625-1.308593.0625-4.855469 0-8.8125-4.75-9.699219-9.152344-1.050781-5.242187.683594-10.671875 2.207031-15.464844 1.441407-4.558593 3.210938-10.164062 1.96875-15.484374-.636719-2.753907-1.992187-5.234376-3.421875-7.859376-2.089844-3.832031-4.027344-7.394531-3.566406-11.460937.285156-2.4375 1.433594-4.644531 2.542969-6.777344l.050781-.097656c.882812-1.683594 1.792969-3.429687 2.285156-5.277344 1.046875-3.910156.195313-7.988281-.628906-11.929687-.464844-2.191406-.933594-4.40625-1.09375-6.617188-.609375-8.089844 2.84375-15.691406 6.1875-23.046875l.058594-.128906c1.78125-3.941406 3.628906-8.019531 4.84375-12.152344 2.179687-7.394531 2.4375-15.195312 2.691406-22.734375l.027344-.804687c.101562-2.792969.203125-5.679688.421875-8.507813 2.933593-39.222656 28.894531-76.691406 64.597656-93.226562 14.035156-6.496094 30.070313-9.933594 46.375-9.933594 24.292969 0 47.914063 7.453125 66.519531 20.980469 31.816406 23.140625 50.023438 64.933593 45.304688 103.992187l-.277344 2.25c-.855469 6.628906-1.738281 13.445313 1.285156 19.253906 1.105469 2.105469 2.628906 3.890626 4.238282 5.777344 1.941406 2.246094 3.898437 4.519532 4.960937 7.292969 2.085937 5.515625.15625 11.472656-1.710937 17.234375-1.914063 5.902344-3.890626 12.007812-1.53125 17.5625 1.152343 2.707031 3.269531 5.039062 5.316406 7.292969 2.9375 3.242187 5.960937 6.578125 5.765625 10.863281-.203125 4.535156-3.910157 7.898438-7.5 11.148438-4.53125 4.105468-7.691407 7.359374-7.117188 11.894531.328125 2.550781 1.898438 4.699219 3.429688 6.777343.238281.300782.464843.617188.691406.929688 13.347656 18.484375 10.277344 47.402344-6.699219 63.148438l-2.644531 2.457031-2.710937-2.382813c-2.492188-2.183594-4.941407-4.179687-7.289063-5.929687-.566406-.421875-1.25-.953125-2.003906-1.542969-7.347657-5.660156-15.683594-11.71875-21.425781-11.71875-.722657 0-1.359376.101562-1.953126.300781-.449218.15625-.972656.429688-1.5625.824219l-1.746093 1.167969-1.953125-.78125c-9.347656-3.726563-17.363282-10.964844-21.996094-19.855469-4.941406-9.503906-6.105469-20.851562-3.203125-31.144531l.371094-1.3125 1.09375-.8125c1.539062-1.144531 2.855469-2.203125 4.027343-3.238281 11.910157-10.457032 19.222657-25.507813 19.566407-40.265626l.097656-4.050781 4.050781.148438c.488282.015625.988282.027343 1.503906.027343 5.464844 0 13.15625-1.132812 18.777344-6.535156 3.457032-3.328125 5.390625-8.496094 5.042969-13.488281-.285156-4.03125-2.039063-7.414063-4.941406-9.519531-2.308594-1.667969-5.207031-2.515625-8.605469-2.515625-1.890625 0-3.917969.265625-6.03125.789062l-4.503906 1.121094-.828125-8.703125v-2.265625l1.699219-1.207031c.558593-.390625 1.050781-.863282 1.472656-1.402344 1.246094-1.625 1.628906-3.789062 1.914062-5.863281.089844-.664063.160156-1.324219.234375-1.988281l.242188-2.140626.671875-.875c2.949218-15.316406 3.191406-30.25.789062-48.402343-2.414062-18.179688-9.261718-33.992188-19.800781-45.722657-13.34375-14.835937-34.152344-23.695312-55.667969-23.695312-4.53125 0-9.058594.398438-13.453125 1.179688-23.90625 4.269531-46.601562 19.949218-60.707031 41.945312-11.96875 18.667969-16.867188 42.230469-14.976562 72.023438l.007812.128906v.125c0 2.925781.117188 5.714844.347656 8.34375.417969 4.734375 1.886719 8.457031 4.128906 10.472656l1.324219 1.191406v10.203125l-4.226562-.246093c-.355469-.019532-.710938-.03125-1.066407-.03125-6.941406 0-13.742187 3.902343-16.925781 9.710937-4.191406 7.628906-2.242187 17.980469 4.4375 23.570313 3.246094 2.710937 7.550781 4.203124 12.113281 4.203124 2.476563 0 4.871094-.4375 7.113282-1.296874l4.527344-1.746094.847656 4.777344c2.492187 14.046874 11.363281 27.753906 23.730468 36.664062l1.261719.910156.316407 1.523438c3.089843 14.910156-.542969 31.058594-9.714844 43.195312-8.582032 11.359375-20.652344 18.367188-33.433594 25.785156-3.386719 1.960938-6.984375 4.058594-10.542969 6.277344l-1.820312 1.132813zm0 0" fill="#d34242"/><path d="m91.867188 155.878906c-.296876 0-.585938-.019531-.867188-.058594-4.078125-.558593-6.886719-5.070312-7.5-12.058593-1.964844-22.457031 4.46875-45.820313 17.648438-64.101563 14.996093-20.816406 37.964843-35.660156 61.445312-39.703125 3.332031-.578125 6.785156-.867187 10.257812-.867187 22.144532 0 43.628907 11.71875 57.46875 31.34375 10.628907 15.066406 16.484376 35.023437 16.484376 56.195312 0 5.347656-.378907 10.800782-1.117188 16.210938-.285156 2.074218-.671875 4.234375-1.933594 5.863281-.921875 1.195313-2.726562 2.636719-6.03125 2.636719-2.609375 0-5.773437-.933594-8.6875-2.558594-13.171875-7.367188-23.273437-20.484375-27.015625-35.089844-4.167969 3.472656-3.839843 9.660156-3.550781 15.113282l.058594 1.226562c.289062 6.171875-1.878906 13.152344-7.316406 13.917969-.300782.042969-.609376.066406-.925782.066406-2.695312 0-5.460937-1.5625-8.710937-4.910156-6.683594-6.882813-12.007813-14.828125-15.828125-23.621094l-11.949219 23.574219c-2.449219 4.851562-5.03125 7.207031-7.894531 7.207031h-.230469l-.328125-.03125c-4.335938-.5-5.828125-6.023437-6.335938-9.273437-1.382812-8.816407-1.710937-17.835938-.972656-26.800782-10.34375 16.363282-23.332031 30.601563-38.664062 42.308594-2.320313 1.773438-4.835938 3.410156-7.503906 3.410156zm0 0" fill="#d34242"/><path d="m87.609375 86.359375c2.503906-8.410156 6.039063-16.210937 10.507813-23.179687 14.101562-21.980469 36.773437-37.648438 60.652343-41.910157 4.429688-.785156 8.976563-1.1875 13.523438-1.1875 21.449219 0 42.214843 8.855469 55.542969 23.683594 9.371093 10.421875 15.902343 24.28125 18.886718 40.082031l-7.609375 2.3125c-2.410156-5.652344-5.351562-10.957031-8.738281-15.769531-13.855469-19.640625-35.375-31.367187-57.566406-31.367187-3.4375 0-6.878906.292968-10.226563.867187-23.488281 4.046875-46.476562 18.898437-61.492187 39.734375-2.160156 3-4.222656 6.292969-6.136719 9.792969zm0 0" fill="#ffbf48"/><path d="m168.472656 325.589844c-2.894531 0-5.421875-.679688-7.519531-2.023438-4.921875-3.183594-6.914063-10.363281-4.539063-16.359375 2.039063-5.175781 6.628907-9.390625 11.976563-11 1.070313-.328125 2.230469-.535156 3.425781-.617187.183594-.015625.363282-.019532.546875-.019532.117188-.003906.234375-.003906.351563-.003906 2.730468 0 5.242187.789063 7.46875 2.34375 2.203125 1.546875 4.144531 3.808594 5.9375 6.925782 1.828125 3.167968 3.636718 7.800781 1.847656 11.828124-1.660156 3.703126-5.800781 5.585938-9.226562 6.8125-3.945313 1.421876-7.308594 2.113282-10.269532 2.113282zm0 0" fill="#ffbf48"/><g fill="#ffdac4"><path d="m164.316406 254.6875c-16.417968 0-31.484375-4.351562-43.566406-12.582031-14.925781-10.15625-24.753906-26.753907-25.652344-43.308594-3.246094 2.574219-7.441406 4-11.863281 4-4.542969 0-8.835937-1.492187-12.085937-4.207031-6.65625-5.574219-8.597657-15.890625-4.417969-23.488282 3.175781-5.789062 9.953125-9.683593 16.867187-9.683593 1.839844 0 3.632813.273437 5.320313.8125l.035156-6.351563v-3.601562l3.585937-.375c2.867188-.300782 5.558594-2.375 6.855469-3.371094 11.773438-8.992188 22.222657-19.527344 31.070313-31.332031l6.808594-9.085938.390624 11.347657c.148438 4.457031.582032 9.007812 1.285157 13.523437.507812 3.253906 2.011719 8.796875 6.382812 9.3125.214844.023437.433594.039063.652344.039063 2.796875 0 5.441406-2.4375 7.867187-7.238282l11.652344-23.105468 3.671875 6.578124c3.367188 6.027344 7.523438 11.605469 12.359375 16.582032 2.054688 2.113281 5.195313 4.921875 8.71875 4.921875.316406 0 .640625-.023438.960938-.066407 6.316406-.875 7.605468-9.1875 7.375-13.964843l-.089844-1.820313c-.035156-.617187-.066406-1.234375-.085938-1.847656l7.582032-1.890625c5.109375 10.265625 13.285156 18.914063 23.011718 24.355469 2.59375 1.449218 5.511719 2.375 8.007813 2.539062l3.398437.222656 1.054688 11.066407c2.664062-1.007813 6.625-2.246094 10.613281-2.246094 3.339844 0 6.203125.851563 8.519531 2.527344 3.90625 2.839843 4.746094 7.160156 4.902344 9.480469.355469 4.949218-1.5625 10.101562-5.011718 13.425781-4.378907 4.207031-11.066407 6.523437-18.835938 6.523437-1.84375 0-3.753906-.128906-5.679688-.386718 1.113282 15.953124-6.335937 33.003906-19.476562 44.535156-11.796875 10.367187-28.152344 16.742187-46.058594 17.953125-2.039062.136719-4.097656.207031-6.125.207031zm0 0"/><path d="m28.273438 375.980469c2.085937-17.269531 10.632812-33.859375 23.449218-45.507813 7.765625-7.070312 17.128906-12.503906 26.183594-17.761718 12.21875-7.09375 24.855469-14.429688 33.457031-25.804688.558594-.746094 1.140625-1.570312 1.769531-2.503906l2.089844-3.121094 3.246094 1.894531c11.472656 6.691407 24.765625 10.90625 38.4375 12.179688l7.753906.726562-5.105468 5.878907c-1.375 1.585937-2.453126 3.34375-3.207032 5.230468-.671875 1.703125-1.015625 3.519532-1.015625 5.378906 0 4.59375 2.140625 8.828126 5.589844 11.046876 2.125 1.367187 4.578125 2.035156 7.492187 2.035156 2.96875 0 6.449219-.710938 10.34375-2.113282 3.660157-1.320312 7.621094-3.164062 9.261719-6.839843 1.804688-4.042969-.011719-8.703125-1.851562-11.902344-.96875-1.6875-1.984375-3.117187-3.105469-4.378906l-4.617188-5.199219 6.816407-1.378906c11.003906-2.226563 21.28125-6.277344 30.539062-12.042969l2.785157-1.738281 2.246093 2.394531c3.59375 3.835937 7.800781 6.949219 12.496094 9.257813l4.53125 2.226562-3.203125 3.902344c-.449219.546875-.890625 1.082031-1.320312 1.621094-1.277344 1.582031-2.316407 2.851562-3.210938 3.734374-3.839844 3.792969-7.929688 7.5625-12.15625 11.210938-8.296875 7.148438-17.167969 13.851562-26.371094 19.929688-18.160156 11.980468-37.804687 21.679687-58.390625 28.832031-23.714843 8.230469-48.148437 12.914062-72.621093 13.917969l-1.742188.082031c-8.214844.320312-17.5.683593-25.425781 3.117187l-5.882813 1.804688zm0 0"/><path d="m165.914062 295.519531c-17.125 0-33.554687-4.308593-47.507812-12.457031l-3.175781-1.855469 1.582031-3.316406c4.109375-8.621094 5.898438-18.191406 5.183594-27.667969l-.539063-7.121094 6.351563 3.257813c10.699218 5.488281 23.316406 8.390625 36.484375 8.390625 2.078125 0 4.144531-.070312 6.140625-.210938 11.972656-.800781 23.496094-3.984374 33.335937-9.210937l6.570313-3.492187-.714844 7.40625c-.789062 8.226562.832031 16.703124 4.566406 23.871093.632813 1.21875 1.304688 2.363281 2.054688 3.511719l2.277344 3.46875-3.550782 2.148438c-14.34375 8.6875-31.308594 13.277343-49.058594 13.277343zm0 0"/></g><path d="m321.953125 379.214844c-6.398437-20.726563-16.714844-40.042969-29.835937-55.859375-2.988282-3.601563-6.121094-7.003907-9.375-10.21875 18.078124-17.132813 21.507812-47.71875 6.785156-68.105469-.222656-.308594-.453125-.621094-.679688-.929688-1.292968-1.75-2.511718-3.402343-2.703125-4.921874-.332031-2.582032 1.976563-4.882813 5.816407-8.363282 4.003906-3.636718 8.546874-7.757812 8.824218-13.984375.269532-5.960937-3.492187-10.109375-6.8125-13.769531-1.90625-2.097656-3.703125-4.078125-4.585937-6.160156-1.769531-4.15625-.105469-9.285156 1.652343-14.710938 1.988282-6.136718 4.242188-13.09375 1.648438-19.921875-1.296875-3.414062-3.59375-6.09375-5.625-8.453125-1.472656-1.71875-2.867188-3.339844-3.765625-5.066406-2.433594-4.664062-1.671875-10.566406-.871094-16.816406.101563-.777344.203125-1.550782.292969-2.320313 2.421875-20.03125-.746094-40.820312-9.152344-60.121093-8.410156-19.296876-21.480468-35.773438-37.800781-47.636719-16.316406-11.867188-36.019531-19.222657-56.972656-21.273438-20.957031-2.050781-41.707031 1.347657-60.011719 9.824219-18.3125 8.480469-34.324219 22.105469-46.316406 39.410156-11.992188 17.304688-19.128906 37.085938-20.636719 57.207032-.234375 3.167968-.34375 6.371093-.449219 9.46875-.257812 7.644531-.503906 14.867187-2.527344 21.71875-1.148437 3.910156-2.878906 7.722656-4.710937 11.753906-3.550781 7.828125-7.226563 15.925781-6.539063 25.039062.183594 2.453125.679688 4.808594 1.160157 7.082032.769531 3.65625 1.492187 7.109374.691406 10.105468-.378906 1.421875-1.15625 2.90625-1.972656 4.472656-1.242188 2.375-2.648438 5.0625-3.011719 8.253907-.617188 5.371093 1.851562 9.890625 4.027344 13.878906 1.300781 2.375 2.523437 4.617187 3.035156 6.824219.917969 3.949218-.3125 8.382812-1.886719 13.351562-1.675781 5.269532-3.570312 11.242188-2.3125 17.484375.84375 4.195313 3.5625 8.238281 7.242188 10.519531-6.3125 8.183594-9.058594 19.203126-6.925781 29.320313 2.226562 10.582031 9.738281 19.898437 19.429687 24.675781-2.800781 2.019532-5.523437 4.15625-8.089844 6.488282-14.601562 13.277343-23.753906 32.1875-25.113281 51.875-.019531.25-.003906.496093.023438.738281-2.953126 1.734375-5.664063 3.925781-8.015626 6.722656-5.75 6.835937-7.714843 15.484375-9.238281 23.757813-4.527343 24.648437-6.5703122 49.859374-6.070312 74.921874.117187 5.941407.597656 12.710938 4.824219 17.855469 6.238281 7.597657 17.449218 7.636719 23.472656 7.65625l285.007812 1.011719h.449219c2.679687 0 7.175781-.160156 10.222656-3.363281 2.425781-2.554688 2.867188-5.894531 3.160157-8.105469 6.480468-49.03125 4.652343-87.582031-5.757813-121.316406zm-257.0625-63.808594c-9.535156-2.722656-17.3125-11.070312-19.351563-20.769531-2.042968-9.703125 1.710938-20.476563 9.335938-26.808594 1.40625-1.171875 1.851562-3.140625 1.082031-4.800781-.773437-1.660156-2.570312-2.59375-4.363281-2.269532-2.796875.5-5.726562-2.757812-6.359375-5.890624-.84375-4.199219.648437-8.90625 2.09375-13.457032 1.5-4.71875 3.550781-11.1875 2.058594-17.613281-.761719-3.277344-2.3125-6.117187-3.8125-8.863281-1.835938-3.363282-3.421875-6.265625-3.097657-9.097656.195313-1.699219 1.144532-3.515626 2.148438-5.4375.941406-1.800782 2.007812-3.839844 2.617188-6.125 1.300781-4.855469.292968-9.628907-.589844-13.84375-.445313-2.113282-.867188-4.113282-1.011719-6.03125-.527344-7.058594 2.566406-13.878907 5.84375-21.101563 1.863281-4.109375 3.789063-8.355469 5.101563-12.804687 2.3125-7.835938 2.585937-15.917969 2.847656-23.726563.105468-3.019531.210937-6.136719.433594-9.140625 2.835937-37.832031 27.871093-73.960938 62.300781-89.902344 34.425781-15.941406 78.171875-11.660156 108.855469 10.652344 30.6875 22.3125 48.242187 62.605469 43.691406 100.269531-.089844.75-.1875 1.503907-.285156 2.261719-.882813 6.871094-1.886719 14.664062 1.71875 21.574219 1.328124 2.542969 3.089843 4.597656 4.796874 6.585937 1.753907 2.042969 3.410157 3.96875 4.207032 6.0625 1.585937 4.179688-.050782 9.230469-1.785156 14.574219-2.039063 6.292969-4.347657 13.421875-1.402344 20.355469 1.417968 3.332031 3.871094 6.035156 6.03125 8.421875 2.605468 2.867187 4.851562 5.347656 4.734375 7.992187-.128907 2.871094-3.074219 5.542969-6.191407 8.371094-4.132812 3.75-9.277343 8.417969-8.394531 15.355469.457031 3.59375 2.449219 6.300781 4.210938 8.6875.214843.285156.425781.574219.632812.859375 12.3125 17.050781 9.167969 43.636718-6.171875 57.871094-2.457031-2.152344-4.96875-4.207032-7.535156-6.128907-.554688-.414062-1.207031-.917969-1.941406-1.484375-9.691406-7.472656-19.769532-14.5625-27.125-12.054687-.855469.292969-1.6875.734375-2.496094 1.28125-8.496094-3.390625-15.699219-9.871094-19.925781-17.988281-4.476563-8.601563-5.53125-18.882813-2.898438-28.210938 1.480469-1.101562 2.917969-2.246094 4.292969-3.449219 12.796875-11.242187 20.550781-27.425781 20.917969-43.167969 6.886719.242188 16.261719-.953124 23.195312-7.628906 4.289063-4.128906 6.6875-10.507812 6.257813-16.644531-.367188-5.242187-2.703125-9.671875-6.578125-12.476563-4.605469-3.335937-10.855469-4.136718-17.945313-2.371093l-.371094-3.894531c0-.003907 0-.003907 0-.003907.839844-.597656 1.628907-1.320312 2.324219-2.226562 1.859375-2.421875 2.378907-5.28125 2.71875-7.777344.144531-1.039063.246094-2.074219.363281-3.109375.363282-.476562.636719-1.035156.757813-1.664062 3.035156-15.785157 3.289063-31.113282.824219-49.699219-2.519532-18.984375-9.707032-35.539063-20.792969-47.867188-17.300781-19.242187-45.878906-28.578125-72.800781-23.777343-24.980469 4.453124-48.667969 20.796874-63.363282 43.714843-12.449218 19.417969-17.554687 43.769531-15.609374 74.445313.003906.019531.007812.039062.011718.058594-.007812 2.878906.105469 5.757812.359375 8.621093.511719 5.886719 2.453125 10.425781 5.429688 13.109375v4.171875c-8.65625-.492187-17.515625 4.082031-21.730469 11.753907-5.074219 9.25-2.710938 21.796874 5.390625 28.5625 6.355469 5.308593 15.582031 6.507812 23.222656 3.570312 2.683594 15.09375 11.984375 29.589844 25.328125 39.203125 2.859375 13.804687-.480468 28.71875-8.980468 39.96875-8.101563 10.722656-19.835938 17.535156-32.261719 24.746094-3.535157 2.054687-7.117188 4.136719-10.644531 6.335937-.109376-.039062-.207032-.09375-.320313-.128906zm113-14.21875c1.707031 1.191406 3.261719 3.035156 4.761719 5.636719 1.117187 1.949219 2.824218 5.605469 1.65625 8.214843-1.027344 2.304688-4.238282 3.707032-6.921875 4.671876-6.484375 2.332031-11.15625 2.492187-14.273438.484374-3.3125-2.132812-4.652343-7.300781-2.980469-11.515624 1.582032-4.007813 5.277344-7.398438 9.414063-8.640626.746094-.226562 1.628906-.402343 2.582031-.460937.097656-.003906.199219-.007813.296875-.011719 1.695313-.046875 3.609375.328125 5.464844 1.621094zm-57.472656-21.578125c4.390625-9.195313 6.339843-19.53125 5.558593-29.691406 11.277344 5.777343 24.480469 8.828125 38.320313 8.828125 2.125 0 4.265625-.070313 6.414063-.214844 12.691406-.855469 24.65625-4.210938 34.933593-9.667969-.867187 8.9375.84375 18.117188 4.996094 26.097657.691406 1.324218 1.445313 2.613281 2.261719 3.859374-27.449219 16.621094-64.773438 16.96875-92.484375.789063zm74.050781-150.585937.0625 1.210937c.214844 4.5-1.175781 9.378906-3.875 9.75-1.558594.21875-3.597656-.980469-6.210938-3.664063-6.347656-6.53125-11.402343-14.078124-15.035156-22.429687-.621094-1.433594-2.019531-2.378906-3.582031-2.425781-1.601563-.03125-3.011719.820312-3.714844 2.21875l-11.890625 23.582031c-1.933594 3.832031-3.546875 5.089844-4.417968 4.992187-1.132813-.132812-2.328126-2.617187-2.839844-5.90625-1.335938-8.542968-1.652344-17.242187-.941406-25.863281.152343-1.851562-.980469-3.570312-2.746094-4.15625-1.769532-.585937-3.699219.109375-4.6875 1.683594-10.011719 15.953125-22.679688 29.84375-37.648438 41.277344-1.816406 1.390625-3.890625 2.773437-5.394531 2.570312-2.320313-.324219-3.710937-4.476562-4.058594-8.453125-1.886719-21.507812 4.277344-43.890625 16.898438-61.410156 14.40625-19.988281 36.417969-34.230469 58.886719-38.101562 3.175781-.546876 6.375-.8125 9.574218-.8125 20.53125 0 41.042969 10.988281 54.199219 29.648437h.003906c12.882813 18.269531 18.230469 43.625 14.671875 69.5625-.210937 1.535156-.472656 3.105469-1.125 3.957031-1.542968 2-6.101562.996094-9.613281-.964844-12.230469-6.835937-21.613281-19.019531-25.09375-32.589843-.347656-1.347657-1.359375-2.421875-2.683594-2.839844-1.324219-.421875-2.773437-.132813-3.832031.765625-5.621094 4.777344-5.222656 12.332031-4.90625 18.398438zm39.171875-60.933594c-16.996094-24.101563-45.152344-36.714844-71.734375-32.136719-24.5 4.21875-48.449219 19.671875-64.058594 41.335937-2.347656 3.253907-4.472656 6.675782-6.398437 10.210938 2.40625-8.105469 5.746093-15.46875 10.035156-22.160156 13.503906-21.0625 35.183594-36.0625 57.988281-40.128906 24.246094-4.320313 49.910156 4.011718 65.390625 21.230468 10.855469 12.074219 15.746094 26.613282 17.925781 38.152344-2.492187-5.863281-5.546874-11.394531-9.148437-16.503906zm-142.335937 101.363281c1.035156-.761719 1.648437-1.96875 1.648437-3.257813v-6.316406c3.933594-.40625 7.175781-2.875 8.882813-4.179687 12.09375-9.238281 22.761718-20 31.828124-32.101563.164063 4.6875.609376 9.363282 1.332032 13.996094 1.183594 7.5625 4.6875 12.0625 9.867187 12.671875 4.917969.578125 9.132813-2.578125 12.558594-9.371094l8.257813-16.378906c3.539062 6.339844 7.886718 12.175781 12.984374 17.421875 2.886719 2.96875 7.394532 6.824219 13.097657 6.035156 8.023437-1.113281 11.214843-9.90625 10.824219-18.125l-.066407-1.246094c-.039062-.777343-.082031-1.5625-.109375-2.335937 5.410156 10.859375 14.109375 20.175781 24.640625 26.058594 2.867188 1.601562 6.328125 2.824219 9.703125 3.042969l.730469 7.683593c.121094 1.261719.828125 2.394531 1.910156 3.054688 1.082031.664062 2.414063.777343 3.59375.308593 3.757813-1.492187 10.738281-3.503906 15.269531-.222656 2.570313 1.863282 3.144532 4.878906 3.257813 6.507813.265625 3.765625-1.230469 7.796875-3.804687 10.277343-4.5625 4.390626-12.292969 6.234376-21.203126 5.050782-1.207031-.164063-2.410156.230468-3.292968 1.0625-.882813.828125-1.34375 2.015625-1.257813 3.222656 1.054688 14.691406-5.875 30.480469-18.085937 41.210938-11.148438 9.789062-26.664063 15.8125-43.699219 16.960937-17.609375 1.1875-34.363281-2.964844-47.167969-11.6875-13.921875-9.484375-23.082031-24.894531-23.902344-40.214844-.082031-1.511719-1.003906-2.851562-2.390624-3.46875-1.382813-.613281-2.996094-.402343-4.171876.550781-5.222656 4.230469-13.664062 4.164063-18.820312-.140624-5.15625-4.308594-6.722656-12.605469-3.488281-18.496094 3.230469-5.890625 11.074219-9.023438 17.472656-6.988282 1.222656.390626 2.558594.171876 3.601563-.585937zm-36.890626 163.972656c7.453126-6.777343 16.625-12.101562 25.496094-17.253906 12.566406-7.296875 25.5625-14.839844 34.640625-26.855469.660157-.875 1.292969-1.773437 1.902344-2.6875 12.289063 7.171875 26.046875 11.40625 40.082031 12.707032-1.648437 1.902343-2.984375 4.058593-3.902344 6.378906-3.113281 7.875-.484374 17.015625 6.117188 21.261718 2.769531 1.785157 5.972656 2.675782 9.660156 2.675782 3.460938 0 7.347656-.785156 11.707032-2.355469 4.1875-1.503906 9.28125-3.882813 11.554687-8.96875 1.972656-4.414063 1.269531-9.78125-2.035156-15.523437-1.121094-1.949219-2.3125-3.617188-3.589844-5.042969 11.222656-2.269531 22.058594-6.464844 31.871094-12.566407 3.890625 4.152344 8.53125 7.601563 13.644531 10.109376-.457031.554687-.90625 1.109374-1.34375 1.652343-1.097656 1.355469-2.132812 2.636719-2.902344 3.398438-3.835937 3.773437-7.859375 7.484375-11.964844 11.023437-8.152343 7.035156-16.886718 13.636719-25.960937 19.621094-17.886719 11.800781-37.230469 21.351562-57.496094 28.390625-23.335937 8.101563-47.382812 12.710937-71.46875 13.703125l-1.757812.070312c-8.699219.347657-18.054688.726563-26.417969 3.300782 1.976562-16.386719 9.9375-31.917969 22.164062-43.039063zm265.304688 166.050781c-.15625 1.175782-.390625 2.953126-1.007812 3.601563-.828126.871094-3.503907.867187-4.800782.859375l-41.714844-.148438c-2.542968-39.199218-3.738281-78.980468-3.53125-118.269531.011719-2.226562-1.78125-4.039062-4.007812-4.050781-.007812 0-.015625 0-.023438 0-2.214843 0-4.019531 1.789062-4.03125 4.007812-.207031 39.292969.980469 79.074219 3.515626 118.28125l-196.105469-.691406 1.230469-84.035156c.03125-2.226562-1.746094-4.058594-3.972657-4.089844-2.230469-.066406-4.058593 1.746094-4.089843 3.972656l-1.230469 84.121094-31.046875-.109375c-6.503906-.023437-13.734375-.40625-17.273438-4.710937-2.589844-3.152344-2.898437-8.101563-2.992187-12.898438-.488281-24.523437 1.511719-49.1875 5.941406-73.304687 1.324219-7.210938 2.992187-14.695313 7.472656-20.023438 8.089844-9.613281 22.757813-10.199219 36.9375-10.765625l1.765625-.070312c24.878906-1.027344 49.703125-5.785156 73.785156-14.144532 20.894532-7.257812 40.847657-17.109374 59.292969-29.277343 9.359375-6.175781 18.375-12.988281 26.785157-20.246094 4.238281-3.65625 8.394531-7.484375 12.355468-11.382813 1.101563-1.085937 2.277344-2.539062 3.519532-4.078124 1.785156-2.210938 4.769531-5.910157 6.324218-6.4375 2.578125-.878907 9.167969 2.757812 19.601563 10.804687.769531.59375 1.457031 1.121094 2.035156 1.554687 2.890625 2.164063 5.714844 4.492188 8.457031 6.96875.117188.230469.25.457032.414063.671876.449219.585937 1.03125 1 1.671875 1.265624 3.8125 3.601563 7.464844 7.488282 10.917968 11.652344 12.449219 15.007813 22.25 33.367188 28.335938 53.089844 10.050781 32.582031 11.789062 70.042969 5.46875 117.882812zm0 0"/></svg>