<svg height="511pt" viewBox="-84 0 511 511.99794" width="511pt" xmlns="http://www.w3.org/2000/svg"><path d="m281.644531 317.417969c-4.996093-2.324219-10.285156-4.394531-14.953125-6.222657-11.828125-4.636718-23-9.015624-32.359375-16.964843-15.613281-13.289063-25.050781-26.183594-20.363281-45.886719.011719-.09375.023438-.175781.039062-.261719l.308594-1.859375 1.636719-.945312c7.539063-4.359375 13.945313-9.777344 19.03125-16.105469 8.519531-10.601563 13.28125-24.09375 13.070313-37.007813l-.054688-3.1875 3.101562-.761718c6.144532-1.507813 13.886719-3.949219 19.238282-9.515625 5.757812-5.96875 7.804687-16.46875 1.683594-22.589844-3.863282-3.867187-9.546876-4.617187-15.046876-5.347656l-.371093-.046875c-1.792969-.234375-3.488281-.453125-5.175781-.792969-12.117188-2.4375-23.488282-11.394531-31.199219-24.582031-6.957031-11.90625-10.363281-25.402344-13.65625-38.449219-2.871094 15.515625-16.8125 28.414063-32.496094 30.007813-1.09375.113281-2.21875.171874-3.339844.171874-8.746093 0-17.703125-3.410156-24.570312-9.355468-.554688-.464844-1.191407-1.203125-2.171875-2.359375l-.074219-.085938c-1.964844-2.320312-4.929687-5.828125-7.542969-5.828125-.292968 0-.582031.042969-.882812.132813-2.21875.640625-2.949219 3.183593-3.515625 7.652343-.148438 1.210938-.292969 2.296876-.53125 3.125-5.238281 19.128907-19.570313 35.257813-37.394531 42.046876-1.792969.6875-3.5625 1.261718-5.4375 1.871093l-.667969.214844c-3.464844 1.117187-7.003907 2.257813-10.273438 3.886719-6.113281 3.0625-10.164062 7.511718-11.386719 12.523437-1.707031 6.976563 2.3125 14.859375 9.554688 18.742188 3.640625 1.949219 7.9375 2.9375 12.765625 2.9375 1.820313 0 3.726563-.140625 5.660156-.421875l3.542969-.511719.902344 3.464844c4.367187 16.824219 14.351562 32.140625 28.101562 43.128906l1.125.902344.296875 1.410156c4.097657 19.65625-3.09375 40.730469-18.324219 53.683594-4.433593 3.761719-9.535156 6.976562-16.0625 10.109375l-.929687.445312-1.027344-.058594c-15.78125-.902343-33.597656-12.21875-41.4375-26.320312-7.753906-13.96875-7.796875-32.035156-.109375-46.03125l-.292968-.042969c-13.398438 0-26.519532-9.632812-30.519532-22.40625-4.027344-12.898437 1.363282-28.355469 12.539063-35.953125-8.519531-10.789062-10.40625-26.390625-4.6875-38.859375 5.710937-12.46875 18.761719-21.21875 32.476562-21.769531-6.476562-16.78125-2.746093-38.597656 8.898438-51.914062 5.597656-6.398438 12.652343-11.726563 20.398437-15.402344 3.898438-1.851563 7.945313-3.292969 12.027344-4.273438l.1875-.042968c.425781-.078126 1.136719-.160157 3.050781-.359376l.371094-.039062c3.425781-.351562 6.386719-.65625 7.171875-1.03125.015625-.023438.035156-.058594.0625-.105469 9.25-17.425781 26.289062-30.34375 45.578125-34.554687 4.621094-1.003906 9.421875-1.515625 14.261719-1.515625 17.890625 0 35.125 6.917969 46.105468 18.503906 5.410157 5.699219 10.625 5.839844 17.226563 6.023437 1.488281.039063 3.238281.089844 5.070313.21875 10.496093.761719 19.847656 6.351563 25.015624 14.945313 5.019532 8.375 5.746094 19.140625 1.898438 28.101563 2.140625-.367188 4.324219-.578126 6.519531-.578126 9.585938 0 19.164063 4.035157 25.625 10.796876 8.066407 8.4375 11.480469 21.210937 8.707031 32.542968-.328124 1.351563-.730468 2.691406-1.160156 4.105469-1.480468 4.914063-2.984375 9.898437-1.09375 14.460937 1.605469 3.867188 5.230469 6.304688 8.738282 8.664063l.300781.203125c.957031.644531 1.859375 1.25 2.757812 1.917969 10.621094 7.863281 16.234375 22.417969 13.640625 35.390625-2.589844 12.96875-13.367187 24.25-26.207031 27.441406 12.664063 8.140625 19.816406 24.164062 17.371094 39.015625-2.453125 14.839844-14.367188 27.714844-28.980469 31.304687 6.433594 5.636719 9.449219 14.960938 7.488281 23.257813-1.914062 8.136719-8.375 14.894531-16.460937 17.214844l-1.433594.410156zm0 0" fill="#d34242"/><path d="m165.9375 324.503906c-22.089844.003906-43.246094-9.96875-55.210938-26.023437l-2.171874-2.910157 2.6875-2.441406c2.078124-1.886718 4.0625-4.023437 5.902343-6.351562l2.496094-3.152344 3.140625 2.507812c13.097656 10.464844 30.167969 16.554688 46.839844 16.707032l.140625.003906c.125.003906.25.003906.371093.003906h.128907c17.507812 0 35.242187-6.414062 48.6875-17.609375l3.03125-3.007812 2.808593 3.0625c1.804688 1.964843 3.820313 3.941406 6.167969 6.046875l3.332031 2.992187-3.351562 2.976563c-18.453125 16.378906-40.167969 26-61.136719 27.09375-1.277343.070312-2.578125.101562-3.863281.101562zm0 0" fill="#ffbf48"/><path d="m258.394531 406.046875c-5.667969-.164063-12.300781-.59375-18.546875-2.515625-7.371094-2.28125-13.261718-6.488281-16.585937-11.855469-4.792969-7.707031-4.429688-17.558593-3.441407-26.179687 2.441407-21.269532 8.136719-41.710938 14.773438-64.3125l1.519531-5.164063 4.503907 2.941407c6.632812 4.320312 14.070312 7.527343 21.121093 10.34375l2.953125 1.183593-.492187 3.191407-1.765625 92.488281zm0 0" fill="#288fc9"/><path d="m150.203125 507.582031c-18.167969 0-36.53125-.226562-54.570313-.671875-4.046874-.101562-8.222656-.429687-10.847656-3.191406-2.351562-2.484375-2.703125-6.121094-2.878906-9.945312l-3.980469-88.75 4.847657.777343c.878906.140625 1.710937.210938 2.539062.210938 4.425781 0 9.113281-1.6875 13.523438-3.507813 6.558593-2.695312 13.234374-5.820312 16.601562-11.722656 2.789062-4.894531 2.664062-10.800781 2.328125-14.816406l-.28125-3.375 3.28125-.835938c16.234375-4.136718 33-6.234375 49.832031-6.234375 15.191406 0 30.335938 1.714844 45.023438 5.097657.171875.023437.335937.054687.492187.09375l3.042969.761718-.011719 3.136719c-.03125 7.066406 1.296875 12.660156 4.066407 17.109375 3.339843 5.378906 9.242187 9.59375 16.621093 11.871094 6.167969 1.90625 12.886719 2.347656 18.644531 2.523437l3.949219.121094-1.613281 84.523437c-.089844 4.457032-.464844 9.441407-3.851562 12.226563-2.4375 1.992187-5.652344 2.289063-9.300782 2.453125-32.164062 1.421875-64.953125 2.144531-97.457031 2.144531zm0 0" fill="#288fc9"/><path d="m85.363281 405.941406c-1.742187 0-3.390625-.261718-4.894531-.78125l-2.570312-.882812-3.945313-87.980469-.617187-3.320313 3.007812-1.238281c.417969-.171875.835938-.332031 1.253906-.492187 8.175782-3.199219 16.65625-6.519532 24.277344-11.179688l5.230469-3.195312 9.949219 73.523437c1.042968 7.710938 1.636718 14.5625-1.667969 20.347657-3.355469 5.890624-9.753907 8.898437-16.570313 11.707031-4.101562 1.691406-8.859375 3.492187-13.453125 3.492187zm0 0" fill="#288fc9"/><g fill="#ffdac4"><path d="m136.945312 197.773438c-3.054687 0-5.984374-.511719-8.714843-1.523438-11.90625-4.402344-19.707031-18.609375-17.027344-31.023438 1.742187-8.128906 8.832031-15.953124 18.058594-19.921874 3.949219-1.695313 7.910156-2.554688 11.769531-2.554688 4.203125 0 8.160156 1.066406 11.449219 3.082031 4.648437 2.84375 7.46875 7.269531 9.015625 10.484375 4.304687 8.863282 4.257812 19.402344-.128906 27.492188-4.535157 8.355468-14.351563 13.964844-24.421876 13.964844zm0 0"/><path d="m209.582031 197.773438c-10.074219 0-19.886719-5.609376-24.425781-13.964844-4.390625-8.074219-4.441406-18.613282-.132812-27.503906 1.566406-3.222657 4.398437-7.65625 9.023437-10.480469 3.285156-2.007813 7.246094-3.074219 11.445313-3.074219 3.859374 0 7.820312.859375 11.769531 2.554688 9.230469 3.96875 16.320312 11.792968 18.0625 19.925781 2.675781 12.410156-5.125 26.617187-17.035157 31.019531-2.722656 1.011719-5.65625 1.523438-8.707031 1.523438zm0 0"/><path d="m315.804688 507.941406c-11.40625-.019531-22.953126-.558594-33.136719-1.035156-7.421875-.347656-13.671875-.621094-20.0625-.808594l-6.332031-.183594 2.890624-5.640624c1.597657-3.113282 1.667969-7.121094 1.710938-9.515626l1.300781-67.847656 61.351563-13.304687.472656 4.429687c3.007812 28.265625 3.445312 56.929688 1.300781 85.199219-.175781 2.441406-.515625 5.203125-2.3125 6.882813-1.820312 1.683593-4.539062 1.824218-7.175781 1.824218zm0 0"/><path d="m177.035156 255.472656c-14.917968 0-29.367187-3.949218-41.785156-11.414062-2.265625-1.363282-4.515625-2.882813-6.675781-4.515625l-.367188-.277344-.296875-.355469-.332031-.171875-.332031-.246093c-14.859375-11.699219-25.542969-28.847657-29.320313-47.050782-3.246093.707032-6.367187 1.078125-9.308593 1.078125-4.816407 0-9.105469-.992187-12.746094-2.945312-6.039063-3.230469-11.425782-10.875-9.515625-18.667969 1.199219-4.917969 5.335937-9.464844 11.347656-12.472656 3.234375-1.621094 6.570313-2.699219 10.101563-3.835938l.78125-.253906c1.8125-.589844 3.683593-1.195312 5.480468-1.886719 17.84375-6.796875 32.191406-22.9375 37.457032-42.125.226562-.835937.367187-1.933593.519531-3.09375.21875-1.734375.472656-3.539062.949219-4.851562l1.707031-4.695313 4.207031 2.691406c1.550781.988282 3.308594 2.960938 4.976562 4.945313l.128907.148437c.8125.957032 1.519531 1.78125 2.101562 2.285157 6.992188 6.050781 15.691407 9.378906 24.5 9.378906 1.15625 0 2.320313-.0625 3.460938-.175781 11.394531-1.164063 22.242187-8.382813 28.308593-18.839844l4.75-8.1875 2.558594 9.113281c2.117188 7.527344 5.21875 17.320313 10.484375 26.320313 7.722657 13.214844 19.109375 22.183594 31.242188 24.609375 1.820312.359375 3.773437.617187 5.5.847656 5.496093.714844 11.191406 1.457031 15.0625 5.324219 6.007812 6.007812 3.9375 16.683594-1.679688 22.507812-5.761719 5.964844-14.1875 8.449219-22.4375 10.242188 1.097657 13.980468-3.609375 28.632812-12.933593 40.234375-8.667969 10.792969-21.347657 19.039062-35.699219 23.214843-7.113281 2.070313-14.582031 3.121094-22.195313 3.121094zm5.136719-80.40625c.511719 3.191406 1.5 6.144532 2.933594 8.769532 4.550781 8.386718 14.371093 14.015624 24.445312 14.015624 3.050781 0 6-.519531 8.761719-1.542968 12.136719-4.488282 19.796875-18.433594 17.078125-31.085938-1.777344-8.28125-8.71875-15.9375-18.109375-19.976562-3.957031-1.695313-7.929688-2.558594-11.796875-2.558594-4.261719 0-8.121094 1.039062-11.476563 3.085938-3.664062 2.242187-6.789062 5.871093-9.035156 10.5-1.714844 3.535156-2.78125 7.515624-3.089844 11.511718l-.285156 3.707032.0625-.003907zm-41.132813-32.378906c-3.867187 0-7.835937.859375-11.800781 2.558594-9.386719 4.035156-16.324219 11.691406-18.105469 19.976562-2.71875 12.644532 4.945313 26.59375 17.078126 31.085938 2.765624 1.023437 5.710937 1.542968 8.761718 1.542968 10.074219 0 19.898438-5.628906 24.445313-14.007812 1.429687-2.621094 2.410156-5.554688 2.925781-8.730469l.570312-3.535156-.25-3.574219c-.292968-4.117187-1.339843-8.0625-3.113281-11.734375-2.242187-4.625-5.371093-8.253906-9.039062-10.492187-3.308594-2.023438-7.273438-3.089844-11.472657-3.089844zm28.035157 29.140625c1.488281-.511719 3.046875-.765625 4.628906-.765625 1.480469 0 2.933594.222656 4.324219.664062l.371094-.027343-1.402344-.324219c-1.054688-.242188-2.144532-.363281-3.242188-.363281-1.359375 0-2.707031.1875-4.011718.554687l-.8125.230469zm0 0"/><path d="m169.613281 302.78125c-16.875-.160156-34.113281-6.390625-47.285156-17.097656l-2.667969-2.167969 1.746094-2.964844c5.804688-9.863281 8.605469-21.46875 7.882812-32.683593l-.488281-7.601563 6.535157 3.914063c12.222656 7.320312 27.042968 11.351562 41.738281 11.351562 7.625 0 15.082031-1.050781 22.167969-3.121094 2.820312-.820312 5.582031-1.800781 8.207031-2.90625l6.304687-2.65625-.777344 6.796875c-1.074218 9.398438 1.160157 17.609375 7.042969 25.839844l2.269531 3.179687-3.125 2.347657c-.082031.058593-.164062.117187-.246093.171875-13.480469 11.207031-31.160157 17.597656-48.621094 17.597656zm0 0"/><path d="m35.710938 507.359375c-2.363282 0-4.71875-.003906-7.0625-.019531-2.867188-.011719-5.84375-.171875-7.894532-1.902344-1.992187-1.707031-2.644531-4.402344-3.140625-7.019531-5.34375-27.859375-5.148437-57.335938.558594-85.238281l.808594-3.953126 3.949219.84375c7.003906 1.5 13.800781 2.9375 20.46875 4.347657l1.59375.339843c9.820312 2.082032 19.957031 4.238282 30.613281 6.542969l3.015625.652344 3.214844 71.820313c.113281 2.304687.25 5.171874 1.335937 7.601562l2.5 5.589844-6.121094.046875c-3.824219.027343-7.644531.0625-11.429687.101562l-4.945313.046875c-8.847656.101563-18.269531.199219-27.464843.199219zm0 0"/></g><path d="m264.324219 310.332031 5.351562 2.105469c7.492188 2.945312 13.664063 5.582031 19.433594 8.867188 25.535156 14.539062 43.863281 43.109374 50.289063 78.390624.316406 1.726563.371093 2.875.167968 3.835938l-.390625 1.863281-1.695312.871094c-.679688.351563-1.488281.570313-2.570313.808594l-72.734375 15.765625zm0 0" fill="#f9d889"/><path d="m106.957031 295.355469 8.46875 8.730469c12.4375 12.828124 31.332031 20.484374 50.546875 20.484374 1.210938 0 2.5-.035156 3.832032-.105468 19.398437-1.015625 39.734374-9.460938 57.257812-23.78125l9.976562-8.15625-3.605468 12.371094c-5.605469 19.226562-11.277344 39.738281-13.679688 60.589843l-.613281 5.875-4.390625-.992187c-14.433594-3.253906-29.308594-4.902344-44.214844-4.902344-16.480468 0-32.894531 2.007812-48.796875 5.972656l-4.332031 1.082032zm0 0" fill="#f9d889"/><path d="m73.546875 420.789062c-8.25-1.785156-16.183594-3.46875-23.902344-5.109374l-6.234375-1.328126c-11.199218-2.367187-22.230468-4.707031-34.015625-7.261718-1.527343-.320313-2.140625-.542969-2.628906-.796875l-1.585937-.816407-.449219-1.726562c-.261719-1.003906-.226563-2.21875.117187-4.070312 6.421875-35.265626 24.75-63.835938 50.285156-78.375 3.703126-2.105469 7.929688-4.136719 13.300782-6.394532l5.285156-2.21875 4.902344 109.195313zm0 0" fill="#f9d889"/><path d="m343.398438 398.964844c-6.535157-35.898438-25.113282-65.132813-51.058594-80.472656 6.148437-3.84375 10.84375-10.078126 12.511718-17.132813 1.789063-7.578125.042969-15.886719-4.390624-22.28125 13.28125-5.640625 23.574218-18.273437 25.933593-32.554687 2.292969-13.878907-3.007812-28.691407-13.179687-38.335938 11.09375-5.304688 19.5625-15.824219 21.996094-27.988281 2.933593-14.683594-3.179688-30.542969-15.214844-39.457031-1.050782-.777344-2.132813-1.503907-3.179688-2.207032-3.152344-2.117187-6.132812-4.117187-7.273437-6.859375-1.335938-3.226562-.101563-7.316406 1.203125-11.644531.433594-1.433594.878906-2.914062 1.246094-4.40625 3.09375-12.648438-.722657-26.902344-9.71875-36.316406-7.496094-7.84375-18.542969-12.246094-29.371094-12.035156 1.859375-8.628907.429687-17.964844-4.125-25.554688-5.84375-9.738281-16.386719-16.0625-28.199219-16.917969-1.882813-.136719-3.601563-.183593-5.265625-.226562-6.320312-.171875-10.132812-.277344-14.382812-4.757813-15.34375-16.1875-40.539063-23.316406-64.183594-18.164062-19.855469 4.328125-37.46875 17.371094-47.449219 35.054687-1.398437.199219-3.578125.425781-4.914063.566407-2.5.257812-3.429687.363281-4.078124.515624-4.386719 1.050782-8.722657 2.589844-12.890626 4.570313-8.253906 3.921875-15.761718 9.589844-21.707031 16.390625-11.46875 13.113281-15.839843 33.847656-11.210937 51.101562-13.214844 2.328126-25.195313 11.332032-30.804688 23.570313-5.773437 12.585937-4.554687 28.046875 2.84375 39.707031-10.527344 9.203125-15.082031 24.542969-10.875 38.007813 4.003906 12.800781 15.488282 22.484375 28.554688 24.75-5.648438 14.226562-4.742188 31.097656 2.691406 44.488281 6.433594 11.582031 19.085938 21.402344 32.28125 25.878906-1.027344.402344-2.054688.808594-3.09375 1.214844-7.675781 3.007812-15.617188 6.117188-22.964844 10.300781-26.585937 15.136719-45.640625 44.730469-52.28125 81.191407-.324218 1.773437-1.078125 5.921874 1.617188 9.03125 1.867187 2.15625 4.5 2.726562 6.070312 3.066406 1.910156.414062 3.800782.820312 5.675782 1.226562-5.828126 28.421875-6.046876 58.421875-.585938 86.898438.609375 3.1875 1.511719 6.800781 4.476562 9.328125 3.339844 2.847656 7.664063 2.875 10.523438 2.890625 2.324219.015625 4.65625.023437 6.996094.023437 9.230468 0 18.542968-.101562 27.605468-.199219 11.328126-.125 23.042969-.253906 34.464844-.179687h.027344c.085938 0 .164062-.019531.25-.027344 17.355469.414063 34.777344.625 52.230469.625 32.558593 0 65.195312-.714843 97.53125-2.144531.539062.265625 1.136719.429688 1.773437.429688 11.164063.019531 22.25.535156 32.972656 1.03125 10.808594.5 21.984376 1.019531 33.324219 1.035156h.296875c2.574219 0 6.632813-.097656 9.640625-2.890625 2.867188-2.664063 3.371094-6.335938 3.613281-9.566407 2.1875-28.847656 1.710938-58.03125-1.402343-86.800781l7.757812-1.683593c1.574219-.339844 4.207031-.910157 6.074219-3.0625 2.695312-3.105469 1.9375-7.257813 1.617188-9.027344zm-289.441407-122.503906c-7.105469-12.789063-7.144531-29.339844-.105469-42.160157.691407-1.257812.664063-2.78125-.070312-4.011719-.730469-1.214843-2.042969-1.960937-3.460938-1.960937-.089843 0-.179687 0-.265624 0-11.742188 0-23.191407-8.390625-26.699219-19.597656-3.527344-11.285157 1.1875-24.804688 10.96875-31.449219.925781-.628906 1.546875-1.617188 1.71875-2.722656.167969-1.109375-.132813-2.238282-.828125-3.117188-7.617188-9.59375-9.300782-23.527344-4.195313-34.660156 5.105469-11.136719 16.761719-18.949219 29.003907-19.441406 1.300781-.050782 2.496093-.726563 3.210937-1.816406.714844-1.089844.855469-2.457032.386719-3.667969-5.996094-15.4375-2.566406-35.539063 8.152344-47.796875 5.230468-5.980469 11.832031-10.964844 19.101562-14.417969 3.664062-1.742187 7.46875-3.089844 11.246094-3.996094.375-.074219 1.945312-.234375 3.09375-.355469 7.375-.761718 9.128906-.941406 10.347656-3.238281 8.710938-16.40625 24.75-28.566406 42.902344-32.519531 20.625-4.492188 43.375 1.867188 56.613281 15.832031 6.542969 6.902344 13.085937 7.078125 20.011719 7.269531 1.574218.042969 3.203125.085938 4.90625.210938 9.195312.664062 17.371094 5.53125 21.867187 13.023438 4.371094 7.28125 5.003907 16.652343 1.648438 24.457031-.59375 1.375-.375 2.964843.566406 4.128906.941406 1.160156 2.445313 1.707031 3.914063 1.417969 10.140624-2 21.308593 1.535156 28.453124 9.011718 7.140626 7.46875 10.167969 18.785157 7.710938 28.828126-.3125 1.28125-.707031 2.597656-1.128906 3.992187-1.582032 5.238281-3.375 11.179687-.933594 17.0625 2.074219 4.992187 6.402344 7.898437 10.226562 10.464844 1.015626.679687 1.976563 1.324219 2.871094 1.992187 9.429688 6.980469 14.410156 19.894532 12.109375 31.398438-2.296875 11.503906-11.859375 21.515625-23.246093 24.335937-1.5625.390625-2.746094 1.671875-3.007813 3.261719-.257813 1.589844.453125 3.183594 1.808594 4.050781 11.375 7.257813 17.78125 21.628907 15.582031 34.9375-2.199219 13.3125-12.886719 24.855469-25.988281 28.074219-1.464844.359375-2.605469 1.503906-2.957031 2.972656-.355469 1.464844.140624 3.003906 1.28125 3.992188 5.355468 4.628906 7.859374 12.371094 6.230468 19.261718-1.585937 6.714844-7.042968 12.382813-13.667968 14.285157-5.015626-2.332031-10.15625-4.351563-15.1875-6.324219-11.507813-4.507812-22.378907-8.765625-31.222657-16.285156-14.953125-12.71875-23.351562-24.195313-19.019531-42.082032.027344-.121093.027344-.238281.046875-.355468 7.84375-4.53125 14.730469-10.320313 20.144531-17.0625 9.191406-11.441406 14.183594-25.6875 13.957032-39.578125 7.789062-1.910157 15.484374-4.726563 21.171874-10.628907 8.757813-9.085937 7.910157-21.910156 1.625-28.195312-4.839843-4.835938-11.519531-5.710938-17.410156-6.484375-1.835937-.242187-3.574218-.46875-5.222656-.800781-10.996094-2.199219-21.394531-10.464844-28.53125-22.671875-6.652344-11.378907-10-24.613281-13.234375-37.410157-.464844-1.839843-2.144531-3.105468-4.046875-3.039062-1.894531.0625-3.488281 1.441406-3.828125 3.308594-2.503906 13.824218-14.933594 25.316406-28.90625 26.742187-8.617187.878907-17.921875-2.199219-24.890625-8.230469-.386719-.332031-1.140625-1.222656-1.808594-2.007812-2.871094-3.390625-7.214844-8.515625-12.585937-6.957031-5.160157 1.492187-5.890625 7.210937-6.375 10.996093-.121094.964844-.25 1.960938-.40625 2.53125-4.925781 17.964844-18.328125 33.0625-34.972657 39.402344-1.910156.730469-3.855468 1.355469-5.914062 2.019532-3.578125 1.148437-7.277344 2.339843-10.828125 4.117187-7.183594 3.59375-11.972656 8.972656-13.484375 15.144531-2.132812 8.722656 2.722656 18.488282 11.546875 23.214844 6.949219 3.726562 14.679687 3.855469 20.894531 2.960938 4.582032 17.667968 15.195313 33.832031 29.472656 45.242187 3.761719 18.027344-2.957031 37.878906-17.003906 49.824219-4.582031 3.898437-9.714844 6.917968-15.191406 9.550781-14.539062-.832031-30.9375-11.253906-38.167969-24.273437zm161.828125 88.5625c-.054687.476562-.105468.960937-.15625 1.445312-31.171875-7.027344-63.859375-6.640625-94.855468 1.09375l-8.21875-60.691406c13.152343 13.566406 32.898437 21.695312 53.417968 21.695312 1.34375 0 2.695313-.035156 4.042969-.105468 20.425781-1.070313 41.355469-9.792969 59.582031-24.679688-5.800781 19.863281-11.40625 40.304688-13.8125 61.242188zm-120.28125-208.832032c19-7.238281 34.28125-24.40625 39.878906-44.804687.304688-1.113281.460938-2.339844.625-3.640625.144532-1.113282.382813-3.007813.746094-3.996094 1.21875.78125 3.164063 3.078125 4.066406 4.144531.980469 1.15625 1.824219 2.15625 2.683594 2.894531 8.746094 7.566407 20.035156 11.269532 30.984375 10.15625 12.949219-1.320312 24.832031-9.578124 31.359375-20.8125 2.628906 9.355469 5.847656 18.652344 10.878906 27.257813 8.296876 14.195313 20.65625 23.855469 33.910157 26.511719 1.914062.382812 3.867187.640625 5.757812.886718 5.066407.664063 9.855469 1.292969 12.757813 4.195313 4.242187 4.238281 2.585937 12.414063-1.730469 16.894531-5.003906 5.191406-12.765625 7.449219-20.410156 9.109375-1.96875.429688-3.320313 2.25-3.160157 4.261719 1.035157 12.941406-3.351562 26.566406-12.039062 37.382812-8.15625 10.152344-20.125 17.925782-33.703125 21.882813-20.113281 5.859375-42.839844 2.914063-60.796875-7.882813-2.179688-1.3125-4.292969-2.746093-6.328125-4.28125-.351563-.417968-.78125-.753906-1.265625-.996093-14.050781-11.078125-24.246094-27.230469-27.875-44.722657-.21875-1.058593-.855469-1.988281-1.765625-2.574218-.65625-.421875-1.414063-.640625-2.179687-.640625-.300782 0-.597657.035156-.894532.101562-5.285156 1.199219-12.917968 1.917969-19.242187-1.46875-4.777344-2.5625-8.898438-8.570312-7.519531-14.195312.921874-3.78125 4.296874-7.371094 9.257812-9.851563 3-1.5 6.25-2.546875 9.6875-3.652344 2.066406-.667968 4.207031-1.355468 6.316406-2.160156zm37.773438 91.421875c13.09375 7.839844 28.46875 11.914063 43.796875 11.914063 7.882812 0 15.753906-1.078125 23.292969-3.273438 2.949218-.859375 5.832031-1.886718 8.632812-3.0625-1.300781 11.449219 2.09375 20.679688 7.765625 28.617188-.082031.058594-.171875.101562-.25.171875-12.921875 10.832031-29.996094 16.957031-46.863281 16.800781-16.101563-.144531-32.292969-6.03125-44.800782-16.199219 6.171876-10.480469 9.207032-22.839843 8.425782-34.96875zm-12.996094 41.652344c13.835938 11.042969 31.617188 17.417969 49.296875 17.578125.230469 0 .460937.003906.6875.003906 18.527344 0 37.234375-6.792968 51.429687-18.691406.054688-.046875.097657-.101562.148438-.152344 2.023438 2.191406 4.1875 4.292969 6.433594 6.320313-17.765625 15.769531-38.550782 25.03125-58.679688 26.085937-22.171875 1.160156-43.742187-8.335937-55.660156-24.316406 2.304688-2.101562 4.417969-4.390625 6.34375-6.828125zm103.515625 76.679687c2.480469-21.589843 8.550781-42.933593 14.632813-63.636718 6.84375 4.457031 14.339843 7.722656 21.824218 10.710937-.015625.136719-.046875.265625-.046875.40625l-1.699219 88.621094c-5.796874-.171875-11.824218-.59375-17.480468-2.339844-6.4375-1.988281-11.542969-5.585937-14.367188-10.132812-4.152344-6.671875-3.777344-15.6875-2.863281-23.628907zm-119.839844-62.464843 9.136719 67.445312c.941406 6.96875 1.503906 13.121094-1.1875 17.839844-2.726562 4.78125-8.46875 7.449219-14.617188 9.984375-5.359374 2.207031-10.953124 4.203125-15.523437 2.625l-3.828125-85.4375c-.007812-.171875-.046875-.335938-.074219-.503906.390625-.152344.78125-.308594 1.171875-.460938 8.425782-3.296875 17.050782-6.683594 24.921875-11.492187zm-95.359375 99.257812c-.050781-.226562-.09375-.820312.183594-2.332031 6.210938-34.109375 23.828125-61.675781 48.335938-75.628906 4.070312-2.320313 8.4375-4.320313 12.867187-6.171875l4.40625 98.269531c-10.484375-2.261719-20.46875-4.378906-30.148437-6.433594-10.867188-2.300781-22.097657-4.683594-34-7.261718-.378907-.082032-1.351563-.292969-1.644532-.441407zm54.542969 100.425781c-11.328125.125-23.042969.25-34.464844.179688-2.144531-.015625-4.328125-.101562-5.34375-.96875-.976562-.832031-1.4375-2.867188-1.789062-4.710938-5.257813-27.421874-5.054688-56.3125.550781-83.6875 7.007812 1.496094 13.8125 2.941407 20.472656 4.351563 10.3125 2.1875 20.964844 4.445313 32.199219 6.875l3.082031 68.75c.109375 2.5.273438 5.921875 1.675782 9.054687-5.503907.039063-10.988282.097657-16.382813.15625zm32.597656-.253906c-3.21875-.082031-6.488281-.296875-8.058593-1.953125-1.402344-1.484375-1.640626-4.332031-1.777344-7.363281l-3.757813-83.84375c1.054688.171875 2.113281.265625 3.167969.265625 5.210938 0 10.386719-1.890625 15.046875-3.8125 7.199219-2.964844 14.5625-6.449219 18.550781-13.445313 3.101563-5.4375 3.304688-11.640624 2.847656-17.128906 30.40625-7.753906 62.546876-8.144531 93.125-1.074218.089844.019531.175782.019531.265626.035156-.03125 6.613281 1.007812 13.363281 4.664062 19.242187 3.851562 6.195313 10.542969 11.019531 18.835938 13.578125 6.59375 2.035156 13.519531 2.515625 19.707031 2.699219l-1.542969 80.570313c-.066406 3.566406-.3125 7.511718-2.394531 9.214843-1.488281 1.214844-4.023438 1.421875-6.9375 1.550781-50.332031 2.222657-101.382813 2.714844-151.742188 1.464844zm225.574219-3.976562c-.09375 1.230468-.265625 3.527344-1.0625 4.265625-.796875.742187-3.160156.746093-4.4375.738281-11.160156-.019531-22.246094-.53125-32.964844-1.03125-6.582031-.304688-13.3125-.601562-20.125-.800781 2-3.902344 2.09375-8.464844 2.148438-11.273438l1.238281-64.6875 53.914063-11.6875c2.980468 28.003907 3.417968 56.402344 1.289062 84.476563zm14.335938-96.21875c-.367188.1875-1.28125.386718-1.648438.464844l-67.730469 14.679687 1.949219-101.703125c6.453125 2.546875 12.988281 5.25 18.910156 8.621094 24.507813 13.953125 42.125 41.519531 48.335938 75.628906.265625 1.460938.238281 2.066406.183594 2.308594zm0 0"/><path d="m126.820312 200.0625c3.269532 1.210938 6.707032 1.785156 10.152344 1.785156 11.246094 0 22.535156-6.105468 27.964844-16.097656 1.675781-3.082031 2.785156-6.476562 3.355469-10 .25.046875.503906.078125.761719.078125.429687 0 .867187-.066406 1.296874-.214844 2.082032-.707031 4.378907-.734375 6.476563-.078125.464844.148438.9375.191406 1.394531.167969.570313 3.539063 1.683594 6.949219 3.367188 10.046875 5.425781 9.992188 16.71875 16.097656 27.960937 16.097656 3.445313 0 6.886719-.574218 10.152344-1.785156 13.925781-5.15625 22.71875-21.167969 19.59375-35.6875-2.046875-9.53125-9.878906-18.269531-20.433594-22.800781-9.570312-4.109375-19.390625-3.824219-26.9375.785156-4.320312 2.636719-7.96875 6.847656-10.550781 12.167969-1.992188 4.105468-3.140625 8.527344-3.480469 12.953125-3.039062-.699219-6.246093-.613281-9.246093.238281-.316407-4.503906-1.472657-9.011719-3.496094-13.1875-2.582032-5.324219-6.234375-9.53125-10.554688-12.171875-7.546875-4.605469-17.363281-4.890625-26.933594-.785156-10.558593 4.53125-18.386718 13.269531-20.4375 22.800781-3.121093 14.519531 5.667969 30.53125 19.59375 35.6875zm61.804688-42.011719c1.332031-2.742187 3.710938-6.496093 7.503906-8.808593 2.714844-1.660157 5.917969-2.492188 9.359375-2.492188 3.253907 0 6.722657.742188 10.191407 2.234375 8.070312 3.464844 14.246093 10.171875 15.734374 17.085937 2.273438 10.574219-4.371093 22.675782-14.511718 26.433594-10.140625 3.757813-23.066406-1.097656-28.230469-10.601562-3.785156-6.96875-3.804687-16.109375-.046875-23.851563zm-73.515625 8.019531c1.484375-6.914062 7.660156-13.621093 15.734375-17.085937 3.46875-1.492187 6.9375-2.234375 10.191406-2.234375 3.441406 0 6.644532.832031 9.359375 2.488281 3.792969 2.316407 6.171875 6.070313 7.503907 8.808594 3.757812 7.746094 3.738281 16.886719-.046876 23.855469-5.164062 9.5-18.089843 14.355468-28.230468 10.601562-10.140625-3.757812-16.785156-15.859375-14.511719-26.433594zm0 0"/></svg>