<svg height="512pt" viewBox="-83 0 512 512.00144" width="512pt" xmlns="http://www.w3.org/2000/svg"><path d="m207.085938 288.910156-.015626-.03125-.003906-.980468v-1.609376l1.113282-1.164062c7.621093-7.917969 14.480468-16.394531 20.394531-25.195312l1.917969-2.855469 3.109374 1.46875c12.472657 5.878906 24.238282 13.140625 34.964844 21.570312 11.917969 9.355469 17.3125 18.960938 15.59375 27.769531-1.761718 9.027344-10.773437 14.925782-18.617187 17.4375-4.207031 1.347657-8.4375 2.097657-12.914063 2.894532l-.125.023437c-4.335937.773438-8.824218 1.574219-13.109375 2.949219-3.375 1.082031-5.226562 2.425781-5.996093 4.351562-.964844 2.390626.046874 4.898438 1.476562 7.925782l.160156.339844c5.347656 11.453124 5.996094 24.835937 1.78125 36.722656-3.945312 11.121094-12.175781 20.742187-22.582031 26.394531l-5.835937 3.171875zm0 0" fill="#bc88e5"/><path d="m125.058594 399.230469c-10.984375-8.167969-20.867188-17.671875-29.371094-28.257813-10.796875-13.398437-8.445312-21.542968-6.082031-25.203125.707031-1.09375 1.589843-2.085937 2.585937-3.175781 1.679688-1.859375 3.277344-3.625 3.734375-6.027344.933594-4.941406-3.792969-9.167968-8.890625-11.164062-2.621094-1.027344-5.398437-1.765625-8.082031-2.472656l-.351563-.09375c-3.445312-.902344-6.699218-1.753907-9.867187-3.164063-.429687-.203125-.804687-.382813-1.179687-.578125l-.679688-.347656-.503906-.578125-.714844-.171875-.597656-.394532c-4.800782-3.28125-7.523438-7.714843-7.472656-12.167968.082031-6.027344 4.929687-10.914063 9.664062-14.894532 12.367188-10.386718 25.824219-19.675781 40-27.621093l2.925781-1.640625 2.125 2.597656c5.519531 6.75 11.746094 13.21875 18.503907 19.234375l1.351562 1.203125-.761719 119.625zm0 0" fill="#bc88e5"/><path d="m323.601562 504.902344c-.445312 0-.894531-.007813-1.355468-.015625-10.886719-.171875-22.835938-.324219-37.601563-.476563l-3.675781-.039062-.273438-3.667969c-2.484374-33.585937-1.128906-67.4375 4.027344-100.609375-5.1875 32.945312-6.558594 66.578125-4.136718 99.945312l.3125 4.328126-4.335938-.039063c-5.929688-.050781-11.722656-.101563-17.46875-.160156-17.839844-.152344-35.300781-.3125-52.753906-.558594l-6.972656-.097656 3.605468-5.972657c1.683594-2.785156 2.421875-6.359374 2.921875-9.492187 3.136719-19.554687 2.921875-39.664063 2.710938-59.113281l-.234375-20.890625 3.972656-.074219c11.351562-5.5 20.300781-15.496094 24.53125-27.417969 4.222656-11.921875 3.574219-25.324219-1.78125-36.765625l-.175781-.382812c-1.15625-2.441406-2.488281-5.261719-1.46875-7.820313.980469-2.484375 3.875-3.664062 5.96875-4.332031 4.214843-1.355469 8.464843-2.117188 12.960937-2.921875l.144532-.027344c4.3125-.765625 8.765624-1.554687 13.035156-2.921875 6.046875-1.929687 11.03125-5.042968 14.417968-9.007812l2.402344-2.8125 2.992188 2.175781c17.453125 12.703125 41.351562 30.097656 51.453125 55.035156 8.230469 20.328125 6.5625 43.011719 5.09375 63.023438-1.371094 18.574219-2.839844 37.457031-4.375 56.125-.390625 4.785156-1.132813 10.117187-4.945313 12.886719-2.644531 1.933593-6.03125 2.097656-8.996094 2.097656zm0 0" fill="#985bbc"/><path d="m32.699219 507.933594c-6.738281 0-15.207031-.695313-20.925781-6.121094-5.828126-5.523438-7.046876-14.203125-7.460938-21.144531-.941406-15.648438 1.011719-31.496094 2.898438-46.820313l.011718-.109375c.988282-8.027343 2.109375-17.128906 2.699219-25.878906.195313-2.738281.335937-5.542969.472656-8.257813l.035157-.667968c.710937-14.289063 1.445312-29.046875 7.953124-41.785156 9.039063-17.699219 26.855469-27.984376 45.867188-37.804688l1.777344-.917969 2.136718 1.039063c.160157.078125.320313.164062.496094.238281 3.261719 1.460937 6.652344 2.339844 9.929688 3.195313l.191406.046874c2.859375.753907 5.5625 1.464844 8.242188 2.523438 5.0625 1.980469 9.765624 6.179688 8.84375 11.089844-.457032 2.386718-2.125 4.226562-3.738282 6.007812-.863281.949219-1.839844 2.027344-2.589844 3.183594-5.503906 8.542969 1.460938 19.5 6.101563 25.269531 9.445313 11.75 20.492187 22.105469 32.832031 30.777344l2.921875.832031-.011719 3.042969-.46875 74.902344c-.035156 6.195312.21875 12.625 3.695313 17.160156l4.695313 6.128906-84.480469 3.292969.539062-4.640625c3.796875-32.820313 4-66.097656.601563-98.90625 3.378906 33.269531 3.125 66.964844-.816406 100.160156l-.402344 3.390625-16.785156.652344c-2.121094.085938-3.746094.121094-5.261719.121094zm0 0" fill="#985bbc"/><path d="m154.050781 504.117188c-7.054687 0-14.195312-.671876-18.636719-5.527344-4.179687-4.558594-4.484374-11.121094-4.441406-18.015625l.890625-140.5 6.167969 4.105469c7.886719 5.246093 15.828125 10.386718 23.609375 15.273437 2.941406 1.84375 6.230469 3.910156 9.945313 4.4375.609374.085937 1.242187.128906 1.949218.128906 4.550782 0 9.453125-2.199219 14.988282-6.726562.953124-.777344 1.894531-1.574219 2.824218-2.378907 3.328125-2.84375 6.75-5.769531 10.71875-7.539062l5.5625-2.480469.90625 83.992188c.210938 19.492187.429688 39.605469-2.703125 59.15625-.675781 4.238281-1.679687 9.019531-5.03125 12.082031-3.671875 3.367188-9 3.6875-14.59375 3.734375l-30.851562.25c-.429688.003906-.867188.007813-1.304688.007813zm0 0" fill="#ffbf48"/><path d="m248.9375 116.972656c-8.589844-3.222656-16.035156-9.617187-20.433594-17.542968-4.972656-8.953126-6.183594-20.160157-3.242187-29.96875-7.960938 20.953124-29.457031 35.6875-52.335938 35.808593l-8.472656.046875 5.347656-6.570312c7.824219-9.613282 14.144531-20.808594 18.277344-32.378906-16.1875 12.949218-34.042969 23.507812-53.113281 31.34375l-11.730469 4.820312 6.839844-10.679688c4.136719-6.457031 7.359375-13.386718 9.574219-20.605468-15.117188 13.472656-34.421876 23.070312-54.40625 26.988281l-4.835938.949219.066406-4.929688c.453125-33.152344 20.398438-65.503906 49.632813-80.503906 12.378906-6.335938 26.59375-9.6875 41.117187-9.6875 1.542969 0 3.105469.039062 4.652344.113281 28.59375 1.363281 52.363281 14.660157 66.925781 37.441407 7.175781 11.226562 11.828125 24.253906 13.460938 37.679687.414062 3.882813-.328125 26.683594-2.003907 34.746094l-.949218 4.574219zm0 0" fill="#644c4c"/><path d="m174.410156 311.199219c-3.070312 0-5.992187-1.554688-8.71875-3.144531-30.332031-17.660157-52.921875-39.269532-67.140625-64.222657-14.972656-26.277343-19.816406-56.554687-13.289062-83.066406l1.890625-7.683594 5.066406 6.078125c1.53125 1.839844 3.0625 3.667969 4.578125 5.476563l1.675781 1.996093c7.507813 8.929688 15.277344 18.171876 22.230469 27.839844 1.019531 1.429688 2.140625 2.851563 3.339844 4.234375l2.828125 3.257813-3.589844 2.671875-.085938.054687c-.132812.09375-.289062.195313-.449218.292969l-.125.082031c-.195313.128906-.398438.261719-.597656.386719-.128907.082031-.265626.164063-.402344.242187-.246094.15625-.96875.597657-1.078125.660157-.339844.203125-.738281.429687-1.136719.648437l-.183594.097656c-.367187.203126-.683594.363282-1 .519532-.121094.066406-.25.132812-.378906.195312-.292969.148438-1.042969.507813-1.042969.507813l-.230469.101562c-.359374.167969-.722656.324219-1.082031.476563l-.523437.207031c-.355469.140625-.703125.277344-1.046875.398437l-.183594.0625-.265625.09375-1.007812.328126-.113282.03125-.144531.050781-.164063.042969c-.441406.121093-.886718.242187-1.335937.351562l-.316406.0625c-.328125.074219-.707031.148438-1.097657.21875-.214843.042969-.421874.078125-.632812.101562-.3125.046876-.628906.089844-.9375.121094-.183594.023438-.363281.042969-.550781.058594-.449219.042969-.960938.078125-1.476563.089844 8.054688 5.875 14.980469 9.726562 21.78125 12.1875.597656.207031 1.238282.429687 1.878906.636718.117188.035157.550782.167969.550782.167969.519531.15625.992187.296875 1.472656.429688l.667969.191406c.511719.136719 1.089843.28125 1.664062.410156l.226563.054688c.625.144531 1.238281.261719 1.859375.382812.160156.03125.316406.058594.46875.082031l.125.019532c.4375.082031.875.152344 1.3125.214844l.640625.089843c.503906.066407 1.015625.128907 1.519531.183594.132813.007813.265625.023437.398437.042969.601563.050781 1.195313.085937 1.789063.121094 0 0 .425781.011718.5625.019531.386719.015625.8125.023437 1.234375.023437.109375 0 .222656.003906.335938.007813l.070312-.007813h.226562c.519532 0 1.039063-.007812 1.550782-.035156l.265625-.011719c.59375-.027343 1.179687-.070312 1.757812-.125l.523438-.054687 1.347656-.171875.496094-.078125c.441406-.070313.921875-.15625 1.402343-.25l.375-.125h.179688c.753906-.164063 1.429688-.332032 2.070312-.515625.207032-.054688.355469-.105469.507813-.15625l.355469-.113281c.484375-.152344.972656-.304688 1.453125-.476563.148437-.054687.320312-.128906.488281-.195313.171875-.070312.933594-.378906.933594-.378906.265625-.105468.527344-.210937.785156-.328125.265625-.117187.53125-.25.804688-.382812l.566406-.277344c.222656-.109375.445312-.214844.660156-.335937l.144531-.078126c.253907-.128906.5-.277343.742188-.421874 0 0 .535156-.320313.707031-.421876.167969-.097656.335938-.195312.503906-.300781.316406-.207031.671875-.453125 1.03125-.703125.289063-.199218.5625-.386718.835938-.589844.292968-.214843.539062-.417968.789062-.625l.503906-.410156c.148438-.121094.300782-.246094.445313-.375.320313-.28125.609375-.550781.898437-.820312.132813-.132813.269532-.257813.40625-.382813l.148438-.136719.984375-.976562 1.390625-.167969 1.058594-.109375 1.917968-.21875 1.367188 1.363282c.109375.109374.234375.21875.351562.324218l.289063.261719.25.238281c.179687.175782.355469.351563.550781.519532.3125.277343.613282.515624.917969.757812l.390625.316406c.15625.128906.308594.257813.472656.382813.207032.15625.402344.289062.59375.421875.152344.105468 1.378906.949218 1.378906.949218.148438.09375.386719.230469.625.371094l.671876.394532c.21875.128906.4375.261718.667968.382812.226563.125.453125.234375.679688.347656.167968.082032.867187.421875 1.046875.511719.136719.066406.273437.136719.414062.199219.324219.148437.648438.273437.976563.40625 0 0 .617187.242187.789062.3125.132813.054687.265625.113281.398438.160156.453125.167969.84375.289062 1.234375.410156 0 0 .59375.1875.734375.234375.101562.035157.203125.074219.308594.101563.84375.242187 1.644531.441406 2.457031.613281 1.445312.296875 2.949219.511719 4.445312.636719 1.128907.09375 2.277344.144531 3.433594.144531 5.425781 0 11.054687-1.039063 16.726563-3.082031 6.761718-2.441406 13.691406-6.296875 21.800781-12.132813-.539063-.066406-1.0625-.101562-1.582031-.148437-.042969-.003906-.410157-.039063-.410157-.039063l-.4375-.058593c-.226562-.027344-.457031-.054688-.683593-.09375-.101563-.011719-.425782-.0625-.425782-.0625l-1.238281-.253907-.289063-.066406c-.515624-.117187-.980468-.242187-1.429687-.371094l-.359375-.089843-.09375-.046876c-.363281-.109374-.722656-.230468-1.082031-.359374-.085938-.03125-.683594-.25-.683594-.25-.246094-.09375-.484375-.183594-.734375-.285157l-.554688-.226562c-.261718-.113281-.859374-.375-.859374-.375s-.269532-.128907-.34375-.164063c-.304688-.136718-.605469-.285156-.90625-.429687l-.457032-.222657-.023437-.011718c-.394531-.203125-.78125-.410156-1.167969-.632813l-.265625-.144531-.351563-.199219c-.191406-.105469-.378906-.210937-.5625-.320312l-.285156-.171875c-.355468-.210938-.617187-.375-.878906-.539063l-.363281-.230469c-.269531-.167968-.546875-.347656-.820313-.53125l-.074218-.035156-6.308594-4.355468 5.476562-3.164063c4.585938-2.648437 8.277344-4.992187 11.371094-7.824219 1.089844-1.011718 2.21875-2.027344 3.355469-3.042968l.199219-.179688c2.976562-2.691406 6.058593-5.472656 8.863281-8.390625 1.660156-1.746094 3.316406-3.636719 4.898437-5.597656l6.9375-8.597657.175782 11.042969c.375 23.359375-5.554688 47.371094-17.148438 69.445313-2.035156 3.882812-4.347656 7.875-6.871094 11.859375l-.339844.539062-.472656.386719-.152344.589844-.359374.542968c-11.789063 18.03125-27.386719 34.53125-46.367188 49.039063-2.578125 1.980469-5.152344 3.777344-8.183594 4.058594-.269531.019531-.523437.03125-.78125.03125zm0 0" fill="#644c4c"/><path d="m144.191406 226.328125c-5.410156 0-11.027344-1.039063-16.695312-3.085937-4.371094-1.570313-8.847656-3.761719-13.691406-6.703126l-7.007813-4.261718 7.671875-2.898438c5.058594-1.914062 9.5-5.035156 12.457031-7.28125l.980469-.976562.019531-.015625.28125-.003907c1.351563-1.050781 2.691407-2.140624 3.996094-3.195312 4.773437-3.890625 9.285156-7.570312 14.671875-10.167969 3.992188-1.929687 9.347656-3.128906 13.96875-3.128906 4.523438 0 8.128906 1.074219 10.714844 3.195313 2.625-2.121094 6.234375-3.195313 10.761718-3.195313 4.617188 0 9.960938 1.195313 13.949219 3.117187 5.355469 2.59375 9.855469 6.25 14.613281 10.117188 1.066407.867188 2.066407 1.683594 3.0625 2.476562l.128907.101563c.5625.445313 1.125.886719 1.6875 1.324219 3.007812 2.316406 7.625 5.632812 12.914062 7.632812l7.664063 2.890625-6.992188 4.265625c-4.796875 2.925782-9.273437 5.121094-13.6875 6.707032-4.585937 1.652343-9.210937 2.648437-13.753906 2.957031-1.042969.070312-2.082031.105469-3.085938.105469-2.710937 0-5.320312-.257813-7.757812-.769532-6.960938-1.449218-13.160156-5.003906-17.453125-10.011718-.746094-.867188-1.429687-1.761719-2.015625-2.65625-.800781 1.140624-1.632812 2.207031-2.519531 3.171874-4.226563 4.710938-10.277344 8.09375-17.003907 9.496094-2.515624.527344-5.164062.792969-7.878906.792969zm0 0" fill="#644c4c"/><path d="m211.488281 171.921875c-7.960937 0-15.765625-2.800781-21.410156-7.6875-5.492187-4.757813-11.210937-14.316406-10.992187-22.660156.109374-4.367188 1.820312-7.875 5.082031-10.410157 4.597656-3.578124 11.535156-5.246093 21.828125-5.246093 4.621094 0 9.261718.316406 13.359375.589843l.203125.015626c3.550781.238281 6.902344.46875 9.757812.476562 4.804688 0 9.609375.46875 12.140625 3.875 1.070313 1.453125 1.652344 3.300781 1.890625 6 1.152344 12.566406-6.160156 25.886719-17.394531 31.664062-4.3125 2.210938-9.316406 3.382813-14.464844 3.382813zm0 0" fill="#5b5d6d"/><path d="m133.324219 171.921875c-5.152344 0-10.15625-1.171875-14.464844-3.382813-11.234375-5.777343-18.550781-19.097656-17.398437-31.675781.15625-1.671875.515624-4.113281 1.878906-5.96875 2.542968-3.425781 7.347656-3.894531 12.164062-3.894531 2.84375-.007812 6.195313-.238281 9.746094-.476562l.203125-.015626c4.144531-.277343 8.8125-.59375 13.347656-.59375 10.292969 0 17.230469 1.667969 21.835938 5.246094 3.265625 2.539063 4.976562 6.046875 5.085937 10.417969.21875 8.339844-5.5 17.898437-10.988281 22.65625-5.648437 4.886719-13.453125 7.6875-21.410156 7.6875zm0 0" fill="#5b5d6d"/><g fill="#ffdac4"><path d="m254.941406 184.117188c.398438-7.125.222656-14.171876-.523437-20.949219l-.625-1.148438.148437-1.351562c.644532-4.820313 1.082032-9.542969 1.296875-14.03125l.21875-4.574219 4.503907.835938c5.539062 1.023437 9.75 4.679687 13.25 11.503906 3.386718 6.640625 3.28125 15.003906-.265626 21.839844-2.570312 4.980468-6.933593 9.136718-12.28125 11.703124l-6.101562 2.929688zm0 0"/><path d="m124.519531 199.128906c-1.421875-1.59375-2.65625-3.128906-3.773437-4.699218-6.890625-9.597657-14.691406-18.875-22.234375-27.847657l-.074219-.089843c-3.429688-4.085938-6.980469-8.316407-10.394531-12.519532l-.824219-1.015625-.066406-1.304687c-.859375-16.890625.273437-33.847656 3.359375-50.398438l-.949219-3.796875 3.761719-1.066406c12.304687-3.359375 23.914062-8.710937 34.503906-15.898437l5.785156 5.175781c-3.253906 6.160156-7.246093 11.871093-11.871093 16.976562 19.328124-6.441406 37.53125-15.597656 54.152343-27.148437l5.816407 5.15625c-4.640626 8.773437-10.414063 16.847656-17.15625 23.992187 2.613281.476563 5.292968.6875 7.980468.6875 16.613282 0 33.609375-8.203125 44.359375-21.40625l5.824219-7.152343 1.242188 9.140624c.652343 4.789063 2.164062 9.347657 4.492187 13.546876 4.921875 8.875 13.351563 15.601562 23.132813 18.449218l2.578124.753906.28125 2.667969c1.488282 14.210938 1.152344 28.503907-.996093 42.480469-.003907.058594-.003907 1.5-.003907 1.5l-.796874 1.066406c-.722657.960938-1.570313 1.964844-2.132813 2.628906l-.207031.246094c-.480469.554688-.84375 1-1.066406 1.285156-1.902344 2.488282-4 4.945313-6.214844 7.273438-2.867188 2.992188-6.023438 5.832031-9.074219 8.578125l-.859375.777344c-.835938.75-1.671875 1.503906-2.488281 2.257812-3.894531 3.574219-8.898438 6.425781-13.738281 9.183594-.183594.105469-.402344.234375-.625.355469l-2.285157 1.207031-2.042969-1.582031c-.167968-.132813-.914062-.726563-.914062-.726563-4.628906-3.769531-9.335938-7.597656-14.699219-10.195312-4.371093-2.109375-8.820312-3.179688-13.210937-3.179688-4.863282 0-8.160156 1.316407-9.691406 2.101563l-1.820313.929687-1.824219-.929687c-1.53125-.785156-4.820312-2.097656-9.671875-2.097656-4.394531 0-8.84375 1.070312-13.226562 3.1875-5.414063 2.609374-10.128907 6.453124-14.691407 10.167968-.707031.578125-1.433593 1.164063-2.152343 1.738282l-2.960938 2.382812zm54.75-54.054687c1.175781 7.820312 6.40625 15.4375 10.769531 19.210937 5.683594 4.914063 13.476563 7.734375 21.382813 7.734375 5.15625 0 10.191406-1.1875 14.554687-3.429687 11.441407-5.871094 18.609376-18.917969 17.433594-31.726563-.15625-1.695312-.523437-4.164062-1.898437-6.019531-2.886719-3.890625-8.9375-3.90625-12.1875-3.914062-2.878907 0-6.25-.226563-9.816407-.46875l-.144531-.011719c-4.117187-.277344-8.777343-.597657-13.292969-.597657-10.347656 0-17.320312 1.675782-21.945312 5.265626-2.441406 1.898437-4.027344 4.378906-4.714844 7.367187l-.675781 2.945313-12.585937.636718-.707032-3.335937c-.660156-3.109375-2.265625-5.671875-4.761718-7.613281-4.625-3.589844-11.59375-5.265626-21.941407-5.265626-4.515625 0-9.179687.320313-13.292969.597657l-.144531.011719c-3.566406.242187-6.9375.46875-9.808593.46875-3.261719.007812-9.316407.023437-12.195313 3.910156-1.378906 1.859375-1.746094 4.328125-1.898437 6.027344-1.175782 12.804687 5.992187 25.851562 17.429687 31.722656 4.367187 2.242187 9.398437 3.429687 14.554687 3.429687 7.910157 0 15.703126-2.820312 21.378907-7.742187 4.292969-3.710938 9.480469-11.222656 10.730469-18.945313l.519531-3.191406 12.71875-.652344zm0 0"/><path d="m168.585938 336.5c-2.296876 0-4.464844-1.070312-6.484376-2.164062-10.390624-5.578126-20.078124-12.535157-28.777343-20.664063l-1.28125-1.195313.171875-27.898437 6.445312 5.144531c8.203125 6.546875 17.285156 12.730469 26.996094 18.378906 2.613281 1.53125 5.648438 3.15625 8.726562 3.15625.289063 0 .574219-.015624.863282-.039062 3.011718-.277344 5.582031-2.078125 8.164062-4.054688 6.007813-4.597656 11.710938-9.414062 16.953125-14.316406l6.632813-6.203125.285156 26.554688s-2.449219 1.117187-2.492188 1.140625l-28.417968 18.929687c-2.015625 1.351563-4.789063 3.214844-7.742188 3.230469zm0 0"/><path d="m76.964844 182.226562c-8.828125-3.855468-14.53125-14.242187-12.988282-23.652343 1.464844-8.890625 9.117188-16.472657 18.1875-18.035157l4.601563-.792968.078125 4.664062c.058594 3.28125.15625 6.136719.304688 8.730469l.042968.746094-.230468.710937c-2.453126 7.601563-3.933594 15.738282-4.402344 24.183594l-.316406 5.75zm0 0"/></g><path d="m173.523438 363.957031c-.652344 0-1.304688-.046875-1.9375-.136719-3.714844-.519531-7.152344-2.6875-9.914063-4.429687-9.257813-5.8125-18.6875-11.949219-28.023437-18.234375l-1.777344-1.195312.164062-27.0625 6.527344 5.503906c7.289062 6.148437 15.199219 11.527344 23.511719 15.992187 2.03125 1.097657 4.199219 2.164063 6.507812 2.164063 2.984375-.011719 5.664063-1.796875 7.8125-3.230469l30.875-20.5625.375 33.792969-3.941406.101562c-4.699219 1.621094-8.605469 4.960938-12.382813 8.1875-.9375.808594-1.882812 1.617188-2.835937 2.398438-5.53125 4.515625-10.421875 6.710937-14.960937 6.710937zm0 0" fill="#f9d889"/><path d="m117 172.144531c5.070312 2.605469 10.722656 3.871094 16.378906 3.871094 8.6875 0 17.390625-2.988281 24.007813-8.710937 5.378906-4.65625 10.703125-12.996094 12.0625-21.332032l5.863281-.300781c1.273438 8.4375 6.664062 16.921875 12.109375 21.632813 6.617187 5.726562 15.316406 8.710937 24.007813 8.710937 5.65625 0 11.3125-1.265625 16.378906-3.871094 12.851562-6.601562 20.90625-21.257812 19.585937-35.648437-.199219-2.167969-.691406-5.363282-2.675781-8.039063-4.082031-5.507812-11.726562-5.519531-15.402344-5.527343-2.773437-.003907-6.132812-.230469-9.683594-.46875-12.660156-.859376-28.414062-1.925782-37.960937 5.5-3.183594 2.472656-5.269531 5.757812-6.160156 9.628906l-6.15625.3125c-.851563-4-2.949219-7.402344-6.21875-9.945313-9.550781-7.421875-25.300781-6.355469-37.960938-5.5-3.554687.242188-6.910156.46875-9.683593.472657-3.675782.007812-11.324219.019531-15.40625 5.527343-1.980469 2.675781-2.472657 5.867188-2.671876 8.039063-1.320312 14.390625 6.734376 29.046875 19.585938 35.648437zm69.621094-37.820312c4.503906-3.5 11.777344-4.40625 19.375-4.40625 4.414062 0 8.9375.304687 13.089844.585937 3.691406.25 7.175781.488282 10.21875.492188 3.777343.003906 7.472656.285156 8.9375 2.261718.589843.796876.949218 2.0625 1.125 3.976563 1.007812 11.019531-5.402344 22.6875-15.242188 27.742187-9.84375 5.054688-23.058594 3.472657-31.429688-3.769531-4.863281-4.210937-9.789062-12.664062-9.609374-19.527343.082031-3.164063 1.238281-5.570313 3.535156-7.355469zm-81.179688 2.910156c.109375-1.207031.347656-2.929687 1.125-3.976563 1.464844-1.980468 5.160156-2.257812 8.9375-2.261718 3.039063-.007813 6.527344-.242188 10.214844-.492188 11.292969-.765625 25.347656-1.71875 32.46875 3.820313 2.296875 1.785156 3.453125 4.191406 3.535156 7.355469.179688 6.859374-4.746094 15.316406-9.613281 19.527343-8.367187 7.238281-21.585937 8.824219-31.425781 3.765625-9.839844-5.054687-16.25-16.71875-15.242188-27.738281zm0 0"/><path d="m340.589844 369.242188c-10.351563-25.570313-34.023438-43.105469-53.402344-57.207032.414062-1.097656.734375-2.222656.960938-3.367187 2.054687-10.546875-3.6875-21.226563-17.070313-31.746094-10.757813-8.457031-22.445313-15.703125-34.789063-21.609375 1.847657-3.050781 3.601563-6.136719 5.246094-9.269531 8.8125-16.785157 14.429688-34.828125 16.597656-52.738281 7.921876-2.488282 14.738282-8.082032 18.425782-15.199219 4.136718-7.992188 4.242187-17.78125.269531-25.546875-4.253906-8.3125-10.109375-12.957032-17.417969-13.84375.003906-6.996094-.402344-13.996094-1.265625-20.953125-.054687-.433594-.191406-.828125-.363281-1.203125.796875-2.988282 1.570312-8.1875 2.121094-17.621094.515625-8.742188.636718-18.15625.398437-20.121094-1.707031-14.035156-6.574219-27.65625-14.070312-39.386718-15.285157-23.917969-40.203125-37.878907-70.164063-39.316407-16.914062-.804687-33.445312 2.65625-47.8125 10.027344-15.863281 8.132813-29.21875 20.984375-38.613281 37.164063-9.398437 16.179687-13.945313 34.148437-13.148437 51.957031.050781 1.144531.582031 2.207031 1.464843 2.933593.882813.726563 2.03125 1.046876 3.164063.875 1.707031-.257812 3.410156-.566406 5.109375-.902343-2.011719 11.277343-3.136719 22.710937-3.367188 34.164062-11.199219 1.261719-21.058593 10.402344-22.898437 21.585938-1.9375 11.816406 5.332031 24.347656 16.554687 28.527343.464844.175782.941407.253907 1.40625.253907.160157 0 .320313-.015625.480469-.035157.359375 19.925782 6.007812 40.570313 16.605469 59.171876 2.757812 4.839843 5.820312 9.550781 9.179687 14.136718-13.972656 7.921875-27.265625 17.132813-39.554687 27.457032-5.441407 4.570312-11.015625 10.277343-11.117188 17.949218-.046875 3.558594 1.433594 8.179688 5.242188 12.222656-15.734375 8.230469-34.679688 19.445313-44 37.703126-6.902344 13.519531-7.664063 28.726562-8.398438 43.433593-.148437 2.917969-.296875 5.933594-.492187 8.851563-.578125 8.53125-1.652344 17.234375-2.6875 25.65625-1.914063 15.539062-3.890625 31.609375-2.933594 47.660156.460938 7.695312 1.867188 17.359375 8.71875 23.855469 6.378906 6.046875 14.941406 7.238281 23.65625 7.238281 1.832031 0 3.664062-.050781 5.488281-.121094l107.679688-4.199218h.003906c2.796875.398437 5.664063.496093 8.4375.496093.386719 0 .773437-.003906 1.15625-.003906l30.84375-.246094c2.402344-.015625 5.414063-.042969 8.46875-.636719.390625.132813.800781.226563 1.238281.234376 21.246094.34375 42.53125.53125 63.117188.714843 20.589844.183594 41.878906.375 63.113281.714844.492187.007813 1.023437.015625 1.585937.015625 3.355469 0 7.707032-.304688 11.234376-2.878906 5.632812-4.117188 6.257812-11.742188 6.59375-15.839844 1.53125-18.664062 3.003906-37.554688 4.375-56.152344 1.433593-19.449218 3.21875-43.648437-5.371094-64.855468zm-74.492188-85.980469c7.433594 5.839843 15.917969 14.722656 14.136719 23.859375-1.429687 7.320312-9.15625 12.230468-15.910156 14.390625-3.992188 1.273437-8.132813 2.011719-12.515625 2.792969-4.480469.796874-9.113282 1.621093-13.636719 3.074218-2.863281.921875-6.855469 2.613282-8.488281 6.667969-1.683594 4.195313.195312 8.195313 1.566406 11.117187l.160156.339844c4.910156 10.492188 5.503906 22.773438 1.632813 33.6875-3.652344 10.289063-11.144531 19.015625-20.71875 24.21875l-1.253907-115.480468c0-.011719-.003906-.019532-.003906-.027344 7.847656-8.160156 14.792969-16.753906 20.832032-25.742188 12.144531 5.726563 23.640624 12.804688 34.199218 21.101563zm-102.449218 28.300781c3.089843 1.808594 6.6875 3.695312 10.738281 3.695312.382812 0 .773437-.015624 1.164062-.054687 4.117188-.371094 7.34375-2.609375 10.292969-4.867187 6.105469-4.667969 11.855469-9.527344 17.25-14.570313l.160156 14.878906c-.222656.09375-.441406.203125-.648437.34375l-28.449219 18.949219c-1.703125 1.136719-3.820312 2.550781-5.558594 2.558594-.003906 0-.011718 0-.015625 0-1.347656 0-3.003906-.828125-4.578125-1.675782-10.144531-5.457031-19.539062-12.214843-27.953125-20.074218l.113281-17.898438c8.332032 6.652344 17.492188 12.898438 27.484376 18.714844zm-27.664063 9.898438c7.472656 6.296874 15.578125 11.824218 24.199219 16.460937 2.375 1.277344 5.175781 2.636719 8.398437 2.636719h.0625c4.152344-.023438 7.523438-2.269532 9.984375-3.90625l24.730469-16.476563.242187 22.480469c-.382812.015625-.765624.066406-1.148437.199219-5.449219 1.878906-9.65625 5.476562-13.726563 8.953125-.921874.789062-1.839843 1.574218-2.773437 2.335937-5.386719 4.402344-9.902344 6.273438-13.796875 5.71875-2.871094-.40625-5.78125-2.238281-8.351562-3.851562-9.359376-5.882813-18.742188-11.992188-27.925782-18.167969zm133.667969-165.226563c2.804687 5.480469 2.707031 12.441406-.253906 18.160156-2.207032 4.261719-5.964844 7.785157-10.46875 9.945313.414062-7.296875.25-14.535156-.535157-21.613282-.0625-.554687-.234375-1.066406-.492187-1.527343.640625-4.773438 1.101562-9.566407 1.332031-14.371094 4.265625.796875 7.53125 3.769531 10.417969 9.40625zm-137.71875-138.921875c13.117187-6.726562 28.242187-9.894531 43.75-9.144531 27.273437 1.304687 49.914062 13.949219 63.753906 35.605469 6.851562 10.71875 11.296875 23.171874 12.859375 36.007812.351563 3.296875-.34375 25.691406-1.953125 33.445312-7.664062-2.882812-14.378906-8.605468-18.339844-15.738281-4.457031-8.03125-5.542968-18.078125-2.910156-26.878906.625-2.082031-.511719-4.28125-2.570312-4.976563-.425782-.144531-.863282-.214843-1.289063-.214843-1.636719 0-3.167969 1.003906-3.773437 2.613281-7.386719 19.605469-27.769532 33.125-48.554688 33.238281 8.136719-10 14.621094-21.464843 18.941406-33.558593.609375-1.699219.011719-3.597657-1.460937-4.640626-1.46875-1.046874-3.457031-.988281-4.863281.140626-15.867188 12.769531-33.339844 23.09375-52.082032 30.792968 4.304688-6.703125 7.707032-14 10.035156-21.589844.53125-1.730468-.15625-3.601562-1.683593-4.578124-1.527344-.972657-3.515625-.8125-4.863281.394531-14.644532 13.128906-33.121094 22.285156-52.449219 26.070312.429687-31.453125 19.445312-62.625 47.453125-76.988281zm-1.859375 66.484375c-3.082031 5.832031-6.886719 11.289063-11.296875 16.164063-1.234375 1.359374-1.390625 3.378906-.386719 4.914062 1.007813 1.535156 2.921875 2.195312 4.660156 1.613281 19.683594-6.628906 38.164063-15.921875 55.121094-27.707031-4.449219 8.40625-10.039063 16.242188-16.53125 23.121094-1.023437 1.085937-1.363281 2.648437-.882813 4.0625.480469 1.414062 1.703126 2.449218 3.179688 2.683594 2.855469.457031 5.726562.679687 8.59375.679687 18.128906 0 36.03125-8.835937 47.457031-22.875.71875 5.214844 2.382813 10.300781 4.964844 14.953125 5.457031 9.828125 14.726563 17.203125 25.507813 20.347656 1.453124 13.8125 1.144531 27.753906-.972657 41.492188-.039062.25-.046875.496094-.039062.738281-.757813.996094-1.722657 2.128906-2.203125 2.691406-.5.585938-.914063 1.078125-1.160156 1.402344-1.847657 2.421875-3.855469 4.769531-5.960938 6.976563-2.753906 2.875-5.851562 5.664062-8.847656 8.359374-1.136719 1.023438-2.269532 2.042969-3.382813 3.0625-3.554687 3.273438-8.367187 6.011719-13.019531 8.664063-.171875.097656-.339844.195313-.511719.292969-.304687-.25-.609375-.492188-.914062-.738282-4.734375-3.851562-9.628907-7.832031-15.40625-10.625-11.0625-5.328124-20.953125-3.859374-26.464844-1.042968-5.507813-2.816406-15.402344-4.285156-26.46875 1.046875-5.804687 2.804687-10.722656 6.804687-15.476563 10.675781-.703124.570312-1.414062 1.148438-2.125 1.71875-1.234374-1.378906-2.410156-2.832031-3.503906-4.359375-6.980468-9.71875-14.832031-19.0625-22.425781-28.101563-3.453125-4.109374-7.015625-8.351562-10.433594-12.558593-.835937-16.542969.261719-33.175781 3.296875-49.464844.109375-.59375.074219-1.183594-.066406-1.734375 12.671875-3.464844 24.828125-9.066406 35.699219-16.453125zm71.554687 138.414063c-3.378906.234374-6.65625.054687-9.738281-.585938-6.105469-1.273438-11.511719-4.359375-15.242187-8.710938-.636719-.726562-1.210938-1.480468-1.714844-2.242187-.746094-1.128906-2.007813-1.808594-3.363282-1.808594-1.355468 0-2.617187.675781-3.363281 1.804688-.628906.953125-1.320312 1.839843-2.085937 2.671875-3.683594 4.109375-8.964844 7.050781-14.863282 8.285156-6.832031 1.421875-14.578124.683594-22.402343-2.144531-4.148438-1.496094-8.386719-3.570313-12.972657-6.363281 5.484376-2.074219 10.183594-5.324219 13.675782-7.996094l.019531-.011719.011719-.011719.238281-.183594c1.664063-1.28125 3.304687-2.617187 4.894531-3.910156 4.597656-3.742187 8.941406-7.273437 13.894532-9.667968 5.527343-2.667969 15.695312-4.300782 20.40625-.4375 1.484374 1.21875 3.625 1.21875 5.113281 0 4.707031-3.863282 14.875-2.230469 20.402343.433593 4.925782 2.382813 9.246094 5.894531 13.824219 9.617188 1.03125.839843 2.066407 1.679687 3.09375 2.5.613281.488281 1.238281.980469 1.859375 1.460937 3.570313 2.753906 8.363282 6.097656 13.945313 8.207032-4.585938 2.796874-8.816407 4.871093-12.960938 6.363281-4.296875 1.550781-8.5625 2.449219-12.671875 2.730469zm-133.703125-62.988282c1.195313-7.289062 7.65625-13.492187 14.921875-14.746094.050782 2.964844.140625 5.929688.308594 8.890626-2.589844 8.023437-4.113281 16.5-4.59375 25.1875-7.171875-3.125-11.90625-11.597657-10.636719-19.332032zm21.222657 2.5c2.089843 2.519532 4.191406 5.019532 6.253906 7.472656 7.5 8.925782 15.25 18.148438 22.050781 27.617188 1.121094 1.566406 2.316406 3.074219 3.574219 4.515625-.042969.027344-.082032.054687-.125.082031-.09375.0625-.1875.125-.285156.1875-.234376.15625-.472657.308594-.714844.460938-.105469.070312-.214844.136718-.324219.203125-.273437.171875-.546875.339843-.828125.507812-.070312.039063-.136719.082031-.203125.121094-.347656.203125-.699219.402344-1.054687.601563-.089844.046874-.183594.09375-.273438.144531-.273438.148437-.550781.292969-.828125.4375-.117187.058593-.234375.117187-.351563.175781-.285156.140625-.574218.28125-.867187.417969-.089844.039062-.179687.082031-.269531.125-.378906.171875-.765625.335937-1.152344.496093-.078125.03125-.160156.058594-.238281.09375-.3125.121094-.625.242188-.9375.355469-.125.042969-.25.085938-.371094.128907-.296875.097656-.59375.195312-.894531.285156-.109375.035156-.21875.070312-.328125.101562-.40625.117188-.8125.226563-1.21875.320313-.054688.011719-.113281.023437-.167969.035156-.355469.078125-.710938.152344-1.066406.214844-.125.019531-.253906.039062-.382813.058593-.304687.046876-.605469.089844-.910156.121094-.125.015625-.25.03125-.375.039063-.421875.039062-.84375.066406-1.265625.078125-1.730469.039062-3.246094 1.179687-3.757812 2.835937-.511719 1.65625.089843 3.453125 1.496093 4.464844 8.417969 6.054687 15.660157 10.074219 22.789063 12.644531.6875.25 1.375.480469 2.0625.699219.207031.066406.417968.128906.625.195313.5.152343 1.003906.300781 1.503906.441406.214844.058594.425781.121094.640625.175781.632813.171875 1.261719.332031 1.894531.476563.054688.011718.109375.027343.164063.039062.679687.15625 1.359375.289062 2.035156.417969.207031.039062.417969.074219.625.109375.488281.085937.980469.167968 1.46875.238281.21875.03125.433594.0625.652344.09375.585937.078125 1.167969.144531 1.75.203125.09375.007812.1875.023438.277343.03125.667969.058594 1.328126.105469 1.988282.140625.199218.007813.394531.011719.59375.019531.484375.019532.964844.03125 1.445312.035156.121094 0 .242188.007813.363282.007813.089843 0 .175781-.003906.265624-.003906.589844-.003907 1.175782-.015625 1.761719-.042969.078125-.003906.160157-.003906.238281-.007812.65625-.035157 1.304688-.085938 1.953126-.148438.1875-.015625.375-.039062.5625-.058594.480468-.050781.957031-.113281 1.433593-.179687.195313-.03125.390625-.058594.585938-.085938.613281-.101562 1.226562-.207031 1.828125-.332031.023437-.003906.042968-.007812.066406-.011719.101562-.019531.195312-.050781.292969-.074219.792969-.171874 1.578125-.359374 2.351562-.582031.320313-.089843.632813-.203125.949219-.304687.542969-.171875 1.085938-.335938 1.617188-.527344.375-.136719.734374-.296875 1.097656-.441406.464844-.1875.925781-.363282 1.378906-.566406.398438-.175782.777344-.375 1.164062-.566407.40625-.199219.8125-.390625 1.207032-.601562.40625-.21875.796875-.457031 1.191406-.6875.355469-.210938.71875-.414063 1.066406-.636719.402344-.253906.789063-.527344 1.175782-.800781.324218-.222657.648437-.441407.960937-.675781.382813-.285157.75-.585938 1.117187-.886719.300782-.246094.605469-.488281.894532-.742188.34375-.300781.671875-.613281 1-.925781.203125-.195312.417968-.375.613281-.570312.351563-.035157.707031-.066407 1.0625-.105469.242187.242187.503906.464843.753906.703125.292969.277344.578125.558594.878907.824218.351562.308594.71875.601563 1.082031.894532.308593.25.613281.507812.933593.75.382813.285156.777344.550781 1.167969.824218.328125.222657.648438.457032.984375.671876.410156.261718.835938.503906 1.257813.75.339843.199218.671875.40625 1.019531.59375.441406.238281.898438.453124 1.355469.671874.34375.167969.679687.347657 1.03125.507813.484375.214844.984375.40625 1.480469.605469.339843.132812.667968.28125 1.011718.40625.558594.203125 1.128906.375 1.699219.554687.296875.089844.582031.199219.882813.28125.871093.25 1.757812.46875 2.65625.65625 1.613281.335938 3.265624.574219 4.941406.714844 6.953125.589844 14.410156-.480469 21.851562-3.164063 7.121094-2.566406 14.359375-6.582031 22.78125-12.644531 1.40625-1.011719 2.011719-2.808593 1.496094-4.464843-.511719-1.65625-2.027344-2.796876-3.761719-2.835938-.429687-.011719-.859375-.039062-1.289062-.078125-.136719-.011719-.269531-.03125-.40625-.046875-.296875-.03125-.59375-.070312-.886719-.117188-.152344-.023437-.300781-.046874-.449219-.074218-.292969-.054688-.585937-.113282-.878906-.175782-.128906-.03125-.261719-.054687-.394531-.085937-.398438-.097656-.792969-.199219-1.1875-.316406-.015625-.003907-.035156-.007813-.050782-.015625-.414062-.121094-.824218-.253906-1.230468-.398438-.121094-.042968-.242188-.089844-.367188-.132812-.285156-.105469-.570312-.214844-.855468-.328125-.132813-.054688-.269532-.109375-.40625-.167969-.277344-.113281-.554688-.234375-.828126-.359375-.117187-.050781-.238281-.105469-.359374-.160156-.363282-.167969-.71875-.339844-1.070313-.519531-.023437-.011719-.050781-.023438-.074219-.035157-.382812-.195312-.757812-.394531-1.128906-.597656-.109375-.0625-.214844-.121094-.320312-.183594-.261719-.144531-.523438-.292969-.777344-.445312-.125-.070313-.246094-.144531-.371094-.21875-.246094-.148438-.488281-.296875-.730469-.449219-.109375-.066406-.21875-.132812-.324219-.203125-.304687-.191406-.601562-.386719-.894531-.582031-.035156-.023438-.078125-.046875-.113281-.074219-.296875-.195313-.585938-.394531-.871094-.59375 4.261719-2.457031 8.511719-5.078125 12.0625-8.347656 1.09375-1 2.203125-2 3.320313-3.003907 3.105469-2.796874 6.316406-5.6875 9.285156-8.78125 1.785156-1.875 3.503906-3.835937 5.128906-5.855468.363281 22.472656-5.417969 46.054687-16.683593 67.519531-2.0625 3.925781-4.3125 7.785156-6.71875 11.578125-.453126.378906-.84375.855469-1.101563 1.433594-.082031.191406-.136719.386718-.191406.578125-11.539063 17.648437-26.761719 33.765625-45.445313 48.046875-2.097656 1.609375-4.144531 3.066406-6.117187 3.242187-2.160157.199219-4.699219-1.160156-7.117188-2.574219-29.714843-17.296874-51.816406-38.410156-65.6875-62.753906-14.484375-25.429687-19.105469-54.820312-12.871093-80.125zm-19.324219 131.878906c12.214843-10.261718 25.457031-19.390624 39.382812-27.195312 5.613281 6.875 11.921875 13.449219 18.9375 19.691406l-.695312 109.925782c-10.671875-7.933594-20.300781-17.179688-28.644531-27.550782-3.183594-3.960937-10.128907-13.886718-5.839844-20.53125.550781-.855468 1.339844-1.726562 2.175781-2.652344 1.902344-2.105468 4.058594-4.488281 4.714844-7.976562 1.359375-7.191406-4.726563-13.035156-11.355469-15.632812-2.953125-1.160157-5.960938-1.945313-8.875-2.710938-3.289062-.859375-6.394531-1.675781-9.253906-2.953125-.328125-.144531-.65625-.308594-.980469-.476563-.558594-.625-1.285156-1.046874-2.074219-1.238281-3.191406-2.179687-5.773437-5.34375-5.730468-8.820312.058593-4.414063 4.199218-8.484375 8.238281-11.878907zm-32.019531 210.21875c-8.796876.339844-17.84375.246094-23.28125-4.910156-4.804688-4.558594-5.847657-12.273437-6.21875-18.484375-.917969-15.316406 1.019531-31.015625 2.886718-46.199219 1.050782-8.523437 2.136719-17.34375 2.726563-26.09375.203125-2.992187.355469-6.042968.503906-8.992187.691406-13.859375 1.40625-28.1875 7.523437-40.167969 8.308594-16.269531 24.835938-26.101562 44.140626-36.078125.332031.160157.648437.328125.996093.484375 3.464844 1.546875 7.042969 2.484375 10.5 3.390625 2.808594.738281 5.464844 1.433594 7.976563 2.417969 3.441406 1.347656 6.847656 4.132812 6.375 6.628906-.238282 1.261719-1.414063 2.558594-2.773438 4.066406-.96875 1.070313-2.0625 2.28125-2.96875 3.683594-5.101562 7.902344-2.851562 18.539063 6.332032 29.957032 9.683593 12.046874 21.007812 22.660156 33.648437 31.546874.378906.269532.792969.453126 1.214844.574219l-.472657 74.90625c-.042968 6.921875.292969 14.101563 4.523438 19.613281l-72.109375 2.8125c3.835937-33.09375 4.046875-66.644531.613281-99.78125-.230468-2.214843-2.210937-3.828124-4.425781-3.59375-2.214844.230469-3.824219 2.210938-3.59375 4.425782 3.417969 32.96875 3.160156 66.355468-.746094 99.269531zm148.367187-3.957031-30.84375.242188c-6.597656.058593-13.328125-.230469-16.96875-4.214844-3.191406-3.496094-3.417969-9.226563-3.382813-15.289063l.84375-133.097656c7.824219 5.210938 15.765626 10.355469 23.695313 15.335938 3.089844 1.941406 6.933594 4.355468 11.507813 5.007812.832031.117188 1.667968.175782 2.511718.175782 5.496094 0 11.253906-2.515626 17.519532-7.632813.976562-.796875 1.945312-1.625 2.910156-2.453125 3.230468-2.757812 6.300781-5.378906 9.726562-6.90625l.847656 77.898438c.207032 19.292968.425782 39.246093-2.65625 58.480468-.570312 3.574219-1.382812 7.570313-3.773437 9.757813-2.648437 2.421875-7.160156 2.65625-11.9375 2.695312zm151.75-66.363281c-1.367187 18.574219-2.835937 37.445312-4.367187 56.089844-.316407 3.890625-.863282 8.195312-3.3125 9.984375-1.789063 1.304687-4.648438 1.367187-7.9375 1.3125-12.582032-.203125-25.171876-.347657-37.625-.476563-2.460938-33.238281-1.125-66.769531 3.992187-99.703125.339844-2.199219-1.164063-4.257812-3.367187-4.601562-2.199219-.339844-4.257813 1.164062-4.601563 3.363281-5.175781 33.320312-6.550781 67.234375-4.113281 100.863281-5.863282-.054687-11.6875-.109375-17.457032-.160156-17.234374-.152344-34.964843-.3125-52.742187-.558594 1.972656-3.265625 2.847656-7.128906 3.453125-10.929687 3.191406-19.910156 2.96875-40.210938 2.753906-59.84375l-.179687-16.867188c.554687-.015625 1.117187-.132812 1.648437-.390625 12.3125-5.972656 22-16.796875 26.574219-29.695312 4.574219-12.898438 3.871094-27.402344-1.929687-39.796875l-.164063-.351563c-.78125-1.667969-1.757813-3.746093-1.382813-4.683593.152344-.378907.808594-1.140626 3.46875-1.996094 4.011719-1.289063 8.175782-2.03125 12.585938-2.816406 4.453125-.792969 9.054688-1.613282 13.554688-3.050782 6.859374-2.1875 12.4375-5.773437 16.238281-10.226562 18.4375 13.425781 40.703125 30.089844 50.105469 53.304687 7.882812 19.460938 6.246093 41.652344 4.804687 61.230469zm0 0"/></svg>