<svg height="511pt" viewBox="-95 0 511 511.99837" width="511pt" xmlns="http://www.w3.org/2000/svg"><path d="m250.066406 206.332031c-3.132812-.273437-6.160156-.925781-9-1.933593l-4.269531-1.515626 2.035156-4.050781c9.734375-19.363281 12.394531-42.253906 7.300781-62.800781l-1.105468-4.460938 4.570312-.480468c1.226563-.125 2.480469-.191406 3.726563-.191406 2.785156 0 5.613281.320312 8.410156.949218l3.058594.6875.0625 3.136719c.457031 23.160156-3.128907 46.03125-10.65625 67.976563l-1.015625 2.960937zm0 0" fill="#bfc7d8"/><path d="m72.511719 203.644531c-7.519531-21.914062-11.101563-44.785156-10.652344-67.972656l.058594-3.136719 3.058593-.6875c2.742188-.621094 5.53125-.933594 8.285157-.933594 1.792969 0 3.597656.132813 5.351562.398438l3.144531.472656.765626 9.988282c.683593 9.183593 1.386718 18.675781 2.496093 27.949218.976563 8.253906 2.5 19.035156 5.632813 29.230469l1.738281 5.667969-5.90625-.507813c-3.011719 1.164063-6.332031 1.917969-9.839844 2.21875l-3.117187.269531zm0 0" fill="#bfc7d8"/><g fill="#939baa"><path d="m255.234375 200.777344c6.550781-20.070313 9.820313-40.96875 9.722656-62.109375l-.03125-6.507813 5.820313 2.910156c6.78125 3.390626 12.261718 8.441407 15.847656 14.605469 7.828125 13.453125 6.183594 31.808594-3.914062 43.648438-5.6875 6.671875-13.859376 11.164062-23.003907 12.640625l-6.476562 1.050781zm0 0"/><path d="m54.539062 129.875c-2.285156-30.585938 8.304688-62.59375 28.320313-85.621094 20.988281-24.148437 52.617187-39.148437 84.605469-40.132812 1.199218-.039063 2.402344-.058594 3.597656-.058594 18.621094 0 36.539062 4.578125 51.808594 13.234375 17.214844 9.765625 30.738281 24.660156 38.078125 41.9375 9.0625 21.355469 8.664062 44.972656 7.382812 69.3125l-.261719 4.9375-4.773437-1.285156c-2.425781-.652344-4.890625-1.074219-7.324219-1.253907l-4.664062-.34375 1.0625-4.554687c6.816406-29.222656-2.382813-61.660156-23.4375-82.636719-15.953125-15.898437-39.53125-25.390625-63.070313-25.390625-8.261719 0-16.308593 1.144531-23.917969 3.402344-21.21875 6.28125-40.816406 21.355469-53.769531 41.359375-11.9375 18.429688-18.644531 40.9375-19.390625 65.097656l-.097656 3.140625-3.074219.652344c-1.914062.402344-3.828125.960937-5.6875 1.652344l-4.992187 1.859375zm0 0"/><path d="m67.03125 205.976562c-9.148438-1.496093-17.316406-5.988281-23-12.652343-10.089844-11.847657-11.734375-30.203125-3.910156-43.648438 3.601562-6.175781 9.085937-11.226562 15.859375-14.605469l5.816406-2.902343-.03125 6.5c-.097656 21.160156 3.167969 42.0625 9.710937 62.121093l2.039063 6.246094zm0 0"/></g><path d="m23.601562 507.933594c-4.777343 0-10.199218-.273438-14.050781-3.582032-4.945312-4.25-5.261719-11.585937-4.867187-18.878906 1.585937-29.085937 4.589844-58.433594 8.929687-87.230468 3.238281-21.535157 7.925781-46.019532 22.636719-64.042969 9.269531-11.359375 21.738281-19.351563 33.796875-27.085938 7.875-5.050781 15.933594-10.21875 23.214844-16.378906l8.226562-6.957031-1.691406 10.640625c-4.15625 26.140625-3.398437 53.53125 2.1875 79.199219 8.707031-6.128907 17.660156-12.488282 27.523437-17.015626 5.503907-2.523437 10.941407-4.289062 16.167969-5.25l4.734375-.867187-.234375 69.707031c-.007812 2.140625-.019531 5.058594 1.800781 6.910156 1.191407 1.210938 2.921876 1.777344 5.449219 1.777344.761719 0 1.484375-.050781 2.121094-.097656l.199219-.015625c4.753906-.367187 9.664062-1.023437 12.460937-4.566406 2.355469-2.996094 2.390625-7.25 2.417969-10.355469.140625-17.636719-.324219-35.574219-1.382812-53.308594l-.40625-6.820312 6.148437 2.988281c4.429687 2.152344 8.847656 4.714844 13.117187 7.195313l.097657.058593c7.25 4.207031 14.75 8.558594 22.746093 11.144531 12.457032-25.667968 17.140626-55.410156 13.238282-83.765624l-1.484375-10.777344 8.109375 7.246094c.144531.128906.285156.257812.421875.386718.117187.109375.234375.21875.355469.328125 6.296874 5.679688 13.128906 10.828125 19.738281 15.804688l.277343.210937c9.503907 7.140625 19.332032 14.527344 27.570313 23.449219 21.601563 23.402344 29.273437 54.152344 31.902344 75.832031 3.382812 27.800782.902343 56.105469-1.496094 83.480469-.582031 6.796875-1.953125 14.128906-7.664063 16.964844-2.644531 1.296875-5.722656 1.324219-8.441406 1.347656l-46.152344.390625-.183593-3.84375c-1.378907-29.355469-1.050781-59.046875.976562-88.246094-2.078125 29.007813-2.414062 58.597656-1.054687 87.941406l.191406 4.152344-174.433594 1.476563-.03125-4c-.242187-29.207031-2.320312-58.617188-6.175781-87.421875 3.792969 28.839844 5.871094 58.25 6.113281 87.425781l.035156 4-51.929687.445313c-.40625.003906-.816406.003906-1.226563.003906zm0 0" fill="#288fc9"/><path d="m79.734375 131.414062c-2.054687-.378906-4.148437-.570312-6.230469-.570312l-.542968.003906-4.226563.066406.164063-4.222656c.929687-23.6875 7.609374-45.773437 19.320312-63.875 12.941406-19.980468 32.527344-35.046875 53.742188-41.332031 7.640624-2.265625 15.710937-3.414063 23.984374-3.414063 23.804688 0 46.75 9.25 62.941407 25.382813 21.421875 21.339844 30.617187 55.40625 22.875 84.773437l-.679688 2.578126-2.640625.367187c-.589844.082031-1.171875.179687-1.761718.289063l-.976563.179687-.894531-.28125c-33.183594-4.636719-63.175782-30.234375-72.949219-62.261719-3.804687 12.523438-4.289063 26.050782-1.464844 39.117188.269531 1.273437.996094 3.097656 1.835938 5.207031l.121093.308594c1.792969 4.554687 2.851563 7.605469 2.9375 9.722656l.257813 6.183594-5.742187-2.304688c-1.851563-.746093-4.105469-2.527343-6.265626-4.34375-.632812-.535156-1.179687-.988281-1.625-1.328125-2.074218-1.5625-4.222656-3.039062-6.304687-4.46875l-.320313-.222656c-4.222656-2.898438-8.214843-5.640625-11.910156-9.199219-5.839844-5.632812-10.867187-12.035156-14.933594-19.03125-.265624-.464843-.589843-1.003906-.957031-1.609375-7.828125-13.089844-8.058593-16.414062-7.664062-18.5l.03125-.167968.046875-.167969-.109375.183593c-3.328125 11.921876-6.769531 24.253907-12.59375 35.539063-1.214844 2.339844-2.570313 4.667969-4.027344 6.925781-5.800781 8.976563-12.804687 15.726563-20.816406 20.058594l-1.238281.667969zm0 0" fill="#c67045"/><path d="m163.679688 286.972656c-3.585938 0-6.855469-2.648437-9.296876-4.953125-10.097656-9.511719-18.746093-21.164062-25.015624-33.703125l-2.625-5.253906 5.679687-.503906.757813-.148438c.074218-.015625.148437-.035156.226562-.050781l.847656-.199219.625-.15625.613282-.171875c.144531-.042969.683593-.207031.683593-.207031.171875-.050781.34375-.101562.523438-.15625l.683593-.222656c.21875-.070313.378907-.125.542969-.1875l1.347657-.472656.710937-.273438c.144531-.058594.355469-.140625.574219-.21875.234375-.097656.46875-.191406.691406-.28125l.492188-.199219c.242187-.101562.449218-.191406.65625-.28125.167968-.074219.363281-.15625.554687-.234375.222656-.105468.441406-.203125.65625-.292968l1.144531-.535157.210938-.09375 1.304687-.652343c.109375-.058594.570313-.300782.570313-.300782.136718-.070312.238281-.128906.332031-.183594l.125-.078124.292969-.148438c.164062-.105469.273437-.171875.382812-.234375.136719-.089844.210938-.132813.273438-.179687 1.535156-1.128907 3.183594-3.015626 4.925781-5.015626l.140625-.164062c4.144531-4.742188 7.617188-8.371094 11.417969-8.371094.21875 0 .433593.011719.644531.035156 3 .3125 4.816406 3.292969 7.242188 7.800782 1.636718 3.050781 3.167968 5.90625 5.394531 7.414062.4375.300782.855469.554688 1.277343.808594l.535157.273438c.304687.167968.609375.328124.917969.476562.121093.058594.542968.242188.542968.242188.25.109374.550782.242187.859375.355468.207031.078125.371094.140625.53125.195313l.109375.035156c.3125.117187.636719.214844.957032.3125.078124.023437.226562.066406.378906.101563l.132812.035156c.328125.089844.664063.171875 1.007813.246094l.539062.109374c.3125.058594.6875.105469 1.0625.160157.03125 0 .445313.054687.445313.054687.363281.042969.746094.066406 1.121094.082032 0 0 .585937.03125.632812.035156h7.011719l-22.820313 37.578125c-2.054687 3.375-4.5625 7.027343-8.390625 7.675781-.386719.0625-.78125.097656-1.183593.097656zm0 0" fill="#c67045"/><path d="m131.335938 242.5-.671876-.25c-11.289062-4.191406-20.855468-10.839844-27.664062-19.21875-11.910156-14.679688-15.652344-34.292969-17.925781-53.308594-1.132813-9.542968-1.863281-19.449218-2.507813-28.1875l-.753906-10.078125 2.140625-1.261719c7.335937-4.328124 13.820313-10.792968 19.277344-19.210937 1.507812-2.347656 2.859375-4.683594 4.015625-6.9375 3.304687-6.382813 6.070312-13.460937 8.976562-22.957031l2.820313-9.222656 4.535156 8.511718c1.082031 2.03125 2.335937 4.238282 3.839844 6.746094l.238281.398438c.285156.472656.53125.886718.742188 1.253906 4.078124 7.011718 9.109374 13.417968 14.941406 19.03125 3.691406 3.570312 7.859375 6.429687 11.886718 9.195312l.496094.339844c2.03125 1.394531 4.128906 2.835938 6.164063 4.375.371093.277344.816406.648438 1.316406 1.066406l.269531.226563c2.453125 2.058593 5.757813 4.832031 8.414063 4.832031.246093 0 .476562-.023438.707031-.070312 1.023438-.210938 1.804688-.886719 2.394531-2.066407 1.210938-2.441406-.933593-7.851562-2.660156-12.199219l-.117187-.292968c-.933594-2.359375-1.515626-3.875-1.757813-5.039063-1.8125-8.351562-2.269531-16.894531-1.351563-25.355469l1.492188-13.808593 6.082031 12.488281c12.566407 25.808594 37.726563 44.789062 65.664063 49.539062l2.503906.425782.679688 2.449218c7.574218 27.367188.847656 59.128907-17.140626 80.914063-9.683593 11.714844-22.597656 20.863281-37.347656 26.457031l-.683594.257813-1.027343.003906c-.078125 0-.160157 0-.242188-.003906-.199219 0-.390625-.003907-.589843-.011719-.34375-.015625-.6875-.039062-1.035157-.074219-.09375-.007812-.511719-.054687-.511719-.054687-.402343-.054688-.804687-.117188-1.191406-.195313l-.261718-.046875c-.402344-.074218-.765626-.167968-1.132813-.261718l-.453125-.121094c-.40625-.109375-.808594-.246094-1.226562-.398438-.085938-.023437-.207032-.0625-.328126-.105468-.339843-.128907-.613281-.246094-.890624-.363282l-.265626-.117187-.109374-.050781c-.085938-.035157-.199219-.085938-.320313-.144532-.292969-.140625-.582031-.289062-.863281-.441406-.15625-.074219-.300782-.144531-.445313-.222656-.5-.285156-.9375-.5625-1.359375-.835938-2.113281-1.453125-3.578125-3.992187-5.417968-7.425781-2.445313-4.539063-4.269532-7.523437-7.320313-7.851563-.214844-.023437-.425781-.035156-.632813-.035156-4.140624 0-8.261718 4.722656-11.570312 8.515625-1.789062 2.0625-3.429688 3.949219-4.917969 5.023438-.144531.101562-.320312.222656-.53125.351562l-.070312.050781-.785157.429688c-.125.066406-.25.132812-.386718.203125-.125.066406-.261719.140625-.386719.203125l-.726563.355469c-.167968.085937-.339843.171875-.527343.257812-.136719.066407-.257813.121094-.375.171875-.164063.082032-.332031.160156-.503907.234375-.105468.050781-.59375.265625-.59375.265625-.109374.046875-.21875.101563-.332031.152344l-.105469.050781-.480468.195313c-.171875.078125-.355469.152344-.535156.230468-.125.054688-.257813.109376-.390626.164063l-.09375.039063c-.253906.105468-.480468.199218-.707031.28125-.171875.074218-.351562.148437-.535156.214843-.125.050781-1.058594.40625-1.207031.457031-.171875.066407-.417969.15625-.679688.242188l-1.203125.414062s-.410156.128907-.503906.160157c-.242187.078125-.472656.144531-.710937.214843l-.519532.15625c-.269531.078126-.523437.140626-.789062.203126l-.503906.140624-.933594.203126-.402344.132812-.664062.003906h-.71875zm0 0" fill="#ffdac4"/><path d="m157.972656 343.828125c-20.011718-18.210937-37.597656-38.964844-52.277344-61.6875l-1.484374-2.300781 1.605468-2.214844c7.390625-10.21875 11.785156-23.949219 11.195313-34.984375l-.371094-6.921875 6.179687 3.148438c.492188.25.984376.488281 1.476563.730468l1.339844.65625.585937 1.378906c6.417969 15.171876 16.144532 29.15625 28.117188 40.4375 2.457031 2.3125 5.738281 4.96875 9.289062 4.96875.421875 0 .84375-.035156 1.25-.101562 4.199219-.722656 6.84375-5.097656 8.425782-7.710938l23.914062-39.371093.578125-1.398438 1.328125-.628906c1.535156-.753906 3.066406-1.554687 4.542969-2.386719l6.09375-3.417968-.136719 6.984374c-.171875 8.832032 2.324219 22.644532 15.203125 38.3125l2.636719 3.210938-3.308594 2.515625c-21.464844 26.496094-41.960938 44.921875-60.910156 60.882813l-2.679688 2.253906zm0 0" fill="#ffdac4"/><path d="m226.46875 280.40625-5.6875 6.832031c-20.40625 24.523438-39.964844 41.988281-58.058594 57.207031l-2.164062 1.820313-3.066406-2.800781c-18.628907-17.011719-35.179688-36.265625-49.191407-57.230469l-5.414062-8.101563-1.839844 9.570313c-5.015625 26.101563-5.101563 53.6875-.242187 79.777344l1.136718 6.101562 5.085938-3.554687c6.878906-4.808594 14.363281-9.769532 22.453125-13.480469 7.234375-3.316406 14.269531-5.277344 20.988281-5.894531l-.234375 69.519531c-.027344 3.003906.265625 5.320313 1.792969 6.898437 1.523437 1.539063 3.71875 1.738282 5.464844 1.738282.910156 0 1.761718-.066406 2.222656-.101563 4.769531-.367187 9.664062-1.023437 12.441406-4.550781 2.171875-2.753906 2.375-6.449219 2.398438-10.304688.160156-18.851562-.382813-38.113281-1.605469-57.246093l-.171875-2.667969c6.75 2.597656 13.128906 6.292969 19.359375 9.910156 6.484375 3.765625 12.605469 7.320313 19.261719 9.925782l3.535156 1.386718 1.566406-3.460937c11.527344-25.488281 15.542969-54.789063 11.308594-82.503907zm-56.242188 72.65625c-3.222656-1.074219-6.257812-1.796875-9.28125-2.199219-1.902343-.253906-3.863281-.375-5.988281-.375l-2.847656.023438c.90625-.050781 1.808594-.089844 2.703125-.09375l4.875-.015625 4.777344 1.019531c2.707031.574219 5.34375 1.390625 7.929687 2.367187zm0 0" fill="#5bd0fc"/><path d="m319.113281 403.328125c-3.878906-31.945313-15.273437-58.949219-32.949219-78.101563-8.453124-9.15625-18.449218-16.675781-28.117187-23.945312-6.632813-4.988281-13.492187-10.144531-19.675781-15.722656-10.253906-9.246094-27.066406-28.050782-24.441406-50.105469.066406-.578125.003906-1.140625-.15625-1.660156 6.644531-4.683594 12.617187-10.1875 17.734374-16.378907 0 0 0 0 0-.003906 2.527344-3.058594 4.832032-6.296875 6.925782-9.675781.105468.050781.199218.117187.3125.160156 4.625 1.78125 9.558594 2.636719 14.503906 2.636719 12.242188 0 24.5625-5.234375 32.523438-14.570312 11.175781-13.109376 12.996093-33.433594 4.332031-48.324219-4.121094-7.082031-10.492188-12.707031-17.855469-16.3125 1.277344-23.550781 2.476562-50.027344-7.566406-73.679688-7.6875-18.097656-21.824219-33.679687-39.816406-43.878906-16.941407-9.609375-36.828126-14.347656-57.535157-13.7070312-33.09375 1.0195312-65.820312 16.5468752-87.539062 41.5351562-21.570313 24.808594-32.386719 59.0625-29.023438 91.765625-5.785156 3.546875-10.742187 8.410156-14.15625 14.277344-8.664062 14.890625-6.84375 35.214843 4.332031 48.324219 7.957032 9.335937 20.28125 14.570312 32.519532 14.570312 4.949218 0 9.878906-.855469 14.503906-2.636719.496094-.191406.921875-.472656 1.289062-.8125 2.617188 6.625 6.023438 12.886719 10.585938 18.507813 3.457031 4.257812 7.574219 8.082031 12.222656 11.40625.011719.039062.007813.074218.019532.109375 3.449218 13.074219-3.191407 30.496093-11.183594 40.253906-8.882813 10.839844-21.128906 18.6875-32.96875 26.28125-11.777344 7.550781-25.128906 16.109375-34.832032 27.992187-15.359374 18.816407-20.1875 43.9375-23.511718 66.003907-4.355469 28.925781-7.371094 58.40625-8.960938 87.613281-.453125 8.335938-.007812 16.792969 6.273438 22.1875 4.886718 4.195312 11.492187 4.5625 16.402344 4.5625.542968 0 1.066406-.003906 1.5625-.007812l272.632812-2.316407c3.007812-.027343 6.753906-.058593 10.21875-1.777343 7.5-3.726563 9.21875-12.328126 9.914062-20.25 2.414063-27.582032 4.910157-56.105469 1.480469-84.320313zm-106.25-33.28125c-6.367187-2.484375-12.394531-5.984375-18.71875-9.660156-9.035156-5.246094-18.347656-10.640625-28.851562-12.878907 21.140625-17.777343 39.488281-34.777343 58.566406-57.707031 4.140625 27.085938.292969 55.273438-10.996094 80.246094zm-42.304687 43.765625c-.023438 3.144531-.164063 6.113281-1.546875 7.867188-1.777344 2.257812-5.722657 2.738281-9.609375 3.039062-1.035156.082031-3.785156.292969-4.527344-.460938-.652344-.664062-.644531-2.949218-.640625-4.046874l.222656-65.722657c2.023438-.023437 4.007813.085938 5.953125.34375 2.929688.386719 5.761719 1.09375 8.542969 2.027344 1.21875 18.875 1.757813 38.035156 1.605469 56.953125zm-65.578125-125.351562c14.207031 21.257812 30.9375 40.714843 49.820312 57.960937-8.582031.027344-17.625 2.195313-26.984375 6.488281-8.257812 3.789063-15.8125 8.757813-23.078125 13.839844-4.789062-25.738281-4.707031-52.59375.242188-78.289062zm61.503906-179.40625c.347656 1.617187 1.140625 3.613281 2.058594 5.925781.894531 2.253906 2.667969 6.722656 2.75 8.640625-1.511719-.613282-4.125-2.8125-5.199219-3.714844-.679688-.570312-1.28125-1.074219-1.761719-1.4375-2.21875-1.675781-4.480469-3.222656-6.667969-4.722656-4.121093-2.824219-8.011718-5.492188-11.507812-8.863282-5.566406-5.355468-10.359375-11.464843-14.25-18.15625-.273438-.464843-.613281-1.035156-1-1.683593-6.355469-10.636719-7.390625-14.410157-7.144531-15.679688.597656-2.144531-.660157-4.367187-2.804688-4.964843-2.144531-.597657-4.367187.660156-4.964843 2.804687-3.28125 11.796875-6.675782 23.992187-12.351563 34.96875-1.144531 2.226563-2.433594 4.445313-3.824219 6.597656-5.464844 8.445313-11.976562 14.722657-19.359375 18.703125-2.496093-.457031-5.03125-.660156-7.5625-.628906.902344-22.972656 7.339844-44.332031 18.6875-61.851562 12.429688-19.195313 31.207031-33.660157 51.519531-39.679688 28.535157-8.460938 61.878907-.027344 82.96875 20.976562 20.605469 20.53125 29.238282 52.800782 21.832032 80.921876-.652344.089843-1.300782.191406-1.945313.3125-.191406-.054688-.390625-.101563-.59375-.128907-31.679687-4.417969-60.332031-28.871093-69.675781-59.464843-.519531-1.699219-2.085938-2.855469-3.855469-2.855469-.003906 0-.007812 0-.011719 0-1.777343.003906-3.34375 1.171875-3.851562 2.875-3.9375 13.15625-4.449219 27.371093-1.484375 41.105469zm83.527344 26.015624c3.621093-.382812 7.292969-.121093 10.847656.679688.445313 22.722656-3.070313 45.117188-10.441406 66.597656-2.726563-.234375-5.421875-.800781-8.007813-1.722656 10.0625-20.03125 12.984375-43.871094 7.601563-65.554688zm33.125 16.621094c7 12.03125 5.527343 28.445313-3.5 39.039063-5.195313 6.09375-12.695313 10.007812-20.597657 11.292969 6.6875-20.507813 10.011719-41.785157 9.914063-63.371094 5.84375 2.917968 10.898437 7.394531 14.183594 13.039062zm-197.261719-104.808594c20.277344-23.320312 50.820312-37.8125 81.707031-38.769531 19.226563-.597656 37.65625 3.785157 53.308594 12.664063 16.457031 9.332031 29.375 23.542968 36.371094 40.019531 8.976562 21.128906 8.238281 45.527344 7.074219 67.542969-2.640626-.714844-5.347657-1.183594-8.070313-1.382813 7.058594-30.261719-2.484375-64.4375-24.507813-86.375-23.117187-23.027343-59.667968-32.273437-90.949218-22.996093-22.128906 6.554687-42.539063 22.238281-55.996094 43.023437-12.335938 19.054687-19.253906 42.261719-20.027344 67.144531-2.125.449219-4.21875 1.058594-6.257812 1.820313-2.214844-29.621094 7.867187-60.28125 27.347656-82.691407zm-38.792969 143.847657c-9.027343-10.59375-10.5-27.011719-3.503906-39.039063 3.285156-5.644531 8.34375-10.121094 14.183594-13.039062-.097657 21.585937 3.230469 42.863281 9.917969 63.371094-7.902344-1.285157-15.402344-5.199219-20.597657-11.292969zm37.988281 9.636719c-2.816406 1.085937-5.773437 1.722656-8.769531 1.980468-7.371093-21.480468-10.886719-43.875-10.441406-66.597656 3.984375-.898438 8.113281-1.089844 12.15625-.484375.167969 2.191406.335937 4.378906.5 6.574219.6875 9.300781 1.402344 18.914062 2.527344 28.363281 1.199219 10.042969 2.8125 20.257813 5.785156 29.921875-.582031-.046875-1.179687.019531-1.757813.242188zm21.03125 20.140624c-11.273437-13.894531-14.859374-32.847656-17.054687-51.261718-1.105469-9.265625-1.808594-18.792969-2.492187-28.003906-.1875-2.535157-.375-5.070313-.570313-7.605469 7.882813-4.644531 14.804687-11.523438 20.597656-20.480469 1.539063-2.375 2.960938-4.828125 4.226563-7.285156 3.933594-7.613282 6.792968-15.601563 9.242187-23.609375 1.132813 2.140625 2.457031 4.441406 3.9375 6.917969.367188.617187.6875 1.15625.945313 1.597656 4.269531 7.34375 9.527344 14.042968 15.628906 19.914062 3.976562 3.832032 8.332031 6.820313 12.546875 9.707032 2.109375 1.445312 4.292969 2.941406 6.371094 4.511718.394531.296875.875.707032 1.421875 1.167969 3.300781 2.777344 7.824218 6.582031 12.503906 5.617187 1.554688-.324218 3.714844-1.3125 5.164062-4.207031 2.007813-4.050781-.300781-9.863281-2.53125-15.480469-.722656-1.8125-1.46875-3.691406-1.675781-4.652343-1.722656-7.984375-2.144531-16.144531-1.28125-24.105469 13.03125 26.78125 39.039063 46.710938 68.582031 51.734375 7.265626 26.230469.960938 56.304687-16.371093 77.292969-9.246094 11.191406-21.570313 19.917968-35.675781 25.265625-.148438 0-.292969.003906-.4375.003906-.164063-.003906-.332032-.007813-.496094-.011719-.28125-.015625-.566406-.035156-.847656-.066406-.125-.011719-.253907-.023438-.378907-.039062-.308593-.039063-.617187-.089844-.921875-.144532-.109375-.023437-.21875-.039062-.332031-.0625-.308594-.0625-.617187-.140625-.925781-.222656-.109375-.03125-.21875-.054688-.328125-.085938-.296875-.089843-.59375-.1875-.890625-.292968-.113282-.039063-.226563-.074219-.339844-.117188-.285156-.105468-.566406-.226562-.84375-.347656-.117188-.050781-.234375-.097656-.351562-.152344-.277344-.128906-.550782-.273437-.820313-.417968-.105469-.058594-.214844-.109376-.320313-.167969-.371093-.210938-.730468-.433594-1.078124-.671875-1.40625-.957032-2.835938-3.617188-4.097657-5.960938-2.355469-4.386718-5.027343-9.359375-10.414062-9.941406-6.488281-.699219-11.582031 5.164062-15.683594 9.871094-1.523437 1.746094-3.09375 3.550781-4.210937 4.367187-.070313.054688-.175782.117188-.296876.191407-.042968.027343-.097656.058593-.148437.085937-.089844.050781-.179687.105469-.289063.164063-.070312.039062-.160156.085937-.242187.132812-.105469.054688-.203125.109375-.320313.167969-.09375.050781-.203124.101562-.304687.152343-.121094.066407-.246094.125-.378906.191407-.109375.054687-.230469.113281-.347657.171875-.144531.070312-.285156.136718-.433593.207031-.128907.0625-.261719.125-.394531.183594-.15625.074219-.3125.148437-.476563.222656-.140625.0625-.289063.128906-.433594.195313-.167969.074218-.339843.152343-.519531.230468-.148438.0625-.300781.128906-.453125.195313-.183594.078125-.371094.15625-.558594.234375-.15625.066406-.316406.136718-.480469.199218-.191406.078126-.382812.15625-.578124.234376-.164063.066406-.332032.132812-.5.199218-.199219.074219-.398438.152344-.601563.230469-.167969.0625-.335937.125-.507813.1875-.203124.074219-.410156.148437-.617187.222656-.167969.058594-.335937.117188-.507813.175781-.207031.074219-.410156.140626-.617187.207032-.171875.054687-.34375.113281-.515625.167968-.203125.0625-.410156.125-.613281.183594-.167969.050782-.335938.101563-.503907.148438-.207031.058594-.414062.113281-.621093.167968-.15625.039063-.316407.082032-.472657.121094-.214843.050782-.421874.097656-.632812.144532-.140625.027343-.285156.0625-.421875.089843-.019531.003907-.035156.007813-.054687.011719-10.632813-3.953125-19.59375-10.160156-25.953126-17.992188zm82.859376 25.109376-19.128907 31.503906c-1.703125 2.808594-3.566406 5.457031-5.632812 5.8125-2.300781.382812-5.136719-1.996094-7.074219-3.820313-9.847656-9.285156-18.113281-20.441406-24.175781-32.578125.105469-.019531.214843-.042968.320312-.066406.195313-.035156.394531-.074219.597657-.117188.230468-.046874.464843-.097656.703124-.152343.203126-.046875.410157-.097657.621094-.148438.238282-.058593.476563-.121093.71875-.1875.210938-.054687.421875-.113281.632813-.175781.242187-.066406.488281-.140625.734375-.214844.210937-.0625.425781-.128906.636718-.195312.246094-.078125.492188-.15625.738282-.238282.214844-.074218.425781-.144531.640625-.21875.246093-.082031.488281-.171874.730469-.257812.210937-.074219.421874-.148438.632812-.226562.246094-.089844.488281-.183594.730469-.277344.203125-.078125.40625-.15625.605469-.234375.242187-.09375.480468-.191407.71875-.289063.199218-.078125.394531-.15625.585937-.238281.238281-.097656.464844-.195313.695313-.296875.1875-.078125.371093-.15625.554687-.234375.230469-.101563.449219-.203125.671875-.300781.167969-.078125.34375-.15625.507812-.230469.222657-.101563.433594-.203125.644532-.300781.152344-.074219.3125-.148438.460937-.21875.207031-.101563.398438-.195313.589844-.292969.144531-.070313.289063-.140625.421875-.210937.191406-.09375.367188-.1875.542969-.28125.121093-.0625.246093-.128907.359375-.1875.171875-.09375.324218-.183594.484375-.269532.097656-.054687.203125-.113281.296875-.167968.15625-.089844.289062-.171876.425781-.257813.070313-.039063.148437-.085937.214844-.128906.1875-.121094.355469-.230469.492187-.332031 1.839844-1.34375 3.628906-3.398438 5.523438-5.574219 2.566406-2.949219 6.433594-7.410157 8.746094-7.152344 1.152343.125 3.042968 3.640625 4.171874 5.742187 1.785157 3.316407 3.625 6.742188 6.660157 8.808594.519531.351563 1.054687.683594 1.597656.992188.171875.101562.351563.1875.523437.28125.378907.203125.757813.402344 1.148438.585937.203125.097657.410156.183594.617188.273438.367187.164062.742187.324219 1.117187.46875.214844.078125.425781.152343.640625.226562.386719.136719.769531.261719 1.160156.378907.210938.0625.417969.121093.628906.175781.40625.105469.8125.207031 1.226563.292969.199219.042968.394531.082031.59375.121093.433594.078125.867187.144531 1.308594.199219.179687.023438.359375.050781.542969.070312.460937.050782.925781.078126 1.386718.101563.164063.007813.328125.023437.492188.027344.074218 0 .144531.007812.214844.011719zm-67.957032-3.1875c.507813.261718 1.019532.511718 1.535156.757812 6.628907 15.667969 16.667969 30.117188 29.058594 41.792969 3.066406 2.890625 7.121094 6.0625 12.03125 6.0625.628906 0 1.265625-.050781 1.921875-.160157 5.992188-1.03125 9.363281-6.59375 11.175781-9.582031l23.910157-39.375c.097656-.164062.179687-.335937.25-.507812 1.605469-.785157 3.1875-1.613281 4.734375-2.484375-.183594 9.671875 2.550781 24.425781 16.117187 40.929687-.246093.1875-.480469.402344-.6875.652344-19.765625 24.402344-38.558593 41.972656-60.386719 60.355469-19.761718-17.980469-37.109374-38.453125-51.609374-60.898438 7.160156-9.90625 12.65625-24.417968 11.949218-37.542968zm188.59375 244.515624c-.496094 5.695313-1.535156 11.78125-5.464844 13.730469-1.804687.894531-4.292968.914063-6.699218.9375l-42.300782.359375c-1.367187-29.160156-1.050781-58.675781.976563-87.78125.152344-2.222656-1.523437-4.148437-3.742187-4.300781-2.234376-.160156-4.148438 1.519531-4.300782 3.742187-2.042968 29.3125-2.363281 59.035157-1 88.40625l-166.28125 1.414063c-.242187-29.320313-2.320312-58.878906-6.207031-87.921875-.296875-2.207031-2.328125-3.753906-4.53125-3.460938-2.207031.296876-3.757813 2.324219-3.460937 4.53125 3.84375 28.710938 5.894531 57.9375 6.136718 86.917969l-47.925781.410157c-5.015625.046874-9.75-.125-12.644531-2.609376-3.632813-3.117187-3.816406-9.355468-3.472656-15.628906 1.578124-28.953125 4.566406-58.175781 8.882812-86.851562 3.164062-21.011719 7.714844-44.871094 21.785156-62.109375 8.890625-10.886719 21.113282-18.722657 32.9375-26.300781 7.996094-5.128907 16.164063-10.375 23.5625-16.636719-4.238281 26.675781-3.5 54.34375 2.222656 80.679687.289063 1.324219 1.222657 2.414063 2.484376 2.902344 1.261718.492188 2.6875.3125 3.789062-.472656 8.523438-6.046875 17.332031-12.304688 26.835938-16.660156 5.226562-2.402344 10.308593-4.054688 15.210937-4.953126l-.21875 64.894532c-.007813 2.503906-.023437 6.699218 2.953125 9.726562 2.449219 2.488282 5.699219 2.972656 8.304688 2.972656.984374 0 1.875-.070312 2.59375-.125 5.421874-.417968 11.523437-1.265624 15.320312-6.082031 3.207031-4.066406 3.25-9.320312 3.28125-12.792969.140625-17.792968-.328125-35.796874-1.386719-53.585937 4.277344 2.085937 8.515625 4.542969 12.855469 7.066406 7.460938 4.332031 15.175781 8.8125 23.621094 11.546875.410156.132813.832031.199219 1.242187.199219 1.511719 0 2.941407-.855469 3.628907-2.277344 12.851562-26.558593 17.582031-56.839843 13.566406-86.042969.273437.253907.539062.503907.820312.757813 6.449219 5.816406 13.453125 11.085937 20.226563 16.179687 9.378906 7.054688 19.082031 14.347657 27.039062 22.972657 20.875 22.609375 28.308594 52.507812 30.871094 73.601562 3.328125 27.378907.867187 55.472657-1.511719 82.644531zm0 0"/></svg>