<svg height="512pt" viewBox="-90 0 512 512.0009" width="512pt" xmlns="http://www.w3.org/2000/svg"><path d="m167.238281 502.824219c-1.738281-28.773438-1.621093-57.972657.351563-86.773438l.171875-2.46875 2.28125-.949219c3.398437-1.417968 5.902343-5.050781 7.394531-7.21875l77.882812-112.917968 3.105469 1.546875c3.214844 1.601562 6.9375 3.488281 10.476563 5.625 16.082031 9.753906 44.269531 34.957031 52.382812 94.230469 2.632813 19.28125 2.976563 38.96875 3.304688 58.003906.277344 15.980468.566406 32.503906 2.230468 48.914062l.445313 4.367188-52.03125.457031-.636719-3.261719c-5.332031-27.292968-6.59375-55.148437-3.753906-82.796875-2.847656 27.121094-1.675781 54.496094 3.417969 81.363281l.890625 4.703126-107.683594.96875zm0 0" fill="#59bd8b"/><path d="m19.679688 507.9375c-3.792969 0-7.75-.199219-10.75-2.5625-3.984376-3.121094-4.636719-8.816406-4.746094-14.503906-.792969-41.257813 2.382812-82.796875 9.449218-123.460938 2.632813-15.132812 6.027344-30.921875 15.90625-43.078125 8.214844-10.113281 19.917969-16.4375 31.203126-22.050781l3.882812-1.917969c1.515625-.746093 3.03125-1.496093 4.542969-2.257812l3.472656-1.753907 1.851563 3.417969c21.710937 40.109375 49.449218 76.414063 82.433593 107.902344 2.226563 2.113281 4.890625 4.394531 7.695313 5.226563l3.070312.910156-.214844 3.191406c-1.910156 28.359375-2.019531 57.09375-.320312 85.414062l.253906 4.199219-118.9375 1.070313.640625-4.589844c4.527344-32.519531 5.960938-65.582031 4.257813-98.28125 1.660156 33.117188.171875 66.578125-4.484375 99.460938l-.484375 3.410156-27.78125.25zm0 0" fill="#59bd8b"/><path d="m164.613281 378.351562c-26.023437-28.65625-49.59375-59.832031-70.054687-92.664062l-1.652344-2.652344 2.175781-2.246094c7.753907-8.003906 15.632813-22.152343 12.296875-35.679687l-.355468-1.429687c-.636719-2.453126-1.300782-5.023438-1.195313-7.636719.167969-3.46875 1.886719-6.40625 4.382813-7.515625l2.269531-1.007813 1.910156 1.589844c2.472656 2.054687 4.976563 3.894531 7.445313 5.472656 11.972656 7.648438 26.714843 11.859375 41.519531 11.859375 8.917969 0 17.523437-1.472656 25.582031-4.382812 8.746094-3.160156 16.871094-8.007813 24.144531-14.410156l1.519531-1.335938 1.976563.433594s-.085937-.003906-.152344-.003906c5.644531.128906 9.296875 6.542968 9.21875 12.453124-.035156 2.914063-.667969 5.832032-1.28125 8.652344-.628906 2.867188-1.210937 5.523438-1.300781 8.3125-.242188 7.476563 3.347656 15.320313 10.101562 22.085938l2.21875 2.21875-1.628906 2.683594c-19.667968 32.417968-40.84375 64.335937-62.9375 94.859374l-2.890625 3.992188zm0 0" fill="#d34242"/><path d="m167.039062 413.183594c-3.738281 0-7.050781-2.675782-10.074218-5.570313-32.925782-31.414062-60.640625-67.679687-82.367188-107.785156l-1.894531-3.488281 3.476563-1.917969c5.207031-2.871094 9.527343-5.671875 13.203124-8.554687l3.496094-2.746094 2.363282 3.769531c21.21875 33.867187 45.664062 65.882813 72.660156 95.160156-.019532.003907-.050782.011719-.089844.015625l.117188-.007812c22.925781-31.414063 44.859374-64.304688 65.203124-97.773438l2.246094-3.695312 3.511719 2.527344c.128906.089843.253906.1875.382813.285156.105468.078125.207031.15625.3125.230468 4.015624 2.8125 8.304687 5.097657 11.59375 6.773438l4.070312 2.074219-77.855469 112.902343c-2.445312 3.519532-5.394531 7.304688-9.550781 7.753907-.277344.03125-.539062.046875-.804688.046875zm0 0" fill="#cbe580"/><path d="m236.371094 251.6875c-2.6875 0-5.402344-.109375-8.070313-.328125l-4.53125-.363281.941407-4.449219c.488281-2.308594.964843-4.773437.992187-7.34375.066406-4.769531-2.214844-9.480469-5.546875-11.460937l-4.21875-2.515626 3.3125-3.621093c7.558594-8.265625 13.265625-18.011719 16.5-28.183594 3.84375-12.046875 4.632812-24.832031 5.398438-37.195313l4 .117188-3.996094-.234375c.128906-2.207031.292968-4.949219-.851563-7.1875-1.433593-2.804687-4.578125-4.296875-7.351562-5.613281l-.167969-.082032c-29.507812-14-54.140625-39.484374-67.519531-69.882812-.488281-1.089844-1.03125-2.660156-1.605469-4.324219l-.042969-.117187c-1.289062-3.710938-3.042969-8.746094-4.449219-8.746094-.039062 0-.082031 0-.125.003906-1.324218.105469-1.972656 3.777344-2.214843 5.160156-1.628907 9.089844-3.707031 17.347657-6.355469 25.261719-5.40625 16.144531-13.164062 31.433594-23.058594 45.4375-11.300781 16.007813-24.929687 29.726563-40.511718 40.773438 1.472656 17.164062 9.425781 34.300781 21.804687 47.03125l2.871094 2.953125-3.039063 2.785156c-1.644531 1.507812-2.652344 3.859375-2.765625 6.453125-.113281 2.648437.582031 5.335937 1.195313 7.703125l.171875.683594 1.394531 5.347656-5.515625-.34375c-18.292969-1.140625-36.507813-3.933594-54.140625-8.300781-4.125-1.023438-8.550781-2.574219-10.117188-6.304688-1.023437-2.4375-.574218-5.128906.066407-8.140625l21-98.875c4.453125-20.914062 9.054687-42.542968 17.796875-62.496094 6.832031-15.59375 19.425781-36.882812 40.613281-49.773437 12.332031-7.507813 26.761719-11.476563 41.730469-11.476563 13.21875 0 26.164062 3.160157 37.433594 9.140626 23.179687 12.296874 37.160156 34.292968 44.808593 50.582031 9.792969 20.835937 14.988281 43.613281 20.015625 65.640625l21.03125 92.128906c1.394532 6.054688 2.46875 12.371094-.914062 17.152344-2.128906 3.027344-5.660156 4.707031-9.160156 6.074218-11.757813 4.597657-24.140626 6.929688-36.808594 6.929688zm0 0" fill="#ffbf48"/><path d="m163.308594 246.398438c-14.746094 0-29.460938-4.21875-41.441406-11.875-18.71875-11.964844-32.003907-33.164063-34.675782-55.320313l-.28125-2.328125 1.894532-1.382812c14.804687-10.804688 27.8125-24.074219 38.660156-39.4375 9.882812-13.992188 17.640625-29.285157 23.054687-45.453126 2.214844-6.605468 4.011719-13.378906 5.492188-20.699218l2.894531-14.328125 4.804688 13.804687c.546874 1.570313 1.035156 2.957032 1.492187 3.992188 13.363281 30.363281 37.960937 55.832031 67.503906 69.894531l.097657.039063.109374.054687c2.773438 1.3125 5.917969 2.804687 7.335938 5.609375 1.136719 2.199219.980469 4.824219.839844 7.144531l-.007813.113281c-.765625 12.359376-1.554687 25.140626-5.386719 37.171876-7.039062 22.101562-24.96875 40.722656-46.785156 48.597656-8.082031 2.921875-16.695312 4.402344-25.601562 4.402344zm0 0" fill="#ffdac4"/><path d="m331.335938 504.738281c-2.058594-17.472656-2.375-35.488281-2.679688-52.90625-.339844-19.191406-.6875-39.039062-3.347656-58.476562-8.335938-60.953125-37.597656-87.03125-54.296875-97.152344-4.234375-2.566406-8.675781-4.765625-12.96875-6.890625-5.730469-2.839844-11.144531-5.519531-16.105469-8.992188-9.550781-6.691406-15.089844-15.667968-14.816406-24.019531.011718-.316406.050781-.636719.074218-.953125 3.042969.265625 6.09375.402344 9.144532.402344 13.074218 0 26.132812-2.441406 38.320312-7.210938 4.089844-1.601562 8.253906-3.621093 11-7.515624 4.332032-6.140626 3.074219-13.75 1.554688-20.402344l-21.027344-92.113282c-5.078125-22.242187-10.328125-45.238281-20.304688-66.476562-7.910156-16.847656-22.417968-39.621094-46.585937-52.441406-25.6875-13.625-58.335937-12.664063-83.175781 2.453125-17.488282 10.640625-32.085938 28.488281-42.21875 51.609375-8.9375 20.386718-13.585938 42.277344-18.082032 63.449218l-20.972656 98.71875c-.609375 2.851563-1.4375 6.757813.167969 10.566407 2.265625 5.378906 7.777344 7.394531 12.871094 8.65625 18.363281 4.554687 37.238281 7.402343 56.128906 8.496093-.714844 9.8125-6.761719 19.71875-13.265625 25.808594-8.09375 7.582032-18.566406 12.75-28.691406 17.75l-3.125 1.546875c-11.691406 5.8125-23.835938 12.386719-32.554688 23.121094-10.5 12.929687-14.152344 29.980469-16.75 44.949219-7.109375 40.914062-10.304687 82.710937-9.507812 124.230468.125 6.6875.980468 13.453126 6.308594 17.632813 4 3.140625 9.132812 3.421875 12.957031 3.421875.441406 0 .867187-.003906 1.269531-.007812l306.710938-2.75c1.148437-.011719 2.234374-.507813 2.992187-1.367188.753906-.855469 1.113281-2 .976563-3.136719zm-81.976563-210.761719-75.261719 109.132813c-1.921875 2.789063-4.183594 5.789063-6.683594 6.054687-2.390624.25-5.109374-1.980468-7.683593-4.4375-32.667969-31.175781-60.113281-67.105468-81.613281-106.796874 4.769531-2.628907 9.421874-5.519532 13.734374-8.917969 21.316407 34.035156 45.898438 66.238281 73.117188 95.753906.765625.828125 1.839844 1.296875 2.960938 1.296875.078124 0 .15625-.003906.234374-.007812 1.203126-.070313 2.3125-.671876 3.023438-1.648438 23.054688-31.613281 45.023438-64.585938 65.363281-98.042969.257813.183594.5.378907.761719.5625 3.855469 2.699219 7.949219 4.953125 12.046875 7.050781zm-19.027344-12.902343c-19.554687 32.238281-40.640625 64.03125-62.761719 94.59375-25.871093-28.492188-49.261718-59.445313-69.617187-92.097657 9.394531-9.6875 16.839844-25.089843 13.308594-39.410156-.117188-.480468-.242188-.964844-.363281-1.445312-.597657-2.316406-1.160157-4.507813-1.074219-6.515625.082031-1.855469.925781-3.535157 2.007812-4.019531 2.496094 2.089843 5.113281 4.023437 7.851563 5.769531 12.882812 8.238281 28.300781 12.5 43.671875 12.5 9.179687 0 18.347656-1.523438 26.9375-4.628907 9.316406-3.363281 17.953125-8.589843 25.429687-15.160156.226563.042969.457032.082032.695313.085938 3 .074218 5.273437 4.574218 5.226562 8.402344-.03125 2.53125-.601562 5.136718-1.203125 7.894531-.625 2.867187-1.273437 5.835937-1.378906 8.992187-.285156 8.664063 3.835938 17.601563 11.269531 25.039063zm-42.777343-42.835938c-20.667969 7.46875-45.007813 4.753907-63.527344-7.082031-17.878906-11.429688-30.320313-31.359375-32.863282-52.429688 15.152344-11.058593 28.457032-24.628906 39.570313-40.367187 10.117187-14.332031 18.054687-29.972656 23.582031-46.492187 2.257813-6.738282 4.105469-13.707032 5.613282-21.175782.5625 1.609375 1.09375 3.117188 1.609374 4.289063 13.757813 31.269531 39.113282 57.492187 69.5625 71.949219l.101563.046874c2.296875 1.089844 4.675781 2.21875 5.480469 3.792969.644531 1.265625.519531 3.324219.40625 5.140625-.746094 12.140625-1.515625 24.691406-5.207032 36.273438-6.671874 20.9375-23.660156 38.585937-44.328124 46.054687zm-145.109376-4.980469c-.574218-1.363281-.210937-3.414062.289063-5.761718l20.972656-98.71875c4.410157-20.773438 8.976563-42.253906 17.578125-61.886719 6.601563-15.058594 18.730469-35.605469 39.027344-47.957031 22.460938-13.667969 51.980469-14.539063 75.207031-2.214844 22.203125 11.777344 35.675781 33.007812 43.066407 48.742188 9.605468 20.453124 14.757812 43.019531 19.742187 64.84375l21.027344 92.113281c1.183593 5.183593 2.136719 10.53125-.28125 13.960937-1.523438 2.15625-4.433594 3.511719-7.351563 4.652344-13.660156 5.347656-28.496094 7.519531-43.105468 6.34375.554687-2.597656 1.054687-5.285156 1.089843-8.128906.074219-5.828125-2.683593-12.070313-7.503906-14.945313 7.820313-8.542969 13.863281-18.699219 17.359375-29.671875 3.996094-12.53125 4.796875-25.59375 5.574219-38.226562.15625-2.558594.375-6.066406-1.273438-9.292969-2.050781-4.019531-6.019531-5.90625-9.207031-7.417969l-.097656-.046875c-28.726563-13.636719-52.648438-38.386719-65.640625-67.910156-.433594-.988281-.964844-2.515625-1.527344-4.136719-2.285156-6.582031-4.085937-11.78125-8.671875-11.421875-4.394531.34375-5.335938 5.617188-5.839844 8.449219-1.585937 8.871094-3.617187 16.945312-6.207031 24.683594-5.28125 15.773437-12.859375 30.710937-22.527344 44.402344-11.046875 15.648437-24.359375 29.042968-39.5625 39.816406-1.167969.828125-1.808593 2.214844-1.6875 3.640625 1.59375 18.386719 10.035157 36.171875 22.941407 49.445312-2.382813 2.183594-3.902344 5.519531-4.066407 9.234375-.140625 3.203125.636719 6.214844 1.316407 8.875.0625.230469.117187.460938.179687.691406-17.988281-1.117187-35.953125-3.855468-53.4375-8.191406-2.96875-.738281-6.496094-1.855468-7.382813-3.964844zm-21.859374 270.675782c-3.808594.035156-7.109376-.070313-9.179688-1.695313-2.679688-2.101562-3.132812-6.746093-3.222656-11.445312-.789063-41.007813 2.371094-82.285157 9.386718-122.695313 2.539063-14.605468 5.789063-29.824218 15.070313-41.246094 7.699219-9.480468 18.984375-15.566406 29.882813-20.984374l3.101562-1.535157c1.777344-.878906 3.5625-1.761719 5.347656-2.660156 21.910156 40.472656 49.886719 77.105469 83.191406 108.886719 2.785157 2.660156 5.808594 5.132812 9.316407 6.171875-1.914063 28.519531-2.03125 57.40625-.320313 85.921875l-110.089844.988281c4.558594-32.742187 6.007813-66.035156 4.289063-99.039063-.117187-2.222656-2.011719-3.921874-4.234375-3.816406-2.226562.117188-3.933594 2.015625-3.816406 4.238282 1.714844 32.886718.230468 66.074218-4.390625 98.691406zm257.9375-2.316406c-5.25-26.898438-6.5-54.355469-3.703126-81.621094.226563-2.214844-1.382812-4.191406-3.597656-4.421875-2.21875-.226563-4.195312 1.382812-4.421875 3.601562-2.828125 27.558594-1.632812 55.304688 3.535157 82.515625l-99.101563.886719c-1.738281-28.625-1.613281-57.632813.351563-86.253906 4.480468-1.867188 7.421874-6.132813 9.148437-8.640625l75.90625-110.066406c3.449219 1.722656 6.9375 3.507812 10.1875 5.480468 15.472656 9.375 42.605469 33.710938 50.492187 91.347656 2.59375 18.964844 2.9375 38.566407 3.269532 57.527344.285156 16.152344.578125 32.8125 2.25 49.246094zm0 0"/></svg>