<svg height="512pt" viewBox="-81 0 512 512.00038" width="512pt" xmlns="http://www.w3.org/2000/svg"><path d="m183.308594 387.214844c21.1875-30.242188 33.105468-67.269532 33.566406-104.265625l.070312-5.542969 5.242188 1.816406c24.066406 8.34375 49.238281 12.574219 74.808594 12.574219 1.355468 0 2.710937-.011719 4.066406-.035156l14.765625-.265625-12.613281 7.679687c-20.824219 12.6875-43.3125 22.4375-66.839844 28.980469l23.621094 21.992188 4.125 3.828124-4.972656 2.636719c-12.859376 6.820313-25.519532 13.257813-37.761719 19.480469-10.140625 5.164062-21.640625 11.011719-32.9375 16.957031zm0 0" fill="#bc88e5"/><path d="m167.761719 394.636719c-26.222657-11.0625-52.199219-23.40625-77.222657-36.691407-1.296874-.6875-2.097656-1.214843-2.671874-1.765624l-2.488282-2.382813 1.988282-2.816406c.773437-1.089844 2.101562-2.175781 3.945312-3.21875l27.199219-15.308594c-27.136719-3.78125-53.496094-13.816406-76.234375-29.082031l-9.9375-6.671875 11.949218-.644531c27.667969-1.492188 55.378907-5.636719 82.351563-12.316407l4.394531-1.089843.542969 4.492187c4.433594 36.816406 18.585937 71.878906 40.925781 101.394531l9.007813 11.902344zm0 0" fill="#bc88e5"/><path d="m285.292969 507.90625 1.242187-80.9375-1.300781 80.945312-223.234375-.144531-.054688-3.941406c-.390624-28.210937-2.546874-56.613281-6.410156-84.425781 3.796875 27.726562 5.957032 56.089844 6.351563 84.3125l.054687 4.058594-22.445312-.011719c-9.230469-.011719-18.019532-.480469-24.140625-6.011719-6.140625-5.535156-7.496094-14.222656-8.441407-23.390625-1.945312-18.828125-3.960937-38.296875-2.140624-57.535156 2.027343-21.441407 8.894531-39.847657 19.867187-53.230469 17.332031-21.167969 45.597656-31.128906 68.308594-39.128906l1.496093-.984375 1.730469.453125c3.925781 1.046875 7.59375 1.914062 11.214844 2.644531l10.535156 2.136719-26.628906 14.980468c-3.660156 2.0625-5.253906 4.226563-4.746094 6.433594.429688 1.859375 2.269531 2.96875 3.957031 3.867188 27.664063 14.699218 56.453126 28.222656 85.578126 40.195312.003906-.003906.035156-.007812.09375-.023437l1.234374-.332031 1.199219.441406c14.574219-7.773438 28.925781-15.066406 42.808594-22.125l.890625-.453125c13.621094-6.933594 27.707031-14.101563 41.859375-21.703125l-22.558594-21.003906-5.074219-4.714844 6.617188-2.039063c3.351562-1.035156 6.433594-2.046875 9.425781-3.09375l2.507813-.878906 1.78125 1.96875.179687.117187c16 8.871094 32.546875 18.042969 47.023438 29.78125 16.371093 13.265626 27.726562 28.003907 33.75 43.800782 5.777343 15.136718 6.804687 31.21875 7.417969 47.738281.542968 14.496094.78125 29.183594.714843 43.65625-.027343 5.191406-.300781 10.152344-3.351562 13.722656-3.863281 4.511719-10.574219 4.886719-16.558594 4.886719zm0 0" fill="#985bbc"/><path d="m258.765625 232.671875c-2.929687 0-5.34375-.792969-7.171875-2.363281-2.453125-2.125-3.523438-5.488282-4.183594-8.1875-2.878906-11.8125-2.035156-23.78125-1.144531-36.453125.996094-14.085938 2.027344-28.652344-2.96875-41.984375-12.15625-.257813-23.773437-9.726563-26.472656-21.5625l-.035157-.011719c-2.902343 2.523437-6.789062 3.910156-10.976562 3.910156-1.894531 0-3.820312-.277343-5.726562-.824219-6.214844-1.804687-10.875-6.117187-12.46875-11.535156-4.957032 4.6875-12.054688 7.382813-19.515626 7.382813-7.519531 0-14.65625-2.730469-19.578124-7.488281-.550782 8.195312-5.058594 16.164062-11.8125 20.820312-4.460938 3.082031-10.015626 4.777344-15.636719 4.777344-2.75 0-5.4375-.402344-7.980469-1.191406 1.605469 6.164062.460938 13.09375-3.175781 19.046874-3.640625 5.945313-9.28125 10.125-15.480469 11.460938 1.257812 15 1.964844 30.125 2.074219 44.980469.046875 4.996093-.15625 10.195312-3.101563 13.976562-2.296875 2.957031-6.242187 4.726563-10.554687 4.726563-1.066407 0-2.144531-.109375-3.199219-.324219-4.355469-.875-8.6875-3.472656-12.875-7.707031-5.164062-5.214844-9.050781-11.679688-11.238281-18.691406-.28125-.882813-.546875-1.820313-.808594-2.757813-.898437-3.21875-1.824219-6.535156-3.851563-9.21875-1.675781-2.207031-3.875-3.761719-6.207031-5.40625-2.113281-1.484375-4.300781-3.027344-5.949219-5.054687-3.765624-4.679688-4.398437-12.03125-1.621093-18.742188 2.535156-6.136719 7.222656-11.09375 11.808593-15.648438-9.019531-8-10.289062-23.179687-2.71875-32.527343 1.453126-1.789063 3.183594-3.417969 4.859376-4.988281 3.5-3.300782 7.101562-6.691407 7.988281-11.363282.46875-2.492187.078125-5.054687-.300781-7.535156-.300782-1.933594-.605469-3.902344-.515626-5.867188.355469-8.210937 7.515626-14.285156 11.75-17.175781 2.015626-1.378906 4.074219-2.589843 6.253907-3.871093l.316406-.183594c3.964844-2.328125 8.039063-4.71875 11.414063-7.894532 2.46875-2.320312 4.546874-5.039062 6.550781-7.664062 1.949219-2.546875 3.777343-4.9375 5.96875-7.105469 6.234375-6.164062 14.980469-9.699219 23.992187-9.699219 2.207032 0 4.390625.222657 6.496094.65625 2.890625-8.90625 9.523438-16.980468 18.234375-22.179687 7.949219-4.738281 17.671875-7.140625 28.90625-7.140625 5.441406 0 11.199219.566406 17.105469 1.6875 9.257812 1.742188 17.53125 3.644531 25.003906 9.273438 2.210938 1.734374 12.207031 12.148437 14.160156 16.988281l.613282 1.511719-.621094 1.511718 1.09375-.875.183594.003906c3.691406-2.53125 8.277343-3.910156 13.085937-3.910156 4.898437 0 9.625 1.46875 13.304687 4.136719 8.023438 5.804687 11.453126 17.175781 7.976563 26.453125.550781-.003906 1.074219-.027344 1.597656-.027344 5.011719 0 9.953125 2.117188 13.921875 5.960938 4.378906 4.242187 6.707032 9.8125 6.390625 15.285156-.164062 2.785156-.875 5.457031-1.628906 8.289062-1.101563 4.167969-2.234375 8.449219-1.226563 12.628907 1.214844 5 5.214844 8.757812 9.082032 12.390625 4.421875 4.140625 8.582031 8.042968 9.101562 13.683594.417969 4.605468-1.871094 9.058593-4.085937 13.363281-2.730469 5.304687-5.308594 10.3125-3.085938 15.441406.914063 2.097656 2.546875 3.753906 4.121094 5.359375.96875.976562 1.835937 1.871094 2.605469 2.871094 5.0625 6.484375 4.347656 15.464844 1.984375 21.699218-2.75 7.222657-8.027344 13.398438-12.679688 18.851563-7.941406 9.316406-17.828125 20.917969-31.144531 25.023437-1.488281.460938-3.777344 1.007813-6.203125 1.007813zm0 0" fill="#644c4c"/><path d="m163.546875 235.640625c-1.339844 0-2.558594-.296875-3.625-.875-1.476563-.765625-2.679687-2.386719-3.074219-4.203125-.335937-1.527344-.046875-2.964844.8125-4.054688-5.015625 3.152344-10.746094 5.296876-16.609375 6.152344-.675781.097656-1.589843.21875-2.53125.21875-.996093 0-1.859375-.132812-2.636719-.40625-.480468-.160156-1.003906-.445312-1.492187-.824218l-2.761719-2.144532 1.757813-3.023437c.386719-.660157.976562-1.375 1.859375-2.25 5.128906-5.125 10.976562-9.574219 17.363281-13.199219l.621094-.355469c4.503906-2.546875 10.023437-5.671875 15.203125-6 1.105468-.0625 2.246094-.097656 3.394531-.097656 4.269531 0 8.730469.453125 12.90625 1.3125 11.660156 2.386719 22.195313 8.519531 29.664063 17.261719 1.480468 1.734375 3.078124 4.019531 2.429687 6.394531-.6875 2.574219-3.699219 3.8125-6.148437 4.09375-.582032.0625-1.152344.09375-1.722657.09375-5.039062 0-9.890625-2.320313-12.984375-6.207031-.539062 4.234375-4.765625 7.800781-9.28125 7.800781-.199218 0-.398437-.007813-.597656-.019531-4.367188-.269532-8.546875-3.769532-9.902344-8.316406-1.953125 2.414062-4.113281 5.160156-6.929687 6.917968-1.789063 1.117188-3.816407 1.730469-5.714844 1.730469zm0 0" fill="#644c4c"/><path d="m169.863281 276.878906c-16.976562 0-31.757812-3.5-43.941406-10.410156-17.398437-9.855469-28.832031-27.542969-29.125-45.0625l-.550781-1.0625.128906-1.140625c.203125-1.949219.21875-4.007813.210938-5.765625-.109376-13.859375-.726563-27.886719-1.835938-41.675781l-.246094-3.023438 2.84375-1.050781c5.09375-1.878906 9.574219-5.664062 12.625-10.652344 2.640625-4.320312 3.980469-9.117187 3.875-13.875l-.101562-4.539062 4.515625.472656c.945312.097656 1.910156.148438 2.863281.148438 5.570312 0 11.121094-1.710938 15.632812-4.816407 5.117188-3.527343 8.925782-8.804687 10.726563-14.855469l1.445313-4.875 4.398437 2.558594c4.339844 2.527344 9.453125 3.863282 14.777344 3.863282 5.722656 0 11.34375-1.605469 15.832031-4.523438l3.335938-2.164062 2.1875 3.324218c2.3125 3.527344 6.082031 6.1875 10.605468 7.492188 1.917969.554687 3.855469.835937 5.757813.835937 2.550781 0 4.953125-.496093 7.140625-1.472656l3.6875-1.652344 1.613281 3.710938c3.953125 9.101562 12.800781 15.730469 22.542969 16.890625l2.566406.304687.777344 2.464844c3.9375 12.5 3.023437 25.496094 2.058594 39.253906-.863282 12.191407-1.75 24.707031 1.140624 36.550781.367188 1.539063.796876 2.855469 1.3125 4.042969l.488282 1.121094-.222656 1.207031c-2.542969 13.621094-12.046876 26.757813-25.429688 35.144532-11.417969 7.15625-25.933594 11.46875-43.144531 12.808593-3.566407.28125-7.097657.421875-10.492188.421875zm-12.707031-45.144531c.558594 1.335937 1.558594 2.464844 2.746094 3.097656 1.058594.570313 2.320312.871094 3.652344.871094 1.929687 0 3.914062-.601563 5.746093-1.734375 1.128907-.707031 2.230469-1.609375 3.339844-2.75l3.0625-3.136719 2.84375 3.332031c2.003906 2.34375 4.761719 3.789063 7.570313 3.964844.179687.011719.359374.015625.542968.015625 2.832032 0 5.714844-1.410156 7.53125-3.679687l2.289063-2.867188 3.054687 2.035156c2.816406 1.878907 6.175782 2.914063 9.460938 2.914063.558594 0 1.121094-.03125 1.671875-.089844 3.246093-.355469 5.765625-2.085937 6.265625-4.308593.597656-2.660157-1.644532-5.296876-2.492188-6.289063-7.476562-8.761719-18.023437-14.894531-29.695312-17.277344-4.1875-.855469-8.648438-1.308593-12.90625-1.308593-1.160156 0-2.304688.035156-3.398438.101562-5.195312.3125-10.71875 3.4375-15.152344 5.953125l-.699218.398437c-6.425782 3.648438-12.277344 8.097657-17.402344 13.230469-.835938.832031-2.546875 2.523438-2.480469 4.496094.046875 1.621094 1.34375 3.1875 3.15625 3.824219.792969.28125 1.652344.417968 2.648438.417968.925781 0 1.847656-.117187 2.542969-.222656 3.71875-.539062 7.351562-1.582031 10.800781-3.101562l3.726562-1.640625zm0 0" fill="#efb17c"/><path d="m174.332031 390.820312c-25.648437-32.902343-41.191406-73.953124-43.769531-115.59375l-.382812-6.183593 5.792968 2.195312c9.980469 3.78125 21.390625 5.699219 33.910156 5.699219 3.429688 0 6.949219-.140625 10.46875-.417969 11.492188-.890625 21.878907-3.136719 30.867188-6.671875l5.230469-2.058594.230469 5.613282c1.707031 41.289062-11.40625 84.054687-35.976563 117.332031l-3.132813 4.242187zm0 0" fill="#efb17c"/><path d="m134.535156 236.300781c2.503906.886719 4.996094.691407 7.105469.382813 4.054687-.589844 8.050781-1.746094 11.820313-3.402344.914062 2.167969 2.53125 3.996094 4.554687 5.082031 1.675781.894531 3.574219 1.335938 5.542969 1.335938 2.621094 0 5.359375-.785157 7.84375-2.332031 1.554687-.96875 2.898437-2.128907 4.101562-3.359376 2.644532 3.089844 6.386719 5.113282 10.363282 5.363282 4.472656.277344 8.789062-1.832032 11.453124-5.164063 4.019532 2.6875 8.988282 4.003907 13.785157 3.476563 5.023437-.554688 8.84375-3.457032 9.730469-7.398438 1.042968-4.628906-2.261719-8.5-3.347657-9.769531-8.050781-9.433594-19.398437-16.039063-31.945312-18.609375-5.671875-1.160156-11.828125-1.613281-17.34375-1.277344-6.152344.371094-12.144531 3.777344-16.960938 6.515625l-.628906.355469c-6.710937 3.804688-12.851563 8.476562-18.253906 13.878906-1.128907 1.125-3.765625 3.761719-3.652344 7.457032.101563 3.269531 2.445313 6.273437 5.832031 7.464843zm3.515625-9.21875c4.894531-4.890625 10.457031-9.121093 16.535157-12.566406l.632812-.363281c4.09375-2.324219 9.1875-5.21875 13.46875-5.476563 4.832031-.292969 10.238281.105469 15.238281 1.128907 10.796875 2.210937 20.539063 7.871093 27.429688 15.945312 1.75 2.046875 1.621093 2.730469 1.613281 2.761719-.054688.253906-1.089844.972656-2.746094 1.152343-4.144531.460938-8.515625-1.355468-11.121094-4.625-1.015624-1.273437-2.695312-1.8125-4.261718-1.363281s-2.707032 1.796875-2.894532 3.414063c-.269531 2.339844-3 4.410156-5.570312 4.234375-2.742188-.175781-5.46875-2.53125-6.347656-5.480469-.429688-1.445312-1.628906-2.53125-3.109375-2.8125-1.488281-.28125-2.996094.289062-3.925781 1.472656-1.789063 2.28125-3.636719 4.636719-5.847657 6.015625-1.851562 1.148438-3.988281 1.445313-5.320312.730469-.496094-.265625-.933594-.898438-1.066407-1.542969-.066406-.316406-.046874-.613281.046876-.734375 1.21875-1.546875 1.144531-3.75-.183594-5.207031-.785156-.867187-1.878906-1.316406-2.984375-1.316406-.75 0-1.511719.207031-2.179688.640625-4.5 2.902344-9.679687 4.839844-14.980469 5.613281-1.132812.167969-2.40625.296875-3.257812-.003906-.148438-.054688-.277344-.136719-.371094-.210938.140625-.234375.460938-.664062 1.203125-1.40625zm0 0"/><path d="m349.304688 445.523438c-.605469-16.214844-1.699219-33.359376-7.679688-49.039063-6.292969-16.484375-18.0625-31.796875-34.988281-45.511719-13.363281-10.828125-28.324219-19.449218-43.039063-27.632812 19.222656-7.53125 37.507813-17.25 54.605469-29.042969 1.503906-1.039063 2.121094-2.960937 1.507813-4.679687-.617188-1.722657-2.320313-2.816407-4.136719-2.65625-31.917969 2.695312-64.65625-1.65625-94.789063-12.558594-.050781-1.472656-.121094-2.941406-.207031-4.40625 1.75-.914063 3.449219-1.875 5.082031-2.902344 12.6875-7.953125 21.804688-19.382812 25.800782-32.03125 2.132812 1.105469 4.605468 1.675781 7.335937 1.675781 2.296875 0 4.773437-.394531 7.367187-1.191406 14.449219-4.445313 24.761719-16.546875 33.050782-26.269531 4.871094-5.714844 10.390625-12.191406 13.375-20.042969 3.527344-9.273437 2.535156-19.109375-2.589844-25.671875-.925781-1.183594-1.921875-2.199219-2.890625-3.1875-1.378906-1.410156-2.6875-2.738281-3.296875-4.144531-1.355469-3.113281.21875-6.59375 2.972656-11.949219 2.363282-4.605469 5.046875-9.824219 4.519532-15.59375-.65625-7.171875-5.808594-12.007812-10.355469-16.269531-3.59375-3.375-6.992188-6.5625-7.921875-10.398438-.773438-3.1875.1875-6.796875 1.207031-10.621093.769531-2.902344 1.566406-5.90625 1.75-9.101563.382813-6.660156-2.394531-13.378906-7.617187-18.4375-3.792969-3.671875-8.417969-6.027344-13.207032-6.816406 1.382813-9.699219-2.742187-20.167969-10.734375-25.945313-7.761719-5.617187-18.578125-6.386718-27.242187-2.4375-4.15625-7.511718-14.375-16.769531-14.503906-16.867187-8.171876-6.164063-16.929688-8.195313-26.707032-10.039063-19.292968-3.644531-36.183594-1.582031-48.84375 5.964844-8.621094 5.140625-15.1875 12.5625-18.785156 21.144531-11.171875-1.207031-22.683594 2.726563-30.714844 10.675781-2.398437 2.375-4.398437 4.992188-6.335937 7.519532-2.003907 2.625-3.898438 5.101562-6.113281 7.183594-3.046876 2.867187-6.757813 5.042968-10.683594 7.34375-2.246094 1.316406-4.570313 2.679687-6.804688 4.203124-8.394531 5.722657-13.195312 12.953126-13.523437 20.351563-.105469 2.347656.230469 4.527344.554687 6.632813.347656 2.25.675782 4.378906.332032 6.199218-.640626 3.378906-3.484376 6.058594-6.78125 9.152344-1.78125 1.675781-3.621094 3.40625-5.230469 5.390625-7.972657 9.847656-7.578125 25.21875.253906 35.007813-3.933594 4.101562-7.65625 8.636718-9.945313 14.183593-3.382812 8.191407-2.535156 16.9375 2.210938 22.824219 1.996094 2.472656 4.425781 4.1875 6.773438 5.84375 2.070312 1.457031 4.027343 2.839844 5.308593 4.535156 1.5625 2.0625 2.347657 4.875 3.183594 7.851563.269531.96875.539063 1.9375.839844 2.886719 2.382812 7.628906 6.609375 14.664062 12.234375 20.339843 4.757812 4.808594 9.789062 7.777344 14.953125 8.828125 5.652343 1.148438 11.347656-.191406 15.359375-3.449218 3.800781 15.058593 14.671875 29.121093 29.707031 37.640624.78125.441407 1.570313.867188 2.367187 1.28125.113282 2.746094.28125 5.488282.503907 8.226563-30.796875 7.71875-62.496094 12.082031-94.234375 12.957031-1.707032.046875-3.195313 1.160156-3.722656 2.78125-.53125 1.625.023437 3.402344 1.371093 4.441406 15.816407 12.1875 33.492188 21.683594 52.242188 28.195313-21.25 7.710937-45.203125 17.898437-60.953125 37.128906-11.484375 14.023438-18.664063 33.1875-20.765625 55.425781-1.855469 19.609376.179687 39.296876 2.148437 58.332032.988282 9.589844 2.558594 19.492187 9.757813 25.988281 7.199219 6.5 17.210937 7.050781 26.851562 7.054687l286.457031.179688h.09375c6.917969 0 14.695313-.503906 19.65625-6.3125 3.945313-4.621094 4.300782-10.605469 4.328126-16.339844.066406-14.5625-.175782-29.304687-.71875-43.824218zm-48.175782-149.757813c-20.511718 12.496094-42.59375 22.074219-65.824218 28.535156-1.40625.394531-2.492188 1.515625-2.839844 2.933594-.34375 1.417969.105468 2.914063 1.175781 3.90625l23.632813 21.9375c-12.742188 6.761719-25.402344 13.203125-37.695313 19.453125-10.769531 5.480469-21.828125 11.109375-32.992187 16.976562 21.679687-30.949218 33.816406-68.714843 34.292968-106.507812 25.664063 8.898438 53.054688 13.25 80.25 12.765625zm-210.871094-70.796875c-1.984374 2.546875-5.917968 3.734375-9.800781 2.941406-3.570312-.722656-7.214843-2.945312-10.828125-6.597656-4.71875-4.765625-8.265625-10.667969-10.265625-17.070312-.273437-.875-.523437-1.765626-.773437-2.65625-.953125-3.40625-2.035156-7.261719-4.515625-10.542969-2.039063-2.699219-4.609375-4.507813-7.09375-6.261719-1.980469-1.398438-3.851563-2.71875-5.144531-4.316406-2.851563-3.535156-3.257813-9.300782-1.035157-14.683594 2.25-5.449219 6.636719-10.070312 10.933594-14.335938.792969-.785156 1.222656-1.867187 1.191406-2.980468-.03125-1.117188-.523437-2.167969-1.359375-2.90625-7.355468-6.492188-8.429687-19.347656-2.257812-26.972656 1.261718-1.558594 2.828125-3.03125 4.484375-4.585938 3.777343-3.550781 8.054687-7.574219 9.179687-13.53125.601563-3.179688.132813-6.230469-.28125-8.921875-.277344-1.800781-.539062-3.5-.472656-5.050781.289062-6.480469 6.398438-11.582032 10.011719-14.046875 2.007812-1.371094 4.113281-2.601563 6.34375-3.910157 4.136719-2.425781 8.417969-4.933593 12.128906-8.425781 2.695313-2.53125 4.878906-5.390625 6.992187-8.15625 1.851563-2.417969 3.601563-4.707031 5.601563-6.6875 6.863281-6.792969 17.40625-9.921875 26.867187-7.972656 2.011719.417969 4.023438-.753906 4.65625-2.714844 2.554688-7.964843 8.546876-15.234375 16.4375-19.941406 13.820313-8.238281 31.128907-7.25 43.21875-4.964844 8.761719 1.652344 16.566407 3.4375 23.335938 8.542969 2.230469 1.753906 11.367188 11.601562 12.867188 15.285156-.546876 1.316406-.378907 2.882813.578124 4.074219 1.394532 1.734375 3.929688 2.015625 5.667969.621094.003907-.003907.003907-.003907.007813-.003907 6.261718-5.023437 16.261718-5.273437 22.765625-.566406 6.503906 4.707032 9.394531 14.285156 6.582031 21.808594-.488281 1.296875-.273438 2.753906.566406 3.855469.839844 1.101562 2.179688 1.695312 3.566406 1.574219 4.3125-.390626 8.804688 1.355468 12.34375 4.78125 3.539063 3.429687 5.421876 7.867187 5.175782 12.183593-.136719 2.378907-.796875 4.863281-1.496094 7.492188-1.171875 4.414062-2.503906 9.417969-1.246094 14.59375 1.496094 6.171875 6.140625 10.53125 10.238282 14.375 4.007812 3.757812 7.46875 7.003906 7.84375 11.128906.3125 3.433594-1.617188 7.191406-3.664063 11.171875-2.890625 5.628906-6.167969 12.007812-3.191406 18.855469 1.203125 2.765625 3.1875 4.789062 4.933593 6.570312.847657.863281 1.648438 1.679688 2.292969 2.503907 4.0625 5.203124 3.390625 12.628906 1.410157 17.839843-2.492188 6.550781-7.316407 12.207031-11.980469 17.679688-7.609375 8.929687-17.078125 20.039062-29.28125 23.792969-1.980469.609374-6.871094 1.769531-9.59375-.570313-1.589844-1.367187-2.386719-3.976563-2.90625-6.097656-2.730469-11.195313-1.910157-22.863281-1.035157-35.214844 1.023438-14.53125 2.082032-29.550781-3.210937-43.671875-.582031-1.542969-2.042969-2.582031-3.691406-2.613281-10.386719-.214844-20.324219-8.3125-22.628907-18.441407-.316406-1.386718-1.339843-2.503906-2.691406-2.941406-.40625-.132812-.824218-.199218-1.242187-.199218-.964844 0-1.914063.347656-2.664063 1.007812-3.210937 2.824219-8.046875 3.667969-12.933594 2.253906-4.890624-1.417968-8.53125-4.710937-9.738281-8.816406-.398437-1.347656-1.46875-2.394531-2.832031-2.757812-1.351562-.359376-2.808594.011718-3.824219.984374-8.789062 8.410157-24.753906 8.371094-33.496093-.082031-1.128907-1.089843-2.792969-1.425781-4.257813-.859375-1.46875.570313-2.46875 1.941406-2.566406 3.511719-.433594 6.976563-4.277344 13.777344-10.035157 17.746094-5.753906 3.96875-13.480468 5.144531-20.160156 3.0625-1.402344-.4375-2.929687-.074219-3.988281.945312-1.0625 1.015625-1.484375 2.53125-1.101563 3.949219 1.359376 5.074219.378907 10.867188-2.691406 15.886719-3.066406 5.019531-7.773437 8.53125-12.910156 9.636719-1.984375.425781-3.34375 2.265624-3.167969 4.289062 1.273438 14.777344 1.972657 29.792969 2.089844 44.636719.039063 4.480469-.109375 8.730469-2.257813 11.488281zm10.539063-3.628906c-.011719-.625-.175781-1.203125-.4375-1.726563.210937-2.058593.238281-4.144531.222656-6.195312-.109375-13.953125-.730469-28.058594-1.847656-41.980469 5.898437-2.171875 11.113281-6.523438 14.652344-12.3125 3.050781-4.992188 4.582031-10.609375 4.460937-16.058594 7.394532.777344 14.992188-1.085937 21.175782-5.351562 5.933593-4.085938 10.265624-10.171875 12.289062-17.007813 10.503906 6.113281 24.59375 5.867188 34.804688-.753906 2.8125 4.277344 7.332031 7.546875 12.839843 9.140625 5.464844 1.582031 10.992188 1.242188 15.632813-.832031 4.476562 10.292969 14.5625 17.941406 25.742187 19.269531 3.71875 11.792969 2.828125 24.476562 1.882813 37.851562-.875 12.425782-1.78125 25.277344 1.25 37.695313.355468 1.460937.832031 3.082031 1.527344 4.691406-2.335938 12.546875-11.109376 24.648438-23.617188 32.492188-10.859375 6.808593-24.765625 10.914062-41.332031 12.210937-20.65625 1.609375-38.199219-1.578125-52.144531-9.484375-16.191407-9.171875-26.828126-25.519531-27.101563-41.648437zm69.089844 59.605468c3.503906 0 7.101562-.144531 10.785156-.433593 11.941406-.933594 22.648437-3.261719 32.019531-6.9375 1.671875 40.675781-11.023437 82.03125-35.199218 114.789062-25.289063-32.433593-40.398438-72.339843-42.941407-113.386719 10.453125 3.964844 22.273438 5.96875 35.335938 5.96875zm-42.28125 6.671876c4.503906 37.359374 18.980469 73.304687 41.710937 103.339843-26.097656-11.019531-51.929687-23.28125-76.898437-36.542969-1.039063-.554687-1.546875-.90625-1.785157-1.125.242188-.339843.921876-1.070312 2.65625-2.046874l27.1875-15.304688c1.507813-.847656 2.308594-2.566406 1.984376-4.265625-.324219-1.703125-1.699219-3.007813-3.414063-3.242187-26.6875-3.660157-52.238281-13.410157-74.542969-28.375 28-1.515626 55.890625-5.691407 83.101563-12.4375zm211.957031 212.832031c-2.734375 3.207031-8.402344 3.488281-13.519531 3.488281-.03125 0-.0625 0-.09375 0l-36.59375-.023438 1.179687-76.882812c.03125-2.230469-1.746094-4.0625-3.972656-4.09375-.019531 0-.039062 0-.0625 0-2.199219 0-3.996094 1.765625-4.03125 3.96875l-1.179688 77.003906-215.34375-.136718c-.390624-28.324219-2.550781-56.878907-6.457031-84.921876-.308593-2.203124-2.347656-3.746093-4.546875-3.4375-2.207031.308594-3.746094 2.34375-3.4375 4.550782 3.855469 27.675781 5.988282 55.851562 6.375 83.804687l-18.386718-.011719c-8.410157-.007812-16.375-.390624-21.457032-4.976562-5.082031-4.585938-6.277344-12.472656-7.144531-20.835938-1.925781-18.644531-3.917969-37.929687-2.136719-56.746093 1.949219-20.636719 8.511719-38.296875 18.976563-51.070313 16.632812-20.3125 44.316406-30.0625 66.558593-37.898437.3125-.109375.59375-.261719.859376-.433594 3.78125 1.015625 7.597656 1.925781 11.445312 2.699219l-17.265625 9.71875c-6.707031 3.777344-7.332031 7.964844-6.675781 10.816406.875 3.789062 4.324218 5.621094 5.980468 6.5 27.851563 14.792969 56.757813 28.367188 85.929688 40.355469.5.203125 1.019531.300781 1.53125.300781.382812 0 .761719-.054688 1.125-.164062.460938.179687.953125.277343 1.449219.277343.644531 0 1.296875-.15625 1.902343-.480469 14.417969-7.738281 28.777344-15.039062 42.664063-22.105468 13.929687-7.082032 28.332031-14.410156 42.832031-22.191406 1.144532-.617188 1.925782-1.75 2.09375-3.039063.164063-1.289063-.304687-2.582031-1.257812-3.46875l-22.570313-20.957031c3.214844-.984375 6.40625-2.035156 9.574219-3.136719.289062.316406.621094.605469 1.015625.824219 15.917969 8.816406 32.375 17.933594 46.636719 29.492187 15.808594 12.808594 26.753906 26.980469 32.53125 42.121094 5.546875 14.539063 6.550781 30.277344 7.15625 46.464844.539062 14.40625.78125 29.035156.714844 43.484375-.019532 4.417968-.21875 8.589844-2.398438 11.140625zm0 0"/></svg>