<svg height="511pt" viewBox="-80 0 511 511.99894" width="511pt" xmlns="http://www.w3.org/2000/svg"><path d="m229.503906 356.390625c-2.152344 0-4.410156-.625-6.332031-1.242187-10.535156-3.347657-20.890625-7.71875-30.773437-12.988282l-3.707032-1.976562 2.15625-3.605469c2.578125-4.3125 3.085938-9.167969 1.429688-13.664063l-1.105469-3 2.679687-1.738281c11.863282-7.695312 24.335938-14.558593 37.074219-20.390625 1.28125-.585937 2.261719-.914062 3.09375-1.046875l3.238281-.507812 1.136719 3.078125c.246094.671875.429688 1.546875.570313 2.75 1.691406 14.25 1.558594 28.730468-.402344 43.027344-.558594 4.03125-1.597656 8.40625-5.042969 10.34375-1.128906.636718-2.484375.960937-4.015625.960937zm0 0" fill="#ed6d66"/><path d="m174.398438 346.1875c-3.394532 0-6.566407-1.023438-9.425782-3.039062-1.839844-1.296876-3.375-2.953126-4.5625-4.917969-1.179687-1.925781-1.96875-4.066407-2.328125-6.34375-.734375-4.5.292969-8.910157 2.890625-12.402344 3.28125-4.445313 8.9375-7.105469 15.117188-7.105469.195312 0 .394531.003906.601562.011719 5.871094.164063 10.898438 2.757813 13.800782 7.125 5.4375 8.152344 1.867187 16.414063-2.835938 21.003906-3.707031 3.605469-8.535156 5.667969-13.257812 5.667969zm0 0" fill="#ed6d66"/><path d="m126.269531 358.015625c-1.144531 0-2.203125-.222656-3.140625-.65625-3.746094-1.703125-5.019531-6.488281-5.710937-10.464844-2.214844-12.871093-3.484375-26.007812-3.769531-39.046875-.019532-.859375.011718-1.589844.097656-2.226562l.503906-3.789063 3.808594.332031c.417968.039063.898437.113282 1.503906.238282 13.355469 2.65625 26.5 7.996094 37.992188 15.429687l2.8125 1.820313-1.300782 3.089844c-1.195312 2.835937-1.558594 6.003906-1.046875 9.160156.226563 1.421875.652344 2.851562 1.273438 4.257812l1.535156 3.492188-3.332031 1.660156c-7.445313 5.851562-15.535156 10.792969-24.089844 14.714844-2.15625.984375-4.683594 1.988281-7.136719 1.988281zm0 0" fill="#ed6d66"/><path d="m188.894531 317.429688c-3.019531-3.167969-7.378906-4.980469-12.273437-5.101563-.171875-.003906-.347656-.007813-.519532-.007813-5.082031 0-9.96875 1.867188-13.398437 5.121094l-2.285156 2.167969-2.644531-1.714844c-7.054688-4.578125-14.65625-8.347656-22.597657-11.199219l-1.757812-.632812-.644531-1.757812c-.03125-.089844-.0625-.179688-.089844-.265626-2.390625-5.789062-4.265625-11.867187-5.570313-18.089843l-2.300781-10.972657 8.726562 7.039063c7.636719 6.15625 16.902344 12.875 27.773438 16.023437 3.996094 1.164063 7.96875 1.761719 11.804688 1.78125h.246093l.070313.007813c8.519531-.027344 17.390625-2.839844 26.394531-8.359375 6.09375-3.726562 11.574219-8.304688 15.675781-11.875l9.425782-8.210938-7.078126 29.597657.492188 2.851562-2.558594 1.359375c-7.460937 3.96875-14.804687 8.289063-21.820312 12.835938l-2.78125 1.804687zm0 0" fill="#fff"/><path d="m175.339844 400.300781c-10.210938-15.484375-18.917969-32.070312-25.878906-49.304687l-1.203126-2.980469 2.65625-1.816406c2.375-1.625 4.5-3.175781 6.488282-4.730469l2.699218-2.769531 2.867188 2.824219c.691406.683593 1.335938 1.234374 1.972656 1.683593 2.84375 2.003907 5.984375 3.023438 9.335938 3.023438 4.152344 0 8.550781-1.628907 12.066406-4.46875l2.082031-1.683594 2.351563 1.28125c3.988281 2.179687 8.125 4.242187 12.300781 6.125l4.328125 1.957031-2.558594 3.773438-25.632812 52.964844zm0 0" fill="#d8deec"/><g fill="#5b5d6d"><path d="m224.367188 273.980469 5.058593 5.128906c1.535157 1.554687 3.128907 3.042969 4.734375 4.429687 2.492188 2.121094 5.15625 4.265626 8.125 6.53125l3.1875 2.429688-5.449218 7.109375-3.097657-2.410156-.074219-.046875c-.578124-.367188-1.203124-.539063-1.972656-.539063-1.566406 0-3.195312.75-3.976562 1.109375-1.796875.820313-3.703125 1.722656-6.195313 2.933594l-7.605469 3.695312zm0 0"/><path d="m322.167969 507.941406c-.753907 0-1.507813-.007812-2.265625-.019531l-35.460938-.660156-.1875-3.730469c-1.285156-25.640625-.71875-51.511719 1.683594-76.898438-2.441406 25.226563-3.015625 50.914063-1.773438 76.351563l.210938 4.277344-105.972656-1.964844.128906-4.050781c.816406-25.875 1.027344-52.179688.625-78.183594l-.023438-1.808594 1.339844-1.214844c25.101563-22.742187 55.710938-39.011718 88.515625-47.050781l-13.722656-20.171875c-.800781-1.167968-1.175781-1.757812-1.390625-2.484375l-.335938-1.125.328126-1.128906c.527343-1.828125 2.464843-3.453125 4.710937-3.953125.847656-.183594 1.738281-.265625 2.820313-.265625.816406 0 1.644531.046875 2.445312.09375.863281.054687 1.746094.109375 2.601562.109375h.1875c4.503907-.039062 8.148438-2.070312 9.289063-5.179688 1.082031-2.960937-.296875-6.40625-1.207031-8.6875l-9.882813-24.636718 10.816407 7.320312c11.027343 7.460938 22.585937 15.863282 32.433593 26.738282 15.460938 17.058593 26.292969 39.929687 32.191407 67.980468 5.238281 24.941406 6.027343 50.757813 6.792968 75.722656.203125 6.683594.097656 12.59375-3.28125 17.242188-4.742187 6.503906-13.589844 7.378906-21.617187 7.378906zm0 0"/><path d="m178.960938 412.539062c-.03125-1.5-.0625-2.992187-.101563-4.480468l-.023437-.980469.554687-1.136719.015625-.027344 25.582031-52.84375 1.4375-4.046874 3.867188 1.554687c4.207031 1.695313 8.53125 3.253906 12.859375 4.628906 1.550781.496094 3.886718 1.242188 6.324218 1.242188 1.582032 0 2.914063-.316407 4.074219-.964844 2.761719-1.554687 4.273438-4.660156 5.0625-10.390625 1.964844-14.257812 2.101563-28.742188.410157-43.054688-.144532-1.226562-.417969-3.5-1.855469-4.664062l-3.523438-2.472656 2.480469-3.355469 3.007812-3.925781 3.179688 2.472656.28125.207031c6.777344 5.136719 13.886719 9.882813 21.175781 14.691407l1.046875.6875 9.824219 24.511718c1.160156 2.894532 2.210937 5.949219 1.214844 8.679688-1.359375 3.738281-5.8125 5.101562-9.210938 5.128906h-.230469c-.800781 0-1.621093-.046875-2.417968-.09375-.976563-.0625-1.78125-.113281-2.605469-.113281-1.085937 0-1.984375.085937-2.832031.273437-2.613282.582032-5.222656 2.882813-4.875 5.578125.164062 1.21875.917968 2.320313 1.523437 3.207031l13.675781 20.023438-5.40625 1.484375c-28.417968 7.8125-55.367187 22.042969-77.933593 41.15625l-6.414063 5.433594zm0 0"/><path d="m66.878906 503.234375.8125-4.609375c4.550782-25.871094 6.605469-52.25 6.101563-78.398438v-.027343h-.039063c.488282 26.578125-1.636718 53.378906-6.347656 79.675781l-.601562 3.359375-46.890626-.875c-3.972656-.070313-7.5-.28125-10.339843-2.167969-6.289063-4.191406-5.367188-13.578125-4.128907-20.269531l16.28125-88.019531c3.605469-19.496094 7.691407-41.582032 21.78125-57.6875 9.511719-10.871094 22.164063-17.566406 36.511719-24.589844l1.410157-.691406c3.871093-1.898438 7.863281-3.851563 11.753906-5.902344l11.902344-6.269531-25.34375 45.523437c-.535157.957032-1.066407 2.058594-.664063 3.070313.363281.914062 1.3125 1.441406 3.175781 1.746093l16.175782 2.621094c.484374.066406.933593.160156 1.28125.238282l4.789062 1.109374-2.058594 4.460938c-.378906.824219-.945312 1.710938-1.683594 2.640625l-11.082031 13.910156c-1.25 1.578125-3.328125 4.195313-2.960937 6.917969.539062 4.003906 5.382812 5.585938 8.980468 6.425781 28.824219 6.769531 56.230469 18.097657 81.472657 33.667969l.914062.566406.769531 1.433594.089844.390625.136719.414063.011719.609374c.410156 26.355469.203125 52.882813-.621094 78.839844l-.128906 3.945313zm0 0"/><path d="m172.875 416.414062c-24.023438-14.214843-49.984375-24.660156-77.160156-31.050781-3.550782-.835937-8.335938-2.40625-8.929688-6.3125-.328125-2.558593 1.265625-4.8125 2.929688-6.90625l11.085937-13.933593c1.566407-1.964844 3.132813-4.71875 1.707031-6.714844-.875-1.230469-2.421874-1.570313-4.0625-1.835938l-20.855468-3.382812 26.234375-47.113282-.03125-2.171874 1.792969-1.253907c4.589843-3.074219 8.453124-6.207031 11.808593-9.578125.832031-.832031 1.691407-1.761718 2.5625-2.765625l5.332031-6.167969 1.613282 7.996094c.917968 4.558594 2.144531 9.054688 3.644531 13.363282l2.464844 7.085937-7.253907-1.898437c-2.097656-.550782-4.1875-1.035157-6.210937-1.4375-.597656-.117188-1.332031-.261719-2.109375-.261719-.871094 0-1.574219.183593-2.152344.566406-1.578125 1.042969-1.742187 3.210937-1.695312 5.199219.289062 13.117187 1.558594 26.257812 3.773437 39.0625.476563 2.785156 1.476563 8.570312 5.753907 10.535156.949218.433594 1.96875.644531 3.105468.644531 2.519532 0 5.179688-1.066406 7.214844-1.996093 3.570312-1.636719 7.203125-3.539063 10.796875-5.652344l3.976563-2.339844 1.753906 4.269531c7.476562 18.246094 16.933594 35.769531 28.105468 52.078125l.671876.980469.167968 7.457031.171875 7.210938zm0 0"/></g><path d="m249.75 155.835938c-7.164062-7.59375-12.886719-14.175782-17.515625-21.613282-4.3125-6.921875-9.398437-17.691406-9.132813-29.699218l.050782-2.332032 2.050781-1.101562c8.503906-4.578125 16.570313-10.382813 23.988281-17.253906 4.417969-4.097657 8.746094-8.667969 12.859375-13.585938l4.941407-5.902344 1.988281 7.4375c7.46875 27.929688 2.625 59.128906-12.953125 83.460938l-2.761719 4.316406zm0 0" fill="#c67045"/><path d="m101.164062 160.070312c-1.621093 0-3.171874-.527343-4.613281-1.566406-12.980469-9.289062-15.34375-55.644531-15.238281-63.785156.320312-25.234375 7.851562-47.207031 21.199219-61.871094 14.789062-16.242187 35.519531-23.019531 50.308593-25.847656 10.628907-2.027344 21.996094-2.929688 36.859376-2.929688 7.015624 0 14.195312.203126 20.535156.382813 8.09375.230469 16.902344 1.328125 20.882812 7.726563.535156.84375.972656 1.800781 1.394532 2.726562.828124 1.796875 1.671874 3.628906 3.199218 4.828125 1.433594 1.128906 3.390625 1.675781 5.984375 1.675781.945313 0 1.828125-.070312 2.535157-.128906 9.105468-.707031 18.234374-2.195312 27.140624-4.421875l14.070313-3.515625-10.28125 10.230469c-7.164063 7.132812-16 12.5625-25.554687 15.695312l.582031.0625c9.21875 0 18.4375-1.339843 27.402343-3.980469l9.726563-2.863281-5.152344 8.734375c-10.640625 18.042969-21.125 31.570313-32.996093 42.570313-17.160157 15.894531-37.519532 25.832031-57.328126 27.984375-2.679687.289062-5.402343.4375-8.105468.4375-19.890625 0-38.851563-8-50.71875-21.402344-1.175782 13.132812-4.273438 26.046875-9.257813 38.414062-.308593.773438-.652343 1.640626-1.007812 2.554688-4.683594 11.90625-10.367188 24.820312-18.707031 27.769531-.988282.351563-1.925782.519531-2.859376.519531zm0 0" fill="#c67045"/><path d="m176.8125 257.789062c-10.714844 0-21.453125-2.253906-31.054688-6.511718-20.664062-9.171875-36.632812-27.636719-42.722656-49.398438-2.625 1.097656-5.425781 1.671875-8.359375 1.671875-6.128906 0-11.933593-2.476562-15.921875-6.792969-5.980468-6.472656-7.316406-16.804687-3.1875-24.574218 3.609375-6.785156 11.289063-11.34375 19.109375-11.34375 1.015625 0 2.035157.074218 3.027344.226562l1.238281-1.039062 1.644532.09375c.1875.011718.371093.019531.5625.019531.945312 0 1.890624-.171875 2.886718-.527344 9.089844-3.21875 14.898438-18 18.742188-27.785156l.304687-.773437c.25-.636719.488281-1.242188.722657-1.816407 3.957031-9.832031 6.738281-20.054687 8.269531-30.375l1.058593-7.140625 5.492188 4.6875c11.816406 10.082032 28.257812 15.863282 45.109375 15.863282 2.695313 0 5.417969-.148438 8.09375-.4375 8.476563-.917969 17.117187-3.277344 25.695313-7.011719l5.199218-2.265625.386719 5.660156c.574219 8.433594 3.710937 17.4375 9.066406 26.039062 5.816407 9.332032 13.515625 17.417969 20.964844 25.238282.019531.019531.050781.039062.078125.058594l.996094.675781.457031 1.117187c2.453125-2.765625 6.207031-4.359375 10.34375-4.359375.273437 0 .546875.003907.820313.019531 5.015624.234376 9.796874 2.71875 12.472656 6.472657 5.046875 7.074219 4.085937 17.898437-2.238282 25.175781-5.398437 6.1875-14.425781 9.875-24.148437 9.875h-.339844c-5.1875 22.046875-20.3125 41.210938-40.535156 51.292969-10.464844 5.207031-22.300781 7.964843-34.234375 7.964843zm0 0" fill="#ffdac4"/><path d="m173.140625 299.761719c-3.859375-.023438-7.828125-.621094-11.816406-1.78125-12.351563-3.582031-22.730469-11.734375-33.15625-20.488281l-2.421875-2.03125 1.421875-2.828126c3.648437-7.257812 5.144531-14.761718 4.320312-21.703124l-.960937-8.109376 6.996094 4.210938c2.832031 1.707031 5.515624 3.113281 8.203124 4.300781 9.589844 4.257813 20.335938 6.507813 31.082032 6.507813 11.546875 0 23.042968-2.589844 33.25-7.484375l5.574218-2.675781.15625 6.179687c.101563 4 1.460938 8.34375 4.042969 12.914063.480469.847656 1.035157 1.726562 1.726563 2.78125l1.871094 2.863281-2.539063 2.292969c-7.152344 6.453124-13.671875 12.164062-21.089844 16.710937-9.042969 5.535156-17.949219 8.339844-26.46875 8.339844zm0 0" fill="#ffdac4"/><path d="m351.128906 483.195312c-.773437-25.15625-1.574218-51.167968-6.882812-76.429687-6.042969-28.765625-17.195313-52.277344-33.148438-69.882813-12.515625-13.8125-28.175781-24.132812-43.316406-34.117187-10.523438-6.933594-21.398438-14.105469-30.976562-22.320313-10.09375-8.648437-19.542969-21.359374-16.261719-31.390624 16.539062-10.726563 28.921875-27.496094 34.160156-46.550782 9.929687-.621094 18.707031-4.609375 24.429687-11.183594 7.523438-8.648437 8.59375-21.636718 2.480469-30.207031-3.433593-4.8125-9.257812-7.867187-15.582031-8.167969-1.367188-.066406-2.699219.011719-3.988281.207032 15.085937-26.300782 18.699219-59.105469 9.230469-87.953125-.011719-.035157-.035157-.0625-.046876-.097657 6.730469-8.984374 13.261719-19.316406 19.84375-31.363281.820313-1.503906.601563-3.359375-.542968-4.632812-1.148438-1.269531-2.96875-1.679688-4.550782-1.023438-5.015624 2.097657-10.253906 3.75-15.601562 4.941407 6.484375-4.808594 12.132812-10.746094 16.597656-17.554688.941406-1.4375.871094-3.3125-.175781-4.671875-1.050781-1.359375-2.84375-1.90625-4.472656-1.363281-12.429688 4.15625-25.351563 6.777344-38.417969 7.796875-2.28125.179687-4.550781.21875-5.691406-.679688-.769532-.605469-1.347656-1.859375-2.015625-3.3125-.457031-.996093-.972657-2.125-1.648438-3.210937-5.671875-9.113282-18.199219-9.46875-24.222656-9.636719-19.054687-.539063-38.757813-1.097656-58.265625 2.625-15.390625 2.933594-37 10.019531-52.550781 27.09375-17.972657 19.742187-22.027344 46.003906-22.265625 64.554687-.070313 5.484376.664062 19.265626 2.925781 32.894532 2.324219 13.996094 5.519531 23.808594 9.691406 29.734375-7.453125 1.488281-14.304687 6.25-17.882812 12.984375-4.914063 9.25-3.320313 21.542968 3.789062 29.234375 6.09375 6.589843 15.875 9.40625 24.59375 7.449219 4.984375 14.726562 14.300781 27.796874 26.398438 37.453124-.332031.808594-.421875 1.722657-.164063 2.632813 3.238282 11.398437-1.503906 25.625-12.082031 36.246094-9.578125 9.617187-22.429687 15.902343-34.855469 21.984375l-1.429687.699218c-14.210938 6.960938-27.792969 14.152344-37.78125 25.570313-14.824219 16.941406-19.203125 40.605469-22.71875 59.613281l-16.273438 88.019532c-.835937 4.511718-3.371093 18.234374 5.871094 24.386718 4.054687 2.699219 8.945313 2.789063 12.515625 2.855469l299.988281 5.554687c.757813.015626 1.511719.023438 2.269531.023438 9.816407 0 19.382813-1.375 24.96875-9.050781 4.476563-6.152344 4.234376-14.015625 4.058594-19.753907zm-89.5625-174.871093 9.363282 23.355469c.875 2.175781 1.683593 4.417968 1.171874 5.816406-.589843 1.617187-3.214843 2.484375-5.496093 2.503906-.742188.007812-1.570313-.042969-2.429688-.09375-1.957031-.121094-4.167969-.257812-6.480469.257812-4.433593.988282-8.628906 4.996094-7.972656 9.992188.28125 2.164062 1.429688 3.84375 2.1875 4.953125l10.507813 15.386719c-29.175781 8.023437-56.375 22.414062-79.453125 41.960937-.035156-1.503906-.066406-3.007812-.101563-4.511719.007813-.015624.019531-.03125.027344-.046874l25.753906-53.183594c.066407-.140625.105469-.28125.152344-.425782 4.328125 1.742188 8.714844 3.324219 13.148437 4.734376 1.691407.539062 4.484376 1.429687 7.53125 1.429687 1.984376 0 4.074219-.378906 6.03125-1.480469 5.035157-2.828125 6.425782-8.609375 7.078126-13.328125 2.007812-14.609375 2.148437-29.4375.410156-44.078125-.199219-1.699218-.671875-5.683594-3.996094-7.789062-3.804688-2.417969-8.140625-.433594-9.769531.3125-2.097657.964844-4.1875 1.960937-6.265625 2.972656l3.613281-15.140625c1.574219 1.59375 3.234375 3.152344 4.976563 4.644531 9.417968 8.074219 19.839843 15.046875 30.011718 21.757813zm-125.105468-5.628907c-2.359376-5.667968-4.171876-11.558593-5.429688-17.570312 8.527344 6.878906 18.050781 13.53125 29.164062 16.757812 4.363282 1.265626 8.707032 1.917969 12.90625 1.941407h.230469c9.285157 0 18.902344-3.007813 28.589844-8.941407 5.847656-3.585937 11.144531-7.863281 16.203125-12.277343l-4.164062 17.441406c-.128907.546875-.140626 1.09375-.050782 1.613281-7.5625 4.015625-14.957031 8.367188-22.117187 13.007813-3.730469-3.910157-9.058594-6.1875-15.074219-6.339844-6.375-.160156-12.511719 2.171875-16.769531 6.214844-7.285157-4.730469-15.191407-8.648438-23.421875-11.613281-.023438-.078126-.039063-.15625-.066406-.234376zm57.820312 35.9375c3.183594-5.328124 3.820312-11.480468 1.75-17.105468 11.652344-7.558594 23.941406-14.324219 36.558594-20.105469 1.125-.515625 1.734375-.679687 2.050781-.730469.097656.273438.230469.800782.351563 1.824219 1.65625 13.960937 1.523437 28.097656-.394532 42.027344-.398437 2.871093-1.097656 6.3125-3.039062 7.402343-1.679688.945313-4.566406.222657-7.167969-.605468-10.378906-3.304688-20.492187-7.582032-30.109375-12.707032zm-32.253906-7.371093c-.554688-3.441407.210937-6.777344 2.148437-9.394531 2.523438-3.40625 7.058594-5.484376 11.914063-5.484376.140625 0 .285156 0 .425781.003907 4.582031.117187 8.464844 2.0625 10.644531 5.339843 4.078125 6.121094 1.480469 12.242188-2.304687 15.929688-4.335938 4.21875-11.453125 6.542969-17.582031 2.222656-2.765626-1.953125-4.679688-5.09375-5.246094-8.617187zm-6.648438-10.074219c-1.46875 3.496094-1.949218 7.394531-1.3125 11.351562.292969 1.820313.835938 3.570313 1.5625 5.226563-.171875.097656-.347656.195313-.503906.324219-7.191406 5.667968-15.058594 10.480468-23.382812 14.296875-2.296876 1.054687-5.160157 2.160156-6.9375 1.347656-2.085938-.953125-2.964844-4.75-3.441407-7.527344-2.183593-12.660156-3.433593-25.597656-3.714843-38.449219-.019532-.804687.019531-1.304687.066406-1.609374.226562.023437.558594.074218 1.039062.167968 12.917969 2.574219 25.542969 7.707032 36.625 14.871094zm4.738282 23.230469c.015624-.011719.027343-.03125.042968-.042969.773438.757812 1.582032 1.46875 2.46875 2.09375 3.769532 2.65625 7.773438 3.765625 11.652344 3.765625 5.464844 0 10.667969-2.199219 14.574219-5.359375 4.105469 2.238281 8.300781 4.328125 12.570312 6.257812-.011719.023438-.03125.042969-.042969.066407l-22.707031 46.898437c-10.085937-15.296875-18.644531-31.613281-25.511719-48.597656 2.375-1.613281 4.695313-3.304688 6.953126-5.082031zm92.546874-191.328125c-6.191406-6.5625-12.3125-13.398438-17.035156-20.984375-4.078125-6.546875-8.769531-16.535157-8.53125-27.492188 8.695313-4.679687 17.074219-10.675781 24.8125-17.839843 4.554688-4.222657 8.9375-8.847657 13.214844-13.953126 7.183594 26.902344 2.550781 56.8125-12.460938 80.269532zm-167.355468-58.320313c.308594-24.253906 7.46875-45.289062 20.164062-59.230469 14.050782-15.433593 33.914063-21.898437 48.101563-24.605468 11.894531-2.269532 24.039062-2.867188 36.109375-2.867188 6.847656 0 13.675781.191406 20.417968.382813 7.03125.199219 14.621094 1.046875 17.601563 5.835937.40625.65625.777344 1.464844 1.171875 2.320313.914062 1.992187 2.054688 4.46875 4.347656 6.277343 3.773438 2.976563 8.675782 2.59375 11.3125 2.386719 9.367188-.730469 18.667969-2.246093 27.78125-4.527343-6.703125 6.671874-14.929687 11.757812-23.980468 14.726562-1.878907.617188-3.03125 2.503906-2.726563 4.457031.308594 1.953125 1.984375 3.394531 3.960937 3.40625 9.820313.054688 19.6875-1.367187 29.132813-4.136719-10.410156 17.644532-20.804687 31.035157-32.273437 41.660157-16.53125 15.316406-36.078126 24.882812-55.039063 26.941406-21.390625 2.316406-42.617187-5.203125-55.394531-19.640625-1.070313-1.207031-2.75-1.664062-4.285156-1.15625-1.53125.507812-2.613282 1.878906-2.75 3.484375-1.089844 12.703125-4.09375 25.234375-8.929688 37.246094-.320312.800781-.664062 1.675781-1.03125 2.605469-3.140625 7.988281-8.988281 22.851562-16.3125 25.445312-1.4375.511719-2.574219.355469-3.796875-.519531-9.851563-7.054688-13.757813-46.636719-13.582031-60.492188zm21.582031 106.027344c-.3125-1.121094-1.097656-2.054687-2.148437-2.554687-1.054688-.5-2.273438-.519532-3.339844-.058594-6.5625 2.851562-14.851563 1.113281-19.710938-4.144532-4.859375-5.253906-5.949218-13.65625-2.59375-19.976562 3.359375-6.320312 10.929688-10.121094 18.003906-9.039062 1.199219.183593 2.339844-.191407 3.199219-.917969.28125.019531.5625.035156.847657.035156 1.386718 0 2.804687-.253906 4.230468-.757813 10.789063-3.820312 17.007813-19.632812 21.121094-30.09375.359375-.910156.695312-1.761718 1.007812-2.542968 4.085938-10.140625 6.9375-20.636719 8.519532-31.296875 14.585937 12.4375 35.382812 18.625 56.234375 16.363281 8.960937-.972656 18.023437-3.46875 26.863281-7.324219.617188 9.101563 3.898438 18.628907 9.660156 27.878907 6.035156 9.695312 13.894532 17.941406 21.488282 25.914062.210937.222656.449218.410156.699218.578125.230469.566406.578125 1.09375 1.070313 1.519531 1.679687 1.464844 4.226562 1.28125 5.6875-.398437 1.785156-2.050781 4.667969-3.136719 7.914062-2.984375 3.820313.183594 7.421875 2.023437 9.40625 4.800781 3.9375 5.523437 3.058594 14.410156-2.003906 20.230469-4.644531 5.335937-12.519531 8.5-21.121094 8.5-.113281 0-.230469 0-.34375 0-.011719 0-.027343 0-.039062 0-1.871094 0-3.5 1.289062-3.925781 3.117187-4.84375 20.867188-19.179688 39.03125-38.351563 48.589844s-42.304687 10.078125-61.886719 1.386719c-19.578125-8.691406-34.714844-26.195313-40.488281-46.824219zm37.21875 54.191406c10.308594 4.578125 21.503906 6.855469 32.699219 6.855469 12.03125 0 24.058594-2.640625 34.984375-7.878906.117187 4.664062 1.636719 9.605468 4.558593 14.777344.5625.992187 1.195313 1.992187 1.859376 2.996093-6.449219 5.820313-13.128907 11.75-20.503907 16.269531-8.398437 5.144532-16.597656 7.753907-24.375 7.753907-.0625 0-.125 0-.191406 0-3.453125-.019531-7.050781-.5625-10.699219-1.621094-11.960937-3.472656-22.417968-11.90625-31.703125-19.707031 3.621094-7.199219 5.726563-15.457032 4.722657-23.96875 2.785156 1.671875 5.664062 3.199218 8.648437 4.523437zm-23.882813 33.996094c.933594-.933594 1.855469-1.929687 2.757813-2.976563.949219 4.707032 2.207031 9.355469 3.78125 13.894532-2.132813-.558594-4.28125-1.0625-6.4375-1.492188-1.476563-.292968-4.542969-.90625-7.246094.886719-3.632812 2.402344-3.53125 6.933594-3.496093 8.636719.289062 13.25 1.578124 26.589844 3.832031 39.644531.550781 3.191406 1.839843 10.65625 8.035156 13.488281 1.574219.722656 3.179687 1.007813 4.765625 1.007813 3.195312 0 6.304688-1.175781 8.886719-2.359375 3.816406-1.75 7.535156-3.707032 11.152343-5.835938 7.609376 18.539063 17.183594 36.285156 28.511719 52.816406.054688 2.089844.097657 4.1875.140625 6.28125-24.367187-14.421874-50.667968-25.015624-78.277344-31.507812-5.25-1.234375-5.835937-2.617188-5.886718-3.011719-.136719-1.019531 1.386718-2.929687 2.113281-3.847656l11.074219-13.90625c4.613281-5.792969 3.125-9.714844 1.828125-11.535156-1.914063-2.6875-5.015625-3.191407-6.679688-3.460938l-15.21875-2.464843 23.453125-42.128907c.363282-.648437.507813-1.355469.492188-2.046875 4.414062-2.960937 8.609375-6.257812 12.417968-10.082031zm-108.433593 207.871094c-3.242188-2.160157-4.03125-7.460938-2.410157-16.207031l16.277344-88.019532c3.507813-18.980468 7.488282-40.496094 20.855469-55.773437 9.015625-10.304688 21.300781-16.800781 35.257813-23.636719l1.425781-.699219c3.941406-1.925781 7.917969-3.875 11.847656-5.949219l-18.796875 33.765626c-.605469 1.089843-2.023438 3.640624-.886719 6.496093 1.359375 3.421875 5.035157 4.015625 6.242188 4.210938l16.1875 2.621093c.417969.066407.757812.132813 1.019531.195313-.179688.390625-.527344.988281-1.183594 1.816406l-11.074218 13.90625c-1.535157 1.933594-4.394532 5.523438-3.800782 9.949219.96875 7.1875 9.296875 9.144531 12.03125 9.785156 28.4375 6.683594 55.4375 17.851563 80.285156 33.179688.007813.023437.011719.046875.019532.066406.414062 26.179688.210937 52.554688-.617188 78.660156l-102.84375-1.90625c4.59375-26.085937 6.671875-52.699218 6.164063-79.167968-.042969-2.203126-1.839844-3.957032-4.027344-3.957032-.027344 0-.054687 0-.082031.003906-2.222656.039063-3.996094 1.878907-3.953125 4.105469.503906 26.371094-1.605469 52.894531-6.261719 78.863281l-43.476562-.804687c-3.460938-.0625-6.257813-.210937-8.199219-1.503906zm328.753906 1.351562c-3.839844 5.28125-12.160156 5.867188-20.570313 5.707031l-31.726562-.585937c-1.273438-25.363281-.714844-51.035156 1.667969-76.316406.210937-2.214844-1.417969-4.183594-3.632813-4.390625-2.222656-.203125-4.183594 1.417968-4.394531 3.636718-2.402344 25.480469-2.972656 51.351563-1.71875 76.921876l-97.636719-1.808594c.820313-26.007813 1.023438-52.28125.625-78.371094 24.585938-22.28125 54.539063-38.226562 86.777344-46.128906 1.285156-.3125 2.332031-1.238282 2.804688-2.472656.476562-1.234376.3125-2.621094-.433594-3.714844l-13.742188-20.125c-.257812-.378906-.800781-1.171875-.855468-1.367188.070312-.246094.75-.941406 1.742187-1.160156 1.195313-.265625 2.667969-.175781 4.226563-.078125.957031.058594 1.960937.117187 2.992187.109375 6.183594-.050781 11.289063-3.113281 13.003906-7.800781 1.613281-4.417969-.1875-8.90625-1.261719-11.585938l-5.003906-12.480469c11.632813 7.867188 22.496094 15.929688 31.710938 26.101563 14.980468 16.527344 25.488281 38.777344 31.234375 66.128906 5.160156 24.5625 5.949219 50.210938 6.710937 75.019531.183594 5.929688.121094 11.132813-2.519531 14.761719zm0 0"/></svg>