<svg height="511pt" viewBox="-82 0 511 511.97404" width="511pt" xmlns="http://www.w3.org/2000/svg"><path d="m178.113281 482.675781c-40.199219-52.101562-65.601562-116.902343-71.601562-182.300781l-.097657-1.199219.597657-1-.199219-2.402343 1.898438-1.300782s.101562-.097656.101562-.097656c2.300781-1.800781 4.601562-3.800781 6.800781-5.902344l8-7.898437-1.199219 11.199219c-.601562 5.101562-.601562 9.402343-.203124 13.402343 1 9.199219 5.101562 17 11.101562 21.398438 3.898438 2.898437 8.898438 4.398437 14.199219 4.398437 3.699219 0 7.601562-.796875 11.101562-2.296875l4.800781-2 .699219 5.097657c.5 3.800781 2.5 7.300781 5.300781 9.601562.597657.398438 1.199219.898438 1.796876 1.199219l2.300781 1.300781-7.898438 66.300781c-.300781 2.699219-.800781 6.398438 1 9.296875 2.5 4.101563 8.300781 4.703125 11.699219 5h.300781c.898438.101563 1.898438.203125 3 .203125 2.898438 0 5-.601562 6.5-2 2.597657-2.402343 2.800781-6.5 2.800781-9 .796876-22.5-.601562-45.203125-4.203124-67.5l-1.398438-2.902343 2.5-2c2.898438-2.398438 4.898438-5.800782 5.5-9.5l.699219-4.5 4.402343 1.199218c1.796876.5 3.5.703125 5.296876.703125 2.203124 0 4.203124-.402343 6.101562-1.203125 4.300781-1.796875 8-5.5 11.398438-11.296875 4.703124-8.101562 7.300781-17.300781 7.5-26.800781l.300781-9.402344 6.601562 6.703125c.5.5 1 1 1.597657 1.597657 3.601562 3.402343 7.703124 6.699218 13 10.300781l2.800781 1.898437-1.5 3.203125c-18.898438 59.898438-41.199219 119.699219-66.5 177.5l-2.699219 6.199219zm0 0" fill="#ff8984"/><path d="m203.613281 329.273438c-5.300781 0-10.699219-2.300782-14.800781-6.300782-4.398438-4.398437-7.5-10.699218-9.199219-18.699218l-.902343-4.199219 4.300781-.5c14.300781-1.800781 28.101562-8 38.699219-17.601563l6.101562-5.5.601562 8.203125c.796876 11.097657-1.902343 22.597657-7.402343 32.199219-3.398438 5.800781-7.097657 9.5-11.398438 11.300781-1.800781.699219-3.800781 1.097657-6 1.097657zm0 0" fill="#ffb3b3"/><path d="m147.511719 330.773438c-5.300781 0-10.300781-1.5-14.199219-4.300782-6-4.398437-10.101562-12.199218-11.101562-21.296875-.699219-6.703125.101562-13.601562 1-19.402343l1.101562-7 5.398438 4.601562c12.5 10.597656 28.800781 16.699219 44.902343 16.800781h5.597657l-1.796876 5.296875c-3.300781 9.5-9.101562 17.101563-16.5 21.5-4.300781 2.402344-9.300781 3.800782-14.402343 3.800782zm0 0" fill="#ffb3b3"/><g fill="#d34242"><path d="m314.011719 507.875-21.398438-.199219-.101562-3.902343c-.300781-12.398438.101562-24.898438 1.101562-37.199219-1.101562 12.199219-1.5 24.601562-1.101562 36.898437l.101562 4.101563-111-.898438 1-4.800781v.097656l.5-16.5 3.597657-.296875c15.902343-1.203125 31.402343-10.101562 40.402343-23.203125 9.300781-13.597656 11.898438-31.699218 6.699219-47.398437l-.101562-.199219c-.398438-1.101562-.597657-1.699219-.597657-2.402344l-.101562-1.296875.699219-1.101562c.902343-1.398438 2.601562-2.398438 5.601562-3.300781 9.601562-3 19-7 27.898438-11.898438 12.703124-7.101562 20-14.800781 22.101562-23.601562 2.101562-8.898438-1.300781-18.199219-4-24.398438-3.898438-8.902344-9.101562-17.402344-15.199219-25.101562l5.398438-5.800782c26.902343 18.800782 47.902343 46.203125 59.101562 77 11.300781 31.300782 12.699219 66.101563 3.699219 98.101563-1.398438 5.101562-3.300781 10.300781-7.398438 13.5-4.402343 3.398437-10.300781 3.699219-15.5 3.699219-.5.101562-.902343.101562-1.402343.101562zm0 0"/><path d="m186.113281 479.273438c24.097657-55.398438 45.597657-112.699219 63.898438-170.300782l1.902343-5.898437 4.597657 4.101562c12.199219 10.898438 22.101562 24.5 28.699219 39.398438 4.300781 9.800781 5.601562 17.601562 4 24.300781-2.097657 8.800781-9.296876 16.5-22.097657 23.597656-8.902343 4.902344-18.199219 8.902344-27.902343 11.902344-2.699219.800781-5.796876 2.097656-6.199219 4.800781-.199219 1.199219.199219 2.398438.601562 3.398438l.097657.199219c5.203124 15.601562 2.601562 33.699218-6.699219 47.199218-8.199219 12-21.898438 20.5-36.597657 22.703125l-7.101562 1.097657zm0 0"/><path d="m178.8125 344.375c-3.5 0-6.800781-1.101562-9.300781-3.199219-4.300781-3.402343-6.300781-9.300781-5.097657-14.703125l.296876-1.398437 1.101562-.898438c3.699219-3 6.898438-6.800781 9.398438-11.402343l4-7.097657 3.203124 7.5c1.699219 3.898438 3.796876 7.097657 6.5 9.699219.898438.898438 1.898438 1.699219 3 2.5l2.296876 1.597656s-.796876 2.800782-.796876 2.800782c-.101562 5.5-3.402343 10.800781-8.402343 13.101562-1.898438 1.097656-4 1.5-6.199219 1.5zm0 0"/><path d="m181.8125 424.574219c-1.199219 0-2.398438-.101563-3.398438-.199219-4.402343-.402344-9.402343-1.199219-11.703124-5-1.597657-2.601562-1.398438-5.902344-.898438-9.300781l7.898438-66 3.800781.300781c.5 0 .902343.097656 1.300781.097656 1.101562 0 2.199219-.097656 3.300781-.398437l4.199219-1 .699219 4.199219c3.5 21.902343 4.800781 44.199218 4.101562 66.300781-.101562 3.199219-.402343 6.800781-2.800781 9-2.101562 1.800781-4.699219 2-6.5 2zm0 0"/><path d="m65.3125 505.875v-4c0-14.699219-1.601562-29.300781-4.898438-43.5 3.199219 14.199219 4.898438 28.800781 4.898438 43.5v4l-40.699219-.300781c-3.699219 0-7.800781-.101563-11.300781-1.800781-8.800781-4.5-9.199219-16.898438-8.699219-25.800782 1.5-27.699218 3-56.199218 10.597657-83.398437 5.902343-21.300781 18.402343-50.601563 44.101562-70 7.699219-5.800781 16.800781-10.699219 24-14.699219l4.898438 6.097656c-8.199219 9.5-15.097657 19.902344-20.398438 31-3.5 7.300782-7.800781 18.300782-4.300781 28.203125 2.402343 6.898438 8.402343 12.796875 16.601562 16.199219 7.398438 3.097656 15.597657 3.898438 23.300781 4.300781 1.398438.097657 2.5.199219 3.296876.5l3.601562 1.199219-1 3.597656c-.300781 1-.800781 2.101563-1.601562 3.601563l-.199219.300781c-3.699219 6.699219-4.300781 15.5-1.5 24.097656 2.199219 6.902344 6.300781 13.601563 12.902343 21 15.699219 17.703125 37.097657 30.203125 60.296876 35.300782l1.402343.300781.898438 1.199219c.199219.199218.300781.402343.5.601562l1 1.199219-.398438 13.199219v.101562l.800781 4.699219zm0 0"/><path d="m169.011719 482.675781c-19.398438-6.203125-36.699219-17.5-50.097657-32.5-6.601562-7.402343-10.703124-14.101562-12.902343-21-2.699219-8.601562-2.199219-17.300781 1.5-24.101562l.199219-.300781c1.402343-2.597657 2.5-4.800782 1.402343-6.800782-1-1.796875-3.300781-2.097656-5.699219-2.296875-7.800781-.402343-15.902343-1.300781-23.300781-4.300781-8.101562-3.402344-14.101562-9.300781-16.5-16.199219-2.601562-7.601562-1.199219-16.5 4.300781-28.203125 7.796876-16.296875 19.097657-31.296875 32.597657-43.398437l5.800781-5.199219.800781 7.699219c6.597657 60.601562 30.199219 121.101562 66.300781 170.300781l7.296876 10zm0 0"/></g><path d="m240.113281 278.972656c-2.800781 0-5.902343-.097656-9.402343-.199218l-2.199219-.097657-1.097657-1.800781c-4.101562-6.800781-8.402343-17.199219-5.703124-28.601562l.101562-1.800782 1.300781-1.097656c15-12.300781 24.800781-31 26.300781-49.800781l.097657-1.699219 1.300781-1.101562c1.101562-.898438 2.101562-1.898438 2.898438-2.800782 4.5-5.097656 7.5-12 8.402343-20.097656.898438-7.699219.097657-15.5-.902343-22 0-.101562 0-.199219 0-.199219-.898438-.5-3.898438-1-9.097657-1.402343l-3.300781-.199219-.398438-3.300781c0-.097657 0-.097657 0-.199219-2.402343-14.800781-7.203124-28.898438-14.402343-42.101563-7.898438 3.703125-16.800781 5.601563-25.699219 5.601563-5.898438 0-11.800781-.898438-17.300781-2.5 2.902343 6.101562 7.300781 11.699219 12.601562 16.101562l7.199219 6-9.300781 1.097657c-2.699219.300781-5.5.5-8.199219.5-12.199219 0-24.199219-3.199219-34.699219-9.097657-15.902343-9-27.800781-24.300781-32.699219-41.902343-1.101562 11.101562-7.300781 20.902343-13.300781 30.300781l-.101562.199219c-.800781 1.199218-1.5 2.402343-2.199219 3.601562-5.601562 9.097656-11.898438 21-10.398438 32.898438l.398438 3.300781-3.101562 1c-.398438.101562-.597657.199219-.699219.300781v.199219l-.398438 2.601562c-.800781 6-1.402343 12.796875-.5 19.398438 1 8.101562 3.898438 15 8.398438 20.101562.601562.699219 1.199219 1.296875 2.101562 2.097657l1.199219 1.101562.101562 1.597656c1.199219 17.601563 9.398438 34.902344 22.699219 47.402344l1.097657 1.097656.101562 1.5c2.699219 9.601563.601562 21.101563-5.699219 31.5l-1.300781 2.101563-2.5-.199219c-16.398438-1.5-32.398438-10-42.699219-22.800781-10-12.398438-13.300781-45.601563-13.402343-44.800781 0 0-3.898438 12-8.296876 12.800781-.402343.101562-.800781.101562-1.203124.101562-3.796876 0-7.199219-2.902343-9.398438-5.402343-11.199219-12.800782-13.199219-32.800782-4.601562-47.5.5-.800782.902343-1.5 1.402343-2.300782 1.898438-3 3.800781-6.097656 4-9.597656.300781-3.902344-1.5-7.402344-3.300781-10.902344-.601562-1.199218-1.199219-2.296875-1.699219-3.398437-5.800781-13.300781-1.101562-30.398438 10.699219-38.898438 3.101562-2.203125 6.699219-4 10.398438-5.800781l.203124-.101562c7.796876-3.800782 15.097657-7.398438 17.796876-15.097657 1.601562-4.601562.902343-9.300781.300781-14.203125-.199219-1.796875-.5-3.5-.597657-5.199218-1.101562-15.097657 6.296876-31.300782 19.5-42.199219 11.097657-9.300781 26.398438-15.398438 44.296876-17.5 7.402343-.898438 15.203124-1.398438 22.902343-1.398438 20.699219 0 40.898438 3.296875 57 9.199219 16.898438 6.199219 29.898438 17.5 35.597657 30.898438.203124.402343.300781.800781.5 1.199218.902343 2.203125 1.800781 4.5 3.601562 6.101563 2.300781 2.199219 5.5 2.898437 8.5 3.601562l.398438.097657c.601562.101562 1.203124.300781 1.800781.402343 11.199219 2.898438 21.199219 12.199219 25.199219 23.699219 3.902343 11 2.703124 24-3.097657 34.898438-.601562 1.101562-1.199219 2.101562-1.699219 3-2.703124 4.699218-5.402343 9.5-4.5 14.800781.898438 4.800781 4.699219 8.199219 8.398438 11.601562 1.699219 1.597657 3.398438 3 4.800781 4.699219 6 7 7.597657 17.800781 3.898438 26.199219-1.199219 2.800781-3 5.398437-4.800781 8-3.199219 4.699219-6.398438 9.5-6.199219 15.101562.199219 4.898438 3 9.097657 5.699219 13.199219l.203124.300781c1.097657 1.699219 2.199219 3.398438 3.199219 5.097657 6 11.199218 4.5 26.601562-3.699219 38.199218-7.101562 10-18.902343 17.703125-33.203124 21.402344-8.699219 2-18 3.097656-29.597657 3.097656zm0 0" fill="#ffbf48"/><path d="m223.011719 201.574219c-1.5 0-3-.101563-4.597657-.199219-10.5-.699219-18.5-3.699219-23.601562-8.800781-9-9.101563-11-28.5-3.898438-39.199219 5.296876-7.902344 15.597657-8.800781 22.898438-8.800781 3.300781 0 6.601562.199219 9.5.398437 1.601562.101563 3.199219.203125 4.601562.203125.398438 0 .898438 0 1.699219.097657 14.199219.5 24.097657 1 28.5 1.699218l3 .402344.398438 3c.699219 4.898438 1.402343 12.199219.601562 19.5-.699219 5.597656-2.699219 13.699219-8.402343 20.097656-3.898438 4.300782-13 11.601563-30.699219 11.601563zm0 0" fill="#5b5d6d"/><path d="m134.613281 201.574219c-17.699219 0-26.800781-7.199219-30.699219-11.601563-5.703124-6.398437-7.703124-14.398437-8.402343-20.097656-.898438-7.300781-.097657-14.601562.5-19.5l.402343-3 3-.402344c4.5-.597656 14.296876-1.199218 28.5-1.699218.796876 0 1.398438 0 1.699219-.097657 1.5-.101562 3.097657-.203125 4.699219-.203125 2.898438-.199218 6.199219-.398437 9.5-.398437 7.300781 0 17.601562.898437 22.898438 8.800781 7.101562 10.699219 5.203124 30-3.898438 39.097656-5.101562 5.203125-13.101562 8.101563-23.601562 8.800782-1.597657.199218-3.097657.300781-4.597657.300781zm0 0" fill="#5b5d6d"/><path d="m170.511719 163.472656c-.699219-3.898437-2-7.398437-3.800781-10.097656-4.097657-6.101562-11.199219-8.902344-23-8.902344-3.296876 0-6.398438.203125-9.398438.402344-1.601562.097656-3.101562.199219-4.601562.300781-.398438 0-1 0-1.796876.097657h-1c-3.800781.101562-11 .402343-17.402343.800781-2 .101562-3.800781.199219-5.398438.398437l-3.902343.300782-.398438-3.898438c-1.300781-11.902344 4.898438-23.699219 10.398438-32.601562.402343-.699219 2.300781-3.699219 2.300781-3.699219 3.800781-5.898438 7.699219-12.101563 10.300781-18.601563l3.398438-8.398437 3.902343 8.101562c6.199219 12.699219 16.300781 23.5 28.398438 30.398438 10.5 6 22.5 9.101562 34.800781 9.101562 6.101562 0 12.199219-.800781 18-2.402343-5.800781-3.199219-11-7.597657-15-12.800782l-6.101562-7.796875 9.800781 1.296875c2.699219.402344 5.5.601563 8.300781.601563 7.699219 0 15.398438-1.5 22.398438-4.199219l3.402343-1.300781 1.597657 3.199219c6 11.699218 10.101562 24.199218 12.300781 37.300781l.800781 4.898437-5-.296875c-5.398438-.300781-10.699219-.402343-13.800781-.601562h-.398438c-.800781 0-1.402343 0-1.699219-.101563-1.5-.097656-3-.199218-4.703124-.296875-3-.203125-6.199219-.402343-9.398438-.402343-11.800781 0-18.898438 2.699218-23 8.902343-1.699219 2.597657-2.898438 5.699219-3.699219 9.296875l-.601562 3.203125-3.199219.097657c-2.699219 0-5.398438.300781-8.101562.902343l-4 .796875zm0 0" fill="#ffdac4"/><path d="m178.414062 261.074219c-12.402343 0-24.300781-3-34.703124-8.800781-18.398438-10.199219-32-29.699219-35.597657-50.699219l-1.300781-7.601563 7 3.300782c7.398438 3.5 15.601562 4.300781 21.101562 4.300781 1.5 0 2.898438-.101563 4.296876-.101563 10.601562-.699218 18.5-3.699218 23.703124-8.796875 4.898438-4.902343 7.898438-13 8.199219-21.800781l.097657-3.101562 3-.699219c2.703124-.601563 5.5-1 8.300781-1.101563l4.101562-.199218v4.101562c0 9 3.199219 17.597656 8.199219 22.699219 5.101562 5.199219 13.101562 8.199219 23.699219 8.800781 1.402343.097656 2.902343.199219 4.300781.199219 5.300781 0 13-.699219 20.199219-3.800781l6.902343-3.097657-1.300781 7.398438c-3.800781 21.101562-17.601562 40.5-36.199219 50.601562-10.203124 5.5-22 8.398438-34 8.398438zm0 0" fill="#ffdac4"/><path d="m175.011719 299.972656c-17.597657 0-35.699219-7.398437-48.398438-19.699218l-2.300781-2.199219 1.601562-2.699219c.699219-1.101562 1.199219-2.101562 1.699219-3.101562 3.300781-6.5 4.898438-13.097657 4.699219-19.5l-.199219-7.800782 6.5 4.402344c1.699219 1.199219 3.398438 2.199219 5 3.097656 10.300781 5.800782 22.300781 8.800782 34.699219 8.800782 12.101562 0 23.898438-2.898438 34-8.398438.800781-.402344 1.601562-.902344 2.5-1.402344l6.101562-3.699218-.101562 7.199218c-.101562 6.300782 1.601562 13 4.898438 19.300782l1.300781 2.601562-2 2.097656c-12.699219 13.101563-31.398438 21-50 21zm0 0" fill="#ffdac4"/><path d="m338.414062 391.273438c-11.601562-32-33.5-60.300782-61.601562-79.597657-4.101562-2.800781-8.398438-5.5-12.5-8-8.898438-5.5-17.199219-10.800781-24.398438-17.601562-1-.898438-2-1.898438-2.902343-3h3.199219c10 0 20.203124-.699219 30.402343-3.398438 15.300781-4 27.898438-12.203125 35.5-23 9.097657-12.800781 10.699219-29.902343 4-42.402343-1.101562-2-2.300781-3.898438-3.5-5.800782-2.5-3.796875-4.902343-7.398437-5-11.097656-.199219-4.300781 2.597657-8.402344 5.5-12.699219 1.800781-2.703125 3.699219-5.5 5.097657-8.601562 4.402343-10 2.601562-22.199219-4.5-30.5-1.597657-1.800781-3.398438-3.5-5.097657-5.101563-3.5-3.097656-6.402343-5.796875-7.101562-9.296875-.699219-3.800781 1.601562-7.800781 4-12 .601562-1 1.199219-2 1.699219-3.101562 6.300781-11.898438 7.601562-26.199219 3.300781-38.199219-4.597657-13-15.300781-23.101562-28.097657-26.300781-.800781-.199219-1.5-.398438-2.300781-.5-2.699219-.601563-5.199219-1.199219-6.601562-2.5-1.097657-1.101563-1.800781-2.898438-2.597657-4.699219-.203124-.402344-.300781-.800781-.5-1.300781-6.300781-14.5-20.101562-26.601563-38.101562-33.199219-23-8.402344-53.5-11.402344-81.800781-8-18.597657 2.199219-34.699219 8.597656-46.398438 18.398438-14.101562 11.800781-22.101562 29.300781-20.902343 45.601562.101562 1.800781.402343 3.597656.601562 5.398438.601562 4.5 1.199219 8.699218-.101562 12.402343-2.097657 6.097657-8.699219 9.296875-15.699219 12.796875-3.800781 1.902344-7.699219 3.800782-11.097657 6.203125-13.300781 9.597657-18.601562 28.796875-12.101562 43.796875.5 1.300782 1.199219 2.5 1.800781 3.601563 1.597657 3.101562 3 6 2.898438 8.800781-.199219 2.5-1.699219 5-3.398438 7.699219-.5.800781-1 1.601562-1.402343 2.398437-9.398438 16.203125-7.296876 38.203125 5.101562 52.300782 4.5 5.199218 9.5 7.402343 14.300781 6.601562 1.300781-.199219 2.699219-.699219 4-1.5 1.699219 11.699219 6.5 22.898438 13.800781 32.097656 10 12.402344 24.898438 21 40.699219 23.703125-2.800781 3.199219-6.199219 6.398438-10.300781 9.5-7.5 5.597657-16 10.296875-24.300781 14.699219-8.5 4.597656-17.300781 9.398438-25.199219 15.300781-26.601562 20.097657-39.398438 50.296875-45.5 72.199219-7.699219 27.597656-9.199219 56.398438-10.699219 84.300781-.5 10.097657 0 24.097657 11 29.597657 4.300781 2.199218 9.199219 2.199218 13.097657 2.300781l289.402343 2.398437h1.800781c5.398438 0 12.199219-.398437 17.597657-4.5 5-3.898437 7.199219-9.796875 8.800781-15.597656 9.101562-32.800781 7.699219-68.601562-3.898438-100.601562zm-108.601562 24.601562.101562.199219c4.796876 14.5 2.398438 31.199219-6.203124 43.800781-7.699219 11.199219-20.398438 19-33.898438 21 24.199219-55.601562 45.699219-112.902344 64-170.699219 11.800781 10.5 21.300781 23.5 27.699219 38 4 9 5.199219 15.898438 3.800781 21.796875-1.800781 7.703125-8.398438 14.601563-20.101562 21-8.597657 4.800782-17.699219 8.601563-27.097657 11.601563-2.199219.699219-8.199219 2.5-9 8.101562-.300781 2 .300781 3.898438.699219 5.199219zm-117.300781-19.902344c-2.300781-3.796875-6.898438-4.097656-8.898438-4.199218-7.402343-.398438-15.199219-1.199219-22-4-7.101562-3-12.300781-8-14.300781-13.800782-2.199219-6.5-.898438-14.5 4.199219-25.199218 7.601562-15.898438 18.5-30.398438 31.601562-42.199219 6.699219 61.800781 30.300781 122.101562 67.097657 172.199219-18.5-6-35.398438-16.898438-48.296876-31.398438-6.203124-7-10.101562-13.199219-12.101562-19.5-2.398438-7.5-2-15.101562 1.199219-20.902344l.199219-.296875c1.300781-2.5 3.703124-6.601562 1.300781-10.703125zm105.101562-81.097656c-2.902343 5-6 8.199219-9.402343 9.597656-5.097657 2.101563-11.898438.300782-16.5-4.296875-3.898438-3.800781-6.597657-9.402343-8-16.601562 15-1.800781 29.601562-8.398438 40.902343-18.5.597657 10.199219-1.800781 20.800781-7 29.800781zm-47.800781 95.800781 7.398438-62.203125c.5 0 1.101562.101563 1.601562.101563 1.398438 0 2.800781-.199219 4.199219-.5 3.402343 21.601562 4.800781 43.601562 4 65.5-.097657 2.601562-.300781 5.101562-1.5 6.199219-1.300781 1.199218-4.097657 1-6.699219.800781-3.699219-.398438-7.398438-1-8.699219-3.101563-.902343-1.699218-.699219-4.199218-.300781-6.796875zm19.601562-80.800781c0 4-2.5 7.898438-6.101562 9.597656-3.601562 1.703125-8.199219 1.203125-11.300781-1.296875-3.097657-2.5-4.597657-6.902343-3.699219-10.703125 4.101562-3.296875 7.699219-7.597656 10.398438-12.5 1.902343 4.402344 4.300781 8 7.300781 11 1.101562 1.101563 2.300781 2.101563 3.601562 2.902344-.101562.300781-.199219.597656-.199219 1zm-75.800781-217.5c.800781-1.199219 1.597657-2.5 2.300781-3.699219 3.898438-6.203125 7.898438-12.402343 10.597657-19.203125 6.5 13.402344 17 24.703125 30 32.101563 16.800781 9.601562 37.101562 12.199219 55.800781 7.199219 1.601562-.398438 2.800781-1.800782 3-3.398438.199219-1.601562-.601562-3.199219-2.101562-4-5.296876-2.902344-10.097657-6.902344-13.796876-11.699219 11 1.5 22.398438.199219 32.699219-3.902343 5.800781 11.402343 9.800781 23.5 12 36.101562-5.699219-.300781-11.300781-.5-14.300781-.601562-.800781 0-1.398438 0-1.699219-.097657-1.402343-.101562-2.902343-.101562-4.5-.203125-11.800781-.699218-28.101562-1.699218-36 10.203125-2.101562 3.097657-3.5 6.796875-4.199219 10.699219-3 .097656-5.902343.398438-8.800781 1-.699219-4.300781-2.199219-8.300781-4.402343-11.699219-8-12-24.199219-11-36-10.203125-1.597657.101563-3.097657.203125-4.5.203125-.296876 0-.898438 0-1.699219.097657-3.699219.101562-11.5.402343-18.5.800781-2.097657.101562-3.898438.199219-5.5.398437-1.398438-10.699218 4.300781-21.597656 9.601562-30.097656zm144 38.597656c.800781 5.703125 1.300781 12.203125.5 18.5-.601562 5.101563-2.402343 12.300782-7.402343 17.902344-3.796876 4.300781-13.097657 11.300781-32 10.097656-9.5-.597656-16.597657-3.199218-21.097657-7.699218-7.699219-7.800782-9.402343-25-3.402343-34.097657 3.902343-5.800781 11.601562-7 19.601562-7 3.101562 0 6.300781.199219 9.300781.398438 1.597657.101562 3.199219.199219 4.699219.300781.300781 0 .898438 0 1.800781.097656 17.898438.402344 25.097657 1 28 1.5zm-157.601562 0c2.902343-.398437 10.101562-1.097656 28-1.597656.800781 0 1.5 0 1.800781-.101562 1.5-.097657 3-.199219 4.699219-.300782 10.402343-.597656 23.402343-1.398437 28.800781 6.703125 6.101562 9.097657 4.398438 26.296875-3.398438 34.097657-4.402343 4.5-11.5 7-21.101562 7.699218-18.898438 1.203125-28.199219-5.796875-32-10.097656-5-5.601562-6.800781-12.800781-7.398438-17.902344-.703124-6.296875-.203124-12.796875.597657-18.5zm34.800781 54.601563c1.699219 0 3.199219-.101563 4.601562-.199219 11.597657-.800781 20.398438-4.101562 26.199219-10 5.800781-5.902344 9.097657-15.199219 9.300781-24.5 2.5-.601562 5-.902344 7.5-1 .097657 9.597656 3.296876 19.398438 9.398438 25.5 5.898438 5.898438 14.699219 9.300781 26.199219 10 1.402343.097656 2.902343.199219 4.601562.199219 6.300781 0 14.300781-.898438 21.800781-4.199219-3.5 19.898438-16.402343 38.097656-34.101562 47.800781-19.699219 10.699219-45.199219 10.597657-64.800781-.300781-17.597657-9.800781-30.199219-28.101562-33.597657-47.902344 7.898438 3.703125 16.398438 4.601563 22.898438 4.601563zm1.601562 47c1.699219 1.199219 3.5 2.300781 5.296876 3.300781 11.101562 6.199219 23.902343 9.300781 36.601562 9.300781 12.5 0 25-3 35.898438-8.902343.902343-.5 1.800781-1 2.601562-1.5-.101562 6.300781 1.5 13.699218 5.398438 21.199218-12.097657 12.5-29.699219 20-47.097657 20 0 0 0 0-.101562 0-16.699219 0-33.597657-6.898437-45.597657-18.597656.699219-1.101562 1.296876-2.199219 1.796876-3.402344 3.703124-7.097656 5.402343-14.398437 5.203124-21.398437zm-9.203124 33.699219c13.101562 11.101562 30.300781 17.601562 47.5 17.699218-2.898438 8.5-8.199219 15.5-14.699219 19.300782-7.800781 4.601562-17.800781 4.601562-24.300781-.097657-5.097657-3.703125-8.597657-10.5-9.398438-18.5-.699219-6 0-12.300781.898438-18.402343zm-45.097657-33.300782c-9.300781-11.5-13.800781-26.898437-12.5-41.597656.097657-.800781.199219-1.699219.300781-2.601562.199219-2.199219-1.402343-4.097657-3.601562-4.398438-2.199219-.199219-4.101562 1.300781-4.398438 3.5-.101562.800781-.203124 1.597656-.300781 2.398438-.5 3.601562-1.800781 8.699218-5 9.199218-2.699219.5-5.699219-2.597656-6.902343-4-10.097657-11.597656-11.898438-29.597656-4.199219-42.898437.402343-.699219.902343-1.5 1.300781-2.199219 2-3.199219 4.300781-6.902344 4.601562-11.402344.296876-4.898437-1.800781-9.199218-3.703124-12.898437-.597657-1.101563-1.097657-2.199219-1.597657-3.199219-5.101562-11.699219-1-26.601562 9.398438-34.101562 2.902343-2.097657 6.402343-3.800782 10-5.597657 8.199219-4 16.601562-8.101562 19.800781-17.402343 1.898438-5.398438 1.199219-10.800782.5-16.097657-.199219-1.703125-.398438-3.300781-.601562-4.902343-1-13.800782 5.902343-28.699219 18-38.800782 10.601562-8.796875 25.101562-14.5 42.203124-16.597656 27-3.300781 56.199219-.402344 78 7.597656 15.898438 5.800782 28 16.300782 33.296876 28.703125.203124.398438.300781.796875.5 1.199219 1 2.5 2.203124 5.300781 4.5 7.5 3.101562 3 7 3.800781 10.402343 4.597656.699219.203125 1.398438.300782 2.097657.5 10 2.601563 18.902343 10.902344 22.5 21.203125 3.5 9.898438 2.402343 21.796875-2.796876 31.699219-.5.898438-1 1.898438-1.601562 2.898438-2.898438 5.101562-6.199219 10.800781-5 17.5 1.101562 6.199218 5.601562 10.199218 9.601562 13.800781 1.597657 1.5 3.199219 2.898437 4.5 4.300781 5.097657 5.898438 6.398438 14.898438 3.296876 22-1.097657 2.5-2.699219 4.898438-4.398438 7.398438-3.398438 5-7.199219 10.601562-6.898438 17.5.199219 6 3.5 10.902343 6.398438 15.300781 1.199219 1.800781 2.300781 3.398437 3.199219 5.101562 5.300781 9.898438 3.902343 23.597657-3.5 34-6.597657 9.296875-17.597657 16.296875-31 19.796875-12.398438 3.300782-25.398438 3.402344-37.597657 2.902344-4.601562-7.699219-7.402343-16.699219-5.203124-25.699219 0-.203125.101562-.402343.101562-.601562 15.699219-12.898438 26.101562-32.398438 27.699219-52.601563 1.199219-1 2.300781-2 3.300781-3.199218 5.101562-5.699219 8.300781-13.398438 9.398438-22.300782 1-8.199218.101562-16.296875-.898438-23.097656-.5-3.402344-3.101562-4.300781-12.898438-5 0-.101562 0-.199219 0-.300781-2.402343-15.300781-7.402343-29.898438-14.800781-43.5-1-1.898438-3.300781-2.601563-5.199219-1.699219-12.402343 5.800781-27 6.898438-40.101562 2.898438-1.5-.5-3.199219 0-4.199219 1.199218-1 1.203125-1.300781 2.902344-.5 4.402344 3.300781 6.699219 8 12.597656 13.699219 17.300781-13.898438 1.597657-28.300781-1.203125-40.5-8.203125-15-8.5-26.199219-22.898437-30.898438-39.5-.5-1.898437-2.300781-3.097656-4.203124-2.898437-1.898438.199219-3.5 1.699219-3.699219 3.601562-1 10.097657-6.898438 19.5-12.597657 28.597657-.800781 1.300781-1.601562 2.5-2.402343 3.800781-6.097657 9.699219-12.597657 22.398437-11 35.5-2.300781.699219-3.199219 1.800781-3.398438 3.699219-1 6.800781-1.902343 14.902343-.902343 23.101562 1.101562 8.898438 4.300781 16.597656 9.402343 22.300781.800781.796875 1.5 1.597657 2.398438 2.398438 1.300781 18.800781 10.199219 37.101562 23.902343 50.101562 0 .296875.097657.5.097657.796875 2.101562 7.300782 1.300781 17.703125-5.300781 28.402344-15.5-1.5-30.398438-9.402344-40.097657-21.402344zm36.300781 38.300782c-.5 4.699218-.703124 9.402343-.203124 14.199218 1.101562 10.300782 5.800781 19.101563 12.703124 24.203125 4.699219 3.398438 10.5 5.199219 16.5 5.199219 4.199219 0 8.597657-.902344 12.597657-2.601562.699219 4.699218 3.101562 9.101562 6.800781 12.101562.800781.597656 1.601562 1.097656 2.398438 1.597656l-7.597657 63.703125c-.402343 3.097657-.902343 7.796875 1.5 11.796875 3.597657 5.800782 10.898438 6.5 14.800781 6.902344 1 .097656 2.296876.199219 3.699219.199219 2.898438 0 6.5-.5 9.199219-3 3.898438-3.5 4.101562-8.898438 4.199219-11.898438.800781-22.800781-.699219-45.703125-4.300781-68.203125-.097657-.398437-.199219-.796875-.398438-1.199218 3.699219-3 6.199219-7.300782 6.898438-12 4.703124 1.300781 9.601562 1.199218 14-.597657 5.203124-2.101562 9.5-6.402343 13.402343-13 5-8.703125 7.800781-18.703125 8-28.703125.5.601563 1.097657 1.101563 1.699219 1.703125 4.199219 4 8.800781 7.5 13.5 10.699219-.101562.097656-.101562.300781-.199219.398438-18.902343 60-41.199219 119.601562-66.402343 177.199218-39.796876-51.699218-64.796876-115.296875-70.796876-180.296875.398438-.703125.5-1.5.5-2.300781 0 0 .097657 0 .097657-.101562 2.699219-1.597657 5.101562-3.699219 7.402343-6zm-103.300781 208.902343c-5.101562-2.601562-7.199219-9.601562-6.601562-22 1.5-27.402343 3-55.800781 10.5-82.5 5.800781-20.703125 17.800781-49.203125 42.601562-67.902343 7.300781-5.5 15.5-10 23.5-14.300782-8.402343 9.703125-15.5 20.402344-21 31.902344-3.800781 8-8.402343 19.898438-4.5 31.300781 2.800781 8 9.597657 14.796875 18.800781 18.597657 7.898438 3.300781 16.5 4.199218 24.699219 4.601562 1.300781.097656 1.898438.199219 2.300781.300781-.203124.699219-.902343 2-1.300781 2.699219l-.199219.300781c-4.300781 7.699219-4.902343 17.699219-1.902343 27.296875 2.402343 7.5 6.800781 14.601563 13.800781 22.402344 16.300781 18.300781 38.5 31.300781 62.398438 36.597656.203124.203125.402343.5.601562.703125l-.300781 11.796875c0 .300782 0 .601563.101562.902344l-109.199219-.902344c0-14.898437-1.703124-29.898437-5-44.398437-.5-2.199219-2.703124-3.5-4.800781-3-2.199219.5-3.5 2.699219-3 4.800781 3.199219 13.898438 4.800781 28.300781 4.800781 42.597656l-36.703124-.296875c-3.398438-.203125-6.898438-.203125-9.597657-1.5zm319.300781-10.5c-1.300781 4.5-2.800781 9-6 11.398438-3.5 2.699219-8.601562 2.898437-14.402343 2.800781l-17.5-.101562c-.300781-12.199219 0-24.597657 1.101562-36.699219.199219-2.199219-1.5-4.199219-3.699219-4.398438-2.203124-.203125-4.203124 1.5-4.402343 3.699219-1 12.398438-1.398438 24.898438-1.097657 37.398438l-101.902343-.800782c0-.199218.101562-.5.101562-.699218l.398438-12.800782c17.101562-1.296875 33.699219-10.699218 43.402343-24.898437 10-14.601563 12.796876-34.101563 7.199219-50.898438l-.101562-.203125c-.199219-.5-.398438-1.296875-.398438-1.5.097657-.097656.597657-.796875 3.398438-1.597656 9.902343-3.101562 19.5-7.199219 28.601562-12.199219 13.800781-7.601562 21.699219-16.203125 24-26.203125 2.398438-10.097656-1.300781-20.199218-4.199219-26.898437-4.101562-9.300781-9.402343-18-15.800781-26 26.300781 18.398437 46.699219 45 57.597657 75.101562 11.101562 30.296875 12.402343 64.296875 3.703124 95.5zm0 0"/></svg>