<svg height="512pt" viewBox="-88 0 512 512.00379" width="512pt" xmlns="http://www.w3.org/2000/svg"><path d="m255.269531 94.300781c-2.320312-9.625-6.273437-18.761719-11.753906-27.160156l-2.773437-4.253906 4.785156-1.699219c12.0625-4.296875 22.945312-12.949219 29.851562-23.738281l2.953125-4.617188 3.496094 4.21875c7.890625 9.519531 10.699219 23.136719 7.152344 34.695313-3.976563 12.949218-15.6875 23.21875-29.136719 25.558594l-3.695312.644531zm0 0" fill="#d34242"/><path d="m69.660156 503.605469c1.8125-23.546875 2.523438-47.386719 2.109375-70.851563l-.0625-3.472656 3.425781-.546875c24.222657-32.5625 30.316407-78.082031 15.539063-115.957031l-1.214844-3.109375 2.839844-1.75c3.394531-2.09375 6.269531-4.007813 8.800781-5.855469 2.191406-1.582031 4.3125-3.289062 6.320313-5.085938l4.464843-4.003906 1.980469 5.664063c14.441407 41.316406 32.160157 81.777343 52.664063 120.265625.878906 1.660156 2.285156 3.855468 4.375 3.871094 2.09375 0 3.527344-2.1875 4.421875-3.832032l67.289062-122.761718 3.730469 3.082031c4.390625 3.625 9.257812 7.175781 15.316406 11.175781l2.898438 1.914062-1.488282 3.136719c-5.742187 12.105469-11.191406 24.015625-14.765624 36.664063-4.398438 15.59375-5.125 29.910156-2.164063 42.550781 3.53125 15.074219 12.421875 27.453125 24.386719 33.96875l3.035156.804687-.066406 3.136719c-.460938 23.664063-.34375 47.542969.339844 70.964844l.117187 4.113281-204.625.226563zm0 0" fill="#d34242"/><path d="m107.496094 63.863281c-1.527344-.472656-3.101563-1.011719-4.835938-1.640625l-5.164062-1.878906 3.375-4.335938c17.535156-22.53125 46.09375-36.890624 74.535156-37.472656l.117188-.003906c.578124-.007812 1.144531-.015625 1.722656-.015625 28.269531 0 56.027344 12.910156 74.261718 34.539063l3.40625 4.042968-4.816406 2.179688c-2.253906 1.019531-4.609375 1.910156-7 2.640625l-2.605468.796875-1.695313-2.132813c-5.585937-7.035156-12.0625-12.960937-19.242187-17.621093-12.410157-8.042969-27.546876-12.46875-42.621094-12.46875-8.550782 0-16.773438 1.382812-24.441406 4.121093-14.230469 5.078125-27.457032 14.777344-39.304688 28.820313l-2.632812 3.117187zm0 0" fill="#d34242"/><path d="m86.21875 99.910156c-11.820312-5.226562-21.433594-15.078125-26.367188-27.03125-4.097656-9.9375-4.902343-21.199218-2.273437-31.714844l1.621094-6.476562 4.945312 4.484375c12.050781 10.921875 26.597657 19.339844 42.074219 24.335937l5.332031 1.722657-3.363281 4.484375c-1.679688 2.238281-3.050781 4.152344-4.316406 6.023437-4.992188 7.355469-9.152344 14.800781-12.371094 22.125l-1.609375 3.671875zm0 0" fill="#d34242"/><g fill="#ffbf48"><path d="m254.390625 305.355469c-5.507813-3.945313-10.136719-7.730469-14.148437-11.574219-14.613282-14.019531-22.398438-31.082031-21.382813-46.839844v-1.867187l1.4375-1.199219c12.179687-10.171875 21.601563-24.078125 26.53125-39.152344l.851563-2.601562 2.730468-.148438c9.773438-.535156 17.269532-10.246094 20.101563-19.042968 2.1875-6.824219 2.40625-15.699219-3.535157-20.140626-2.015624-1.503906-4.597656-2.296874-7.464843-2.296874-2.085938 0-4.203125.414062-6.289063 1.234374l-9.453125 3.71875 4.382813-9.167968c8.171875-17.09375 11.214844-36.414063 8.570312-54.402344l-.566406-3.832031 3.816406-.6875c2.84375-.511719 5.628906-1.371094 8.277344-2.5625l6.222656-2.792969-.601562 6.792969c-.867188 9.855469 4.796875 19.28125 9.699218 25.449219 2.1875 2.765624 4.566407 5.417968 6.867188 7.980468 4.859375 5.421875 9.453125 10.542969 12.714844 16.789063 5.761718 11.003906 6.304687 24.941406 1.414062 36.367187-1.652344 3.855469-3.898437 7.550782-6.070312 11.121094-4.316406 7.109375-8.371094 13.789062-8.46875 21.703125-.085938 6.351563 2.417968 12.039063 5.070312 18.058594 1.503906 3.425781 2.882813 6.578125 3.867188 9.925781 3.640625 12.382812.894531 27.023438-7.160156 38.207031-7.511719 10.394531-19.601563 18.128907-33.179688 21.21875l-2.1875 1.164063zm0 0"/><path d="m252.535156 54.1875c-6.488281-7.976562-14.378906-14.890625-23.445312-20.550781l-3.40625-2.125 5.796875-9.214844 3.367187 2.050781c3.265625 1.988282 7.007813 3.117188 10.625 4.207032l.140625.042968c2.132813.648438 4.148438 1.265625 6.152344 2.058594 6.136719 2.425781 11.917969 11.171875 11.722656 17.714844l.246094 2.152344-1.730469 1.476562c-1.328125 1.050781-2.730468 2.0625-4.171875 3.007812l-3.015625 1.980469zm0 0"/><path d="m96.160156 169.148438c-.699218-.160157-1.449218-.277344-2.230468-.355469l-3.238282-.3125-.351562-3.234375c-6.757813-13.238282-8.710938-29.683594-5.488282-46.292969 2.738282-14.042969 9.152344-28.570313 19.066407-43.183594 14.125-20.808593 30.476562-34.632812 48.597656-41.09375 7.691406-2.746093 15.925781-4.136719 24.46875-4.136719 15.019531 0 30.125 4.433594 42.53125 12.480469 19.171875 12.425781 32.964844 33.769531 36.886719 57.089844 3.417968 20.222656-.34375 41.746094-10.589844 60.601563l-4.882812 8.988281-2.511719-9.914063c-3.992188-15.78125-12.007813-30.265625-23.183594-41.890625-4.550781-4.734375-9.578125-9.007812-14.441406-13.144531l-.136719-.117188c-4.765625-4.0625-9.691406-8.261718-14.121094-12.835937-2.496094-2.59375-4.539062-4.96875-6.257812-7.277344-.554688-.75-1.125-1.859375-1.808594-3.226562-1.03125-2.027344-2.0625-4.058594-3.195312-4.871094-.671876-.484375-1.265626-.738281-1.710938-.738281-.125 0-.25.015625-.378906.058594-.734375.230468-1.175782 1.128906-1.820313 2.933593-.179687.503907-.363281 1.011719-.578125 1.519531-1.410156 3.425782-2.9375 6.421876-4.660156 9.132813-3.832031 6.011719-9.042969 11.851563-15.941406 17.851563-4.160156 3.613281-8.597656 7.042968-12.886719 10.355468l-.09375.074219c-6.554687 5.050781-13.328125 10.273437-19.285156 16.320313-9.867188 10-15.714844 20.976562-16.90625 31.753906l-.488281 4.445312zm0 0"/><path d="m229.085938 33.636719c-14.902344-9.324219-32.464844-14.703125-49.453126-15.144531l-4.007812-.101563.308594-10.761719 3.972656.085938c.214844.003906.425781.007812.640625.007812 3.472656 0 6.96875-.617187 10.347656-1.214844 3.28125-.578124 6.371094-1.121093 9.585938-1.210937.304687-.011719.617187-.015625.929687-.015625 8.335938 0 16.59375 3.257812 22.660156 8.933594 1.179688 1.101562 2.238282 2.246094 3.363282 3.460937l.109375.121094c1.949219 2.117187 3.765625 4.089844 5.996093 5.679687.414063.300782.835938.582032 1.324219.878907l3.445313 2.117187-5.839844 9.277344zm0 0"/><path d="m118.734375 25.25 3.398437-1.996094c.726563-.425781 1.453126-.863281 2.183594-1.308594.9375-.578124 1.878906-1.1875 2.792969-1.808593 2.207031-1.507813 4.40625-3.21875 6.535156-4.871094l.160157-.121094c6.46875-5.03125 13.152343-10.226562 21.238281-10.984375.683593-.0625 1.402343-.097656 2.125-.097656 3.847656 0 7.722656.925781 11.46875 1.816406 3.511719.835938 7.089843 1.691406 10.691406 1.828125.121094.003907.210937.007813.300781.007813l4.316406-.210938-.328124 11.183594-4.074219-.199219c-.144531-.007812-.28125-.015625-.425781-.015625-.671876-.011718-1.269532-.019531-1.878907-.019531-.621093 0-1.238281.007813-1.847656.019531-15.628906.320313-31.417969 4.738282-45.648437 12.773438-.726563.410156-1.457032.832031-2.175782 1.265625l-3.519531 2.109375zm0 0"/><path d="m94.664062 59.003906c-1.09375-.488281-2.183593-.988281-3.265624-1.519531l-2.753907-1.347656.585938-3.007813c1.800781-9.25 9.300781-15.925781 15.269531-19.898437 3.617188-2.398438 7.363281-4.394531 10.984375-6.328125 2.230469-1.195313 4.480469-2.398438 6.675781-3.664063l3.488282-2.011719 5.265624 9.285157-3.355468 2.007812c-10.898438 6.5-20.488282 15.0625-27.761719 24.777344-.058594.097656-.113281.1875-.179687.28125l-1.875 2.804687zm0 0"/><path d="m92.109375 306.390625c-13.347656-3.816406-22.734375-8.09375-30.441406-13.863281-10.0625-7.53125-16.699219-17.871094-18.210938-28.363282-1.246093-8.628906.703125-17.019531 2.769531-25.90625 2.132813-9.175781 4.320313-18.609374 2.394532-27.804687-1.386719-6.636719-4.824219-12.695313-8.144532-18.554687-4.183593-7.386719-8.121093-14.351563-8.574218-22.472657-.621094-10.929687 5.75-20.984375 11.207031-27.492187 2.996094-3.554688 6.328125-6.914063 9.546875-10.164063 3.832031-3.863281 7.769531-7.832031 11.152344-12.144531 3.71875-4.730469 8.375-12.125 9.449218-20.480469l.8125-6.292969 5.328126 3.441407c2.300781 1.488281 4.671874 2.761719 7.046874 3.789062l3.4375 1.488281-1.257812 3.527344c-1.675781 4.691406-2.964844 9.347656-3.832031 13.835938-3.09375 15.90625-1.402344 31.824218 4.757812 44.816406l2.078125 4.378906-4.695312 1.207032c-3.839844.988281-7.265625 3.097656-9.640625 5.933593-5.597657 6.695313-5.640625 17.226563-.097657 23.972657 3.449219 4.199218 8.976563 6.703124 14.792969 6.703124 1.605469 0 3.183594-.195312 4.691407-.578124l3.957031-1.007813.925781 3.980469c3.4375 14.8125 12.605469 28.941406 25.148438 38.765625l1.421874 1.113281.105469 1.804688c4.234375 19.21875-10.578125 39.9375-27.171875 51.988281-1.859375 1.347656-3.777344 2.660156-5.695312 3.894531l-1.523438.980469zm0 0"/></g><path d="m273.910156 503.800781c-.925781-31.425781-.832031-63.210937.28125-94.46875v-.039062h-.035156c-.199219 4.75-.332031 9.484375-.460938 14.222656l-.195312 7.21875-6.015625-3.988281c-10.363281-6.890625-18.121094-18.578125-21.28125-32.058594-2.957031-12.648438-2.230469-26.953125 2.164063-42.519531 3.542968-12.523438 9.007812-24.5 14.304687-35.695313l1.933594-4.082031 3.816406 2.410156c1.339844.84375 2.679687 1.683594 4.011719 2.515625l2.65625 1.667969c2.851562 1.785156 5.800781 3.628906 8.652344 5.480469 13.828124 8.976562 29.152343 20.34375 38.015624 36.59375 11.246094 20.601562 10.265626 46.289062 9.480469 66.933594l-1.890625 49.152343c-.425781 11.105469-1.960937 22.101563-10.273437 27.316407-4.699219 2.945312-10.214844 3.191406-16.941407 3.203124l-28.109374.023438zm0 0" fill="#ffdac4"/><path d="m170.679688 261.777344c-10.609376 0-21.046876-2.191406-30.183594-6.339844-20.800782-9.445312-36.402344-29.734375-39.75-51.691406-2.628906 1.394531-5.648438 2.144531-8.773438 2.144531-5.773437 0-11.277344-2.496094-14.730468-6.683594-5.527344-6.730469-5.476563-17.226562.109374-23.898437 3.433594-4.109375 8.894532-6.566406 14.613282-6.566406 3.1875 0 6.253906.777343 8.875 2.242187-.585938-16.492187 10.472656-30.265625 17.121094-37.007813 5.917968-6.003906 12.707031-11.246093 19.273437-16.316406 4.304687-3.320312 8.753906-6.75 12.992187-10.433594 6.917969-6.027343 12.136719-11.871093 15.945313-17.867187 1.648437-2.585937 3.121094-5.4375 4.5-8.722656l3.269531-7.796875 3.953125 7.476562c.15625.292969.300781.582032.429688.839844l.09375.191406c.652343 1.285156 1.238281 2.441406 1.808593 3.207032 1.734376 2.328124 3.785157 4.710937 6.269532 7.277343 4.484375 4.652344 9.453125 8.878907 14.253906 12.964844 4.863281 4.132813 9.894531 8.410156 14.433594 13.136719 13.894531 14.449218 22.890625 33.363281 25.328125 53.265625 3.660156-3.476563 7.367187-7.058594 12.027343-9.121094 2.257813-1 4.664063-1.523437 6.96875-1.523437 2.859376 0 5.425782.789062 7.429688 2.285156 5.921875 4.429687 5.695312 13.269531 3.511719 20.070312-4.1875 13.0625-13.765625 19.011719-20.894531 19.011719-.625 0-1.253907-.042969-1.871094-.117187-6.351563 22.058593-21.867188 41.292968-41.546875 51.472656-10.773438 5.5625-23.035157 8.5-35.457031 8.5zm0 0" fill="#ffdac4"/><path d="m162.980469 412.023438c-19.589844-37.585938-36.523438-76.96875-50.324219-117.046876l-.773438-2.246093 1.601563-1.753907c3.542969-3.878906 6.566406-7.945312 8.980469-12.082031 4.492187-7.714843 6.703125-15.339843 6.566406-22.648437l-.132812-7.027344 6.109374 3.476562c1.78125 1.015626 3.621094 1.957032 5.460938 2.796876 9.121094 4.140624 19.566406 6.332031 30.199219 6.332031 12.460937 0 24.734375-2.9375 35.492187-8.496094 2.113282-1.09375 4.238282-2.335937 6.492188-3.789063l5.707031-3.675781.449219 6.773438c.941406 14.230469 8.539062 28.859375 21.386718 41.1875l.097657.089843c.128906.117188.253906.230469.371093.347657l3.15625 3.15625-3.480468 2.792969-62.335938 113.710937-7.5-2.136719 1.539063-28.519531-1.519531 27.121094-.785157 14.59375zm0 0" fill="#ffdac4"/><path d="m49.507812 507.945312c-14.207031 0-28.832031-.84375-37.816406-10.917968-8.6875-9.75-8.203125-24.082032-6.96875-37.929688 1.996094-22.335937 4.0625-45.433594 10.484375-67.386718 7.15625-24.46875 19.21875-44.375 34.882813-57.566407 8.5625-7.21875 18.09375-12.523437 28.179687-18.144531l.171875-.09375c2.292969-1.277344 4.609375-2.570312 6.933594-3.894531l4.074219-2.332031 1.652343 4.394531c13.371094 35.535156 8.664063 77.410156-12.28125 109.285156l-6.921874 10.539063-.417969-12.601563c-.195313-5.949219-.398438-10.832031-.636719-15.363281 1.664062 32.589844 1.246094 65.660156-1.296875 98.300781l-.289063 3.683594-19.363281.027343zm0 0" fill="#ffdac4"/><path d="m325.328125 359.109375c-9.300781-17.042969-25.125-28.796875-39.375-38.046875-3.355469-2.175781-6.796875-4.328125-10.125-6.410156-3.5-2.191406-7.03125-4.410156-10.527344-6.691406 12.160157-3.996094 22.8125-11.515626 29.792969-21.195313 8.910156-12.359375 11.8125-27.957031 7.765625-41.730469-1.066406-3.625-2.578125-7.070312-4.042969-10.40625-2.46875-5.613281-4.800781-10.914062-4.730468-16.367187.089843-6.824219 3.875-13.054688 7.882812-19.648438 2.253906-3.707031 4.582031-7.539062 6.335938-11.636719 5.441406-12.710937 4.863281-27.609374-1.550782-39.855468-3.503906-6.695313-8.476562-12.242188-13.289062-17.609375-2.269532-2.527344-4.613282-5.144531-6.710938-7.789063-4.214844-5.316406-10.902344-15.710937-8.3125-25.597656.242188-.917969.128906-1.835938-.226562-2.640625 6.832031-5.183594 12.148437-12.390625 14.648437-20.550781 4.605469-15.007813-.453125-32.683594-12.304687-42.980469-.933594-.808594-2.1875-1.148437-3.402344-.914063-1.214844.230469-2.253906 1.007813-2.824219 2.105469-2.085937 4.035157-4.71875 7.792969-7.777343 11.179688-2.152344-6.589844-7.519532-13.167969-13.300782-15.453125-2.195312-.867188-4.433594-1.546875-6.59375-2.203125-3.988281-1.207031-7.75-2.347657-10.753906-4.496094-1.90625-1.355469-3.585938-3.183594-5.363281-5.117187-1.164063-1.265626-2.363281-2.570313-3.691407-3.8125-7.109374-6.648438-16.773437-10.304688-26.5-10.015626-3.507812.105469-6.886718.699219-10.152343 1.273438-3.734375.65625-7.253907 1.277344-10.714844 1.144531-3.191406-.125-6.433594-.894531-9.863281-1.710937-4.761719-1.136719-9.695313-2.308594-14.949219-1.820313-9.273437.863281-16.4375 6.433594-23.363281 11.820313-2.226563 1.730468-4.332032 3.371094-6.5 4.847656-3.519532 2.40625-7.269532 4.414062-11.242188 6.535156-3.753906 2.007813-7.632812 4.082032-11.316406 6.53125-6.144531 4.089844-13.683594 10.792969-16.417969 20.136719-8.53125-4.949219-16.410156-11.015625-23.355469-18.050781-.957031-.96875-2.332031-1.386719-3.667968-1.117188-1.332032.269532-2.441406 1.195313-2.945313 2.457032-5.226562 13.105468-5.140625 28.101562.234375 41.148437 2.984375 7.234375 7.550782 13.746094 13.230469 19.074219.871094 9.722656-5 18.894531-8.707031 23.609375-3.25 4.136719-6.929688 7.851562-10.828125 11.78125-3.285157 3.3125-6.683594 6.738281-9.785157 10.433593-8.628906 10.273438-12.71875 20.480469-12.164062 30.335938.511719 9.066406 4.875 16.773438 9.097656 24.230469 3.316406 5.867187 6.453125 11.40625 7.707032 17.390625 1.742187 8.328125-.257813 16.929687-2.375 26.039062-2.058594 8.867188-4.1875 18.035156-2.835938 27.421875 1.667969 11.554688 8.882812 22.867188 19.800781 31.039063 7.878907 5.894531 16.738281 9.683594 24.722657 12.355468-2.546876 1.460938-5.101563 2.886719-7.628907 4.292969-9.824219 5.472657-19.984375 11.128907-28.863281 18.609375-16.277344 13.71875-28.785156 34.308594-36.160156 59.535156-6.527344 22.316407-8.613282 45.621094-10.628906 68.160157-1.261719 14.09375-1.785157 30.046875 7.980468 41 10.046875 11.265625 26.328125 12.273437 40.882813 12.273437h.351562l19.144531-.019531c.089844.003906.179688.007813.269532.007813.039062 0 .078125-.007813.121094-.007813l232.710937-.257813c5.796875-.007812 13.015625-.015624 19.089844-3.820312 11.269531-7.0625 11.878906-22.960938 12.171875-30.597656l1.886718-49.148438c.8125-21.144531 1.824219-47.460937-9.960937-69.050781zm-83.078125 36.507813c3.785156 16.175781 13.398438 29.503906 26.367188 36.566406.285156.152344.578124.265625.875.347656-.460938 23.714844-.339844 47.546875.34375 71.164062l-196.1875.21875c1.816406-23.621093 2.535156-47.464843 2.125-71.226562.996093-.164062 1.933593-.679688 2.585937-1.554688 25.078125-33.75 31.316406-80.648437 16.035156-119.8125 3.085938-1.898437 6.128907-3.886718 9.066407-6.023437 2.292968-1.667969 4.511718-3.457031 6.628906-5.34375 14.484375 41.460937 32.265625 82.089844 52.90625 120.832031.785156 1.472656 3.171875 5.949219 7.871094 5.984375h.050781c4.679687 0 7.117187-4.449219 7.921875-5.914062l64.957031-118.519531c5 4.136718 10.28125 7.890624 15.65625 11.4375-5.65625 11.933593-11.316406 24.261718-14.996094 37.289062-4.585937 16.242188-5.328125 31.230469-2.207031 44.554688zm-133.574219-335.578126c-1.5625-.484374-3.109375-1.015624-4.648437-1.570312 16.839844-21.648438 44.046875-35.375 71.464844-35.933594.585937-.011718 1.167968-.019531 1.753906-.019531 26.886718 0 53.875 12.554687 71.203125 33.113281-2.117188.96875-4.296875 1.785156-6.519531 2.460938-5.75-7.238282-12.566407-13.535156-20.199219-18.484375-20.828125-13.503907-47.875-16.863281-70.585938-8.757813-14.957031 5.335938-28.707031 15.417969-41.019531 30.007813-.410156-.359375-.898438-.644531-1.449219-.816407zm-1.445312 17.980469c13.632812-20.085937 29.316406-33.402343 46.625-39.578125 20.398437-7.277344 44.722656-4.238281 63.484375 7.929688 18.246094 11.832031 31.378906 32.167968 35.121094 54.402344 3.261718 19.351562-.445313 40.136718-10.15625 58.035156-4.136719-16.320313-12.492188-31.523438-24.1875-43.6875-4.660157-4.847656-9.78125-9.207032-14.734376-13.421875-4.738281-4.035157-9.636718-8.207031-13.96875-12.6875-2.359374-2.441407-4.296874-4.691407-5.929687-6.882813-.367187-.496094-.9375-1.625-1.441406-2.621094-1.222657-2.429687-2.484375-4.941406-4.433594-6.339843-1.925781-1.382813-3.8125-1.800781-5.605469-1.246094-2.757812.855469-3.710937 3.484375-4.402344 5.402344-.15625.421875-.316406.867187-.5 1.320312-1.332031 3.230469-2.753906 6.019531-4.355468 8.535157-3.609375 5.675781-8.578125 11.230468-15.191406 16.980468-4.097657 3.5625-8.523438 6.980469-12.800782 10.28125-6.671875 5.15625-13.570312 10.480469-19.683594 16.675782-10.492187 10.636718-16.746093 22.554687-18.027343 34.125-.898438-.203126-1.808594-.339844-2.722657-.429688-.054687-.464844-.175781-.929688-.402343-1.371094-6.371094-12.472656-8.195313-28.003906-5.136719-43.734375 2.621094-13.484375 8.832031-27.511719 18.449219-41.6875zm-8.347657 96.460938c1.273438.710937 2.832032.679687 4.074219-.082031 1.246094-.761719 1.980469-2.132813 1.925781-3.589844-.574218-14.972656 9.730469-27.746094 15.925782-34.023438 5.730468-5.808594 12.410156-10.96875 18.875-15.957031 4.367187-3.375 8.886718-6.867187 13.164062-10.582031 7.207032-6.265625 12.667969-12.398438 16.703125-18.738282 1.773438-2.792968 3.351563-5.847656 4.808594-9.324218.175781.34375.339844.671875.484375.953125.710938 1.414062 1.386719 2.75 2.171875 3.808593 1.839844 2.46875 4 4.976563 6.597656 7.667969 4.605469 4.765625 9.65625 9.066407 14.542969 13.226563 4.800781 4.089844 9.765625 8.3125 14.144531 12.867187 13.296875 13.832031 21.90625 31.933594 24.238281 50.972657.1875 1.515624 1.21875 2.800781 2.660157 3.308593 1.445312.511719 3.046875.160157 4.148437-.902343 3.339844-3.230469 6.789063-6.574219 10.804688-8.347657 3.808594-1.683593 7.882812-1.566406 10.382812.300781 4.242188 3.171876 3.785156 10.410157 2.101563 15.648438-2.761719 8.609375-10.175781 17.1875-18.460938 16.152344-1.960937-.246094-3.828125.976562-4.375 2.886718-6.027343 21.003907-20.796875 39.320313-39.507812 48.992188-19.246094 9.949219-43.0625 10.746094-62.148438 2.074219-19.597656-8.902344-34.292969-27.996094-37.449219-48.648438-.199218-1.304687-1.019531-2.425781-2.199218-3.007812-.5625-.277344-1.171875-.417969-1.785156-.417969-.667969 0-1.335938.167969-1.9375.496094-5.898438 3.238281-14.171876 1.640625-18.445313-3.554688-4.269531-5.195312-4.234375-13.621094.082031-18.78125 4.320313-5.160156 12.605469-6.683594 18.472656-3.398437zm34.144532 81.6875c1.878906 1.074219 3.808594 2.066406 5.785156 2.964843 9.839844 4.472657 20.800781 6.691407 31.855469 6.691407 12.851562 0 25.832031-3 37.328125-8.945313 2.332031-1.203125 4.605468-2.542968 6.820312-3.980468 1.003906 15.105468 9.011719 30.761718 22.613282 43.8125.132812.128906.277343.25.410156.378906-.40625.324218-.757813.730468-1.023438 1.214844l-62.316406 113.695312 1.539062-28.519531c.121094-2.222657-1.585937-4.125-3.808593-4.242188-2.183594-.121093-4.121094 1.582031-4.242188 3.804688l-1.464843 27.132812c-19.515626-37.449219-36.34375-76.597656-50.082032-116.496093 3.691406-4.046876 6.910156-8.363282 9.476563-12.769532 4.863281-8.347656 7.261719-16.769531 7.109375-24.742187zm147.410156-129.433594c2.246094 2.835937 4.675781 5.542969 7.023438 8.160156 4.6875 5.226563 9.113281 10.164063 12.152343 15.964844 5.21875 9.972656 5.710938 22.59375 1.28125 32.941406-1.53125 3.574219-3.613281 6.996094-5.816406 10.625-4.394531 7.230469-8.9375 14.707031-9.054687 23.730469-.089844 7.203125 2.707031 13.566406 5.410156 19.71875 1.425781 3.242188 2.773437 6.304688 3.691406 9.433594 3.296875 11.230468.78125 24.542968-6.570312 34.738281-6.9375 9.617187-18.167969 16.785156-30.820313 19.660156-.367187.085938-.699219.230469-1.011719.398438-4.832031-3.46875-9.480468-7.148438-13.714844-11.210938-13.796874-13.242187-21.140624-29.21875-20.148437-43.828125 0-.039062-.007813-.082031-.003906-.121094 12.667969-10.582031 22.539062-24.984374 27.769531-40.984374 11.167969-.609376 20.195312-10.925782 23.691406-21.808594 2.609375-8.136719 2.683594-18.867188-4.953125-24.574219-4.65625-3.476563-11.328125-4.050781-17.605469-1.570313 8.496094-17.789062 11.699219-37.800781 8.921876-56.714843 3.171874-.566407 6.265624-1.53125 9.210937-2.855469-.976563 11.003906 4.980469 21.28125 10.546875 28.296875zm-1.691406-87.125c6.980468 8.414063 9.621094 20.496094 6.410156 30.960937-3.546875 11.554688-14.101562 20.71875-25.992188 22.792969-2.449218-10.125-6.664062-19.777343-12.292968-28.414062 12.976562-4.617188 24.441406-13.738281 31.875-25.339844zm-172.027344-3.046875c3.355469-2.234375 6.898438-4.125 10.648438-6.132812 3.984374-2.128907 8.109374-4.332032 11.992187-6.988282 2.367187-1.617187 4.671875-3.410156 6.898437-5.140625 6.289063-4.890625 12.230469-9.511719 19.160157-10.15625 3.929687-.367187 8.015625.605469 12.335937 1.632813 3.65625.871094 7.4375 1.773437 11.417969 1.925781 4.320313.167969 8.4375-.558594 12.421875-1.257813 3.121094-.550781 6.070312-1.070312 8.992188-1.15625 7.613281-.214843 15.1875 2.632813 20.753906 7.84375 1.109375 1.035157 2.15625 2.175782 3.269531 3.382813 1.976563 2.152344 4.023437 4.375 6.609375 6.222656 4.082031 2.914063 8.664062 4.304688 13.097656 5.648438 2.097656.636719 4.085938 1.238281 5.972656 1.988281 4.574219 1.804688 9.386719 9.101562 9.195313 13.941406-.003906.1875.015625.371094.035156.550782-1.253906.984374-2.546875 1.921874-3.882812 2.792968-18.78125-23.070312-48.648438-37.207031-78.402344-37.207031-.632813 0-1.273437.007813-1.90625.019531-30.453125.621094-60.671875 16.183594-78.867187 40.609375-.066407.085938-.105469.183594-.164063.277344-1.054687-.472656-2.097656-.957031-3.136719-1.460937 1.523438-7.867188 8.191406-13.761719 13.558594-17.335938zm-43.167969 34.789062c-3.800781-9.21875-4.5-19.582031-2.09375-29.222656 12.523438 11.351563 27.433594 19.984375 43.527344 25.1875-1.496094 1.992188-2.976563 4.039063-4.425781 6.171875-5.167969 7.621094-9.414063 15.226563-12.71875 22.765625-10.902344-4.820312-19.746094-13.878906-24.289063-24.902344zm.519531 217.972657c-9.21875-6.902344-15.289062-16.28125-16.652343-25.734375-1.136719-7.886719.730469-15.929688 2.710937-24.445313 2.222656-9.5625 4.515625-19.445312 2.410156-29.515625-1.507812-7.210937-5.105468-13.566406-8.582031-19.710937-3.9375-6.957031-7.660156-13.527344-8.0625-20.710938-.542969-9.640625 5.292969-18.753906 10.289063-24.699219 2.886718-3.4375 6.164062-6.742187 9.332031-9.941406 3.890625-3.917968 7.90625-7.972656 11.445313-12.476562 4.359374-5.546875 9.105468-13.4375 10.269531-22.433594 2.425781 1.5625 4.972656 2.945312 7.628906 4.101562-1.726563 4.84375-3.066406 9.652344-3.992187 14.410157-3.269532 16.816406-1.453126 33.523437 5.074218 47.292969-4.511718 1.164062-8.683594 3.625-11.710937 7.242187-6.796875 8.125-6.851563 20.894531-.125 29.074219 5.578125 6.789062 15.160156 9.609375 23.5625 7.464844 3.707031 15.9375 13.398437 30.6875 26.578125 41.011718.015625.171875.023437.34375.0625.515625 3.953125 17.441407-10.003906 36.679688-25.585938 48.003907-1.789062 1.300781-3.636718 2.554687-5.519531 3.769531-12.820313-3.667969-21.84375-7.761719-29.132813-13.21875zm-14.1875 214.617187c-.125 0-.25 0-.378906 0-13.359375 0-26.996094-.796875-34.824218-9.574218-7.625-8.550782-7.132813-21.9375-5.972657-34.917969 1.984375-22.152344 4.03125-45.058594 10.335938-66.613281 6.933593-23.699219 18.558593-42.9375 33.621093-55.636719 8.28125-6.976563 17.660157-12.199219 27.589844-17.726563 2.351563-1.308594 4.726563-2.636718 7.101563-3.992187 12.953125 34.417969 8.304687 74.972656-11.878907 105.683593-.167968-5.152343-.371093-10.304687-.644531-15.441406-.117187-2.226562-2.03125-3.933594-4.238281-3.8125-2.222656.117188-3.929688 2.015625-3.8125 4.242188 1.726562 32.46875 1.300781 65.339844-1.21875 97.769531zm277.351563-76.089844-1.886719 49.144532c-.386718 10.011718-1.667968 19.859375-8.398437 24.074218-3.8125 2.386719-8.753907 2.582032-14.820313 2.589844l-24.226562.027344c-.914063-31.285156-.824219-62.960938.285156-94.21875.078125-2.222656-1.660156-4.09375-3.886719-4.171875-.046875 0-.097656-.003906-.144531-.003906-2.160156 0-3.949219 1.714843-4.027344 3.890625-.167968 4.730468-.304687 9.476562-.429687 14.226562-9.4375-6.265625-16.667969-17.097656-19.601563-29.632812-2.804687-11.980469-2.09375-25.613282 2.117188-40.519532 3.410156-12.066406 8.710937-23.742187 14.070312-35.078124 1.757813 1.109374 3.515625 2.214843 5.261719 3.308593 3.304687 2.0625 6.714844 4.199219 10.015625 6.339844 13.402344 8.699219 28.246094 19.679687 36.683594 35.144531 10.722656 19.640625 9.761718 44.722656 8.988281 64.878906zm0 0"/></svg>