<svg height="512pt" viewBox="-92 0 512 512.0009" width="512pt" xmlns="http://www.w3.org/2000/svg"><path d="m86.332031 103.386719c.402344-10.078125-.8125-21.605469-1.753906-29.394531-1.121094-9.320313-1.792969-22.847657 5.273437-32.738282 3.507813-4.902344 8.394532-8.355468 13.957032-12.039062 18.75-12.4375 41.097656-25.152344 64.664062-25.152344 2.492188 0 4.988282.148438 7.414063.433594 15.867187 1.875 30.410156 10.082031 41.308593 17.019531 9.8125 6.246094 19.769532 13.453125 26.101563 23.78125 5.304687 8.652344 7.984375 19.4375 7.960937 32.058594-.007812 10.113281-1.773437 20.480469-3.425781 29.402343l-1.105469 5.972657-5.050781-3.375c-4.445312-2.96875-9.9375-6.1875-16.328125-9.570313l-.644531-.339844c-.402344-.210937-.757813-.398437-1.0625-.5625-18.058594-9.761718-36.503906-15.40625-54.8125-16.773437-2.710937-.199219-5.464844-.304687-8.183594-.304687-25.523437 0-50.179687 9.011718-67.640625 24.71875l-7.050781 6.34375zm77.839844-73.476563c-1.453125 0-2.9375.238282-4.410156.707032-7.40625 2.359374-13.503907 10.554687-14.1875 19.0625-.042969.59375-.066407 1.136718-.066407 1.648437 0 3.695313 1.046876 7.074219 2.945313 9.511719 1.890625 2.441406 4.84375 4.328125 9.03125 5.777344 2.949219 1.03125 5.683594 1.550781 8.132813 1.550781 2.203124 0 4.222656-.425781 6-1.269531 3.816406-1.785157 6.820312-5.75 8.257812-10.871094 2.007812-7.140625.585938-14.761719-3.710938-19.890625-3.425781-4.070313-7.570312-6.226563-11.992187-6.226563zm0 0" fill="#ed6d66"/><path d="m27.109375 507.9375c-6.492187 0-13.75-.652344-18.375-5.484375-5.203125-5.433594-5-13.679687-4.34375-21.660156l7.648437-93.679688c1.253907-15.273437 2.667969-32.507812 11.835938-46.171875 9.164062-13.660156 24.4375-21.335937 39.214844-28.761718 3.597656-1.804688 7.664062-3.839844 11.542968-5.953126l1.382813-.757812c5.714844-3.097656 11.609375-6.292969 16.480469-10.78125l6.535156-6.023438.175781 8.886719c.324219 16.636719 2.640625 33.21875 6.886719 49.285157.378906 1.441406.953125 2.980468 2.289062 3.453124.265626.09375.527344.140626.792969.140626 1.375 0 2.789063-1.183594 3.390625-1.6875l37.644532-31.792969 1.457031 6.414062c.589843 2.601563.890625 5.371094 1.183593 8.050781l.289063 2.527344c1.53125 12.636719 5.5625 25.203125 11.65625 36.335938l10.113281-48.128906 1.808594-8.730469 5.316406 7.15625c7.550782 10.15625 16.277344 19.492187 25.945313 27.742187.609375.515625 2.019531 1.714844 3.40625 1.714844.289062 0 .5625-.054688.863281-.171875 1.308594-.5 1.84375-1.945313 2.246094-3.261719 5.265625-17.46875 9.019531-35.558594 11.167968-53.765625l1.019532-8.667969 5.898437 6.429688c4.746094 5.171875 10.914063 10.058594 18.867188 14.9375 9.648437 5.917969 18.765625 11.507812 27.640625 18.882812 22.039062 18.300782 37.167968 47.710938 42.597656 82.8125 4.882812 31.484376 1.964844 64.691407-.378906 91.371094l-.3125 3.582032-62.300782 1.226562-3.828124-109.367188c.003906 0-.027344-.03125-.097657-.03125l3.863281 109.390626-188.355468 3.71875 8.328125-118.359376-8.386719 118.359376-40.503906.789062c-.867188.019531-1.738282.03125-2.605469.03125zm0 0" fill="#59bd8b"/><path d="m247.6875 133.855469-.640625.179687-.695313-.050781c-.699218-.058594-1.402343-.171875-2.097656-.34375-3.402344-.863281-6.316406-2.773437-9.25-4.824219-2.566406-1.789062-5.144531-3.667968-7.636718-5.488281l-.21875-.15625c-8.683594-6.335937-17.65625-12.886719-27.757813-17.023437-8.765625-3.589844-18.433594-5.410157-28.734375-5.410157-7.898438 0-16.066406 1.054688-24.277344 3.136719-15.070312 3.824219-30.128906 10.75-48.832031 22.453125l-.183594.109375c-2.890625 1.8125-5.851562 3.648438-9.195312 3.988281-.289063.027344-.570313.042969-.851563.042969-3.042968 0-6.527344-1.65625-7.296875-4.828125-.746093-2.980469 1.179688-5.976563 2.941407-8.253906 17.207031-22.242188 46.226562-35.523438 77.625-35.523438 2.734374 0 5.503906.101563 8.234374.304688 18.285157 1.363281 36.726563 7.003906 54.804688 16.769531.460938.25 1.027344.554688 1.691406.90625 26.882813 14.203125 30.71875 21.484375 31.265625 25.722656.269531 2.324219-.582031 4.378906-2.53125 6.15625-1.273437 1.144532-2.941406 1.894532-4.84375 2.1875l-.851562.132813zm0 0" fill="#f7b36f"/><path d="m165.617188 68.089844c-2.46875 0-5.195313-.515625-8.101563-1.523438-4.1875-1.453125-7.136719-3.34375-9.015625-5.773437-2.191406-2.796875-3.210938-6.75-2.863281-11.105469.695312-8.621094 6.644531-16.617188 14.144531-19.007812 1.457031-.464844 2.929688-.699219 4.378906-.699219 3.078125 0 7.648438 1.074219 11.949219 6.195312 4.289063 5.125 5.710937 12.722657 3.707031 19.835938-1.4375 5.105469-4.4375 9.058593-8.230468 10.839843-1.746094.820313-3.753907 1.238282-5.96875 1.238282zm0 0" fill="#f7b36f"/><path d="m208.214844 348.507812-.367188-.394531c-10.550781-9.019531-19.976562-19.355469-28.015625-30.726562l-2.179687-3.078125 2.949218-2.355469c1.347657-1.074219 2.808594-2 4.3125-2.929687l41.769532-25.847657-.921875 8.179688c-2.101563 18.660156-5.894531 37.179687-11.273438 55.046875l-1.355469 4.503906zm0 0" fill="#cbe580"/><path d="m106.109375 346.628906c-4.933594-18.695312-7.230469-37.988281-6.832031-57.34375l.144531-7.128906 38.820313 24.832031c3.03125 1.9375 6.472656 4.132813 9.019531 7.085938l2.820312 3.261719-3.496093 2.589843-38.863282 32.820313zm0 0" fill="#cbe580"/><g fill="#c67045"><path d="m234.671875 170.035156c-7.769531-11.496094-10.367187-26.320312-6.949219-39.648437l1.457032-5.6875 4.847656 3.5c.308594.222656.617187.445312.929687.664062 2.789063 1.945313 5.777344 3.910157 9.101563 4.785157l3.523437.929687-7.296875 43.765625zm0 0"/><path d="m197.53125 260.390625c-1.515625 0-3.109375-.5625-4.371094-1.542969-1.71875-1.359375-2.972656-3.410156-3.75-6.117187-.679687-2.429688-.945312-5.070313-.839844-8.339844.050782-2.007813.246094-4.070313.433594-6.066406.128906-1.394531.253906-2.742188.339844-4.089844.511719-8-1.164062-13.820313-4.976562-17.300781-2.171876-1.980469-5.003907-3.140625-7.957032-4.25l-.332031-.121094c-2.707031-1.027344-5.503906-2.089844-7.691406-3.941406l-.085938-.070313c-.273437-.246093-.542969-.492187-.800781-.769531h-4l-.042969-4.023438v-6.910156h4c1.410157-.890625 3.222657-1.316406 5.566407-1.316406 3.296874 0 7.644531.886719 11.351562 2.316406 7.40625 2.84375 13.652344 8.332032 17.132812 15.050782 3.363282 6.476562 4.683594 14.28125 4.160157 24.542968l-.003907.101563c-.242187 4.660156-.8125 9.304687-1.328124 13.289062-.484376 3.800781-1.347657 7.53125-4.378907 9.019531-.765625.363282-1.570312.539063-2.425781.539063zm0 0"/><path d="m154.179688 140.121094c-12.070313-4.132813-22.167969-13.589844-27.007813-25.292969l-1.539063-3.714844 3.71875-1.519531c5.835938-2.382812 11.410157-4.230469 17.046876-5.652344 8.222656-2.085937 16.386718-3.144531 24.261718-3.144531 10.28125 0 19.9375 1.820313 28.703125 5.410156 2.082031.847657 4.261719 1.875 6.648438 3.132813l6.128906 3.230468-5.863281 3.691407c-4.261719 2.683593-9.410156 4.164062-14.5 4.164062-2.355469 0-4.667969-.3125-6.871094-.925781l2.089844 7.371094 1.796875 6.179687-6.335938-1.125c-9.285156-1.648437-18.058593-5.585937-25.367187-11.394531.234375 5.035156 1.011718 10.003906 2.257812 14.800781l1.871094 7.199219zm0 0"/><path d="m137.390625 260.394531c-.851563 0-1.648437-.175781-2.367187-.519531-3.117188-1.535156-3.988282-5.4375-4.4375-9.058594-.59375-4.726562-1.105469-9.007812-1.335938-13.421875-.515625-10.253906.808594-18.039062 4.167969-24.503906 3.480469-6.714844 9.726562-12.199219 17.132812-15.046875 3.6875-1.429688 8.035157-2.316406 11.335938-2.316406 2.335937 0 4.148437.425781 5.542969 1.304687h4l.023437 4.015625v6.910156h-4c-.320313.332032-.609375.601563-.910156.851563-2.242188 1.894531-5.085938 2.964844-7.839844 4l-.128906.054687c-2.558594.960938-5.679688 2.136719-8.046875 4.28125-3.78125 3.460938-5.449219 9.285157-4.941406 17.289063.085937 1.347656.214843 2.710937.339843 4.070313.203125 2.144531.375 4.085937.4375 6.085937.101563 3.300781-.171875 5.953125-.867187 8.351563-.746094 2.667968-1.996094 4.726562-3.710938 6.082031-1.265625 1-2.867187 1.570312-4.394531 1.570312zm0 0"/><path d="m89.125 170.890625c-1.65625-11.671875-3.230469-23.765625-4.679688-35.9375l-.433593-3.617187 3.5625-.769532c.292969-.0625.550781-.085937.738281-.09375 3.324219-.378906 6.273438-2.214844 9.125-4l.160156-.105468 6.167969-3.789063 1.660156 4.648437c3.054688 8.5625 3.453125 18.089844 1.113281 26.816407-1.878906 7.03125-5.519531 13.605469-10.519531 19.003906l-5.714843 6.167969zm0 0"/></g><path d="m205.78125 230.589844c-.265625-6.964844-1.644531-12.761719-4.214844-17.722656-3.488281-6.730469-9.742187-12.230469-17.167968-15.085938-1.410157-.539062-6.40625-2.3125-11.253907-2.3125-1.679687 0-3.136719.21875-4.328125.648438l-1.363281.492187-1.359375-.492187c-1.1875-.429688-2.640625-.648438-4.3125-.648438-4.839844 0-9.835938 1.769531-11.253906 2.3125-7.410156 2.851562-13.671875 8.351562-17.171875 15.082031-2.550781 4.910157-3.929688 10.644531-4.210938 17.519531l-.292969 7.074219-5.910156-3.902343c-1.292968-.855469-2.335937-1.574219-3.273437-2.269532-6.507813-4.777344-12.214844-10.394531-16.957031-16.691406-2.765626-3.667969-4.53125-7.714844-6.238282-11.625-1.261718-2.871094-2.523437-5.753906-4.148437-8.53125-.816407-1.382812-1.9375-3.285156-3.644531-4.234375-1.214844-.679687-2.636719-.847656-4.011719-1.007813-.425781-.050781-.8125-.097656-1.1875-.152343-8.308594-1.210938-15.125-8.460938-15.839844-16.855469-.683594-8.402344 4.832031-16.6875 12.832031-19.285156l5.523438-4.359375.96875 6.941406c.964844 7.332031 2.035156 15.03125 3.179687 22.898437 8.039063-6.011718 13.867188-14.652343 16.457031-24.320312 2.476563-9.246094 1.894532-19.273438-1.636718-28.226562l-1.261719-3.207032 2.980469-1.722656c5.277344-3.054688 10.214844-5.65625 15.097656-7.957031l3.777344-1.78125 1.617187 3.851562c5.910157 14.074219 19.351563 24.660157 34.246094 26.964844-1.421875-4.085937-2.535156-8.273437-3.285156-12.488281l-1.488281-8.40625 7.414062 4.234375c7.558594 4.320312 16.085938 6.882812 24.660156 7.414062l-2.035156-7.140625-1.566406-5.363281 5.582031.25c.394531.015625.792969.023437 1.1875.023437 6.347656 0 12.472656-2.21875 17.246094-6.246093l2.261719-1.90625 2.484374 1.601562c4.296876 2.769531 8.492188 5.804688 13.136719 9.203125l2.332031 1.707032-.886718 2.75c-5.542969 17.144531-.707032 37.039062 12.03125 49.515624l3.464844-20.492187.425781-2.558594 2.511719-.652343c1.121093-.292969 2.296874-.441407 3.496093-.441407 6.53125 0 13.074219 4.394531 15.5625 10.453125 2.917969 7.15625.777344 16.109375-5.195312 21.78125-4.347657 4.125-10.597657 6.492188-17.148438 6.492188-1.65625 0-3.324219-.152344-4.949219-.453125-.960937 7.453125-3.570312 16.726562-6.527343 23.109375-3.285157 7.039062-10.871094 12.980468-17.855469 17.867187-.796875.542969-1.5625 1.066407-2.347656 1.570313l-5.886719 3.769531zm0 0" fill="#ffdac4"/><path d="m159.628906 359.101562c-3.230468-8.148437-5.390625-16.625-6.421875-25.1875-.105469-.828124-.195312-1.664062-.285156-2.5-.570313-5.199218-1.214844-11.089843-4.269531-15.652343-2.597656-3.863281-6.550782-6.390625-10.371094-8.835938l-36.804688-23.53125 1.691407-3.246093c1.980469-3.796876 3.6875-7.894532 5.070312-12.179688 3.585938-11.082031 5.011719-22.898438 6.070313-33.105469l.707031-6.851562 5.601563 4.015625c2.132812 1.53125 4.398437 2.988281 6.730468 4.335937l1.835938 1.0625.152344 2.117188c.269531 3.820312.714843 7.519531 1.1875 11.285156.304687 2.398437.929687 7.363281 4.441406 9.085937.734375.359376 1.558594.542969 2.449218.542969 1.554688 0 3.121094-.5625 4.414063-1.582031 1.710937-1.351562 2.96875-3.414062 3.738281-6.128906.335938-1.179688.570313-2.386719.710938-3.6875l.488281-4.410156 4.335937.941406c4.074219.878906 8.167969 1.4375 12.167969 1.652344 1.433594.070312 2.769531.105468 4.066407.105468 5.445312 0 11-.597656 16.503906-1.773437l4.351562-.925781.460938 4.425781c.132812 1.261719.367187 2.492187.699218 3.660156.777344 2.722656 2.035157 4.785156 3.742188 6.132813 1.296875 1.027343 2.855469 1.59375 4.398438 1.59375.894531 0 1.730468-.1875 2.484374-.558594 3.488282-1.710938 4.117188-6.671875 4.417969-9.058594.429688-3.332031.90625-7.210938 1.191407-11.136719l.152343-2.125 1.847657-1.054687c1.210937-.695313 2.394531-1.410156 3.523437-2.125l6.105469-3.882813.039062 7.234375c.082032 14.398438 1.074219 29.460938 7.691406 42.039063l1.738282 3.300781-41.8125 25.875c-2.757813 1.710938-5.855469 3.640625-7.699219 6.574219-1.4375 2.292969-2 5.03125-2.5 7.449219l-10.136719 48.488281zm0 0" fill="#ffdac4"/><path d="m167.289062 247.289062c-1.335937 0-2.683593-.035156-4.011718-.105468-4.632813-.253906-9.328125-.949219-13.960938-2.066406l-2.8125-.679688-.234375-2.886719c-.089843-1.082031-.175781-2.164062-.28125-3.21875-.128906-1.390625-.25-2.75-.34375-4.078125-.5-8.015625 1.160157-13.816406 4.929688-17.265625 2.171875-1.960937 4.894531-3.085937 7.972656-4.25l.222656-.082031c2.082031-.785156 4.46875-1.679688 6.488281-3.011719l2.1875-1.441406 2.195313 1.433594c2.015625 1.316406 4.390625 2.214843 6.484375 3.011719l.285156.109374c2.902344 1.082032 5.726563 2.234376 7.902344 4.207032 3.808594 3.476562 5.476562 9.277344 4.964844 17.257812-.070313 1.128906-.175782 2.277344-.277344 3.425782l-.0625.660156c-.097656 1.0625-.195312 2.132812-.273438 3.207031l-.210937 2.925781-2.855469.679688c-6.0625 1.4375-12.222656 2.167968-18.308594 2.167968zm0 0" fill="#ffdac4"/><path d="m156.175781 70.402344c3.378907 1.175781 6.53125 1.761718 9.4375 1.761718 2.804688 0 5.382813-.546874 7.710938-1.644531 4.859375-2.285156 8.65625-7.175781 10.40625-13.410156 2.359375-8.390625.632812-17.410156-4.507813-23.539063-5.613281-6.699218-13.152344-9.164062-20.679687-6.761718-9.003907 2.871094-16.132813 12.355468-16.953125 22.546875v.003906c-.429688 5.359375.886718 10.3125 3.710937 13.941406 2.378907 3.0625 5.9375 5.386719 10.875 7.101563zm-6.550781-20.394532c.5625-6.957031 5.449219-13.625 11.367188-15.515624 4.378906-1.394532 8.546874.078124 12.054687 4.257812 3.449219 4.117188 4.570313 10.316406 2.921875 16.179688-1.117188 3.980468-3.335938 7.003906-6.082031 8.296874-3.441407 1.617188-7.917969.652344-11.0625-.441406-3.421875-1.1875-5.765625-2.640625-7.160157-4.433594-1.582031-2.035156-2.308593-4.996093-2.039062-8.34375zm0 0"/><path d="m325.710938 406.605469c-5.589844-36.085938-21.222657-66.386719-44.019532-85.320313-9.070312-7.535156-18.320312-13.210937-28.183594-19.261718-11.601562-7.121094-19.21875-14.199219-23.964843-22.273438-8.269531-14.054688-8.25-31.742188-8.230469-47.347656 0-.082032-.019531-.160156-.023438-.242188 5.929688-4.515625 11.613282-9.816406 14.527344-16.078125 2.609375-5.613281 4.960938-13.378906 6.230469-20.347656 8.066406.390625 16.027344-2.359375 21.515625-7.570313 7.164062-6.800781 9.695312-17.59375 6.15625-26.257812-3.371094-8.226562-12.007812-13.476562-20.414062-12.957031l1.882812-11.285157c2.117188-.527343 4.039062-1.515624 5.601562-2.9375 3.742188-3.410156 4.144532-7.136718 3.824219-9.660156-.425781-3.328125-2.179687-7.628906-9.511719-13.71875.007813-.03125.019532-.058594.027344-.085937 2.054688-10.980469 4.179688-22.335938 4.191406-33.902344.019532-13.386719-2.863281-24.886719-8.558593-34.183594-6.78125-11.066406-17.648438-18.894531-27.382813-25.089843-11.261718-7.171876-26.332031-15.652344-43.019531-17.625-27.320313-3.222657-53.148437 11.011718-74.800781 25.371093-5.679688 3.765625-11.105469 7.597657-15.007813 13.054688-7.894531 11.042969-7.207031 25.601562-6.003906 35.589843 1.375 11.414063 2.941406 27.785157.667969 38.109376-.042969.195312-.050782.386718-.066406.578124-.472657.574219-.941407 1.152344-1.394532 1.738282-1.363281 1.761718-4.976562 6.433594-3.679687 11.714844.539062 2.195312 2.035156 4.359374 4.253906 5.875-.113281.457031-.160156.9375-.101563 1.433593.601563 5.082031 1.238282 10.183594 1.894532 15.292969-.882813-.398438-1.90625-.496094-2.898438-.175781-9.753906 3.160156-16.472656 13.25-15.625 23.472656.859375 10.226563 9.160156 19.0625 19.3125 20.550781.414063.0625.835938.109375 1.253906.160156 1.039063.121094 2.019532.234376 2.542969.523438.742188.414062 1.539063 1.769531 2.117188 2.753906 1.519531 2.59375 2.6875 5.265625 3.925781 8.09375 1.804688 4.132813 3.675781 8.402344 6.71875 12.441406 3.335938 4.429688 7.128906 8.527344 11.316406 12.261719-1.246094 12.507813-2.539062 25.433594-6.410156 37.421875-2.78125 8.621094-6.699219 15.976563-11.632812 21.855469-4.933594 5.875-11.59375 9.488281-18.644532 13.316406l-1.40625.765625c-3.699218 2.015625-7.617187 3.984375-11.410156 5.886719-15.246094 7.660156-31.015625 15.578125-40.777344 30.128906-9.769531 14.5625-11.289062 33.164063-12.511718 48.105469l-7.65625 93.683594c-.695313 8.507812-.902344 18.140625 5.460937 24.796875 5.589844 5.851562 13.78125 6.738281 21.449219 6.738281.855468 0 1.707031-.011719 2.550781-.027344l291.3125-5.734375c2.058594-.039062 3.757813-1.625 3.9375-3.675781 2.761719-31.429688 5.621094-63.929688.664063-95.957031zm-104.304688-124.945313-38.636719 23.910156c-2.960937 1.835938-6.644531 4.117188-8.984375 7.847657-1.800781 2.871093-2.453125 6.003906-3.03125 8.765625l-7.410156 35.449218c-3.078125-7.773437-5.179688-15.972656-6.171875-24.195312-.097656-.816406-.1875-1.640625-.277344-2.464844-.621093-5.660156-1.324219-12.078125-4.921875-17.433594-3.058594-4.554687-7.566406-7.4375-11.539062-9.976562l-33.71875-21.570312c2.066406-3.945313 3.855468-8.210938 5.335937-12.796876 3.582031-11.101562 5.066407-22.621093 6.234375-33.914062 2.261719 1.613281 4.625 3.132812 7.0625 4.542969.285156 3.949219.746094 7.835937 1.210938 11.507812.355468 2.839844 1.183594 9.492188 6.644531 12.171875 1.3125.640625 2.753906.953125 4.214844.953125 2.394531 0 4.84375-.835937 6.882812-2.445312 2.398438-1.890625 4.121094-4.648438 5.113281-8.175781.394532-1.371094.667969-2.804688.835938-4.339844 4.257812.921875 8.546875 1.511718 12.808594 1.738281 1.421875.074219 2.847656.113281 4.277344.113281 5.777343 0 11.578124-.628906 17.335937-1.859375.167969 1.53125.441406 2.964844.832031 4.339844 1.011719 3.550781 2.738282 6.304687 5.113282 8.179687 3.277343 2.59375 7.632812 3.183594 11.113281 1.492188 5.425781-2.660156 6.273437-9.316406 6.636719-12.15625.441406-3.4375.921874-7.351562 1.207031-11.351562 1.246093-.707032 2.472656-1.449219 3.679687-2.214844.085938 14 .925782 30.140625 8.152344 43.882812zm.382812 9.246094c-2.074218 18.382812-5.800781 36.640625-11.136718 54.34375-.011719-.011719-.023438-.023438-.035156-.03125-10.390626-8.859375-19.636719-19-27.519532-30.144531 1.191406-.949219 2.5625-1.808594 3.917969-2.644531zm-111.8125 54.703125c-4.839843-18.355469-7.089843-37.269531-6.699218-56.242187l32.808594 20.988281c2.960937 1.890625 5.996093 3.84375 8.148437 6.332031-.035156.027344-.074219.046875-.109375.078125zm91.6875-108.28125v.003906c-.230468 4.484375-.789062 9.054688-1.292968 12.992188-.183594 1.417969-.664063 5.191406-2.175782 5.933593-.644531.3125-1.773437.0625-2.574218-.574218-1.28125-1.011719-1.992188-2.769532-2.363282-4.058594-.5625-1.992188-.785156-4.246094-.695312-7.105469.058594-1.882812.234375-3.796875.421875-5.824219.132813-1.40625.261719-2.808593.351563-4.210937.589843-9.265625-1.519532-16.164063-6.269532-20.507813-2.691406-2.453124-5.921875-3.785156-9.253906-5.035156l-.246094-.09375c-2.53125-.960937-4.921875-1.867187-6.601562-3.28125-.191406-.164062-.378906-.339844-.558594-.53125-.761719-.816406-1.828125-1.28125-2.945312-1.28125-1.117188 0-2.1875.464844-2.949219 1.28125-.175781.191406-.339844.347656-.515625.496094-1.734375 1.460938-4.144532 2.371094-6.695313 3.335938l-.183593.070312c-2.675782 1.007812-6.34375 2.386719-9.265626 5.042969-4.742187 4.332031-6.847656 11.230469-6.257812 20.507812.089844 1.386719.21875 2.785157.351562 4.1875.1875 2.027344.363282 3.945313.421876 5.84375.089843 2.855469-.132813 5.113281-.707032 7.113281-.363281 1.285157-1.066406 3.035157-2.351562 4.050782-.804688.632812-1.929688.882812-2.558594.578125-1.542969-.753907-2.03125-4.648438-2.191406-5.9375-.535156-4.21875-1.078125-8.710938-1.3125-13.136719-.480469-9.503906.699218-16.636719 3.71875-22.453125 3.042968-5.863281 8.519531-10.660156 15.027344-13.164063 3.089843-1.1875 6.980468-2.042968 9.898437-2.042968 1.441406 0 2.652344.210937 3.40625.691406 1.320313.839844 3.003906.839844 4.324219 0 2.289062-1.449219 8.695312-.425781 13.320312 1.355469 6.507813 2.5 11.976563 7.296875 15.015625 13.160156 3.03125 5.847656 4.210938 13.027344 3.707031 22.59375zm-38.175781 5.855469c-4.402343-.234375-8.839843-.898438-13.234375-1.957032-.082031-1.113281-.183594-2.214843-.285156-3.296874-.121094-1.324219-.246094-2.648438-.328125-3.957032-.429687-6.710937.800781-11.4375 3.640625-14.03125 1.640625-1.492187 3.992188-2.449218 6.683594-3.460937l.1875-.070313c2.34375-.886718 4.9375-1.867187 7.308594-3.425781 2.351562 1.546875 4.921874 2.523437 7.246093 3.402344l.257813.097656c2.679687 1.007813 5.03125 1.960937 6.664062 3.449219 2.851563 2.605468 4.085938 7.332031 3.65625 14.035156-.082031 1.320312-.207031 2.652344-.332031 3.980469-.097656 1.078125-.199219 2.171875-.28125 3.277343-7.035156 1.671876-14.152344 2.328126-21.183594 1.957032zm68.109375-111.804688c.363282.253906.722656.515625 1.082032.769532 3.082031 2.148437 6.417968 4.324218 10.359374 5.367187l-5.054687 30.28125c-7.097656-10.503906-9.539063-24.132813-6.386719-36.417969zm19.757813-2.609375c-.683594.621094-1.65625 1.023438-2.761719 1.1875-.070312-.015625-.128906-.042969-.199219-.054687-.59375-.101563-1.175781-.054688-1.722656.09375-.484375-.042969-.972656-.113282-1.46875-.242188-2.707031-.6875-5.285156-2.386718-7.910156-4.21875-2.601563-1.816406-5.238281-3.738281-7.785157-5.597656-8.886718-6.480469-18.074218-13.179688-28.605468-17.492188-10.296875-4.214843-20.683594-5.710937-30.242188-5.710937s-18.289062 1.496094-25.265625 3.265625c-15.484375 3.925781-30.894531 10.996094-49.96875 22.933594l-.089843.058594c-2.628907 1.648437-5.113282 3.199218-7.574219 3.449218-1.722657.175782-3.59375-.671875-3.859375-1.746094-.242188-1 .503906-2.632812 2.226562-4.859374 17.960938-23.222657 49.527344-36.125 82.394532-33.675782 17.730468 1.320313 35.628906 6.804688 53.199218 16.304688.460938.246094 1.042969.554687 1.726563.914062 23.277343 12.296875 28.707031 19.132813 29.164062 22.703125.085938.683594.003907 1.535157-1.257812 2.6875zm-70.332031-8.109375 2.128906 7.328125c-8.5625-1.519531-16.769532-5.179687-23.574219-10.585937-1.242187-.992188-2.953125-1.15625-4.359375-.421875-1.410156.726562-2.261719 2.21875-2.171875 3.804687.296875 5.261719 1.109375 10.472656 2.429687 15.558594-10.945312-3.757812-20.175781-12.335938-24.609374-23.042969 5.632812-2.308593 11.074218-4.109375 16.507812-5.484375 12.78125-3.242187 31.910156-5.507812 50.472656 2.089844 2.15625.882812 4.246094 1.890625 6.300782 2.972656-5.324219 3.351563-12.125 4.453125-18.175782 2.773438-1.40625-.394532-2.917968.011718-3.945312 1.050781s-1.410156 2.554687-1.003906 3.957031zm-78.351563 32.351563c-1.730469 6.464843-5.054687 12.429687-9.582031 17.3125-1.691406-11.917969-3.253906-23.933594-4.675782-35.851563.054688-.003906.105469-.003906.164063-.007812 4.332031-.441406 7.894531-2.671875 11.035156-4.636719l.09375-.058594c.65625-.410156 1.296875-.800781 1.945313-1.203125 2.796875 7.816406 3.171875 16.40625 1.019531 24.445313zm-9.5625-109.433594c3.109375-4.347656 7.683594-7.566406 12.902344-11.027344 20.4375-13.550781 44.660156-27.011719 69.402343-24.085937 15.066407 1.78125 29.09375 9.710937 39.636719 16.417968 9.40625 5.988282 18.925781 12.859376 24.835938 22.503907 4.90625 8.007812 7.386719 18.085937 7.371093 29.960937-.011718 9.554688-1.617187 19.234375-3.359374 28.679688-4.34375-2.90625-9.804688-6.144532-16.683594-9.777344-.65625-.347656-1.214844-.644531-1.65625-.882812-18.578125-10.039063-37.566406-15.84375-56.433594-17.25-29.804688-2.214844-58.691406 7.34375-78.796875 25.429687.394531-10.003906-.734375-21.390625-1.777344-30.035156-1.042969-8.65625-1.707031-21.179688 4.558594-29.933594zm12.800781 168.605469c-2.480468-3.28125-4.078125-6.945313-5.773437-10.820313-1.277344-2.917969-2.597657-5.933593-4.359375-8.941406-.992188-1.6875-2.488282-4.234375-5.148438-5.714844-1.921875-1.070312-3.925781-1.304687-5.535156-1.492187-.34375-.039063-.6875-.078125-1.023438-.125-6.429687-.945313-11.894531-6.765625-12.441406-13.242188-.539062-6.484375 3.886719-13.132812 10.074219-15.136718.484375-.15625.914063-.40625 1.289063-.707032 1.011718 7.675782 2.078124 15.34375 3.191406 22.949219.207031 1.410156 1.140625 2.605469 2.460937 3.148437.492188.203126 1.011719.300782 1.53125.300782.863281 0 1.714844-.277344 2.425781-.8125 8.699219-6.5625 15.042969-15.972656 17.859376-26.496094 2.710937-10.125 2.066406-20.984375-1.777344-30.726562 5.171875-2.984376 10.078125-5.574219 14.800781-7.804688 6.398437 15.242188 20.929687 26.832031 37.320313 29.375.207031.03125.410156.046875.617187.046875 1.191406 0 2.335937-.527344 3.109375-1.464844.90625-1.097656 1.164062-2.589843.683594-3.929687-1.378906-3.839844-2.429688-7.785156-3.136719-11.792969 8.046875 4.597656 17.160156 7.363281 26.394531 7.929687 1.308594.082032 2.574219-.480468 3.394532-1.503906.820312-1.023437 1.089843-2.382812.722656-3.644531l-2.058594-7.097656c7.628906.332031 15.289062-2.199219 21.183594-7.164063 4.332031 2.789063 8.582031 5.882813 12.945312 9.066406-5.960937 18.40625-.824218 40.03125 13.035156 53.609376.765626.75 1.78125 1.152343 2.820313 1.152343.417969 0 .839844-.066406 1.25-.199219 1.429687-.46875 2.480469-1.6875 2.726563-3.171874l3.417968-20.476563c5.410156-1.410156 12.074219 2.125 14.34375 7.660156 2.273438 5.566407.488282 12.863281-4.246094 17.355469-4.589843 4.363281-11.722656 6.285156-18.621093 5.015625-1.09375-.207031-2.21875.054687-3.113281.710937-.894532.65625-1.480469 1.652344-1.617188 2.753907-.886719 7.074219-3.359375 15.871093-6.15625 21.890625-2.871094 6.171875-9.960938 11.6875-16.519531 16.273437-.722657.503907-1.460938.996094-2.203125 1.480469-.289063-7.621094-1.8125-13.910156-4.667969-19.410156-3.929687-7.589844-10.953125-13.777344-19.273437-16.976563-2.015626-.777343-11.542969-4.160156-18.378907-1.691406-6.828125-2.46875-16.351562.914063-18.367187 1.6875-8.316406 3.199219-15.34375 9.386719-19.285156 16.976563-2.828126 5.449218-4.347657 11.664062-4.660157 19.195312-1.054687-.699219-2.097656-1.414062-3.105469-2.15625-6.195312-4.542969-11.621093-9.882812-16.128906-15.878906zm211.417969 286.0625-54.769531 1.078125-3.6875-105.429688c-.078125-2.226562-1.957032-3.925781-4.171875-3.886719-2.222657.078126-3.964844 1.941407-3.886719 4.167969l3.683594 105.304688-179.917969 3.542969 8.015625-113.984376c.15625-2.21875-1.515625-4.144531-3.738281-4.300781-2.222657-.167969-4.148438 1.515625-4.304688 3.738281l-8.066406 114.707032-36.851563.726562c-6.9375.140625-14.050781-.078125-18.011718-4.222656-4.050782-4.242188-3.828125-11.496094-3.25-18.566406l7.65625-93.683594c1.203125-14.742188 2.570312-31.453125 11.171875-44.273438 8.578125-12.785156 23.382812-20.222656 37.699219-27.414062 3.847656-1.933594 7.828124-3.933594 11.648437-6.011719l1.394531-.757812c5.9375-3.222657 12.03125-6.539063 17.269532-11.359375.324218 16.957031 2.671874 33.8125 7.019531 50.234375.359375 1.355469 1.3125 4.960937 4.820312 6.207031.734375.257812 1.445313.367188 2.125.367188 2.851563 0 5.121094-1.917969 5.980469-2.640626l32.605469-27.546874c.539062 2.382812.824219 4.957031 1.117187 7.609374.09375.855469.1875 1.707032.289063 2.550782 1.582031 13.125 5.773437 26.195312 12.113281 37.796875.714844 1.308593 2.078125 2.097656 3.535156 2.097656.195313 0 .394532-.011719.59375-.042969 1.671875-.246094 3.007813-1.507812 3.355469-3.160156l9.878906-47.261719c.0625-.289062.121094-.582031.183594-.875 7.75 10.429688 16.664063 19.960938 26.558594 28.398438.863281.734375 3.128906 2.667969 6 2.667969.734375 0 1.511719-.128907 2.3125-.433594 3.230469-1.242188 4.207031-4.46875 4.621093-5.847656 5.359376-17.742188 9.148438-36.027344 11.316407-54.449219 5.007812 5.460937 11.457031 10.570312 19.722656 15.640625 9.539063 5.855468 18.550781 11.386718 27.179687 18.550781 21.28125 17.675781 35.914063 46.210937 41.199219 80.351563 4.625 29.859374 2.203125 60.585937-.410156 90.410156zm0 0"/></svg>