<svg height="512pt" viewBox="-96 0 512 512.00049" width="512pt" xmlns="http://www.w3.org/2000/svg"><g fill="#f0f2fa"><path d="m285.523438 507.933594c-.734376 0-1.476563-.003906-2.222657-.015625l-25.960937-.308594s1.207031-4.960937 1.214844-5.003906c-1.957032-54.148438 4.765624-108 19.980468-160.058594l1.847656-6.324219 4.757813 4.558594c2.699219 2.585938 5.035156 5.0625 7.144531 7.574219 13.382813 15.859375 21.742188 37.828125 24.167969 63.527343 2.171875 22.921876-.335937 46.160157-2.757813 68.632813l-.027343.242187c-.9375 8.671876-2.273438 16.875-8.1875 21.996094-5.253907 4.554688-12.695313 5.179688-19.957031 5.179688zm0 0"/><path d="m168.054688 346.222656c-.628907-1.058594-1.085938-1.890625-1.21875-2.910156-.292969-2.171875 1.085937-4.367188 4.097656-6.511719l.695312-.472656c.867188-.617187 1.929688-1.367187 2.832032-2.210937l3.496093-3.269532s4.714844 7.3125 5.261719 8.152344l1.554688 2.394531-1.761719 2.25c-1.976563 2.527344-3.964844 4.992188-5.902344 7.324219l-3.605469 4.328125zm0 0"/><path d="m139.96875 354.441406c-2.855469-3.929687-5.664062-8.082031-8.351562-12.351562l-1.730469-2.75 2.339843-2.257813c1.089844-1.054687 2.191407-2.152343 3.363282-3.355469l2.675781-2.75 14.023437 12.578126-8.5625 16.058593zm0 0"/><path d="m18.746094 504.757812c-2.292969-.019531-5.152344-.050781-7.480469-1.261718-4.976563-2.609375-5.898437-9.082032-6.148437-15.070313-1.269532-30.683593-2.582032-62.410156 3.707031-93.097656 5.996093-29.253906 18.621093-53.796875 36.507812-70.984375l5.230469-5.027344 1.457031 7.109375c11.796875 57.566407 16.171875 116.464844 13.007813 175.058594l-.207032 3.832031zm0 0"/></g><path d="m152.367188 399.628906c-2.832032 0-5.230469-2.101562-7.40625-4.375-26.1875-27.429687-44.542969-61.464844-53.085938-98.425781l-.609375-2.632813 2.21875-1.546874c1.617187-1.128907 3.046875-2.179688 4.371094-3.21875.988281-.777344 1.902343-1.535157 2.785156-2.304688l4.632813-4.042969 1.820312 5.871094c9.230469 29.792969 24.914062 57.902344 45.351562 81.292969.722657.828125 1.71875 1.957031 3.066407 2.136718.183593.027344.285156.035157.398437.035157 1.605469 0 3.035156-1.441407 3.800782-2.21875 4.511718-4.546875 8.890624-9.257813 13.023437-14.007813l.371094-.425781.472656-.304687.238281-.554688.382813-.429688c16.382812-19.039062 30.363281-40.144531 41.546875-62.726562l2.664062-5.371094 3.9375 4.519532c3.730469 4.28125 7.992188 8.429687 12.664063 12.324218l2.386719 1.988282-1.335938 2.800781c-17.207031 36.199219-45.203125 68.054687-78.828125 89.695312-1.457031.9375-2.761719 1.710938-4.242187 1.882813-.199219.023437-.410157.035156-.625.035156zm0 0" fill="#939baa"/><path d="m181.683594 336.515625c-3.15625-4.925781-6.550782-10.304687-9.855469-15.542969l-.238281-.378906c-3.066406-4.859375-6.207032-9.832031-9.164063-14.445312l-3.738281-5.824219 6.914062-.328125c15.65625-.746094 30.996094-5.34375 44.367188-13.304688l11.652344-6.9375-6.023438 12.152344c-7.785156 15.703125-16.980468 30.785156-27.324218 44.824219l-3.449219 4.6875zm0 0" fill="#fff"/><path d="m127.25 334.859375c-7.804688-13.523437-14.21875-27.878906-19.058594-42.664063l-3.230468-9.867187 9.015624 5.148437c12.421876 7.089844 26.484376 11.375 40.664063 12.394532l6.773437.484375-3.710937 5.6875c-6.957031 10.667969-15.089844 20.644531-24.171875 29.65625l-3.6875 3.65625zm0 0" fill="#fff"/><path d="m152.667969 113.792969c-13.152344 0-26.421875-.96875-39.445313-2.875-2.089844-.308594-4.175781-.640625-6.261718-.976563l-1.523438-.242187c-8.921875-1.445313-16.957031-2.648438-25.074219-2.769531l-4.113281-.0625.179688-4.113282c.195312-4.59375.492187-8.824218.902343-12.933594l.402344-4.007812 4.003906.429688c19.417969 2.070312 39.523438 3.078124 61.464844 3.078124 34.015625 0 67.292969-2.457031 95.816406-4.761718l4.332031-.347656-.007812 4.347656c-.011719 4.363281-.367188 8.71875-1.0625 12.9375l-.527344 3.195312-3.234375.152344c-2.363281.109375-4.828125.28125-8 .558594-8.753906.765625-17.441406 2.183594-25.84375 3.554687-5.652343.917969-11.171875 1.804688-16.601562 2.515625-11.695313 1.539063-23.609375 2.320313-35.40625 2.320313zm0 0" fill="#d8deec"/><path d="m259.546875 134.882812c-2.078125 0-4.128906-.09375-6.113281-.183593l-.40625-.019531c-1.617188-.074219-3.144532-.140626-4.617188-.148438l-195.019531-1.652344c-4.15625-.03125-8.671875-.515625-10.632813-3.886718-2.199218-3.820313.554688-8.703126 4.253907-11.851563 9.863281-8.347656 22.894531-10.140625 32.089843-10.171875h.273438c8.777344 0 17.554688 1.417969 26.046875 2.789062l.390625.066407c2.472656.394531 4.9375.789062 7.410156 1.160156 13.03125 1.902344 26.3125 2.867187 39.472656 2.867187 11.796876 0 23.703126-.777343 35.386719-2.308593 5.214844-.691407 10.507813-1.542969 15.628907-2.367188l.988281-.15625c7.933593-1.300781 16.941406-2.773437 25.828125-3.546875 4.011718-.351562 8.753906-.710937 13.488281-.710937 6.277344 0 11.589844.625 16.246094 1.910156 6.96875 1.9375 17.746093 8.558594 19 15.472656.582031 3.347657-1.015625 6.402344-4.746094 9.109375-4.441406 3.214844-10.332031 3.628906-14.96875 3.628906zm0 0" fill="#5b5d6d"/><path d="m64.886719 505.308594.222656-4.160156c3.210937-60.070313-1.476563-120.355469-13.929687-179.191407l-.519532-2.453125 1.980469-1.535156c.746094-.578125 1.417969-1.097656 2.101563-1.601562 6.507812-4.828126 13.660156-8.839844 20.574218-12.71875l.453125-.253907c3.542969-1.992187 7.203125-4.050781 10.738281-6.210937l4.667969-2.847656 1.300781 5.308593c8.808594 35.863281 26.941407 68.9375 52.441407 95.652344 1.363281 1.429687 4.195312 4.402344 7.445312 4.402344.222657 0 .445313-.023438.679688-.046875 1.578125-.183594 3.039062-1.121094 4.21875-1.875 33.09375-21.296875 60.816406-52.59375 78.082031-88.136719l2.121094-4.363281 3.878906 2.910156c4.945312 3.710938 10.066406 7.230469 15.3125 10.804688 7.625 5.214843 14.820312 10.132812 21.578125 15.683593l2.054687 1.691407-.765624 2.550781c-15.96875 53.230469-23.042969 108.328125-21.03125 163.765625 0 0 .011718.035156.019531.074218l1.007812 4.871094zm0 0" fill="#5b5d6d"/><path d="m143.339844 89.242188c-22.015625 0-42.121094-1-61.46875-3.054688l-4.136719-.441406.601563-4.113282c2.988281-20.484374 9.171874-36.390624 18.894531-48.632812 10.089843-12.707031 24.734375-22.074219 41.234375-26.371094 6.558594-1.710937 13.425781-2.574218 20.410156-2.574218 21.414062 0 42.425781 8.0625 57.644531 22.128906 14.703125 13.597656 24.324219 33.246094 26.40625 53.90625l.40625 4.058594-4.066406.328124c-35.253906 2.859376-65.058594 4.765626-95.925781 4.765626zm0 0" fill="#5b5d6d"/><path d="m153.167969 370.933594c-.152344-.152344-.324219-.339844-.527344-.566406l-.097656-.105469c-2.335938-2.667969-4.652344-5.464844-7.128907-8.601563l-1.625-2.058594 7.367188-13.777343c.335938-.628907.714844-1.335938.601562-2.089844-.125-.855469-.863281-1.515625-1.351562-1.949219l-12.089844-10.847656 2.667969-2.976562c5.742187-6.414063 11.03125-13.226563 15.710937-20.242188l3.394532-5.085938 3.300781 5.148438c2.300781 3.589844 4.6875 7.371094 7.050781 11.121094l1.332032 2.113281c1.398437 2.203125 2.820312 4.457031 4.222656 6.679687l.617187.976563v2.226563l-.378906.675781c-.855469 2.066406-2.890625 3.476562-4.703125 4.730469l-.617188.441406c-2.101562 1.488281-4.519531 3.835937-4.136718 6.597656.15625 1.144531.773437 2.171875 1.316406 3.082031l5.335938 8.890625-1.941407 2.191406c-3.957031 4.472657-7.929687 8.726563-11.816406 12.640626-.359375.367187-.726563.710937-1.089844 1.019531l-2.8125 2.371093zm0 0" fill="#5b5d6d"/><path d="m232.71875 180.675781c-1.652344-2.566406-3.886719-5.046875-6.644531-7.367187-1.828125-1.546875-3.816407-3.023438-5.570313-4.332032-3.886718-2.890624-7.910156-5.878906-10.957031-9.820312-4.621094-5.96875-6.539063-14.058594-5.136719-21.632812l.609375-3.300782 39.667969.339844.160156 3.796875c.589844 13.90625-1.066406 27.785156-4.917968 41.25l-2.433594 8.488281zm0 0" fill="#c67045"/><path d="m186.550781 223.445312c-6.75 0-15.929687-2.015624-21.21875-6.507812-2.824219-2.40625-4.222656-5.253906-4.15625-8.460938.066407-3.722656 1.316407-6.238281 3.714844-7.472656 1.175781-.589844 2.539063-.875 4.101563-.875 5.253906 0 12.539062 3.164063 17.019531 6.289063 1.855469 1.292969 3.847656 2.644531 5.882812 3.726562 2.058594 1.09375 3.953125 1.808594 5.804688 2.183594.105469.019531.253906.050781.40625.074219l11.046875 1.589844-9.546875 5.789062c-2.675781 1.621094-5.59375 2.734375-8.679688 3.308594-1.273437.238281-2.742187.355468-4.375.355468zm0 0" fill="#c67045"/><path d="m134.355469 223.445312c-1.632813 0-3.101563-.117187-4.367188-.351562-3.09375-.578125-6.011719-1.691406-8.6875-3.3125l-9.546875-5.789062 11.050782-1.59375c.148437-.019532.300781-.050782.449218-.078126 4.121094-.839843 7.714844-3.171874 11.644532-5.90625 4.480468-3.125 11.765624-6.292968 17.011718-6.292968 1.582032 0 2.957032.296875 4.09375.875 2.40625 1.238281 3.660156 3.757812 3.730469 7.488281.078125 3.179687-1.320313 6.03125-4.15625 8.449219-5.28125 4.496094-14.464844 6.511718-21.222656 6.511718zm0 0" fill="#c67045"/><path d="m84.648438 179.609375c-3.980469-13.90625-5.617188-28.246094-4.859376-42.621094l.199219-3.820312 39.289063.328125.691406 3.105468c1.722656 7.746094-.171875 16.390626-4.941406 22.554688-3.03125 3.921875-7.0625 6.921875-10.96875 9.820312l-.105469.082032c-1.816406 1.359375-3.699219 2.769531-5.464844 4.25-2.75 2.324218-4.980469 4.804687-6.628906 7.363281l-4.78125 7.425781zm0 0" fill="#c67045"/><path d="m241.039062 201.414062c-.792968 0-1.589843-.039062-2.375-.113281l-4.234374-.402343.664062-4.203126c.210938-1.335937.394531-2.691406.542969-4.03125l.0625-.53125.195312-.496093c3.261719-8.222657 5.691407-16.898438 7.226563-25.785157l.585937-3.382812 3.429688.0625c6.566406.121094 12.929687 4.519531 15.476562 10.695312 2.738281 6.652344 1.082031 15.199219-4.03125 20.785157-4.238281 4.636719-10.796875 7.402343-17.542969 7.402343zm0 0" fill="#ffdac4"/><path d="m163.382812 258.332031c-11.984374 0-23.8125-2.808593-34.207031-8.121093-21.632812-11.058594-37.058593-32.863282-40.300781-56.941407-.054688-.273437-.082031-.550781-.082031-.828125v-.25l.042969-.355468c-.886719-8.179688 5.691406-15.089844 9.691406-18.476563 1.746094-1.46875 3.511718-2.785156 5.382812-4.183594l.191406-.140625c3.910157-2.910156 7.949219-5.910156 10.972657-9.835937 4.484375-5.804688 6.449219-13.660157 5.261719-21.023438l-.757813-4.675781 85.207031.71875-.628906 4.515625c-1.019531 7.300781.925781 14.757813 5.339844 20.457031 3.027344 3.933594 7.066406 6.933594 10.972656 9.839844l.1875.140625c1.878906 1.398437 3.652344 2.722656 5.378906 4.183594 3.96875 3.355469 10.503906 10.210937 9.710938 18.402343l-.039063.386719-.105469.359375c-2.785156 25.179688-16.074218 45.902344-36.476562 56.925782-10.792969 5.824218-23.152344 8.902343-35.742188 8.902343zm.15625-43.128906c.554688.675781 1.128907 1.257813 1.75 1.785156 5.300782 4.5 14.503907 6.511719 21.273438 6.511719 1.605469 0 3.128906-.121094 4.394531-.347656 8.425781-1.558594 15.71875-7.367188 18.5625-14.800782-1.832031 2.609376-5.210937 4.183594-9.105469 4.183594-.917968 0-1.828124-.089844-2.699218-.265625-4.136719-.835937-7.730469-3.171875-11.664063-5.90625-3.621093-2.523437-11.148437-6.273437-17.0625-6.273437-1.617187 0-3 .289062-4.113281.855468-.402344.203126-.996094.5625-1.59375 1.160157l-2.828125 2.832031-2.832031-2.832031c-.59375-.597657-1.1875-.957031-1.582032-1.15625-1.121093-.570313-2.503906-.855469-4.121093-.855469-5.921875 0-13.445313 3.75-17.054688 6.273438-3.953125 2.742187-7.550781 5.070312-11.667969 5.902343-.875.175781-1.785156.265625-2.703124.265625-3.890626 0-7.273438-1.574218-9.046876-4.214844 2.785157 7.460938 10.078126 13.273438 18.523438 14.835938 1.25.222656 2.769531.34375 4.375.34375 6.777344 0 15.980469-2.011719 21.269531-6.507812.625-.53125 1.199219-1.117188 1.753907-1.789063l3.085937-3.738281zm0 0" fill="#ffdac4"/><path d="m161.308594 300.054688c-.855469 0-1.703125-.011719-2.558594-.039063-17.1875-.453125-34.65625-5.878906-49.179688-15.277344l-3.710937-2.398437 2.757813-3.453125c6.824218-8.554688 10.390624-18.324219 10.039062-27.515625l-.285156-7.417969 6.355468 3.84375c1.414063.859375 2.90625 1.691406 4.429688 2.480469 10.378906 5.296875 22.214844 8.101562 34.21875 8.101562 12.617188 0 24.992188-3.074218 35.777344-8.898437l.175781-.097657c.125-.070312.253906-.144531.375-.207031l5.773437-3.054687.097657 6.53125c.132812 8.945312 2.96875 18.019531 8.433593 26.964844l2.621094 4.292968-4.773437 1.585938c-14.972657 9.386718-32.921875 14.558594-50.546875 14.558594zm0 0" fill="#ffdac4"/><path d="m78.664062 199.21875c-3.832031 0-7.660156-1.40625-10.503906-3.859375-4.667968-4.042969-7.035156-10.914063-6.03125-17.511719.644532-4.265625 2.558594-8.0625 5.386719-10.683594 2.585937-2.414062 6.007813-3.800781 9.375-3.800781.390625 0 .78125.015625 1.164063.054688l3.011718.296875.535156 2.980468c1.507813 8.421876 3.839844 16.679688 6.925782 24.554688l.34375.882812-.078125.855469.265625 3.015625-2.859375 1.148438c-2.222657 1.363281-4.804688 2.066406-7.535157 2.066406zm0 0" fill="#ffdac4"/><path d="m158.203125 220.039062c.847656-.722656 1.589844-1.488281 2.25-2.289062.660156.800781 1.402344 1.570312 2.25 2.289062 6.226563 5.289063 16.382813 7.457032 23.855469 7.457032 1.914062 0 3.648437-.144532 5.101562-.410156 9.789063-1.808594 18.269532-8.601563 21.59375-17.300782.734375-1.914062-.089844-4.074218-1.90625-5.019531s-4.058594-.375-5.203125 1.324219c-1.480469 2.195312-4.960937 2.796875-7.640625 2.253906-3.414062-.6875-6.625-2.789062-10.171875-5.261719-4.28125-2.984375-17.171875-9.824219-25.269531-5.707031-.855469.4375-1.761719 1.050781-2.609375 1.902344-.847656-.851563-1.757813-1.464844-2.609375-1.902344-8.101562-4.117188-20.988281 2.722656-25.273438 5.710938-3.542968 2.46875-6.753906 4.570312-10.167968 5.257812-2.679688.539062-6.164063-.058594-7.640625-2.253906-1.148438-1.699219-3.382813-2.269532-5.203125-1.324219-1.820313.945313-2.640625 3.105469-1.90625 5.019531 3.328125 8.699219 11.800781 15.492188 21.59375 17.300782 1.449218.265624 3.1875.410156 5.101562.410156 7.472656 0 17.628906-2.167969 23.855469-7.457032zm8.519531-15.472656c.585938-.300781 1.359375-.4375 2.269532-.4375 3.957031 0 10.433593 2.574219 14.730468 5.570313h.003906c4.136719 2.882812 8.257813 5.554687 13.179688 6.550781.207031.039062.417969.078125.628906.113281-2.214844 1.339844-4.710937 2.308594-7.339844 2.792969-5.382812.996094-16.738281-.558594-22.269531-5.261719-1.894531-1.609375-2.796875-3.355469-2.757812-5.332031.070312-3.242188 1.1875-3.8125 1.554687-3.996094zm-36.011718 14.589844c-2.628907-.484375-5.121094-1.453125-7.339844-2.792969.210937-.035156.421875-.074219.628906-.113281 4.925781-.996094 9.046875-3.667969 13.183594-6.550781 5.289062-3.6875 13.867187-6.734375 17.003906-5.132813.367188.183594 1.484375.753906 1.550781 3.996094.042969 1.976562-.859375 3.722656-2.753906 5.332031-5.535156 4.699219-16.890625 6.253907-22.273437 5.261719zm0 0"/><path d="m320.5 411.503906c-2.507812-26.523437-11.1875-49.265625-25.105469-65.773437-10.328125-12.246094-23.605469-21.316407-36.445312-30.085938-6.074219-4.148437-12.351563-8.4375-18.167969-12.972656-12.433594-9.691406-32.992188-29.59375-31.027344-53.976563.03125-.410156-.015625-.800781-.097656-1.179687 13.625-10.105469 23.289062-24.847656 27.753906-42.300781.152344.035156.296875.082031.457032.097656 1.039062.113281 2.078124.171875 3.117187.171875 7.863281 0 15.539063-3.207031 20.59375-8.730469 6.234375-6.816406 8.160156-16.890625 4.789063-25.070312-3.070313-7.457032-10.453126-12.609375-18.167969-13.164063.734375-6.617187.980469-13.28125.722656-19.917969 1.347656.023438 2.765625.082032 4.269531.152344 2.109375.097656 4.292969.199219 6.492188.199219 6.023437 0 12.164062-.753906 17.199218-4.398437 6.386719-4.617188 6.992188-9.6875 6.375-13.125-1.628906-9.039063-14.039062-16.480469-21.914062-18.664063-4.820312-1.335937-9.847656-1.894531-14.828125-2.027344 4.136719-28.078125-6.402344-58.265625-27.242187-77.535156-21.449219-19.832031-53.574219-27.878906-81.835938-20.507813-17.351562 4.523438-32.761719 14.390626-43.394531 27.777344-8.417969 10.605469-19.832031 29.675782-21.703125 72.636719-.003906.046875.007812.089844.007812.136719-8.917968.851562-19.449218 3.585937-27.960937 10.796875-4.996094 4.234375-8.53125 11.125-5.152344 16.972656 3.371094 5.832031 10.90625 5.898437 14.125 5.925781l22.363281.1875c-.371094 7.375-.117187 14.796875.742188 22.15625-4.222656.113282-8.453125 1.855469-11.734375 4.914063-3.484375 3.246093-5.835938 7.875-6.617188 13.03125-1.226562 8.074219 1.605469 16.199219 7.394531 21.199219 3.691407 3.191406 8.464844 4.84375 13.148438 4.84375 2.660156 0 5.285156-.539063 7.675781-1.621094 4.128907 16.984375 13.980469 32.402344 27.53125 43.390625-.078125.5-.0625 1.027343.066407 1.550781 2.359374 9.710938-1.089844 25.921875-18.578126 39.640625-6.753906 5.300781-14.171874 9.464844-22.027343 13.878906-7.042969 3.953125-14.320313 8.039063-21.003907 12.992188-23.40625 17.34375-40.265624 46.25-47.472656 81.398437-6.390625 31.171875-5.066406 63.15625-3.785156 94.089844.179688 4.324219.597656 14.457031 8.308594 18.496094 3.179687 1.664062 6.589844 1.703125 9.332031 1.734375l264.558594 3.15625c.835937.011719 1.71875.019531 2.644531.019531 6.8125 0 15.765625-.570312 22.234375-6.175781 7.027344-6.082031 8.578125-15.503907 9.566406-24.628907 2.460938-22.75 5.007813-46.277343 2.792969-69.691406zm-189.789062-78.648437c-7.671876-13.28125-13.960938-27.363281-18.714844-41.90625 12.910156 7.367187 27.558594 11.847656 42.359375 12.910156-6.832031 10.46875-14.765625 20.195313-23.644531 28.996094zm7.742187 3.667969 8.832031 7.917968-4.085937 7.644532c-2.863281-3.949219-5.59375-7.996094-8.191407-12.132813 1.160157-1.128906 2.3125-2.273437 3.445313-3.429687zm17.261719 6.613281c-.335938-2.269531-1.890625-3.664063-2.640625-4.335938l-9.113281-8.171875c5.828124-6.507812 11.207031-13.421875 16.066406-20.695312 2.71875 4.265625 5.574218 8.792968 8.367187 13.210937 1.398438 2.21875 2.8125 4.464844 4.222657 6.691407-.003907.019531-.015626.035156-.023438.054687-.285156 1-1.839844 2.085937-3.339844 3.132813l-.65625.460937c-5.429687 3.84375-6.140625 7.78125-5.78125 10.40625.265625 1.945313 1.183594 3.472656 1.851563 4.589844l3.824219 6.375c-3.761719 4.257812-7.640626 8.425781-11.65625 12.476562-.371094.375-.640626.621094-.835938.78125-.136719-.144531-.300781-.324219-.492188-.542969-2.390624-2.734374-4.699218-5.539062-6.953124-8.394531l6.132812-11.46875c.464844-.875 1.332031-2.5 1.027344-4.570312zm18.316406 5.277343-2.449219-4.082031c-.292969-.488281-.734375-1.226562-.777343-1.53125-.039063-.296875.507812-1.355469 2.453124-2.734375l.609376-.429687c1.070312-.746094 2.246093-1.585938 3.328124-2.601563.90625 1.417969 1.796876 2.804688 2.664063 4.148438-1.90625 2.4375-3.84375 4.851562-5.828125 7.230468zm11.027344-14.054687c-3.15625-4.914063-6.546875-10.285156-9.84375-15.515625-3.152344-4.992188-6.382813-10.109375-9.417969-14.851562 16.195313-.773438 32.304687-5.582032 46.222656-13.859376-7.71875 15.546876-16.726562 30.332032-26.960937 44.226563zm23.285156-196.109375 32.511719.277344c.566406 13.4375-1.066407 27.027344-4.773438 39.980468-1.839843-2.863281-4.328125-5.644531-7.425781-8.257812-1.882812-1.589844-3.855469-3.054688-5.761719-4.476562-3.859375-2.875-7.503906-5.59375-10.183593-9.058594-3.941407-5.097656-5.546876-12.097656-4.367188-18.464844zm50.570312 36.503906c2.167969 5.265625.816407 12.074219-3.285156 16.554688-3.957031 4.328125-10.289062 6.609375-16.585937 6.011718.222656-1.390624.414062-2.792968.570312-4.210937 3.394531-8.550781 5.882813-17.484375 7.449219-26.582031 4.902344.089844 9.878906 3.445312 11.851562 8.226562zm-177.601562-84.53125c20.816406 2.214844 41.492188 3.09375 61.894531 3.09375 32.9375 0 65.160157-2.261718 96.132813-4.769531-.003906 4.121094-.335938 8.238281-1.007813 12.300781-2.796875.136719-5.53125.347656-8.15625.574219-8.816406.769531-17.625 2.199219-26.140625 3.585937-5.40625.878907-10.992187 1.785157-16.480468 2.507813-24.496094 3.210937-49.3125 3.023437-73.753907-.558594-2.578125-.378906-5.15625-.792969-7.734375-1.207031-8.332031-1.34375-16.953125-2.691406-25.648437-2.816406.179687-3.933594.449219-8.214844.894531-12.710938zm19.046875-54.734375c9.550781-12.027343 23.441406-20.902343 39.113281-24.992187 25.671875-6.691406 54.84375.617187 74.324219 18.628906 14.257813 13.179688 23.199219 31.988281 25.144531 51.363281-49.8125 4.039063-102.875 7.433594-156.648437 1.726563 2.300781-15.765625 7.199219-33.042969 18.066406-46.726563zm-54.144531 91.492188c-.949219-1.648438.972656-4.746094 3.382812-6.789063 8.933594-7.566406 20.980469-9.1875 29.519532-9.21875h.261718c8.421875 0 17.054688 1.390625 25.402344 2.734375 2.617188.421875 5.234375.84375 7.851562 1.226563 25.175782 3.6875 50.738282 3.882812 75.96875.574218 5.613282-.734374 11.261719-1.65625 16.726563-2.542968 8.371094-1.363282 17.03125-2.769532 25.542969-3.511719 9-.78125 19.347656-1.410156 28.316406 1.082031 6.632812 1.835938 15.308594 7.746094 16.132812 12.324219.113282.628906.457032 2.542969-3.164062 5.160156-4.59375 3.324219-12.03125 2.984375-18.59375 2.679688-1.785156-.082031-3.472656-.160157-5.125-.171875l-195.011719-1.652344c-2.640625-.019531-6.257812-.242188-7.210937-1.894531zm69.847656 10.488281c1.464844 6.570312-.097656 13.9375-4.199219 19.246094-2.679687 3.464844-6.324219 6.183594-10.1875 9.058594-1.90625 1.417968-3.875 2.886718-5.757812 4.476562-3.097657 2.613281-5.585938 5.394531-7.425781 8.257812-3.832032-13.382812-5.441407-27.441406-4.707032-41.3125zm-45.285156 54.859375c-3.65625-3.15625-5.496094-8.605469-4.695313-13.882813.511719-3.371093 1.984375-6.335937 4.144531-8.351562 2.085938-1.9375 4.894532-2.941406 7.433594-2.699219 1.550782 8.65625 3.9375 17.15625 7.144532 25.3125-.019532.226563-.011719.460938.007812.695313-.273438.097656-.535156.214844-.792969.375-3.839843 2.378906-9.535156 1.757812-13.242187-1.449219zm22.035156.210937c-.003906-.035156-.019531-.0625-.023438-.097656.042969-.320312.066407-.644531.027344-.980468-.691406-6.414063 4.90625-12.183594 8.300782-15.050782 1.699218-1.429687 3.484374-2.761718 5.378906-4.171875 4.125-3.074219 8.394531-6.25 11.746094-10.59375 5.238281-6.78125 7.398437-15.6875 6.042968-24.105469l75.90625.640626c-1.148437 8.226562 1.035156 16.855468 6.136719 23.464843 3.355469 4.34375 7.625 7.519531 11.75 10.59375 1.894531 1.410157 3.679687 2.742188 5.375 4.171875 3.382813 2.855469 8.933594 8.582032 8.308594 14.957032-.054688.199218-.109375.398437-.128907.605468-2.597656 23.871094-15.140624 43.53125-34.414062 53.933594-20.304688 10.960938-45.675781 11.246094-66.222656.742188-20.546875-10.5-35.175782-31.234376-38.183594-54.109376zm29.835938 58.679688c1.527343.921875 3.085937 1.796875 4.675781 2.609375 11.164062 5.707031 23.605469 8.550781 36.050781 8.550781 13.050781 0 26.101562-3.128906 37.675781-9.375.175781-.097656.347657-.199218.527344-.296875.160156 10.742188 3.839844 20.511719 9.019531 28.996094-.300781.101563-.597656.226563-.878906.402344-15.039062 9.449219-33.101562 14.410156-50.859375 13.914062-16.578125-.441406-33.171875-5.617187-47.113281-14.636719 8.335937-10.453124 11.246094-21.257812 10.902344-30.164062zm-19.375 38.921875c9.394531 30.324219 25.285156 58.84375 46.164062 82.734375.945312 1.082031 2.707031 3.097656 5.546875 3.480469.316406.042969.625.0625.925781.0625 3.28125 0 5.609375-2.355469 6.65625-3.410157 4.554688-4.601562 8.953125-9.332031 13.191406-14.1875.671876-.441406 1.171876-1.042968 1.476563-1.730468 16.628906-19.335938 30.738281-40.628906 42.097656-63.5625 4.378907 5.027344 8.984375 9.324218 13.117188 12.773437-16.910157 35.566407-44.285157 66.75-77.371094 88.050781-.78125.5-1.851563 1.1875-2.546875 1.269532-1.507812.179687-3.816406-2.230469-4.679688-3.132813-25.714843-26.9375-43.695312-60.296875-52.074218-96.5625 1.542968-1.078125 3.066406-2.183593 4.550781-3.347656 1.027344-.804687 2-1.617187 2.945313-2.4375zm-26.003907 17c3.753907-2.105469 7.570313-4.253906 11.328125-6.546875 8.976563 36.574219 27.382813 70.1875 53.421875 97.460938 1.65625 1.734374 5.382813 5.640624 10.34375 5.640624.359375 0 .722657-.019531 1.09375-.0625 2.558594-.296874 4.617188-1.625 5.984375-2.5 33.828125-21.777343 61.902344-53.511718 79.503906-89.738281 5.078126 3.800781 10.335938 7.410157 15.457032 10.910157 7.457031 5.09375 14.675781 10.027343 21.292968 15.46875-16.085937 53.597656-23.230468 109.117187-21.203124 165.054687.007812.257813.042968.503906.101562.746094l-185.492188-2.210938c3.234376-60.410156-1.480468-121.042969-14.015624-180.230469.671874-.523437 1.347656-1.042968 2.03125-1.546874 6.277343-4.652344 13.332031-8.613282 20.152343-12.445313zm-64.160156 192.804687c-3.179687-1.667968-3.804687-7.121093-3.992187-11.6875-1.261719-30.449218-2.566407-61.933593 3.628906-92.132812 5.828125-28.425781 18.222656-52.433594 35.355468-68.894531 11.71875 57.199219 16.085938 115.722656 12.933594 174.035156l-42.238281-.503906c-1.980469-.023438-4.222656-.050781-5.6875-.816407zm296.578125-19.617187c-.847656 7.84375-2.007812 15.230469-6.824219 19.402344-4.648437 4.027343-11.875 4.285156-19.507812 4.1875l-20.941407-.25c.089844-.363281.152344-.738281.136719-1.132813-1.949219-53.808594 4.734375-107.222656 19.820313-158.863281 2.402344 2.292969 4.699218 4.695313 6.855468 7.253906 12.855469 15.246094 20.894532 36.457031 23.246094 61.339844 2.136719 22.597656-.363281 45.710937-2.785156 68.0625zm0 0"/></svg>