<svg height="512pt" viewBox="-97 0 512 512.001" width="512pt" xmlns="http://www.w3.org/2000/svg"><g fill="#935252"><path d="m187.382812 142.300781c-5.125 0-9.957031-1.378906-13.972656-3.984375-5.171875-3.359375-8.941406-8.914062-10.335937-15.246094-.429688-1.9375-2.328125-11.789062 2.769531-14.765624 1.148438-.644532 2.488281-.894532 4.675781-.894532.960938 0 2.101563.046875 3.398438.140625l.171875.011719c.867187.050781 1.683594.097656 2.402344.097656l39.507812-.164062.042969 3.972656c.101562 9.910156-4.414063 19.574219-11.789063 25.21875-4.742187 3.621094-10.730468 5.613281-16.871094 5.613281zm0 0"/><path d="m127.40625 142.300781c-6.136719 0-12.128906-1.992187-16.863281-5.613281-7.386719-5.652344-11.898438-15.316406-11.78125-25.222656l.046875-3.972656 39.660156.167968c.578125 0 1.257812-.039062 1.976562-.085937l.492188-.027344c.855469-.058594 2.144531-.140625 3.367188-.140625 2.15625 0 3.539062.265625 4.621093.882812 5.109375 2.984376 3.230469 12.835938 2.800781 14.78125-1.40625 6.335938-5.179687 11.890626-10.347656 15.246094-4.011718 2.605469-8.84375 3.984375-13.972656 3.984375zm0 0"/><path d="m243.476562 165.527344c-.566406 0-1.136718-.03125-1.691406-.089844l-4.175781-.457031.660156-4.148438c1.730469-10.882812 2.199219-22.511719 1.425781-35.558593l-.136718-2.320313 1.949218-1.265625c1.757813-1.144531 3.878907-1.746094 6.136719-1.746094 3.800781 0 7.820313 1.710938 10.488281 4.464844 5.234376 5.410156 5.757813 13.15625 5.605469 17.292969-.277343 7.039062-2.644531 13.304687-6.660156 17.652343-3.574219 3.867188-8.660156 6.175782-13.601563 6.175782zm0 0"/><path d="m113.804688 168.882812c-5.09375-3.910156-9.546876-8.457031-13.238282-13.515624-6.335937-8.691407-11.066406-20.683594-14.46875-36.664063-1.417968-6.65625-2.292968-13.480469-2.605468-20.292969-.046876-1.015625-.117188-2.128906-.195313-3.292968-.195313-3.019532-.464844-7.140626-.195313-10.742188l.09375-1.265625.804688-.980469c1.664062-20.445312 10.25-39.9375 24.191406-54.914062 10.289063-11.058594 22.472656-18.519532 35.234375-21.574219 4.40625-1.050781 9.007813-1.585937 13.679688-1.585937 16.832031 0 34.027343 6.914062 47.183593 18.964843 15.183594 13.917969 25.394532 34.460938 28.757813 57.851563l.90625 1.273437-.164063 1.578125c-2.875 22.761719-6.808593 53.933594-25.019531 75.246094-2.085937 2.449219-4.433593 4.816406-6.96875 7.035156l-2.484375 2.167969-2.605468-2.023437c-6.320313-4.917969-13.210938-9.085938-20.484376-12.386719-2.429687-1.097657-8.671874-3.65625-14.136718-3.65625-.753906 0-1.46875.050781-2.125.148437l-.59375.089844-.601563-.089844c-.65625-.097656-1.375-.148437-2.128906-.148437-5.472656 0-11.699219 2.558593-14.121094 3.65625-8.539062 3.878906-16.511719 8.925781-23.699219 15.003906l-2.460937 2.082031zm48.917968-47.304687c.09375.601563.195313 1.117187.28125 1.503906 1.40625 6.351563 5.1875 11.917969 10.375 15.28125 3.964844 2.582031 8.796875 3.945313 13.980469 3.945313 6.210937 0 12.222656-1.980469 16.917969-5.574219 8.582031-6.558594 13.105468-18.050781 11.523437-29.273437l-39.324219.140624c-.613281 0-1.382812-.035156-2.601562-.121093-1.058594-.066407-2.167969-.140625-3.265625-.140625-2.160156 0-3.726563.300781-4.785156.914062-.695313.398438-2.804688 1.621094-3.359375 6.351563l-.398438 3.371093-9.296875.433594-.421875-3.71875c-.546875-4.800781-2.6875-6.046875-3.386718-6.453125-1.046876-.601562-2.613282-.898437-4.769532-.898437-1.101562 0-2.214844.070312-3.292968.140625-1.023438.070312-1.859376.121093-2.558594.121093l-39.316406-.171874c-1.613282 11.257812 2.90625 22.746093 11.484374 29.300781 4.710938 3.597656 10.722657 5.578125 16.933594 5.578125 5.171875 0 10.007813-1.363282 13.980469-3.941406 5.179687-3.367188 8.957031-8.9375 10.363281-15.28125.070313-.347657.171875-.847657.273438-1.433594l.542968-3.167969 9.566407-.449219zm0 0"/><path d="m71.886719 167.027344c-6.398438 0-12.574219-2.800782-16.527344-7.492188-5.511719-6.574218-6.425781-16.746094-2.171875-24.1875 3.707031-6.488281 11.03125-10.679687 18.664062-10.679687.542969 0 1.089844.019531 1.632813.066406l3.515625.285156.15625 3.519531c.523438 11.742188 2.269531 22.828126 3.535156 30.148438.15625.878906.320313 1.789062.496094 2.707031l.652344 3.410157-3.28125 1.125c-2.109375.730468-4.355469 1.097656-6.671875 1.097656zm0 0"/></g><path d="m160.25 236.566406c-.386719 0-.769531 0-1.15625-.007812-17.398438-.273438-34.902344-7.046875-48.023438-18.585938-19.566406-17.199218-27.28125-41.738281-30.3125-59.292968-2.042968-11.78125-4.292968-27.4375-3.542968-44.03125l7.933594-.515626c.316406 1.773438.597656 3.222657.890624 4.5625 3.40625 16.019532 8.144532 28.019532 14.480469 36.707032 3.4375 4.710937 7.527344 8.984375 12.160157 12.695312l3.523437 2.816406-3.222656 3.160157c-.921875.902343-1.878907 1.882812-2.835938 2.910156l-.863281.933594c-.660156.726562-1.347656 1.503906-2.027344 2.285156l-.800781.9375c-1.066406 1.269531-1.871094 2.269531-2.609375 3.222656 8.761719 3.832031 17.1875 5.75 25.058594 5.75.75 0 1.496094-.015625 2.238281-.050781 1.902344-.089844 3.835937-.304688 5.753906-.644531 5.597657-1.007813 10.679688-3.042969 15.09375-6.046875 1.632813-1.109375 3.144531-2.34375 4.496094-3.667969l6.882813-7.570313.007812 8.609376c.746094.660156 1.574219 1.332031 2.445312 1.96875 4.042969 2.957031 8.988282 5.152343 14.3125 6.34375 2.433594.550781 4.949219.886718 7.480469 1.007812.746094.035156 1.480469.054688 2.222657.054688l.105468-.003907c.167969-.007812.339844-.015625.503906-.015625.347657 0 .703126-.019531 1.058594-.035156.75-.023438 1.414063-.058594 2.089844-.105469.355469-.027343.734375-.0625 1.113281-.101562.683594-.066407 1.363281-.136719 2.046875-.234375.421875-.054688.761719-.105469 1.105469-.152344l.121094-.019531c.675781-.105469 1.402343-.242188 2.128906-.375.347656-.066407.734375-.144531 1.128906-.230469.695313-.15625 1.4375-.328125 2.179688-.511719l1.210937-.308593c.707032-.1875 1.457032-.417969 2.203125-.644532l1.175781-.367187c.765626-.25 1.566407-.539063 2.378907-.832031l1.082031-.382813c1.167969-.449219 2.300781-.910156 3.402344-1.390625-.808594-1.113281-1.683594-2.179688-2.511719-3.171875-.199219-.242187-.355469-.433594-.515625-.617187-.882812-1.03125-1.753906-2.019532-2.636719-2.988282l-.082031-.085937c-.121094-.128907-.242188-.253907-.359375-.386719-.804687-.863281-1.632813-1.714844-2.46875-2.550781l-.5-.5c-.890625-.882813-1.828125-1.773438-2.769531-2.632813-.105469-.089844-.207032-.1875-.308594-.285156l-3.363281-2.960938 3.367187-2.96875c2.195313-1.984374 4.246094-4.085937 6.089844-6.25 10.332031-12.089843 17.113281-28.148437 21.355469-50.546874l7.898437.25c3.214844 25.785156 2.414063 46.316406-2.519531 64.613281-3.585937 13.335937-11.34375 32.15625-27.921875 46.066406-13.023438 10.917969-30.292969 17.175781-47.375 17.175781zm0 0" fill="#fff"/><path d="m128.914062 190.058594c-6.261718 0-12.90625-1.222656-19.753906-3.636719l-5.566406-1.960937 3.886719-4.445313c.90625-1.039063 1.851562-2.078125 2.886719-3.175781 1.492187-1.566406 2.738281-2.8125 3.933593-3.945313.269531-.265625.550781-.53125.839844-.796875v-.019531l2.453125-2.207031h.019531c7.507813-6.550782 15.890625-11.945313 24.933594-16.054688 1.890625-.855468 8.488281-3.65625 14.082031-3.65625.980469 0 1.902344.089844 2.738282.265625.839843-.175781 1.761718-.265625 2.746093-.265625 5.585938 0 12.195313 2.800782 14.085938 3.65625 8.222656 3.726563 15.960937 8.570313 23.003906 14.402344 4.320313 3.578125 8.382813 7.550781 12.074219 11.8125l3.835937 4.4375-5.527343 1.953125c-6.824219 2.410156-13.480469 3.632813-19.78125 3.632813-.730469 0-1.453126-.019532-2.171876-.050782-8.113281-.386718-15.84375-3-21.789062-7.359375-1.21875-.875-2.449219-1.917969-3.617188-3.074219-.886718-.851562-1.824218-1.933593-2.828124-3.261718-.980469 1.246094-1.945313 2.359375-2.902344 3.292968-1.371094 1.359376-2.914063 2.621094-4.566406 3.730469-5.742188 3.921875-13.132813 6.296875-20.78125 6.671875-.746094.035156-1.488282.054688-2.234376.054688zm0 0" fill="#fff"/><path d="m199.71875 277.496094c-.898438-15.101563-2.207031-30.113282-3.890625-44.625l-3.03125-3.675782 4.144531-2.335937c3.816406-2.160156 7.429688-4.65625 10.734375-7.421875.796875-.667969 1.5625-1.34375 2.269531-1.996094l1.148438-1.0625h1.652344c.375-.058594.816406-.09375 1.253906-.09375 2.09375 0 4.234375.769532 6.03125 2.164063 2.222656 1.734375 3.617188 4.175781 3.832031 6.707031.1875 2.289062-.4375 4.539062-1.042969 6.71875l-.035156.136719c-.660156 2.355469-1.332031 4.757812-1.050781 7.179687.34375 2.941406 2.066406 5.484375 3.730469 7.941406 1.089844 1.605469 2.199218 3.238282 2.957031 5.019532 2.585937 6.039062.808594 13.816406-4.425781 19.347656-4.171875 4.410156-10.390625 7.550781-18.488282 9.328125l-5.460937 2.8125zm0 0" fill="#d34242"/><path d="m135.996094 411.320312c-1.191406 0-1.976563-.066406-2.625-.230468l-2.246094-.558594-.632812-2.226562c-.230469-.816407-.308594-1.828126-.261719-3.390626l5.226562-172.457031 4.925781 1.382813c6.234376 1.75 12.527344 2.6875 18.707032 2.78125.375.007812.71875.007812 1.066406.007812h.085938c10.089843 0 20.464843-2.21875 29.996093-6.417968l4.964844-2.1875.621094 5.386718c6.183593 53.585938 6.890625 107.957032 2.101562 161.605469-.410156 4.683594-1.152343 9.941406-4.800781 12.929687-3.023438 2.453126-7.160156 2.707032-11.492188 2.765626l-45.308593.609374zm0 0" fill="#d34242"/><path d="m125.042969 397.269531c-3.160157-1.246093-6.832031-1.519531-9.78125-1.738281l-.789063-.066406c-.835937-.070313-1.671875-.140625-2.5-.226563-3.890625-.417969-10.726562-1.9375-12.90625-7.394531-.9375-2.347656-.789062-4.894531-.519531-7.742188 2.453125-25.480468 8.328125-50.867187 14.011719-75.421874l.023437-.109376c5.320313-22.976562 10.820313-46.714843 13.511719-70.539062l.597656-5.277344 8.699219 3.597656-5.054687 167.011719zm0 0" fill="#d34242"/><path d="m113.117188 281.675781c-6.355469-2.226562-12.921876-4.9375-17.902344-9.636719-5.558594-5.238281-9.191406-14.394531-5.390625-21.765624.789062-1.5 1.777343-2.796876 2.992187-4.339844 1.339844-1.722656 2.691406-3.460938 3.480469-5.46875 1.292969-3.304688.957031-6.984375.628906-10.542969l-.023437-.3125c-.335938-3.605469-.539063-7.441406 1.046875-10.664063 1.289062-2.613281 4.097656-4.507812 6.675781-4.507812.8125 0 1.582031.175781 2.28125.519531l1.121094.226563.734375.753906c.742187.703125 1.484375 1.398438 2.253906 2.074219 4.015625 3.527343 8.480469 6.640625 13.261719 9.257812l2.335937 1.277344-.273437 2.644531c-1.433594 13.761719-3.96875 28.867188-7.988282 47.546875l-.957031 4.433594zm0 0" fill="#d34242"/><path d="m215.808594 507.910156c-48.683594 0-97.851563-.808594-146.140625-2.414062l-4.203125-.136719.347656-4.191406c3.816406-45.90625 3.480469-92.382813-.992188-138.140625 4.417969 45.875 4.738282 92.484375.894532 138.535156l-.316406 3.796875-3.808594-.132813c-8.707032-.304687-18.042969-.644531-27.335938-1.03125-9.230468-.375-19.566406-1.367187-25.378906-8.421874-4.953125-6.011719-5.042969-14.300782-4.691406-22.976563 1.550781-37.597656 2.976562-66.285156 4.625-93.023437 1.554687-25.128907 4.027344-49.257813 16.996094-68.316407 15.417968-22.660156 44.203124-34.390625 63.246093-42.152343l2.671875-1.089844 1.875 2.191406c.570313.664062 1.082032 1.210938 1.570313 1.667969 5.375 5.074219 12.542969 7.8125 18.835937 9.984375l3.375 1.164062-.773437 3.484375c-1.171875 5.257813-2.378907 10.484375-3.578125 15.671875l-.5 2.171875c-5.699219 24.578125-11.589844 49.988281-14.046875 75.542969-.269531 2.847656-.421875 5.402344.523437 7.761719 1.617188 4.066406 6.214844 6.707031 12.945313 7.4375 1.109375.128906 2.199219.214843 3.300781.300781 4.105469.3125 8.355469.632812 11.902344 2.769531l3.226562.726563-.132812 3.285156-.078125 2.550781c-.046875 1.359375-.128907 3.882813 1.355469 5.269531 1.117187 1.042969 2.757812 1.183594 4.214843 1.183594h.640625l45.253906-.609375c3.480469-.042969 8.246094-.105469 11.519532-2.773437 3.652344-2.96875 4.394531-8.039063 4.84375-12.976563 3.242187-36.355469 3.960937-73.429687 2.128906-110.179687l-.300781-6.019532 5.664062 2.0625c8.125-1.765624 14.359375-4.910156 18.554688-9.34375 1.320312-1.394531 2.441406-2.960937 3.335937-4.660156l2.085938-3.972656 3.707031 2.53125c33.355469 22.757812 61.917969 44.265625 73.632813 77.097656 6.195312 17.351563 6.695312 36.4375 6.671874 54.5-.039062 28.011719-1.164062 56.378906-3.339843 84.316406-.734375 9.332032-2.386719 18.582032-9.464844 23.050782-4.117187 2.601562-8.960937 2.886718-14.867187 2.984375-11.695313.1875-24.238282.324219-38.347657.421875l-4.011719.027344-.015624-4.011719c-.191407-43.945313 1.492187-88.222657 5-131.589844-3.582032 43.519531-5.261719 87.796875-5.0625 131.59375l.019531 4-3.996094.019531c-7.851563.042969-15.71875.0625-23.582031.0625zm0 0" fill="#288fc9"/><path d="m108.078125 139.914062c5.550781 4.238282 12.5 6.398438 19.359375 6.398438 5.742188 0 11.425781-1.515625 16.15625-4.589844 6.058594-3.933594 10.464844-10.414062 12.09375-17.777344.09375-.421874.207031-.972656.316406-1.621093l2.765625-.125c.113281.699219.234375 1.296875.332031 1.746093 1.628907 7.363282 6.039063 13.84375 12.097657 17.777344 4.730469 3.074219 10.410156 4.589844 16.15625 4.589844 6.859375 0 13.8125-2.160156 19.359375-6.398438 9.710937-7.417968 14.828125-20.378906 13.042968-33.019531-.28125-1.988281-1.984374-3.46875-3.992187-3.46875-.003906 0-.011719 0-.015625 0l-39.292969.171875c-.589843 0-1.433593-.050781-2.304687-.109375-3.242188-.210937-7.273438-.472656-10.332032 1.296875-3.507812 2.03125-4.902343 5.703125-5.335937 9.355469l-2.164063.097656c-.417968-3.683593-1.808593-7.402343-5.351562-9.453125-3.054688-1.769531-7.089844-1.503906-10.328125-1.292968-.871094.054687-1.691406.105468-2.304687.105468l-39.292969-.167968c-.003907 0-.011719 0-.019531 0-2.003907 0-3.710938 1.476562-3.992188 3.464843-1.78125 12.640625 3.339844 25.601563 13.046875 33.019531zm59.785156-28.152343c.476563-.273438 1.523438-.355469 2.65625-.355469 1.097657 0 2.28125.078125 3.109375.128906 1.015625.066406 1.964844.125 2.863282.125l35.546874-.152344c.09375 8.550782-3.777343 17.078126-10.21875 22-7.578124 5.789063-18.609374 6.398438-26.230468 1.453126-4.296875-2.792969-7.4375-7.441407-8.613282-12.757813-1.074218-4.851563-.675781-9.535156.886719-10.441406zm-29.5625-.101563c.890625.011719 1.847657-.058594 2.863281-.125 1.6875-.105468 4.832032-.3125 5.765626.226563 1.5625.90625 1.960937 5.589843.886718 10.445312-1.175781 5.3125-4.316406 9.960938-8.613281 12.753907-7.621094 4.945312-18.652344 4.335937-26.230469-1.453126-6.441406-4.921874-10.3125-13.449218-10.21875-22zm0 0"/><path d="m310.636719 341.171875c-12.140625-34.007813-41.375-56.039063-75.5-79.316406-.535157-.367188-1.128907-.566407-1.730469-.648438.546875-3.667969.164062-7.359375-1.246094-10.65625-.90625-2.121093-2.136718-3.933593-3.320312-5.683593-1.523438-2.238282-2.835938-4.175782-3.070313-6.15625-.1875-1.625.351563-3.554688.925781-5.597657.6875-2.453125 1.46875-5.230469 1.21875-8.265625-.300781-3.671875-2.261718-7.171875-5.375-9.597656-.972656-.757812-2.023437-1.363281-3.113281-1.839844 9.109375-10.566406 15.960938-23.832031 20.050781-39.023437.449219-1.660157.851563-3.324219 1.226563-4.996094.925781.132813 1.855469.207031 2.792969.207031 6.003906 0 12.136718-2.695312 16.566406-7.488281 4.667969-5.058594 7.417969-12.25 7.730469-20.242187.328125-8.25-2.066407-15.453126-6.742188-20.285157-4.820312-4.988281-12.03125-6.816406-18.023437-5.015625-1.109375-11.675781-3-23.285156-5.109375-34.625-.128907-.703125-.445313-1.328125-.882813-1.84375-3.515625-24.226562-14.164062-45.554687-30-60.070312-18.027344-16.519532-42.757812-23.546875-64.546875-18.335938-13.542969 3.238282-26.429687 11.105469-37.273437 22.753906-13.5 14.507813-22.171875 33.054688-24.734375 52.65625-.042969.09375-.097657.179688-.132813.28125v.003907c-5.359375 14.734375-7.289062 29.320312-7.347656 43.265625-9.347656-.457032-18.652344 4.480468-23.335938 12.671875-5.15625 9.015625-4.089843 20.867187 2.589844 28.816406 4.832032 5.757813 12.1875 8.972656 19.585938 8.972656 2.421875 0 4.84375-.367187 7.1875-1.078125 3.402344 13.351563 9.503906 28.65625 20.40625 41.765625-2.199219 1.230469-4.042969 3.148438-5.125 5.351563-2.046875 4.160156-1.839844 8.640625-1.453125 12.875l.023437.257812c.296875 3.230469.582032 6.28125-.367187 8.699219-.578125 1.476563-1.710938 2.925781-2.910157 4.460937-1.179687 1.511719-2.402343 3.074219-3.378906 4.964844-2.925781 5.664063-2.398437 12.09375.003906 17.660156-22.164062 9.0625-48.480468 20.628907-63.785156 43.105469-13.550781 19.910157-16.097656 44.636719-17.683594 70.34375-1.664062 27.003907-3.09375 55.714844-4.632812 93.105469-.375 9.113281-.25 18.605469 5.613281 25.730469 6.875 8.34375 18.242188 9.488281 28.355469 9.90625 60.378906 2.488281 121.386719 3.738281 182.152344 3.738281 23.257812 0 46.492187-.183594 69.628906-.550781 5.136719-.082031 11.527344-.183594 16.964844-3.605469 8.625-5.4375 10.578125-16.285156 11.347656-26.179688 2.191406-28.035156 3.320312-56.507812 3.351562-84.621093.023438-18.421875-.492187-37.910157-6.902343-55.871094zm-91.707031-110.230469c-.722657 2.578125-1.539063 5.503906-1.167969 8.703125.460937 3.941407 2.554687 7.027344 4.40625 9.75 1.015625 1.5 1.976562 2.917969 2.578125 4.324219 1.933594 4.527344.429687 10.710938-3.65625 15.03125-3.617188 3.824219-9.148438 6.574219-16.441406 8.164062-.335938.074219-.644532.199219-.9375.347657-.886719-14.992188-2.179688-29.953125-3.910157-44.847657-.09375-.792968-.417969-1.5-.886719-2.074218 4.007813-2.269532 7.808594-4.886719 11.324219-7.832032.820313-.691406 1.625-1.398437 2.421875-2.125.195313-.003906.390625-.003906.589844-.035156 1.417969-.242187 2.996094.222656 4.335938 1.265625 1.316406 1.027344 2.175781 2.484375 2.292968 3.894531.128906 1.589844-.394531 3.457032-.949218 5.433594zm-24.984376 163.722656c-.347656 3.886719-.921874 8.199219-3.355468 10.183594-2.007813 1.632813-5.269532 1.808594-9.007813 1.859375l-45.3125.609375c-.960937.015625-1.609375-.023437-1.929687-.109375-.082032-.277343-.148438-.878906-.109375-2.167969l5.066406-167.347656c6.441406 1.8125 13.09375 2.824219 19.730469 2.929688.40625.007812.808594.011718 1.210937.011718 10.824219 0 21.675781-2.378906 31.609375-6.757812 6.15625 53.277344 6.863282 107.371094 2.097656 160.789062zm-67.433593-1.109374c-3.621094-1.433594-7.46875-1.75-10.949219-2.019532-1.066406-.082031-2.128906-.164062-3.171875-.277344-2.410156-.261718-8.164063-1.265624-9.613281-4.902343-.605469-1.523438-.472656-3.5625-.25-5.878907 2.429687-25.246093 8.289062-50.542968 13.953125-75.007812 5.351562-23.101562 10.867187-46.933594 13.589843-70.996094.414063.171875.824219.347656 1.242188.511719zm128.746093-266.367188c4.21875 4.363281 4.617188 10.871094 4.480469 14.363281-.242187 6.078125-2.230469 11.4375-5.601562 15.085938-3.183594 3.453125-7.800781 5.273437-11.917969 4.820312 1.914062-12.003906 2.195312-24.21875 1.46875-36.410156 3.496094-2.273437 8.753906-.769531 11.570312 2.140625zm-144.140624-97.246094c9.757812-10.484375 21.253906-17.539062 33.246093-20.40625 19.222657-4.59375 41.148438 1.703125 57.222657 16.4375 14.507812 13.296875 24.277343 32.996094 27.5 55.464844.09375.671875.363281 1.265625.734374 1.78125-2.996093 23.773438-6.894531 53.019531-24.09375 73.15625-2 2.34375-4.199218 4.558594-6.558593 6.617188-6.578125-5.121094-13.726563-9.445313-21.285157-12.871094-3.363281-1.523438-11.699218-4.847656-18.511718-3.824219-6.828125-1.023437-15.152344 2.300781-18.503906 3.824219-8.898438 4.035156-17.167969 9.28125-24.632813 15.59375-4.777344-3.675782-8.953125-7.933594-12.433594-12.707032-6-8.234374-10.507812-19.726562-13.785156-35.132812-1.371094-6.433594-2.222656-13.042969-2.527344-19.648438-.046875-1.046874-.121093-2.183593-.195312-3.375-.210938-3.226562-.441407-6.957031-.203125-10.1875.511718-.617187.855468-1.382812.925781-2.242187 1.558594-19.511719 9.765625-38.152344 23.101563-52.480469zm76.6875 156.066406c-7.316407-.34375-14.269532-2.679687-19.597657-6.585937-1.089843-.785156-2.152343-1.691406-3.167969-2.6875-.792968-.777344-1.621093-1.730469-2.453124-2.832031-.761719-1.007813-1.953126-1.601563-3.214844-1.601563-1.265625 0-2.457032.59375-3.21875 1.601563-.828125 1.09375-1.652344 2.050781-2.449219 2.839844-1.207031 1.191406-2.546875 2.285156-4 3.269531-5.179687 3.535156-11.84375 5.664062-18.757813 5.996093-6.417968.300782-13.28125-.828124-20.453124-3.355468.90625-1.042969 1.839843-2.0625 2.789062-3.070313 1.222656-1.296875 2.476562-2.5625 3.765625-3.785156.683594-.652344 1.378906-1.296875 2.082031-1.925781.003906-.003906.007813-.007813.007813-.007813 7.492187-6.734375 15.921875-12.253906 25.0625-16.402343 4.25-1.933594 10.5625-3.90625 14.351562-3.121094.539063.109375 1.097657.109375 1.636719 0 3.785156-.785156 10.101562 1.191406 14.363281 3.125 7.921875 3.589844 15.351563 8.242187 22.09375 13.839844 4.171875 3.445312 8.0625 7.25 11.605469 11.347656-7.164062 2.527344-14.023438 3.648437-20.445312 3.355468zm-129.378907-29.050781c-4.476562-5.332031-5.21875-13.585937-1.761719-19.628906 3.234376-5.664063 10.011719-9.136719 16.5-8.605469.480469 10.761719 1.925782 21.058594 3.585938 30.648438.15625.90625.332031 1.835937.511719 2.777344-6.515625 2.246093-14.402344.085937-18.835938-5.191407zm22.789063-42.132812c.277344 1.585937.582031 3.160156.914062 4.726562 3.519532 16.542969 8.476563 29.039063 15.160156 38.207031 3.652344 5.011719 7.972657 9.523438 12.890626 13.457032-1.011719.996094-1.996094 2.011718-2.964844 3.046875-.285156.304687-.566406.617187-.851563.929687-.722656.789063-1.433593 1.589844-2.132812 2.402344-.277344.320312-.558594.644531-.832031.96875-.925782 1.101562-1.835938 2.21875-2.710938 3.355469-.761719.984375-1.023438 2.265625-.714844 3.46875.3125 1.207031 1.160156 2.199219 2.300782 2.691406 10.132812 4.398437 19.914062 6.414063 29.058593 5.984375 2.125-.101562 4.21875-.339844 6.257813-.707031 6.125-1.097657 11.792968-3.363281 16.648437-6.671875 1.84375-1.25 3.570313-2.664063 5.132813-4.203125.003906 0 .003906-.003907.007812-.003907.003906.003907.007813.007813.015625.015626.324219.320312.652344.628906.988281.933593 1 .914063 2.035157 1.757813 3.082032 2.515625 4.515625 3.3125 9.949218 5.710938 15.792968 7.023438 2.65625.597656 5.394532.96875 8.171876 1.097656.800781.039062 1.601562.054688 2.410156.054688.203125 0 .40625-.015626.609375-.015626.417969-.003906.835937-.023437 1.257812-.039062.71875-.023438 1.4375-.058594 2.164063-.113281.410156-.027344.816406-.066407 1.226562-.105469.742188-.074219 1.488282-.15625 2.238282-.257812.410156-.058594.816406-.113282 1.226562-.179688.753906-.117188 1.511719-.253906 2.277344-.398438.410156-.082031.824218-.160156 1.238281-.25.765625-.164062 1.535156-.347656 2.308594-.542968.414062-.105469.832031-.203125 1.25-.316406.785156-.210938 1.570312-.449219 2.363281-.695313.40625-.125.8125-.238281 1.222656-.375.84375-.273437 1.691406-.578125 2.539063-.886719.359375-.132812.714843-.25 1.074219-.386718 1.207031-.457032 2.417968-.949219 3.632812-1.476563 1.140625-.496094 1.988281-1.488281 2.296875-2.691406.3125-1.207031.046875-2.484375-.710937-3.46875-.847657-1.097657-1.722657-2.171875-2.613282-3.234375-.191406-.234375-.386718-.464844-.582031-.695313-.878906-1.03125-1.777344-2.050781-2.695313-3.050781-.144531-.15625-.292968-.308594-.441406-.464844-.847656-.914062-1.714844-1.8125-2.597656-2.691406-.164062-.167969-.328125-.335938-.496094-.5-.972656-.960938-1.964844-1.898438-2.972656-2.816406-.082031-.078125-.160156-.15625-.242188-.230469 2.300782-2.082031 4.457032-4.296875 6.441407-6.625 12.789062-14.972656 18.753906-33.957031 22.246093-52.402344 2.648438 21.238281 3.0625 42.761719-2.410156 63.082031-3.445312 12.789063-10.863281 30.808594-26.636718 44.039063-12.628907 10.585937-29.359376 16.503906-45.898438 16.234375-16.460938-.261719-33.027344-6.675781-45.449219-17.59375-18.675781-16.417969-26.085937-40.042969-29.011719-56.972656-2.296874-13.261719-4.179687-27.910156-3.480468-43.171875zm12.171875 137.285156c.628906-1.21875 1.570312-2.425781 2.570312-3.703125 1.429688-1.832031 3.050781-3.910156 4.058594-6.480469 1.648437-4.199219 1.246094-8.546875.894531-12.382812l-.023437-.253907c-.296875-3.21875-.46875-6.292968.65625-8.578124.738281-1.503907 2.632812-2.640626 3.609375-2.160157.28125.132813.570312.226563.859375.292969.773437.734375 1.558593 1.464844 2.371093 2.179688 4.265626 3.75 8.96875 7.015624 13.972657 9.757812-1.636719 15.769531-4.5625 31.546875-7.910157 47.121094-5.890624-2.0625-12.035156-4.574219-16.484374-8.773438-4.355469-4.113281-7.441407-11.476562-4.574219-17.019531zm212.761719 228.925781c-.644532 8.296875-2.015626 16.457032-7.609376 19.984375-3.265624 2.054688-7.539062 2.285157-12.792968 2.367188-12.746094.203125-25.527344.328125-38.316406.421875-.191407-43.640625 1.472656-87.773438 4.988281-131.246094.179687-2.21875-1.472657-4.160156-3.695313-4.34375-2.226562-.183594-4.164062 1.476562-4.339844 3.695312-3.535156 43.699219-5.210937 88.066407-5.015624 131.933594-56.449219.296875-113.203126-.476562-169.566407-2.34375 3.824219-46.125 3.5-92.820312-.996093-138.871094-.214844-2.214843-2.1875-3.832031-4.402344-3.621093-2.21875.21875-3.839844 2.191406-3.621094 4.40625 4.460938 45.695312 4.769531 92.039062.953125 137.8125-9.113281-.320313-18.222656-.65625-27.308594-1.03125-8.371093-.34375-17.703125-1.195313-22.460937-6.972657-4.0625-4.933593-4.109375-12.402343-3.785156-20.273437 1.535156-37.332031 2.964843-65.992187 4.625-92.9375 1.515624-24.546875 3.902343-48.085937 16.304687-66.304687 14.253906-20.9375 40.03125-31.972657 61.453125-40.703126.597656.699219 1.214844 1.371094 1.863281 1.980469 5.871094 5.542969 13.34375 8.460938 20.277344 10.851563-1.335937 5.976562-2.710937 11.917968-4.074219 17.808594-5.726562 24.71875-11.644531 50.28125-14.125 76.054687-.3125 3.253906-.488281 6.4375.785156 9.636719 2.191407 5.503906 7.953126 9.03125 16.226563 9.933594 1.132813.121093 2.277344.210937 3.425781.300781 3.824219.292969 7.433594.570312 10.148438 2.210937.367187.222656.757812.375 1.15625.46875l-.074219 2.542969c-.058594 1.851563-.175781 5.714844 2.625 8.328125 2.214844 2.070312 5.089844 2.257812 6.949219 2.257812.226562 0 .4375 0 .632812-.003906l45.3125-.609375c3.839844-.050781 9.640625-.128906 13.988282-3.667969 4.871093-3.964843 5.804687-10.195312 6.296874-15.722656 3.28125-36.753906 3.988282-73.828125 2.144532-110.742187.4375.160156.902344.25 1.382812.25.285156 0 .574219-.03125.863282-.09375 8.90625-1.945313 15.832031-5.480469 20.582031-10.503907 1.601562-1.695312 2.929687-3.570312 3.96875-5.550781 32.800781 22.382813 60.839843 43.527344 72.125 75.144531 5.976562 16.742188 6.453125 35.433594 6.433593 53.144532-.035156 27.914062-1.152343 56.175781-3.328124 84.007812zm0 0"/></svg>