<svg height="512pt" viewBox="-93 0 512 512.00043" width="512pt" xmlns="http://www.w3.org/2000/svg"><path d="m160.867188 332.203125 9.058593-.183594c16.933594-.34375 33.476563-4.472656 47.84375-11.9375l8.367188-4.347656-2.6875 9.035156c-5.113281 17.1875-9.558594 34.140625-13.210938 50.390625l-1.644531 7.308594zm0 0" fill="#fff"/><path d="m124.6875 372.796875c-3.960938-16.472656-8.929688-32.847656-14.765625-48.671875l-3.664063-9.945312 9.320313 5.042968c13.078125 7.070313 27.492187 11.269532 42.851563 12.480469l6.894531.542969-3.90625 5.703125c-8.925781 13.035156-19.011719 25.382812-29.96875 36.695312l-5.0625 5.222657zm0 0" fill="#fff"/><g fill="#d8deec"><path d="m256.28125 503.257812c-6.753906-50.753906-1.414062-103.144531 15.449219-151.503906l1.753906-5.035156 4.34375 3.09375c3.035156 2.167969 5.648437 4.222656 7.992187 6.285156 22.800782 20.054688 31.484376 48.730469 34.757813 69.253906 3.851563 24.105469 2.558594 48.375.617187 75.324219l-.253906 3.523438-3.527344.183593c-18.863281.988282-38.054687 1.777344-57.046874 2.347657l-3.609376.105469zm0 0"/><path d="m178.070312 507.929688c-3.082031 0-6.160156-.007813-9.242187-.019532l-3.835937-.015625-.144532-3.835937c-1.925781-52.074219-1.804687-105.015625.363282-157.34375l.390624-9.441406 40.625 42.777343 2.539063 1.425781-.535156 2.917969c-8.519531 40.445313-12.851563 79.546875-13.253907 119.546875l-.039062 3.941406-3.945312.019532c-4.304688.015625-8.613282.027344-12.921876.027344zm0 0"/><path d="m160.742188 507.851562c-6.949219-.0625-13.886719-.140624-20.832032-.238281l-5.144531-.074219 1.339844-4.96875c2.511719-40.101562-.621094-80.652343-9.304688-120.519531l-.460937-2.101562 1.578125-1.613281c10.894531-10.847657 20.988281-22.710938 30.03125-35.300782l7.808593-10.863281-.5625 13.367187c-2.207031 52.589844-2.351562 105.804688-.417968 158.164063l.152344 4.183594zm0 0"/><path d="m62.066406 505.257812c-15.953125-.726562-30.441406-1.5-44.300781-2.363281-3.394531-.210937-6.398437-.523437-8.761719-2.261719-3.769531-2.769531-4.402344-8.078124-4.527344-13.398437-.644531-25.5625-1.3125-52 4.53125-77.429687 6.519532-28.371094 20.835938-51.21875 40.3125-64.339844.945313-.640625 1.882813-1.238282 2.855469-1.828125l4.253907-2.574219 1.601562 4.707031c16.859375 49.484375 19.773438 104.78125 8.203125 155.707031h.003906c.003907 0 0 .0625-.007812.125l-.347657 3.808594zm0 0"/></g><path d="m195.046875 503.820312c.605469-59.988281 10.007813-118.0625 29.589844-182.761718l1.816406-6 4.679687 4.179687c2.113282 1.886719 4.339844 3.691407 6.625 5.363281 6.605469 4.847657 13.753907 9.019532 20.671876 13.054688 4.222656 2.464844 8.339843 4.882812 12.304687 7.394531l2.699219 1.710938-1.070313 3.007812c-17.3125 48.648438-22.9375 101.4375-16.261719 152.664063l.574219 4.394531-4.433593.121094c-17.972657.488281-35.859376.792969-53.167969.910156l-4.070313.027344zm0 0" fill="#d34242"/><path d="m165.386719 91.84375c-15.457031 0-30.980469-3.144531-44.882813-9.09375l-2.746094-1.175781.34375-2.964844c2.261719-19.441406 6.019532-38.875 11.175782-57.761719.203125-.71875.394531-1.390625.589844-2.050781l1.203124-4.125 4.03125 1.5c8.710938 3.242187 17.886719 4.886719 27.273438 4.886719 10.074219 0 19.882812-1.894532 29.15625-5.628906l3.730469-1.503907 1.484375 3.738281c1.984375 5.015626 3.457031 10.558594 4.753906 15.449219.535156 2.003907 1.058594 3.96875 1.589844 5.835938 2.675781 9.328125 4.945312 18.882812 6.746094 28.394531.800781 4.203125 1.417968 8.621094-.519532 12.308594-2.21875 4.207031-7.058594 6.140625-11.496094 7.476562-10.398437 3.128906-21.308593 4.714844-32.433593 4.714844zm0 0" fill="#d34242"/><path d="m162.386719 20.894531c-8.902344 0-17.574219-1.4375-25.769531-4.273437l-7.753907-2.683594 6.890625-4.457031c2.34375-1.515625 5.175782-2.074219 8.113282-2.558594l.335937-.050781c10.085937-1.617188 20.652344-2.539063 31.40625-2.738282l1.398437-.03125c1.003907-.023437 1.929688-.039062 2.789063-.039062 4.742187 0 9.292969.425781 12.863281 5.566406l2.894532 4.167969-4.726563 1.839844c-8.828125 3.441406-18.660156 5.257812-28.441406 5.257812zm0 0" fill="#d34242"/><path d="m132.09375 507.480469c-20.621094-.382813-41.449219-1.007813-61.90625-1.863281l-4.78125-.199219 1.046875-4.671875c11.5-51.246094 8.363281-106.777344-8.828125-156.363282l-1.140625-3.292968 3.105469-1.582032c4.898437-2.496093 10.023437-4.726562 14.980468-6.886718 7.128907-3.09375 14.496094-6.289063 21.3125-10.339844 2.082032-1.234375 4.167969-2.644531 6.199219-4.195312l4.257813-3.238282 1.902344 5c22.042968 57.863282 31.65625 121.046875 27.796874 182.722656l1.226563 5.042969zm0 0" fill="#d34242"/><path d="m85.40625 183.917969c-.382812-5.550781-.992188-11.132813-1.578125-16.53125l-.046875-.441407c-.582031-5.363281-1.171875-10.820312-1.5625-16.191406-.808594-11.0625-1.226562-27.484375 4.429688-42.308594 5.171874-13.570312 14.835937-23.84375 26.507812-28.175781l2.742188-1.019531 1.800781 2.308594c14.664062 6.773437 31.152343 10.34375 47.707031 10.34375 11.113281 0 22.027344-1.585938 32.429688-4.714844 4.191406-1.261719 9.296874-3.257812 11.53125-7.503906l1.777343-3.609375 3.601563 1.722656c15.582031 4.46875 23.667968 20.835937 27.105468 30.207031 8.28125 22.605469 7.164063 50.882813-2.984374 75.644532l-2.792969 6.808593-4.195313-6.046875c-12.953125-18.667968-21.0625-43.351562-22.835937-69.5-10.050781 14.445313-27.167969 23.8125-44.726563 24.4375-.617187.023438-1.234375.03125-1.847656.03125-16.898438 0-33.929688-8.140625-44.441406-21.246094-.445313 24.808594-9.507813 48.980469-25.570313 68.082032l-6.371093 7.574218zm0 0" fill="#644c4c"/><path d="m188.144531 252.320312c-2.34375 0-4.640625-.230468-6.820312-.683593-5.957031-1.246094-11.476563-4.414063-15.152344-8.6875-.695313-.816407-1.261719-1.566407-1.75-2.304688-.679687.96875-1.386719 1.871094-2.195313 2.757813-3.652343 4.070312-8.890624 7.007812-14.726562 8.230468-2.191406.457032-4.488281.6875-6.832031.6875-4.707031 0-9.582031-.902343-14.492188-2.679687-3.527343-1.265625-7.097656-2.980469-10.910156-5.238281l-6.859375-4.074219 7.367188-3.0625c4.152343-1.726563 7.738281-4.296875 10.074218-6.082031l.253906-.195313c1.226563-.945312 2.464844-1.949219 3.667969-2.925781l.628907-.515625c4.105468-3.328125 7.980468-6.46875 12.589843-8.699219 3.484375-1.679687 8.125-2.722656 12.109375-2.722656 3.90625 0 7.035156.941406 9.292969 2.789062 2.292969-1.847656 5.417969-2.789062 9.328125-2.789062 3.992188 0 8.628906 1.042969 12.105469 2.722656 4.675781 2.261719 8.746093 5.578125 12.679687 8.78125l.1875.152344c.824219.671875 1.652344 1.339844 2.46875 1.992188l1.582032 1.238281c2.394531 1.84375 6.082031 4.507812 10.292968 6.25l7.398438 3.0625-6.890625 4.078125c-3.828125 2.265625-7.394531 3.976562-10.902344 5.238281-4.914063 1.777344-9.789063 2.679687-14.496094 2.679687zm0 0" fill="#644c4c"/><path d="m163.3125 292.46875c-11.59375 0-22.960938-2.613281-32.878906-7.558594-22.09375-11.007812-37.960938-33.960937-40.425782-58.46875-2.542968 1.488282-5.503906 2.285156-8.621093 2.285156-4.386719 0-8.621094-1.601562-11.609375-4.394531-5.300782-4.953125-6.792969-13.546875-3.476563-19.984375 2.800781-5.433594 8.921875-9.082031 15.230469-9.082031 1.039062 0 2.066406.105469 3.058594.304687l.257812-1.148437 1.082032-1.058594.070312-.050781c17.769531-17.621094 28.9375-41.058594 31.5-66.070312l.796875-7.804688 5.847656 5.230469c10.5 9.394531 24.445313 14.78125 38.25 14.78125.644531 0 1.285157-.015625 1.925781-.035157 14.339844-.511718 28.46875-6.8125 38.765626-17.289062l5.777343-5.878906 1.042969 8.175781c3.222656 25.292969 12.5 48.601563 26.113281 65.640625l.527344.1875s.511719.355469.523437.363281c2.25-3.4375 6.132813-5.734375 10.703126-6.304687.730468-.085938 1.464843-.132813 2.1875-.132813 4.171874 0 8.164062 1.496094 10.941406 4.105469 6.445312 6.039062 7.121094 17.421875 1.480468 24.855469-4.085937 5.390625-10.929687 8.609375-18.308593 8.609375-2.105469 0-4.191407-.269532-6.207031-.796875-1.007813 24.625-15.261719 48.648437-36.351563 61.234375-11.273437 6.726562-24.484375 10.28125-38.199219 10.28125 0 .003906-.003906.003906-.003906.003906zm-37.46875-61.359375c-6.984375 5.339844-12.890625 7.890625-18.585938 8.019531 7.03125 5.121094 13.042969 8.460938 18.894532 10.566406 4.921875 1.78125 9.800781 2.683594 14.515625 2.683594 2.335937 0 4.640625-.230468 6.851562-.6875 5.417969-1.128906 10.40625-3.785156 14.035157-7.476562l2.851562-2.898438 2.851562 2.894532c3.644532 3.695312 8.632813 6.355468 14.046876 7.484374 2.179687.453126 4.480468.683594 6.835937.683594h.003906c4.710938 0 9.597657-.898437 14.515625-2.671875 5.882813-2.128906 11.890625-5.472656 18.910156-10.523437-7.59375-.230469-14.371093-4.808594-18.808593-8.238282l-.367188-.285156c-.410156-.320312-.824219-.644531-1.234375-.976562-.847656-.675782-1.738281-1.394532-2.621094-2.113282-3.941406-3.207031-8.023437-6.527343-12.679687-8.777343-2.753906-1.324219-7.386719-2.742188-12.121094-2.742188-2.929687 0-5.453125.535157-7.492187 1.59375l-1.839844.949219-1.839844-.953125c-2.035156-1.054687-4.554687-1.589844-7.488281-1.589844-4.738281 0-9.371094 1.417969-12.125 2.742188-4.675781 2.261719-8.777344 5.601562-12.738281 8.828125-1.578125 1.292968-2.925782 2.371094-4.109375 3.28125zm0 0" fill="#ffdac4"/><path d="m167.527344 331.925781c-20.308594 0-39.761719-5.265625-56.257813-15.230469l-4.199219-2.539062 3.328126-3.601562c1.890624-2.042969 3.527343-4.085938 4.863281-6.0625 3.90625-5.757813 6.113281-11.722657 6.566406-17.730469l.472656-6.285157 5.484375 3.101563c.855469.484375 1.734375.953125 2.617188 1.394531 9.898437 4.933594 21.273437 7.539063 32.894531 7.539063 13.757813 0 26.988281-3.550781 38.25-10.265625 1.152344-.691406 2.324219-1.441406 3.472656-2.226563l5.875-4.011719.375 7.105469c.5 9.476563 4.742188 19.253907 12.269531 28.277344l3.019532 3.621094-4.066406 2.390625c-16.171876 9.5-35.179688 14.523437-54.960938 14.523437zm0 0" fill="#ffdac4"/><path d="m148.324219 255.609375c6.242187-1.304687 11.914062-4.347656 16.078125-8.589844 4.199218 4.265625 9.839844 7.289063 16.085937 8.59375 7.292969 1.519531 15.429688.777344 23.53125-2.148437 6.222657-2.242188 12.539063-5.75 19.890625-11.035156 1.40625-1.011719 2.007813-2.8125 1.496094-4.46875-.515625-1.65625-2.03125-2.796876-3.761719-2.835938-6.382812-.140625-12.4375-4.257812-16.4375-7.34375-.503906-.390625-1.011719-.785156-1.515625-1.191406-.878906-.699219-1.753906-1.410156-2.628906-2.121094-4.128906-3.355469-8.398438-6.832031-13.46875-9.28125-5.644531-2.722656-15.847656-4.894531-23.1875-1.09375-7.332031-3.800781-17.539062-1.628906-23.1875 1.097656-5.09375 2.460938-9.382812 5.949219-13.53125 9.324219-1.335938 1.089844-2.722656 2.214844-4.058594 3.246094l-.214844.164062c-6.28125 4.800781-11.445312 7.089844-16.25 7.199219-1.734374.039062-3.25 1.179688-3.761718 2.835938-.511719 1.65625.089844 3.457031 1.496094 4.46875 7.34375 5.28125 13.664062 8.789062 19.898437 11.035156 5.359375 1.933594 10.734375 2.914062 15.871094 2.914062 2.625 0 5.1875-.253906 7.65625-.769531zm-20.789063-9.730469c-3.285156-1.183594-6.636718-2.789062-10.230468-4.917968 4.382812-1.820313 8.136718-4.429688 10.976562-6.601563l.242188-.1875c1.449218-1.117187 2.875-2.277344 4.257812-3.402344 3.960938-3.222656 7.707031-6.269531 11.945312-8.316406 4.664063-2.25 13.214844-3.65625 17.125-.449219 1.488282 1.21875 3.628907 1.222656 5.113282 0 3.914062-3.207031 12.464844-1.800781 17.125.445313 4.21875 2.039062 7.945312 5.070312 11.886718 8.277343.898438.730469 1.796876 1.460938 2.691407 2.171876.535156.425781 1.078125.851562 1.617187 1.269531 2.914063 2.246093 6.75 4.9375 11.222656 6.792969-3.59375 2.128906-6.945312 3.738281-10.222656 4.917968-6.699218 2.417969-13.320312 3.050782-19.148437 1.835938-5.105469-1.0625-9.808594-3.742188-12.929688-7.378906-.53125-.613282-1.019531-1.25-1.441406-1.886719-.746094-1.132813-2.007813-1.8125-3.363281-1.8125-1.355469 0-2.617188.679687-3.363282 1.808593-.53125.800782-1.113281 1.546876-1.757812 2.25-3.121094 3.480469-7.601562 5.976563-12.605469 7.019532-5.832031 1.21875-12.449219.582031-19.140625-1.835938zm0 0"/><path d="m324.589844 424.703125c-3.378906-21.1875-12.386719-50.820313-36.085938-71.65625-8.582031-7.546875-18.464844-13.316406-28.023437-18.894531-6.847657-3.996094-13.925781-8.128906-20.316407-12.820313-6.546874-4.796875-27.660156-22.175781-24.601562-44.265625.015625-.105468.007812-.207031.015625-.3125 14.390625-13.097656 24.011719-31.71875 25.988281-51.0625 9.285156.785156 18.707032-3.03125 24.0625-10.097656 6.945313-9.171875 6.074219-22.75-1.945312-30.273438-4.167969-3.910156-10.296875-5.792968-16.402344-5.039062-1.023438.128906-2.007812.347656-2.972656.613281 9.039062-24.621093 9.65625-51.648437 1.359375-74.285156-3.707031-10.117187-12.523438-27.824219-29.90625-32.742187-.371094-.105469-.742188-.136719-1.105469-.136719-.011719-2.449219-.398438-4.878907-.828125-7.144531-1.828125-9.640626-4.125-19.3125-6.832031-28.75-.527344-1.84375-1.039063-3.78125-1.566406-5.765626-2.097657-7.910156-4.476563-16.875-8.808594-23.820312-5.328125-8.539062-12.636719-8.363281-19.707032-8.2070312l-1.382812.03125c-11.042969.2070312-21.90625 1.1601562-32.292969 2.8359372-3.65625.589844-7.492187 1.375-10.714843 3.871094-4.230469 3.277344-5.859376 8.214844-7.164063 12.992188-4.984375 18.257812-8.660156 37.007812-10.976563 55.8125-13.796874 4.054687-25.558593 15.746093-31.535156 31.410156-5.9375 15.570312-5.515625 32.59375-4.683594 44.046875.398438 5.480469 1 11 1.578126 16.339843.851562 7.828126 1.722656 15.894532 1.953124 23.839844-7.71875-.050781-15.453124 4.367188-19.007812 11.265625-4.121094 8.003907-2.265625 18.671875 4.316406 24.816407 5.15625 4.808593 12.875 6.539062 19.683594 4.820312 3.457031 19.628906 14.9375 37.847656 31.011719 49.714844 1.707031 15.742187-11.703125 29.699218-23.890625 36.945312-6.566406 3.90625-13.828125 7.058594-20.855469 10.109375-8.71875 3.789063-17.738281 7.703125-25.898437 13.195313-20.339844 13.695312-35.261719 37.421875-42.007813 66.808594-5.953125 25.921874-5.285156 52.621093-4.636719 78.445312.109375 4.277344.308594 12.242188 6.191406 16.566406 3.507813 2.582032 7.785157 2.847656 10.910157 3.042969 54.140625 3.363281 108.6875 5.046875 163.21875 5.046875 46.925781 0 93.847656-1.246094 140.457031-3.742188 2.03125-.105468 3.660156-1.707031 3.808594-3.734374 1.890625-26.152344 3.84375-53.195313-.40625-79.820313zm-89.195313-96.867187c6.734375 4.9375 13.996094 9.175781 21.019531 13.277343 4.179688 2.4375 8.25 4.824219 12.179688 7.3125-17.539062 49.285157-23.21875 102.65625-16.453125 154.527344-17.679687.480469-35.382813.785156-53.097656.90625.597656-59.453125 9.964843-117.347656 29.417969-181.644531 2.164062 1.941406 4.472656 3.816406 6.933593 5.621094zm-104.6875 53.363281c.019531-.023438.042969-.035157.0625-.054688 11.089844-11.042969 21.285157-23.050781 30.425781-35.777343-2.207031 52.617187-2.355468 105.882812-.421874 158.480468-6.9375-.054687-13.871094-.132812-20.804688-.242187.066406-.25.109375-.511719.125-.777344 2.539062-40.585937-.691406-81.738281-9.386719-121.628906zm-17.035156-58.460938c13.484375 7.289063 28.585937 11.703125 44.449219 12.953125-8.800782 12.847656-18.710938 24.984375-29.546875 36.171875-4.011719-16.667969-8.988281-33.085937-14.902344-49.125zm92.667969 51.542969-36.328125-38.261719c17.667969-.355469 34.597656-4.59375 49.609375-12.386719-5.144532 17.277344-9.5625 34.109376-13.28125 50.648438zm-61.820313-363.410156c10.015625-1.617188 20.5-2.539063 31.164063-2.738282l1.414062-.03125c6.625-.148437 9.605469-.046874 12.277344 3.808594-16.214844 6.324219-34.976562 6.625-51.449219.933594 1.707031-1.101562 4.089844-1.566406 6.59375-1.972656zm-11.378906 11.027344c.183594-.671876.371094-1.328126.566406-1.972657 9.203125 3.421875 18.9375 5.136719 28.671875 5.136719 10.433594 0 20.863282-1.984375 30.648438-5.921875 1.851562 4.667969 3.25 9.882813 4.609375 14.996094.539062 2.039062 1.066406 4.027343 1.609375 5.917969 2.636718 9.203124 4.875 18.636718 6.660156 28.035156.664062 3.519531 1.203125 7.167968-.132812 9.703125-1.523438 2.894531-5.460938 4.40625-9.109376 5.503906-24.269531 7.300781-51.285156 5.738281-74.59375-4.230469 2.246094-19.257812 5.964844-38.476562 11.070313-57.167968zm-42.757813 87.96875c4.765626-12.488282 13.679688-21.957032 24.167969-25.847657.386719.5.894531.914063 1.496094 1.191407 15.367187 7.085937 32.375 10.6875 49.355469 10.6875 11.375 0 22.734375-1.617188 33.585937-4.878907 4.941407-1.488281 10.992188-3.910156 13.921875-9.464843.027344-.054688.046875-.105469.074219-.160157.1875.085938.378906.171875.585937.230469 13.9375 3.945312 21.347657 19.085938 24.527344 27.757812 7.972656 21.753907 6.777344 49.058594-2.925781 72.746094-12.585937-18.128906-20.390625-41.808594-22.132813-67.484375-.117187-1.710937-1.300781-3.160156-2.953124-3.613281-1.65625-.453125-3.414063.183594-4.386719 1.59375-9.289063 13.4375-25.199219 22.148438-41.523438 22.726562-16.332031.5625-32.808593-6.976562-43.03125-19.722656-1.0625-1.324218-2.84375-1.839844-4.449219-1.289062-1.609374.550781-2.699218 2.050781-2.726562 3.75-.375 23.90625-9.230469 47.3125-24.574219 65.550781-.398437-5.777344-1.023437-11.515625-1.632812-17.128906-.574219-5.269531-1.164063-10.714844-1.554688-16.050781-.777343-10.6875-1.191406-26.519532 4.175781-40.59375zm3.597657 116.175781c-.136719-1.375-.972657-2.585938-2.210938-3.203125-1.234375-.617188-2.707031-.558594-3.890625.160156-4.648437 2.816406-11.402344 2.117188-15.375-1.59375-3.972656-3.707031-5.136718-10.394531-2.644531-15.226562 2.484375-4.832032 8.609375-7.773438 13.933594-6.6875 2.148437.4375 4.246093-.929688 4.726562-3.0625.027344-.027344.0625-.046876.09375-.074219 18.527344-18.269531 30.21875-42.898438 32.859375-68.703125 11.636719 10.410156 27.371094 16.324218 42.988282 15.753906 15.476562-.546875 30.628906-7.433594 41.476562-18.476562 3.328125 26.121093 12.742188 49.855468 26.957031 67.628906.476563.601562 1.109375 1.03125 1.808594 1.277344.066406.050781.125.109374.195313.15625 1.875 1.207031 4.367187.660156 5.570312-1.210938 1.570312-2.4375 4.410156-4.078125 7.800781-4.496094 3.75-.464844 7.453125.625 9.894531 2.917969 4.929688 4.621094 5.410157 13.746094 1.035157 19.519531-4.351563 5.742188-12.707031 8.355469-20.316407 6.359375-1.183593-.3125-2.441406-.070312-3.425781.65625-.980469.726563-1.578125 1.859375-1.628906 3.082031-.917969 23.28125-14.410156 46.019532-34.371094 57.933594-20.027343 11.949219-46.421875 12.960938-67.242187 2.578125-20.886719-10.414062-35.894532-32.117187-38.234375-55.289062zm24.601562 80.691406c4.292969-6.339844 6.734375-13.03125 7.234375-19.671875.925782.515625 1.855469 1.015625 2.804688 1.488281 10.675781 5.324219 22.667968 7.960938 34.675781 7.960938 14.105469-.003907 28.238281-3.640625 40.296875-10.835938 1.253906-.746093 2.480469-1.535156 3.6875-2.355469.546875 10.394532 5.152344 20.996094 13.183594 30.632813-32.148438 18.890625-75.214844 18.59375-107.125-.683594 1.945312-2.105469 3.722656-4.292969 5.242187-6.535156zm-42.414062 29.558594c7.253906-3.152344 14.757812-6.410157 21.761719-10.574219 2.285156-1.359375 4.480468-2.855469 6.582031-4.449219 21.835937 57.328125 31.359375 119.847657 27.535156 181.054688-.023437.402343.027344.789062.117187 1.160156-20.625-.378906-41.234374-1.003906-61.800781-1.867187 11.652344-51.96875 8.484375-108.238282-8.953125-158.550782 4.722656-2.40625 9.652344-4.558594 14.757813-6.773437zm-64.789063 161.121093c-2.371094-1.742187-2.796875-5.96875-2.90625-10.273437-.636718-25.320313-1.292968-51.507813 4.433594-76.4375 6.289062-27.382813 20.015625-49.375 38.652344-61.921875.886718-.597656 1.78125-1.167969 2.6875-1.726562 16.625 48.8125 19.507812 103.269531 8.085937 153.535156-.050781.222656-.070312.449218-.082031.667968-14.769531-.664062-29.519531-1.4375-44.234375-2.351562-2.753906-.171875-5.15625-.40625-6.636719-1.492188zm157.464844 6.492188c-1.925781-52.109375-1.792969-104.882812.359375-157.023438l34.15625 35.972657c.285156.300781.613281.527343.953125.71875-8.625 40.964843-12.9375 80.289062-13.332031 120.332031-7.378907.027344-14.757813.03125-22.136719 0zm148.367188-3.511719c-18.949219.988281-37.945313 1.765625-56.96875 2.339844-6.679688-50.191406-1.402344-101.855469 15.269531-149.667969 2.644531 1.894532 5.214843 3.878906 7.667969 6.035156 21.898437 19.253907 30.277343 46.992188 33.449218 66.875 3.914063 24.519532 2.34375 49.832032.582032 74.417969zm0 0"/></svg>