<svg height="512pt" viewBox="-78 0 512 512.00023" width="512pt" xmlns="http://www.w3.org/2000/svg"><path d="m340.328125 123.496094-.363281-.128906c-29.910156-10.152344-61.246094-17.550782-93.046875-21.964844-23.53125-3.261719-47.546875-4.914063-71.382813-4.914063-8.066406 0-16.226562.191407-24.253906.566407-31.96875 1.5-63.859375 5.980468-94.78125 13.316406-15.1875 3.605468-30.191406 7.914062-44.597656 12.796875l-11.78125 3.996093 7.242187-10.113281c.589844-.820312 1.167969-1.59375 1.621094-2.191406l.914063-1.230469c4.636718-6.214844 9.496093-12.320312 14.4375-18.144531 19.738281-23.230469 42.3125-43.867187 67.097656-61.34375 29.09375-20.519531 53.640625-30.074219 77.246094-30.074219 1.058593 0 2.117187.019532 3.175781.058594 27.269531 1.015625 51.832031 15.125 76.679687 30.75 35.835938 22.511719 72.824219 47.441406 96.683594 82.691406l6.929688 10.238282zm0 0" fill="#bfc7d8"/><path d="m306.941406 505.136719c-1.609375 0-3.164062-.023438-4.621094-.066407-2.984374-.097656-5.839843-.457031-8.597656-.800781-1.117187-.136719-2.25-.273437-3.40625-.402343l-4.011718-.445313.480468-4.007813c3.617188-30.011718 3.972656-60.472656 1.0625-90.535156 2.078125 22.050782 2.449219 44.566406 1.042969 66.921875l-7.933594.4375c-7.308593-41.839843-28.4375-81.328125-59.5-111.191406l-4.511719-4.335937 5.832032-2.273438c25.296875-9.867188 47.6875-27.621094 63.042968-49.988281l2.722657-3.964844 3.402343 3.398437c20.273438 20.230469 35.132813 49.085938 42.964844 83.441407 7.464844 32.695312 8.242188 66.738281 8.996094 99.65625.101562 4.488281-.25 9.3125-3.609375 11.652343-2.144531 1.480469-5.058594 1.550782-7.183594 1.597657-3.378906.101562-6.898437.261719-10.214843.417969-5.230469.238281-10.628907.488281-15.957032.488281zm0 0" fill="#f7b36f"/><path d="m133.144531 507.929688c-24.003906 0-46.058593-.5-67.429687-1.523438l-4.117188-.195312.320313-4.113282c2.464843-31.355468.785156-62.902344-4.992188-93.761718 5.734375 30.960937 7.40625 62.5625 4.910157 93.953124l-.3125 3.890626-3.894532-.214844c-8.410156-.460938-15.75-.933594-22.441406-1.4375-8.863281-.664063-16.714844-1.589844-23.042969-6.191406-8.726562-6.328126-7.378906-16.957032-6.078125-27.238282.351563-2.691406.648438-5.09375.777344-7.363281l2.871094-49.386719c1.359375-23.417968 2.898437-49.917968 16.878906-70.988281 10.1875-15.351563 25.785156-25.921875 40.890625-35.433594.316406-.203125.683594-.433593 1.046875-.660156l3.605469-2.265625 2.035156 3.742188c7.03125 12.9375 17.804687 24.9375 32.929687 36.691406 9.859376 7.660156 20.550782 14.476562 30.894532 21.0625 4.003906 2.554687 8.144531 5.191406 12.199218 7.863281 27.410157 18.003906 46.949219 34.933594 61.484376 53.277344 18.03125 22.753906 28.480468 48.921875 29.421874 73.679687l.152344 3.988282-3.984375.160156c-41.890625 1.707031-74.003906 2.464844-104.125 2.464844zm0 0" fill="#f7b36f"/><path d="m278.800781 145.757812c-1.410156-2.289062-3.265625-4.234374-5.367187-5.617187-2.789063-1.847656-6.066406-2.824219-9.480469-2.824219-1.15625 0-2.308594.117188-3.429687.34375l-5.710938 1.164063.96875-5.75c1.398438-8.269531 1.917969-16.734375 1.539062-25.152344l-.222656-4.949219 4.886719.824219c26.625 4.507813 52.878906 11.125 78.039063 19.667969.625.207031 1.28125.433594 1.9375.664062.441406.152344.878906.304688 1.320312.453125l10.753906 3.652344-10.667968 3.894531c-19.582032 7.148438-39.957032 12.359375-60.5625 15.488282l-2.617188.394531zm0 0" fill="#939baa"/><path d="m71.605469 145.035156c-20.003907-2.507812-39.691407-7.464844-58.507813-14.734375l-10.351562-3.996093 10.519531-3.527344c14.035156-4.703125 28.585937-8.859375 43.253906-12.347656 11.9375-2.832032 24.25-5.277344 36.601563-7.269532l5.101562-.820312-.484375 5.144531c-.78125 8.332031-1.046875 16.789063-.78125 25.140625l.140625 4.472656-4.460937-.359375c-.441407-.035156-.886719-.054687-1.332031-.054687-2.757813 0-5.605469.683594-8.230469 1.976562-2.507813 1.226563-4.890625 3.039063-7.085938 5.386719l-1.886719 2.011719zm0 0" fill="#939baa"/><path d="m135.507812 295.65625c-.054687-.449219-.085937-.980469-.101562-1.765625-.238281-29.640625 1.066406-59.566406 3.890625-88.992187.300781-3.175782.679687-7.128907 2.203125-10.503907 3.917969-8.707031 19.292969-17.585937 30.464844-17.585937.496094 0 .980468.015625 1.464844.050781.796874.0625 1.578124.195313 2.332031.402344.777343-.207031 1.554687-.34375 2.335937-.402344.5-.035156.988282-.050781 1.480469-.050781 10.964844 0 26.621094 9.042968 30.46875 17.589844 1.519531 3.371093 1.898437 7.324218 2.203125 10.5 2.820312 29.429687 4.128906 59.359374 3.886719 88.953124-.011719.8125-.042969 1.359376-.101563 1.804688l-.648437 5.207031-4.851563-2.007812c-.976562-.40625-1.953125-1.066407-2.746094-1.855469-4.871093-4.957031-6.148437-12.367188-6.722656-18.273438-1.066406-10.914062-.542968-22.058593-.039062-32.839843.417968-8.632813.882812-18.34375.375-27.679688-.28125-5.34375-1.078125-11.347656-4.832032-15.414062-3.121093-3.371094-7.699218-4.816407-12.125-6.21875l-.785156-.246094c-2.496094-.792969-5.355468-1.808594-7.867187-3.351563-2.550781 1.542969-5.410157 2.558594-7.878907 3.34375l-.765624.238282c-4.472657 1.414062-9.050782 2.863281-12.175782 6.238281-3.753906 4.0625-4.546875 10.066406-4.828125 15.402344-.5 9.140625-.0625 18.457031.363281 27.464843l.007813.15625c.507813 10.847657 1.03125 21.992188-.035156 32.90625-.574219 5.902344-1.855469 13.316407-6.699219 18.246094-.8125.816406-1.789062 1.472656-2.769531 1.878906l-4.851563 2.011719zm0 0" fill="#c67045"/><path d="m176.308594 277.113281c-1.722656 0-3.613282-.871093-4.929688-2.277343-1.722656-1.839844-2.574218-4.296876-3.242187-6.675782-2.367188-8.460937-2.863281-17.605468-1.4375-26.445312 1.851562-11.484375 4.589843-17.164063 8.878906-18.414063l2.3125-.675781 1.675781 1.726562c4.15625 4.277344 5.171875 19.273438 2.933594 43.367188l-.039062.429688c-.164063 1.765624-.671876 7.183593-4.359376 8.636718-.523437.210938-1.140624.328125-1.792968.328125zm0 0" fill="#c67045"/><g fill="#ffdac4"><path d="m214.058594 225.960938c-.515625-7.273438-1.105469-14.359376-1.753906-21.066407-.300782-3.171875-.675782-7.109375-2.207032-10.511719-3.5625-7.933593-18.488281-17.621093-30.832031-17.621093-.394531 0-.785156.011719-1.164063.039062-.53125.039063-1.042968.109375-1.507812.207031l-.8125.167969-.808594-.167969c-.480468-.097656-1-.167968-1.550781-.207031-.359375-.027343-.75-.039062-1.144531-.039062-12.34375 0-27.269532 9.6875-30.832032 17.617187-1.53125 3.402344-1.90625 7.34375-2.207031 10.511719-.527343 5.492187-1.011719 11.207031-1.480469 17.46875l-.488281 6.46875-5.5625-3.339844c-9.070312-5.445312-15.03125-14.042969-18.433593-20.296875-4.9375-9.085937-7.96875-19.121094-10.894532-28.824218-4.714844 1.996093-9.277344 3.019531-13.605468 3.019531-2.214844 0-4.371094-.277344-6.40625-.820313-6.996094-1.871094-12.578126-7.34375-13.886719-13.617187-1.410157-6.753907 1.949219-13.183594 4.074219-16.414063 2.914062-4.46875 6.558593-7.863281 10.542968-9.816406 2.605469-1.277344 5.453125-1.957031 8.234375-1.957031 2.09375 0 4.074219.378906 5.886719 1.121093-.59375-10.757812-.335938-21.664062.800781-32.449218l.324219-3.09375 3.082031-.445313c16.558594-2.394531 33.335938-4 49.867188-4.769531 8.027343-.375 16.1875-.5625 24.253906-.5625 23.855469 0 47.867187 1.648438 71.359375 4.90625 2.285156.316406 4.578125.65625 6.871094 1.011719l3.191406.488281.191406 3.226562c.683594 11.5625-.304687 23.09375-2.941406 34.273438 2.730469-1.972656 6.167969-3.078125 9.738281-3.078125 3.359375 0 6.710938.992187 9.4375 2.792969 5.507813 3.648437 8.800781 10.722656 8.195313 17.601562-.589844 6.578125-4.617188 12.953125-10.511719 16.640625-3.992187 2.503907-8.753906 3.828125-13.761719 3.828125-1.960937 0-3.933594-.207031-5.863281-.617187-1.976563 13.25-5.105469 23.289062-9.886719 31.617187-5.417968 9.425782-13.234375 16.578125-22.015625 20.136719l-5.105469 2.066406zm0 0"/><path d="m177.921875 333.523438c-4.578125-2.433594-9.40625-4.816407-13.289063-6.734376-7.949218-3.9375-16.960937-8.394531-25.089843-13.515624-2.640625-1.667969-5.753907-3.671876-8.855469-5.910157l-4.027344-2.902343 7.984375-7.164063 2.554688 1.609375c.488281.308594 1.0625.464844 1.707031.464844 1.585938 0 3.507812-.917969 4.898438-2.34375 4.878906-4.957032 6.164062-12.378906 6.742187-18.292969 1.066406-10.984375.535156-22.132813.023437-32.914063l-.332031-7.152343 5.546875 1.875c2.214844.746093 4.484375 1.246093 6.75 1.492187l3.890625.417969-.332031 3.898437c-.628906 7.378907.050781 14.925782 1.976562 21.824219.671876 2.394531 1.535157 4.867188 3.261719 6.707031 1.371094 1.460938 3.183594 2.296876 4.976563 2.296876.65625 0 1.273437-.117188 1.839844-.347657 3.328124-1.34375 4.089843-5.609375 4.375-8.699219l.023437-.335937c.71875-7.660156 1.097656-14.457031 1.140625-20.273437l.027344-3.972657h4.453125l.027343.007813c2.582032-.039063 5.164063-.414063 7.683594-1.113282l5.324219-1.476562-.261719 5.519531c-.472656 9.976563-1.007812 21.285157.058594 32.242188.574219 5.914062 1.859375 13.339843 6.726562 18.28125 1.410157 1.433593 3.332032 2.355469 4.90625 2.355469.894532 0 1.609376-.28125 2.246094-.882813 1.277344-1.210937 1.304688-3.332031 1.316406-4.601563.167969-19.546874-.367187-39.582031-1.589843-59.570312l-.1875-3.074219 2.925781-.96875c1.898438-.625 3.808594-1.4375 5.683594-2.417969l5.90625-3.082031-.054688 6.664063c-.160156 18.320312 12.5625 33.464844 20.15625 40.859375.957032.9375 2 1.910156 3.300782 3.078125l2.648437 2.371094-2.042969 2.90625c-17.464844 24.839843-43 43.714843-71.902344 53.144531l-1.617187.523437zm0 0"/><path d="m183.726562 243.445312-.214843-3.734374c-.722657-12.621094-3.335938-14.933594-4.195313-15.695313-.726562-.632813-1.578125-.964844-2.507812-.964844-.3125 0-.640625.035157-.96875.109375-4.019532.902344-6.945313 6.148438-8.699219 15.589844l-.671875 3.617188-3.664062-.367188c-3.429688-.347656-6.777344-1.242188-9.949219-2.667969-.105469-.039062-.203125-.078125-.300781-.117187l-2.332032-1.003906-.082031-2.539063c-.230469-6.925781-.210937-12.476563.0625-17.460937.289063-5.335938 1.089844-11.335938 4.820313-15.367188 3.132812-3.378906 7.71875-4.828125 12.152343-6.230469l.804688-.242187c1.648437-.527344 3.878906-1.289063 6-2.351563l1.785156-.890625 1.785156.890625c2.148438 1.070313 4.378907 1.828125 6.082031 2.367188l.707032.21875c4.464844 1.410156 9.050781 2.855469 12.183594 6.234375 3.730468 4.03125 4.53125 10.035156 4.820312 15.375.386719 7.035156.195312 14.179687-.019531 19.621094l-.101563 2.613281-2.4375.953125c-3.519531 1.378906-7.238281 2.078125-11.046875 2.078125zm0 0"/><path d="m130.695312 307.371094c-7.164062-5.140625-17.273437-13.4375-22.378906-26.082032l-.957031-2.375 1.753906-1.863281c.589844-.628906 1.164063-1.257812 1.734375-1.90625 11.628906-13.269531 14.070313-32.664062 14.070313-46.59375v-7.234375l6.128906 3.847656c1.0625.667969 2.136719 1.273438 3.1875 1.804688l.199219.0625 2.917968.980469-.203124 3.070312c-1.363282 20.910157-1.96875 42.03125-1.800782 62.777344.015625 1.292969.039063 3.417969 1.316406 4.621094.1875.183593.347657.308593.523438.417969l4.507812 2.820312-8.386718 7.527344zm0 0"/></g><path d="m214.984375 359.113281c-8.761719-7.714843-18.15625-14.589843-27.921875-20.441406l-7.054688-4.226563 7.675782-2.941406c25.855468-9.902344 48.890625-27.730468 64.863281-50.199218l2.472656-3.480469 3.308594 2.691406c3.652344 2.972656 7.246094 5.707031 11.5625 8.976563 5.28125 3.992187 10.738281 8.125 15.910156 12.648437l2.652344 2.320313-1.96875 2.921874c-16.066406 23.890626-39.8125 42.425782-66.871094 52.203126l-2.457031 1.371093zm0 0" fill="#f9d889"/><path d="m241.179688 501.292969c-.949219-24.753907-11.40625-50.921875-29.449219-73.6875-14.539063-18.347657-34.078125-35.285157-61.5-53.304688-3.675781-2.414062-7.457031-4.832031-11.113281-7.167969l-1.085938-.691406c-10.3125-6.570312-20.984375-13.367187-30.886719-21.050781-15.292969-11.886719-26.140625-24.035156-33.164062-37.140625l-1.761719-3.289062 3.15625-1.984376c9.363281-5.902343 19.226562-12.3125 27.824219-20.109374l3.964843-3.597657 2.324219 4.824219c6.574219 13.636719 18.945313 22.238281 30.023438 29.234375 8.023437 5.054687 16.671875 9.34375 25.035156 13.488281 5.539063 2.738282 11.761719 5.808594 17.699219 9.132813 58.253906 32.558593 97.980468 96.71875 101.214844 163.457031l.191406 4-4 .1875c-13.585938.636719-24.488282 1.125-34.308594 1.542969l-4.011719.167969zm0 0" fill="#f9d889"/><path d="m355.433594 127.925781c.101562-.839843-.058594-1.707031-.5-2.476562-23.589844-41.144531-64.429688-69.007813-104.238282-94.019531-25.347656-15.929688-50.441406-30.3125-78.683593-31.367188-25.480469-.953125-51.824219 8.824219-82.921875 30.761719-25.070313 17.683593-47.894532 38.550781-67.84375 62.03125-5.042969 5.933593-9.957032 12.109375-14.605469 18.355469l-.769531 1.023437c-3.695313 4.917969-7.191406 9.582031-5.375 13.394531-.5703128 1.929688.355468 4.023438 2.25 4.839844 20.773437 8.949219 42.628906 15.042969 65.015625 18.144531-3.214844 5.820313-4.375 11.832031-3.253907 17.171875 1.644532 7.859375 8.246094 14.417969 16.808594 16.703125 6.726563 1.792969 13.257813.808594 18.421875-.832031 2.628907 8.597656 5.539063 17.328125 9.964844 25.472656 3.136719 5.773438 6.84375 10.761719 10.984375 14.851563 0 .054687-.007812.105469-.007812.160156.695312 12.507813-.054688 35.679687-12.898438 50.335937-10.523438 12.007813-24.660156 20.859376-38.332031 29.414063-1.378907.867187-2.757813 1.730469-4.132813 2.59375-15.480468 9.75-31.488281 20.613281-42.109375 36.625-14.589843 21.996094-16.230469 50.277344-17.550781 73.003906l-2.863281 49.375c-.128907 2.191407-.429688 4.574219-.75 7.09375-1.320313 10.375-2.960938 23.289063 7.71875 31.042969 7.191406 5.222656 15.984375 6.273438 25.117187 6.957031 32.660156 2.457031 65.226563 3.417969 98.332032 3.417969 47.835937 0 96.800781-2.011719 148.78125-4.4375 3.859374-.1875 7.4375.265625 11.230468.738281 2.855469.355469 5.808594.722657 8.964844.824219 6.96875.222656 14.042969-.105469 20.886719-.421875 3.34375-.15625 6.800781-.316406 10.15625-.40625 2.648437-.074219 6.269531-.171875 9.371093-2.324219 5.613282-3.902344 5.445313-11.402344 5.363282-15.003906-.757813-33.148438-1.539063-67.421875-9.09375-100.550781-8.519532-37.363281-25.089844-68.183594-47.925782-89.132813-5.921874-5.433594-12.371093-10.3125-18.605468-15.03125-6.976563-5.28125-14.191406-10.742187-20.46875-16.863281-18.222656-17.761719-19.5625-33.5-18.738282-41.296875.074219-.714844-.058593-1.398438-.324218-2.011719 4.730468-3.941406 8.90625-8.9375 12.277344-14.804687 4.554687-7.929688 7.675781-17.238282 9.71875-29.058594 6.554687.5 13.097656-1.007812 18.4375-4.351562 6.945312-4.347657 11.691406-11.90625 12.390624-19.71875.207032-2.300782.054688-4.589844-.398437-6.804688 23.199219-3.65625 46.007813-9.890625 67.832031-18.558594 1.945313-.773437 2.9375-2.890625 2.367188-4.859375zm-343.117188-10.847656.789063-1.054687c4.546875-6.105469 9.351562-12.144532 14.285156-17.949219 19.507813-22.960938 41.832031-43.371094 66.34375-60.660157 29.582031-20.867187 54.367187-30.160156 77.976563-29.292968 26.25.980468 50.308593 14.8125 74.695312 30.136718 35.695312 22.425782 72.207031 47.144532 95.503906 81.550782-.191406-.066406-.386718-.132813-.578125-.199219-30.222656-10.257813-61.808593-17.714844-93.871093-22.164063-23.746094-3.296874-47.84375-4.949218-71.921876-4.949218-8.152343 0-16.308593.1875-24.441406.566406-32.25 1.511719-64.386718 6.023438-95.519531 13.417969-15.335937 3.640625-30.453125 7.976562-44.964844 12.898437.632813-.875 1.25-1.699218 1.703125-2.300781zm80.640625 15.671875c-3.847656-.308594-7.890625.472656-11.652343 2.320312-2.957032 1.449219-5.738282 3.570313-8.234376 6.234376-.292968-.109376-.597656-.199219-.925781-.238282-19.738281-2.460937-39.074219-7.332031-57.601562-14.496094 13.863281-4.652343 28.277343-8.773437 42.898437-12.25 11.972656-2.839843 24.097656-5.242187 36.320313-7.214843-.808594 8.507812-1.078125 17.097656-.804688 25.644531zm12.933594 153.078125c6.964844 14.464844 19.796875 23.5 31.488281 30.878906 8.214844 5.1875 16.976563 9.523438 25.449219 13.71875 5.789063 2.867188 11.78125 5.832031 17.464844 9.011719 57.203125 31.972656 96.003906 94.730469 99.175781 160.167969-11.578125.539062-22.996094 1.054687-34.292969 1.53125-.980469-25.589844-11.714843-52.542969-30.3125-76.015625-14.804687-18.691406-34.644531-35.902344-62.433593-54.160156-4.066407-2.671876-8.226563-5.324219-12.246094-7.886719-10.269532-6.542969-20.890625-13.308594-30.589844-20.847657-14.84375-11.535156-25.351562-23.285156-32.09375-35.867187 9.816406-6.175781 19.695312-12.648437 28.390625-20.53125zm-39.988281 216.578125c2.496094-31.679688.804687-63.570312-5.042969-94.804688-.40625-2.1875-2.515625-3.632812-4.703125-3.21875-2.1875.410157-3.628906 2.515626-3.21875 4.703126 5.726562 30.601562 7.375 61.847656 4.914062 92.886718-7.457031-.410156-14.914062-.871094-22.367187-1.429687-8.234375-.617188-15.496094-1.457031-20.980469-5.441407-6.34375-4.605468-5.886718-12.296874-4.460937-23.503906.320312-2.542968.65625-5.175781.800781-7.640625l2.863281-49.378906c1.328125-22.890625 2.832031-48.832031 16.21875-69.011719 9.738281-14.679687 24.949219-24.972656 39.6875-34.261718.347657-.214844.695313-.433594 1.042969-.652344 7.289062 13.410156 18.425781 25.84375 33.992188 37.941406 9.996093 7.765625 20.777343 14.636719 31.203124 21.277344 3.996094 2.550781 8.132813 5.183594 12.148438 7.824218 27.050781 17.773438 46.289062 34.433594 60.546875 52.429688 17.546875 22.148438 27.652344 47.441406 28.5625 71.34375-59.515625 2.425781-115.5625 3.617188-171.207031.9375zm265.109375-110.195312c7.375 32.335937 8.144531 66.195312 8.890625 98.9375.074218 3.15625-.078125 6.9375-1.898438 8.203124-1.125.78125-3.265625.835938-4.988281.882813-3.433594.09375-6.929687.253906-10.3125.414063-6.6875.3125-13.601563.632812-20.257813.417968-2.78125-.089844-5.425781-.417968-8.222656-.769531-1.140625-.140625-2.296875-.28125-3.46875-.410156 3.648438-30.292969 4.015625-61.035157 1.070313-91.402344-.214844-2.214844-2.183594-3.839844-4.402344-3.621094-2.214844.214844-3.835937 2.183594-3.621094 4.402344 2.132813 22.003906 2.488281 44.207031 1.09375 66.285156-7.484375-42.878906-29.273437-83.210937-60.671875-113.386719 26.136719-10.191406 49.015625-28.320312 64.894532-51.457031 19.757812 19.722657 34.203124 47.773438 41.894531 81.503907zm-47.84375-87.066407c-15.613281 23.214844-38.667969 41.214844-64.988281 50.703125-.195313.070313-.371094.164063-.546876.261719-8.859374-7.789063-18.386718-14.800781-28.515624-20.867187 26.675781-10.21875 50.117187-28.316407 66.695312-51.625 3.851562 3.140624 7.789062 6.132812 11.660156 9.0625 5.261719 3.984374 10.675782 8.082031 15.695313 12.464843zm-36.925781-29.980469c1.117187 1.089844 2.265624 2.148438 3.421874 3.191407-16.996093 24.171875-41.78125 42.472656-69.871093 51.628906-4.457031-2.363281-8.976563-4.601563-13.386719-6.785156-8.289062-4.101563-16.863281-8.347657-24.722656-13.308594-11.410156-7.203125-23.980469-16.058594-29.652344-30.101563.613281-.660156 1.222656-1.324218 1.816406-2 12.535156-14.308593 15.066406-34.945312 15.070313-49.238281 1.210937.757813 2.445312 1.457031 3.703125 2.078125.171875.085938.355468.132813.535156.191406-1.367188 21.003907-1.984375 42.121094-1.808594 63.066407.015625 1.660156.042969 5.117187 2.566406 7.507812 1.46875 1.386719 3.214844 1.976563 4.996094 1.976563 2.804688 0 5.699219-1.453125 7.761719-3.546875 5.738281-5.832031 7.210937-14.128907 7.851563-20.703125 1.089843-11.222656.558593-22.542969.042968-33.488282-.019531-.433593-.039062-.867187-.0625-1.300781 2.464844.832031 5.003906 1.394531 7.597656 1.679688-.664062 7.839843.035157 15.785156 2.117188 23.238281.761719 2.738281 1.855469 5.878906 4.195312 8.367188 2.160157 2.300781 5.066407 3.558593 7.890626 3.558593 1.152343 0 2.289062-.210937 3.359374-.640625 5.949219-2.410156 6.617188-9.65625 6.839844-12.035156l.035156-.402344c.765626-8.230468 1.101563-14.976562 1.144532-20.542968h.0625c3.101562 0 6.207031-.429688 9.199218-1.257813-.503906 10.738281-.996093 21.824219.074219 32.824219.640625 6.574218 2.113281 14.871094 7.851563 20.703125 3.371094 3.425781 8.988281 5.140625 12.757812 1.570312 2.523438-2.390625 2.550782-5.847656 2.566406-7.507812.164063-19.871094-.382812-39.890625-1.601562-59.820313 2.152344-.707031 4.25-1.601562 6.285156-2.667968-.171875 19.664062 13.074219 35.683593 21.363282 43.765624zm-40.839844-57.171874c-.328125-6.058594-1.285156-12.921876-5.894532-17.910157-3.863281-4.171875-9.207031-5.855469-13.921874-7.339843l-.738282-.234376c-2.097656-.664062-4.78125-1.597656-6.957031-2.941406-.648437-.402344-1.382813-.601562-2.121094-.601562-.734375 0-1.46875.199218-2.117187.601562-2.175782 1.34375-4.859375 2.277344-6.957032 2.941406l-.734374.234376c-4.71875 1.484374-10.0625 3.167968-13.925782 7.34375-4.609375 4.984374-5.566406 11.847656-5.890625 17.90625-.507812 9.394531-.0625 18.863281.367188 28.019531.503906 10.660156 1.023437 21.683593-.011719 32.328125-.515625 5.253906-1.609375 11.800781-5.578125 15.832031-.480469.492187-1.035156.820313-1.449219.992187-.035156-.328124-.058594-.777343-.0625-1.34375-.246094-29.441406 1.054688-59.230468 3.867188-88.539062.292968-3.03125.625-6.46875 1.867187-9.238281 3.132813-6.960938 17.816407-15.914063 28.003907-15.1875.527343.035156 1.050781.125 1.5625.265625.695312.191406 1.429687.191406 2.125 0 .507812-.140625 1.03125-.230469 1.558593-.265625 10.179688-.722657 24.871094 8.226562 28.003907 15.1875 1.242187 2.769531 1.574218 6.207031 1.867187 9.238281 2.8125 29.304688 4.113281 59.09375 3.867187 88.539062-.003906.566407-.027343 1.015626-.0625 1.34375-.414062-.171874-.96875-.503906-1.449218-.992187-3.96875-4.03125-5.0625-10.578125-5.574219-15.832031-1.039063-10.644532-.519531-21.667969-.015625-32.328125.429688-9.15625.875-18.625.371094-28.019531zm-17.894532 21.488281c-.820312-14.289063-4.148437-17.230469-5.542968-18.457031-1.953125-1.71875-4.441406-2.347657-7.003906-1.769532-7.757813 1.746094-10.519532 12.09375-11.753907 18.765625-3.066406-.3125-6.039062-1.117187-8.855469-2.402343-.070312-.03125-.140624-.046876-.214843-.074219-.191407-5.71875-.25-11.472657.054687-17.117188.25-4.621093.894532-9.761719 3.765625-12.867187 2.40625-2.601563 6.300781-3.828125 10.421875-5.128906l.753906-.234376c1.9375-.617187 4.316407-1.433593 6.636719-2.59375 2.320313 1.160157 4.699219 1.976563 6.640625 2.59375l.75.234376c4.121094 1.300781 8.019532 2.527343 10.425782 5.125 2.867187 3.109374 3.511718 8.25 3.761718 12.871093.34375 6.351563.222656 12.835938-.023437 19.257813-3.113281 1.21875-6.464844 1.828125-9.816407 1.796875zm-8.996093 27.871093-.035157.40625c-.40625 4.394532-1.507812 5.167969-1.835937 5.300782-.496094.203125-1.578125-.144532-2.34375-.957032-1.140625-1.214843-1.785156-3.128906-2.3125-5.015624-2.207031-7.917969-2.667969-16.472657-1.335937-24.738282 2.027343-12.585937 4.777343-14.839844 6.050781-15.210937.710937.734375 4.941406 6.613281 1.8125 40.214843zm99.089843-109.921874c-.476562 5.351562-3.789062 10.5625-8.640624 13.601562-4.722657 2.957031-10.800782 3.941406-16.675782 2.691406-1.09375-.230468-2.226562-.003906-3.144531.632813-.914063.636719-1.523437 1.625-1.683594 2.726562-1.855469 12.699219-4.832031 22.289063-9.363281 30.175781-4.96875 8.648438-12.175781 15.230469-20.042969 18.421876-.503906-7.078126-1.085937-14.136719-1.761719-21.171876-.332031-3.472656-.746093-7.792968-2.539062-11.773437-5.183594-11.523437-24.402344-20.730469-35.925781-19.925781-.6875.050781-1.375.144531-2.050781.28125-.675782-.136719-1.363282-.230469-2.054688-.28125-11.527344-.804688-30.742188 8.402344-35.925781 19.925781-1.789063 3.980469-2.203125 8.300781-2.539063 11.777344-.558594 5.832031-1.042968 11.683593-1.484375 17.550781-8.214843-4.929688-13.726562-12.792969-16.980469-18.785156-4.738281-8.71875-7.710937-18.554688-10.578124-28.070313-.332032-1.101562-1.121094-2.007812-2.164063-2.492187-1.042969-.480469-2.242187-.5-3.300781-.039063-4.332032 1.878907-10.863282 3.753907-17.347656 2.019531-5.566407-1.484374-9.984376-5.730468-11-10.5625-1.113282-5.3125 1.714843-10.679687 3.496093-13.402343 2.539063-3.878907 5.636719-6.789063 8.964844-8.421875 3.601563-1.765625 7.652344-2.039063 10.835937-.730469 1.28125.527344 2.746094.359375 3.875-.445313 1.128907-.804687 1.765626-2.136718 1.683594-3.519531-.621094-10.5625-.363281-21.238281.746094-31.765625 16.378906-2.367187 32.910156-3.957031 49.476562-4.730468 31.660157-1.480469 63.582032-.03125 94.878907 4.3125 2.273437.316406 4.542969.648437 6.808593.996093.660157 11.128907-.277343 22.269531-2.828124 33.128907-.390626 1.652343.296874 3.367187 1.71875 4.296874 1.421874.925782 3.269531.867188 4.625-.152343 4.011718-3.011719 10.113281-3.089844 14.507812-.179688 4.324219 2.863281 6.902344 8.453125 6.414062 13.910157zm-1.964843-20.632813c-4.742188-3.136719-10.5625-4.148437-15.910157-3.054687 1.449219-8.582032 1.976563-17.289063 1.585938-26 26.417969 4.46875 52.398438 11.003906 77.429688 19.503906 1.085937.367187 2.167968.75 3.253906 1.125-19.355469 7.066406-39.421875 12.195312-59.792969 15.285156-1.675781-2.726562-3.894531-5.09375-6.566406-6.859375zm0 0"/></svg>