<svg height="512pt" viewBox="-90 0 512 512.00321" width="512pt" xmlns="http://www.w3.org/2000/svg"><path d="m170.765625 359.769531c-.210937 0-.421875-.003906-.636719-.011719-3.601562-.15625-6.972656-1.757812-10.398437-3.523437-30.140625-15.472656-58.15625-34.960937-83.253907-57.910156l-4.503906-4.117188 5.574219-2.488281c4.738281-2.117188 10.113281-4.515625 15.269531-7.21875l3.132813-1.644531 2.011719 2.90625 67.585937 49.398437c1.804687 1.3125 3.835937 2.792969 6.234375 2.945313.09375.007812.246094.015625.394531.015625 2.855469 0 5.359375-1.878906 7.371094-3.390625l64.441406-48.484375c.082031-.074219.171875-.148438.261719-.214844l2.222656-1.683594 3.109375 1.992188c4.886719 3.113281 10.054688 5.992187 15.050781 8.773437l5.378907 3-4.925781 3.695313c-25.976563 19.496094-53.339844 37.4375-81.328126 53.328125-4.457031 2.535156-8.515624 4.632812-12.992187 4.632812zm0 0" fill="#5b8baf"/><g fill="#644c4c"><path d="m241.933594 138.941406c-15.9375-26.636718-26.097656-56.984375-29.386719-87.757812-12.726563 4.257812-26.023437 6.425781-39.5625 6.425781s-26.832031-2.167969-39.519531-6.449219c-1.90625 25.636719-9.183594 61.976563-33.261719 89.691406-.996094 1.148438-1.898437 1.945313-2.761719 2.449219l-2.980468 1.726563-2.152344-2.6875c-.371094-.464844-.753906-1.0625-1.167969-1.828125-10.789063-19.554688-12.140625-43.953125-3.796875-68.679688 7.882812-23.40625 23.378906-43.664062 42.515625-55.578125 12.824219-7.984375 27.449219-12.203125 42.296875-12.203125 9.695312 0 18.890625 1.804688 27.332031 5.363281 12.839844 5.425782 36.402344 20.472657 50.042969 60.320313 8.867188 25.925781 8.660156 50.410156-.585938 68.941406l-3.261718 6.535157zm0 0"/><path d="m214.175781 241.183594c-2.496093 0-5.144531-1.363282-6.90625-3.558594-1.757812-2.214844-2.835937-5.164062-3.40625-9.296875-.605469-4.386719-.597656-8.691406-.585937-13.253906v-.382813c0-3.117187 0-6.339844-.230469-9.5-.707031-9.453125-3.609375-16.476562-8.625-20.875-2.71875-2.378906-5.917969-3.894531-9.304687-5.5-.359376-.164062-.773438-.359375-1.195313-.558594l-.320313-.148437c-3.953124-1.90625-8.28125-4.359375-10.664062-8.214844-2.449219 3.855469-6.773438 6.308594-10.691406 8.199219l-1.554688.734375c-3.222656 1.519531-6.558594 3.089844-9.300781 5.488281-5.015625 4.40625-7.914063 11.433594-8.613281 20.878906-.242188 3.164063-.238282 6.390626-.238282 9.507813v.347656c.007813 4.585938.019532 8.890625-.589843 13.277344-.570313 4.152344-1.648438 7.105469-3.394531 9.289063-1.753907 2.199218-4.40625 3.566406-6.917969 3.566406-.65625 0-1.296875-.09375-1.902344-.277344-3.695313-1.125-5.933594-5.011719-6.839844-11.886719-1.820312-13.582031-1.667969-24.542969.484375-34.476562 2.644532-12.203125 8.617188-22.710938 16.816406-29.589844 8.226563-6.910156 20.148438-10.875 32.710938-10.875 12.574219 0 24.5 3.964844 32.714844 10.878906 8.195312 6.875 14.171875 17.382813 16.816406 29.582031 2.152344 9.933594 2.308594 20.890626.496094 34.488282-.925782 6.875-3.167969 10.757812-6.855469 11.878906-.609375.1875-1.246094.277344-1.902344.277344zm0 0"/><path d="m174.21875 254.3125c-.726562 0-1.539062-.144531-2.492188-.441406-5.554687-1.703125-10.265624-6.402344-11.984374-11.972656-1.894532-6.113282.140624-13.410157 4.640624-16.601563 1.386719-1 3.050782-1.535156 4.78125-1.535156 2.234376 0 4.570313.886719 6.945313 2.640625 3.144531 2.332031 5.199219 6.433594 5.507813 10.980468.25 3.652344-.535157 7.691407-2.398438 12.347657-.777344 1.9375-1.503906 3.0625-2.429688 3.761719l-1.070312.808593h-1.148438c-.097656.007813-.214843.011719-.351562.011719zm0 0"/></g><path d="m275.878906 507.816406-1.3125-100.234375 1.242188 100.238281-225.652344-.613281.238281-4.210937c2.054688-36.550782 2.859375-73.4375 2.390625-109.636719.402344 36.53125-.410156 73.5625-2.476562 110.066406l-.214844 3.785157-31.351562-.089844c-4.109376-.011719-8.035157-.21875-10.859376-2.542969-4.011718-3.296875-4.0625-9.441406-3.582031-15.019531l7.039063-82.28125c1.542968-17.921875 3.128906-36.394532 8.332031-53.898438 4.066406-13.65625 12.328125-32.640625 28.597656-45.53125 6.941407-5.507812 14.652344-9.40625 21.277344-12.492187l2.679687-1.25 1.980469 2.195312.128907.152344c25.636718 23.785156 54.335937 43.898437 85.367187 59.839844 3.4375 1.773437 6.824219 3.375 10.445313 3.53125.1875.007812.394531.015625.597656.015625 4.476562 0 8.558594-2.105469 13.046875-4.648438 29.136719-16.539062 57.453125-35.191406 84.164062-55.449218l2.109375-1.601563 2.300782 1.320313c7.890624 4.527343 16.1875 9.6875 23.410156 16.722656 22.5 21.917968 27.839844 54.949218 30.257812 87.378906 2.324219 31.078125 2.945313 62.683594 1.835938 93.941406-.109375 3.398438-.535156 6.816406-2.886719 8.734375-2.019531 1.671875-4.992187 1.6875-7.160156 1.703125h-.210938zm0 0" fill="#3a6082"/><path d="m114.792969 219.980469c-12.699219-13.488281-20.839844-28.476563-23.542969-43.335938-1.980469 1.390625-4.371094 2.132813-6.957031 2.132813-.859375 0-1.742188-.082032-2.617188-.246094-3.859375-.71875-7.355469-2.992188-9.34375-6.089844-3.742187-5.820312-3-14.3125 1.769531-20.191406 4.21875-5.199219 11.3125-8.394531 18.972657-8.546875l.523437-.011719.742188.179688.132812.050781c.289063.074219.566406.109375.84375.109375 1.828125 0 3.691406-1.703125 4.929688-3.132812 22.921875-26.378907 30.503906-60.640626 32.828125-84.734376l.46875-4.8125 4.636719 1.359376c11.253906 3.292968 22.964843 4.960937 34.800781 4.960937 11.894531 0 23.664062-1.6875 34.980469-5.011719l4.488281-1.316406.605469 4.640625c4.078124 31.324219 15.222656 61.925781 32.230468 88.488281l.566406.882813.058594 1.046875c2.695313-3.03125 6.941406-4.863282 11.414063-4.863282 2.542969 0 5.019531.59375 7.15625 1.722657 5.875 3.101562 9.5625 9.890625 9.171875 16.890625-.347656 6.5-4.191406 12.945312-10.042969 16.808594-4.226563 2.777343-9.585937 4.304687-15.097656 4.304687-1.457031 0-2.929688-.105469-4.375-.3125.109375 12.5625-4.574219 25.269531-12.878907 34.902344l-7.1875 8.328125.15625-11c.09375-6.761719-.46875-12.863282-1.730468-18.652344-2.652344-12.214844-8.632813-22.734375-16.832032-29.628906-8.261718-6.933594-20.199218-10.910156-32.757812-10.910156s-24.496094 3.976562-32.757812 10.914062c-8.203126 6.890625-14.179688 17.410156-16.832032 29.625-1.488281 6.851562-2.015625 14.21875-1.617187 22.519531l.523437 10.828125zm0 0" fill="#ffdac4"/><path d="m172.191406 338.058594c-.164062 0-.324218-.007813-.480468-.019532-2.304688-.152343-4.402344-1.679687-6.089844-2.902343l-70.59375-51.578125 4.90625-3.152344c7.457031-4.796875 13.949218-11.003906 18.277344-17.476562 4.007812-5.992188 6.21875-12.152344 6.570312-18.308594l.285156-4.960938 4.785156 1.335938c.570313.160156 1.175782.242187 1.796876.242187 1.835937 0 3.734374-.703125 5.335937-1.980469l2.410156-1.914062 2.46875 1.835938c4.195313 3.121093 9.402344 4.839843 14.660157 4.839843.433593 0 .863281-.027343 1.296874-.054687l2.402344-.140625 1.253906 2.058593c2.320313 3.832032 6.058594 6.765626 10.253907 8.050782.929687.292968 1.769531.4375 2.503906.4375.609375 0 1.140625-.097656 1.628906-.292969 1.40625-.5625 2.421875-1.851563 3.40625-4.320313.613281-1.507812 1.128907-3.054687 1.539063-4.609374l.707031-2.679688 2.757813-.277344c6.328124-.640625 12.660156-2.472656 18.3125-5.296875l2.808593-1.40625 2.03125 2.394531c1.765625 2.082032 4.246094 3.335938 6.652344 3.367188l.296875-.011719h3.617188l.363281 3.601563c1.316406 13.085937 9.328125 25.308594 23.804687 36.339844l4.203125 3.199218-66.832031 50.289063c-2.382812 1.785156-4.734375 3.390625-7.339844 3.390625zm0 0" fill="#ffdac4"/><path d="m154.902344 243.910156c-4.710938-.308594-9.367188-2.023437-13.105469-4.828125l-2.480469-1.863281 1.183594-2.863281c.917969-2.226563 1.304688-4.503907 1.515625-6.023438.59375-4.332031.59375-8.785156.59375-13.089843v-.199219c-.011719-3.644531-.003906-6.691407.230469-9.835938.472656-6.480469 2.351562-15.359375 8.597656-20.84375 2.71875-2.382812 6.0625-3.957031 9.296875-5.480469l1.527344-.738281c2.433593-1.167969 5.53125-2.789062 7.953125-4.992187l2.6875-2.445313 2.691406 2.441407c2.449219 2.21875 5.539062 3.835937 7.957031 4.996093.503907.242188 1.003907.484375 1.503907.714844l.117187.058594c3.203125 1.515625 6.515625 3.085937 9.203125 5.445312 6.253906 5.496094 8.128906 14.371094 8.601562 20.847657.253907 3.269531.242188 6.460937.230469 9.84375v.1875c0 4.304687 0 8.757812.59375 13.097656.203125 1.429687.460938 2.707031.785157 3.882812l.871093 3.167969-2.941406 1.46875c-5.097656 2.550781-10.570313 4.246094-16.261719 5.042969l-4.558594.640625v-4.601563c0-.179687.003907-.363281-.007812-.539062-.316406-4.644532-2.332031-8.664063-5.539062-11.050782-2.363282-1.75-4.792969-2.675781-7.03125-2.675781-1.691407 0-3.296876.527344-4.765626 1.570313-3.839843 2.710937-5.984374 8.523437-5.222656 14.136718l.65625 4.851563zm0 0" fill="#ffdac4"/><path d="m330.089844 403.257812c-2.363282-31.636718-7.953125-67.070312-31.484375-89.984374-9.328125-9.089844-20.707031-15.421876-31.714844-21.550782-5.042969-2.808594-10.261719-5.714844-15.140625-8.820312-24.429688-15.53125-28.941406-31.558594-29.457031-39.730469-.03125-.453125-.148438-.875-.316407-1.273437 2.558594-2.628907 4.230469-6.746094 4.976563-12.328126.214844-1.613281.402344-3.183593.5625-4.726562.464844-.167969.90625-.414062 1.300781-.757812 11.191406-9.746094 18.191406-23.988282 19.222656-38.761719 6.425782.058593 12.765626-1.652344 17.800782-4.976563 6.894531-4.542968 11.445312-12.195312 11.871094-19.972656.472656-8.558594-4.082032-16.878906-11.328126-20.707031-3.894531-2.054688-8.347656-2.644531-12.527343-1.929688 8.371093-19.011719 8.304687-43.640625-.488281-69.320312-14.152344-41.363281-38.84375-57.066407-52.300782-62.742188-22.769531-9.609375-50.878906-6.875-73.355468 7.125-19.914063 12.410157-36.035157 33.453125-44.21875 57.730469-8.414063 24.964844-7.332032 49.679688 3.003906 69.894531-6.277344 1.421875-11.835938 4.675781-15.554688 9.265625-5.839844 7.203125-6.6875 17.695313-2.027344 24.949219 2.617188 4.074219 6.996094 6.949219 12.019532 7.890625 2.558594.476562 5.078125.410156 7.410156-.175781 5.316406 20.808593 19.109375 36.902343 30.175781 47.003906.109375.101563.230469.179687.347657.265625.335937 2.46875.851562 4.644531 1.542968 6.539062-.171875.59375-.222656 1.230469-.09375 1.882813 2.101563 10.679687-3.175781 27.675781-24.953125 40.402344-6.1875 3.617187-12.980469 6.65625-19.546875 9.59375-10.289062 4.601562-20.921875 9.363281-30.074218 16.617187-13.535157 10.730469-23.894532 27.179688-29.960938 47.566406-5.332031 17.921876-6.933594 36.625-8.484375 54.710938l-7.050781 82.273438c-.371094 4.351562-1.148438 13.414062 5.0625 18.511718 4.1875 3.4375 9.746094 3.453125 13.421875 3.464844l298.855469.816406h.445312c2.679688 0 6.484375-.125 9.535156-2.617187 4.070313-3.328125 4.265625-8.800781 4.367188-11.742188 1.113281-31.351562.492187-63.109375-1.84375-94.386719zm-67.402344-104.648437c-25.742188 19.324219-52.929688 37.171875-80.902344 53.050781-4.117187 2.339844-7.816406 4.269532-11.46875 4.105469-2.78125-.121094-5.609375-1.46875-8.753906-3.082031-29.890625-15.355469-57.589844-34.636719-82.382812-57.3125 5.128906-2.296875 10.390624-4.65625 15.496093-7.335938.25.359375.546875.691406.921875.964844l67.59375 49.386719c2.011719 1.472656 4.765625 3.484375 8.332032 3.707031.222656.015625.441406.023438.660156.023438 4.203125 0 7.542968-2.515626 9.792968-4.207032l64.582032-48.59375c.039062-.03125.070312-.066406.109375-.097656.25.160156.503906.328125.757812.488281 4.980469 3.171875 10.203125 6.082031 15.261719 8.902344zm-76.988281-60.667969c-.007813-.277344-.007813-.558594-.027344-.832031-.390625-5.800781-2.992187-10.890625-7.136719-13.964844-5.636718-4.179687-11.652344-4.605469-16.503906-1.167969-5.144531 3.648438-7.816406 10.953126-6.863281 17.941407-3.941407-.257813-7.816407-1.667969-10.96875-4.035157 1.039062-2.523437 1.503906-5.050781 1.773437-7.003906.644532-4.675781.636719-9.335937.628906-13.839844-.003906-3.300781-.007812-6.421874.222657-9.539062.425781-5.742188 2.03125-13.546875 7.253906-18.125 2.289063-2.011719 5.234375-3.402344 8.355469-4.878906.523437-.246094 1.046875-.496094 1.566406-.746094 2.996094-1.441406 6.222656-3.195312 8.90625-5.640625 2.683594 2.445313 5.910156 4.199219 8.90625 5.640625.519531.25 1.042969.496094 1.566406.746094 3.117188 1.472656 6.066406 2.867187 8.359375 4.878906 5.222657 4.582031 6.828125 12.382812 7.25 18.125.234375 3.121094.226563 6.238281.222657 9.542969-.007813 4.503906-.015626 9.160156.628906 13.835937.175781 1.273438.445312 2.796875.890625 4.398438-4.707031 2.347656-9.820313 3.9375-15.03125 4.664062zm-22.132813 2.78125c-1.367187-4.425781.066406-9.996094 3.125-12.164062.753906-.535156 1.578125-.800782 2.476563-.800782 1.363281 0 2.890625.625 4.566406 1.863282 2.210937 1.640625 3.664063 4.640625 3.894531 8.03125.207032 3.054687-.488281 6.519531-2.121094 10.585937-.691406 1.722657-1.09375 2.03125-1.132812 2.058594-.015625.003906-.363281.09375-1.453125-.242187-4.34375-1.332032-8.015625-4.996094-9.355469-9.332032zm44.261719-12.945312c-.566406-4.117188-.5625-8.296875-.554687-12.722656.007812-3.308594.011718-6.726563-.242188-10.152344-.78125-10.53125-4.136719-18.46875-9.976562-23.589844-3.140626-2.757812-6.746094-4.460938-10.230469-6.109375-.507813-.238281-1.011719-.476563-1.515625-.71875-3.398438-1.636719-7.121094-3.710937-8.976563-6.691406-.734375-1.1875-2.03125-1.90625-3.425781-1.90625-1.390625 0-2.6875.71875-3.421875 1.90625-1.851563 2.980469-5.578125 5.054687-8.980469 6.691406-.503906.242187-1.011718.480469-1.515625.722656-3.484375 1.644531-7.089843 3.347657-10.226562 6.101563-5.839844 5.121094-9.195313 13.058594-9.980469 23.589844-.253906 3.425781-.246094 6.847656-.238281 10.152343.007812 4.425781.011719 8.605469-.554688 12.722657-.46875 3.410156-1.285156 5.746093-2.5625 7.34375-1.222656 1.53125-3.171875 2.371093-4.527343 1.960937-2.496094-.757813-3.578126-5.085937-4.042969-8.582031-1.757813-13.125-1.617188-23.644532.433593-33.109375 2.460938-11.335938 7.957032-21.058594 15.480469-27.371094 7.886719-6.625 19.011719-9.933594 30.140625-9.933594 11.125 0 22.253906 3.308594 30.140625 9.933594 7.523438 6.3125 13.019531 16.035156 15.476563 27.371094 2.054687 9.464843 2.195312 19.988281.4375 33.109375-.46875 3.496094-1.546875 7.824218-4.042969 8.582031-1.359375.414063-3.308594-.429687-4.53125-1.960937-1.277344-1.59375-2.089844-3.929688-2.5625-7.339844zm-116.695313-154.667969c7.597657-22.539063 22.484376-42.027344 40.84375-53.464844 12.292969-7.660156 26.417969-11.597656 40.179688-11.597656 8.945312 0 17.742188 1.667969 25.777344 5.058594 12.214844 5.152343 34.667968 19.53125 47.808594 57.921875 8.515624 24.886718 8.308593 48.457031-.375 65.863281-15.65625-26.175781-25.597657-55.8125-28.84375-86.128906-.132813-1.21875-.804688-2.308594-1.835938-2.96875-1.03125-.660157-2.304688-.816407-3.464844-.421875-24.65625 8.324218-51.816406 8.324218-76.472656 0-1.179688-.398438-2.480469-.230469-3.519531.460937-1.039063.6875-1.703125 1.820313-1.792969 3.0625-1.820312 25.003907-8.894531 60.449219-32.253906 87.339844-.871094 1-1.441406 1.429687-1.746094 1.609375-.160156-.199219-.410156-.566406-.78125-1.238281-10.246094-18.585938-11.496094-41.84375-3.523438-65.496094zm4.054688 102.820313c-.246094-1.367188-1.179688-2.507813-2.46875-3.023438-1.285156-.511719-2.746094-.332031-3.871094.484375-1.703125 1.238281-3.988281 1.667969-6.429687 1.214844-2.804688-.527344-5.316407-2.144531-6.722657-4.328125-2.789062-4.339844-2.140624-11.003906 1.507813-15.507813 3.488281-4.304687 9.441406-6.9375 15.949219-7.074219.042968.015626.078125.035157.125.050782 3.363281.957031 6.726562-.46875 9.992187-4.226563 23.257813-26.769531 31.292969-61.171875 33.78125-86.972656 23.414063 6.851563 48.628907 6.835937 72.035157-.046875 4.15625 31.945312 15.464843 63 32.832031 90.132812.054687 1.0625.523437 2.101563 1.394531 2.851563 1.691406 1.449219 4.234375 1.253906 5.683594-.433594 3.074218-3.585937 9.183594-4.59375 13.621094-2.25 4.445312 2.34375 7.339843 7.746094 7.042968 13.132813-.289062 5.273437-3.453125 10.519531-8.257812 13.683594-4.574219 3.015624-10.660156 4.242187-16.691406 3.378906-1.160157-.167969-2.347657.179687-3.230469.957031-.886719.777344-1.390625 1.898437-1.375 3.078125.128906 11.734375-4.238281 23.351562-11.875 32.214844.09375-7.082032-.507813-13.496094-1.824219-19.566406-2.839844-13.074219-9.292969-24.378907-18.175781-31.835938-18.820313-15.800781-51.832031-15.804688-70.652344 0-8.882813 7.457031-15.335937 18.761719-18.171875 31.835938-1.558594 7.191406-2.125 14.859374-1.703125 23.558593-12.042969-12.800781-19.953125-27.222656-22.515625-41.308593zm26.347656 89.226562c4.410156-6.597656 6.847656-13.488281 7.246094-20.300781 3.578125.996093 7.566406.023437 10.695312-2.464844 4.878907 3.625 10.96875 5.628906 17.050782 5.628906.511718 0 1.023437-.027343 1.53125-.054687 2.808594 4.621094 7.285156 8.199218 12.496094 9.796875 1.324218.40625 2.542968.609375 3.679687.609375 1.113281 0 2.148437-.195313 3.117187-.582032 3.179688-1.273437 4.683594-4.167968 5.636719-6.550781.707031-1.753906 1.261719-3.4375 1.691407-5.066406 6.820312-.691406 13.554687-2.636719 19.691406-5.703125 2.582031 3.042969 6.226562 4.777344 9.804687 4.777344.066407 0 .136719-.007813.203125-.007813 1.710938 16.972657 13.4375 30.046875 25.355469 39.121094l-62.605469 47.109375c-1.800781 1.351562-3.707031 2.6875-5.101562 2.578125-1.214844-.074219-2.804688-1.234375-4.082032-2.167969l-65.847656-48.113281c7.925782-5.09375 14.757813-11.617187 19.4375-18.609375zm202.34375 232.199219c-.058594 1.546875-.171875 4.769531-1.417968 5.789062-.980469.800781-3.316407.789063-4.851563.792969l-37.789063-.105469-1.25-96.300781c-.03125-2.210938-1.832031-3.980469-4.03125-3.980469-.019531 0-.035156 0-.054687 0-2.226563.03125-4.007813 1.859375-3.976563 4.085938l1.25 96.175781-217.367187-.59375c2.050781-36.464844 2.863281-73.425781 2.398437-109.914062-.027343-2.207032-1.828124-3.976563-4.03125-3.976563-.015624 0-.035156 0-.050781 0-2.226562.027344-4.007812 1.855469-3.980469 4.082031.464844 36.445313-.351562 73.367188-2.410156 109.785156l-27.558594-.074218c-3.351562-.007813-6.515624-.140625-8.328124-1.632813-2.585938-2.117187-2.535157-7.046875-2.144532-11.59375l7.046875-82.269531c1.515625-17.683594 3.085938-35.972656 8.179688-53.101562 3.898437-13.101563 11.789062-31.292969 27.246093-43.546876 6.1875-4.90625 13.125-8.5625 20.480469-12 .09375.105469.175781.21875.28125.320313 25.882813 24.042969 54.941407 44.417969 86.359375 60.558594 3.859375 1.980469 7.6875 3.777343 12.09375 3.964843.261719.011719.519532.015626.777344.015626 5.449219 0 10.21875-2.441407 15.019531-5.164063 29.296875-16.628906 57.753907-35.382813 84.605469-55.738281 8.261719 4.742187 15.988281 9.671875 22.609375 16.117187 21.542969 20.984375 26.703125 53.160157 29.066406 84.808594 2.3125 30.984375 2.925781 62.441406 1.828125 93.496094zm0 0"/></svg>