<svg height="511pt" viewBox="-88 1 511 511.99723" width="511pt" xmlns="http://www.w3.org/2000/svg"><path d="m62.746094 507.511719.609375-4.527344c1.433593-10.613281 2.597656-21.394531 3.457031-32.046875l.347656-4.296875 4.257813.667969c35.210937 5.523437 71.121093 8.320312 106.730469 8.320312 29.253906 0 58.871093-1.898437 88.023437-5.648437l4.074219-.519531.414062 4.085937c.988282 9.722656 2.351563 19.699219 4.050782 29.648437l.804687 4.683594zm0 0" fill="#ffbf48"/><path d="m178.171875 475.558594c-35.828125 0-71.960937-2.835938-107.394531-8.429688l-3.617188-.570312.25-3.648438c.839844-12.382812 1.300782-24.9375 1.371094-37.324218l.023438-4.652344 4.597656.726562c36.546875 5.753906 73.820312 8.671875 110.789062 8.671875 26.527344 0 53.386719-1.515625 79.832032-4.496093l4.457031-.503907-.011719 4.488281c-.027344 11.8125.460938 23.84375 1.457031 35.757813l.316407 3.808594-3.789063.492187c-29.1875 3.769532-58.886719 5.679688-88.28125 5.679688zm0 0" fill="#bc88e5"/><path d="m184.222656 430.257812c-37.414062 0-75.121094-2.984374-112.082031-8.867187l-3.34375-.53125-.027344-3.386719c-.296875-37.003906-4.058593-74.246094-11.175781-110.6875l-.480469-2.46875 2.015625-1.503906c6.859375-5.117188 14.585938-9.632812 21.402344-13.617188 2.601562-1.515624 5.378906-3.144531 8.105469-4.796874l5.261719-3.191407.777343 6.105469c.605469 4.722656 1.03125 9.367188 1.488281 14.515625.632813 7.074219 1.285157 14.363281 2.507813 21.453125 2.769531 16.050781 8.101563 28.011719 16.285156 36.5625 7.613281 7.953125 18.722657 13.574219 31.277344 15.828125 4.566406.8125 9.476563 1.226563 14.59375 1.226563 6.480469 0 13.300781-.625 20.847656-1.914063 19.109375-3.246094 33.296875-9.335937 43.375-18.605469 9.050781-8.320312 15.714844-20.019531 19.804688-34.777344 3.300781-11.890624 4.53125-23.957031 5.6875-37.367187l.59375-6.847656 5.660156 3.898437c2.980469 2.050782 6.039063 4.078125 8.914063 5.976563 7.007812 4.617187 14.253906 9.390625 20.8125 14.90625l2.050781 1.726562-.8125 2.550781c-11.914063 37.398438-18.375 76.203126-19.203125 115.332032l-.074219 3.492187-3.472656.394531c-26.71875 3.046876-53.902344 4.59375-80.789063 4.59375zm0 0" fill="#ffbf48"/><path d="m83.796875 111.769531c-4.230469-36.671875 11.164063-73.871093 38.3125-92.5625 14.101563-9.710937 31.894531-15.058593 50.101563-15.058593h.308593c18.238281.0625 36.179688 5.472656 50.53125 15.234374 28.140625 19.132813 44.09375 55.15625 39.695313 89.640626l-.503906 3.96875-3.96875-.507813c-19.003907-2.421875-38.46875-4.070313-57.847657-4.910156l-4.207031-.179688.398438-4.195312c.304687-3.179688-.097657-6.457031-1.152344-9.476563l-1.265625-3.613281 3.550781-1.421875c2.082031-.835938 3.738281-1.980469 5.066406-3.5 3.382813-3.871094 3.933594-10.0625 1.375-15.398438-6.324218-13.171874-21.433594-15.140624-29.878906-15.140624-4.113281 0-8.453125.460937-12.550781 1.332031-11.738281 2.488281-20.757813 10.265625-22.976563 19.804687-.796875 3.40625-.5625 7.863282 2.476563 10.164063 1.765625 1.34375 4.207031 1.65625 5.996093 1.882812.238282.019531.480469.050781.71875.078125l3.265626.402344.296874 3.289062 1.1875 16.632813-6.746093.398437c-1.976563.121094-3.957031.238282-5.953125.351563-2.316406.121094-15.753906 1.441406-28.816406 2.996094-10.992188 1.316406-18.398438 2.378906-22.640626 3.246093l-4.277343.875zm0 0" fill="#288fc9"/><path d="m246.757812 151.058594c-7.890624-1.261719-15.066406-6.355469-18.71875-13.296875-4.089843-7.773438-3.6875-17.976563.992188-25.40625l1.152344-2.792969 2.933594.261719c8.125.730469 16.46875 1.636719 24.796874 2.699219l3.933594.5-.46875 3.9375c-.367187 3.121093-1.351562 6.316406-2.308594 9.410156-1.0625 3.449218-2.265624 7.367187-2.445312 11.007812l-.046875.902344-.429687.796875c-.808594 1.503906-1.609376 3.042969-2.398438 4.566406-.914062 1.773438-1.898438 3.671875-2.863281 5.410157l-1.363281 2.449218zm0 0" fill="#c67045"/><path d="m185.09375 90.308594c-12.621094-.140625-25.328125-.996094-37.765625-2.539063-2.324219-.28125-4.390625-.617187-6.035156-1.871093-3-2.285157-3.230469-6.710938-2.449219-10.089844 2.519531-10.824219 13.332031-17.730469 22.933594-19.769532 4.164062-.886718 8.546875-1.355468 12.675781-1.355468 14.457031 0 25 5.375 29.683594 15.132812 2.550781 5.3125 2 11.476563-1.375 15.335938-3.980469 4.550781-10.597657 5.164062-16.546875 5.164062-.371094 0-.746094-.003906-1.121094-.007812zm0 0" fill="#c67045"/><path d="m87.929688 137.730469-.585938-.785157-.171875-.960937-3.234375-19.707031 3.703125-.8125c5.96875-1.316406 20.675781-3.101563 28.914063-4.050782l4.691406-.539062-.242188 4.71875c-.328125 6.425781-1.261718 15.921875-5.542968 24.179688-3.921876 7.554687-10.546876 13.167968-17.722657 15.019531l-3.570312.921875zm0 0" fill="#c67045"/><g fill="#ffdac4"><path d="m275.574219 507.871094-.574219-3.308594c-11.558594-66.390625-7.628906-131.8125 11.679688-194.441406l1.980468-6.441406 4.703125 4.828124c13.359375 13.710938 23.269531 33.101563 28.660157 56.078126 5.070312 21.660156 5.957031 44.140624 6.8125 65.886718l2.0625 52.039063c.351562 8.703125-.167969 17.40625-6.300782 22.054687-4.109375 3.113282-9.605468 3.375-14.886718 3.375zm0 0"/><path d="m178.882812 232.90625c-6.464843 0-13.128906-.667969-19.804687-1.980469-16.292969-3.21875-30.542969-9.808593-41.207031-19.054687-12.21875-10.582032-19.910156-24.964844-21.105469-39.460938-2.921875 1.667969-6.28125 2.5625-9.769531 2.5625-4.648438 0-9.085938-1.570312-12.484375-4.417968-6.054688-5.070313-8.449219-14.128907-5.6875-21.53125 2.367187-6.371094 8.328125-11.207032 15.183593-12.320313l3.320313-.542969 6.683594 19.277344c.015625.019531-.015625.023438-.058594.027344l.089844-.007813c8.542969-.59375 16.773437-6.59375 21.476562-15.660156 4.417969-8.519531 5.320313-18.625 5.617188-25.488281l.144531-3.4375 3.421875-.367188c7.253906-.785156 13.128906-1.34375 15.335937-1.460937 3.382813-.1875 6.75-.386719 10.09375-.585938 11.078126-.675781 21.546876-1.3125 32.457032-1.3125 2.375 0 4.730468.03125 6.992187.09375 11.355469.316407 23.042969.9375 34.75 1.84375l5.808594.445313-2.507813 5.261718c-3.445312 7.230469-3.308593 16.046876.359376 23.003907 4.164062 7.910156 12.613281 13.242187 21.539062 13.605469h.070312c1.371094-2.261719 2.738282-4.894532 4.058594-7.4375l.152344-.292969c.953125-1.851563 1.976562-3.816407 2.96875-5.609375l.46875-.84375.804688-.539063c1.886718-1.265625 4.289062-1.960937 6.765624-1.960937 2.730469 0 5.410157.828125 7.539063 2.335937 4.402344 3.109375 6.949219 8.980469 6.480469 14.957031-.410156 5.238282-2.988282 10.59375-7.257813 15.085938-3.921875 4.113281-10.855469 8.503906-18.5625 8.507812-2.410156 0-4.726562-.4375-6.886719-1.296874 1.109376 18.9375-10.453124 38.667968-28.824218 49.128906-10.867188 6.195312-24.15625 9.472656-38.425782 9.472656zm0 0"/><path d="m160.847656 376.839844c-5.121094 0-10.03125-.414063-14.605468-1.234375-12.535157-2.246094-23.628907-7.859375-31.242188-15.808594-8.175781-8.53125-13.5-20.480469-16.273438-36.527344-1.238281-7.222656-1.910156-14.785156-2.5-21.457031-.476562-5.300781-1.070312-11.898438-1.992187-18.136719l-.375-2.511719 2.117187-1.40625c4.148438-2.757812 7.628907-5.332031 10.636719-7.867187 18.441407-15.554687 22.625-34.265625 20.597657-45.5625l-1.425782-7.976563 7.199219 3.714844c7.84375 4.046875 16.617187 7.046875 26.082031 8.921875 6.703125 1.3125 13.363282 1.980469 19.792969 1.980469 12.691406 0 24.765625-2.628906 34.921875-7.601562l5.316406-2.605469.429688 5.90625c1.246094 17.078125 14.476562 34.941406 27.03125 45.066406.78125.636719 1.566406 1.230469 2.351562 1.828125l3.800782 2.910156-1.980469 3.09375c-1.148438 13.253906-2.3125 26.953125-5.9375 40.023438-4.082031 14.726562-10.734375 26.417968-19.773438 34.742187-10.089843 9.273438-24.269531 15.359375-43.351562 18.601563-7.570313 1.285156-14.378907 1.90625-20.820313 1.90625zm0 0"/><path d="m20.992188 507.4375c-3.929688-.011719-7.394532-.1875-10.089844-2.1875-3.847656-2.855469-4.449219-8.296875-4.707032-13.179688-1.742187-33.371093-3.542968-67.875 2.875-101.394531 6.480469-33.859375 21.640626-62.917969 42.6875-81.824219l5.289063-4.753906 1.316406 6.992188c11.925781 63.519531 13.570313 128.214844 4.882813 192.285156-.003906.140625-.007813.246094-.011719.351562l-.21875 3.777344zm0 0"/></g><path d="m195.195312 93.128906c-.023437-.082031-.046874-.164062-.074218-.246094l-1.007813-2.996093-3.148437.289062c-1.492188.136719-3.09375.203125-4.886719.203125-.03125 0-.058594 0-.089844 0-.28125 0-.558593 0-.894531-.007812-9.558594-.109375-19.316406-.640625-29.011719-1.574219l-4.710937-.453125 1.417968 19.886719 3.9375-.226563c8.203126-.472656 17.011719-.910156 25.835938-.910156 2.382812 0 4.742188.03125 7.046875.09375.628906.015625 1.261719.035156 1.890625.058594l5.070312.164062-.003906-4.1875c.332032-3.410156-.140625-6.890625-1.371094-10.09375zm0 0" fill="#5bd0fc"/><path d="m83.242188 105.710938-.226563-4.214844-4.199219.457031c-17.667968 1.925781-35.109375 5.753906-51.84375 11.375-3.320312 1.117187-6.476562 2.332031-8.582031 4.847656-2.082031 2.492188-2.597656 6.78125-.011719 8.960938 1.054688.882812 2.417969 1.3125 4.167969 1.3125 1.640625 0 3.386719-.378907 4.21875-.558594l57.453125-12.261719-.4375-3.625c-.238281-2-.414062-4.058594-.539062-6.292968zm0 0" fill="#5bd0fc"/><path d="m334.957031 482.347656-2.058593-52.035156c-.871094-21.964844-1.769532-44.675781-6.921876-66.652344-5.820312-24.828125-16.742187-45.542968-31.589843-59.902344-8.039063-7.773437-17.394531-13.933593-26.441407-19.894531-6.347656-4.179687-12.914062-8.503906-18.835937-13.285156-13.699219-11.0625-26.574219-30.242187-25.566406-46.253906 15.582031-10.597657 25.703125-27.691407 26.613281-44.871094 7.507812.867187 16.796875-1.609375 24.367188-9.5625 4.914062-5.164063 7.882812-11.402344 8.367187-17.5625.574219-7.371094-2.640625-14.667969-8.191406-18.59375-3.738281-2.640625-8.429688-3.566406-12.738281-2.851563.308593-1.085937.648437-2.195312.996093-3.324218 1.238281-4.035156 2.519531-8.203125 2.644531-12.410156.261719-.425782.453126-.902344.542969-1.425782 6.449219-36.796875-10.332031-76.972656-40.8125-97.703125-31.320312-21.300781-74.714843-21.367187-105.523437-.15625-15.179688 10.449219-26.902344 26.078125-33.90625 45.195313-4.28125 11.679687-6.570313 24.28125-6.796875 36.769531-18.15625 1.929687-36.125 5.839844-53.425781 11.652344-3.738282 1.257812-7.617188 2.761719-10.398438 6.082031-3.382812 4.039062-4 10.898438.472656 14.667969 2.101563 1.773437 4.601563 2.277343 6.867188 2.277343 1.984375 0 3.792968-.386718 4.992187-.644531l52.914063-11.292969 2.011718 12.285157c-7.777343 1.597656-14.746093 7.285156-17.527343 14.753906-3.335938 8.964844-.4375 19.925781 6.898437 26.066406 5.839844 4.890625 14.203125 6.472657 21.527344 4.457031 2.527344 13.664063 10.269531 26.84375 21.773438 36.8125 2.003906 1.734376 4.125 3.375 6.355468 4.925782-.09375.65625-.042968 1.34375.214844 2.007812 4.632812 11.972656.929688 31.121094-17.789062 46.902344-7.726563 6.511719-16.765626 11.796875-25.507813 16.90625-7.828125 4.574219-15.921875 9.300781-23.300781 15.003906-24.992188 19.304688-42.785156 50.992188-50.105469 89.222656-6.503906 33.957032-4.691406 68.730469-2.9375 102.363282.21875 4.1875.625 11.980468 6.339844 16.230468 3.996093 2.96875 8.910156 2.980469 12.5 2.988282l288.117187.5h.730469c5.152344 0 11.914063-.171875 17.21875-4.191406 8.660156-6.554688 8.15625-19.324219 7.910156-25.457032zm-102.519531-367.894531c.132812-.207031.234375-.425781.324219-.644531 8.25.746094 16.476562 1.644531 24.652343 2.679687-.324218 2.699219-1.21875 5.625-2.164062 8.699219-1.199219 3.898438-2.425781 7.925781-2.617188 11.992188-.820312 1.515624-1.636718 3.078124-2.429687 4.617187-.925781 1.789063-1.875 3.621094-2.808594 5.3125-6.566406-1.046875-12.722656-5.34375-15.8125-11.207031-3.453125-6.558594-3.109375-15.179688.855469-21.449219zm-108.058594-91.949219c13.453125-9.261718 30.425782-14.355468 47.828125-14.355468h.316407c17.441406.0625 34.585937 5.226562 48.277343 14.535156 26.894531 18.292968 42.152344 53.128906 37.980469 85.835937-19.226562-2.449219-38.734375-4.097656-58.175781-4.9375.359375-3.773437-.113281-7.613281-1.367188-11.1875 2.46875-.988281 4.726563-2.441406 6.585938-4.574219 4.425781-5.0625 5.21875-13.003906 1.976562-19.757812-8.347656-17.390625-30.464843-19.484375-46.871093-15.996094-13.25 2.816406-23.472657 11.773438-26.042969 22.816406-1.078125 4.625-.601563 10.796876 3.957031 14.257813 2.644531 2.003906 5.859375 2.402344 7.988281 2.664063.238281.027343.476563.054687.714844.082031l.902344 12.59375c-2.871094.171875-5.742188.347656-8.640625.503906-2.421875.132813-16.039063 1.472656-29.070313 3.027344-12.03125 1.441406-18.917969 2.464843-22.96875 3.300781-4.027343-34.9375 10.632813-70.925781 36.609375-88.808594zm60.761719 63.808594c-12.4375-.140625-24.992187-.984375-37.320313-2.507812-1.746093-.214844-3.257812-.445313-4.101562-1.085938-1.390625-1.054688-1.484375-3.851562-.980469-6.007812 2.121094-9.109376 11.507813-14.984376 19.867188-16.761719 13.542969-2.875 31.605469-1.570313 37.929687 11.601562 1.835938 3.828125 1.515625 8.339844-.78125 10.96875-3.007812 3.445313-8.8125 3.859375-14.613281 3.792969zm-28.644531 17.695312-.800782-11.230468c9.75.945312 19.585938 1.484375 29.351563 1.597656.34375.003906.683594.003906 1.03125.003906 1.730469 0 3.496094-.054687 5.253906-.21875.027344.089844.039063.183594.074219.273438 1.070312 2.710937 1.46875 5.675781 1.160156 8.574218-.011718.09375 0 .183594 0 .273438-.960937-.027344-1.921875-.070312-2.878906-.097656-11.289062-.308594-22.0625.179687-33.191406.824218zm-65.378906 31.328126-2.617188-15.960938c4.945312-1.097656 17.117188-2.679688 28.511719-3.988281-.367188 7.058593-1.425781 15.449219-5.101563 22.539062-3.425781 6.609375-9.164062 11.445313-15.175781 12.992188l-5.023437-14.496094c-.136719-.40625-.351563-.761719-.59375-1.085937zm-65.183594-11.355469c-1.109375.238281-4.058594.867187-4.980469.089843-.558594-.472656-.40625-2.238281.511719-3.332031 1.4375-1.714843 4.027344-2.6875 6.785156-3.613281 16.519531-5.554688 33.667969-9.308594 50.996094-11.199219.121094 2.199219.308594 4.386719.5625 6.558594zm74.816406 48.097656c-.113281-1.382813-.933594-2.609375-2.167969-3.246094-1.230469-.640625-2.703125-.597656-3.898437.105469-5.394532 3.183594-12.796875 2.578125-17.601563-1.441406-4.800781-4.023438-6.703125-11.199219-4.515625-17.070313 1.894532-5.085937 6.746094-8.90625 12.082032-9.773437l5.578124 16.097656c.5625 1.632812 2.097657 2.710938 3.804688 2.710938.09375 0 .191406-.003907.285156-.007813 9.929688-.699219 19.417969-7.523437 24.753906-17.816406 4.609376-8.890625 5.714844-19.007813 6.054688-27.15625 7.148438-.769531 13.03125-1.332031 15.125-1.445313 3.398438-.183594 6.769531-.390625 10.125-.589844 13.339844-.804687 25.941406-1.5625 39.09375-1.203124 11.496094.316406 23.039062.933593 34.554688 1.828124-3.964844 8.304688-3.878907 18.40625.429687 26.589844 4.828125 9.171875 14.636719 15.347656 24.996094 15.738282.046875 0 .097656.003906.152343.003906 1.414063 0 2.726563-.742188 3.457032-1.964844 1.457031-2.4375 2.90625-5.230469 4.304687-7.933594.960938-1.859375 1.945313-3.757812 2.917969-5.503906 2.667969-1.792969 6.875-1.730469 9.765625.3125 3.277344 2.320312 5.164063 6.789062 4.804687 11.386719-.335937 4.320312-2.527343 8.808593-6.167968 12.636719-4.871094 5.113281-13.539063 9.257812-21.078125 6.257812-1.28125-.511719-2.738281-.332031-3.855469.476562-1.117188.8125-1.742188 2.136719-1.65625 3.511719 1.0625 17.417969-9.691406 35.652344-26.765625 45.382813-15.113281 8.609375-34.820313 11.105468-55.476563 7.03125-15.601562-3.074219-29.210937-9.351563-39.359374-18.144532-11.433594-9.90625-18.628907-23.308593-19.742188-36.773437zm8.4375 102.867187c13.984375-11.789062 25.265625-30.90625 21.964844-49.324218 8.136718 4.191406 17.28125 7.34375 27.136718 9.285156 6.984376 1.378906 13.878907 2.058594 20.574219 2.058594 13.34375 0 25.878907-2.714844 36.675781-8.007813 1.320313 18.097657 14.925782 36.925781 28.507813 47.890625 1.085937.875 2.203125 1.714844 3.316406 2.558594-.347656.53125-.585937 1.144531-.644531 1.820312-1.109375 13.074219-2.257812 26.59375-5.773438 39.289063-3.882812 14.003906-10.152343 25.0625-18.640624 32.867187-9.496094 8.734376-23.007813 14.492188-41.304688 17.601563-13.085938 2.222656-24.226562 2.445313-34.050781.683594-11.714844-2.097657-22.035157-7.296875-29.058594-14.640625-7.617187-7.953125-12.59375-19.21875-15.21875-34.441406-1.195313-6.9375-1.839844-14.152344-2.464844-21.132813-.539062-6.019531-1.105469-12.230469-2.015625-18.367187 3.789063-2.515626 7.496094-5.1875 10.996094-8.140626zm-26.636719 17.703126c2.703125-1.578126 5.4375-3.183594 8.160157-4.832032.605468 4.78125 1.042968 9.628906 1.46875 14.359375.640624 7.136719 1.300781 14.519531 2.550781 21.785157 2.90625 16.851562 8.574219 29.496093 17.335937 38.644531 8.199219 8.566406 20.082032 14.605469 33.460938 17 4.820312.867187 9.902344 1.296875 15.304687 1.296875 6.648438 0 13.78125-.652344 21.519531-1.96875 19.878907-3.378906 34.734376-9.792969 45.414063-19.613282 9.609375-8.839843 16.65625-21.167968 20.949219-36.648437 3.472656-12.53125 4.730468-25.484375 5.8125-38.089844 2.996094 2.058594 6.011718 4.058594 8.988281 6.015625 7.234375 4.765625 14.144531 9.339844 20.433594 14.628906-12.074219 37.9375-18.542969 76.882813-19.390625 116.464844-63.839844 7.28125-128.335938 5.84375-191.789063-4.253906-.296875-37.3125-4.050781-74.558594-11.25-111.414062 6.609375-4.933594 13.929688-9.222657 21.03125-13.375zm101.644531 141.683593c26.785157 0 53.585938-1.515625 80.269532-4.519531-.023438 11.980469.46875 24.019531 1.472656 36.101562-64.6875 8.359376-130.117188 7.433594-194.535156-2.730468.84375-12.519532 1.304687-25.046875 1.371094-37.570313 36.90625 5.804688 74.148437 8.71875 111.421874 8.71875zm-113.390624 36.925781c35.574218 5.578126 71.449218 8.375 107.34375 8.375 29.554687 0 59.121093-1.898437 88.53125-5.6875 1.011718 9.949219 2.378906 19.925782 4.085937 29.925782l-203.441406-.355469c1.449219-10.742187 2.605469-21.496094 3.480469-32.257813zm-57.515626 30.78125c-2.464843-1.832031-2.890624-6.214843-3.097656-10.179687-1.726562-33.152344-3.515625-67.429687 2.804688-100.425781 6.375-33.289063 20.980468-61.238282 41.433594-79.605469 11.859374 63.152344 13.488281 127.433594 4.832031 191.160156-.023438.175781-.015625.34375-.015625.515625l-38.25-.070312c-3.199219-.003906-5.984375-.113282-7.707032-1.394532zm308.890626-.65625c-3.140626 2.375-7.765626 2.574219-13.070313 2.554688l-30.167969-.054688c-11.453125-65.785156-7.554687-130.550781 11.5625-192.589843 12.855469 13.207031 22.390625 31.878906 27.621094 54.207031 4.976562 21.226562 5.863281 43.546875 6.71875 65.132812l2.058594 52.03125c.300781 7.632813-.058594 15.183594-4.722656 18.71875zm0 0"/></svg>