<svg height="511pt" viewBox="-93 0 511 511.99828" width="511pt" xmlns="http://www.w3.org/2000/svg"><path d="m306.601562 507.929688-38.71875-.367188.066407-4.027344c.445312-26.203125 3.648437-52.410156 9.511719-77.890625-5.925782 25.464844-9.125 51.695313-9.570313 77.945313l-.066406 3.96875-209.019531-2 .445312-4.367188c2.902344-28.269531 2.445312-56.847656-1.351562-84.933594 3.769531 28.414063 4.199218 57.234376 1.210937 85.683594l-.382813 3.613282-41.722656-.390626c-2.214844-.027343-4.675781-.058593-6.71875-1.203124-3.953125-2.210938-4.710937-7.503907-4.929687-12.390626-.820313-19.316406-1.664063-39.257812 1.125-58.714843 3.160156-21.980469 10.566406-40.054688 22.015625-53.710938 8.515625-10.167969 19.046875-17.835937 32.238281-26.226562l2.671875-1.699219 2.265625 2.210938c27.0625 26.394531 56.210937 51.058593 86.628906 73.3125 3.867188 2.832031 7.410157 5.195312 11.597657 5.46875.234374.011718.507812.023437.773437.023437 5.089844 0 9.78125-3.199219 13.207031-5.535156 33.386719-22.734375 66.378906-46.929688 98.058594-71.90625l2.460938-1.941407 2.472656 1.925782c3.652344 2.847656 6.777344 5.585937 9.550781 8.375 18.414063 18.53125 25.78125 43.515625 28.71875 61.207031 3.765625 22.742187 2.785156 46.039063 1.839844 68.570313-.210938 5.160156-.910157 10.304687-4.566407 12.980468-2.550781 1.871094-5.914062 2.027344-8.867187 2.027344zm0 0" fill="#94c668"/><path d="m66.367188 285.652344c.671874-2.335938 1.945312-5.457032 2.707031-7.320313l.121093-.300781c.683594-1.636719 1.3125-3.160156 1.542969-4.007812 1.542969-5.765626 2.496094-11.4375 2.839844-16.855469 1-15.917969-.964844-31.539063-3.019531-44.71875-.644532-4.175781-1.359375-8.429688-2.050782-12.539063l-.300781-1.785156c-2.789062-16.445312-5.675781-33.457031-5.65625-50.507812.042969-26.855469 8.601563-50.070313 24.753907-67.144532 11.925781-12.597656 28.722656-21.753906 47.296874-25.792968 7.800782-1.695313 16.015626-2.558594 24.414063-2.558594 9.613281 0 19.65625 1.128906 29.847656 3.351562 19.8125 4.328125 36.457031 12 49.472657 22.800782 14.894531 12.347656 24.800781 29.242187 27.175781 46.355468 2.0625 14.871094-1.105469 29.1875-4.464844 44.347656-1.859375 8.402344-3.785156 17.09375-4.664063 25.789063-.855468 8.460937-.714843 17.117187-.578124 25.488281l.007812.359375c.125 6.667969.265625 14.230469-.207031 21.59375-.714844 10.914063-2.953125 20.457031-6.648438 28.367188l-7.601562-2.097657c2.011719-19.96875-.394531-40.394531-6.957031-59.070312l-.558594-1.59375.75-1.511719c2.574218-5.191406 3.542968-10.953125 2.730468-16.230469-.132812-.882812-.484374-3.195312-2.078124-4.371093-.125-.089844-.242188-.160157-.359376-.226563l-1.261718-.738281-.488282-1.378906c-14.835937-16.199219-18.757812-41.484375-9.519531-61.457031-16.464843 7.304687-33.441406 14.898437-51.734375 16.683593-2.4375.238281-4.898437.359375-7.3125.359375-17.515625 0-32.917968-6.351562-42.253906-17.433594 4.585938 24.527344-7.144531 51.007813-27.953125 62.976563l-.109375 1.105469-.671875.917968c-.9375 1.265626-1.1875 2.925782-1.28125 3.550782-.804687 5.238281.144531 10.957031 2.667969 16.113281l.929687 1.894531-1.042969 1.835938c-3.707031 6.527344-3.1875 16.445312-2.726562 25.195312.1875 3.425782.328125 6.253906.277344 8.820313-.191406 9.046875-.976563 19.574219-5.347656 29.089843-1.667969 3.613282-9.710938 14.046876-14.742188 17.152344l-8.808594 5.441406zm0 0" fill="#d34242"/><path d="m197.609375 57.601562c-3.054687-.855468-5.910156-1.574218-8.734375-2.191406-10.195312-2.226562-20.238281-3.355468-29.855469-3.355468-8.398437 0-16.621093.863281-24.4375 2.566406-.417969.089844-.851562.195312-1.28125.300781l-4.425781 1.042969-1.035156-3.691406c-6.441406-11.199219-3.554688-27.5625 6.585937-37.277344 7.230469-6.953125 17.917969-10.941406 29.324219-10.941406 2.878906 0 5.777344.257812 8.617188.757812 12.582031 2.230469 23.222656 8.886719 29.191406 18.261719 6.617187 10.367187 6.796875 23.605469.4375 32.929687l-1.617188 2.378906zm0 0" fill="#d34242"/><path d="m164.675781 432.167969c-.257812 0-.515625-.007813-.773437-.023438-4.167969-.269531-7.703125-2.628906-11.5625-5.453125-29.8125-21.808594-58.480469-46.015625-85.214844-71.949218l-3.53125-3.425782 4.324219-2.925781.105469-.050781.800781-.503906c3.296875-2.066407 6.703125-4.203126 10.023437-6.378907l2.558594-1.679687 2.289062 2.03125c24.425782 21.664062 49.863282 42.472656 75.609376 61.84375 2.003906 1.515625 4.734374 3.578125 7.808593 3.578125h.296875c2.835938-.128907 5.386719-2.09375 7.25-3.527344l79.992188-61.78125c.019531-.027344 2.238281-3.125 2.238281-3.125l3.179687 1.976563c5.257813 3.265624 9.621094 6.03125 13.832032 8.917968l4.492187 3.078125-4.28125 3.367188c-31.152343 24.5-63.539062 48.21875-96.261719 70.5-4.285156 2.917969-8.515624 5.53125-13.175781 5.53125zm0 0" fill="#cbe580"/><path d="m164.378906 356.339844c-2.332031 0-4.65625-.308594-6.902344-.917969-6.507812-1.761719-13.429687-6.871094-14.222656-14.316406-.898437-8.539063 5.796875-19 19.980469-21.578125 1.609375-.296875 3.230469-.445313 4.8125-.445313 9.074219 0 15.765625 4.878907 17.902344 13.046875 1.808593 6.9375-1.191407 15.019532-7.300781 19.660156-3.867188 2.933594-8.933594 4.550782-14.269532 4.550782zm0 0" fill="#ffbf48"/><path d="m202.566406 224.40625c-8.671875 0-16.753906-3.203125-22.167968-8.789062-4.65625-4.816407-6.953126-11.046876-6.644532-18.023438.636719-14.375 14.554688-14.65625 24.714844-14.863281 1.433594-.027344 2.871094-.050781 4.3125-.050781 9.683594 0 19.484375.683593 29.132812 2.027343l.320313.050781c1.019531.15625 1.679687.269532 2.359375.613282l.527344.265625.425781.40625c.886719.84375 1.410156 2.089843 1.707031 4.039062 1.34375 8.730469-2.128906 18.21875-9.0625 24.757813-6.347656 5.964844-15.480468 9.449218-25.058594 9.5625zm0 0" fill="#5b5d6d"/><path d="m126.519531 224.402344c-9.621093-.113282-18.753906-3.597656-25.097656-9.558594-6.941406-6.542969-10.410156-16.035156-9.066406-24.769531.101562-.675781.234375-1.273438.402343-1.8125v-1.609375l2.039063-1.148438c.78125-.4375 1.628906-.597656 2.652344-.753906l.152343-.027344c9.71875-1.359375 19.5-2.042968 29.167969-2.042968 1.457031 0 2.914063.023437 4.375.054687 10.15625.203125 24.070313.488281 24.710938 14.859375.308593 6.976562-1.988281 13.207031-6.644531 18.019531-5.410157 5.585938-13.542969 8.789063-22.3125 8.789063zm0 0" fill="#5b5d6d"/><g fill="#ffdac4"><path d="m166.820312 401.394531c.175782-6.40625-.371093-12.804687-1.621093-19.015625 1.183593 6.199219 1.726562 12.550782 1.558593 18.890625l-.195312 7.476563-6.109375-4.316406c-.292969-.207032-.578125-.421876-.875-.640626l-.222656-.167968c-25.328125-19.070313-50.238281-39.417969-74.0625-60.492188l-3.824219-3.382812 4.507812-3.117188c.132813-.089844.265626-.175781.394532-.269531 11.46875-8.152344 20.382812-17.15625 26.519531-26.777344l1.832031-2.875 3.128906 1.351563c10.242188 4.433594 21.191407 7.335937 32.535157 8.628906l10.714843 1.222656-8.921874 6.0625c-3.761719 2.554688-9.933594 8.179688-8.980469 17.136719.792969 7.46875 7.734375 12.601563 14.261719 14.371094 2.3125.625 4.667968.941406 6.992187.941406 5.28125 0 10.335937-1.625 14.234375-4.578125 6.125-4.652344 9.136719-12.769531 7.324219-19.734375-.972657-3.714844-2.871094-6.75-5.648438-9.019531l-6.933593-5.664063 8.84375-1.386719c11.21875-1.753906 21.972656-5.082031 31.96875-9.882812-.007813 0 .039062-.03125.082031-.066406l3.328125-2.320313 2.273437 3.359375c4.859375 7.175782 11.363281 13.855469 19.324219 19.855469 4.6875 3.527344 9.582031 6.703125 13.753906 9.347656l4.820313 3.054688-83.195313 64.25c-.484375.378906-.972656.75-1.449218 1.097656l-6.574219 4.792969zm0 0"/><path d="m164.777344 288.125c-10.179688 0-20.578125-2.175781-30.070313-6.292969-17.003906-7.371093-31.667969-20.964843-41.289062-38.277343l-.945313-1.054688-.03125-1.484375c-.035156-1.835937-.132812-3.769531-.246094-5.925781-.339843-6.242188-.761718-14.023438.753907-20.105469l1.8125-7.269531 5.03125 5.550781c.554687.609375 1.074219 1.136719 1.582031 1.613281 6.359375 5.984375 15.507812 9.472656 25.101562 9.582032 0 0 .273438.011718.3125.011718h.113282c8.785156 0 16.933594-3.214844 22.355468-8.8125 3.617188-3.746094 5.792969-8.257812 6.46875-13.410156l.417969-3.1875 17.257813-1.484375.390625 3.925781c.542969 5.453125 2.753906 10.21875 6.566406 14.15625 5.414063 5.601563 13.5625 8.8125 22.351563 8.8125.039062 0 .191406 0 .230468-.003906l.195313-.007812c9.597656-.109376 18.742187-3.597657 25.09375-9.574219.441406-.414063.863281-.832031 1.273437-1.261719l4.75-4.964844 1.96875 6.585938c1.859375 6.210937 3.285156 12.605468 4.234375 19.007812l.320313 2.136719s-1.671875 1.488281-1.703125 1.515625c-10.921875 16.46875-26.269531 36.421875-48.535157 45.347656-8.066406 3.230469-16.734374 4.871094-25.761718 4.871094zm0 0"/><path d="m155.691406 195.304688c-1.773437-11.226563-13.097656-12.398438-24.542968-12.632813-1.4375-.03125-2.871094-.046875-4.308594-.046875-6.195313 0-12.542969.289062-18.871094.859375l-11.246094 1.015625 8.101563-7.867188c11.742187-11.402343 18.65625-28.191406 18.496093-44.902343l-.074218-8.015625 6.449218 4.757812c9.210938 6.796875 21.609376 10.539063 34.914063 10.539063h.003906c2.394531 0 4.84375-.121094 7.277344-.359375 15.25-1.496094 29.738281-7.097656 43.121094-12.929688l7.59375-3.304687-2.128907 8c-4.238281 15.9375-1.253906 33.558593 7.980469 47.132812l4.84375 7.125-8.566406-.898437c-7.335937-.765625-14.726563-1.152344-21.960937-1.152344-1.4375 0-2.875.015625-4.308594.046875-11.1875.222656-22.289063 1.324219-24.414063 11.917969l-.644531 3.210937h-3.351562l-13.785157 1.183594zm0 0"/><path d="m163.917969 317.414062c-15.570313 0-31.21875-3.136718-45.253907-9.066406l-3.886718-1.644531 1.847656-3.792969c3.402344-6.980468 5.1875-14.03125 5.308594-20.957031l.113281-6.65625 5.824219 3.226563c2.277344 1.261718 4.570312 2.394531 6.8125 3.371093 9.484375 4.113281 19.890625 6.289063 30.085937 6.289063 9.054688 0 17.734375-1.640625 25.792969-4.875 4.699219-1.882813 9.351562-4.375 13.820312-7.40625l6.347657-4.304688-.101563 7.667969c-.089844 6.980469 1.738282 14.179687 5.441406 21.394531l2.984376 5.824219h-5.652344c-15.195313 7.152344-32.285156 10.929687-49.484375 10.929687zm0 0"/></g><path d="m323.144531 423.695312c-4.34375-26.207031-14.664062-48.132812-29.84375-63.410156-9.433593-9.496094-20.824219-16.582031-31.835937-23.433594-6.644532-4.132812-13.515625-8.40625-19.773438-13.117187-19.121094-14.386719-29.082031-32.644531-26.648437-48.839844.105469-.6875.007812-1.351562-.210938-1.960937 9.140625-7.816406 16.667969-17.082032 22.929688-25.921875.714843 12.550781-.320313 25.203125-3.148438 37.347656-.402343 1.726563.371094 3.511719 1.902344 4.402344s3.460937.675781 4.761719-.527344c5.878906-5.4375 10.445312-12.578125 13.570312-21.226563 2.59375-7.183593 4.210938-15.433593 4.804688-24.53125.476562-7.351562.347656-14.769531.222656-21.9375-.144531-8.371093-.292969-17.023437.546875-25.363281.851563-8.410156 2.753906-17.003906 4.59375-25.320312 3.285156-14.851563 6.683594-30.210938 4.523437-45.785157-2.511718-18.097656-12.941406-35.933593-28.609374-48.929687-9.617188-7.980469-21.121094-14.296875-34.316407-18.894531 5.847657-10.378906 5.3125-24.480469-1.632812-35.367188-6.589844-10.328125-18.214844-17.644531-31.902344-20.066406-15.5-2.746094-31.390625 1.566406-41.476563 11.246094-11.34375 10.894531-14.585937 28.472656-7.765624 41.328125-15.402344 4.976562-29.175782 13.398437-39.480469 24.292969-16.878907 17.835937-25.824219 42.015624-25.867188 69.921874-.027343 17.316407 2.890625 34.542969 5.710938 51.199219.789062 4.679688 1.609375 9.519531 2.347656 14.265625 2.015625 12.988282 3.945313 28.351563 2.96875 43.847656-.320313 5.15625-1.234375 10.558594-2.707031 16.054688-.15625.582031-.796875 2.132812-1.359375 3.5-3.210938 7.78125-4.980469 12.746094-2.503907 16.0625 1.414063 1.898438 3.421876 2.910156 5.714844 2.910156.277344 0 .558594-.011718.847656-.042968 9.191407-.96875 20.515626-19.121094 21.234376-20.691407 2.953124-6.414062 4.378906-13.328125 5.074218-19.789062 6.144532 8.59375 13.566406 16.019531 21.878906 21.921875-.015624.222656-.023437.449218 0 .679687 2.640626 26.640625-22.652343 47.691407-33.652343 55.507813-5.886719 4.183594-12.214844 8.136718-18.332031 11.957031-14.335938 8.953125-29.160157 18.214844-40.335938 31.550781-11.945312 14.257813-19.65625 33.011719-22.914062 55.734375-2.847657 19.847657-1.992188 39.984375-1.164063 59.460938.15625 3.628906.515625 12.136719 6.996094 15.773437 2.960937 1.660156 6.257812 1.691406 8.667969 1.714844l289.601562 2.773438c.363281.003906.75.007812 1.15625.007812 3.242188 0 7.582031-.246094 11.085938-2.8125 5.738281-4.195312 6.058593-11.9375 6.234374-16.097656.949219-22.757813 1.933594-46.296875-1.894531-69.394532zm-191.835937-373.445312c-5.566406-9.644531-2.984375-23.863281 5.878906-32.371094 8.261719-7.933594 21.476562-11.425781 34.488281-9.125 11.46875 2.03125 21.132813 8.03125 26.511719 16.464844 5.71875 8.96875 5.898438 20.628906.503906 28.535156-2.917968-.824218-5.902344-1.582031-8.964844-2.25-19.746093-4.3125-38.585937-4.578125-55.992187-.792968-.6875.148437-1.363281.320312-2.046875.484374-.089844-.324218-.203125-.644531-.378906-.945312zm-42.90625 193.59375c-.179688 8.625-.910156 18.640625-4.980469 27.492188-1.4375 3.125-9.046875 12.855468-13.207031 15.425781.648437-2.265625 2.003906-5.550781 2.691406-7.214844.785156-1.902344 1.402344-3.40625 1.691406-4.492187 1.613282-6.011719 2.609375-11.945313 2.96875-17.636719 1.023438-16.265625-.96875-32.171875-3.050781-45.585938-.746094-4.800781-1.570313-9.667969-2.363281-14.375-2.765625-16.328125-5.625-33.210937-5.597656-49.839843.039062-25.8125 8.21875-48.078126 23.65625-64.394532 11.371093-12.011718 27.433593-20.761718 45.238281-24.632812 16.265625-3.535156 33.953125-3.273438 52.558593.792968 19.183594 4.183594 35.253907 11.578126 47.777344 21.964844 14.136719 11.726563 23.53125 27.703125 25.769532 43.832032 1.960937 14.140624-1.132813 28.125-4.410157 42.9375-1.890625 8.539062-3.84375 17.371093-4.742187 26.246093-.890625 8.816407-.734375 17.714844-.585938 26.3125.121094 7.011719.246094 14.257813-.210937 21.28125-.753907 11.597657-3.203125 20.351563-6.273438 26.925781 2.058594-20.453124-.378906-41.503906-7.160156-60.804687 2.898437-5.84375 4.054687-12.386719 3.101563-18.617187-.183594-1.195313-.734376-4.824219-3.660157-6.980469-.234375-.171875-.472656-.324219-.710937-.460938-.175782-.476562-.4375-.925781-.800782-1.324219-13.792968-15.078124-17.4375-38.5625-8.859374-57.113281.703124-1.523437.390624-3.328125-.789063-4.523437-1.183594-1.195313-2.984375-1.535156-4.515625-.847656-16.128906 7.210937-32.808594 14.667968-50.445312 16.394531-19.039063 1.867187-36.28125-3.996094-46.121094-15.675781-1.179688-1.402344-3.15625-1.832032-4.816406-1.042969-1.652344.785156-2.570313 2.589843-2.226563 4.390625 4.335937 22.886718-6.585937 47.59375-25.964844 58.75-1.175781.675781-1.875 1.855468-1.996093 3.109375-1.507813 2.027343-1.886719 4.402343-2.027344 5.324219-.945313 6.183593.191406 12.667968 3.035156 18.476562-4.277344 7.535156-3.730469 18.066406-3.238281 27.375.160156 3.105469.316406 6.039062.265625 8.53125zm81.730468-50.046875c-.046874.003906-.089843-.003906-.136718 0l-10.359375.890625c-2.4375-15.46875-19.179688-15.828125-28.40625-16.019531-7.851563-.164063-15.757813.121093-23.625.832031 12.503906-12.140625 19.886719-29.898438 19.710937-47.804688 11.667969 8.601563 27.738282 12.628907 44.960938 10.933594 15.710937-1.539062 30.28125-7.117187 44.332031-13.238281-4.511719 16.957031-1.328125 35.902344 8.542969 50.414063-8.902344-.933594-17.878906-1.324219-26.773438-1.136719-9.042968.1875-25.316406.535156-28.246094 15.128906zm-73.824218-3.117187c.203125-1.328126.46875-1.6875.453125-1.691407.25-.140625 1.117187-.261719 1.488281-.3125 10.859375-1.519531 21.898438-2.175781 32.8125-1.945312 13.769531.285156 20.394531 2.011719 20.796875 11.039062.261719 5.847657-1.648437 11.058594-5.523437 15.0625-4.667969 4.824219-11.730469 7.570313-19.433594 7.570313-.128906 0-.253906 0-.378906 0-8.597657-.101563-16.746094-3.1875-22.359376-8.472656-5.988281-5.636719-9-13.78125-7.855468-21.25zm102.238281-3.949219c1.410156-.03125 2.824219-.046875 4.238281-.046875 9.527344 0 19.117188.667968 28.574219 1.992187.375.050781 1.25.175781 1.433594.265625.011719.015625.296875.347656.507812 1.738282 1.144531 7.46875-1.867187 15.613281-7.855469 21.25-5.613281 5.285156-13.765624 8.371093-22.359374 8.472656-7.832032.132812-15.070313-2.667969-19.8125-7.570313-3.875-4.003906-5.785157-9.214843-5.523438-15.0625.402344-9.027343 7.027344-10.753906 20.796875-11.039062zm-101.636719 54.871093c-.132812-.246093-.292968-.46875-.464844-.671874-.046874-1.925782-.148437-3.941407-.257812-6.046876-.34375-6.433593-.707031-13.523437.644531-18.933593.582031.636719 1.175781 1.257812 1.804688 1.851562 7.070312 6.652344 17.199219 10.539063 27.792969 10.664063.15625 0 .3125.003906.46875.003906 9.878906-.003906 19.054687-3.644531 25.234374-10.03125 4.222657-4.363281 6.78125-9.707031 7.558594-15.664062l10.121094-.871094c.632812 6.308594 3.238281 11.957031 7.667969 16.535156 6.179687 6.390625 15.351562 10.03125 25.230469 10.03125.15625 0 .316406-.003906.46875-.003906 10.59375-.125 20.722656-4.011719 27.792968-10.664063.488282-.457031.957032-.929687 1.414063-1.414062 1.808593 6.027343 3.179687 12.203125 4.109375 18.457031-.265625.234375-.519532.492188-.726563.804688-10.574219 15.953124-25.4375 35.359374-46.722656 43.890624-16.371094 6.5625-35.597656 6.0625-52.75-1.375-16.191406-7.023437-30.183594-20.007812-39.386719-36.5625zm36.179688 43.960938c10.164062 4.410156 21 6.621094 31.683594 6.621094 9.398437 0 18.679687-1.714844 27.273437-5.160156 5.226563-2.09375 10.074219-4.753907 14.578125-7.808594-.097656 7.695312 1.945312 15.589844 5.890625 23.265625-.011719.003906-.023437.007812-.03125.011719-28.660156 13.773437-62.992187 14.542968-92.261719 2.167968 3.632813-7.472656 5.582032-15.097656 5.703125-22.640625 2.339844 1.296875 4.726563 2.484375 7.164063 3.542969zm43.136718 63.042969c-4.648437 3.523437-11.429687 4.652343-17.703124 2.953125-5.023438-1.359375-10.699219-5.347656-11.289063-10.875-.71875-6.738282 4.898437-15.066406 16.71875-17.226563 7.203125-1.316406 15.734375.539063 18.125 9.683594 1.390625 5.332031-1.070313 11.835937-5.851563 15.464844zm-59.96875-36.871094c10.730469 4.632813 22.105469 7.609375 33.667969 8.933594-6.851562 4.652343-11.660156 11.933593-10.710937 20.867187.996094 9.347656 9.355468 15.679688 17.199218 17.804688 2.664063.722656 5.371094 1.078125 8.035157 1.078125 6.101562 0 11.992187-1.855469 16.652343-5.390625 7.382813-5.601563 10.992188-15.4375 8.777344-23.921875-1.207031-4.628907-3.664062-8.390625-6.988281-11.121094 11.429687-1.785156 22.613281-5.191406 33.085937-10.226563.230469-.109374.441407-.242187.636719-.386718 5.019531 7.410156 11.832031 14.484375 20.234375 20.808594 4.519532 3.398437 9.265625 6.527343 14.011719 9.53125l-78.671875 60.765624c-.46875.359376-.925781.707032-1.367188 1.023438.183594-6.671875-.375-13.347656-1.695312-19.90625-.4375-2.183594-2.5625-3.597656-4.75-3.15625-2.179688.4375-3.59375 2.566406-3.15625 4.746094 1.195312 5.921875 1.703125 11.949218 1.542969 17.976562-.335938-.242187-.675781-.492187-1.015625-.75-25.28125-19.03125-50.082032-39.300781-73.800782-60.277344.253907-.175781.519532-.347656.769532-.53125 11.929687-8.476562 21.222656-17.960937 27.542968-27.867187zm-35.214843 33.0625c24.347656 21.605469 49.851562 42.480469 75.851562 62.054687 2.332031 1.757813 5.824219 4.382813 10.210938 4.382813.128906 0 .253906 0 .382812-.007813 4.152344-.144531 7.445313-2.6875 9.625-4.371093l80.023438-61.804688c.328125-.253906.589843-.558593.820312-.882812 4.707031 2.925781 9.289063 5.808593 13.679688 8.828125-31.089844 24.441406-63.378907 48.097656-96.039063 70.335937-3.933594 2.675781-7.753906 5.058594-11.433594 4.824219-3.09375-.203125-6.117187-2.242188-9.460937-4.691406-29.789063-21.796875-58.292969-45.882813-84.789063-71.59375.023438-.015625.042969-.03125.066407-.042969 3.65625-2.285156 7.375-4.621094 11.0625-7.03125zm235.941406 147.960937c-.175781 4.164063-.652344 8.253907-2.9375 9.925782-1.648437 1.203125-4.332031 1.28125-7.40625 1.246094l-34.6875-.332032c.441406-25.902344 3.597656-51.8125 9.410156-77.058594.496094-2.171874-.855469-4.335937-3.027343-4.835937-2.164063-.496094-4.335938.855469-4.832032 3.027344-5.941406 25.8125-9.167968 52.304687-9.613281 78.789062l-200.660156-1.917969c2.929687-28.550781 2.476562-57.433593-1.375-85.875-.296875-2.210937-2.335938-3.753906-4.535157-3.457031-2.207031.296875-3.75 2.332031-3.453124 4.535157 3.796874 28.0625 4.21875 56.558593 1.265624 84.71875l-38.09375-.363282c-1.707031-.019531-3.640624-.035156-4.796874-.6875-2.269532-1.273437-2.734376-5.523437-2.886719-9.085937-.8125-19.105469-1.652344-38.867188 1.089843-57.96875 3.042969-21.21875 10.148438-38.613281 21.113282-51.707031 8.636718-10.304688 19.558594-17.9375 31.320312-25.421876 27.164063 26.488282 56.445313 51.28125 87.066406 73.683594 4.21875 3.085938 8.4375 5.882813 13.695313 6.226563.34375.023437.6875.03125 1.027344.03125 6.304687 0 11.78125-3.726563 15.46875-6.234375 33.4375-22.769532 66.488281-47.007813 98.273437-72.0625 3.210938 2.496094 6.292969 5.132812 9.171875 8.03125 17.679688 17.792968 24.773438 41.929687 27.609375 59.046875 3.6875 22.277343 2.726563 45.390625 1.792969 67.746093zm0 0"/></svg>