<svg height="512pt" viewBox="-89 0 512 512.00234" width="512pt" xmlns="http://www.w3.org/2000/svg"><path d="m220.5 334.558594c-10.359375-13.855469-21.734375-27.261719-33.804688-39.847656l-2.878906-3 3.109375-2.757813c.546875-.488281 1.113281-.980469 1.691407-1.476563l31.226562-26.828124 1.359375 6.675781c4.34375 21.332031 6.527344 43.144531 6.5 64.84375l-.015625 12zm0 0" fill="#b2eaf9"/><path d="m107.042969 333.714844c-2.644531-20.984375-.296875-42.621094 6.800781-62.5625l2.402344-6.75 4.484375 5.585937c4.351562 5.410157 9.738281 9.992188 14.953125 14.425781l.316406.273438c3.503906 2.992188 6.8125 5.816406 9.898438 8.90625l2.640624 2.640625-40.378906 46.339844zm0 0" fill="#b2eaf9"/><path d="m86.1875 152.914062c-1.125-.226562-2.285156-.339843-3.445312-.339843-.949219 0-1.90625.074219-2.84375.226562l-3.195313.511719-1.167969-3.015625c-4.265625-11-9.570312-24.6875-10.726562-38.683594-1.300782-15.644531 3.082031-29.800781 12.019531-38.832031.863281-.875 1.753906-1.699219 2.746094-2.601562 3.003906-2.761719 6.117187-5.628907 7.3125-9.542969.683593-2.230469.652343-4.597657.625-6.886719-.011719-1.246094-.019531-2.382812.058593-3.550781.488282-7.179688 4.808594-14.183594 11.007813-17.84375 2.992187-1.765625 6.261719-2.777344 9.722656-3.847657l.191407-.058593c4.433593-1.363281 8.609374-2.648438 12.09375-5.433594 2.214843-1.765625 3.894531-3.941406 5.671874-6.246094l.078126-.097656c1.410156-1.824219 2.742187-3.546875 4.34375-5.089844 5.121093-4.917969 12.800781-7.515625 22.207031-7.515625 2.355469 0 4.789062.160156 7.230469.476563 4.160156.539062 8.339843 1.425781 12.378906 2.277343l-.703125 3.941407.828125-3.914063c5.984375 1.265625 12.175781 2.574219 18.382812 2.765625.632813.019531 1.25.027344 1.867188.027344 3.09375 0 6.230468-.230469 9.261718-.460937l.402344-.027344c3.011719-.21875 5.859375-.425782 8.789063-.425782l.75.003907c8.515625.089843 15.101562 2.226562 19.570312 6.347656 3.21875 2.957031 5.289063 6.917969 7.292969 10.75l.105469.195313c1.253906 2.390624 2.550781 4.859374 4.132812 7.066406 1.976563 2.761718 4.453125 5.277344 6.851563 7.714844 4.800781 4.878906 9.769531 9.921874 10.390625 16.667968.519531 5.53125-2.121094 10.75-4.671875 15.796875-2.726563 5.421875-5.269532 10.46875-4.636719 16.082031.382813 3.335938 1.832031 6.265626 3.363281 9.367188.625 1.25 1.089844 2.222656 1.5 3.140625 6.339844 14.335937 3.601563 31.988281-6.800781 43.945313l-5.5625 6.390624-1.398437-8.355468c-.179688-1.054688-.390626-2.019532-.648438-2.945313-2.910156-.394531-5.816406-.722656-8.722656-1.039062l-3.6875-.402344.125-3.707031c.21875-6.523438 1.945312-12.921875 3.617187-19.109375l.285157-1.039063c1.992187-7.394531 3.742187-14.652344 3.226562-21.894531-.589844-8.261719-4.359375-15.351563-10.085938-18.960937-2.070312-1.304688-4.589843-2.054688-6.914062-2.054688-1.691406 0-4.097656.40625-5.9375 2.351562-.519531.550782-.941406 1.1875-1.394531 1.863282l-.082031.125c-.378907.597656-.753907 1.128906-1.097657 1.550781-2.214843 2.660156-5.828125 3.988281-10.765625 3.988281-.691406 0-1.421875-.023437-2.160156-.078125-12.417969-.90625-24.585938-7.144531-32.5625-16.683593 1.054688 10.183593 5.335938 20.171874 11.996094 28.136718l5.273437 6.308594-8.21875.257812c-.527343.015626-1.058593.023438-1.589843.023438-7.808594 0-15.613282-1.820312-22.578126-5.269531-10.054687-4.976563-18.285156-13.269531-23.175781-23.355469l-.40625-.832031c-1.742187-3.636719-3.523437-7.351563-7.167969-8.488281-.648437-.199219-1.347656-.304688-2.058593-.304688-2.292969 0-4.800781 1.066406-7.066407 3.007812-7.84375 6.730469-8.507812 17.859376-8.207031 23.898438.230469 4.601562 1.023438 9.132812 1.785157 13.515625l.050781.273437c.710937 4.140626 1.382812 8.050782 1.660156 12.117188.417969 6.007812.035156 17.144531-7.238281 24.1875l-.96875.9375-5.398438.628906c-.734375 2.621094-1.105468 5.355469-1.125 8.167969l-.03125 4.847656zm0 0" fill="#644c4c"/><g fill="#ffdac4"><path d="m209.535156 182.773438c-8.007812 0-15.59375-2.621094-21.367187-7.386719-10.019531-8.253907-15.121094-23.960938-10.921875-33.609375 1.886718-4.3125 5.617187-5.175782 11.027344-5.175782 6.574218 0 13.257812.542969 19.722656 1.066407l.839844.070312c1.320312.105469 2.640624.214844 3.957031.3125 8.691406.683594 17.394531 1.53125 25.886719 2.527344l2.980468.347656.496094 2.964844c2.15625 12.890625-3.882812 26.78125-14.691406 33.777344-5.164063 3.34375-11.363282 5.105469-17.929688 5.105469zm0 0"/><path d="m124.101562 182.773438c-6.566406 0-12.769531-1.765626-17.933593-5.101563-10.804688-6.988281-16.847657-20.875-14.691407-33.78125l.496094-2.960937 2.984375-.351563c8.492188-.992187 17.195313-1.84375 25.871094-2.523437 1.332031-.101563 2.652344-.207032 3.96875-.316407l.84375-.066406c6.460937-.527344 13.144531-1.070313 19.671875-1.070313 5.457031 0 9.1875.867188 11.074219 5.164063 4.199219 9.65625-.902344 25.359375-10.917969 33.621094-5.773438 4.765625-13.363281 7.386719-21.367188 7.386719zm0 0"/><path d="m227.511719 178.15625 3.628906-3.195312c6.109375-5.382813 10.210937-13.230469 11.253906-21.535157l.21875-1.734375 1.417969-1.019531c1.972656-1.417969 4.421875-2.167969 7.082031-2.167969.539063 0 1.089844.03125 1.636719.09375 4.203125.492188 7.992188 2.726563 10.140625 5.980469 4.070313 6.214844 2.921875 15.292969-2.667969 21.128906-4.152344 4.351563-10.480468 6.84375-17.347656 6.84375-1.261719 0-2.535156-.085937-3.789062-.253906-.003907 0-.015626 0-.015626 0l-2.402343 2.96875zm0 0"/><path d="m165.753906 247.625c-11.6875 0-23.230468-2.726562-33.375-7.875-21.210937-10.777344-36.402344-32.113281-39.648437-55.683594-2.878907 2.03125-6.480469 3.160156-10.191407 3.160156-4.648437 0-9.109374-1.746093-12.238281-4.789062-5.894531-5.722656-6.886719-15.523438-2.253906-22.3125 3.160156-4.628906 8.789063-7.507812 14.691406-7.507812 2.417969 0 4.714844.480468 6.828125 1.421874l1.820313.816407.445312 1.945312c1.984375 8.699219 7.195313 16.324219 14.300781 20.921875 5.214844 3.375 11.441407 5.15625 18.007813 5.15625 7.964844 0 15.550781-2.640625 21.363281-7.445312 4.316406-3.546875 8.222656-9.285156 10.453125-15.34375.460938-1.246094.855469-2.53125 1.164063-3.828125l.644531-2.660157 17.710937-2.390624.722657 3.703124c1.507812 7.738282 6.191406 15.792969 11.925781 20.519532 5.820312 4.804687 13.40625 7.445312 21.367188 7.445312 6.566406 0 12.792968-1.78125 18.007812-5.15625 1.304688-.847656 2.527344-1.773437 3.625-2.75l2.484375-2.214844 8.203125 6.375-2.773438 3.191407c-2.679687 23.648437-17.363281 45.339843-38.3125 56.609375-10.554687 5.6875-22.648437 8.691406-34.972656 8.691406zm0 0"/><path d="m157.953125 149.03125c-.058594-2.675781-.566406-5.117188-1.503906-7.265625-2.09375-4.820313-6.625-5.222656-11.085938-5.222656-6.589843 0-13.292969.539062-19.773437 1.0625l-.828125.066406c-1.316407.109375-2.628907.21875-3.933594.316406-4.675781.367188-9.433594.785157-14.132813 1.253907l-7.214843.710937 3.242187-6.480469c2.480469-4.957031 3.53125-11.316406 3.046875-18.390625-.296875-4.199219-1.019531-8.355469-1.71875-12.378906l-.054687-.3125c-.773438-4.503906-1.503906-8.761719-1.722656-13.207031-.511719-10.261719 2.472656-18.957032 8.1875-23.84375 2.238281-1.921875 4.75-2.984375 7.058593-2.984375.699219 0 1.371094.097656 2 .292969 3.613281 1.128906 5.464844 4.976562 7.09375 8.371093l.449219.933594c4.894531 10.089844 13.136719 18.394531 23.203125 23.371094 6.96875 3.449219 14.796875 5.273437 22.640625 5.273437 3.375 0 6.746094-.335937 10.023438-1-6.234376-5.550781-11.164063-12.628906-14.242188-20.523437l-4.742188-12.15625 10.738282 7.410156c6.921875 4.773437 14.972656 7.621094 23.277344 8.222656.722656.050781 1.433593.078125 2.117187.078125 3.433594 0 8.097656-.691406 10.839844-3.980468.371093-.449219.722656-.976563 1.0625-1.484376l.09375-.140624c.410156-.625.890625-1.363282 1.484375-1.972657 1.402344-1.492187 3.441406-2.296875 5.859375-2.296875 2.304687 0 4.808593.75 6.875 2.058594 5.703125 3.585938 9.457031 10.65625 10.039062 18.898438.515625 7.265624-1.15625 14.210937-3.226562 21.890624l-.269531 1.003907c-1.558594 5.742187-3.3125 12.230469-3.621094 18.65625l-.195313 4.195312-4.183593-.40625c-4.121094-.394531-8.167969-.753906-12.03125-1.0625-1.3125-.101562-2.640626-.207031-3.964844-.316406l-.800782-.066406c-6.476562-.523438-13.179687-1.0625-19.71875-1.0625-4.511718 0-9.042968.402343-11.132812 5.214843-.8125 1.863282-1.304688 3.933594-1.46875 6.15625l-.238281 3.238282-17.429688 2.351562zm0 0"/><path d="m165.25 340.511719c-.910156-3.386719-1.628906-6.78125-2.390625-10.375l-.121094-.5625c-1.832031-8.683594-3.726562-17.65625-8.296875-25.371094-4.648437-7.851563-11.789062-13.9375-18.699218-19.824219-6.722657-5.714844-13.058594-11.105468-17.667969-18.15625l-1.335938-2.042968 1.207031-2.121094c3.972657-7 6.027344-13.933594 5.9375-20.058594l-.101562-7.027344 6.09375 3.503906c.820312.46875 1.644531.914063 2.457031 1.316407 10.148438 5.160156 21.691407 7.878906 33.410157 7.878906 12.355468 0 24.464843-3.003906 35.023437-8.683594 1.335937-.714843 2.730469-1.53125 4.148437-2.421875l5.03125-3.167968 1.035157 5.855468c1.113281 6.28125 3.457031 12.550782 6.964843 18.640625l1.65625 2.871094-31.03125 26.660156c-2.039062 1.757813-4.09375 3.53125-5.5625 5.75-2.546874 3.847657-3.105468 8.59375-3.648437 13.183594l-.0625.550781c-1.339844 11.28125-3.460937 22.5625-6.3125 33.566406l-3.796875 14.667969zm0 0"/></g><path d="m329.585938 488.488281-4.25-79.441406c-1.152344-21.605469-2.460938-46.09375-14.417969-66.113281-10.792969-18.09375-28.878907-30.203125-46.371094-41.914063-3.605469-2.414062-7.335937-4.910156-10.9375-7.429687-9.398437-6.550782-17.359375-13.246094-23.660156-19.90625l-9.085938-9.601563 2.238281 13.027344c3.800782 22.144531 5.289063 44.730469 4.371094 67.148437-11.929687-16.910156-25.285156-33.167968-39.703125-48.320312l-4.625-4.863281-2.074219 6.382812c-.949218 2.910157-1.320312 6.121094-1.648437 8.917969l-.070313.578125c-1.820312 15.371094-5.078124 30.648437-9.667968 45.34375l-.328125.738281-2.34375 154.726563 4.03125.03125c12.40625.09375 24.988281.140625 37.390625.140625 16.929687 0 34.070312-.089844 50.960937-.261719l3.890625-.039063.066406-3.890624c.617188-35.179688 4.570313-70.472657 11.816407-104.886719-7.167969 34.335937-11.121094 69.550781-11.746094 104.65625l-.070313 4.121093 4.121094-.050781c16.085938-.195312 30.628906-.433593 44.46875-.722656 5.421875-.117187 11.492188-.589844 14.917969-4.667969 3-3.554687 3.003906-8.507812 2.726563-13.703125zm0 0" fill="#5bd0fc"/><path d="m168.933594 351.066406c-3.15625-6.839844-4.730469-14.28125-6.269532-21.535156-1.914062-9.058594-3.722656-17.613281-8.273437-25.300781-.746094-1.261719-1.597656-2.519531-2.769531-4.078125l-2.964844-3.953125-37.78125 43.351562c-.492188.574219-.9375.960938-1.402344.972657h-.121094c-.855468 0-1.488281-.859376-1.730468-2.363282-2.921875-18.238281-2.113282-36.597656 2.402344-54.570312l3.085937-12.296875-9.582031 8.296875c-9.667969 8.363281-21.515625 13.921875-32.976563 19.292968l-2.132812 1.003907c-13.953125 6.570312-27.265625 13.394531-36.804688 24.597656-10.496093 12.347656-15.105469 28.046875-18.800781 47.816406-7.328125 39.183594-10.070312 79.257813-8.15625 119.113281.179688 3.574219.550781 7.269532 2.902344 9.722657 2.53125 2.632812 6.558594 3.003906 10.472656 3.15625 17.464844.664062 35.21875 1.25 52.769531 1.738281l4.507813.128906-9.191406-100.960937 9.257812 100.949219 3.554688.09375c28.007812.730468 56.28125 1.234374 84.035156 1.492187l3.976562.035156 2.375-155.875zm0 0" fill="#5bd0fc"/><path d="m333.644531 488.269531-4.25-79.4375c-1.179687-22.078125-2.519531-47.105469-14.984375-67.984375-11.253906-18.855468-29.734375-31.234375-47.601562-43.207031-3.597656-2.410156-7.3125-4.898437-10.871094-7.382813-26.121094-18.207031-39.695312-36.414062-41.480469-55.632812 14.714844-11.949219 24.960938-29.246094 28.085938-48.003906.140625.003906.28125.003906.417969.003906 7.878906 0 15.210937-2.894531 20.199218-8.109375 6.867188-7.171875 8.210938-18.421875 3.125-26.15625-2.472656-3.769531-6.597656-6.476563-11.253906-7.484375 8.886719-12.777344 10.976562-30.367188 4.660156-44.632812-.503906-1.140626-1.050781-2.246094-1.578125-3.316407-1.371093-2.785156-2.667969-5.414062-2.964843-8.035156-.503907-4.425781 1.792968-8.96875 4.21875-13.777344 2.8125-5.5625 5.71875-11.316406 5.09375-18.023437-.761719-8.171875-6.238282-13.742188-11.539063-19.125-2.402344-2.445313-4.671875-4.753906-6.445313-7.234375-1.460937-2.042969-2.667968-4.347657-3.945312-6.792969-2.167969-4.136719-4.410156-8.417969-8.140625-11.851562-5.246094-4.824219-12.746094-7.320313-22.289063-7.417969-3.453124-.03125-6.929687.21875-10.269531.464843-3.703125.273438-7.199219.53125-10.695312.421876-5.882813-.183594-11.660157-1.40625-17.773438-2.703126-4.128906-.871093-8.402343-1.777343-12.730469-2.335937-13.804687-1.785156-25.445312 1.101563-32.769531 8.128906-1.835937 1.765625-3.332031 3.703125-4.777343 5.582031-1.640626 2.125-3.191407 4.136719-5.035157 5.609376-2.890625 2.304687-6.710937 3.480468-10.757812 4.726562-3.597657 1.109375-7.316407 2.253906-10.78125 4.292969-7.4375 4.382812-12.417969 12.457031-13 21.074219-.089844 1.328124-.074219 2.609374-.0625 3.847656.023437 2.082031.039062 4.046875-.457031 5.671875-.867188 2.847656-3.449219 5.222656-6.183594 7.738281-.949219.875-1.933594 1.777344-2.871094 2.726562-9.769531 9.878907-14.574219 25.199219-13.179688 42.03125 1.15625 13.957032 6.007813 26.96875 10.875 39.550782-2.734374 1.554687-5.140624 3.6875-6.945312 6.332031-5.710938 8.371094-4.488281 20.460937 2.78125 27.523437 5.792969 5.628907 14.675781 7.324219 22.195312 4.761719 3.90625 18.152344 14.496094 34.648438 29.210938 45.902344.027344.136719.039062.269531.082031.40625 2.355469 7.703125-.394531 16.847656-5.382812 25.070313-.222657.273437-.402344.570312-.546875.882812-2.691406 4.269531-5.972656 8.265625-9.425782 11.640625-9.59375 9.371094-22.398437 15.375-34.777343 21.1875l-2.136719 1.003906c-14.363281 6.753907-28.089844 13.800781-38.164062 25.640625-11.730469 13.78125-16.402344 32.027344-19.703126 49.695313-7.386718 39.507812-10.15625 79.898437-8.222656 120.046875.15625 3.214844.414063 8.59375 4.027344 12.351562 3.890625 4.039063 9.746094 4.265625 13.246094 4.402344 63.226562 2.4375 127.03125 3.660156 190.683594 3.660156 34.574218 0 69.105468-.363281 103.46875-1.082031 6.308593-.132813 13.417968-.726563 17.953124-6.117187 3.949219-4.695313 3.976563-10.742188 3.667969-16.535157zm-116.363281-220.152343c4.292969 21.070312 6.445312 42.542968 6.421875 64.042968-10.53125-14.074218-21.972656-27.550781-34.117187-40.21875.53125-.472656 1.070312-.949218 1.632812-1.429687zm-148.484375-156.832032c-1.199219-14.484375 2.765625-27.492187 10.875-35.695312.808594-.816406 1.675781-1.613282 2.597656-2.460938 3.25-2.992187 6.933594-6.378906 8.441407-11.324218.859374-2.8125.828124-5.625.804687-8.105469-.011719-1.136719-.023437-2.207031.046875-3.222657.398438-5.910156 3.949219-11.667968 9.046875-14.671874 2.648437-1.558594 5.761719-2.515626 9.058594-3.53125 4.589843-1.410157 9.335937-2.871094 13.417969-6.136719 2.605468-2.078125 4.527343-4.574219 6.390624-6.984375 1.320313-1.71875 2.574219-3.339844 3.976563-4.6875 7.453125-7.15625 19.582031-6.796875 26.148437-5.949219 4.007813.519531 8.121094 1.386719 12.097657 2.226563 6.1875 1.3125 12.589843 2.667968 19.1875 2.875 3.921875.125 7.796875-.164063 11.546875-.441407 3.3125-.246093 6.453125-.480469 9.589844-.445312 7.488281.078125 13.175781 1.855469 16.910156 5.289062 2.703125 2.484375 4.527344 5.96875 6.457031 9.660157 1.351563 2.578124 2.746094 5.242187 4.53125 7.738281 2.140625 2.996093 4.742187 5.640625 7.257813 8.199219 4.503906 4.578124 8.761718 8.90625 9.257812 14.222656.40625 4.394531-1.859375 8.882812-4.261719 13.636718-2.855469 5.652344-5.808593 11.5-5.035156 18.320313.453125 4.019531 2.125 7.410156 3.742187 10.691406.515626 1.042969 1.003907 2.03125 1.441407 3.015625 5.703125 12.882813 3.058593 29.070313-6.167969 39.675782-.191406-1.128907-.433594-2.25-.738281-3.363282-.433594-1.578125-1.777344-2.738281-3.402344-2.933594-2.902344-.351562-5.820313-.679687-8.746094-.996093.207031-5.996094 1.792969-11.941407 3.484375-18.207031l.277344-1.019532c2.089844-7.761718 3.917969-15.375 3.359375-23.238281-.675781-9.527344-5.136719-17.769531-11.933594-22.054687-5.300781-3.34375-13.148437-4.097657-17.890625.925781-.804687.851562-1.386718 1.734375-1.898437 2.515625-.308594.46875-.597657.910156-.875 1.242187-2.035157 2.445313-6.3125 2.679688-9.539063 2.445313-11.347656-.824219-22.484375-6.53125-29.78125-15.257813-1.140625-1.363281-3.039062-1.820312-4.675781-1.121093-1.632813.695312-2.617187 2.378906-2.425781 4.148437 1.214844 11.054687 5.835937 21.710937 12.96875 30.25-7.675782.230469-15.363282-1.410156-22.273438-4.832031-9.257812-4.582032-16.839844-12.222656-21.351562-21.515625l-.40625-.851563c-1.898438-3.960937-4.261719-8.886718-9.570313-10.542968-4.132812-1.28125-8.839843-.015626-12.921875 3.480468-9.140625 7.835938-9.9375 20.367188-9.597656 27.136719.238281 4.789063 1.050781 9.472656 1.835938 14.003906.714843 4.125 1.386718 8.023438 1.664062 11.980469.371094 5.320312.074219 15.121094-6.03125 21.035156-1.355469.15625-2.714844.308594-4.066406.472656-1.625.195313-2.96875 1.355469-3.402344 2.933594-.824219 3.007813-1.222656 6.09375-1.242188 9.179688-2.542968-.515625-5.160156-.550782-7.714843-.144532-4.699219-12.128906-9.398438-24.648437-10.464844-37.566406zm104.722656 28.875c-1.019531 2.34375-1.59375 4.863282-1.78125 7.464844l-9.78125 1.320312c-.074219-3.160156-.683593-6.128906-1.839843-8.785156-3.308594-7.613281-11.039063-7.613281-14.753907-7.617187-.015625 0-.03125 0-.046875 0-6.847656 0-13.761718.566406-20.449218 1.113281-1.453126.121094-2.902344.238281-4.347657.351562-4.722656.367188-9.472656.789063-14.210937 1.261719 2.789062-5.589843 4-12.585937 3.449218-20.453125-.300781-4.363281-1.042968-8.648437-1.761718-12.792968-.777344-4.492188-1.511719-8.734376-1.726563-13.03125-.449219-9.015626 2.027344-16.527344 6.792969-20.613282 1.84375-1.578125 3.921875-2.328125 5.277344-1.902344 1.953125.605469 3.347656 3.515626 4.695312 6.328126l.425782.882812c5.289062 10.894531 14.175781 19.851562 25.03125 25.226562 10.851562 5.371094 23.367187 7.007813 35.234374 4.605469 1.5-.304687 2.699219-1.429687 3.09375-2.910156.394532-1.480469-.082031-3.058594-1.234374-4.066406-5.824219-5.121094-10.351563-11.691407-13.175782-18.921875 7.425782 5.121094 16.171875 8.257812 25.261719 8.917968 7.332031.535157 12.976563-1.308593 16.320313-5.332031.566406-.675781 1.015624-1.359375 1.414062-1.964843.363281-.554688.707031-1.074219 1.023438-1.414063 1.652343-1.746094 5.296874-1.171875 7.730468.359375 4.632813 2.921875 7.695313 8.832031 8.1875 15.808594.472656 6.617187-1.125 13.230468-3.101562 20.570312l-.273438 1.015625c-1.695312 6.273438-3.429687 12.742188-3.742187 19.488281-4.042969-.390624-8.085938-.75-12.109375-1.0625-1.445313-.113281-2.894532-.234374-4.347656-.351562-6.6875-.546875-13.605469-1.113281-20.453126-1.113281-.015624 0-.03125 0-.046874 0-3.714844 0-11.445313.003906-14.753907 7.617187zm-78.097656 4.390625c8.53125-.996093 17.171875-1.839843 25.722656-2.503906 1.457031-.117187 2.914063-.234375 4.378907-.355469 6.527343-.535156 13.273437-1.085937 19.792968-1.085937h.042969c5.238281 0 6.546875.894531 7.363281 2.769531 3.148438 7.242188-.371094 21.152344-9.800781 28.933594-9.4375 7.789062-24.304687 8.652344-34.578125 2.003906-9.53125-6.164062-14.785156-18.578125-12.921875-29.761719zm85.492187-1.175781c.816407-1.875 2.125-2.769531 7.363282-2.769531h.039062c6.519532 0 13.269532.550781 19.796875 1.085937 1.460938.121094 2.921875.238282 4.378907.355469 8.550781.664063 17.191406 1.507813 25.71875 2.503906 1.867187 11.183594-3.390626 23.59375-12.921876 29.761719-10.273437 6.648438-25.136718 5.785156-34.578124-2.003906-9.425782-7.78125-12.945313-21.691406-9.796876-28.933594zm-84.226562 40.148438c-.191406-1.402344-1.109375-2.601563-2.410156-3.15625-1.300782-.558594-2.804688-.390626-3.949219.445312-5.039063 3.652344-12.773437 3.097656-17.238281-1.238281-4.46875-4.339844-5.246094-12.050781-1.734375-17.195313 3.496093-5.125 10.921875-7.214844 16.578125-4.683594 2.152344 9.433594 7.816406 18.074219 16.03125 23.386719 6.011718 3.890625 13.09375 5.804688 20.175781 5.804688 8.601563 0 17.207031-2.824219 23.914063-8.359375 4.84375-3.996094 9.203124-10.371094 11.660156-17.054688.527344-1.429687.960937-2.855468 1.304687-4.265625l11.257813-1.519531c1.726562 8.859375 6.945312 17.589844 13.304687 22.835938 6.707031 5.539062 15.3125 8.359374 23.917969 8.359374 7.082031 0 14.160156-1.914062 20.171875-5.800781 9.304687-6.019531 15.332031-16.296875 16.695313-27.164062 1.554687-1.121094 3.664062-1.609375 5.925781-1.34375 3 .351562 5.78125 1.964843 7.257812 4.210937 3.027344 4.605469 2.054688 11.699219-2.210937 16.15625-4.074219 4.261719-10.863282 6.324219-17.714844 5.390625-1.082031-.144531-2.164062.148438-3.019531.8125-.855469.667969-1.410157 1.652344-1.53125 2.730469-2.539063 22.355469-16.421875 42.871094-36.234375 53.539062-19.816406 10.667969-44.582032 10.964844-64.644532.773438-20.066406-10.191406-34.4375-30.371094-37.507812-52.664062zm33.851562 59.851562c10.90625 5.539062 23.054688 8.300781 35.207032 8.300781 12.789062 0 25.578125-3.058593 36.914062-9.160156 1.492188-.804687 2.953125-1.664063 4.382813-2.566406 1.203125 6.785156 3.675781 13.421875 7.441406 19.941406l-28.519531 24.507813c-2.109375 1.8125-4.5 3.863281-6.292969 6.574218-3.074219 4.648438-3.71875 10.125-4.289063 14.960938l-.0625.535156c-1.316406 11.105469-3.394531 22.160156-6.203124 33-.929688-3.457031-1.6875-7.042969-2.46875-10.726562-1.898438-9-3.863282-18.308594-8.765626-26.582032-4.988281-8.433594-12.398437-14.738281-19.566406-20.835937-6.472656-5.507813-12.617187-10.746094-16.890625-17.289063 3.917969-6.902344 6.566407-14.558594 6.453125-22.085937.878906.488281 1.761719.96875 2.660156 1.425781zm-19.523437 89.835938c-2.589844-20.445313-.316406-41.292969 6.601563-60.71875 4.53125 5.652343 10.070312 10.375 15.472656 14.972656 3.507812 2.984375 6.914062 5.882812 9.984375 8.953125zm-100.574219 165.148437c-1.402344-1.457031-1.652344-4.332031-1.789062-7.152344-1.902344-39.523437.824218-79.285156 8.09375-118.175781 3.582031-19.152344 8-34.292969 17.921875-45.953125 9.03125-10.613281 21.921875-17.207031 35.457031-23.570313l2.128906-1c11.75-5.515624 23.859375-11.210937 33.890625-19.890624-4.597656 18.308593-5.472656 37.453124-2.46875 56.171874.679688 4.242188 3.453125 5.734376 5.679688 5.734376.042969 0 .082031 0 .121093-.003907 2.433594-.058593 3.894532-1.734375 4.441407-2.363281l34.507812-39.605469c.898438 1.199219 1.757813 2.421875 2.523438 3.714844 4.222656 7.132813 5.964843 15.394531 7.8125 24.140625 1.578125 7.464844 3.230469 15.160156 6.539062 22.332031l-2.292969 150.988281c-28.015624-.257812-56.027343-.753906-83.972656-1.480468l-8.925781-97.414063c-.203125-2.21875-2.171875-3.859375-4.382813-3.648437-2.21875.203125-3.851562 2.164062-3.648437 4.382812l8.839844 96.464844c-17.609375-.488281-35.195313-1.066406-52.730469-1.742188-3.097656-.117187-6.242188-.367187-7.746094-1.929687zm313.367188 1.257813c-2.367188 2.808593-7.414063 3.148437-11.957032 3.242187-14.78125.308594-29.597656.546875-44.433593.722656.628906-34.84375 4.546875-69.796875 11.664062-103.910156.457031-2.179687-.941406-4.316406-3.121093-4.773437-2.1875-.453126-4.316407.945312-4.769532 3.125-7.238281 34.683593-11.214844 70.226562-11.835937 105.652343-29.378907.300781-58.832031.335938-88.285157.113281l2.277344-149.878906c.035156-.089844.074219-.171875.105469-.265625 4.699219-15.027343 8.023437-30.582031 9.875-46.226562l.0625-.542969c.34375-2.921875.6875-5.722656 1.488281-8.175781 14.21875 14.945312 27.441406 31.019531 39.320313 47.863281.765625 1.089844 2.003906 1.707031 3.292969 1.707031.378906 0 .765624-.050781 1.144531-.164062 1.65625-.488281 2.816406-1.980469 2.882812-3.710938.882813-22.746093-.625-45.542969-4.476562-67.964843 6.53125 6.902343 14.609375 13.703124 24.285156 20.445312 3.621094 2.523438 7.367187 5.035156 10.992187 7.464844 17.128907 11.476562 34.839844 23.34375 45.167969 40.640625 11.441407 19.171875 12.722657 43.136719 13.855469 64.28125l4.25 79.441406c.230469 4.351563.269531 8.464844-1.785156 10.914063zm0 0"/></svg>