<svg height="512pt" viewBox="-87 0 512 512.0001" width="512pt" xmlns="http://www.w3.org/2000/svg"><path d="m196.835938 304.320312c-8.628907-9.480468-16.433594-16.960937-23.191407-22.226562l-6.050781-4.714844 7.332031-2.261718c2.949219-.910157 5.726563-2.613282 7.957031-3.980469l46.398438-28.386719-28.253906 66.179688zm0 0" fill="#b2eaf9"/><path d="m184.769531 331.855469c-3.671875-4.753907-7.59375-9.378907-11.648437-13.746094l-2.316406-2.496094 16.542968-21.210937 3.199219 3.304687c2.792969 2.882813 5.734375 6.0625 8.746094 9.441407l1.683593 1.898437-12.042968 28.203125zm0 0" fill="#b2eaf9"/><path d="m138.789062 303.003906c-5.496093-14.90625-10.800781-29.835937-15.75-44.375l-4.125-12.101562 10.285157 7.59375c9.621093 7.105468 19.902343 13.304687 30.558593 18.433594 1.664063.804687 3.132813 1.4375 4.496094 1.945312l5.425782 2.007812-28.550782 32.835938zm0 0" fill="#b2eaf9"/><path d="m151.726562 337.027344c-3.421874-8.742188-6.714843-17.3125-9.777343-25.480469l-1.03125-2.75 2.3125-1.808594c.039062-.03125.078125-.0625.117187-.097656l11.757813-13.53125 2.539062 5.78125c2.636719 5.996094 6.214844 11.480469 10.644531 16.304687l2.132813 2.320313-1.757813 2.617187c-3.625 5.390626-6.851562 11.074219-9.59375 16.890626l-3.953124 8.402343zm0 0" fill="#b2eaf9"/><path d="m168.46875 253.132812c-7.660156 0-14.089844-1.660156-19.101562-4.933593-7.191407-4.671875-10.96875-12.199219-12.863282-17.691407-.8125-2.347656-1.503906-4.933593-2.0625-7.683593-.9375-4.695313-1.4375-9.609375-1.84375-14.226563-.84375-9.359375-1.316406-18.453125 2.152344-26.65625 3.515625-8.316406 11.355469-15.246094 20.96875-18.535156.851562-.296875 1.8125-.582031 2.917969-.871094.207031-.0625.417969-.121094.632812-.171875.917969-.238281 1.898438-.453125 2.917969-.644531l.148438-.027344c.089843-.015625.179687-.027344.265624-.046875l.183594-.035156c1.179688-.207031 2.140625-.347656 3.035156-.453125l.25-.027344c1.050782-.125 2.066407-.195312 3.007813-.25 0 0 .527344-.035156.65625-.042968.855469-.035157 1.6875-.058594 2.515625-.058594 0 0 .554688.003906.558594.003906.300781 0 .648437.011719.996094.019531.75.019531 1.496093.050781 2.242187.09375l1.167969.089844c.769531.066406 1.523437.152344 2.273437.25l.933594.117187c1.28125.191407 2.324219.382813 3.273437.589844 4.199219.90625 8.011719 2.3125 11.324219 4.167969 3.636719 2.03125 6.636719 4.609375 8.914063 7.65625.828125 1.105469 1.535156 2.234375 2.171875 3.449219 4.207031 8.050781 4.746093 17.378906 4.746093 24.605468 0 1.605469-.03125 3.179688-.074218 4.726563-.027344 1.175781-.070313 2.390625-.121094 3.601563-.1875 4.492187-.539062 8.125-1.101562 11.4375-.320313 1.90625-.699219 3.644531-1.160157 5.296874-1.378906 5.066407-4.285156 12.214844-10.238281 17.363282-5.222656 4.492187-12.4375 7.238281-22.066406 8.394531-2.644532.328125-5.210938.492187-7.621094.492187zm1.746094-71.15625s-.003906 0-.007813.003907l-1.183593 1.113281c-4.164063 3.933594-7.769532 7.335938-14 8.011719-.484376.050781-.925782.082031-1.367188.113281-.75.058594-1.484375.117188-2.207031.238281-1.273438.203125-2.203125.535157-2.949219 1.050781-.675781.445313-1.230469 1.027344-1.75 1.816407-.609375.929687-1.007812 1.925781-1.253906 2.59375-4.15625 11.359375 1.28125 25.433593 12.125 31.351562 3.730468 2.050781 8.097656 3.132813 12.632812 3.132813 7.457032 0 14.691406-2.859375 19.847656-7.847656.375-.355469.707032-.699219 1.03125-1.046876.726563-.789062 1.40625-1.609374 2-2.425781 4.34375-5.9375 6.027344-13.5 5.144532-23.128906l-.015625-.171875c-.566407-5.617188-2.96875-6.726562-6.910157-6.726562-.855468 0-1.703124.0625-2.453124.113281-.980469.070312-2.09375.148437-3.222657.148437-1.433593 0-2.667969-.132812-3.773437-.402344-5.25-1.3125-8.710938-4.582031-11.667969-7.925781l-.019531-4.015625zm0 0" fill="#644c4c"/><path d="m263.171875 507.613281-.25-3.71875c-3.183594-47.714843-2.210937-96.046875 2.882813-143.652343-5.136719 47.351562-6.117188 95.492187-2.980469 143.085937l.28125 4.28125-91.492188-.417969v-3.980468c0-.09375 0-.179688.007813-.265626l-3.4375-119.933593 3.023437-.835938c14.757813-4.082031 28.136719-12.078125 38.691407-23.121093 3.449218-3.605469 8.054687-9.15625 8.242187-15.703126.09375-2.945312-.699219-5.820312-1.464844-8.597656-.90625-3.328125-1.824219-6.691406-1.320312-10.039062.691406-4.578125 4.167969-9.003906 9.535156-12.148438 2.679687-1.570312 5.519531-2.75 8.269531-3.890625 2.257813-.941406 4.289063-1.800781 6.253906-2.792969 2.050782-1.042968 4.296876-2.414062 5.367188-4.65625 1.851562-3.875-.535156-8.234374-3.363281-12.734374-4.585938-7.277344-10.136719-16.988282-12.539063-27.835938l-3.1875-14.355469 10.019532 10.765625c.414062.441406.816406.886719 1.207031 1.320313 8.617187 9.269531 19.277343 17.4375 29.585937 25.339843 4.089844 3.136719 7.929688 6.085938 11.691406 9.121094 17.90625 14.441406 36.082032 30.34375 44.390626 51.882813 5.714843 14.789062 6.234374 30.824219 6.734374 46.332031l3.804688 116.875zm0 0" fill="#288fc9"/><path d="m71.96875 506.730469.179688-4.152344c1.9375-45.3125 2.554687-91.261719 1.835937-136.5625l-.101563-.035156c.757813 45.320312.136719 91.367187-1.8125 136.902343l-.167968 3.84375-50.527344-.226562c-5.226562-.023438-10.613281-.34375-13.996094-3.890625-3.398437-3.542969-3.460937-8.972656-3.234375-14.230469l3.902344-88.054687c1-22.605469 2.246094-50.734375 16.515625-72.132813 9.71875-14.554687 24.761719-24.992187 39.574219-34.105468 2.160156-1.328126 4.328125-2.644532 6.507812-3.960938 11.1875-6.785156 22.746094-13.792969 32.570313-22.636719l6.277344 4.714844c-4.207032 8.691406-8.503907 17.640625-12.769532 26.605469-1.589844 3.378906-2.796875 6.863281-.914062 9.582031 1.359375 1.957031 3.960937 2.648437 5.863281 3.152344l28.214844 7.363281-4.757813 4.921875c-2.15625 2.230469-3.828125 4.304687-5.113281 6.34375-3.046875 4.855469-4.128906 10.007813-3.035156 14.503906 1.417969 5.84375 6.382812 10.210938 11.050781 13.714844 11.414062 8.554687 24.023438 15.441406 37.480469 20.460937l2.519531.941407 3.648438 127.394531zm0 0" fill="#288fc9"/><path d="m166.261719 373.066406c-3.257813-7.824218-6.636719-16.140625-10.335938-25.425781l-.585937-1.480469.585937-1.476562c3.339844-8.417969 7.601563-16.523438 12.671875-24.097656l2.859375-4.273438 3.4375 3.816406c4.171875 4.632813 8.078125 9.363282 11.605469 14.058594l2.882812 1.804688-1.273437 3.199218-18.203125 42.632813zm0 0" fill="#5b5d6d"/><path d="m166.417969 313.246094c-4.449219-5.351563-7.902344-11.398438-10.261719-17.976563l-.789062-2.207031 12.925781-14.855469 2.964843 2.160157c4.09375 2.984374 8.617188 6.855468 13.449219 11.5l2.597657 2.5-17.714844 22.699218zm0 0" fill="#5b5d6d"/><g fill="#ffdac4"><path d="m211.25 148.601562c-7.933594 0-15.675781-2.808593-21.238281-7.710937-12.707031-11.171875-10.167969-24.25-8.488281-29.355469 4.066406-12.351562 15.582031-22.046875 27.378906-23.050781.628906-.058594 1.285156-.085937 1.992187-.085937 6.292969 0 15.191407 2.621093 21.820313 15.105468 4.933594 9.273438 7.769531 22.8125 2.988281 32.140625-2.550781 4.964844-7.652344 9.066407-13.996094 11.246094-3.316406 1.136719-6.832031 1.710937-10.457031 1.710937zm0 0"/><path d="m131.597656 148.597656c-3.621094 0-7.132812-.570312-10.4375-1.703125-6.367187-2.183593-11.46875-6.285156-14.007812-11.253906-1.625-3.179687-2.449219-6.980469-2.449219-11.300781 0-6.648438 2.03125-14.4375 5.4375-20.839844 6.617187-12.476562 15.527344-15.101562 21.835937-15.101562.648438 0 1.3125.03125 1.972657.085937 11.804687 1.003906 23.320312 10.699219 27.386719 23.054687 1.679687 5.101563 4.21875 18.179688-8.488282 29.355469-5.570312 4.894531-13.316406 7.703125-21.25 7.703125zm0 0"/><path d="m126.660156 217.652344c-16.039062-12.203125-26.925781-31.230469-29.113281-50.890625-3.625 2.582031-8.167969 4.011719-12.847656 4.011719-5.476563 0-10.621094-1.875-14.496094-5.277344-7.363281-6.484375-9.441406-18.308594-4.730469-26.925782 3.722656-6.765624 9.714844-9.359374 17.566406-11.179687 8.300782-1.914063 7.941407-5.675781 6.421876-13.320313-3.671876-18.640624-2.398438-37.355468 3.679687-54.132812 7.882813-21.765625 23.8125-39.566406 43.710937-48.84375 9.894532-4.609375 20.988282-7.046875 32.085938-7.046875 11.726562 0 23.082031 2.699219 32.839844 7.808594 17.652344 9.21875 31.769531 26.5625 39.75 48.824219 7.90625 22.050781 8.828125 45.539062 8.746094 63.539062 2.625-2.527344 6.253906-3.929688 10.273437-3.929688.734375 0 1.492187.046876 2.238281.140626 5.515625.703124 10.5625 3.863281 13.175782 8.253906 4.5625 7.636718 3.121093 18.675781-3.246094 26.316406v.082031l-1.109375 1.167969c-8.46875 8.878906-20.679688 10.5-27.203125 10.675781-2.160156 18.691407-12.355469 37.097657-27.304688 49.265625l-7.761718 6.316406 1.257812-9.839843c0-.039063.011719-.183594.011719-.183594.042969-.867187.089843-1.730469.125-2.585937.003906-.207032.015625-.414063.023437-.617188l.089844-2.761719c.027344-1.1875.058594-2.425781.066406-3.683593.011719-1.238282 0-2.5-.027344-3.765626-.019531-.6875-.039062-1.347656-.066406-2-.375-8.203124-1.855468-14.519531-4.660156-19.878906-.464844-.90625-1-1.785156-1.640625-2.714844l-.203125-.257812c-.261719-.378906-.476562-.675781-.714844-.964844-3.976562-5.015625-9.992187-8.726562-17.425781-10.769531-.921875-.253906-1.738281-.457031-2.492187-.621094-3.535157-.761719-7.308594-1.148437-11.199219-1.148437-5.957031 0-11.765625.910156-16.789063 2.636718-9.632812 3.296876-17.480468 10.238282-21.003906 18.566407-3.457031 8.179687-2.996094 17.289062-2.160156 26.6875 0 0 .15625 1.691406.214844 2.285156l.011718.183594c.007813.101562.019532.199219.03125.300781.070313.722656.136719 1.367188.207032 2.019531l.078124.742188v.039062c.007813.097657.011719.195313.011719.292969v8.066406zm53.402344-95.621094c.476562 7.085938 3.902344 13.628906 9.90625 18.917969 5.597656 4.917969 13.324219 7.742187 21.183594 7.742187 3.636718 0 7.191406-.585937 10.570312-1.738281 6.46875-2.222656 11.457032-6.230469 14.039063-11.28125 4.753906-9.292969 1.78125-23.203125-2.992188-32.195313-6.640625-12.515624-15.59375-15.144531-21.933593-15.144531-.644532 0-1.292969.027344-1.933594.082031-11.832032 1.011719-23.371094 10.730469-27.4375 23.105469-.34375 1.023438-.632813 2.125-.914063 3.488281l-.628906 3.046876-16.898437.769531-.632813-3.425781c-.246094-1.324219-.578125-2.621094-.992187-3.863282-4.074219-12.390625-15.613282-22.109375-27.445313-23.117187-.640625-.058594-1.289063-.082031-1.929687-.082031-6.339844 0-15.292969 2.625-21.9375 15.140624-4.777344 8.984376-7.753907 22.890626-2.992188 32.191407 1.273438 2.492187 3.113281 4.722656 5.460938 6.628906 2.441406 1.976563 5.332031 3.546875 8.585937 4.660156 3.371094 1.148438 6.925781 1.734375 10.5625 1.734375 7.859375 0 15.585937-2.824218 21.1875-7.746094 5.890625-5.183593 9.300781-11.597656 9.863281-18.546874l.285156-3.515626 16.761719-.753906zm0 0"/><path d="m170.695312 275.738281c-3.855468 0-7.65625-1.675781-10.917968-3.246093-13.195313-6.351563-25.714844-14.289063-37.199219-23.582032l-2.464844-1.992187 1.375-2.855469c3.015625-6.246094 4.667969-12.667969 4.917969-19.089844l.261719-6.746094 5.792969 3.472657c.1875.113281.378906.230469.558593.34375l1.363281.882812.359376 1.582031c.492187 2.15625 1.066406 4.179688 1.699218 6.011719 1.898438 5.503907 5.671875 13.039063 12.886719 17.738281 5.023437 3.28125 11.472656 4.941407 19.167969 4.941407 2.347656 0 4.910156-.164063 7.621094-.492188 9.632812-1.167969 16.855468-3.921875 22.078124-8.410156 4.722657-4.078125 8.277344-10.097656 10.269532-17.40625.316406-1.148437.589844-2.332031.847656-3.625l.328125-1.671875 1.433594-.917969c.234375-.152343.457031-.300781.683593-.460937l5.359376-3.757813.898437 6.480469c.886719 6.363281 3.0625 12.699219 6.464844 18.828125l3.191406 5.742187-6.566406.199219-38.25 23.382813c-3.167969 1.933594-7.09375 4.332031-11.277344 4.621094-.300781.019531-.589844.027343-.882813.027343zm0 0"/><path d="m170.214844 231.320312c-4.511719 0-8.859375-1.070312-12.570313-3.101562-1.378906-.761719-2.652343-1.632812-3.808593-2.601562-1.171876-.980469-2.257813-2.070313-3.222657-3.234376-.453125-.527343-.917969-1.128906-1.378906-1.792968-3.039063-4.3125-4.828125-9.550782-5.027344-14.734375-.113281-3.15625.34375-6.15625 1.359375-8.929688.773438-2.148437 1.683594-3.5 2.941406-4.34375 1.476563-1.011719 3.328126-1.15625 5.117188-1.296875l.382812-.027344c.3125-.027343.625-.046874.933594-.085937 5.125-.546875 8.539063-2.863281 12.410156-6.433594l2.75-2.53125 2.710938 2.570313c2.910156 2.753906 5.710938 4.359375 9.078125 5.203125 1.09375.269531 2.324219.402343 3.757813.402343 1.125 0 2.25-.082031 3.246093-.152343 1.183594-.082031 2.109375-.144531 2.90625-.144531 2.796875 0 4.699219 1.058593 5.65625 3.152343l.066407.128907.058593.148437c.046875.117187.085938.230469.121094.34375l.269531.535156.003906.566407c.113282.609374.175782 1.269531.242188 2.03125.023438.230468.042969.53125.0625.828124l.035156.472657c.007813.164062.023438.324219.039063.484375l.007812.148437c.019531.304688.03125.605469.042969.910157l.019531.03125.015625.953124c.011719.605469.011719 1.210938 0 1.808594-.101562 4.886719-.972656 9.066406-2.664062 12.796875l-.003906.027344-.242188.507813c-.191406.394531-.390625.773437-.601562 1.160156l-.085938.160156c-1.007812 1.835938-2.234375 3.53125-3.746094 5.175781-5.132812 5.554688-12.9375 8.863281-20.882812 8.863281zm0 0"/></g><path d="m178.171875 379.867188c11.941406-4.449219 22.894531-11.660157 31.683594-20.851563 5.472656-5.730469 8.085937-10.707031 8.226562-15.664063.089844-2.894531-.703125-5.777343-1.472656-8.597656-.894531-3.277344-1.824219-6.667968-1.308594-10.042968.703125-4.660157 4.097657-8.996094 9.554688-12.199219 2.660156-1.554688 5.511719-2.742188 8.285156-3.894531l.320313-.132813c2.058593-.859375 4-1.675781 5.894531-2.648437 1.925781-.960938 4.277343-2.359376 5.371093-4.644532 1.996094-4.1875-.984374-8.90625-3.375-12.695312-4.398437-6.976563-9.765624-16.324219-12.277343-26.734375l-2.832031-11.730469-56.804688 133.09375zm0 0" fill="#5bd0fc"/><path d="m101.71875 311.480469 28.5625 7.519531c-3.503906 3.214844-7.476562 6.855469-10.203125 11.199219-3 4.765625-4.105469 10.035156-3.03125 14.460937 1.410156 5.820313 6.132813 10.015625 11.027344 13.679688 9.882812 7.410156 20.734375 13.601562 32.25 18.398437l8.949219 3.734375-3.714844-8.957031c-15.203125-36.65625-29.421875-74.3125-42.257813-111.917969l-3.128906-9.167968-4.25 8.703124c-6.835937 13.988282-13.273437 27.347657-19.128906 39.699219-1.511719 3.179688-2.804688 6.796875-.925781 9.539063 1.25 1.792968 3.488281 2.496094 5.851562 3.109375zm0 0" fill="#5bd0fc"/><path d="m155.527344 143.945312c6.761718-5.945312 10.570312-13.324218 11.214844-21.222656l9.335937-.425781c.535156 8.058594 4.367187 15.597656 11.246094 21.648437 6.484375 5.699219 15.109375 8.746094 23.832031 8.746094 3.996094 0 8.015625-.640625 11.859375-1.957031 7.453125-2.554687 13.242187-7.257813 16.304687-13.242187 5.441407-10.628907 2.40625-25.6875-3.011718-35.894532-8.632813-16.257812-21.089844-17.742187-27.75-17.164062-13.347656 1.136718-26.34375 12-30.898438 25.832031-.433594 1.316406-.761718 2.625-1.023437 3.929687l-10.316407.472657c-.269531-1.460938-.640624-2.929688-1.125-4.402344-4.554687-13.832031-17.550781-24.695313-30.898437-25.832031-6.660156-.578125-19.117187.90625-27.75 17.164062-5.417969 10.207032-8.453125 25.265625-3.015625 35.894532h.003906c3.0625 5.984374 8.851563 10.6875 16.304688 13.242187 3.84375 1.316406 7.863281 1.957031 11.859375 1.957031 8.722656 0 17.347656-3.042968 23.828125-8.746094zm29.789062-31.15625c3.535156-10.726562 13.820313-19.460937 23.929688-20.324218.554687-.046875 1.101562-.070313 1.644531-.070313 7.46875 0 13.765625 4.460938 18.292969 12.984375 4.296875 8.089844 7.054687 20.4375 2.957031 28.4375-2.074219 4.058594-6.355469 7.441406-11.742187 9.289063-9.390626 3.21875-20.542969 1.121093-27.75-5.21875-10.523438-9.253907-9.109376-19.695313-7.332032-25.097657zm-62.859375 30.316407c-5.390625-1.84375-9.667969-5.230469-11.746093-9.285157-4.09375-8-1.335938-20.351562 2.960937-28.4375 4.855469-9.148437 11.742187-13.605468 19.9375-12.914062 10.109375.859375 20.394531 9.597656 23.929687 20.324219 1.777344 5.398437 3.191407 15.84375-7.335937 25.097656-7.207031 6.335937-18.359375 8.433594-27.746094 5.214844zm0 0"/><path d="m155.699219 231.785156c4.464843 2.441406 9.496093 3.613282 14.554687 3.613282 8.253906 0 16.578125-3.125 22.632813-8.96875.40625-.386719.796875-.789063 1.179687-1.203126.828125-.894531 1.59375-1.824218 2.300782-2.789062 4.933593-6.75 6.867187-15.246094 5.898437-25.847656 0-.003906 0-.003906 0-.007813-1.046875-11.296875-9.253906-10.71875-13.65625-10.402343-1.96875.136718-4 .28125-5.742187-.152344-3.9375-.976563-6.699219-3.382813-9.636719-6.695313-.722657-.8125-1.742188-1.300781-2.828125-1.351562-1.078125-.054688-2.148438.339843-2.941406 1.082031l-1.183594 1.113281c-3.941406 3.730469-6.789063 6.425781-11.6875 6.949219-.40625.042969-.8125.074219-1.226563.105469-.796875.058593-1.667969.125-2.570312.273437-1.5.238282-3.085938.695313-4.554688 1.699219-1.21875.816406-2.128906 1.851563-2.824219 2.910156-.785156 1.191407-1.304687 2.417969-1.667968 3.414063-4.8125 13.160156 1.449218 29.425781 13.953125 36.257812zm-1.714844-36.511718c.492187-.039063.984375-.078126 1.464844-.128907 6.578125-.703125 10.804687-3.957031 14.613281-7.460937 2.828125 2.679687 6.226562 5.019531 10.859375 6.171875 2.984375.742187 5.910156.535156 8.257813.367187 3.1875-.222656 4.226562-.292968 4.667968.730469.007813.023437.019532.039063.027344.0625.015625.042969.03125.097656.046875.144531.019531.0625.039063.117188.054687.183594.003907.015625.007813.039062.011719.054688.113281.472656.171875 1.097656.246094 1.925781.039063.394531.0625.773437.085937 1.15625.015626.21875.039063.441406.050782.65625.03125.578125.054687 1.144531.066406 1.703125v.050781c.015625.566406.015625 1.121094.003906 1.664063v.027343c-.085937 4.378907-.878906 8.140625-2.410156 11.414063-.019531.039062-.03125.078125-.050781.117187-.179688.375-.367188.742188-.566407 1.105469-.019531.035156-.035156.074219-.054687.109375-.878906 1.589844-1.945313 3.058594-3.210937 4.421875-7.089844 7.667969-19.644532 9.847656-28.582032 4.960938-1.125-.617188-2.179687-1.34375-3.164062-2.160157-.980469-.820312-1.890625-1.734375-2.714844-2.71875-.414062-.492187-.804688-1.003906-1.175781-1.53125-2.59375-3.691406-4.136719-8.164062-4.304688-12.597656-.097656-2.53125.253907-5.050781 1.113281-7.402344.464844-1.277343.9375-2.078125 1.433594-2.410156.601563-.417969 1.9375-.519531 3.230469-.617187zm0 0"/><path d="m333.386719 390.925781c-.492188-15.105469-1.050781-32.230469-7.007813-47.660156-8.671875-22.464844-27.300781-38.789063-45.632812-53.585937-3.808594-3.070313-7.855469-6.175782-11.769532-9.175782-10.207031-7.832031-20.761718-15.929687-29.109374-24.921875-11.777344-12.683593-17.378907-23.964843-18.164063-36.574219-.027344-.410156-.132813-.792968-.269531-1.15625 13.886718-12.035156 23.589844-29.078124 26.503906-47.058593 10.886719-.953125 20.242188-5.058594 26.609375-11.738281 8.652344-9.066407 10.714844-22.714844 4.90625-32.453126-3.289063-5.523437-9.332031-9.335937-16.160156-10.203124-3.152344-.398438-6.214844-.109376-8.980469.800781-.230469-17.183594-1.835938-38.023438-8.953125-57.886719-8.324219-23.222656-23.132813-41.355469-41.695313-51.0625-20.449218-10.691406-46.707031-11.011719-68.527343-.832031-20.867188 9.722656-37.566407 28.363281-45.820313 51.136719-6.328125 17.464843-7.652344 36.929687-3.839844 56.296874 1.367188 6.90625 1.480469 7.46875-3.34375 8.582032-7.71875 1.789062-15.511718 4.621094-20.214843 13.175781-5.691407 10.390625-3.285157 24.113281 5.601562 31.933594 7.296875 6.414062 17.988281 7.992187 26.878907 4.492187 3.476562 17.980469 13.5625 34.640625 27.792968 46.25 1.792969 17.675782-8.742187 32.382813-17.976562 41.65625-10.257813 10.296875-23.183594 18.132813-35.683594 25.707032-2.179688 1.320312-4.355469 2.640624-6.519531 3.972656-15.210938 9.363281-30.6875 20.121094-40.820313 35.316406-14.898437 22.335938-16.175781 51.097656-17.195312 74.207031l-3.902344 88.050781c-.199219 4.53125-.535156 12.117188 4.359375 17.234376 4.859375 5.078124 12.402344 5.113281 16.910156 5.132812l311.777344 1.4375h.019531c1.089844 0 2.128906-.441406 2.890625-1.222656.761719-.785156 1.175781-1.847656 1.136719-2.941406zm-120.628907-55.109375c.71875 2.628906 1.398438 5.113282 1.328126 7.414063-.117188 3.921875-2.382813 8.058593-7.125 13.023437-8.460938 8.847656-18.785157 15.621094-30.191407 19.863282l48.410157-113.417969c2.550781 10.566406 7.710937 19.878906 12.78125 27.925781 1.867187 2.96875 4.195312 6.660156 3.152343 8.84375-.558593 1.171875-2.292969 2.15625-3.546875 2.792969-1.894531.964843-3.875 1.789062-5.972656 2.664062-2.894531 1.207031-5.890625 2.453125-8.761719 4.136719-6.523437 3.828125-10.601562 9.167969-11.488281 15.042969-.636719 4.222656.453125 8.203125 1.414062 11.710937zm-78.59375-17.8125c-.355468-1.429687-1.464843-2.554687-2.894531-2.925781l-28.539062-7.464844c-1.074219-.28125-3.074219-.800781-3.582031-1.539062-.371094-.535157-.457032-1.925781 1.25-5.519531 6.269531-13.203126 12.683593-26.507813 19.113281-39.664063 12.882812 37.726563 27.101562 75.386719 42.355469 112.160156-11.15625-4.648437-21.691407-10.636719-31.394532-17.914062-4.296875-3.222657-8.425781-6.835938-9.542968-11.417969-.820313-3.375.101562-7.527344 2.527343-11.390625 2.429688-3.863281 6.035157-7.179687 9.523438-10.382813 1.085937-.996093 1.539062-2.507812 1.183593-3.941406zm35.792969 53.53125c-3.5-8.414062-6.929687-16.882812-10.316406-25.378906 3.253906-8.183594 7.382813-16.023438 12.277344-23.347656 4.011719 4.449218 7.851562 9.085937 11.433593 13.851562.300782.402344.675782.707032 1.078126.960938zm11.972657-76.789062-12.441407 15.941406c-4.132812-4.972656-7.382812-10.6875-9.5625-16.765625l8.972657-10.324219c3.957031 2.878906 8.308593 6.609375 13.03125 11.148438zm-27.945313 6.007812c2.804687 6.363282 6.65625 12.273438 11.355469 17.394532-3.722656 5.550781-7.03125 11.375-9.882813 17.417968-3.308593-8.449218-6.574219-16.925781-9.761719-25.429687.230469-.171875.453126-.367188.648438-.59375zm33.953125 28.65625c-3.746094-4.835937-7.726562-9.535156-11.886719-14.023437l11.625-14.898438c2.769531 2.863281 5.644531 5.972657 8.628907 9.320313zm11.855469-27.777344c-8.789063-9.660156-16.722657-17.261718-23.691407-22.695312 3.375-1.039062 6.34375-2.839844 8.867188-4.382812l35.710938-21.851563zm-57.246094-.011718c-5.4375-14.71875-10.6875-29.492188-15.726563-44.28125 9.785157 7.226562 20.238282 13.539062 31.199219 18.816406 1.515625.730469 3.136719 1.46875 4.839844 2.09375zm-4.179687-79.589844c-.9375-4.664062-1.414063-9.558594-1.789063-13.785156-.789063-8.859375-1.242187-17.414063 1.851563-24.742188 3.078124-7.285156 10.023437-13.378906 18.578124-16.308594.871094-.300781 1.773438-.5625 2.691407-.808593.171875-.042969.34375-.09375.519531-.136719.886719-.226562 1.789062-.425781 2.707031-.597656.179688-.035156.363281-.066406.546875-.097656.925782-.164063 1.859375-.308594 2.804688-.421876.039062-.003906.078125-.007812.117187-.015624.96875-.113282 1.949219-.1875 2.929688-.246094.203125-.011719.40625-.023438.609375-.035156.9375-.042969 1.875-.0625 2.816406-.058594.3125.003906.625.015625.9375.023437.710938.019531 1.421875.046875 2.128906.09375.359375.023438.714844.050781 1.070313.082031.699219.058594 1.394531.136719 2.085937.226563.3125.039063.628906.074219.941406.121094.988282.148437 1.96875.316406 2.925782.523437 3.152344.679688 6.800781 1.832032 10.226562 3.753906 2.84375 1.59375 5.535156 3.714844 7.664063 6.5625.667969.894532 1.28125 1.863282 1.828125 2.90625v.003907c4.335937 8.292969 4.453125 18.476562 4.21875 27.367187-.027344 1.164063-.066406 2.347656-.117188 3.542969-.152344 3.589844-.433594 7.300781-1.046875 10.929687-.304687 1.789063-.652343 3.386719-1.066406 4.894532-1.242187 4.554687-3.808594 10.925781-9.007813 15.410156-4.585937 3.949219-11.101562 6.390625-19.925781 7.457031-10.171875 1.246094-18.269531-.039062-24.066406-3.820312-6.242187-4.066407-9.574219-10.761719-11.265625-15.648438-.765625-2.242187-1.410156-4.652343-1.914062-7.175781zm-36.84375-55.710938c-.160157-1.429687-1.066407-2.664062-2.382813-3.242187-.519531-.230469-1.074219-.34375-1.625-.34375-.839844 0-1.671875.261719-2.375.773437-6.484375 4.722657-16.277344 4.273438-22.296875-1.019531-6.023438-5.296875-7.714844-14.960937-3.859375-22 3.007813-5.472656 7.957031-7.578125 14.964844-9.199219 12.433593-2.867187 10.773437-11.261718 9.4375-18-3.53125-17.925781-2.316407-35.902343 3.511719-51.988281 7.527343-20.773437 22.707031-37.75 41.644531-46.578125 19.59375-9.140625 43.117187-8.882812 61.386719.671875 16.761718 8.761719 30.199218 25.328125 37.835937 46.636719 7.699219 21.476562 8.589844 44.503906 8.507813 62.164062-.007813 1.632813.96875 3.105469 2.476562 3.738282 1.503906.628906 3.238281.289062 4.398438-.859375 2.175781-2.160157 5.503906-3.136719 9.132812-2.675781 4.320312.546874 8.246094 2.96875 10.246094 6.328124 3.925781 6.582032 2.289062 16.367188-3.8125 22.757813 0 0 0 0-.003906 0-7.480469 7.855469-18.511719 9.285156-24.417969 9.441406-2.011719.050781-3.675781 1.578125-3.902344 3.574219-2.035156 17.914062-11.691406 35.09375-25.8125 46.59375.003906-.085938.007813-.167969.011719-.253906.058594-.957032.105468-1.902344.140625-2.839844.007812-.183594.015625-.359375.023437-.542969.035156-.949219.066406-1.890625.089844-2.8125.03125-1.238281.058594-2.5.066406-3.777343.011719-1.28125.003906-2.578126-.023437-3.886719-.015625-.691407-.042969-1.386719-.074219-2.085938-.324219-7.222656-1.527344-14.714843-5.101562-21.558593-.566407-1.085938-1.203126-2.128907-1.902344-3.136719-.082032-.113281-.167969-.21875-.25-.332031-.277344-.386719-.554688-.769532-.847656-1.140626-4.5-5.652343-11.210938-9.832031-19.480469-12.097656-.878907-.242187-1.769531-.46875-2.683594-.664062-9.792969-2.113282-21.066406-1.515625-30.148437 1.601562-10.6875 3.660156-19.433594 11.433594-23.394532 20.796875-3.816406 9.039063-3.335937 18.6875-2.453125 28.597657.066407.753906.136719 1.53125.214844 2.324218.015625.191406.035156.375.050781.570313.082032.816406.164063 1.648437.261719 2.496093.003906.039063.003906.074219.011719.113282-15.144532-11.519532-25.464844-29.285156-27.566406-48.144532zm29.324218 59.082032c.507813 2.226562 1.109375 4.382812 1.808594 6.429687 2.109375 6.089844 6.335938 14.464844 14.488281 19.773438 5.699219 3.71875 12.859375 5.589843 21.351563 5.589843 2.574218 0 5.273437-.171874 8.09375-.515624 10.453125-1.269532 18.375-4.328126 24.210937-9.355469 5.339844-4.605469 9.324219-11.3125 11.519531-19.386719.34375-1.238281.644532-2.527344.914063-3.894531.273437-.179688.546875-.363281.820313-.550781 1.058593 7.632812 3.671874 14.371093 6.925781 20.21875-.683594.015624-1.367188.191406-1.992188.574218l-38.230469 23.390625c-2.929687 1.792969-6.25 3.828125-9.457031 4.042969-3.15625.214844-6.570312-1.28125-9.785156-2.828125-12.984375-6.25-25.214844-14.023437-36.417969-23.089844 3.261719-6.785156 5.03125-13.71875 5.304688-20.667969.148437.089844.296875.179688.445312.269532zm-120.574218 274.453125c-2.316407-2.425781-2.320313-6.914063-2.125-11.304688l3.898437-88.046875c.976563-22.109375 2.199219-49.625 15.847656-70.09375 9.273438-13.902344 23.910157-24.039062 38.34375-32.921875 2.148438-1.320312 4.308594-2.632812 6.472657-3.941406 11.367187-6.890625 23.070312-13.988281 33.179687-23.089844-4.296875 8.878907-8.570313 17.78125-12.773437 26.636719-1.21875 2.5625-4.066407 8.5625-.597657 13.574219 2.210938 3.1875 5.941407 4.164062 8.171875 4.746093l21.558594 5.636719c-2.042969 2.109375-4 4.414063-5.617188 6.984375-3.632812 5.78125-4.886718 12.023438-3.535156 17.585938 1.714844 7.074218 7.300782 12.039062 12.535156 15.964844 11.78125 8.832031 24.710938 15.878906 38.476563 21.015624l3.453125 120.570313-91.417969-.421875c1.933594-45.390625 2.558594-91.402344 1.835938-136.800781-.035157-2.207031-1.832031-3.96875-4.027344-3.96875-.023437 0-.046875 0-.066406 0-2.226563.035156-4.003907 1.871093-3.964844 4.097656.71875 45.34375.09375 91.300781-1.847656 136.636719l-46.679688-.214844c-4.363281-.019531-8.820312-.242188-11.121093-2.644531zm256.640624 3.777343c-3.167968-47.515624-2.203124-95.613281 2.871094-142.960937.238282-2.214844-1.367187-4.203125-3.578125-4.4375-2.21875-.242187-4.203125 1.363281-4.441406 3.578125-5.101563 47.621094-6.085937 95.988281-2.929687 143.78125l-83.226563-.382812c0-.074219.019531-.148438.015625-.222657l-3.351562-116.953125c15.441406-4.269531 29.4375-12.621094 40.515624-24.210937 3.902344-4.082031 9.117188-10.425781 9.355469-18.351563.109375-3.507812-.765625-6.699218-1.609375-9.785156-.824218-3.003906-1.601562-5.839844-1.21875-8.378906.511719-3.367188 3.277344-6.753906 7.597656-9.289063 2.394532-1.40625 5.011719-2.496093 7.78125-3.648437 2.140626-.894532 4.359376-1.816406 6.527344-2.917969 2.496094-1.269531 5.566406-3.15625 7.167969-6.503906 2.960937-6.199219-.992187-12.472657-3.609375-16.621094-4.851562-7.699219-9.796875-16.617187-12-26.539063.398438.4375.789062.863282 1.175781 1.277344 8.808594 9.492188 19.640625 17.800782 30.109375 25.835938 4.054688 3.109375 7.882813 6.042968 11.613282 9.054687 17.484374 14.109375 35.21875 29.605469 43.175781 50.214844 5.464843 14.15625 5.976562 29.84375 6.46875 45.019531l3.667969 112.726563zm0 0"/></svg>