<svg height="512pt" viewBox="-95 0 512 512.00064" width="512pt" xmlns="http://www.w3.org/2000/svg"><path d="m21.046875 507.941406c-5.15625 0-10.464844-.285156-13.789063-3.730468-3.1875-3.292969-3.296874-8.285157-3.140624-13.121094l2.628906-81.015625c.660156-20.441407 1.339844-41.574219 7.8125-61.5 7.164062-22.0625 21.242187-39.320313 38.628906-47.34375 4.558594-2.109375 9.695312-3.753907 14.226562-5.207031 8.632813-2.777344 17.566407-5.65625 24.183594-11.621094l1.820313-1.644532 2.289062.878907c12.429688 1.96875 24.1875 4.445312 31.425781 13.097656 5.832032 6.960937 7.28125 16.566406 8.269532 25.804687 3.964844 37.285157 4.339844 75.132813 1.105468 112.5-.5625 6.476563-1.410156 16.253907 4.503907 21.925782 4.3125 4.128906 10.648437 4.699218 16.851562 4.699218h.980469c7.355469-.074218 14.855469-.820312 19.613281-5.75 4.171875-4.335937 5.082031-10.726562 5.65625-16.902343 2.835938-30.210938 3.015625-60.875.535157-91.140625l-.101563-1.332032c-.699219-8.402343-1.425781-17.117187 1.074219-25.234374 2.734375-8.851563 9.59375-17.132813 19.316406-23.316407 8.726562-5.539062 18.632812-8.945312 28.214844-12.238281l.011718-.003906 3.347657-2.476563 2.382812 3.445313c2.429688 3.617187 5.132813 6.949218 8.042969 9.898437 7.8125 7.914063 17.691406 14.128907 27.246094 20.140625 15.023437 9.453125 29.171875 18.359375 36.457031 33.363282 5.601563 11.519531 5.882813 24.941406 6.132813 36.78125l2.070312 97.1875c.171875 8.230468-.546875 17.203124-7.195312 21.34375-3.613282 2.242187-7.875 2.421874-13.0625 2.421874l-32.890626.011719-.484374-3.445312c-6.050782-43.289063-4.984376-87.015625 3.164062-129.960938-8.140625 42.535157-9.253906 85.898438-3.367188 128.871094l.621094 4.542969-200.191406.050781-7.363281.011719-36.96875.011718h-.058594zm41.066406-5.628906-2.007812-125.535156-.101563-.023438 2.035156 125.484375zm0 0" fill="#ed6d66"/><path d="m157.882812 461.597656c-6.207031 0-12.539062-.566406-16.828124-4.679687-5.4375-5.21875-5.199219-13.671875-4.484376-21.882813 3.234376-37.34375 2.863282-75.199218-1.113281-112.507812-.972656-9.230469-2.414062-18.820313-8.28125-25.839844-6.683593-7.992188-17.710937-10.800781-27.613281-12.492188l-5.859375-1 3.132813-5.050781c5.214843-8.398437 6.363281-19.609375 3.15625-30.757812l-1.621094-5.636719 5.839844.550781c3.722656.347657 7.453124 1.039063 11.085937 2.058594l.53125.148437.46875.285157c.007813 0 .5625.023437.5625.023437l.515625.160156c8.769531 2.773438 16.863281 7.445313 23.402344 13.511719 3.894531 3.605469 7.3125 7.78125 10.164062 12.40625 1.199219 1.960938 2.03125 4.078125 2.992188 6.644531.898437 2.367188 1.832031 4.832032 3.21875 6.921876 1.507812 2.273437 3.117187 3.425781 4.785156 3.425781.105469 0 .203125-.003907.296875-.011719 2.636719-.203125 5.460937-3.324219 7.953125-8.785156 3.316406-7.257813 8.019531-13.898438 13.976562-19.746094 5.945313-5.824219 12.730469-10.453125 20.167969-13.757812l.132813-.054688c2.097656-.84375 12.425781-3.503906 18.109375-4.738281l5.164062-1.121094-.320312 5.269531c-.730469 12.078125 1.902343 24.265625 7.605469 35.246094l2.144531 4.117188-4.394531 1.511718c-9.402344 3.226563-19.125 6.5625-27.859376 12.121094-9.738281 6.183594-16.605468 14.476562-19.347656 23.34375-2.503906 8.109375-1.785156 16.824219-1.085937 25.253906l.113281 1.328125c2.46875 30.273438 2.285156 60.933594-.542969 91.140625-.578125 6.171875-1.488281 12.554688-5.644531 16.863282-4.734375 4.917968-12.21875 5.65625-19.601562 5.722656zm0 0" fill="#d34242"/><path d="m89.507812 160.398438-.253906-.019532c-5.433594-.359375-8.179687-6.523437-9.726562-21.988281-.121094-1.269531-.253906-2.566406-.398438-3.546875-.765625-5.238281-1.90625-10.519531-2.910156-15.175781-2.121094-9.871094-4.113281-19.144531-3.820312-29.242188.523437-17.984375 6.449218-35.671875 16.6875-49.800781 16.144531-22.265625 43.253906-36.269531 70.738281-36.550781.320312-.003907.648437-.007813.972656-.007813 27.121094 0 54.140625 13.433594 70.519531 35.0625 11.871094 15.660156 19.042969 36.132813 20.730469 59.203125 1.304687 17.773438-.882813 33.597657-6.511719 47.027344-1.269531 3.027344-3.496094 6.644531-6.910156 6.644531l-.214844-.007812c-3.855468-.179688-5.726562-4.859375-6.191406-9.175782-1.003906-9.34375-.554688-18.75 1.339844-27.953124-13.644532-1.289063-26.863282-9.125-34.511719-20.480469-7.640625-11.351563-9.929687-26.546875-5.96875-39.652344-17.570313 37.554687-55.558594 64.386719-96.828125 68.339844 1.863281 8.855469 2.242188 17.847656 1.105469 26.773437-.664063 5.25-3.296875 10.550782-7.679688 10.550782zm0 0" fill="#c67045"/><path d="m185.90625 195.863281c-.710938 0-1.421875-.015625-2.132812-.042969-5.328126-.21875-13.980469-2.148437-20.832032-6.875-6.894531 4.726563-15.539062 6.65625-20.863281 6.875-.710937.027344-1.421875.042969-2.136719.042969-4.472656 0-9.21875-.519531-15.386718-1.679687l-6.3125-1.191406 3.851562-5.140626c4.511719-6.019531 10.054688-12.855468 16.957031-17.941406 4.867188-3.574218 13.773438-7.371094 20.710938-7.371094 1.117187 0 2.175781.097657 3.15625.285157.980469-.1875 2.039062-.28125 3.144531-.28125 6.949219 0 15.859375 3.792969 20.71875 7.363281 3.152344 2.328125 6.164062 5.085938 9.21875 8.441406 3.015625 3.296875 5.722656 6.808594 7.742188 9.503906l3.859374 5.140626-6.316406 1.1875c-6.15625 1.164062-10.898437 1.683593-15.378906 1.683593zm0 0" fill="#c67045"/><path d="m161.917969 239.421875c-12.304688 0-24.214844-2.855469-34.449219-8.261719-21.183594-11.175781-35.699219-34.148437-36.113281-57.164062-3.691407 2.710937-8.382813 4.214844-13.257813 4.214844-4.527344 0-8.941406-1.320313-12.429687-3.722657-7.535157-5.199219-11.160157-15.355469-8.625-24.152343 2.269531-7.84375 9.585937-14.25 17.792969-15.582032l4.640624-.753906v4.378906l.003907.027344v.15625c.757812 7.535156 2.1875 21.28125 9.765625 21.886719.167968.007812.335937.011719.5.011719 4.988281 0 7.167968-6.664063 7.671875-10.605469.957031-7.511719.839843-15.117188-.351563-22.605469l-.644531-4.046875 4.058594-.542969c33.175781-4.460937 64.390625-23.875 83.496093-51.929687l6.25-9.175781 1.039063 11.054687c.742187 7.867187 3.414063 15.410156 7.726563 21.808594 6.988281 10.386719 18.121093 17.652343 30.535156 19.929687l3.839844.707032-.609376 3.855468c-1.253906 7.894532-1.457031 15.941406-.605468 23.917969.46875 4.332031 2.351562 9.035156 6.242187 9.238281.078125.003906.15625.007813.238281.007813 2.683594 0 5.15625-2.375 6.964844-6.6875 1.542969-3.6875 2.859375-7.695313 3.917969-11.910157l1.097656-4.371093s4.261719 1.632812 4.289063 1.640625c8.398437.835937 15.707031 7.960937 16.722656 16.269531 1.023438 8.359375-4.398438 17.078125-12.339844 19.851563-1.5.523437-3.117187.878906-4.542968 1.191406-3.105469.691406-6.320313 1.40625-8.667969 3.566406-2.210938 2.039062-3.234375 4.957031-4.226563 7.777344l-.222656.636718c-8.183594 23.046876-24.859375 41.929688-45.75 51.808594-10.46875 4.957032-22.214844 7.574219-33.957031 7.574219zm-2.125-76.941406c-7.828125 0-16.894531 4.523437-20.765625 7.375-8.445313 6.214843-14.695313 14.785156-20.738282 23.074219 7.296876 1.601562 14.421876 2.992187 21.636719 2.992187.71875 0 1.4375-.019531 2.152344-.046875 6.097656-.242188 13.316406-2.386719 18.835937-5.597656l2.011719-1.171875 2.015625 1.171875c5.507813 3.210937 12.722656 5.355468 18.832032 5.597656.710937.027344 1.421874.042969 2.132812.042969 7.222656 0 14.355469-1.390625 21.636719-2.9375l-.0625-.164063c-6.023438-8.246094-12.253907-16.777344-20.65625-22.960937-3.882813-2.851563-12.953125-7.371094-20.769531-7.371094-.894532 0-1.75.058594-2.546876.175781l-.585937.085938-.585937-.085938c-.796876-.121094-1.652344-.179687-2.542969-.179687zm0 0" fill="#ffdac4"/><path d="m160.03125 287.304688c-.96875-.535157-1.921875-1.507813-2.832031-2.886719-1.351563-2.011719-2.285157-4.476563-3.191407-6.855469-.871093-2.308594-1.742187-4.625-3.015624-6.691406-2.847657-4.628906-6.269532-8.808594-10.175782-12.421875l-.703125-.65625c-5.832031-5.226563-12.910156-9.410157-20.527343-12.121094l-3.15625-1.121094.550781-3.304687c.488281-2.933594.796875-5.875.917969-8.742188l.285156-6.773437 5.792968 3.527343c1.113282.675782 2.242188 1.316407 3.457032 1.957032 10.226562 5.402344 22.160156 8.257812 34.503906 8.257812 11.765625 0 23.511719-2.613281 33.96875-7.5625 3.492188-1.65625 6.976562-3.636718 10.351562-5.882812l5.554688-3.707032 1.585938 16.375.09375.191407.003906.9375v3.070312l-2.96875.792969c-4.097656 1.09375-5.816406 1.660156-6.1875 1.824219-7.460938 3.320312-14.265625 7.960937-20.214844 13.789062-5.980469 5.855469-10.6875 12.503907-13.988281 19.761719-1.222657 2.664062-3.714844 7.292969-6.714844 8.464844l-1.75.683594zm0 0" fill="#ffdac4"/><path d="m117.472656 196.894531c7.511719 1.597657 14.898438 3.027344 22.453125 3.027344.765625 0 1.535157-.015625 2.308594-.042969 6.828125-.273437 14.660156-2.632812 20.6875-6.144531 6.027344 3.511719 13.863281 5.871094 20.691406 6.144531 8.367188.328125 16.484375-1.222656 24.761719-2.984375 1.335938-.285156 2.4375-1.226562 2.925781-2.5.488281-1.277343.296875-2.714843-.507812-3.816406-6.226563-8.539063-12.660157-17.363281-21.601563-23.941406-5.265625-3.875-16.898437-9.320313-26.269531-7.933594-9.371094-1.386719-21 4.058594-26.269531 7.933594-8.9375 6.574219-15.371094 15.402343-21.597656 23.941406-.804688 1.101563-.996094 2.539063-.507813 3.816406.488281 1.273438 1.585937 2.214844 2.925781 2.5zm23.957032-23.761719c4.679687-3.441406 14.488281-7.578124 20.738281-6.382812.5.09375 1.011719.09375 1.507812 0 6.25-1.1875 16.0625 2.941406 20.738281 6.382812 6.273438 4.613282 11.375 10.773438 16.132813 17.121094-5.625 1.054688-11.15625 1.785156-16.613281 1.566406-5.171875-.207031-12.964844-2.195312-18.71875-6.171874-1.378906-.953126-3.207032-.953126-4.585938 0-5.753906 3.976562-13.546875 5.964843-18.71875 6.171874-5.445312.222657-10.984375-.507812-16.609375-1.566406 4.757813-6.347656 9.859375-12.511718 16.128907-17.121094zm0 0"/><path d="m322.910156 483.996094-2.070312-97.191406c-.261719-12.257813-.554688-26.152344-6.539063-38.46875-7.800781-16.050782-23.121093-25.6875-37.933593-35.007813-9.367188-5.890625-19.046876-11.984375-26.53125-19.566406-13.636719-13.820313-20.503907-34.183594-17.917969-53.148438.199219-1.449219-.4375-2.960937-1.605469-3.835937-1.492188-1.121094-2.105469-1.574219-12.917969 1.039062l-1.273437-13.175781c-.027344-.285156-.085938-.5625-.167969-.828125 13.167969-10.863281 23.519531-25.570312 29.503906-42.414062l.222657-.636719c.871093-2.472657 1.695312-4.8125 3.152343-6.152344 1.539063-1.417969 3.976563-1.957031 6.796875-2.582031 1.628906-.359375 3.3125-.734375 4.996094-1.320313 9.679688-3.382812 16.28125-14.007812 15.03125-24.183593-1.246094-10.179688-10.222656-18.890626-20.433594-19.832032-.074218-.007812-.144531.003906-.21875 0 1.46875-8.902344 1.84375-18.476562 1.097656-28.65625-1.742187-23.851562-9.191406-45.074218-21.542968-61.371094-17.371094-22.917968-46.003906-36.921874-74.773438-36.66015575-28.753906.30078175-57.105468 14.95312475-73.984375 38.23437475-10.710937 14.773438-16.914062 33.265625-17.460937 52.066407-.308594 10.605468 1.835937 20.574218 3.910156 30.214843.71875 3.34375 1.445312 6.765625 2.074219 10.199219-9.765625 1.535156-18.429688 8.945312-21.183594 18.488281-3.003906 10.425781 1.292969 22.460938 10.226563 28.621094 7.03125 4.851563 16.449218 5.722656 24.375 2.695313 2.140624 17.957031 11.757812 34.871093 26.191406 46.542968-.019532.175782-.042969.351563-.039063.53125.105469 4.023438-.152343 8.054688-.761719 12.03125-4.796874-1.085937-9.714843-1.664062-14.660156-1.664062-.144531 0-.292968 0-.4375 0-1.34375.011718-2.597656.691406-3.335937 1.8125-.742188 1.121094-.875 2.539062-.355469 3.777344 6.484375 15.472656 2.648438 29.457031-4.03125 36.453124-6.023438 6.3125-14.824219 9.144532-24.140625 12.140626-4.886719 1.574218-9.9375 3.199218-14.683594 5.390624-18.410156 8.496094-33.277343 26.636719-40.789062 49.777344-6.640625 20.457032-7.335938 41.890625-8.011719 62.621094l-2.6328125 81.023438c-.1367187 4.21875-.3671875 11.277343 4.2929685 16.085937 4.421875 4.5625 10.9375 4.953125 16.707032 4.953125h.050781l277.488281-.082031c4.347656 0 10.308594-.003907 15.199219-3.042969 8.386719-5.214844 9.316406-15.5 9.117187-24.878906zm-246.511718-393.453125c.5-17.199219 6.15625-34.09375 15.925781-47.570313 15.414062-21.253906 41.292969-34.628906 67.542969-34.902344 26.273437-.308593 52.40625 12.546876 68.261718 33.46875 11.410156 15.050782 18.300782 34.792969 19.929688 57.085938 1.253906 17.140625-.835938 32.34375-6.214844 45.191406-1.15625 2.765625-2.484375 4.191406-3.21875 4.191406-.007812 0-.019531 0-.027344-.003906-.855468-.042968-2.054687-2.359375-2.402344-5.617187-.960937-8.925781-.527343-17.910157 1.28125-26.710938.234376-1.121093-.023437-2.292969-.707031-3.214843-.683593-.917969-1.726562-1.507813-2.871093-1.613282-12.460938-1.148437-24.546876-8.3125-31.535157-18.695312-6.988281-10.382813-9.078125-24.277344-5.457031-36.253906.613281-2.027344-.441406-4.179688-2.417969-4.933594-1.972656-.757813-4.199219.144531-5.09375 2.0625-16.929687 36.308594-53.640625 62.246094-93.523437 66.066406-1.148438.109375-2.191406.703125-2.871094 1.632812-.679688.929688-.929688 2.101563-.6875 3.226563 1.792969 8.363281 2.15625 16.90625 1.074219 25.394531-.492188 3.863282-2.246094 7.175782-3.800781 7.046875-1.054688-.074219-4.269532-.300781-6.078126-18.40625-.144531-1.453125-.269531-2.707031-.417968-3.722656-.773438-5.273437-1.886719-10.441406-2.960938-15.4375-2.0625-9.59375-4.011718-18.65625-3.730468-28.285156zm18.960937 83.382812c-.027344-1.515625-.902344-2.886719-2.261719-3.550781s-2.976562-.511719-4.191406.398438c-5.890625 4.421874-14.902344 4.601562-20.964844.421874-6.0625-4.183593-9.097656-12.671874-7.054687-19.75 1.863281-6.464843 7.941406-11.65625 14.589843-12.746093.003907.03125.003907.058593.011719.09375.867188 8.6875 2.484375 24.859375 13.527344 25.648437.246094.015625.484375.023438.726563.023438 6.792968 0 10.738281-6.972656 11.644531-14.097656 1.007812-7.921876.878906-15.890626-.375-23.746094 34.660156-4.65625 66.648437-24.816406 86.269531-53.640625.792969 8.40625 3.636719 16.609375 8.394531 23.675781 7.613281 11.308594 19.777344 19.179688 33.132813 21.625-1.3125 8.257812-1.527344 16.636719-.628906 24.96875.820312 7.625 4.652343 12.53125 10 12.808594 2.664062.144531 7.644531-.863282 11.101562-9.128906 1.660156-3.964844 3.027344-8.132813 4.113281-12.480469.34375.132812.699219.238281 1.082031.273437 6.472657.597656 12.382813 6.332032 13.175782 12.785156.792968 6.449219-3.554688 13.445313-9.691406 15.589844-1.230469.429688-2.613282.734375-4.074219 1.058594-3.460938.765625-7.378907 1.632812-10.515625 4.523438-2.9375 2.699218-4.191406 6.265624-5.300782 9.410156l-.214843.609375c-7.832031 22.050781-23.753907 40.105469-43.6875 49.539062-20.714844 9.796875-45.5625 9.5625-64.839844-.613281-19.933594-10.523438-33.585937-32.105469-33.96875-53.699219zm25.570313 67.976563c.507812-3.054688.832031-6.136719.96875-9.230469 1.199218.726563 2.421874 1.421875 3.667968 2.082031 11 5.804688 23.601563 8.714844 36.367188 8.714844 12.164062 0 24.476562-2.644531 35.683594-7.941406 3.761718-1.78125 7.382812-3.859375 10.859374-6.167969l1.011719 10.4375c0 .011719.003907.019531.003907.03125-2.910157.777344-5.820313 1.601563-6.769532 2.023437-7.90625 3.523438-15.105468 8.433594-21.398437 14.59375-6.324219 6.199219-11.316407 13.25-14.832031 20.960938-1.980469 4.339844-3.832032 6.132812-4.523438 6.402344-.179688-.105469-.695312-.472656-1.433594-1.589844-1.117187-1.675781-1.9375-3.84375-2.808594-6.136719-.921874-2.4375-1.878906-4.957031-3.328124-7.308593-3.03125-4.929688-6.6875-9.390626-10.863282-13.261719 0 0 0 0 0-.003907-6.484375-6.011718-14.238281-10.621093-22.605468-13.605468zm-17.09375 4.378906c3.515624.328125 6.988281.984375 10.375 1.929688.367187.21875.761718.402343 1.203124.496093.25.054688.5.074219.746094.082031 8.132813 2.570313 15.679688 6.871094 21.890625 12.628907 3.640625 3.375 6.832031 7.273437 9.480469 11.574219 1.046875 1.703124 1.828125 3.765624 2.65625 5.945312.992188 2.609375 2.015625 5.308594 3.628906 7.738281 3.066406 4.617188 6.4375 5.371094 8.726563 5.191407 4.273437-.339844 8.070312-4.082032 11.285156-11.121094 3.101563-6.804688 7.523437-13.042969 13.136719-18.542969 5.605468-5.488281 12.007812-9.859375 18.988281-12.964844 1.722656-.683593 11.582031-3.257812 17.46875-4.539062-.777344 12.917969 2.089844 25.859375 8.054687 37.332031-9.699218 3.332031-19.703124 6.804688-28.714843 12.53125-10.53125 6.6875-17.992188 15.757812-21.015625 25.539062-2.738282 8.855469-1.980469 17.976563-1.25 26.800782l.105468 1.300781c2.457032 30.015625 2.277344 60.441406-.535156 90.425781-.511718 5.464844-1.28125 11.085938-4.539062 14.460938-3.714844 3.855468-10.253906 4.445312-16.761719 4.503906-6.6875.0625-11.769531-.519531-14.941406-3.5625-4.160157-3.992188-3.898438-11.398438-3.269531-18.644531 3.257812-37.621094 2.882812-75.734375-1.117188-113.28125-1.046875-9.851563-2.621094-20.125-9.1875-27.980469-7.730469-9.242188-20.300781-12.210938-30.019531-13.867188 5.792969-9.335937 7.140625-21.710937 3.605469-33.976562zm205.699218 255.75c-2.722656 1.691406-6.410156 1.824219-10.945312 1.828125l-29.410156.007813c-5.992188-42.859376-4.949219-86.136719 3.128906-128.660157.414062-2.1875-1.023438-4.296875-3.210938-4.714843-2.1875-.417969-4.296875 1.019531-4.710937 3.210937-8.171875 43.019531-9.28125 86.796875-3.339844 130.164063l-194.925781.058593c0-.042969.011718-.085937.011718-.132812l-2.03125-127.078125c-.035156-2.203125-1.832031-3.964844-4.027343-3.964844-.023438 0-.042969 0-.066407 0-2.226562.035156-4 1.867188-3.964843 4.09375l2.027343 127.078125v.007813l-36.96875.011718c-.019531 0-.035156 0-.054687 0-4.300781 0-8.679687-.199218-10.910156-2.503906-2.105469-2.167969-2.15625-6.230469-2.023438-10.207031l2.632813-81.027344c.65625-20.167969 1.332031-41.023437 7.621094-60.394531 6.820312-21.007813 20.125-37.386719 36.5-44.945313 4.300781-1.984375 9.117187-3.535156 13.773437-5.035156 9.066406-2.914063 18.40625-5.933594 25.636719-12.453125.257812.097656.523437.171875.804687.214844 11.652344 1.839844 22.636719 4.121094 28.980469 11.710937 5.117188 6.117188 6.441406 15.042969 7.359375 23.660157 3.941406 37.035156 4.3125 74.625 1.101563 111.730468-.589844 6.792969-1.574219 18.164063 5.71875 25.160156 5.207031 4.996094 12.457031 5.8125 19.625 5.8125.324218 0 .648437 0 .976562-.003906 8.261719-.078125 16.710938-.976562 22.488281-6.96875 5.0625-5.253906 6.121094-12.417968 6.765625-19.308594 2.851563-30.453124 3.035156-61.351562.542969-91.835937l-.109375-1.308594c-.667969-8.058593-1.355469-16.390625.917969-23.753906 2.460937-7.957031 8.722656-15.453125 17.636719-21.117187 8.347656-5.300782 18.0625-8.636719 27.457031-11.863282.382812-.132812.722656-.328125 1.035156-.554687 2.496094 3.722656 5.328125 7.246093 8.519531 10.476562 8.136719 8.246094 18.21875 14.59375 27.972656 20.726563 14.492188 9.121094 28.183594 17.730468 34.976563 31.710937 5.210937 10.722657 5.488281 23.683594 5.730469 35.117188l2.070312 97.1875c.152344 7.105469-.359375 14.785156-5.3125 17.863281zm0 0"/></svg>