<svg height="512pt" viewBox="-96 0 512 512.00319" width="512pt" xmlns="http://www.w3.org/2000/svg"><path d="m163.585938 507.921875c-13.640626 0-27.53125-.109375-41.28125-.324219l-3.339844-.050781-.542969-3.292969c-9.859375-59.382812-21.734375-119.207031-35.292969-177.816406l-.726562-3.140625 2.917968-1.375c4.207032-1.988281 7.773438-4.148437 10.894532-6.601563l6.347656-4.984374.125 8.070312c.230469 15.050781 3.496094 30.242188 9.445312 43.9375 4.230469 9.726562 9.585938 15.015625 15.921876 15.71875.425781.042969.878906.066406 1.34375.066406 5.761718 0 11.839843-4.113281 16.671874-11.277344.917969-1.367187 1.8125-2.820312 2.671876-4.222656l.441406-.71875c1.632812-2.675781 3.316406-5.4375 5.265625-7.859375l4.519531-5.621093 2.375 6.8125c1.535156 4.40625 3.808594 10.046874 7.800781 14.597656 3.933594 4.492187 9.863281 7.390625 15.097657 7.390625h.003906c1.921875 0 3.777344-.371094 5.511718-1.109375 4.34375-1.847656 7.421876-5.75 10.101563-9.691406 10.125-14.867188 17.136719-32.128907 20.289063-49.925782l1.238281-6.996094 5.339843 4.683594c2.894532 2.539063 6.113282 5.042969 9.84375 7.648438l2.492188 1.746094-1.015625 2.867187c-20.4375 57.835937-36.730469 117.632813-48.4375 177.742187v3.578126l-3.96875.054687c-7.300781.0625-14.71875.09375-22.054687.09375zm0 0" fill="#935252"/><path d="m189.910156 503c11.554688-59.023438 27.546875-117.773438 47.535156-174.617188l1.664063-4.742187 4.246094 2.6875c2.109375 1.332031 4.382812 2.722656 7.15625 4.371094l4.042969 2.398437c10.945312 6.453125 22.273437 13.128906 31.5 22.21875 18.175781 17.894532 25.238281 42.25 27.964843 59.527344 3.496094 22.136719 2.222657 44.835938.988281 66.789062-.398437 7.15625-1.292968 15.15625-6.894531 19.457032-3.796875 2.914062-8.695312 3.378906-14.238281 3.652344-11.785156.585937-24.246094 1.105468-37.03125 1.554687l-4.425781.152344.296875-4.421875c2.019531-30.066406 6.960937-60.03125 14.6875-89.066406-7.859375 29.308593-12.820313 59.550781-14.816406 89.871093l-.234376 3.617188-3.625.117187c-18.136718.585938-36.589843.988282-54.84375 1.199219l-4.917968.058594zm0 0" fill="#59bd8b"/><path d="m114.09375 507.457031c-16.59375-.308593-33.414062-.78125-50-1.410156l-3.796875-.144531-.050781-3.804688c-.40625-31.714844-2.941406-63.703125-7.535156-95.082031 4.507812 31.257813 7.042968 63.105469 7.464843 94.667969l.058594 4.226562-4.222656-.175781c-11.160157-.460937-21.402344-.9375-31.316407-1.460937-5.78125-.300782-11.746093-.921876-15.550781-4.820313-3.878906-3.976563-4.277343-9.875-4.355469-16.082031l-.621093-48.28125c-.222657-16.886719-.453125-34.347656 3.558593-51.132813 4.460938-18.683593 13.992188-33.75 26.832032-42.433593 8.800781-5.945313 18.816406-8.929688 29.417968-12.085938l.109376-.035156c4.617187-1.371094 9.394531-2.792969 14.011718-4.488282l4.257813-1.5625 1.019531 4.417969c13.285156 57.578125 24.976562 116.46875 34.738281 175.03125l.792969 4.746094zm0 0" fill="#59bd8b"/><path d="m184.226562 377.15625c-5.296874 0-11.0625-2.820312-15.039062-7.363281-5.117188-5.835938-7.5625-13.648438-9.71875-20.539063l-1.523438-4.867187 5.085938-.320313c20.40625-1.292968 39.484375-13.183594 49.789062-31.027344l7.410157 2.671876c-3.082031 18.0625-10.144531 35.585937-20.417969 50.679687-2.683594 3.9375-5.765625 7.832031-10.078125 9.667969-1.714844.730468-3.566406 1.097656-5.507813 1.097656zm0 0" fill="#af7979"/><path d="m129.457031 378.070312c-.46875 0-.941406-.023437-1.40625-.078124-6.296875-.6875-11.636719-5.957032-15.859375-15.667969-5.445312-12.535157-8.667968-26.4375-9.328125-40.203125l-.617187-12.828125 7.792968 10.207031c10.675782 13.992188 27.4375 23.148438 44.839844 24.5l9.125.707031-6.71875 6.21875c-3.363281 3.109375-5.832031 7.152344-8.222656 11.058594l-.128906.210937c-.980469 1.605469-1.902344 3.121094-2.925782 4.625-2.816406 4.195313-8.726562 11.25-16.550781 11.25zm0 0" fill="#af7979"/><path d="m56.011719 246.664062c-10.011719 0-18.929688-3.480468-24.46875-9.550781-8.132813-8.878906-6.960938-21.867187-.816407-27.972656-5.863281-2.1875-10.46875-7.519531-12.328124-14.316406-1.863282-6.816407-.609376-13.753907 3.351562-18.5625.785156-.964844 1.671875-1.890625 2.613281-2.871094l.15625-.160156c3.660157-3.8125 6.210938-6.8125 5.691407-10.738281-.417969-3.15625-2.953126-5.582032-5.191407-7.726563-.472656-.449219-.929687-.886719-1.367187-1.332031-5.660156-5.671875-8.886719-14.003906-8.816406-22.828125.078124-8.816407 3.433593-17.097657 9.199218-22.714844 1.363282-1.316406 2.875-2.5625 4.207032-3.660156 3.46875-2.867188 7.050781-5.824219 8.691406-10.003907 1.3125-3.355468 1.179687-7.066406 1.046875-10.648437l-.023438-.695313c-.035156-1.015624-.070312-2.0625-.0625-3.101562.15625-16.71875 13-32.933594 29.238281-36.90625 1.433594-.355469 2.847657-.617188 4.347657-.894531l.183593-.035157c4.136719-.769531 8.414063-1.5625 11.832032-4.058593 2.636718-1.933594 4.417968-4.59375 6.308594-7.40625l.324218-.484375c.5-.746094 1.003906-1.496094 1.53125-2.214844 7.566406-10.421875 20.855469-16.902344 34.667969-16.902344 7.234375 0 14.179687 1.785156 20.085937 5.167969 5.273438-7.382813 14.664063-11.964844 24.542969-11.964844 5.734375 0 11.097657 1.535157 15.519531 4.445313 1.292969.851562 2.574219 1.84375 3.707032 2.714844 2.71875 2.105468 5.5 4.253906 8.800781 5.144531 1.21875.328125 2.472656.488281 3.839844.488281 3.375 0 6.785156-.992188 10.085937-1.953125 2.382813-.699219 4.839844-1.417969 7.308594-1.773437 1.121094-.160157 2.28125-.246094 3.4375-.246094 7.3125 0 14.496094 3.234375 19.214844 8.648437 5.492187 6.3125 7.542968 15.574219 5.226562 23.597657 1.933594-.332032 3.886719-.519532 5.847656-.519532 10.742188 0 21.0625 5.414063 26.929688 14.128906 6.988281 10.378907 7.09375 24.953126.25 35.4375-.3125.484376-.660156 1-1.003906 1.511719-3.011719 4.457031-5.191406 8.15625-3.621094 11.875 1.085938 2.566407 3.648438 3.992188 6.125 5.375l.542969.3125c.296875.167969.589843.335938.878906.507813 8.769531 5.152344 14.457031 15.460937 14.15625 25.640625-.300781 10.175781-6.59375 20.128906-15.65625 24.765625 9.039063 4.683594 14.621094 15.726562 12.984375 25.742187-1.625 10.011719-10.421875 18.710938-20.457031 20.230469 6.246093 5.949219 6.878906 17.03125 1.390625 24.75-4.808594 6.746094-13.816406 10.933594-23.511719 10.933594-7.683594-.019532-15.589844-2.234375-24.96875-6.96875l-3.496094-1.765625 1.6875-3.527344c1.71875-3.601563 3.160157-7.363281 4.28125-11.1875l.792969-2.703125 2.816406-.160156c8.859375-.515625 17.203125-5.09375 22.3125-12.253906 6.265625-8.789063 4.734375-19.410157-.632812-23.8125-2.59375-2.128907-5.804688-3.164063-9.808594-3.164063-2.210938 0-4.644531.308594-7.4375.941406l-5.867188 1.332031 1.042969-5.925781c1.078125-6.140625.992188-12.355469-.261719-18.472656l-.203124-.992187.292968-.96875c6.074219-20.097657-1.402344-44.046876-18.613281-59.59375-14.425781-13.035157-35.707031-20.511719-58.386719-20.511719-.957031 0-1.914062.015625-2.871094.039062-23.699218.644531-45.558593 9.214844-59.972656 23.511719-7.769531 7.707031-13.480468 17.34375-16.511718 27.867188-3.054688 10.914062-4.515626 24.847656-.5 29.636718l1.5 1.789063-.820313 2.1875.292969 15.140625.089844 4.261718-4.257813-.183593c-.269531-.011719-.539063-.015625-.808594-.015625-7.101562 0-13.863281 3.867187-17.222656 9.855468-4.304687 7.660157-2.652344 17.902344 3.835937 23.828126 3.441407 3.144531 8.242188 4.945312 13.171876 4.945312 2.347656 0 4.625-.394531 6.769531-1.171875l4.109375-1.484375 1.117187 4.21875c1.109375 4.175781 2.695313 8.4375 4.707031 12.667969l1.8125 3.8125-3.898437 1.605469c-8.9375 3.683593-17.738281 7.054687-27.15625 7.878906-1.289063.109375-2.597656.167968-3.878906.167968zm0 0" fill="#644c4c"/><path d="m156.464844 311.246094c-1.207032 0-2.410156-.097656-3.570313-.292969-6.105469-1.035156-12.035156-4.773437-16.695312-10.527344-4.515625-5.566406-7.816407-12.816406-9.800781-21.550781-.667969-2.957031-1.199219-6.042969-1.621094-9.441406-.183594-1.472656-.351563-3.011719-.503906-4.703125l-.703126-7.730469 6.703126 3.914062c1.980468 1.15625 4.046874 1.96875 6.140624 2.410157 1.171876.246093 2.375.371093 3.566407.371093 4.226562 0 8.160156-1.5625 10.785156-4.292968 2.859375-2.953125 2.886719-5.804688 2.910156-9.105469 0-.609375.011719-1.261719.035157-1.941406l.09375-2.996094 2.898437-.753906c.5625-.144531 1.238281-.242188 2.125-.304688l4.347656-.316406-.058593 4.355469c-.042969 3.355468.210937 5.882812.824218 8.1875 1.203125 4.519531 4.039063 8.054687 7.582032 9.449218 1.25.488282 2.59375.738282 3.996093.738282.761719 0 1.53125-.074219 2.296875-.226563 2.289063-.421875 4.386719-1.371093 6.453125-2.910156l8.152344-6.070313-1.828125 10s-.308594 1.738282-.382812 2.128907c-.664063 3.585937-1.304688 6.539062-2.007813 9.292969-2.589844 10.050781-6.425781 17.625-11.726563 23.15625-5.566406 5.820312-12.859374 9.160156-20.011718 9.160156zm0 0" fill="#644c4c"/><path d="m191.703125 261.382812c.445313-2.605468.9375-5.398437 1.515625-8.1875-4.148438 5.992188-8.710938 11.984376-15.40625 13.234376-.734375.144531-1.515625.21875-2.285156.21875-1.421875 0-2.773438-.25-4.015625-.746094-3.496094-1.367188-6.3125-4.882813-7.511719-9.394532-1.078125-4.050781-.867188-8.296874-.660156-12.398437-.070313 0-.140625 0-.210938 0-.703125 0-1.449218.019531-2.175781.039063-6.003906.148437-7.195313 1.5-7.300781 3.941406-.027344.734375-.035156 1.464844-.035156 2.167968-.03125 3.464844-.054688 6.175782-2.902344 9.105469-2.609375 2.707031-6.539063 4.265625-10.769532 4.265625-1.179687 0-2.363281-.121094-3.519531-.363281-5.878906-1.246094-10.269531-5.085937-12.917969-8.089844l-.011718.589844c.140625 2.023437.289062 4.066406.457031 6.117187l.652344 7.949219-6.761719-4.230469c-17.671875-11.0625-30.566406-29.738281-34.484375-49.949218-3.160156 2.113281-6.917969 3.242187-10.917969 3.242187-4.917968 0-9.707031-1.789062-13.136718-4.90625-6.46875-5.914062-8.109376-16.128906-3.828126-23.765625 3.339844-5.964844 10.085938-9.816406 17.179688-9.816406 1.746094 0 3.460938.238281 5.085938.714844l-.363282-19.757813c-.015625-.152343-.023437-.304687-.023437-.453125v-1.324218l.789062-1.0625c.101563-.136719.199219-.25.292969-.351563l1.15625-1.558594c9.152344-12.269531 17.050781-22.851562 30.300781-31.089843 13.519531-8.394532 28.6875-13.070313 43.867188-13.53125.828125-.023438 1.660156-.039063 2.492187-.039063 30.746094 0 60.753906 17.058594 76.449219 43.453125l.628906 1.058594-.074219 1.226562c1.8125 8.367188 1.390626 17.175782-1.242187 25.398438 3.988281-1.246094 9.117187-2.71875 13.828125-2.71875 4 0 7.324219 1.058594 9.867188 3.148437 6.835937 5.601563 5.636718 16.671875.609374 23.714844-5.398437 7.570313-14.574218 12.277344-23.941406 12.277344-.394531 0-.785156-.007813-1.175781-.023438-4.699219 18.800781-16.871094 35.542969-33.429687 45.957031l-7.582032 4.769532zm0 0" fill="#efb17c"/><path d="m159.511719 344.117188c-22.679688 0-44.8125-13.507813-55.066407-33.609376l-1.109374-2.171874 1.421874-1.980469c7.296876-10.171875 10.519532-23.519531 8.617188-35.699219l-1.316406-8.429688 7.320312 4.378907c1.128906.675781 2.308594 1.332031 3.503906 1.953125l1.820313.949218.292969 2.03125c.382812 2.664063.820312 5.066407 1.339844 7.351563 1.984374 8.746094 5.285156 16.003906 9.8125 21.574219 4.671874 5.765625 10.613281 9.511718 16.734374 10.550781 1.125.1875 2.316407.28125 3.535157.28125 7.097656 0 14.609375-3.425781 20.097656-9.164063 5.308594-5.546874 9.152344-13.132812 11.75-23.1875.546875-2.113281 1.070313-4.464843 1.648437-7.394531l.375-1.898437 1.722657-.886719c2.03125-1.039063 3.972656-2.136719 5.777343-3.261719l6.726563-4.199218-.621094 7.90625c-.554687 7.035156 1.050781 18.492187 11.859375 33.117187l1.714844 2.328125-1.667969 2.359375c-.019531.027344-.042969.058594-.058593.089844-9.175782 21.117187-31.683594 36.335937-54.722657 36.988281-.503906.015625-1.003906.023438-1.507812.023438zm0 0" fill="#efb17c"/><path d="m214.855469 96.65625c-14.417969-13.015625-35.691407-20.476562-58.367188-20.476562-.941406 0-1.886719.007812-2.851562.03125-23.679688.644531-45.523438 9.210937-59.9375 23.496093-7.757813 7.691407-13.457031 17.316407-16.488281 27.835938-2.582032 8.992187-3.269532 18.960937-2.613282 24.15625l1.238282 9.800781 5.929687-7.898438c8.214844-10.945312 15.996094-20.613281 28.101563-28.136718 13.523437-8.398438 28.699218-13.078125 43.894531-13.539063.832031-.027343 1.667969-.039062 2.5-.039062 27.632812 0 55.175781 14 71.882812 36.535156l6.253907 8.4375.941406-10.464844c1.605468-17.8125-6.242188-36.871093-20.484375-49.738281zm0 0" fill="#5bd0fc"/><path d="m318.035156 414.214844c-2.820312-17.886719-10.164062-43.125-29.128906-61.796875-9.539062-9.390625-21.105469-16.222657-32.292969-22.824219-1.34375-.792969-2.683593-1.589844-4.023437-2.382812-11.761719-7.003907-23.964844-14.773438-32.523438-25.894532-4.988281-6.480468-16.046875-23.085937-11.019531-37.269531.234375-.664063.265625-1.339844.160156-1.988281 6.585938-5.617188 12.253907-12.277344 16.738281-19.667969 10.035157 5.089844 18.605469 7.484375 26.910157 7.507813h.109375c11.148437 0 21.164062-4.71875 26.804687-12.632813 5.25-7.371094 5.800781-17.339844 1.988281-24.769531 9.101563-3.683594 16.195313-12.140625 17.789063-21.921875 1.578125-9.707031-2.382813-19.894531-9.734375-26.285157 7.4375-5.964843 12.164062-15.128906 12.449219-24.753906.347656-11.792968-5.992188-23.28125-16.152344-29.269531-.492187-.285156-.992187-.570313-1.5-.851563-1.964844-1.101562-3.824219-2.136718-4.363281-3.414062-.835938-1.984375 1.234375-5.050781 3.238281-8.019531.355469-.527344.710937-1.050781 1.046875-1.5625 7.707031-11.8125 7.589844-28.230469-.285156-39.929688-6.808594-10.113281-19.039063-16.199219-31.210938-15.898437.621094-7.800782-1.902344-15.742188-7.097656-21.703125-6.472656-7.429688-16.550781-11.167969-26.296875-9.757813-2.726563.394532-5.332031 1.152344-7.851563 1.886719-4.234374 1.234375-8.226562 2.398437-11.738281 1.449219-2.535156-.683594-4.890625-2.503906-7.386719-4.429688-1.253906-.972656-2.554687-1.976562-3.953124-2.894531-13.347657-8.796875-32.726563-5.9375-43.355469 5.792969-19.148438-8.882813-44.527344-2.6875-56.992188 14.476562-.664062.914063-1.300781 1.859375-1.9375 2.808594-1.683593 2.511719-3.273437 4.882812-5.335937 6.390625-2.65625 1.949219-6.304688 2.625-10.167969 3.339844-1.550781.285156-3.15625.585937-4.75.976562-18.261719 4.472657-32.164063 22.027344-32.335937 40.828125-.011719 1.324219.039062 2.636719.085937 3.90625.121094 3.34375.238281 6.496094-.777344 9.089844-1.253906 3.203125-4.285156 5.703125-7.488281 8.347656-1.484375 1.222656-3.019531 2.492188-4.453125 3.886719-6.546875 6.367187-10.347656 15.699219-10.425781 25.597656-.078125 9.898438 3.578125 19.285157 10.023437 25.757813.453125.457031.929688.910156 1.40625 1.367187 1.925781 1.84375 3.746094 3.585938 3.976563 5.324219.28125 2.125-1.636719 4.304688-4.589844 7.382812-1.003906 1.046876-2.042969 2.128907-2.988281 3.277344-4.792969 5.828125-6.335938 14.128906-4.128907 22.203125 1.691407 6.195313 5.355469 11.378907 10.171876 14.625-4.589844 8.164063-4.332032 20.351563 3.894531 29.34375 6.347656 6.945313 16.421875 10.871094 27.511719 10.871094 1.386718 0 2.785156-.0625 4.195312-.183594 10.386719-.914062 19.914062-4.679687 29.117188-8.492187 4.832031 8.007812 11.023437 15.222656 18.230468 21.148437-.050781.539063.007813 1.097657.191406 1.648438 5.601563 16.570312-.316406 36.449219-14.066406 47.257812-8.671875 6.820313-19.421875 10.019531-30.800781 13.402344-10.46875 3.113281-21.292969 6.335937-30.640625 12.648437-13.679688 9.246094-23.804688 25.175782-28.507812 44.851563-4.121094 17.25-3.890626 34.980469-3.671876 52.128906l.621094 48.28125c.085938 6.773438.582032 13.808594 5.511719 18.863281 4.824219 4.945313 11.660156 5.699219 18.25 6.046876 46.261719 2.445312 92.859375 3.667968 139.453125 3.667968 43.480469 0 86.953125-1.066406 130.132812-3.195312 4.808594-.234375 11.394532-.558594 16.511719-4.488282 6.96875-5.34375 8.035157-14.394531 8.484375-22.460937 1.242188-22.167969 2.523438-45.085937-1.03125-67.644531zm-101.75-99.179688c-2.992187 17.519532-9.78125 34.410156-19.78125 49.101563-2.335937 3.429687-4.960937 6.804687-8.332031 8.242187-5.453125 2.320313-12.164063-.871094-15.976563-5.21875-4.5625-5.199218-6.871093-12.578125-8.90625-19.105468 21.773438-1.375 42.128907-14.199219 52.996094-33.019532zm-156.742187-72.523437c-10.230469.894531-19.59375-2.125-25.050781-8.09375-6.414063-7.011719-5.789063-17.632813-.945313-22.441407.980469-.972656 1.394531-2.378906 1.097656-3.726562s-1.261719-2.453125-2.558593-2.921875c-4.636719-1.6875-8.3125-6.011719-9.832032-11.566406-1.515625-5.550781-.554687-11.144531 2.582032-14.953125.746093-.910156 1.632812-1.835938 2.574218-2.8125 3.375-3.519532 7.578125-7.898438 6.765625-14.027344-.601562-4.542969-3.8125-7.621094-6.390625-10.089844-.433594-.414062-.859375-.824218-1.273437-1.234375-4.933594-4.957031-7.730469-12.246093-7.671875-20.003906.0625-7.757813 2.972656-15.003906 7.984375-19.878906 1.199219-1.167969 2.542969-2.273438 3.964843-3.445313 3.675782-3.039062 7.847657-6.476562 9.863282-11.628906 1.628906-4.15625 1.46875-8.496094 1.328125-12.328125-.046875-1.230469-.089844-2.398437-.078125-3.539063.136718-14.976562 11.640625-29.5 26.1875-33.066406 1.375-.335937 2.796875-.597656 4.304687-.878906 4.367188-.808594 9.316407-1.726562 13.457031-4.761719 3.207032-2.34375 5.273438-5.425781 7.269532-8.40625.582031-.863281 1.160156-1.726562 1.765625-2.5625 10.84375-14.925781 33.527343-19.792969 49.539062-10.625 1.800781 1.03125 4.089844.527344 5.289063-1.164062 7.40625-10.429688 23.878906-13.519531 34.5625-6.484375 1.140625.753906 2.265625 1.621094 3.457031 2.542968 2.871094 2.21875 6.125 4.734376 10.21875 5.835938 5.691406 1.535156 11.21875-.074219 16.089844-1.492188 2.359375-.6875 4.585937-1.335937 6.75-1.648437 6.964843-1.007813 14.445312 1.769531 19.066406 7.074219 4.621094 5.300781 6.347656 13.09375 4.398437 19.855468-.386718 1.347657-.046874 2.800782.902344 3.839844.945313 1.035156 2.363282 1.503906 3.742188 1.230469 10.753906-2.089844 22.539062 2.789063 28.65625 11.878906 6.117187 9.089844 6.207031 21.84375.21875 31.019531-.3125.480469-.640625.964844-.976563 1.460938-2.75 4.074219-6.519531 9.65625-3.980469 15.667969 1.617188 3.828125 5.078126 5.761719 7.855469 7.316406.453125.25.902344.503906 1.339844.761719 7.550781 4.449218 12.445313 13.320312 12.1875 22.082031-.257813 8.757813-5.671875 17.328125-13.472656 21.324219-1.347657.691406-2.195313 2.074218-2.195313 3.589844 0 1.511718.847656 2.898437 2.195313 3.589843 7.554687 3.867188 12.222656 13.097657 10.859375 21.476563-1.367188 8.375-8.722656 15.648437-17.117188 16.917968-1.523437.230469-2.785156 1.3125-3.246094 2.785157-.457031 1.476562-.035156 3.082031 1.085938 4.140625 4.792969 4.503906 5.199219 13.417968.890625 19.464844-4.070313 5.710937-11.820313 9.25-20.242187 9.25-.027344 0-.054688 0-.082032 0-6.945312-.019532-14.308594-2.105469-23.089844-6.535157 1.808594-3.792969 3.320313-7.734375 4.503907-11.785156 9.996093-.574219 19.492187-5.726563 25.339843-13.921875 6.085938-8.53125 7.304688-22.128906-1.34375-29.226562-5.886718-4.816407-13.363281-4.6875-20.675781-3.027344 1.164063-6.597656 1.070313-13.378906-.28125-19.96875 6.519531-21.570313-1.390625-47.136719-19.753906-63.726563-15.863281-14.332031-39.210937-22.179687-64.054687-21.496093-24.703126.667968-47.546876 9.660156-62.683594 24.667968-8.25 8.183594-14.3125 18.417969-17.53125 29.597656-.320313 1.109376-6.972656 24.660157.273437 33.316407-.183593.472656-.28125.988281-.269531 1.523437l.308594 15.101563c-8.65625-.371094-17.378906 4.199219-21.6875 11.878906-5.183594 9.246094-3.191406 21.601563 4.632812 28.746094 6.417969 5.851562 15.957032 7.484375 23.996094 4.582031 1.226562 4.578125 2.917969 9.042969 4.964844 13.351562-8.402344 3.46875-17.066406 6.816407-25.984375 7.597657zm94.097656-134.582031c-15.898437.484374-31.765625 5.371093-45.882813 14.140624-12.761718 7.929688-20.96875 18.171876-29.1875 29.125-.628906-4.992187.132813-14.371093 2.488282-22.546874 2.839844-9.863282 8.1875-18.890626 15.464844-26.105469 13.691406-13.578125 34.546874-21.71875 57.21875-22.332031.917968-.027344 1.832031-.039063 2.742187-.039063 21.753906 0 41.925781 7.019531 55.691406 19.457031 13.5625 12.253906 20.660157 29.976563 19.179688 46.40625-17.789063-23.996094-47.839844-39.03125-77.714844-38.105468zm-66.351563 106.953124c-.257812-1.332031-1.171874-2.449218-2.429687-2.964843-1.257813-.511719-2.695313-.359375-3.8125.410156-5.628906 3.875-13.996094 3.300781-19.046875-1.304687-5.042969-4.605469-6.375-12.882813-3.035156-18.84375 3.347656-5.960938 11.101562-9.132813 17.660156-7.222657 1.230469.359375 2.5625.113281 3.582031-.667969s1.605469-2 1.578125-3.285156l-.410156-19.914062c-.003906-.0625-.019531-.117188-.023438-.179688.039063-.046875.085938-.078125.121094-.125l1.328125-1.78125c8.902344-11.9375 16.59375-22.246094 29.207031-30.082031 12.914063-8.019531 27.394532-12.492187 41.875-12.933594 29.933594-.917969 60.070313 15.710938 75.378907 41.453125-.015625.339844 0 .679688.074219 1.027344 1.679687 7.75 1.289062 15.84375-1.128907 23.398438-.460937 1.441406-.078125 3.019531.996094 4.089843 1.074219 1.066407 2.652344 1.441407 4.089844.972657 7.175781-2.332032 15.152343-4.199219 19.886719-.328126 4.886718 4.011719 3.886718 12.707032-.109376 18.308594-4.84375 6.785156-13.363281 10.9375-21.699218 10.574219-1.921875-.085937-3.625 1.195313-4.085938 3.058594-4.453125 17.925781-16.039062 33.703125-31.636718 43.515625.460937-2.6875.9375-5.402344 1.492187-8.054688.390625-1.882812-.601563-3.785156-2.371094-4.535156-1.773437-.757812-3.828125-.148438-4.910156 1.441406-3.625 5.328125-7.59375 10.613282-12.78125 11.589844-1.429687.273438-2.882813.164062-4.082031-.308594-2.304688-.90625-4.269532-3.476562-5.128906-6.710937-.929688-3.46875-.726563-7.40625-.53125-11.214844.0625-1.171875-.394532-2.3125-1.242188-3.125-.851562-.808594-2.011719-1.207031-3.179688-1.09375-.585937.058594-1.304687.078125-2.066406.097656-3.253906.085938-10.875.289063-11.191406 7.773438-.035156.808593-.039062 1.585937-.046875 2.335937-.027344 3.367188-.117187 4.617188-1.765625 6.320313-2.429688 2.527343-6.59375 3.613281-10.59375 2.773437-4.808594-1.019531-8.496094-4.269531-10.746094-6.816406-1.144531-1.296875-2.988281-1.722656-4.582031-1.050781-1.59375.667969-2.585937 2.28125-2.460937 4.003906l.039062.566406c.148438 2.03125.296875 4.09375.46875 6.160157-16.632812-10.414063-28.953125-28.09375-32.679688-47.328126zm41.460938 54.058594c-.1875-1.507812-.351562-3.039062-.5-4.570312 2.152344 1.25 4.601562 2.285156 7.335938 2.867187 6.765624 1.417969 13.6875-.523437 18.0625-5.0625 3.964843-4.101562 3.996093-8.222656 4.027343-11.859375.003907-.589844.007813-1.203125.03125-1.835937.351563-.09375.859375-.152344 1.40625-.191407-.039062 3.007813.132813 6.164063.964844 9.269532 1.527344 5.746094 5.253906 10.28125 9.972656 12.136718 2.636719 1.035157 5.589844 1.289063 8.527344.726563 3.078125-.578125 5.726563-1.878906 8.074219-3.636719-.121094.710938-.25 1.417969-.378906 2.125-.644532 3.5-1.265626 6.367188-1.949219 9.027344-2.410157 9.355469-5.921875 16.347656-10.738281 21.382812-5.621094 5.871094-13.296876 8.820313-20.027344 7.683594-5.140625-.867187-10.199219-4.097656-14.246094-9.097656-4.136719-5.089844-7.164062-11.789062-9.011719-19.917969-.636719-2.789062-1.144531-5.746093-1.550781-9.046875zm-11.425781 1.097656c1.21875.722657 2.457031 1.414063 3.71875 2.066407.382812 2.714843.84375 5.25 1.394531 7.671875 2.125 9.347656 5.695312 17.15625 10.609375 23.207031 5.285156 6.527344 12.09375 10.777344 19.171875 11.972656 1.378906.230469 2.78125.34375 4.195312.34375 8.148438 0 16.65625-3.777343 22.996094-10.40625 5.796875-6.058593 9.960938-14.21875 12.726563-24.945312.597656-2.324219 1.144531-4.785157 1.695312-7.617188 2.078125-1.0625 4.109375-2.199219 6.074219-3.4375-.625 7.988281 1.230469 20.378907 12.632812 35.816407-.175781.238281-.332031.492187-.453124.773437-8.585938 19.773437-29.632813 34.003906-51.179688 34.609375-21.429688.578125-43.152344-12.296875-52.90625-31.40625 7.90625-11.011719 11.417969-25.265625 9.324219-38.648438zm37.238281 77.949219c-3.734375 3.464844-6.367188 7.738281-8.910156 11.90625-1.003906 1.640625-1.949219 3.191407-2.957032 4.6875-2.074218 3.078125-7.617187 10.175781-14.203124 9.4375-5.957032-.65625-10.15625-7.589843-12.632813-13.292969-5.300781-12.207031-8.359375-25.472656-9.003906-38.796874 11.339843 14.859374 29.023437 24.609374 47.707031 26.058593zm-142.554688 148.667969c-2.855468-2.929688-3.15625-7.980469-3.222656-13.339844l-.621094-48.28125c-.214843-16.65625-.433593-33.875 3.453126-50.152344 4.230468-17.707031 13.171874-31.929687 25.179687-40.039062 8.316406-5.621094 18.085937-8.527344 28.421875-11.605469 4.742188-1.40625 9.550781-2.84375 14.25-4.570312 13.304688 57.640625 24.96875 116.425781 34.691406 174.789062-16.660156-.3125-33.304687-.78125-49.917968-1.410156-.410157-31.890625-2.953126-64.054687-7.582032-95.605469-.324218-2.203125-2.371094-3.726562-4.574218-3.40625-2.203126.324219-3.726563 2.371094-3.402344 4.574219 4.554687 31.066406 7.066406 62.726563 7.488281 94.125-10.4375-.425781-20.859375-.90625-31.265625-1.457031-5.203125-.273438-10.105469-.757813-12.898438-3.621094zm110.355469 6.945312c-9.867187-59.453124-21.757812-119.359374-35.332031-178.066406 4.085938-1.921875 8.011719-4.207031 11.652344-7.066406.242187 15.578125 3.585937 31.199219 9.78125 45.46875 4.835937 11.144531 11.28125 17.230469 19.148437 18.09375.59375.066406 1.1875.097656 1.78125.097656 7.148438 0 14.34375-4.664062 19.988281-13.042968 1.109376-1.648438 2.148438-3.347657 3.152344-4.992188 1.640625-2.6875 3.226563-5.289062 5.035156-7.539062 1.929688 5.542968 4.421876 11.203124 8.5625 15.921874 5.554688 6.332032 15.808594 11.320313 25.199219 7.320313 5.28125-2.25 8.8125-6.675781 11.839844-11.125 10.496094-15.414063 17.664063-33.113281 20.917969-51.480469 3.261718 2.863282 6.699218 5.488282 10.1875 7.921875-20.535156 58.097657-36.910156 118.210938-48.671875 178.691407v.027343c-21.082031.171875-42.167969.097657-63.242188-.230469zm188.652344-22.199218c-.351563 6.277344-1.082031 13.25-5.339844 16.515625-2.886719 2.214843-7.144531 2.59375-12.003906 2.832031-12.300781.605469-24.625 1.117188-36.96875 1.550781 2.003906-29.773437 6.898437-59.480469 14.558594-88.316406.570312-2.152344-.710938-4.359375-2.859375-4.933594-2.152344-.566406-4.363282.710938-4.933594 2.863281-7.863281 29.597657-12.863281 60.09375-14.867188 90.65625-18.230468.582032-36.492187.988282-54.769531 1.191407 11.535157-58.898438 27.46875-117.425781 47.378907-174.054688 2.453124 1.546875 4.882812 3.019531 7.253906 4.429688 1.347656.800781 2.699218 1.601562 4.050781 2.398437 10.765625 6.359375 21.898437 12.929688 30.730469 21.628906 17.402344 17.132813 24.191406 40.617188 26.824218 57.304688 3.421876 21.710938 2.164063 44.195312.945313 65.933594zm0 0"/></svg>