<svg height="512pt" viewBox="-91 0 512 512.00073" width="512pt" xmlns="http://www.w3.org/2000/svg"><path d="m204.863281 439.6875c-6.402343-5.28125-13.144531-10.371094-19.09375-14.863281-3.867187-2.921875-7.980469-6.035157-11.980469-9.160157l-3.796874-2.964843 3.609374-3.1875c27.75-24.519531 48.617188-57.664063 58.761719-93.335938l1.800781-6.339843 4.792969 4.523437c2.261719 2.136719 4.707031 4.285156 7.269531 6.386719 5.9375 4.84375 12.199219 9.355468 18.261719 13.71875l.800781.578125c2.140626 1.542969 4.265626 3.074219 6.347657 4.609375l2.222656 1.640625-.75 2.664062c-10.542969 37.355469-32.984375 71.359375-63.1875 95.753907l-2.539063 2.050781zm0 0" fill="#ff8984"/><path d="m193.230469 507.9375c-5.632813 0-11.265625-.015625-16.902344-.046875l-5.441406-.027344 1.652343-5.1875c-9.40625-21.421875-24.832031-39.234375-40.097656-55.300781-3.277344-3.460938-6.652344-6.933594-9.914062-10.292969l-.214844-.222656c-12.351562-12.722656-25.117188-25.871094-35.625-40.5625-15.019531-21.003906-23.023438-42.726563-23.148438-62.820313l-.015624-2.417968 2.136718-1.136719c2.261719-1.207031 4.566406-2.394531 6.902344-3.597656l.652344-.339844c7.046875-3.621094 14.328125-7.363281 21.109375-11.816406 2.179687-1.425781 4.320312-2.972657 6.367187-4.597657l5.144532-4.089843 1.269531 6.449219c6.492187 33.046874 23.371093 64.089843 47.519531 87.414062 9.703125 9.371094 20.582031 17.582031 31.101562 25.523438l.214844.160156c8.261719 6.242187 16.804688 12.699218 24.691406 19.648437 21.246094 18.726563 33.5 38.339844 36.414063 58.296875l.65625 4.507813-4.554687.066406c-16.730469.261719-33.527344.390625-49.917969.390625zm0 0" fill="#ff8984"/><path d="m210.773438 354.960938c-12.492188-12.214844-26.242188-23.191407-40.871094-32.628907l-6.703125-4.324219 7.472656-2.785156c1.398437-.523437 2.671875-1.316406 3.796875-2.023437 13.152344-8.238281 26.039062-17.292969 38.300781-26.914063l3.964844-3.113281 2.132813 4.566406c3.160156 6.78125 7.792968 13.5625 13.765624 20.15625l1.449219 1.597657-.539062 2.085937c-3.769531 14.617187-9.300781 28.878906-16.433594 42.390625l-2.503906 4.738281zm0 0" fill="#fff"/><path d="m121.847656 354.613281c-7.542968-14.949219-12.753906-30.792969-15.496094-47.085937l-.652343-2.238282 1.660156-1.675781c4.464844-4.503906 8.039063-9.308593 10.621094-14.285156l2.210937-4.265625 3.792969 2.949219c11.707031 9.105469 24.039063 17.550781 36.65625 25.097656.4375.265625.878906.527344 1.347656.789063l4.746094 2.648437-3.941406 3.742187c-11.898438 11.300782-23.476563 23.148438-34.410157 35.207032l-3.910156 4.3125zm0 0" fill="#fff"/><path d="m168.023438 406.023438c-3.496094-26.460938-4.648438-53.335938-3.417969-79.867188l.320312-6.980469 5.855469 3.8125c14.957031 9.734375 28.9375 21.027344 41.558594 33.5625l2.195312 2.183594-1.5625 2.675781c-10.335937 17.683594-23.226562 33.519532-38.3125 47.066406l-5.644531 5.066407zm0 0" fill="#d8deec"/><path d="m160.746094 404.882812c-1.691406-1.5-3.914063-3.492187-6.078125-5.589843-11.179688-10.792969-20.828125-23.226563-28.671875-36.957031l-1.433594-2.511719 1.933594-2.148438c9.949218-11.070312 20.4375-21.96875 31.179687-32.386719l7.195313-6.980468-.414063 10.019531c-1.007812 24.296875-.027343 48.886719 2.914063 73.078125l1.273437 10.476562zm0 0" fill="#d8deec"/><path d="m247.261719 503.9375c-2.628907-20.179688-14.832031-40.03125-36.265625-59.011719l-3.511719-3.109375 3.625-2.976562c28.769531-23.625 50.503906-56.277344 61.207031-91.941406l1.679688-5.585938 4.605468 3.578125c8.492188 6.59375 14.621094 12.261719 19.863282 18.375 12.941406 15.082031 21.839844 35.425781 25.730468 58.839844 3.796876 22.792969 2.640626 45.566406 1.007813 64.84375-.449219 5.289062-1.128906 10.332031-4.421875 13.910156-4.027344 4.378906-10.539062 4.957031-16.863281 5.179687-11.671875.40625-23.535157.75-35.257813 1.019532l-4.449218.101562.371093-4.433594c1.601563-19.054687 1.429688-36.738281-.554687-57.34375 1.953125 20.875 2.101562 38.824219.417968 58.195313l-.3125 3.570313-3.585937.082031c-3.082031.066406-6.15625.128906-9.242187.1875l-3.582032.070312zm0 0" fill="#d34242"/><path d="m168.585938 507.820312c-35.390626-.28125-71.101563-1.152343-106.140626-2.59375l-2.429687-.101562-2.882813-.117188.003907-.003906-2.441407-.105468c-15.445312-.671876-29.703124-1.390626-43.585937-2.195313l-3.410156-.195313-.339844-3.394531c-2.96875-29.488281-5.097656-56.039062-1.09375-82.34375 4.851563-31.851562 18.792969-58.214843 39.246094-74.238281 3.476562-2.730469 7.4375-5.390625 12.09375-8.121094l5.632812-3.300781.382813 6.515625c1.117187 18.914062 9.074218 39.214844 23.011718 58.710938 10.476563 14.640624 23.246094 27.800781 35.597657 40.53125l1.527343 1.578124c2.863282 2.953126 5.785157 5.972657 8.640626 8.96875 15.113281 15.917969 30.40625 33.566407 39.875 54.777344l2.53125 5.679688zm-109.804688-7.757812.035156-.097656c-3.824218-19.34375-5.40625-39.152344-4.695312-58.859375-.773438 19.683593.808594 39.472656 4.625 58.816406.003906.011719.035156.140625.035156.140625zm0 0" fill="#d34242"/><path d="m235.085938 173.152344c-2.226563-16.9375-5.363282-36.769532-11.75-55.457032-1.796876-5.242187-3.953126-10.722656-7.570313-15.277343-3.929687-4.9375-9.179687-7.984375-14.40625-8.355469-.4375-.035156-.832031-.050781-1.226563-.050781-6.941406 0-12.953124 4.160156-19.3125 8.566406-5.9375 4.117187-12.011718 8.332031-18.625 8.332031-1.125 0-2.242187-.125-3.328124-.367187-4.613282-1.035157-8.375-4.226563-12.011719-7.308594-3.832031-3.242187-7.757813-6.5625-12.625-7.402344-.789063-.136719-1.59375-.203125-2.394531-.203125-6.761719 0-13.953126 4.980469-20.253907 14.027344-11.390625 16.347656-18.472656 35.597656-20.480469 55.664062l-7.878906.496094c-2.523437-10.992187-3.8125-21.671875-3.832031-31.75-.042969-19.378906 4.59375-37.40625 13.40625-52.140625 15.015625-25.101562 43.785156-41.320312 73.300781-41.320312 2.554688 0 5.128906.121093 7.652344.363281 31.949219 3.042969 60.792969 25.351562 71.769531 55.511719 8.121094 22.328125 7.21875 48.378906-2.683593 77.4375zm0 0" fill="#644c4c"/><path d="m80.9375 96.300781c-.03125-.015625-.046875-.023437-.046875-.023437-15.554687-1.894532-29.558594-12.136719-35.683594-26.089844-6.210937-14.148438-3.65625-31.988281 6.207031-43.386719 7.167969-8.28125 18.191407-13.230469 29.484376-13.230469 4.394531 0 8.609374.75 12.53125 2.226563 14.601562 5.511719 24.472656 21.140625 22.960937 36.359375l1.777344 3.109375-2.882813 2.117187c-9.277344 6.761719-16.863281 15.007813-22.542968 24.511719-2.304688 3.855469-4.363282 8.03125-6.121094 12.414063l-1.703125 4.25zm0 0" fill="#644c4c"/><path d="m165.484375 280.722656c-10.878906 0-21.628906-2.515625-31.082031-7.269531-19.902344-10.015625-34.230469-29.929687-37.394532-51.976563-4.078124.777344-9.351562 1.695313-14.335937 1.695313-6.746094 0-11.871094-1.65625-15.660156-5.070313-6.546875-5.894531-7.441407-17.273437-1.949219-24.847656 4.089844-5.664062 11.417969-9.179687 19.121094-9.179687 1.757812 0 3.511718.183593 5.210937.542969l.230469-.386719.335938-.367188c1.183593-1.242187.988281-7.074219.859374-10.929687l-.007812-.214844c-.046875-1.464844-.0625-2.152344-.035156-2.59375 1.304687-21.824219 8.511718-42.726562 20.847656-60.429688 4.457031-6.390624 11.574219-14.003906 20.1875-14.003906.804688 0 1.613281.070313 2.402344.207032 4.867187.832031 8.792968 4.160156 12.589844 7.378906 3.816406 3.238281 7.417968 6.292968 12.046874 7.328125 1.109376.25 2.242188.375 3.367188.375 6.597656 0 12.691406-4.230469 18.589844-8.320313l.113281-.078125c6.046875-4.179687 12.296875-8.503906 19.242187-8.503906.398438 0 .800782.011719 1.203126.042969 5.195312.367187 10.429687 3.40625 14.351562 8.339844 3.597656 4.535156 5.757812 10.011718 7.554688 15.25 7.867187 23.039062 10.84375 47.546874 13.71875 71.246093l1.222656-.421875 1.328125.375c2.25-3.882812 6.886719-6.382812 11.855469-6.382812 2.171874 0 4.300781.488281 6.144531 1.417968 5.914062 2.976563 9.523437 10.230469 8.582031 17.253907-.871094 6.5-5.378906 12.597656-11.761719 15.910156-3.832031 1.980469-8.363281 3.027344-13.117187 3.027344-2.28125 0-4.613282-.238281-6.929688-.707031-2.558594 22.15625-16.292968 42.484374-35.886718 53.078124-9.933594 5.375-21.328126 8.214844-32.945313 8.214844zm0 0" fill="#ffdac4"/><path d="m167.832031 315.714844c-2.503906 0-4.8125-1.257813-7.15625-2.664063-13.238281-7.910156-26.164062-16.816406-38.402343-26.46875l-2.171876-1.710937.835938-2.636719c.933594-2.949219 1.507812-5.910156 1.703125-8.796875l.453125-6.695312 5.671875 3.585937c1.875 1.183594 3.757813 2.25 5.605469 3.175781 9.453125 4.753906 20.207031 7.265625 31.101562 7.265625 11.65625 0 23.0625-2.835937 32.984375-8.207031 3.066407-1.65625 6.074219-3.613281 8.9375-5.8125l5.777344-4.441406.644531 7.257812c.332032 3.746094 1.101563 7.503906 2.292969 11.171875l1.335937 4.128907-4.226562.996093c-12.394531 9.746094-25.441406 18.925781-38.785156 27.277344-1.996094 1.265625-3.984375 2.417969-6.171875 2.5625-.175781.007813-.304688.011719-.429688.011719zm0 0" fill="#ffdac4"/><path d="m113.5 35.027344c-.816406-1.828125-1.785156-3.585938-2.871094-5.234375l-1.992187-3.023438 2.8125-2.285156c4.441406-3.605469 8.527343-6.796875 12.675781-10.019531l1.273438-.996094c3.007812-2.34375 6.113281-4.769531 9.382812-7.402344l2.574219-2.078125 2.523437 2.144531c3.464844 2.945313 6.414063 6.425782 8.761719 10.34375l2.359375 3.9375-4.222656 1.796876c-9.515625 4.054687-18.753906 8.949218-27.464844 14.546874l-3.914062 2.515626zm0 0" fill="#efb17c"/><path d="m20.796875 116.472656c-3.308594-.832031-8.582031-5.886718-9.5625-9.167968l-.382813-1.28125.46875-1.253907c.910157-2.453125 3.875-4.984375 11.324219-9.675781l.171875-.105469c1.414063-.882812 2.730469-1.703125 3.5625-2.328125l21.855469-16.464844 2.421875 3.085938c1.132812 1.449219 2.371094 2.828125 3.671875 4.101562l3.058594 3-31.628907 28.136719c-.875.773438-1.433593 1.207031-1.945312 1.511719l-1.417969.84375zm0 0" fill="#efb17c"/><path d="m328.207031 421.4375c-4.015625-24.140625-13.234375-45.171875-26.652343-60.816406-10.023438-11.679688-22.5625-20.714844-34.691407-29.449219-6.039062-4.351563-12.285156-8.847656-18.070312-13.578125-14.453125-11.820312-31.585938-30.648438-31.105469-53.234375.007812-.433594-.070312-.84375-.1875-1.242187 10.421875-10.628907 17.648438-24.371094 20.21875-39.085938 6.65625.625 13.109375-.515625 18.511719-3.316406 7.539062-3.910156 12.875-11.179688 13.921875-18.976563 1.167968-8.683593-3.367188-17.695312-10.785156-21.421875-4.488282-2.253906-9.691407-2.378906-14.210938-.792968 8.777344-23.867188 14.867188-55.054688 4.179688-84.429688-11.5-31.601562-41.71875-54.976562-75.195313-58.171875-18.667969-1.773437-37.515625 2.804687-53.539063 12.199219.003907-2.730469-.3125-5.453125-.910156-8.117188.476563-.097656.941406-.273437 1.375-.554687 9.847656-6.363281 20.363282-11.789063 31.261719-16.132813 1.023437-.410156 1.835937-1.21875 2.246094-2.246094.414062-1.023437.386719-2.167968-.074219-3.171874-3.296875-7.230469-8.453125-13.5-14.902344-18.140626-1.476562-1.0625-3.484375-1.003906-4.902344.148438-4.652343 3.789062-8.933593 7.125-13.074218 10.351562-4.019532 3.132813-8.179688 6.375-12.695313 10.042969-3.945312-4.042969-8.71875-7.285156-14.066406-9.304687-15.726563-5.929688-35.289063-.824219-46.515625 12.148437-11.023438 12.738281-13.78125 31.898438-6.855469 47.675781.476563 1.085938 1.007813 2.144532 1.570313 3.191407l-19.128906 14.40625c-.679688.511719-1.929688 1.289062-3.25 2.117187-7.289063 4.554688-13.347657 8.765625-13.695313 14.171875-.332031 5.175781 5.632813 10.363281 6.835937 11.355469 2.117188 1.742188 5.105469 3.628906 8.109376 3.628906.566406 0 1.136718-.066406 1.699218-.214844 2.183594-.574218 3.710938-1.933593 4.824219-2.921874l29.324219-26.078126c6.59375 4.664063 14.335937 7.800782 22.484375 8.816407-3.269531 10.507812-4.960938 21.902343-4.9375 33.785156.023437 11.632813 1.683593 24.003906 4.933593 36.769531.078126.308594.191407.828125.332032 1.484375.5625 2.597657 1.152344 5.300781 1.914062 7.722657-8.289062.457031-16.074218 4.367187-20.738281 10.816406-6.757813 9.339844-5.621094 22.910156 2.535156 30.253906 7.789063 7.011719 18.539063 6.878906 29.40625 5.066406 3.328125 16.183594 12.308594 31.011719 24.894531 41.636719-.035156.277344-.046874.5625-.023437.847656 1.746094 21.808594-19.824219 37.738281-26.476563 42.101563-6.558593 4.296875-13.769531 8.007812-20.738281 11.597656-9.621093 4.949219-19.566406 10.070312-28.359375 16.960938-21.273437 16.667968-35.746094 43.949218-40.75 76.820312-4.421875 29.03125-1.457031 58.394531 1.410156 86.792969.199219 1.96875 1.796876 3.503906 3.773438 3.617187 61.851562 3.621094 124.257812 5.433594 186.558594 5.433594 36.769531 0 73.515625-.632812 110.0625-1.898438 6.867187-.238281 14.621094-.957031 19.71875-6.496093 4.152344-4.515625 4.980468-10.535157 5.472656-16.3125 1.65625-19.503907 2.828125-42.582031-1.042969-65.855469zm-84.515625-97.601562c5.976563 4.886718 12.320313 9.457031 18.460938 13.878906 2.398437 1.730468 4.773437 3.441406 7.109375 5.15625-10.351563 36.664062-32.214844 69.792968-61.851563 93.734375-6.316406-5.21875-12.855468-10.164063-19.234375-14.980469-3.953125-2.984375-7.960937-6.011719-11.925781-9.113281 28.507812-25.1875 49.5625-58.660157 59.960938-95.242188 2.507812 2.371094 5.03125 4.5625 7.480468 6.566407zm-122.160156-32.664063c11.800781 9.183594 24.242188 17.710937 37.058594 25.371094.4375.265625.929687.554687 1.449218.847656-11.933593 11.328125-23.554687 23.21875-34.625 35.417969-7.3125-14.507813-12.472656-30.101563-15.152343-46.164063-.011719-.078125-.042969-.144531-.058594-.21875 4.753906-4.792969 8.570313-9.9375 11.328125-15.253906zm50.460938 114.324219c-3.464844-26.179688-4.609376-52.769532-3.390626-79.15625 14.71875 9.585937 28.460938 20.667968 40.917969 33.050781-10.039062 17.179687-22.714843 32.8125-37.527343 46.105469zm-11.535157-77.339844c-1.015625 24.578125-.027343 49.316406 2.949219 73.738281-2.027344-1.789062-4.027344-3.605469-5.957031-5.472656-11-10.625-20.414063-22.820313-27.984375-36.070313 9.925781-11.035156 20.316406-21.835937 30.992187-32.195312zm69.207031-17.570312c-3.710937 14.410156-9.144531 28.359374-16.089843 41.511718-12.683594-12.394531-26.605469-23.515625-41.503907-33.132812 1.773438-.660156 3.289063-1.605469 4.519532-2.378906 13.300781-8.328126 26.296875-17.464844 38.648437-27.152344 3.675781 7.863281 8.824219 14.960937 14.425781 21.152344zm-56.289062-265.632813c30.445312 2.902344 57.925781 24.160156 68.382812 52.902344 9.289063 25.523437 4.75 52.890625-2.707031 74.773437-2.480469-18.863281-5.683593-37.941406-11.933593-56.226562-1.910157-5.585938-4.230469-11.445313-8.21875-16.46875-4.625-5.820313-10.914063-9.417969-17.253907-9.867188-.511719-.035156-1.015625-.050781-1.515625-.050781-8.207031 0-15.023437 4.726563-21.628906 9.304687-6.457031 4.476563-12.550781 8.710938-18.757812 7.320313-3.648438-.816406-6.882813-3.558594-10.304688-6.460937-4.019531-3.402344-8.570312-7.257813-14.523438-8.289063-9.113281-1.574219-18.566406 3.921875-26.617187 15.480469-11.824219 16.980468-19.097656 36.78125-21.179687 57.546875-2.457032-10.71875-3.710938-21.082031-3.730469-30.859375-.035157-18.65625 4.40625-35.972656 12.84375-50.078125 15.695312-26.246094 46.699219-41.941407 77.144531-39.027344zm-46.800781-27.332031c3.425781-2.671875 6.949219-5.414063 10.714843-8.4375 3.132813 2.660156 5.808594 5.824218 7.921876 9.347656-9.742188 4.152344-19.160157 9.140625-28.058594 14.859375-.902344-2.011719-1.964844-3.953125-3.179688-5.804687 4.46875-3.628907 8.605469-6.851563 12.601563-9.964844zm-103.480469 93.90625c-.347656.308594-.949219.84375-1.328125 1.0625-1.910156-.480469-6.132813-4.523438-6.699219-6.433594.785156-2.09375 7.605469-6.359375 9.882813-7.785156 1.539062-.960938 2.871093-1.792969 3.828125-2.515625l18.726562-14.101563c1.242188 1.574219 2.589844 3.070313 4.023438 4.484375zm58.273438-19.21875c-14.171876-1.726563-26.925782-11.042969-32.496094-23.730469-5.609375-12.78125-3.320313-28.886719 5.570312-39.160156 9.09375-10.503907 24.894532-14.660157 37.574219-9.875 12.964844 4.890625 21.734375 18.738281 20.398437 32.210937-.085937.871094.117188 1.695313.519532 2.398438-9.441406 6.882812-17.570313 15.566406-23.625 25.6875-2.449219 4.097656-4.578125 8.441406-6.402344 12.984375-.457031-.265625-.976562-.449219-1.539062-.515625zm19.597656 128.605468c-.15625-1.09375-.757813-2.078124-1.660156-2.714843-.902344-.640625-2.03125-.878907-3.113282-.664063-10.148437 2.007813-20.375 3.105469-26.5-2.40625-5.007812-4.511718-5.660156-13.636718-1.394531-19.53125 4.199219-5.804687 12.53125-8.714844 20.265625-7.070312 1.738281.371094 3.4375-.457032 4.292969-1.90625 2.335937-2.453125 2.167969-7.8125 1.964843-13.824219-.03125-.933594-.070312-2.097656-.050781-2.414063 1.257813-21.089843 8.222657-41.285156 20.144531-58.402343 3.566407-5.121094 10.71875-13.503907 18.621094-12.144531 3.792969.660156 7.140625 3.496093 10.683594 6.496093 4.019531 3.40625 8.175781 6.925781 13.761719 8.175781 9.652343 2.160157 17.863281-3.535156 25.113281-8.5625 6.128906-4.25 11.921875-8.277343 17.980469-7.835937 4.09375.289063 8.289062 2.785156 11.511719 6.839844 3.226562 4.0625 5.222656 9.160156 6.898437 14.0625 7.738281 22.625 10.683594 46.925781 13.539063 70.425781.21875 1.804688 1.617187 3.238281 3.414062 3.503906.199219.027344.394531.042969.589844.042969.46875 0 .925781-.09375 1.359375-.25 1.761719.539063 3.71875-.183594 4.667969-1.851563 2.261718-3.964843 8.3125-5.5625 12.691406-3.359374 4.367187 2.195312 7.125 7.84375 6.414062 13.140624-.703125 5.234376-4.398437 10.171876-9.644531 12.890626-4.90625 2.542968-11.085937 3.238281-17.40625 1.949218-1.109375-.222656-2.261719.027344-3.171875.691406-.917969.664063-1.511719 1.683594-1.640625 2.804688-2.371094 20.851562-15.3125 40.007812-33.773437 49.988281-18.457032 9.984375-41.574219 10.324219-60.320313.894531-18.746094-9.433593-32.25-28.195312-35.238281-48.96875zm31.613281 56.171876c10.199219 5.128906 21.546875 7.6875 32.894531 7.6875 12.09375 0 24.1875-2.90625 34.886719-8.691407 3.328125-1.796875 6.488281-3.867187 9.472656-6.160156.367188 4.164063 1.222657 8.1875 2.464844 12.050781-.550781.132813-1.082031.371094-1.554687.742188-12.269532 9.65625-25.199219 18.75-38.433594 27.039062-1.632813 1.023438-3.085938 1.875-4.304688 1.953125-1.507812.089844-3.351562-.929687-5.277344-2.082031-13.164062-7.871094-25.921874-16.675781-37.980468-26.179688 1.027344-3.226562 1.660156-6.484374 1.886718-9.734374 1.921876 1.214843 3.90625 2.347656 5.945313 3.375zm-122.355469 140.28125c4.695313-30.832032 18.101563-56.289063 37.753906-71.6875 3.695313-2.894532 7.597657-5.4375 11.652344-7.820313 1.15625 19.679687 9.296875 40.585937 23.75 60.800781 10.660156 14.902344 23.550782 28.183594 36.019532 41.03125 3.324218 3.425782 6.765624 6.96875 10.097656 10.480469 14.898437 15.683594 29.929687 33.035156 39.125 53.652344-35.371094-.28125-70.75-1.140625-106.011719-2.589844.207031-.636719.273437-1.324219.136719-2.023437-3.769532-19.050782-5.324219-38.550782-4.628906-57.957032.078124-2.226562-1.660157-4.09375-3.882813-4.175781-2.199219-.066406-4.097656 1.660156-4.175781 3.886719-.71875 20.027344.890625 40.152344 4.777344 59.8125.007812.042968.027343.082031.035156.125-14.535156-.632813-29.046875-1.355469-43.53125-2.1875-2.699219-26.832032-5.210938-54.46875-1.117188-81.347656zm166.132813 86.519531c.285156-.902344.273437-1.90625-.140625-2.839844-9.667969-21.957031-25.355469-40.097656-40.871094-56.429687-3.363281-3.542969-6.816406-7.101563-10.160156-10.542969-12.261719-12.632813-24.9375-25.695313-35.242188-40.101563-14.554687-20.355468-22.285156-41.265625-22.398437-60.523437 2.460937-1.304688 4.964843-2.597657 7.507812-3.90625 7.15625-3.683594 14.558594-7.492188 21.472657-12.027344 2.339843-1.535156 4.558593-3.144531 6.65625-4.8125 6.660156 33.878906 23.820312 65.515625 48.667968 89.519531 9.828125 9.496094 20.832032 17.804688 31.46875 25.835938 8.273438 6.25 16.828125 12.710937 24.671875 19.621094 20.550781 18.113281 32.332031 36.898437 35.097657 55.867187-22.214844.34375-44.46875.460937-66.730469.339844zm144.859375-17.277344c-.390625 4.574219-.9375 8.894531-3.375 11.539063-2.984375 3.25-8.582032 3.707031-14.0625 3.894531-11.71875.40625-23.457032.746093-35.210938 1.019531 1.625-19.269531 1.449219-37.316406-.554687-58.0625-.210938-2.21875-2.1875-3.847656-4.398438-3.628906-2.214843.214844-3.839843 2.183594-3.625 4.402344 1.980469 20.550781 2.128907 38.371093.46875 57.460937-3.074219.0625-6.152343.128906-9.230469.183594-2.761718-21.160157-15.394531-41.84375-37.574218-61.488281 29.527344-24.246094 51.511718-57.285157 62.5-93.875 7.015625 5.441406 13.558594 11.148437 19.28125 17.820312 12.460937 14.523438 21.042968 34.195312 24.816406 56.882812 3.726562 22.398438 2.578125 44.847657.964844 63.851563zm0 0"/></svg>