<svg height="511pt" viewBox="-96 0 511 511.9971" width="511pt" xmlns="http://www.w3.org/2000/svg"><path d="m112.929688 403.914062 4.390624.285157c4.894532.316406 9.675782.476562 14.210938.476562 12.75 0 24.0625-1.21875 34.574219-3.726562 18.761719-4.46875 34.796875-13.195313 46.375-25.230469 11.976562-12.464844 18.945312-28.6875 19.113281-44.503906l.074219-6.933594 5.964843 3.535156c3.738282 2.21875 7.570313 4.265625 11.273438 6.242188l.238281.128906c6.507813 3.492188 13.238281 7.101562 19.324219 11.472656 21.230469 15.273438 36.371094 41.183594 42.628906 72.96875 5.175782 26.25 4.214844 52.898438 2.546875 82.515625l-.210937 3.734375-61.941406.648438-.269532-3.75c-2.214844-30.753906-1.90625-61.925782.914063-92.652344-2.867188 30.484375-3.183594 61.496094-1.003907 92.160156l.300782 4.238282-135.339844 1.417968zm0 0" fill="#fff"/><path d="m19.914062 507.933594c-4.886718 0-10.273437-.511719-13.15625-4.316406-2.101562-2.761719-2.234374-6.480469-2.183593-10.367188.289062-19.816406 1-39.890625 2.113281-59.664062 1.03125-18.167969 2.710938-35.664063 11.804688-50.027344 9.492187-14.992188 25.9375-24.261719 40.777343-31.347656 2.503907-1.207032 5.050781-2.394532 7.597657-3.578126l.09375-.042968c9.8125-4.546875 19.953124-9.253906 29.074218-15.492188l3.707032-2.535156 2.089843 3.972656c2.289063 4.355469 6.058594 8.230469 10.898438 11.207032 5.957031 3.660156 12.75 5.628906 19.207031 7.214843 12.332031 3.007813 23.167969 4.472657 33.117188 4.472657 2.152343 0 4.347656-.074219 6.519531-.21875 7.527343-.523438 14.707031-1.988282 21.328125-4.363282l4.074218 6.691406c-4.492187 4.179688-9.445312 7.796876-14.71875 10.75-13.71875 7.671876-30.488281 11.726563-48.5 11.730469-6.1875 0-12.527343-.484375-18.84375-1.433593-1.457031-.21875-3.457031-.519532-5.519531-.519532-3.878906 0-6.519531 1.042969-8.078125 3.183594-1.652344 2.277344-1.644531 5.460938-1.632812 7.785156l.441406 116.0625-38.484375.40625v-.007812l-40.847656.433594zm41.730469-3.410156v-1.046876l-5.542969-87.476562zm0 0" fill="#fff"/><path d="m73.589844 83.472656c-2.574219 0-6.414063-.152344-10.023438-1.480468-4.910156-1.8125-8.378906-5.574219-9.0625-9.824219-.394531-2.4375.398438-5.191407 2.070313-7.1875 1.410156-1.699219 3.285156-2.664063 5.265625-2.699219-6.648438-9.34375-2.601563-22.882812 5.371094-29.703125 7.832031-6.710937 17.996093-8.117187 25.140624-8.117187 2.03125 0 4.085938.105468 6.109376.320312l.742187.082031c1.25.140625 2.664063.296875 4.027344.296875 1.988281 0 3.535156-.328125 4.867187-1.035156 1.660156-.882812 2.914063-2.355469 4.128906-3.78125l.511719-.609375c2.507813-2.886719 5.378907-5.414063 8.574219-7.558594 3.179688-2.128906 6.695312-3.890625 10.453125-5.234375 5.289063-1.882812 11.054687-2.878906 16.671875-2.878906 1.226562 0 2.460938.046875 3.671875.140625 4.160156.300781 7.785156 1.714844 11.292969 3.085937l.140625.054688c2.566406 1 4.988281 1.945312 7.703125 2.539062.640625.140626 1.300781.207032 2.015625.207032 2.476562 0 5.09375-.828125 7.863281-1.703125 2.789062-.882813 5.675781-1.792969 8.460938-1.792969.257812 0 .511718.007812.761718.023438 6.707032.421874 13.066406 3.179687 17.453125 7.566406.71875.71875 1.386719 1.460937 2.09375 2.246094l.113281.128906c1.921876 2.160156 3.894532 4.375 6.542969 5.558594 1.550781.695312 3.285157 1.03125 5.3125 1.03125 2.3125 0 4.710938-.429688 7.03125-.84375l.839844-.15625c4.929687-.878907 9.617187-1.320313 13.960937-1.320313 8.6875 0 16.277344 1.753906 22.566407 5.21875 10.246093 5.632813 18.652343 18.839844 14.984375 31.191406-1.308594 4.410157-4.628906 8.398438-8.664063 10.402344-1.746093.863281-3.511719 1.296875-5.265625 1.296875-1.238281 0-2.449218-.222656-3.589844-.664062-7.863281 7.855468-18.710937 12.355468-29.792968 12.367187-11.113282 0-21.960938-4.484375-29.796875-12.296875-.296875-.296875-.585938-.59375-.875-.898438l-.410157-.417968c-2.226562-2.308594-4.507812-4.675782-7.546874-5.542969-.855469-.242187-1.710938-.359375-2.605469-.359375-3.96875 0-7.941407 2.421875-11.453125 4.558594l-.839844.507812c-.484375.292969-.96875.585938-1.441406.863282-6.402344 3.695312-13.792969 5.640624-21.410156 5.640624-7.308594 0-14.433594-1.800781-20.605469-5.214843-.203125-.109375-.917969-.519531-.917969-.519531-2.019531-1.140626-3.910156-2.203126-6.113281-2.359376-.191407-.011718-.378907-.019531-.5625-.019531-3.640625 0-6.816407 2.730469-9.617188 5.144531-.503906.445313-.984375.859376-1.464843 1.25-12.039063 10.058594-29.085938 11.898438-40.859376 12.402344-1.121093.046875-2.453124.09375-3.824218.09375zm0 0" fill="#fff"/><path d="m89.472656 140.09375c-.757812 0-1.882812-.070312-2.910156-.699219l-.609375-.371093-.445313-.558594c-.890624-1.125-1.136718-2.523438-1.277343-4.710938l-3.105469-50.449218 3.84375-.375c14.558594-1.421876 25.476562-5.320313 33.378906-11.929688.316406-.261719.621094-.523438.929688-.785156l.460937-.398438c2.925781-2.53125 5.972657-5.164062 9.699219-5.164062.152344 0 .308594.003906.464844.015625 2.199218.152343 4.160156 1.257812 6.054687 2.324219l1 .5625c6.125 3.382812 13.261719 5.175781 20.605469 5.175781 7.65625 0 15.058594-1.9375 21.402344-5.601563.722656-.421875 1.464844-.878906 2.210937-1.332031l.183594-.113281c3.652344-2.210938 7.425781-4.492188 11.34375-4.492188.890625 0 1.757813.117188 2.585937.351563 3.058594.875 5.316407 3.230469 7.503907 5.507812l.441406.457031c.289063.296876.578125.59375.871094.886719 7.847656 7.820313 18.707031 12.308594 29.789062 12.308594 1.875 0 3.765625-.132813 5.667969-.394531l4.492188-.617188.609374 53.613282c0 .8125-.023437 1.386718-.070312 1.847656l-.402344 3.683594-3.703125-.117188c-.449219-.011719-.984375-.066406-1.738281-.179688-22.851562-3.355468-46.105469-5.058593-69.125-5.058593-25.734375 0-51.6875 2.125-77.140625 6.316406-1.210937.199219-2.199219.296875-3.011719.296875zm0 0" fill="#d8deec"/><path d="m99.742188 391.035156c-.011719-3.003906.101562-5.660156 1.628906-7.753906 2.285156-3.144531 6.511718-3.144531 7.898437-3.144531 1.964844 0 4.039063.269531 5.628907.503906 6.320312.953125 12.660156 1.433594 18.847656 1.433594 18.039062 0 34.824218-4.054688 48.546875-11.726563 19.21875-10.753906 32.777343-29.007812 36.261719-48.832031l1.207031-6.859375 5.316406 4.5c.496094.417969.992187.820312 1.488281 1.21875 1.128906.890625 2.347656 1.765625 3.382813 2.503906l2.316406 1.640625-.789063 2.730469c-.011718.042969-.023437.085938-.03125.132812 1.007813 16.796876-6.101562 34.875-19.019531 48.292969-11.542969 12.015625-27.566406 20.734375-46.332031 25.214844-10.507812 2.503906-21.804688 3.722656-34.535156 3.722656-5.882813 0-12.160156-.269531-18.664063-.804687l3.144531 103.128906-15.847656.164062zm0 0" fill="#d34242"/><path d="m164.84375 357.371094c-9.808594 0-20.570312-1.46875-32.902344-4.484375-6.421875-1.566407-13.191406-3.519531-19.175781-7.199219-5.390625-3.308594-9.394531-7.671875-11.574219-12.613281l-1.226562-2.78125 2.355468-1.929688c.726563-.59375 1.433594-1.195312 2.128907-1.816406 2.605469-2.328125 5.074219-4.914063 7.335937-7.6875l2.492188-3.054687 3.089844 2.449218c13.433593 10.636719 30.898437 16.734375 47.925781 16.734375h.199219c16.507812-.046875 32.957031-5.613281 46.300781-15.675781l8.546875-6.4375-2.222656 10.464844c-1.429688 6.726562-4.042969 13.328125-7.761719 19.625l-.5625.953125-1.039063.5625c-10.066406 7.320312-22.90625 11.6875-37.199218 12.660156-2.195313.152344-4.457032.230469-6.710938.230469zm0 0" fill="#d34242"/><g fill="#c67045"><path d="m236.527344 190.332031c-7.757813-4.433593-14.003906-10.96875-18.066406-18.898437-4.703126-9.214844-6.144532-19.859375-4.066407-29.980469l-2.210937-6.019531 6.359375.65625c6.921875.714844 13.710937 1.558594 20.183593 2.511718l.980469.128907 2.71875.335937.667969 2.65625c3.761719 14.9375 1.753906 30.800782-.628906 45.765625l-.910156 5.714844zm0 0"/><path d="m189.785156 249.285156c-4.734375 0-9.277344-1.0625-13.140625-3.078125-4.773437-2.484375-9.3125-7.128906-11.292969-11.554687l-.546874-1.226563.300781-1.3125c.285156-1.21875.363281-2.355469.25-3.46875-.007813-.058593-.117188-.660156-.117188-.660156l-.503906-3.035156 2.800781-1.265625c1.035156-.46875 2.28125-.707032 3.707032-.707032 3.175781 0 7.433593 1.09375 11.382812 2.921876 2.515625 1.160156 4.914062 2.523437 7.5625 4.058593l.144531.082031c3.1875 1.832032 6.484375 3.726563 9.980469 5.050782 1.953125.738281 3.929688 1.253906 5.871094 1.527344l10.9375 1.542968-9.394532 5.816406c-2.480468 1.539063-5.054687 2.753907-7.652343 3.617188-3.316407 1.121094-6.785157 1.691406-10.289063 1.691406zm0 0"/><path d="m139.730469 249.285156c-3.503907 0-6.972657-.570312-10.308594-1.695312-2.578125-.859375-5.15625-2.074219-7.636719-3.609375l-9.394531-5.816407 10.941406-1.546874c1.941407-.269532 3.917969-.785157 5.871094-1.527344 3.492187-1.324219 6.789063-3.214844 9.976563-5.046875l.160156-.09375c2.734375-1.582031 5.039062-2.890625 7.558594-4.050781 3.945312-1.824219 8.1875-2.910157 11.351562-2.910157 1.476562 0 2.695312.230469 3.730469.695313l2.800781 1.269531-.5625 3.382813c-.023438.113281-.042969.222656-.058594.34375-.105468 1.121093-.019531 2.277343.25 3.433593l.304688 1.308594-.546875 1.226563c-1.960938 4.40625-6.5 9.050781-11.289063 11.558593-3.871094 2.015625-8.414062 3.078125-13.148437 3.078125zm0 0"/><path d="m82.515625 180.429688c-.527344-12.308594.320313-24.757813 2.53125-37l.625-3.464844 3.515625.179687c.140625.007813.273438.015625.414062.015625 1.09375 0 2.160157-.183594 2.867188-.304687 6.914062-1.128907 14.199219-2.152344 21.683594-3.039063l4.925781-.582031-.472656 4.9375c-1.214844 12.640625-4.039063 22.101563-8.894531 29.773437-4.917969 7.800782-12.589844 12.273438-22.800782 13.292969l-4.210937.421875zm0 0"/></g><path d="m164.675781 288.605469c-14.003906 0-27.539062-3.75-39.148437-10.84375-20.414063-12.476563-34.0625-35.050781-35.625-58.910157-3.109375 4.035157-8.316406 6.453126-13.988282 6.453126-3.863281 0-7.570312-1.171876-10.441406-3.300782-7.277344-5.390625-9.679687-16.148437-5.460937-24.5 3.554687-7.054687 11.539062-11.792968 19.867187-11.792968.972656 0 1.949219.066406 2.90625.191406l1.160156-1.367188 1.675782-.117187c10.726562-.757813 19.074218-5.40625 24.148437-13.441407 4.984375-7.902343 7.851563-17.722656 9.007813-30.882812-.003906-.066406-.003906-.128906-.003906-.195312v-3.617188l3.601562-.359375c15.730469-1.574219 31.6875-2.371094 47.417969-2.371094 13.804687 0 27.761719.613281 41.484375 1.824219l6.320312.558594-3.230468 5.464844c-.019532.03125-.039063.0625-.050782.097656-2.0625 10.085937-.617187 20.746094 4.089844 29.96875 4.710938 9.214844 12.5 16.632812 21.929688 20.878906l.621093-.863281 1.003907-.457031c2.316406-2.464844 5.703124-3.832032 9.523437-3.832032.480469 0 .964844.023438 1.457031.066406 4.96875.464844 9.566406 3.144532 12.015625 6.996094 4.523438 7.078125 3.160157 17.714844-3.171875 24.734375-7.363281 8.171875-18.234375 9.914063-24.058594 10.226563-4.910156 23.4375-21.582031 43.878906-43.523437 53.367187-9.113281 3.941407-19.320313 6.023438-29.527344 6.023438zm3.226563-49.683594c2.757812 3.492187 6.308594 6.082031 8.71875 7.34375 3.886718 2.03125 8.429687 3.105469 13.132812 3.105469 3.507813 0 6.992188-.574219 10.363282-1.710938 7.230468-2.441406 13.867187-7.332031 19.195312-14.144531-2.625 2.097656-6.070312 3.230469-10.019531 3.230469-3.664063 0-6.894531-.933594-8.960938-1.71875-3.574219-1.355469-6.902343-3.277344-10.117187-5.132813-2.335938-1.34375-4.75-2.730469-7.242188-3.910156l-.332031-.148437c-1.476563-.683594-6.652344-2.898438-11.335937-2.898438-1.730469 0-3.164063.304688-4.261719.910156l-2.070313 1.472656-2.320312-1.363281-.171875-.109375c-1.101563-.605468-2.53125-.914062-4.261719-.914062-4.679688 0-9.863281 2.222656-11.34375 2.902344-2.613281 1.207031-5.136719 2.660156-7.578125 4.0625-3.214844 1.855468-6.539063 3.773437-10.113281 5.132812-2.0625.78125-5.292969 1.71875-8.960938 1.71875-3.945312 0-7.394531-1.132812-9.964844-3.273438 5.273438 6.855469 11.914063 11.746094 19.152344 14.183594 3.363282 1.136719 6.84375 1.710938 10.355469 1.710938 4.703125 0 9.246094-1.074219 13.136719-3.105469 2.398437-1.257813 5.957031-3.847656 8.726562-7.347656l3.140625-3.964844zm0 0" fill="#ffdac4"/><path d="m165.292969 334.929688c-17.152344 0-34.710938-6.179688-48.171875-16.957032l-2.8125-2.253906 1.953125-3.035156c6.109375-9.492188 9.019531-19.535156 8.1875-28.277344l-.683594-7.253906 6.488281 3.316406c10.472656 5.351562 22.355469 8.179688 34.375 8.179688 10.296875 0 20.507813-2.078126 29.59375-6.011719 1.992188-.855469 4.046875-1.863281 6.113282-3.007813l6.484374-3.582031-.558593 7.386719c-.636719 8.339844 2.996093 17.902344 10.222656 26.925781l2.613281 3.261719-3.414062 2.496094c-13.734375 11.90625-32.015625 18.761718-50.199219 18.8125zm0 0" fill="#ffdac4"/><path d="m139.765625 253.375c5.292969 0 10.453125-1.199219 14.988281-3.570312 3.09375-1.613282 7.003906-4.609376 10.003906-8.410157 3.003907 3.800781 6.910157 6.796875 10.003907 8.410157 4.539062 2.371093 9.691406 3.570312 14.988281 3.570312 3.867188 0 7.808594-.640625 11.636719-1.929688 7.976562-2.6875 15.265625-8.035156 21.074219-15.464843 1.269531-1.621094 1.109374-3.941407-.367188-5.378907-1.480469-1.433593-3.804688-1.519531-5.390625-.203124-3.988281 3.324218-10.339844 2.640624-14.953125.890624-3.238281-1.226562-6.300781-2.988281-9.539062-4.855468-2.519532-1.453125-5.128907-2.957032-7.894532-4.230469-2.914062-1.34375-12.925781-5.4375-19.328125-1.792969-.074219.042969-.15625.101563-.230469.144532-.078124-.042969-.15625-.101563-.230468-.144532-6.402344-3.648437-16.414063.449219-19.328125 1.792969-.003907 0-.003907 0-.003907 0-2.765624 1.273437-5.371093 2.777344-7.894531 4.230469-3.238281 1.867187-6.296875 3.628906-9.535156 4.855468-4.613281 1.75-10.964844 2.433594-14.957031-.890624-1.582032-1.316407-3.90625-1.230469-5.386719.203124-1.480469 1.4375-1.636719 3.757813-.367187 5.378907 5.808593 7.429687 13.097656 12.777343 21.070312 15.464843 3.832031 1.289063 7.773438 1.929688 11.640625 1.929688zm41.179687-23.847656c2.429688 1.121094 4.769532 2.464844 7.242188 3.890625 3.371094 1.945312 6.855469 3.953125 10.707031 5.414062 2.269531.859375 4.527344 1.4375 6.730469 1.742188-2.183594 1.355469-4.464844 2.441406-6.808594 3.230469-6.902344 2.324218-14.496094 1.894531-20.324218-1.148438-3.839844-2.003906-7.8125-5.890625-9.488282-9.632812.359375-1.554688.492188-3.160157.324219-4.789063-.03125-.324219-.097656-.609375-.148437-.90625.511718-.230469 1.210937-.347656 2.066406-.347656 2.488281 0 6.195312.933593 9.699218 2.546875zm-50.320312 9.304687c3.847656-1.460937 7.332031-3.472656 10.703125-5.414062 2.476563-1.425781 4.8125-2.769531 7.242187-3.890625 4.707032-2.167969 9.769532-3.097656 11.765626-2.203125-.050782.300781-.113282.585937-.148438.910156-.167969 1.628906-.035156 3.234375.324219 4.789063-1.671875 3.742187-5.648438 7.632812-9.488281 9.636718-5.824219 3.039063-13.421876 3.46875-20.320313 1.144532-2.34375-.789063-4.625-1.871094-6.808594-3.226563 2.199219-.308594 4.460938-.886719 6.730469-1.746094zm0 0"/><path d="m315.085938 417.835938c-6.460938-32.804688-22.175782-59.609376-44.246094-75.46875-6.371094-4.582032-13.308594-8.292969-20.015625-11.882813-7.804688-4.175781-15.175781-8.121094-21.777344-13.328125-16.363281-12.902344-21.210937-29.265625-17.546875-38.761719.183594-.472656.257812-.957031.261719-1.4375 14.277343-10.839843 24.863281-26.507812 29.242187-43.949219 9.820313-1.128906 18.191406-5.085937 23.796875-11.296874 7.632813-8.46875 9.140625-20.933594 3.582031-29.648438-3.164062-4.960938-8.789062-8.269531-15.054687-8.851562-2.132813-.203126-4.207031-.058594-6.152344.398437 2.089844-13.949219 3.511719-29.042969-.300781-43.519531 1.898438-2.324219 1.863281-5.300782 1.84375-6.832032l-.574219-50.84375c6.152344-2.003906 11.878907-5.277343 16.710938-9.632812 3.113281.542969 6.40625.035156 9.511719-1.496094 5.023437-2.476562 9.152343-7.417968 10.777343-12.890625 3.867188-13.035156-3.40625-28.472656-16.921875-35.914062-10.316406-5.675781-23.5-7.136719-39.179687-4.339844l-.828125.152344c-3.761719.679687-7.316406 1.320312-10.003906.117187-1.847657-.824218-3.453126-2.632812-5.160157-4.542968-.75-.84375-1.527343-1.71875-2.375-2.5625-5.152343-5.15625-12.285156-8.257813-20.074219-8.742188-3.773437-.234375-7.457031.925781-10.703124 1.953125-2.976563.941406-5.785157 1.828125-7.785157 1.394531-2.445312-.535156-4.765625-1.441406-7.21875-2.402344-3.789062-1.476562-7.707031-3.007812-12.496093-3.363281-7.378907-.550781-14.988282.476563-21.996094 2.96875-8.179688 2.914063-15.339844 7.726563-20.699219 13.921875l-.578125.675782c-1.007812 1.1875-1.960938 2.308593-2.9375 2.824218-1.574219.835938-3.992188.570313-6.550781.289063l-.75-.082031c-13.835938-1.464844-26.019531 1.644531-34.320313 8.746093-4.800781 4.109375-8.289062 10.101563-9.570312 16.445313-1.007813 4.988281-.621094 9.835937 1.074218 14.082031-.949218.632813-1.828124 1.417969-2.609374 2.351563-2.445313 2.921874-3.558594 6.828124-2.96875 10.453124.921874 5.691407 5.390624 10.664063 11.65625 12.976563 3.789062 1.402344 7.769531 1.738281 11.503906 1.738281 1.253906 0 2.472656-.039062 3.652344-.085937l2.871093 46.546875c.097657 1.5625.261719 3.949218 1.53125 6.082031-.171875.335937-.316406.691406-.390625 1.078125-2.535156 13.355469-3.476562 26.96875-2.8125 40.535156-9.234375.519532-18.0625 5.925782-22.125 13.984375-5.074218 10.066407-2.144531 23.066407 6.667969 29.59375 6.894531 5.109375 16.464844 5.367188 23.6875 1.441407 3.484375 20.699218 15.464844 39.792968 32.65625 51.875-.046875.492187-.011719 1 .132813 1.507812 3.058593 10.550781-1.203126 28.636719-17.777344 43.410156-1.335938 1.191406-2.714844 2.328125-4.136719 3.417969-.007813.007813-.019531.015625-.027344.023437-9.671875 7.433594-21.167969 12.777344-32.335937 17.964844-2.585938 1.203125-5.171875 2.402344-7.734375 3.628906-15.355469 7.339844-32.410157 16.980469-42.453125 32.839844-9.617188 15.1875-11.363282 33.25-12.421875 51.972656-1.125 19.832032-1.835938 39.960938-2.125 59.832032-.050781 3.492187-.125 8.769531 3.011719 12.894531 4.160156 5.476563 11.351562 5.917969 15.976562 5.917969.476562 0 .925781-.003906 1.339844-.007813l292.667968-3.046875c2.121094-.023437 3.863282-1.683594 3.984376-3.804687 1.625-28.671875 3.300781-58.320313-2.40625-87.300781zm-91.03125-94.347657c1.171874.921875 2.371093 1.796875 3.582031 2.652344-.136719.445313-.210938.914063-.179688 1.40625.9375 15.761719-5.757812 32.71875-17.910156 45.355469-11.023437 11.464844-26.375 19.800781-44.386719 24.097656-14.886718 3.550781-31.875 4.472656-51.933594 2.816406-1.148437-.089844-2.277343.304688-3.109374 1.09375-.832032.792969-1.285157 1.902344-1.25 3.046875l3.046874 99.019531-7.738281.082032-.429687-112.035156c-.007813-2.289063.050781-4.273438.855468-5.382813 1.441407-1.980469 5.71875-1.636719 9.710938-1.035156 25.746094 3.875 50.582031.050781 69.925781-10.769531 20.414063-11.417969 34.585938-30.761719 38.253907-51.628907.519531.4375 1.039062.867188 1.5625 1.28125zm-5.921876-183.421875c6.679688.691406 13.351563 1.511719 20.011719 2.488282.300781.046874.664063.097656 1.074219.140624 3.609375 14.328126 1.554688 29.964844-.707031 44.160157-7.015625-4.007813-12.792969-10.019531-16.484375-17.25-4.292969-8.398438-5.613282-18.109375-3.71875-27.347657.15625-.761718.074218-1.511718-.175782-2.191406zm22.527344-6.71875c.007813.667969-.015625 1.09375-.046875 1.371094-.304687-.011719-.738281-.058594-1.292969-.140625-49-7.203125-98.621093-6.773437-147.484374 1.269531-2.417969.398438-3.058594.207032-3.195313.132813-.191406-.242188-.328125-1.078125-.414063-2.480469l-2.875-46.59375c11.390626-1.105469 25.078126-4.082031 35.558594-12.835938.472656-.390624.945313-.800781 1.421875-1.210937 2.597657-2.242187 5.042969-4.34375 7.324219-4.203125 1.277344.089844 2.78125.941406 4.375 1.84375.320312.179688.640625.359375.960938.539062 14.039062 7.753907 32.085937 7.574219 45.972656-.453124.789062-.457032 1.589844-.945313 2.394531-1.433594 3.941406-2.398438 7.660156-4.667969 10.835937-3.761719 1.984376.5625 3.792969 2.441406 5.710938 4.429687.457031.472657.910156.941407 1.367188 1.398438 8.59375 8.570312 20.480468 13.484375 32.621093 13.484375h.042969c2.070312-.003906 4.128906-.152344 6.167969-.433594zm-154.148437 46.914063c-.515625-12.089844.324219-24.207031 2.472656-36.121094.207031.007813.414063.015625.613281.015625 1.402344 0 2.664063-.207031 3.546875-.351562 7.144531-1.175782 14.308594-2.167969 21.480469-3.011719-1.152344 11.957031-3.796875 20.890625-8.292969 28.015625-4.246093 6.722656-10.90625 10.558594-19.820312 11.453125zm-21.570313-102.027344c-3.492187-1.289063-6.039062-3.921875-6.492187-6.703125-.210938-1.304688.257812-2.871094 1.195312-3.988281.390625-.464844 1.207031-1.246094 2.273438-1.265625 1.5-.023438 2.863281-.878906 3.539062-2.21875.671875-1.34375.542969-2.949219-.332031-4.167969-5.320312-7.390625-1.800781-18.722656 4.683594-24.277344 6.78125-5.800781 15.710937-7.152343 22.546875-7.152343 2.144531 0 4.082031.132812 5.683593.300781l.71875.078125c3.320313.363281 7.449219.816406 11.210938-1.183594 2.335938-1.238281 3.910156-3.089844 5.300781-4.71875l.53125-.625c0-.003906 0-.003906.003907-.003906 4.449218-5.140625 10.433593-9.152344 17.304687-11.597656 5.953125-2.121094 12.421875-3 18.691406-2.527344 3.582031.265625 6.777344 1.511718 10.160157 2.835937 2.636718 1.03125 5.363281 2.09375 8.429687 2.765625 4.09375.894532 8.082031-.363281 11.9375-1.585937 2.824219-.890625 5.488281-1.730469 7.773437-1.589844 5.742188.355469 11.164063 2.6875 14.875 6.394531.679688.683594 1.347657 1.433594 2.054688 2.226563 2.09375 2.347656 4.464844 5.007812 7.886719 6.539062 4.964843 2.222657 10.152343 1.28125 14.730469.453125l.808593-.144531c13.820313-2.460937 25.21875-1.296875 33.878907 3.46875 8.855468 4.875 16.171874 16.140625 13.078124 26.550781-.988281 3.339844-3.585937 6.464844-6.613281 7.957032-1.375.679687-3.472656 1.3125-5.640625.484374-1.488281-.570312-3.171875-.210937-4.292968.917969-7.089844 7.097657-16.910157 11.171875-26.9375 11.183594-.015626 0-.027344 0-.039063 0-10.019531 0-19.832031-4.054687-26.921875-11.128906-.421875-.421875-.839844-.855469-1.257812-1.289063-2.453126-2.542968-5.234376-5.429687-9.308594-6.589844-6.566406-1.863281-12.480469 1.734376-17.238282 4.632813-.75.457031-1.496093.910156-2.234374 1.339844-11.492188 6.644531-26.421876 6.789062-38.042969.375-.292969-.164063-.585938-.332031-.882813-.496094-2.199218-1.246094-4.691406-2.660156-7.796875-2.871094-5.585937-.40625-9.773437 3.234375-13.140625 6.140625-.445312.382813-.886718.761719-1.324218 1.128906-11.128907 9.296876-27.304688 11.015626-38.5 11.5-4.164063.175782-8.542969.238282-12.300782-1.148437zm28.953125 140.359375c-.113281-1.683594-1.253906-3.117188-2.871093-3.601562-1.613282-.476563-3.355469.089843-4.371094 1.4375-4.050782 5.371093-13.191406 6.523437-18.804688 2.363281-5.65625-4.191407-7.570312-12.933594-4.265625-19.488281 3.269531-6.488282 11.125-10.453126 18.679688-9.441407 1.210937.167969 2.421875-.222656 3.304687-1.058593.128906-.121094.226563-.261719.335938-.394532 12.054687-.851562 21.445312-6.109375 27.246094-15.296875 5.375-8.511719 8.433593-18.96875 9.632812-32.917969.007812-.101562-.003906-.195312-.003906-.292968 29.3125-2.9375 58.796875-3.128906 88.152344-.542969-.238282.386719-.421876.8125-.519532 1.28125-2.257812 11.023437-.683594 22.613281 4.4375 32.632813 5.121094 10.023437 13.585938 18.089843 23.84375 22.71875.539063.242187 1.101563.359374 1.65625.359374 1.28125 0 2.507813-.621093 3.273438-1.691406.457031-.214844.886718-.503906 1.246094-.886718 1.785156-1.902344 4.597656-2.816407 7.714843-2.535157 3.746094.351563 7.195313 2.328125 9.003907 5.164063 3.585937 5.621094 2.394531 14.179687-2.773438 19.90625-6.394531 7.09375-16.085938 8.625-21.292969 8.90625-1.828125.101562-3.355469 1.414062-3.730469 3.203125-4.625 22.15625-20.402343 41.507812-41.179687 50.492187-20.78125 8.988282-45.683594 7.238282-64.996094-4.5625-19.316406-11.804687-32.238281-33.167968-33.71875-55.753906zm34.535157 65.4375c11.191406 5.714844 23.726562 8.621094 36.265624 8.621094 10.648438 0 21.296876-2.09375 31.113282-6.339844 2.210937-.957031 4.367187-2.019531 6.464844-3.179688-.78125 10.269532 4.046874 20.9375 11.089843 29.722657-.039062.03125-.082031.050781-.121093.085937-13.046876 11.382813-30.460938 17.941406-47.773438 17.984375-.058594 0-.117188 0-.175781 0-16.386719 0-32.867188-5.832031-45.667969-16.074219 6.023438-9.375 9.8125-20.265624 8.804688-30.820312zm-13.550782 37.355469c14.171875 11.222656 32.347656 17.601562 50.414063 17.601562h.195312c17.375-.042969 34.824219-6.007812 48.71875-16.480469-1.351562 6.347657-3.847656 12.582032-7.300781 18.417969-.125.074219-.253906.132813-.375.222657-9.414062 6.914062-21.601562 11.066406-35.246094 12.003906-11.394531.785156-23.597656-.53125-38.390625-4.148438-6.128906-1.5-12.554687-3.351562-18.03125-6.722656-4.707031-2.894531-8.179687-6.671875-10.007812-10.820312.761719-.632813 1.515625-1.273438 2.257812-1.9375 2.710938-2.417969 5.335938-5.15625 7.765625-8.136719zm-94.121094 182.539062c-4.507812.054688-8.9375-.25-10.816406-2.722656-1.339844-1.765625-1.410156-4.746094-1.367187-7.902344.285156-19.757812.996093-39.773437 2.113281-59.488281.996094-17.625 2.601562-34.5625 11.183594-48.117188 8.949218-14.132812 24.796875-23.035156 39.117187-29.878906 2.539063-1.214844 5.09375-2.402344 7.65625-3.59375 10.042969-4.664062 20.339844-9.449218 29.644531-15.828125 2.613282 4.960938 6.859376 9.378907 12.347657 12.753907 6.425781 3.957031 13.574219 6.03125 20.34375 7.6875 12.578125 3.074218 23.796875 4.589843 34.070312 4.589843 2.308594 0 4.570313-.074219 6.789063-.226562 7.964844-.550781 15.5-2.109375 22.410156-4.59375-4.175781 3.898437-8.855469 7.347656-13.949219 10.195312-17.792969 9.949219-40.800781 13.441407-64.792969 9.832031-4.191406-.632812-12.914062-1.941406-17.429687 4.269532-2.421875 3.332031-2.40625 7.4375-2.394531 10.152344l.429687 112.089843-30.472656.316407c-.003906-.035157.003906-.074219.003906-.109376l-5.554687-87.597656c-.140625-2.222656-2.050782-3.890625-4.277344-3.769531-2.222656.140625-3.910156 2.058594-3.769531 4.28125l5.53125 87.28125zm288.898438-3.007812-54.4375.566406c-2.203125-30.554687-1.898438-61.5.90625-92 .203125-2.21875-1.429688-4.179687-3.644531-4.382813-2.199219-.214843-4.179688 1.425782-4.386719 3.644532-2.828125 30.769531-3.148438 61.988281-.953125 92.824218l-127.164063 1.324219-2.914062-94.710937c18.992188 1.238281 35.378906.136718 49.964844-3.339844 19.519531-4.65625 36.230468-13.773438 48.328125-26.355469 12.828125-13.335937 20.054687-30.339843 20.230469-47.226562 3.785156 2.234375 7.640624 4.300781 11.429687 6.328125 6.476563 3.46875 13.175781 7.054687 19.117187 11.324218 20.402344 14.660157 34.976563 39.691407 41.042969 70.480469 5.265625 26.738281 3.996094 54.527344 2.480469 81.523438zm0 0"/></svg>