<svg height="512pt" viewBox="-95 0 512 512.00052" width="512pt" xmlns="http://www.w3.org/2000/svg"><path d="m268.128906 500.746094c.40625-14.203125.519532-27.546875.625-40.453125l.003906-.363281c.105469-12.886719.222657-27.488282.691407-42.871094.167969-5.472656.335937-11.136719-1.808594-16.34375-3.410156-8.21875-11.453125-12.878906-20.097656-17.3125l-2.554688-1.3125.421875-2.835938c2.703125-18.128906 6.738282-41.84375 13.996094-64.503906l1.640625-5.105469 4.425781 3.023438c4.042969 2.761719 7.269532 5.191406 10.164063 7.644531 20.210937 17.089844 34.320312 44.34375 39.726562 76.742188 4.296875 25.777343 3.117188 52.101562 1.675781 74.75-.105468 1.726562-.074218 3.789062-.023437 6.304687.144531 7.269531.324219 16.316406-4.117187 20.292969-6.503907 5.839844-17.90625 6.046875-26.234376 6.195312l-18.652343.339844zm0 0" fill="#bfc7d8"/><path d="m114.296875 359.710938c-3.203125-22.753907-7.964844-45.363282-14.148437-67.199219l-2.058594-2.917969 2.636718-2.386719c1.429688-1.277343 2.679688-2.476562 3.820313-3.671875.167969-.171875.320313-.339844.472656-.503906l4.484375-4.8125 2.417969 5.636719c7.171875 16.703125 16.117187 32.582031 26.585937 47.1875 1.164063 1.617187 3.566407 4.957031 6.820313 4.957031 2.488281-.011719 4.605469-1.980469 5.742187-3.039062 5.496094-5.050782 10.464844-10.707032 14.789063-16.828126l3.535156-5 3.160157 5.246094c3.019531 5.015625 6.613281 9.707032 10.679687 13.941406 1.761719 1.824219 3.335937 3.054688 5.261719 3.09375.003906 0 .132812 0 .214844.007813 3.542968-.078125 5.765624-4.585937 6.5-6.078125l24.417968-49.292969 3.941406 4.34375c1.773438 1.957031 3.714844 3.875 5.765626 5.699219l2.328124 2.070312-1.4375 2.765626c-10.886718 20.90625-18.53125 43.320312-22.722656 66.621093l-.589844 3.289063h-3.347656l-88.785156.324218zm0 0" fill="#bfc7d8"/><path d="m28.113281 506.332031c-7.460937-.171875-15.128906-.785156-19.710937-6.125-3.710938-4.3125-4.109375-10.265625-4.214844-16.5-.441406-26.367187.277344-53.117187 2.140625-79.507812 1.695313-24.121094 4.9375-51.460938 22.0625-70.667969 10.5625-11.835938 25.941406-19.441406 37.171875-24.996094l5.195312-2.566406.5625 5.765625c1.621094 16.652344 3.578126 33.191406 5.816407 49.164063.65625 4.644531 1.363281 9.46875 2.113281 14.335937l.445312 2.882813-2.609374 1.300781-20.324219 17.320312c.648437 35.707031.65625 73.433594.015625 106.261719l-.078125 4.019531zm0 0" fill="#bfc7d8"/><path d="m187.652344 333.355469-.417969-.214844c-1.367187-.425781-2.601563-1.46875-3.949219-2.863281-5.335937-5.550782-9.828125-11.863282-13.351562-18.769532l-2.160156-4.234374 4.542968-1.402344c3.664063-1.132813 6.902344-3.488282 9.761719-5.566406l28.179687-20.46875 5.933594 5.011718-21.039062 42.460938c-1.390625 2.8125-3.394532 6.046875-6.535156 6.046875zm0 0" fill="#d8deec"/><path d="m145.328125 335.929688c-2.855469 0-5.019531-2.492188-6.765625-4.933594-10.085938-14.066406-18.75-29.277344-25.738281-45.195313l-6.011719-13.695312 12.046875 8.863281c11.9375 8.785156 24.765625 16.339844 38.132813 22.445312 2.535156 1.15625 5.5 2.433594 8.523437 2.917969l6.0625.964844-3.328125 5.15625c-4.878906 7.550781-10.667969 14.433594-17.203125 20.449219-1.679687 1.566406-3.546875 3.027344-5.707031 3.027344zm0 0" fill="#d8deec"/><g fill="#ffbf48"><path d="m239.558594 123.980469c-3.863282-2.882813-8.03125-5.363281-11.707032-7.550781l-.167968-.101563c-7.363282-4.367187-15.167969-8.027344-23.191406-10.878906l-3.320313-1.175781.75-3.441407c.015625-.078125.035156-.15625.054687-.234375 3.039063-20.613281 2.632813-41.441406-1.207031-61.90625-.984375-5.265625-2.097656-9.453125-3.496093-13.1875l-2.742188-7.320312 7.542969 2.058594c20.144531 5.5 37.300781 20.023437 45.894531 38.859374 9.117188 19.980469 8.148438 44.355469-2.519531 63.609376l-2.21875 4.003906zm0 0"/><path d="m74.710938 145.273438c-2.195313 0-3.929688-.300782-5.148438-.894532l-3.277344-1.589844 1.277344-3.414062c.425781-1.132812 1.308594-2.351562 2.699219-3.734375 23.871093-23.789063 56.902343-37.515625 90.609375-37.648437l.855468-.003907c7.851563 0 15.941407.808594 24.050782 2.398438 14.796875 2.898437 28.886718 8.285156 41.875 16.003906 5.839844 3.46875 13.113281 7.78125 18.300781 13.261719 2.027344 2.140625 3.480469 4.894531 4.632813 7.300781l2.625 5.480469-6.074219.242187c-6.574219.265625-13.246094.273438-19.699219.285157h-.714844c-4.152344 0-8.441406 0-12.636718.070312zm0 0"/><path d="m196.960938 103.023438c-3.671876-1.058594-7.425782-1.964844-11.160157-2.695313-8.089843-1.59375-16.117187-2.402344-23.859375-2.402344l-1.042968.003907c-5.898438.03125-11.851563.476562-17.71875 1.320312-5.78125.835938-11.597657 2.089844-17.285157 3.726562l-4.390625 1.261719-.671875-4.519531c-2.988281-20.105469-3.484375-40.550781-1.476562-60.761719.914062-9.175781 2.613281-18.546875 8.828125-24.960937 6.722656-6.9375 16.976562-8.667969 27.054687-9.5 3.546875-.292969 6.429688-.429688 9.070313-.429688 9.378906 0 16.269531 1.789063 21.675781 5.636719 9.496094 6.765625 12.859375 19.054687 14.726563 29 3.777343 20.179687 4.21875 40.714844 1.316406 61.042969l-.648438 4.550781zm-33.519532-69.382813c-4.660156 0-9.535156 1.195313-14.097656 3.457031-8.292969 4.113282-14.140625 10.984375-15.636719 18.375-2.011719 9.9375 2.511719 20.785156 11 26.378906 4.214844 2.765626 9.304688 4.230469 14.71875 4.230469 6.488281 0 12.75-2.113281 17.632813-5.945312 7.136718-5.609375 10.9375-15.011719 9.910156-24.539063-.957031-8.886718-5.875-16.101562-13.484375-19.785156-2.96875-1.441406-6.347656-2.171875-10.042969-2.171875zm0 0"/><path d="m159.414062 85.996094c-5.429687 0-10.5-1.453125-14.675781-4.203125-8.328125-5.480469-12.941406-16.542969-10.972656-26.304688 1.496094-7.386719 7.332031-14.238281 15.609375-18.332031 4.5625-2.265625 9.429688-3.464844 14.0625-3.464844 3.660156 0 7.03125.734375 10.023438 2.179688 7.59375 3.675781 12.492187 10.871094 13.445312 19.734375 1.023438 9.507812-2.765625 18.886719-9.890625 24.480469-4.839844 3.8125-11.09375 5.910156-17.601563 5.910156zm0 0"/><path d="m75 124.238281c-7.523438-18.644531-7.339844-40.726562.488281-59.066406 7.488281-17.59375 21.9375-32.222656 39.636719-40.132813l7.15625-3.195312-1.609375 7.667969c-.574219 2.742187-1.015625 5.738281-1.382813 9.4375-2.054687 20.632812-1.492187 41.515625 1.671876 62.074219l.503906 3.273437-3.121094 1.105469c-13.5 4.785156-26 11.675781-37.15625 20.476562l-4.191406 3.308594zm0 0"/></g><path d="m89.46875 507.800781-32.707031-.785156.078125-3.980469c.625-32.09375.628906-69.160156.007812-104.375l-.03125-1.890625 22.757813-19.367187 1.125 7.027344.175781 1.113281c.085938.566406.171875 1.136719.269531 1.703125.15625.996094.261719 2.214844.371094 3.589844.347656 4.339843.816406 10.277343 4.042969 12.425781.855468.570312 2.167968.859375 3.890625.859375 2.445312 0 5.277343-.550782 8.015625-1.085938 1.773437-.347656 3.300781-.644531 4.488281-.742187 7.753906-.636719 13.183594-3.746094 14.890625-8.535157.898438-2.539062.652344-5.433593.457031-7.761718-.535156-6.078125-1.1875-12.222656-1.941406-18.292969l-.554687-4.476563 92.078124-.332031-.664062 4.589844c-1.691406 11.667969-2.507812 23.453125-2.417969 35.027344l37.953125 2.007812h.105469c.773437-5.574219 1.539063-11.179687 2.328125-16.785156l.800781-5.667969 5.046875 2.695313c7.292969 3.898437 14.46875 8.53125 17.550782 15.992187 2.132812 5.160156 1.957031 11.054688 1.800781 16.257813-.46875 15.480469-.585938 30.058593-.6875 42.921875-.105469 12.382812-.222657 26.414062-.644531 41.191406l-.105469 3.816406-42.03125.765625 1.792969-74.183593c-12.628907-.34375-25.445313-.5-38.121094-.5-31.875 0-64.011719.980468-95.515625 2.917968.773437 23.246094.746093 46.789063-.117188 70.007813l-.144531 3.851562zm0 0" fill="#288fc9"/><path d="m203.820312 402.488281.039063-3.835937c.355469-36.050782 9.234375-72.085938 25.679687-104.214844l2.15625-4.21875 3.796876 2.835938c5.730468 4.285156 12.023437 8.203124 17.578124 11.660156 1.75 1.078125 3.511719 2.175781 5.28125 3.292968l2.644532 1.664063-.980469 2.972656c-9.800781 29.726563-14.175781 62.125-17.695313 88.160157l-.492187 3.652343zm0 0" fill="#288fc9"/><path d="m89.230469 404.089844c-1.324219 0-2.34375-.199219-3.203125-.628906l-.21875-.113282-.203125-.132812c-2.703125-1.796875-3.5-5.734375-4.023438-12.378906l-.011719-.121094c-.109374-1.296875-.214843-2.519532-.363281-3.5-1.414062-8.605469-2.761719-17.480469-4-26.339844-2.414062-17.171875-4.476562-34.742188-6.132812-52.226562l-.257813-2.71875 2.441406-1.230469c6.574219-3.316407 14.226563-7.386719 21.160157-12.414063l4.660156-3.382812 1.542969 5.546875c8.324218 29.890625 13.914062 60.679687 16.609375 91.511719.253906 2.980468.382812 5.4375-.457031 7.785156-2.40625 6.773437-11.167969 8.1875-14.824219 8.484375-1.195313.097656-2.800781.410156-4.503907.738281-2.777343.542969-5.9375 1.121094-8.214843 1.121094zm0 0" fill="#288fc9"/><path d="m221.675781 173.207031c-4.753906-7.945312-6.625-17.722656-5.132812-26.820312l.542969-3.335938 3.382812-.019531c2.097656-.011719 4.191406-.011719 6.257812-.011719h.015626c2.101562 0 4.21875 0 6.347656-.007812l4.992187-.023438-1.066406 4.875c-1.871094 8.582031-4.652344 16.972657-8.265625 24.9375l-3.152344 6.957031zm0 0" fill="#c67045"/><path d="m152.417969 221.996094c-1.347657 0-2.574219-.292969-3.652344-.871094-1.558594-.824219-2.765625-2.484375-3.132813-4.328125-.304687-1.5-.019531-2.929687.8125-4.003906-5.035156 3.160156-10.824218 5.332031-16.761718 6.195312-.691406.101563-1.617188.222657-2.558594.222657-.992188 0-1.855469-.128907-2.628906-.398438l-.117188-.039062-.109375-.046876c-.671875-.277343-1.246093-.652343-1.710937-1.117187l-2.144532-2.144531 1.488282-2.648438c.378906-.667968.980468-1.40625 1.898437-2.324218 5.199219-5.199219 11.109375-9.691407 17.566407-13.351563l.605468-.351563c4.5625-2.589843 10.144532-5.757812 15.398438-6.070312 1.109375-.070312 2.269531-.105469 3.441406-.105469 4.285156 0 8.78125.457031 13.003906 1.316407 11.800782 2.421874 22.449219 8.621093 29.984375 17.453124 1.84375 2.15625 2.65625 3.875 2.597657 5.527344v.339844l-.097657.433594c-.609375 2.730468-3.761719 4.023437-6.273437 4.300781-.574219.0625-1.152344.097656-1.730469.097656-5.082031 0-9.988281-2.34375-13.117187-6.265625-.539063 4.261719-4.839844 7.871094-9.445313 7.871094-.15625 0-.3125-.003906-.46875-.015625-4.480469-.269531-8.707031-3.8125-10.074219-8.425781l-.160156.132812c-1.898438 2.414063-4.050781 5.144532-6.859375 6.882813-1.792969 1.117187-3.839844 1.734375-5.753906 1.734375zm0 0" fill="#c67045"/><path d="m79.351562 145.257812 26.605469-.425781.289063 3.75c.765625 9.867188-4.25 20.246094-12.472656 25.820313l-4.472657 3.027344zm0 0" fill="#c67045"/><path d="m165.925781 256.363281c-12.953125 0-25.589843-3.242187-36.542969-9.382812-21.59375-12.09375-36.648437-35.210938-39.292968-60.328125h-3.898438l-.132812-3.929688-.164063-6.414062h4.105469c.425781 0 .976562-.175782 1.59375-.511719 9.507812-5.152344 15.433594-15.917969 14.753906-26.785156l-.261718-4.183594 110.808593-1.78125-.589843 4.585937c-1.320313 10.253907 1.445312 20.820313 7.582031 28.984376.589843.78125 1.160156 1.183593 1.683593 1.183593.136719 0 .234376-.019531.253907-.027343.613281-.144532.972656-.71875 1.265625-1.320313 4.617187-9.339844 8.046875-19.277344 10.195312-29.539063l.5-2.398437 2.359375-.644531c1.832031-.5 3.753907-.753906 5.710938-.753906 7.5 0 14.703125 3.679687 18.804687 9.605468 5.5 7.960938 5.011719 19.589844-1.132812 27.050782-4.171875 5.070312-10.769532 8.101562-17.648438 8.101562-3.0625 0-5.980468-.59375-8.675781-1.765625.253906 24.628906-14.269531 49.304687-36.179687 61.429687-10.433594 5.773438-22.570313 8.824219-35.097657 8.824219zm-19.980469-38.332031c.558594 1.351562 1.578126 2.503906 2.792969 3.15625 1.085938.578125 2.332031.871094 3.6875.871094 1.957031 0 3.957031-.601563 5.785157-1.742188 1.15625-.71875 2.273437-1.640625 3.421874-2.820312l3.0625-3.136719 2.84375 3.335937c2.035157 2.386719 4.839844 3.859376 7.6875 4.046876.15625.007812.335938.011718.515626.011718 2.929687 0 5.789062-1.398437 7.652343-3.746094l2.296875-2.898437 3.066406 2.0625c2.84375 1.910156 6.25 2.964844 9.589844 2.964844.566406 0 1.132813-.03125 1.6875-.09375 3.328125-.367188 5.8125-2.070313 6.320313-4.339844.609375-2.703125-1.65625-5.359375-2.507813-6.363281-7.554687-8.84375-18.214844-15.046875-30.023437-17.46875-4.214844-.863282-8.722657-1.320313-13.03125-1.320313-1.171875 0-2.324219.035157-3.433594.105469-5.269531.320312-10.867187 3.5-15.363281 6.050781l-.644532.371094c-6.503906 3.691406-12.421874 8.1875-17.59375 13.371094-.824218.816406-2.507812 2.488281-2.507812 4.453125v.148437c.070312 1.601563 1.382812 3.164063 3.207031 3.8125.78125.277344 1.660157.414063 2.667969.414063.941406 0 1.871094-.121094 2.578125-.222656 3.742187-.546876 7.421875-1.609376 10.933594-3.152344l3.746093-1.648438zm0 0" fill="#ffdac4"/><path d="m168.015625 306.480469c-3.820313 0-7.527344-1.546875-11-3.132813-15.242187-6.953125-29.726563-15.761718-43.050781-26.175781l-2.664063-2.085937 1.613281-2.972657c4.296876-7.929687 6.1875-16.570312 5.316407-24.339843l-.953125-8.550782 7.152344 4.78125c1.636718 1.09375 3.296874 2.117188 4.933593 3.042969 10.921875 6.117187 23.554688 9.351563 36.515625 9.351563 12.628906 0 24.769532-3.042969 35.171875-8.800782.769531-.421875 1.574219-.894531 2.46875-1.445312l6.3125-3.890625-.214843 7.410156c-.207032 7.09375 1.894531 14.695313 6.070312 21.976563l2.449219 4.273437s-4.695313 1.523437-4.695313 1.523437l-31.402344 22.808594c-4.527343 3.28125-8.355468 5.820313-12.945312 6.183594-.355469.03125-.714844.042969-1.078125.042969zm0 0" fill="#ffdac4"/><path d="m75.128906 192.234375c-4.519531 0-8.765625-1.28125-12.277344-3.699219-8.050781-5.53125-11.542968-16.980468-7.941406-26.066406 3.21875-8.109375 11.683594-13.773438 20.59375-13.773438.808594 0 1.617188.050782 2.414063.144532l2.578125.308594 7.863281 25.453124c.179687.589844.398437 1.207032.925781 1.523438.207032.121094.433594.1875.691406.1875h3.898438l.121094 3.894531.167968 6.414063h-4.105468c-3.902344 3.570312-9.335938 5.613281-14.929688 5.613281zm0 0" fill="#ffdac4"/><path d="m189.785156 431.082031c-30.558594 0-61.441406.90625-91.78125 2.695313l-3.882812.226562.121094 3.886719c.660156 21.707031.589843 43.875-.210938 65.886719l-.148438 4.113281 4.117188.03125c1.394531.007813 2.792969.011719 4.1875.011719 9.953125 0 19.871094-.234375 29.464844-.460938l.621094-.015625c4.589843-.105469 9.191406-.210937 13.816406-.296875l79.765625-1.460937 1.789062-74.160157-4.007812-.085937c-11.199219-.246094-22.585938-.371094-33.851563-.371094zm0 0" fill="#5bd0fc"/><path d="m142.507812 85.1875c4.976563 3.277344 10.921876 4.890625 16.921876 4.890625 7.148437 0 14.367187-2.292969 20.101562-6.796875 8.214844-6.457031 12.589844-17.226562 11.414062-28.113281-1.109374-10.289063-6.839843-18.65625-15.714843-22.957031-7.925781-3.839844-18.269531-3.351563-27.660157 1.300781-9.394531 4.65625-16.039062 12.566406-17.78125 21.167969-2.328124 11.5 2.902344 24.046874 12.71875 30.507812zm-4.816406-28.90625c1.25-6.179688 6.28125-11.988281 13.457032-15.542969 4.085937-2.023437 8.335937-3.046875 12.289062-3.046875 2.996094 0 5.820312.585938 8.277344 1.777344 6.324218 3.0625 10.410156 9.097656 11.214844 16.5625.878906 8.144531-2.332032 16.15625-8.378907 20.910156-7.777343 6.105469-19.644531 6.757813-27.609375 1.511719-7.027344-4.625-10.917968-13.949219-9.25-22.171875zm0 0"/><path d="m123.117188 222.628906c2.519531.890625 5.03125.695313 7.15625.382813 4.109374-.597657 8.15625-1.769531 11.972656-3.449219.914062 2.199219 2.550781 4.050781 4.601562 5.148438 1.6875.902343 3.597656 1.347656 5.578125 1.347656 2.640625 0 5.402344-.792969 7.902344-2.347656 1.585937-.984376 2.949219-2.167969 4.167969-3.421876 2.667968 3.132813 6.453125 5.1875 10.472656 5.441407 4.542969.273437 8.882812-1.859375 11.5625-5.234375 4.058594 2.726562 9.085938 4.058594 13.933594 3.527344 5.058594-.558594 8.902344-3.480469 9.792968-7.441407 1.050782-4.65625-2.277343-8.554687-3.371093-9.839843-8.132813-9.523438-19.585938-16.195313-32.257813-18.785157-5.722656-1.171875-11.941406-1.632812-17.511718-1.292969-6.207032.378907-12.261719 3.820313-17.125 6.582032l-.632813.359375c-6.777344 3.84375-12.980469 8.558593-18.4375 14.015625-1.136719 1.136718-3.789063 3.789062-3.675781 7.5.105468 3.289062 2.460937 6.304687 5.871094 7.507812zm3.507812-9.304687c4.945312-4.945313 10.570312-9.21875 16.714844-12.707031l.636718-.363282c4.140626-2.351562 9.292969-5.277344 13.632813-5.542968 4.882813-.292969 10.355469.109374 15.40625 1.144531 10.917969 2.234375 20.769531 7.960937 27.738281 16.125 1.785156 2.085937 1.648438 2.796875 1.640625 2.828125-.058593.273437-1.089843 1.011718-2.808593 1.199218-4.203126.460938-8.636719-1.378906-11.277344-4.691406-1.015625-1.273437-2.699219-1.808594-4.261719-1.363281-1.566406.449219-2.707031 1.796875-2.894531 3.414063-.277344 2.382812-3.035156 4.460937-5.675782 4.316406-2.785156-.175782-5.558593-2.570313-6.449218-5.566406-.429688-1.445313-1.628906-2.53125-3.109375-2.8125-1.480469-.277344-2.996094.289062-3.925781 1.472656-1.808594 2.308594-3.675782 4.691406-5.921876 6.085937-1.878906 1.171875-4.054687 1.46875-5.417968.742188-.507813-.273438-.960938-.925781-1.097656-1.585938-.070313-.339843-.046876-.644531.058593-.78125 1.21875-1.546875 1.140625-3.75-.183593-5.207031-.789063-.867188-1.878907-1.320312-2.984376-1.320312-.753906 0-1.511718.210937-2.183593.644531-4.550781 2.933593-9.789063 4.898437-15.148438 5.679687-1.152343.164063-2.445312.292969-3.3125-.007812-.171875-.0625-.316406-.160156-.414062-.242188.128906-.238281.453125-.675781 1.238281-1.460937zm0 0"/><path d="m321.097656 472.066406c1.449219-22.902344 2.632813-49.527344-1.730468-75.679687-5.5625-33.347657-20.160157-61.472657-41.109376-79.183594-7.210937-6.105469-15.257812-11.105469-23.039062-15.945313-6.925781-4.304687-14.085938-8.757812-20.433594-13.878906-5.683594-4.585937-23.980468-21.121094-20.761718-41.296875.128906-.8125.003906-1.605469-.3125-2.300781 15.65625-12.910156 25.960937-32.347656 27.351562-52.296875 9.308594 1.667969 19.570312-1.789063 25.605469-9.128906 7.25-8.820313 7.824219-22.550781 1.328125-31.945313-2.691406-3.890625-6.519532-6.894531-10.835938-8.835937-.074218-.355469-.191406-.703125-.359375-1.035157-.511719-1-1.007812-2.070312-1.535156-3.199218-1.613281-3.46875-3.441406-7.402344-6.355469-10.480469-.238281-.246094-.492187-.480469-.734375-.722656 12.078125-20.644531 13.417969-46.96875 3.484375-68.730469-9.945312-21.792969-30.757812-38.046875-54.308594-42.417969-.300781-.058593-.59375-.070312-.886718-.058593-2.132813-3.230469-4.785156-6.160157-8.125-8.535157-9.652344-6.867187-21.773438-6.914062-33.441406-5.945312-10.863282.898437-21.976563 2.824219-29.625 10.714843-2.226563 2.296876-3.941407 4.878907-5.273438 7.644532-.226562.035156-.449219.082031-.671875.160156-21.042969 7.40625-38.832031 24.082031-47.578125 44.605469-8.664062 20.316406-8.453125 44.40625.503906 64.59375-1.660156 1.488281-3.28125 3.019531-4.863281 4.59375-1.355469 1.351562-5.476563 5.460937-3.832031 10.554687.355468 1.09375.996094 2.261719 2.09375 3.28125-6.457032 2.640625-11.898438 7.761719-14.515625 14.371094-4.339844 10.953125-.292969 24.242188 9.410156 30.917969 7.753906 5.335937 18.160156 5.78125 26.457031 1.683593 3.386719 17.988282 12.789063 34.59375 26.152344 46.683594-.316406.828125-.378906 1.757813-.082031 2.664063 3.800781 11.742187-.695313 26.578125-11.453125 37.800781-9.933594 10.355469-23.496094 17.066406-36.609375 23.554688l-.59375.292968c-12.464844 6.164063-27.976563 13.835938-39.050781 26.261719-17.972657 20.15625-21.34375 48.292969-23.09375 73.089844-1.863282 26.460937-2.589844 53.332031-2.148438 79.855469.109375 6.730468.605469 13.75 5.195312 19.089843 5.660157 6.585938 14.683594 7.339844 22.695313 7.527344l61.257813 1.464844c4.269531.101562 8.527343.144531 12.773437.144531 10.085937 0 20.078125-.238281 29.832031-.464844 4.746094-.113281 9.507813-.226562 14.289063-.316406l140.515625-2.558594c8.980468-.15625 21.285156-.375 28.929687-7.234375 5.824219-5.21875 5.625-15.296875 5.46875-23.394531-.042969-2.238281-.085937-4.351562.015625-5.964844zm-70.136718-163.957031c1.746093 1.082031 3.5 2.175781 5.253906 3.285156-9.539063 28.933594-13.867188 59.335938-17.855469 88.878907l-30.496094-1.582032c.347657-35.519531 9.050781-70.804687 25.234375-102.429687 5.78125 4.324219 11.90625 8.140625 17.863282 11.847656zm-24.277344-17.027344c-11.085938 21.277344-18.871094 44.195313-23.117188 67.761719-.003906 0-.003906 0-.003906 0l-85.308594.3125c-3.210937-22.867188-7.980468-45.558594-14.253906-67.730469-.128906-.457031-.347656-.863281-.609375-1.230469 1.394531-1.242187 2.746094-2.535156 4.050781-3.894531.273438-.289062.542969-.582031.8125-.875 7.242188 16.890625 16.300782 33.007813 27.007813 47.945313 1.421875 1.984375 4.75 6.625 10.066406 6.625h.046875c3.996094-.019532 6.992188-2.777344 8.425781-4.101563 5.714844-5.265625 10.847657-11.113281 15.324219-17.453125 3.179688 5.28125 6.941406 10.1875 11.226562 14.648438 2.015626 2.09375 4.550782 4.246094 8.070313 4.324218.066406.003907.132813.003907.199219.003907 6.0625 0 9.152344-6.238281 10.175781-8.304688l21.816406-44.03125c1.863281 2.058594 3.886719 4.0625 6.070313 6zm-145.519532 69.246094c-2.414062-17.222656-4.464843-34.730469-6.105468-52.054687 7.472656-3.777344 14.90625-7.8125 21.707031-12.757813 8.257813 29.628906 13.804687 60.164063 16.480469 90.800781.214844 2.464844.332031 4.484375-.238282 6.085938-1.667968 4.695312-9.132812 5.65625-11.378906 5.84375-1.417968.113281-3.128906.445312-4.941406.796875-2.460938.480469-7.585938 1.476562-8.871094.84375-1.582031-1.054688-2.019531-6.464844-2.253906-9.367188-.113281-1.417969-.21875-2.757812-.410156-3.914062-1.421875-8.714844-2.765625-17.558594-3.988282-26.277344zm35.320313-76.136719c12.121094 8.921875 25.148437 16.601563 38.839844 22.855469 3.007812 1.371094 6.171875 2.695313 9.566406 3.234375-4.667969 7.230469-10.21875 13.847656-16.550781 19.683594-.585938.535156-2.136719 1.964844-3.003906 1.96875-.003907 0-.003907 0-.003907 0-.539062 0-1.585937-.566406-3.519531-3.261719-9.957031-13.890625-18.457031-28.832031-25.328125-44.480469zm57.011719 25.496094c4.273437-1.316406 7.886718-3.9375 10.929687-6.144531l28.179688-20.46875-21.039063 42.460937c-1.886718 3.8125-2.925781 3.839844-2.96875 3.820313-.25-.007813-.894531-.253907-2.433594-1.855469-5.085937-5.289062-9.335937-11.28125-12.667968-17.8125zm46.988281-162.652344c2.097656-.007812 4.1875-.011718 6.242187-.011718 2.113282-.003907 4.242188-.003907 6.378907-.015626-1.808594 8.308594-4.484375 16.40625-8 24.144532-4.285157-7.171875-5.96875-15.867188-4.621094-24.117188zm23.839844-86.277344c8.652343 18.960938 7.714843 41.804688-2.378907 60.019532-4.089843-3.054688-8.441406-5.640625-12.21875-7.882813-7.625-4.527343-15.613281-8.273437-23.894531-11.214843.019531-.085938.050781-.167969.066407-.253907 3.144531-21.128906 2.738281-42.484375-1.199219-63.476562-.824219-4.375-1.933594-9.179688-3.675781-13.847657 18.859374 5.148438 35.160156 18.820313 43.300781 36.65625zm-113.261719-43.980468c5.796875-5.980469 15.203125-7.523438 24.503906-8.292969 10.136719-.84375 20.558594-.882813 28.101563 4.480469 8.324219 5.921875 11.378906 17.257812 13.105469 26.472656 3.707031 19.757812 4.136718 39.851562 1.296874 59.742188-3.785156-1.089844-7.621093-2.019532-11.507812-2.78125-8.519531-1.675782-17.179688-2.550782-25.703125-2.46875h-.003906c-12.238281.046874-24.386719 1.84375-36.070313 5.207031-2.9375-19.785157-3.429687-39.882813-1.449218-59.789063.839843-8.449218 2.359374-17.03125 7.726562-22.570312zm-51.898438 49.960937c7.136719-16.746093 20.96875-30.617187 37.59375-38.042969-.683593 3.238282-1.117187 6.5625-1.445312 9.855469-2.089844 21.003907-1.515625 42.222657 1.691406 63.082031-13.789062 4.894532-26.773437 12.023438-38.296875 21.109376-7.152343-17.71875-7.035156-38.429688.457031-56.003907zm-6.082031 71.738281c23.140625-23.054687 55.144531-36.351562 87.808594-36.484374 8.015625-.0625 16.117187.746093 24.121094 2.316406 14.339843 2.816406 28 8.035156 40.597656 15.519531 5.632813 3.34375 12.640625 7.507813 17.441406 12.578125 1.5625 1.648438 2.792969 3.914062 3.929688 6.273438-6.742188.273437-13.589844.277343-20.257813.28125-4.164062.003906-8.472656.003906-12.703125.074218l-139.125 2.230469c-2.210937.023437-3.234375-.308594-3.589843-.488281.121093-.316406.511718-1.042969 1.777343-2.300782zm18.441407 32.617188-6.773438-21.921875 17.507812-.28125c.660157 8.53125-3.648437 17.398437-10.734374 22.203125zm2.542968 15.136719c-.160156-1.515625-1.160156-2.808594-2.585937-3.347657-1.421875-.539062-3.03125-.226562-4.152344.800782-5.878906 5.402344-15.636719 6.089844-22.210937 1.5625-6.578126-4.523438-9.425782-13.882813-6.484376-21.304688 2.875-7.261718 11.054688-12.0625 18.804688-11.132812l7.097656 22.976562c.246094.792969.824219 2.648438 2.683594 3.765625.679688.40625 1.601562.757813 2.757812.757813 1.003907 0 2.1875-.265625 3.535157-.996094 10.910156-5.914062 17.59375-18.230469 16.824219-30.550781l102.003906-1.636719c-1.441406 11.175781 1.570312 22.878906 8.351562 31.898438 1.691406 2.246093 3.519532 2.78125 4.875 2.78125.464844 0 .871094-.0625 1.199219-.140626 2.503906-.589843 3.5625-2.734374 3.910156-3.4375 4.777344-9.675781 8.308594-19.929687 10.519531-30.492187 7.324219-2 15.839844 1.003906 20.167969 7.265625 4.519531 6.539062 4.121094 16.097656-.925781 22.238281s-14.351562 8.378907-21.640625 5.207031c-1.253906-.546874-2.699219-.417968-3.839844.339844-1.140625.753906-1.816406 2.039063-1.800781 3.40625.277344 23.175782-13.414062 46.425782-34.070312 57.855469-20.40625 11.292969-46.996094 11.078125-67.746094-.546875-20.476563-11.480469-34.761719-33.421875-37.273438-57.269531zm33.335938 64.300781c11.742187 6.578125 25.171875 9.875 38.53125 9.875 12.953125 0 25.839844-3.097656 37.058594-9.304688.886718-.492187 1.761718-1.011718 2.628906-1.542968-.230469 7.96875 2.074218 16.207031 6.59375 24.082031-.371094.125-.734375.289063-1.070313.535156l-31.457031 22.84375c-4.003906 2.90625-7.347656 5.152344-10.914062 5.429688-3.25.261719-6.761719-1.214844-10.097657-2.734375-15.03125-6.867188-29.230469-15.511719-42.246093-25.6875 4.679687-8.636719 6.75-18.015625 5.785156-26.691406 1.683594 1.128906 3.414062 2.199218 5.1875 3.195312zm-115.96875 247.074219c-2.839844-3.300781-3.15625-8.488281-3.25-13.964844-.433594-26.292969.285156-52.925781 2.132812-79.15625 1.65625-23.464844 4.785156-50.03125 21.066406-68.289063 9.851563-11.054687 24.230469-18.277343 35.957032-24.078124 1.601562 16.4375 3.550781 33.007812 5.839844 49.328124.667968 4.777344 1.378906 9.585938 2.113281 14.390626-.25.136718-.496094.292968-.722657.488281l-20.402343 17.367187c-.917969.78125-1.441407 1.9375-1.417969 3.144532.660156 35.667968.667969 73.328124.03125 106.085937l-24.574219-.589844c-6.566406-.15625-13.269531-.648437-16.773437-4.726562zm49.40625 5.507812c.628906-32.28125.628906-69.308593.003906-104.519531l15.902344-13.535156c.152344.945312.296875 1.902344.449218 2.847656.136719.832031.230469 2.011719.332032 3.257812.414062 5.152344.984375 12.207032 5.8125 15.429688 1.695312 1.128906 3.8125 1.523438 6.101562 1.523438 2.828125 0 5.914063-.601563 8.785156-1.160157 1.585938-.308593 3.085938-.597656 4.054688-.679687 9.390625-.765625 16.070312-4.835938 18.324219-11.171875 1.203125-3.386719.894531-6.914063.671875-9.492188-.535156-6.136719-1.1875-12.273437-1.949219-18.398437l82.929687-.304688c-1.710937 11.785156-2.546874 23.703125-2.460937 35.632813.011719 2.136719 1.6875 3.886719 3.820313 4l38.03125 1.972656c.074218.003906.144531.007813.214843.007813 2.003907 0 3.71875-1.484376 3.992188-3.492188.746093-5.550781 1.5-11.136719 2.289062-16.738281 7.019531 3.746093 13.199219 7.839843 15.742188 13.984375 1.816406 4.386718 1.65625 9.605468 1.503906 14.65625-.464844 15.160156-.582031 29.296875-.695313 42.960937-.105468 13.117188-.222656 26.671875-.640624 41.113281l-34.039063.617188 1.695313-70.011719c.054687-2.222656-1.703126-4.070312-3.929688-4.125-44.476562-1.09375-89.542969-.265625-133.949219 2.464844-2.183593.132813-3.859375 1.980469-3.78125 4.164063.804688 23.113281.765625 46.53125-.089843 69.6875-.164063-.003907-.328126-.007813-.492188-.011719zm85.183594.046875c-4.800782.085938-9.574219.199219-14.335938.3125-11.003906.261719-22.308594.523438-33.664062.445313.808593-21.972657.886718-44.1875.210937-66.152344 41.570313-2.445313 83.683594-3.222656 125.316406-2.308594l-1.609375 66.320313zm166.996093-24.972656c.117188 6.113281.28125 14.480469-2.789062 17.238281-5.410157 4.851563-15.976563 5.035157-23.691407 5.171875l-14.414062.265625c.410156-14.382812.523438-27.859375.632812-40.898437.113282-13.625.230469-27.710938.6875-42.785156.171876-5.625.367188-12-2.109374-17.984376-3.875-9.363281-12.570313-14.527343-21.964844-19.355468 3.203125-21.527344 7.210937-43.148438 13.84375-63.867188 3.410156 2.324219 6.734375 4.761719 9.835937 7.386719 19.488281 16.480469 33.113281 42.886719 38.363281 74.355469 4.222657 25.308594 3.058594 51.382812 1.636719 73.839844-.121093 1.949218-.078125 4.226562-.03125 6.632812zm0 0"/></svg>