<svg height="512pt" viewBox="-88 0 512 512.00196" width="512pt" xmlns="http://www.w3.org/2000/svg"><path d="m73.269531 502.71875c-5.03125-27.203125-10.734375-58.035156-11.992187-88.132812-.265625-6.484376-.367188-13.367188 1.460937-19.964844 1.730469-6.28125 5.175781-11.480469 9.699219-14.625l4.414062-3.070313 1.671876 5.109375c2.308593 7.054688 5.046874 14.328125 10.84375 18.945313 2.742187 2.195312 6.417968 3.449219 10.097656 3.449219 1.019531 0 2.042968-.101563 3.042968-.300782 3.320313-.683594 5.953126-2.535156 7.394532-5.207031 2.65625-4.957031.867187-10.84375-1.191406-16.441406l-4.933594-13.417969 5.476562-.230469c1.078125-.042969 2.167969-.066406 3.25-.066406 20.011719 0 39.792969 7.757813 54.269532 21.28125 13.144531-12.484375 30.253906-20.9375 48.222656-23.796875l6.65625-1.058594-2.261719 6.347656c-1.652344 4.65625-3.195313 9.207032-4.589844 13.535157-1.773437 5.480469-3.296875 11.242187-.785156 16.214843 1.425781 2.832032 4.097656 4.890626 7.527344 5.804688 1.347656.363281 2.777343.546875 4.261719.546875 3.492187 0 6.933593-.996094 9.683593-2.804687 7.070313-4.640626 10.886719-13.03125 13.957031-19.773438 1.757813-3.859375 3.515626-7.734375 5.273438-11.613281l1.792969-3.953125 3.792969 2.105468c3.878906 2.15625 7.160156 5.90625 9.242187 10.566407 2.597656 5.820312 3.25 12.324219 3.695313 18.484375 2.4375 34.101562-.546876 68.234375-8.871094 101.460937l-.769532 3.070313-3.167968-.042969c-22.726563-.320313-45.824219-.484375-68.664063-.484375-37.976562 0-76.492187.449219-114.476562 1.332031l-3.40625.082031zm0 0" fill="#bc88e5"/><path d="m225.8125 407.582031c-1.46875 0-2.894531-.179687-4.238281-.535156-3.472657-.9375-6.0625-2.933594-7.5-5.769531-2.488281-4.949219-.902344-10.949219.777343-16.179688 9.746094-30.183594 22.433594-59.589844 37.703126-87.414062l1.875-3.410156 3.460937 1.777343c7.183594 3.691407 15.328125 7.878907 22.5625 12.929688l3.90625 2.726562-3.363281 3.375c-8.3125 18.515625-16.449219 36.5625-24.199219 53.640625l-.292969.644532-.496094.503906-.007812-.140625-.09375.957031-.269531.59375c-1.910157 4.214844-3.828125 8.429688-5.742188 12.628906l-.511719 1.125c-3.0625 6.734375-6.871093 15.121094-13.9375 19.75-2.742187 1.804688-6.164062 2.796875-9.632812 2.796875zm0 0" fill="#985bbc"/><path d="m159.519531 347.800781c-3.71875-.085937-8.949219-.929687-12.667969-4.445312-4.554687-4.320313-5.636718-12.179688-2.582031-18.695313 3.347657-7.144531 10.703125-12.769531 18.300781-13.988281 1.027344-.164063 2.0625-.25 3.074219-.25 4.867188 0 9.246094 1.914063 12.664063 5.53125 5.238281 5.550781 6.339844 14.417969 2.628906 21.082031-3.707031 6.648438-11.625 10.773438-20.671875 10.773438-.246094 0-.496094-.003906-.746094-.007813zm0 0" fill="#985bbc"/><path d="m99.503906 404.363281c-3.703125 0-7.386718-1.25-10.105468-3.433593-6.332032-5.039063-9.050782-13.453126-11.234376-20.210938l-24.554687-75.769531 2.796875-1.621094c4.007812-2.324219 8.03125-4.492187 12.496094-6.886719l.664062-.351562c.671875-.359375 1.351563-.71875 2.023438-1.085938l4.066406-2.214844 32.988281 89.707032c2.058594 5.605468 3.84375 11.484375 1.1875 16.410156-1.417969 2.644531-4.027343 4.476562-7.34375 5.160156-.957031.199219-1.960937.296875-2.984375.296875zm0 0" fill="#985bbc"/><path d="m233.109375 261.546875c-6.957031 0-13.886719-1.207031-20.59375-3.585937l-1.515625-.539063-.722656-1.4375c-4.484375-8.933594-5.699219-18.039063-3.335938-24.988281l.105469-1.9375 1.640625-1.199219c13.136719-8.972656 23.550781-21.625 29.328125-35.632813-15.167969-20.3125-16.703125-50.523437-3.804687-72.332031v-.019531l.601562-.980469-.667969.359375-.8125.050782c-.550781.0625-1.25.097656-2.136719.097656-2.636718 0-7.023437-.273438-13.414062-.835938-2.042969-.171875-3.332031-.28125-3.910156-.296875-7.125-.152343-14.160156-.273437-20.863282-.347656-7.550781-.089844-15.253906-.136719-22.890624-.136719-6.726563 0-13.523438.035156-20.203126.105469-3.527343.039063-7.078124.050781-10.632812.058594-10.945312.03125-22.183594.0625-33.113281.871093-3.300781.242188-5.527344 1.222657-6.613281 2.90625-2 3.101563-.171876 8.042969 1.757812 13.273438l.046875.121094c.992187 2.714844 2.019531 5.523437 2.394531 7.957031 2.054688 13.277344-.65625 27.140625-7.433594 38.035156-.222656.347657-1.0625 1.664063-1.0625 1.664063-2.085937 3.238281-4.210937 6.542968-4.359374 10.308594-.140626 3.636718 1.644531 7.113281 3.40625 10.039062 5.570312 9.21875 13.398437 17.5 22.636718 23.945312l1.132813.789063.402343 1.320313c1.578126 5.160156 1.703126 10.761718.375 16.640624l-.742187 3.292969-3.371094-.179687c-10.234375 4.15625-23.796875 8.9375-37.957031 8.9375-2.730469 0-5.425781-.179688-8.007812-.539063-16.996094-2.347656-31.242188-13.828125-34.640626-27.914062-2.953124-12.230469 1.675782-24.640625 6.152344-36.644531l.429688-1.152344c8.371094-22.460938 15.171875-45.597656 20.21875-68.761719.828125-3.773437 1.625-7.589844 2.421875-11.414063 6.207031-29.785156 12.613281-60.546874 33.964843-81.511718 15.863282-15.566406 39.945313-24.722656 67.808594-25.78125 1.511719-.054688 3.054688-.085938 4.585938-.085938 13.214844 0 58.128906 2.648438 81.121094 36.726563 13.105468 19.402343 15.398437 44.371093 15.933593 63.957031.128907 4.726562.171875 9.554688.210938 14.226562l.003906.21875c.15625 17.316407.320313 35.15625 4.652344 52.0625 1.230469 4.761719 2.785156 9.53125 4.289062 14.140626 4.1875 12.800781 8.140625 24.894531 6.167969 37.664062-2.179688 14.054688-12.488281 27.253906-26.261719 33.636719-6.835937 3.171875-14.699219 4.847656-22.722656 4.847656zm0 0" fill="#ffbf48"/><g fill="#ffdac4"><path d="m320.328125 506.339844c-17.039063-.445313-34.410156-.8125-51.628906-1.082032l-5.015625-.078124 1.191406-4.871094c7.980469-32.617188 10.816406-66.148438 8.425781-99.664063-.433593-6.144531-1.078125-12.632812-3.699219-18.5-2.175781-4.855469-5.636718-8.703125-9.742187-10.832031l-3.367187-1.746094 1.566406-3.457031c8.226562-18.167969 15.691406-34.722656 22.8125-50.613281l2.164062-4.828125 4.054688 3.394531c23.085937 19.34375 38.339844 50 42.949218 86.324219 4.5 35.425781-1.128906 72.644531-5.652343 102.550781l-.527344 3.492188zm0 0"/><path d="m164.171875 387.636719c-14.144531-12.019531-32.984375-18.914063-51.6875-18.914063-1.890625 0-3.796875.066406-5.667969.207032l-3.007812.222656-28.085938-76.363282 2.964844-1.671874c5.511719-3.109376 9.621094-5.671876 13.328125-8.308594.195313-.136719.355469-.261719.519531-.386719l2.792969-2.148437 2.511719 2.476562c13.714844 13.785156 32.03125 22.984375 51.574218 25.90625l9.078126 1.355469-7.175782 5.726562c-3.066406 2.449219-5.523437 5.523438-7.101562 8.890625-3.121094 6.652344-2.050782 14.371094 2.597656 18.765625 3.730469 3.539063 8.972656 4.382813 12.710938 4.46875.226562.007813.398437.007813.570312.007813h.101562c8.976563 0 17.140626-4.238282 20.792969-10.804688 3.730469-6.6875 2.625-15.582031-2.636719-21.160156-.347656-.367188-.730468-.730469-1.125-1.089844l-5.863281-5.355468 7.792969-1.523438c18.183594-3.5625 35.144531-12.582031 47.757812-25.402344l2.277344-3.695312 3.523438 2.53125c6.191406 4.558594 12.898437 8.265625 18.054687 10.984375l3.59375 1.894531-1.953125 3.566406c-11.480468 20.949219-21.546875 42.898438-29.921875 65.242188l-.863281 2.300781-2.441406.269531c-18.292969 2.019532-35.972656 9.820313-49.777344 21.96875l-2.597656 2.285156zm0 0"/><path d="m163.8125 242.050781c-27.902344 0-55.160156-15.292969-69.445312-38.964843-1.757813-2.890626-3.542969-6.351563-3.402344-10.003907.144531-3.75 2.269531-7.050781 4.324218-10.238281l.316407-.5c.257812-.398438.511719-.792969.761719-1.195312 6.792968-10.90625 9.507812-24.78125 7.453124-38.078126-.382812-2.488281-1.433593-5.332031-2.449218-8.085937-2.265625-6.152344-3.601563-10.375-1.753906-13.226563 1.082031-1.6875 3.230468-2.632812 6.5625-2.875 10.933593-.808593 22.183593-.84375 33.058593-.871093 3.597657-.011719 7.144531-.019531 10.667969-.0625 6.449219-.066407 13.042969-.097657 20.15625-.097657 7.953125 0 15.675781.042969 22.949219.128907 6.714843.078125 13.742187.195312 20.886719.351562.476562.011719 1.464843.085938 3.90625.304688 4.804687.414062 7.839843.632812 10.148437.738281l5.984375.273438-2.546875 5.421874c-9.808594 20.898438-7.734375 46.558594 5.28125 65.363282l1.285156 1.855468-.929687 2.0625c-11.800782 26.234376-38.933594 45.316407-67.515625 47.488282-1.933594.140625-3.847657.210937-5.699219.210937zm0 0"/><path d="m161.058594 309.539062c-22.800782-.300781-46.183594-10.101562-62.554688-26.21875l-3.03125-2.988281 3.167969-2.839843c6.195313-5.554688 11.605469-12.226563 15.242187-18.78125 4.320313-7.816407 6.308594-15.40625 5.898438-22.5625l-.410156-7.097657 6.28125 3.335938c11.960937 6.359375 25.171875 9.722656 38.199218 9.722656 1.925782 0 3.832032-.070313 5.667969-.207031 10.425781-.796875 20.628907-3.746094 30.324219-8.765625l6.367188-3.296875-.539063 7.152344c-.503906 6.632812 1.488281 13.832031 5.921875 21.394531 3.648438 6.246093 9.050781 12.707031 15.21875 18.195312l3.164062 2.816407-3.136718 3.140624-.050782.042969c-16.671874 16.886719-40.820312 26.964844-64.628906 26.964844-.367187 0-.734375 0-1.101562-.007813zm0 0"/><path d="m12.007812 503.980469c-.648437-13.660157-2.234374-27.453125-3.769531-40.792969l-.074219-.640625c-2.097656-18.214844-4.265624-37.046875-4.09375-55.675781.21875-23.160156 5.09375-65.886719 35.328126-91.789063 2.84375-2.429687 6.023437-4.804687 9.730468-7.265625l4.390625-2.914062 23.480469 72.414062-2.910156 1.59375c-5.300782 2.902344-9.460938 8.621094-11.414063 15.691406-1.835937 6.644532-1.714843 13.800782-1.457031 19.992188 1.25 30.082031 6.832031 60.25 11.757812 86.867188l.851563 4.609374-4.6875.117188c-17.914063.445312-35.746094.984375-52.996094 1.597656l-3.949219.144532zm0 0"/></g><path d="m334.070312 399.878906c-5.144531-40.535156-23.679687-74.773437-50.851562-93.933594-7.554688-5.328124-15.808594-9.570312-23.789062-13.675781-8.867188-4.554687-17.242188-8.863281-24.847657-14.558593-5.789062-4.339844-10.441406-8.867188-14.09375-13.371094 4.203125.832031 8.433594 1.261718 12.613281 1.261718 8.578126 0 16.953126-1.746093 24.441407-5.21875 15.207031-7.046874 26.152343-21.109374 28.566406-36.699218 2.121094-13.707032-2.167969-26.84375-6.320313-39.550782-1.492187-4.566406-3.03125-9.289062-4.210937-13.882812-4.222656-16.457031-4.378906-34.066406-4.53125-51.09375-.039063-4.757812-.085937-9.675781-.214844-14.515625-.542969-20.121094-2.925781-45.824219-16.625-66.121094-8.9375-13.242187-22.554687-23.746093-39.378906-30.371093-15.054687-5.933594-32.300781-8.714844-49.851563-8.0507818-28.882812 1.0898438-53.921874 10.6601558-70.5 26.9374998-22.234374 21.832032-28.773437 53.222656-35.097656 83.578125-.796875 3.820313-1.589844 7.621094-2.410156 11.378907-5.015625 23.003906-11.765625 45.953124-20.0625 68.214843l-.40625 1.089844c-4.480469 12.007813-9.5625 25.617187-6.3125 39.074219 3.78125 15.667968 19.417969 28.410156 38.023438 30.984375 15.625 2.167969 30.894531-2.085938 43.246093-6.773438-4.738281 9.597657-12.878906 18.578125-21.792969 24.914063-7.078124 5.027344-15.003906 9.269531-22.671874 13.367187-10.339844 5.53125-21.03125 11.25-30.230469 19.132813-13.507813 11.566406-36.246094 39.273437-36.7500002 94.835937-.1718748 18.949219 2.0195312 37.984375 4.1445312 56.390625 1.695312 14.714844 3.449219 29.929688 3.953125 44.882813.035156 1.070312.5 2.085937 1.28125 2.816406.75.695313 1.730469 1.082031 2.75 1.082031.050781 0 .097656-.003906.148437-.003906 103.332032-3.800781 208.132813-4.304688 311.488282-1.5 2.027344.085938 3.789062-1.414062 4.09375-3.425781 5.300781-34.964844 10.78125-71.121094 6.199218-107.195313zm-55.90625-87.621094c-.335937.335938-.625.726563-.828124 1.1875-7.976563 17.800782-16.082032 35.773438-24.179688 53.628907-.527344.523437-.917969 1.191406-1.089844 1.964843-.046875.199219-.058594.390626-.070312.585938-2.085938 4.59375-4.167969 9.1875-6.25 13.757812-2.851563 6.265626-6.402344 14.066407-12.492188 18.0625-3.011718 1.976563-7.195312 2.660157-10.652344 1.730469-1.628906-.433593-3.8125-1.433593-4.960937-3.707031-1.8125-3.597656-.421875-8.671875 1.023437-13.144531 9.667969-29.953125 22.253907-59.117188 37.398438-86.714844 7.492188 3.847656 15.207031 7.839844 22.101562 12.648437zm-180.375-111.234374c-1.453124-2.40625-2.925781-5.210938-2.824218-7.78125.101562-2.667969 1.847656-5.378907 3.699218-8.25.371094-.578126.742188-1.152344 1.101563-1.730469 7.285156-11.707031 10.207031-26.578125 8.007813-40.804688-.441407-2.863281-1.5625-5.910156-2.648438-8.855469-1.144531-3.097656-3.050781-8.277343-2.15625-9.671874.25-.386719 1.316406-.894532 3.5-1.058594 10.816406-.796875 22.003906-.832032 32.824219-.859375 3.5625-.011719 7.117187-.023438 10.660156-.058594 6.675781-.066406 13.390625-.101563 20.109375-.101563 7.652344 0 15.304688.042969 22.898438.132813 6.949218.082031 13.964843.199219 20.847656.351563.449218.007812 2.070312.148437 3.640625.28125 4.316406.371093 7.679687.628906 10.324219.753906-10.328126 22.015625-8.277344 49.277344 5.609374 69.34375-11.265624 25.027344-36.773437 43.058594-64.171874 45.136718-1.800782.132813-3.597657.203126-5.398438.203126-26.351562-.003907-52.375-14.417969-66.023438-37.03125zm15.4375 44.195312c-12.136718 4.945312-28.09375 10.339844-43.90625 8.152344-15.40625-2.132813-28.273437-12.367188-31.292968-24.890625-2.671875-11.058594 1.75-22.90625 6.027344-34.363281l.410156-1.09375c8.429687-22.617188 15.289062-45.9375 20.382812-69.3125.824219-3.785157 1.621094-7.609376 2.421875-11.453126 6.082031-29.179687 12.367188-59.351562 32.855469-79.46875 15.144531-14.871093 38.28125-23.621093 65.15625-24.636718 27.667969-1.042969 63.808594 7.566406 82.242188 34.878906 12.535156 18.570312 14.734374 42.796875 15.246093 61.828125.128907 4.765625.171875 9.648437.214844 14.367187.15625 17.511719.316406 35.621094 4.78125 53.027344 1.246094 4.847656 2.828125 9.695313 4.359375 14.382813 4.035156 12.347656 7.84375 24.011719 6.015625 35.8125-1.976563 12.765625-11.394531 24.78125-23.988281 30.621093-11.972656 5.546876-26.660156 5.957032-40.300782 1.117188-4.277343-8.53125-5.015624-16.367188-3.105468-21.9375.125-.359375.175781-.722656.195312-1.085938 13.527344-9.242187 24.507813-22.230468 30.777344-37.40625.539062-1.316406.351562-2.816406-.5-3.957031-14.457031-19.332031-15.722656-48.261719-3.011719-68.789062.003907-.003907.003907-.007813.007813-.007813 1.171875-1.894531.585937-4.378906-1.304688-5.550781-1.273437-.789063-2.816406-.785156-4.042968-.121094-2.535157.300781-11.320313-.453125-14.730469-.746093-2.261719-.195313-3.472657-.296876-4.148438-.3125-6.914062-.152344-13.957031-.269532-20.933593-.351563-14.3125-.164063-28.839844-.175781-43.183594-.03125-3.523438.035156-7.058594.046875-10.601563.058594-10.960937.03125-22.292969.0625-33.394531.882812-4.625.34375-7.882812 1.933594-9.683594 4.734375-3.074218 4.773438-.816406 10.898438 1.367188 16.824219.949218 2.574219 1.929687 5.234375 2.246094 7.300781 1.910156 12.347656-.597657 25.21875-6.882813 35.3125-.339844.539063-.6875 1.082032-1.035156 1.625-2.246094 3.480469-4.789063 7.433594-4.980469 12.300782-.183594 4.695312 1.910156 8.835937 3.980469 12.261718 6.023437 9.980469 14.230469 18.511719 23.769531 25.164063 1.425781 4.671875 1.414062 9.621093.296875 14.585937-.574219-.035156-1.160156.046875-1.726563.277344zm4.152344 15.425781c4.691406-8.46875 6.839844-16.871093 6.390625-24.722656 12.308594 6.539063 26.152344 10.191406 40.082031 10.191406 1.988282 0 3.980469-.074219 5.96875-.222656 11.128907-.84375 21.972657-4.082031 31.859376-9.199219-.554688 7.394532 1.625 15.464844 6.457031 23.722656 3.910156 6.679688 9.570312 13.414063 16.019531 19.160157-.042969.039062-.09375.070312-.136719.113281-16.242187 16.5-39.753906 26.15625-62.910156 25.859375-22.007813-.292969-44.101563-9.613281-59.796875-25.074219 6.503906-5.835937 12.15625-12.769531 16.066406-19.828125zm45.824219 53.976563c3.304687-.53125 8.105469-.253906 12.195313 4.078125 4.007812 4.246093 4.886718 11.289062 2.046874 16.390625-3.050781 5.46875-10.039062 8.914062-17.824218 8.710937-3.027344-.070312-7.226563-.707031-10.019532-3.351562-3.285156-3.109375-4.019531-9.167969-1.710937-14.09375 2.8125-6 8.964844-10.714844 15.3125-11.734375zm-68.871094-28.554688c.226563-.160156.449219-.328125.671875-.492187 14.324219 14.390625 33.679688 24.03125 53.820313 27.035156-3.46875 2.773437-6.355469 6.3125-8.234375 10.324219-3.839844 8.1875-2.414063 17.796875 3.46875 23.367187 4.65625 4.410157 10.933594 5.460938 15.378906 5.5625.25.003907.5.007813.75.007813 10.4375 0 19.917969-4.996094 24.300781-12.855469 4.554688-8.175781 3.199219-19.046875-3.226562-25.851563-.429688-.457031-.882813-.886718-1.339844-1.300781 18.738281-3.675781 36.53125-12.992187 49.84375-26.523437.230469-.230469.414063-.488282.574219-.753906 5.878906 4.335937 12.214844 7.953124 18.566406 11.308593-11.585938 21.128907-21.691406 43.15625-30.167969 65.753907-19.203125 2.121093-37.492187 10.203124-51.980469 22.945312-16.511718-14.039062-38.621093-21.253906-60.238281-19.65625l-25.867187-70.335938c4.664062-2.628906 9.285156-5.414062 13.679687-8.535156zm-23.539062 13.90625c.902343-.480468 1.804687-.964844 2.710937-1.453125l31.390625 85.359375c1.742188 4.738282 3.285157 9.65625 1.421875 13.128906-1.089844 2.03125-3.125 2.828126-4.640625 3.140626-3.257812.667968-7.191406-.269532-9.777343-2.339844-5.382813-4.292969-7.902344-12.066406-9.925782-18.316406l-23.5625-72.699219c4.003906-2.324219 8.140625-4.550781 12.382813-6.820313zm-58.628907 162.324219c-2.09375-18.160156-4.257812-36.941406-4.089843-55.390625.203125-22.480469 4.886719-63.910156 33.933593-88.789062 2.960938-2.539063 6.09375-4.820313 9.339844-6.964844l20.820313 64.246094c-6.242188 3.425781-11.101563 10.019531-13.347657 18.136718-1.992187 7.191406-1.871093 14.726563-1.597656 21.222656 1.230469 29.542969 6.554688 58.941407 11.816406 87.425782-17.710937.445312-35.394531.976562-53.035156 1.609375-.664062-13.945313-2.277344-27.933594-3.839844-41.496094zm65.039063 39.691406c-5.289063-28.601562-10.699219-58.148437-11.925781-87.566406-.257813-6.152344-.367188-12.671875 1.3125-18.734375 1.496094-5.40625 4.417968-9.828125 8.136718-12.402344 2.292969 7.027344 5.292969 15.363282 12.140626 20.828125 3.492187 2.785157 8.074218 4.316407 12.589843 4.316407 1.296875 0 2.585938-.125 3.839844-.382813 4.527344-.929687 8.121094-3.496094 10.125-7.222656 3.445313-6.421875 1.3125-13.550781-.960937-19.726563l-3.039063-8.269531c19.90625-.835937 40.046875 6.523437 54.621094 20.144531.777343.722656 1.765625 1.085938 2.753906 1.085938 1.003906 0 2.003906-.371094 2.785156-1.113282 12.632813-12.050781 28.832031-20.007812 46.039063-22.742187-1.605469 4.527344-3.15625 9.074219-4.628906 13.644531-1.9375 5.996094-3.734376 12.921875-.546876 19.246094 1.941407 3.855469 5.519532 6.652344 10.070313 7.871094 1.707031.457031 3.492187.679687 5.292969.679687 4.179687 0 8.429687-1.203125 11.875-3.460937 8.035156-5.277344 12.121094-14.25 15.402344-21.460938 1.757812-3.863281 3.519531-7.742187 5.28125-11.621094 3.082031 1.710938 5.773437 4.777344 7.527343 8.703126 2.347657 5.234374 2.945313 11.335937 3.359375 17.132812 2.40625 33.726562-.550781 67.421875-8.761718 100.199219-61-.855469-122.292969-.570313-183.289063.851562zm243.226563.355469c-17.183594-.453125-34.414063-.808594-51.664063-1.082031 8.074219-33.027344 10.949219-66.945313 8.527344-100.898438-.464844-6.515625-1.160157-13.414062-4.039063-19.851562-2.570312-5.738281-6.710937-10.242188-11.554687-12.753907 7.644531-16.867187 15.289062-33.824218 22.820312-50.628906 22.078125 18.496094 37.082031 48.550782 41.554688 83.765625 4.289062 33.769531-.601563 68.128907-5.644531 101.449219zm0 0"/></svg>