<svg height="512pt" viewBox="-88 0 512 512.00165" width="512pt" xmlns="http://www.w3.org/2000/svg"><path d="m220.082031 502.371094c.011719-.023438.015625-.042969.015625-.054688-1.238281-44.519531 4.640625-88.75 17.480469-131.417968l.058594-2.078126 1.714843-1.152343c9.230469-6.117188 16.902344-14.800781 22.175782-25.117188 1.390625-2.714843 2.652344-5.605469 3.746094-8.589843l1.632812-4.445313 4.113281 2.355469c22.214844 12.738281 39.785157 35.824218 49.476563 65.007812 9.277344 27.980469 10.632812 57.910156 10.714844 86.082032.023437 6.859374-.34375 13.949218-4.9375 18.625-4.507813 4.574218-11.554688 5.132812-18.386719 5.316406-7.09375.175781-14.867188.339844-23.777344.5l-4.070313.070312v-.003906l-4.015624.0625c-16.675782.257812-33.765626.390625-52.253907.398438l-6.035156.003906zm52.25-98c1.191407 32.890625 3.765625 66.097656 7.597657 98.695312l.109374.910156v-.53125c-3.863281-32.730468-6.457031-66.0625-7.707031-99.074218zm0 0" fill="#ed6d66"/><path d="m119.796875 506.890625c-17.136719-.3125-35.769531-.707031-56.960937-1.199219l-8.753907-.207031c-11.425781-.273437-22.816406-.546875-34.164062-.832031-4.5-.101563-9.550781-.5-12.335938-3.996094-1.828125-2.320312-2.179687-5.394531-2.402343-8.605469-.898438-12.648437-1.253907-25.539062-1.0625-38.308593.328124-21.125 2.152343-48.503907 13.480468-72.921876 14.148438-30.511718 31.109375-48.328124 50.410156-52.949218l3.601563-.863282 1.136719 3.53125c1.351562 4.207032 3.015625 8.25 4.941406 12.007813 5.570312 10.902344 13.738281 19.90625 23.621094 26.046875l1.328125.828125.417969 1.507813c11.792968 42.777343 18.773437 86.929687 20.75 131.234374.019531.121094.035156.230469.042968.335938l.441406 4.476562zm-60.867187-2.574219v-2.625c0-.136718.003906-.269531.015624-.398437l-1.367187-97.816407zm0 0" fill="#ed6d66"/><path d="m256.492188 171.230469c-2.914063 0-5.839844-1.671875-8.828126-3.53125-24.128906-15.089844-53.113281-23.398438-81.625-23.398438-.023437 0-.046874 0-.066406 0-.546875 0-1.09375 0-1.640625.011719-19.757812.234375-39.90625 4.46875-58.296875 12.242188-2.230468.945312-4.996094 2.652343-7.929687 4.464843l-.316407.195313c-6.722656 4.183594-12.167968 7.363281-16.394531 7.363281-.003906 0-.003906 0-.003906 0-.148437 0-.292969-.003906-.4375-.011719-8.226563-.460937-13.667969-12.398437-14.277344-18.667968-.84375-8.550782 2.878907-18.046876 9.949219-25.398438 7.054688-7.347656 16.308594-11.898438 23.585938-15.039062 21.445312-9.257813 45.496093-14.152344 69.550781-14.152344 14.292969 0 28.578125 1.691406 42.460937 5.023437 18.578125 4.46875 32.160156 11.261719 41.523438 20.761719 11.832031 12.011719 16.308594 29.710938 10.886718 43.042969-1.519531 3.703125-3.445312 5.902343-5.890624 6.730469-.714844.242187-1.46875.363281-2.25.363281zm0 0" fill="#bc88e5"/><path d="m251.484375 118.855469c-9.253906-8.378907-22.09375-14.457031-39.25-18.585938-13.878906-3.328125-28.164063-5.019531-42.464844-5.019531-24.078125 0-48.136719 4.894531-69.574219 14.152344-4.976562 2.144531-11.449218 5.171875-17.453124 9.664062l-4.800782 3.59375-1.472656-5.820312c-2.714844-10.746094.40625-22.847656 7.953125-30.828125 2.375-2.503907 5.148437-4.644531 7.835937-6.710938 3.621094-2.792969 7.367188-5.6875 10.113282-9.46875 3.367187-4.664062 4.882812-10.097656 6.484375-15.847656.570312-2.0625 1.128906-4.050781 1.765625-6.019531 5.46875-16.707032 17.953125-31.003906 33.40625-38.253906 7.777344-3.648438 16.566406-5.578126 25.421875-5.578126 8.871093 0 17.546875 1.9375 25.085937 5.601563 15.914063 7.734375 27.429688 23.140625 30.054688 40.207031.195312 1.261719.347656 2.503906.511718 3.980469.460938 3.988281.898438 7.765625 2.5625 11.289063 2.5625 5.445312 7.359376 8.921874 12.441407 12.597656 2.644531 1.910156 5.082031 3.671875 7.308593 5.746094 8.734376 8.109374 12.933594 21.09375 10.6875 33.074218l-1.316406 7.027344zm0 0" fill="#985bbc"/><path d="m216.351562 507.933594c-8.214843-.011719-16.429687-.050782-24.648437-.101563l-5.734375-.035156 2.015625-5.371094.027344-.230469c1.433593-32.839843 2.914062-66.800781 8.625-99.765624 5.78125-33.308594 15.066406-61.164063 28.394531-85.167969l7.441406 2.617187c-3.378906 19.636719-9.617187 38.679688-15.851562 56.335938 4.605468-.503906 9.167968-1.742188 13.597656-3.632813l7.703125-3.289062-2.285156 8.058593c-11.527344 40.710938-16.777344 82.769532-15.601563 125.007813l2.347656 5.5625zm0 0" fill="#d34242"/><path d="m152.273438 507.421875c-8.183594-.109375-16.359376-.242187-24.523438-.382813l-4.707031-.078124.839843-4.632813c-1.855468-41.90625-8.210937-83.792969-18.894531-124.460937l-2.003906-7.628907 7.339844 2.890625c4.023437 1.585938 8.144531 2.640625 12.242187 3.132813-4.601562-13.136719-9.824218-28.660157-13.449218-44.550781l7.398437-2.835938c29.804687 53.46875 43.570313 113.910156 39.808594 174.792969l-.234375 3.804687zm0 0" fill="#d34242"/><g fill="#644c4c"><path d="m218.996094 369.609375c16.859375-48.957031 17.261718-73.832031 15.433594-91.710937-1.5-14.605469-5.5625-28.9375-9.488282-42.796876l-.25-.886718c-1.601562-5.667969-3.253906-11.527344-4.695312-17.316406-3.785156-15.214844-8.125-37.871094-2.113282-58.878907l1.21875-4.25 4.105469 1.636719c8.546875 3.398438 16.761719 7.550781 24.421875 12.332031.519532.332031 1.0625.664063 1.628906 1.003907l2.0625 1.238281-.128906 2.398437c-.789062 15.089844 2.789063 30.257813 6.25 44.921875l.089844.378907c.8125 3.472656 1.65625 7.0625 2.425781 10.574218.582031 2.667969 1.183594 5.335938 1.78125 8.003906l.605469 2.691407c3.433594 15.175781 6.988281 30.882812 8.292969 46.671875 1.839843 22.265625-1.242188 41.410156-9.167969 56.902344-8.132812 15.902343-22.195312 27.957031-37.617188 32.242187l-7.332031 2.035156zm0 0"/><path d="m228.339844 305.785156c-5.476563-3.769531-8.273438-8.222656-11.511719-15.121094-3.734375-7.941406-4.886719-17.046874-3.25-25.652343v-2.027344l1.679687-1.238281c3.089844-2.203125 6.007813-4.621094 8.671876-7.191406l5.0625-4.882813 1.609374 6.84375c1.867188 7.925781 3.097657 14.921875 3.765626 21.386719.804687 7.925781.882812 16.300781.230468 24.894531l-.527344 6.9375zm0 0"/><path d="m104.597656 302.539062c-.632812-8.558593-.550781-16.847656.25-24.636718.675782-6.597656 1.945313-13.761719 3.890625-21.898438l1.640625-6.867187 5.046875 4.933593c2.878907 2.8125 6.019531 5.4375 9.339844 7.789063l2.011719 1.429687-.375 2.441407c.382812 7.730469.539062 16.660156-2.4375 24.796875-2.617188 7.140625-7.789063 12.898437-13.84375 15.410156l-5.113282 2.121094zm0 0"/><path d="m115.367188 374.765625c-15.417969-4.285156-29.480469-16.335937-37.628907-32.238281-7.929687-15.503906-11.007812-34.648438-9.15625-56.90625 1.300781-15.710938 4.832031-31.371094 8.246094-46.515625l.039063-.164063c.808593-3.5625 1.617187-7.125 2.394531-10.683594 3.992187-18.324218 7.492187-37.957031 6.097656-57.347656l-.203125-2.808594 2.574219-1.136718c3.273437-1.449219 6.746093-3.609375 10.105469-5.699219 3.027343-1.882813 5.886718-3.660156 8.234374-4.65625 2.945313-1.246094 6.011719-2.425781 9.378907-3.605469l3.851562-1.34375 1.269531 3.875c7.101563 21.652344 2.632813 45.390625-1.351562 61.363282-1.507812 6.0625-3.246094 12.195312-4.929688 18.125l-.0625.226562c-3.914062 13.832031-7.957031 28.136719-9.4375 42.648438-3.261718 31.855468 5.972657 64.238281 15.433594 91.710937l2.476563 7.191406zm0 0"/></g><path d="m184.152344 507.78125c-7.945313-.070312-15.878906-.148438-23.804688-.25l-4.195312-.050781.253906-4.191407c4.050781-66.753906-13.582031-134.535156-49.65625-190.859374l-2.792969-4.359376 4.925781-1.601562c.667969-.21875 1.332032-.480469 1.96875-.777344l2.367188-1.109375 1.96875 1.722657c13.832031 12.132812 29.171875 22.382812 45.597656 30.46875 2.519532 1.246093 5.199219 2.460937 7.976563 2.460937.25 0 .507812-.003906.769531-.03125 3.539062-.300781 6.554688-2.65625 8.976562-4.550781l43.683594-34.199219 2.503906 2.429687c.941407.914063 1.921876 1.742188 3.003907 2.53125l2.960937 2.160157-1.894531 3.136719c-15.355469 25.394531-25.882813 55.390624-32.183594 91.707031-5.734375 33.03125-7.210937 67.058593-8.636719 99.964843l1.992188 5.429688zm0 0" fill="#3a6082"/><path d="m255.847656 210.191406c-2.367187-10.363281-4.574218-21.484375-4.699218-32.59375l-.058594-5.160156 5.011718 1.230469c4.699219 1.152343 8.875 4.199219 11.457032 8.367187 3.226562 5.183594 4.019531 12.074219 2.109375 18.425782-1.28125 4.210937-3.722657 8.230468-7.0625 11.640624l-5.125 5.230469zm0 0" fill="#ffdac4"/><path d="m169.8125 276.382812c-.730469 0-1.460938-.011718-2.195312-.03125-20.855469-.621093-41.652344-10.328124-55.621094-25.976562l-1.441406-1.613281.5625-2.089844c1.0625-3.957031 2.171874-7.882813 3.214843-11.5625 1.839844-6.476563 3.484375-12.316406 4.945313-18.191406 3.980468-15.96875 8.449218-39.691407 1.371094-61.332031l-1.289063-3.9375 3.976563-1.148438c13.484374-3.902344 27.273437-5.964844 40.976562-6.128906.601562-.007813 1.210938-.011719 1.820312-.011719 16.578126 0 33.160157 2.765625 49.285157 8.214844l3.644531 1.226562-1.085938 3.691407c-6.238281 21.15625-1.871093 44.046874 1.953126 59.421874 1.472656 5.886719 3.117187 11.722657 4.957031 18.191407l.433593 1.539062c1.019532 3.625 2.074219 7.367188 3.066407 11.113281l.933593 3.53125-3.433593 1.25c-14.328125 14.921876-35.289063 23.84375-56.074219 23.84375zm0 0" fill="#ffdac4"/><path d="m168.765625 339.171875c-2.757813 0-5.441406-1.210937-7.957031-2.453125-15.746094-7.757812-30.53125-17.527344-43.9375-29.042969l-3.394532-2.917969 3.277344-3.046874c3.152344-2.929688 5.664063-6.789063 7.265625-11.164063 2.574219-7.027344 2.75-14.496094 2.617188-20.210937l-.160157-6.933594 6.082032 3.332031c10.910156 5.976563 23.035156 9.324219 35.058594 9.679687.707031.019532 1.445312.027344 2.171874.027344 12.765626 0 25.617188-3.292968 37.167969-9.519531l6.242188-3.367187-.347657 7.082031c-.339843 6.933593 1.011719 13.867187 3.917969 20.054687 1.265625 2.683594 2.386719 4.792969 3.527344 6.628906l1.890625 3.050782-43.683594 34.199218c-2.980468 2.335938-5.710937 4.292969-8.941406 4.566407-.242188.023437-.519531.035156-.796875.035156zm0 0" fill="#ffdac4"/><path d="m76.53125 211.171875c-5.644531-4.566406-9.03125-11.769531-8.839844-18.796875.203125-7.921875 4.863282-15.621094 11.875-19.617188l5.792969-3.300781.1875 6.660157c.277344 9.765624-.558594 20.425781-2.550781 32.589843l-1.113282 6.792969zm0 0" fill="#ffdac4"/><path d="m324.351562 395.605469c-10.261718-30.925781-28.980468-55.027344-52.824218-68.105469 3.378906-12.519531 4.445312-26.640625 3.15625-42.214844-1.332032-16.046875-4.914063-31.902344-8.378906-47.238281-.800782-3.554687-1.601563-7.105469-2.378907-10.660156-.664062-3.046875-1.382812-6.121094-2.097656-9.148438 5.671875-4.429687 9.816406-10.285156 11.722656-16.601562 2.246094-7.433594 1.296875-15.5625-2.539062-21.75-1.855469-2.988281-4.371094-5.480469-7.253907-7.3125 1.867188-1.609375 3.417969-3.917969 4.632813-6.90625 5.449219-13.394531 2.285156-29.984375-7.769531-42.882813.101562-.191406.1875-.394531.257812-.609375 4.78125-14.496093.480469-31.21875-10.707031-41.605469-2.402344-2.230468-5.054687-4.148437-7.617187-6-4.671876-3.378906-9.085938-6.570312-11.214844-11.085937-1.378906-2.917969-1.777344-6.378906-2.203125-10.046875-.15625-1.339844-.316407-2.726562-.53125-4.109375-2.824219-18.371094-15.199219-34.941406-32.296875-43.25-16.640625-8.085937-36.828125-8.105469-54.003906-.050781-16.445313 7.714844-29.730469 22.914062-35.539063 40.660156-.671875 2.058594-1.253906 4.148438-1.820313 6.175781-1.503906 5.402344-2.921874 10.507813-5.875 14.589844-2.378906 3.289063-5.742187 5.882813-9.304687 8.632813-2.8125 2.167968-5.71875 4.414062-8.292969 7.132812-9.160156 9.671875-12.429687 24.109375-8.328125 36.785156.175781.539063.453125 1.015625.804688 1.417969-.082031.085937-.171875.167969-.257813.257813-7.996094 8.320312-12.027344 18.75-11.0625 28.613281.683594 7.007812 5.253906 16.703125 12.316406 20.609375-6.730468 4.933594-11.101562 12.925781-11.324218 21.363281-.257813 9.941406 5.261718 19.5625 13.871094 24.453125-.695313 3.59375-1.441407 7.15625-2.210938 10.667969-.773438 3.554687-1.578125 7.105469-2.378906 10.65625-3.464844 15.335937-7.046875 31.195312-8.375 47.242187-1.171875 14.128906-.398438 27.066406 2.273437 38.691406-20.449219 5.011719-38.242187 23.546876-52.894531 55.128907-11.648438 25.109375-13.519531 53.042969-13.8515625 74.570312-.1992185 12.84375.1601565 25.851563 1.0625005 38.664063.207031 2.929687.519531 7.359375 3.28125 10.832031 4.183593 5.265625 11.492187 5.445313 15.421874 5.542969 66.15625 1.625 133.867188 3.285156 201.539063 3.285156 28.925781 0 57.855469-.300781 86.628906-1.042969 7.660157-.199219 15.605469-.863281 21.175781-6.523437 5.675782-5.765625 6.128907-14.113282 6.105469-21.484375-.078125-28.515625-1.457031-58.835938-10.917969-87.34375zm-57.703124-109.652344c1.78125 21.511719-1.160157 39.933594-8.738282 54.75-7.742187 15.132813-20.816406 26.230469-35.136718 30.210937 9.785156-28.40625 18.972656-60.777343 15.632812-93.425781-1.523438-14.910156-5.636719-29.433593-9.617188-43.480469-1.675781-5.921874-3.410156-12.046874-4.910156-18.074218-3.726562-14.949219-7.875-36.789063-2.148437-56.8125 8.285156 3.296875 16.265625 7.316406 23.773437 12.011718.523438.324219 1.097656.679688 1.691406 1.035157-.8125 15.640625 2.820313 31.089843 6.351563 46.054687.84375 3.578125 1.714844 7.277344 2.503906 10.882813.777344 3.574219 1.585938 7.144531 2.390625 10.714843 3.402344 15.066407 6.921875 30.644532 8.207032 46.132813zm-50.613282 216.519531c.015625.519532.132813 1.011719.324219 1.460938-8.210937-.011719-16.425781-.050782-24.636719-.105469.152344-.390625.257813-.808594.277344-1.253906 1.421875-32.785157 2.894531-66.683594 8.582031-99.464844 5.691407-32.792969 14.867188-60.351563 27.941407-83.90625-3.359376 19.527344-9.585938 38.441406-15.675782 55.683594-.464844 1.3125-.214844 2.773437.65625 3.859375.769532.964844 1.929688 1.511718 3.144532 1.511718.160156 0 .320312-.007812.480468-.027343 5-.597657 9.925782-1.953125 14.660156-3.96875-11.636718 41.070312-16.941406 83.492187-15.753906 126.210937zm-89.671875-127.585937c-4.871093-13.800781-9.832031-28.667969-13.339843-44.0625 29.152343 52.304687 43.011718 112.742187 39.304687 172.597656-8.175781-.113281-16.351563-.234375-24.511719-.378906.046875-.277344.070313-.5625.058594-.855469-1.871094-42.277344-8.265625-84.402344-19.015625-125.335938 4.292969 1.691407 8.730469 2.84375 13.226563 3.382813.160156.015625.320312.027344.476562.027344 1.214844 0 2.378906-.550781 3.148438-1.511719.867187-1.089844 1.117187-2.550781.652343-3.863281zm-1.914062-220.550781c13.027343-3.765626 26.566406-5.808594 39.914062-5.964844 16.78125-.210938 33.734375 2.574218 49.769531 7.988281-6.488281 22.023437-2.066406 45.523437 1.921876 61.523437 1.53125 6.152344 3.285156 12.339844 4.976562 18.324219 1.175781 4.152344 2.363281 8.347657 3.488281 12.570313-.550781.207031-1.070312.523437-1.507812.976562-14.164063 14.757813-34.835938 23.210938-55.277344 22.601563-19.910156-.59375-39.496094-9.789063-52.753906-24.648438 1.039062-3.863281 2.121093-7.699219 3.199219-11.5 1.695312-5.984375 3.449218-12.171875 4.980468-18.324219 4.105469-16.488281 8.675782-40.949218 1.289063-63.546874zm106.160156 148.160156c-4.71875-3.253906-7.140625-7.109375-10.160156-13.535156-3.390625-7.210938-4.425781-15.488282-2.925781-23.3125.042968-.21875.050781-.4375.058593-.652344 3.222657-2.292969 6.277344-4.816406 9.121094-7.5625 1.632813 6.917968 2.96875 13.894531 3.683594 20.878906.824219 8.066406.828125 16.148438.222656 24.183594zm-99.96875-32.25c11.292969 6.183594 24.015625 9.785156 36.851563 10.164062.769531.023438 1.53125.035156 2.300781.035156 13.554687 0 27.105469-3.558593 39.066406-10.003906-.375 7.519532 1.085937 15.128906 4.292969 21.945313 1.226562 2.613281 2.429687 4.9375 3.746094 7.046875l-40.859376 31.988281c-2.554687 2-4.679687 3.546875-6.8125 3.730469-1.980468.179687-4.28125-.855469-6.648437-2.023438-15.515625-7.636718-29.988281-17.226562-43.105469-28.492187 3.558594-3.304688 6.457032-7.660157 8.304688-12.710938 2.632812-7.191406 3.023437-14.742187 2.863281-21.679687zm-21.816406 8.066406c.734375-7.15625 2.113281-14.300781 3.800781-21.378906 3.050781 2.980468 6.339844 5.71875 9.824219 8.1875-.039063.261718-.054688.53125-.039063.800781.363282 7.335937.519532 15.789063-2.203125 23.234375-2.257812 6.167969-6.648437 11.019531-11.625 13.085938-.585937-7.949219-.574219-15.949219.242188-23.929688zm1.292969 31.960938c.824218-.273438 1.636718-.589844 2.433593-.957032 14.066407 12.332032 29.683594 22.785156 46.46875 31.050782 2.972657 1.460937 6.160157 2.871093 9.738281 2.871093.382813 0 .773438-.019531 1.167969-.050781 4.691407-.410156 8.386719-3.304688 11.085938-5.414062l40.898437-32.023438c1.039063 1.015625 2.167969 1.976562 3.425782 2.890625-15.59375 25.796875-26.308594 56.273437-32.699219 93.09375-5.773438 33.289063-7.257813 67.453125-8.691407 100.492187-.023437.542969.066407 1.066407.242188 1.550782-7.933594-.066406-15.863281-.148438-23.789062-.246094 4.105468-67.714844-13.695313-136.132812-50.28125-193.257812zm155.714843-110.964844c-1.089843 3.613281-3.207031 7.050781-6.085937 9.996094-2.402344-10.515626-4.480469-21.203126-4.597656-31.753907 3.585937.882813 6.960937 3.28125 9.011718 6.585938 2.632813 4.25 3.257813 9.917969 1.671875 15.171875zm-178.503906-110.542969c2.144531-2.265625 4.683594-4.222656 7.367187-6.296875 3.859376-2.976562 7.847657-6.054688 10.910157-10.289062 3.800781-5.253907 5.484375-11.304688 7.113281-17.15625.5625-2.027344 1.09375-3.941407 1.710938-5.824219 5.128906-15.671875 16.832031-29.082031 31.300781-35.871094 14.765625-6.921875 32.796875-6.925781 47.054687.003906 14.753906 7.167969 25.425782 21.429688 27.855469 37.222657.1875 1.238281.335937 2.488281.488281 3.816406.480469 4.148437.976563 8.441406 2.917969 12.554687 3.015625 6.394531 8.492187 10.351563 13.785156 14.179688 2.476563 1.789062 4.8125 3.480469 6.855469 5.375 7.828125 7.273437 11.453125 18.90625 9.484375 29.414062-9.757813-8.828125-23.203125-15.230469-41.003906-19.507812-38.492188-9.25-79.179688-5.929688-114.558594 9.34375-5.527344 2.382812-12.152344 5.5625-18.261719 10.128906-2.371094-9.382813.328125-20.066406 6.980469-27.09375zm-16.671875 60.746094c-.722656-7.40625 2.585938-15.722657 8.851562-22.242188 6.574219-6.839843 15.367188-11.148437 22.292969-14.136719 33.796875-14.589843 72.675781-17.75 109.484375-8.90625 17.835938 4.285157 30.792969 10.722657 39.613282 19.671876 10.742187 10.90625 14.867187 26.835937 10.027343 38.730468-.707031 1.734375-1.878906 3.910156-3.46875 4.449219-1.9375.65625-4.734375-.941406-7.679687-2.78125-24.800782-15.503906-54.46875-23.996094-83.738282-23.996094-.589843 0-1.179687 0-1.769531.007813-20.25.238281-40.925781 4.582031-59.785156 12.558594-2.605469 1.101562-5.609375 2.96875-8.789063 4.949218-4.710937 2.925782-11.148437 6.933594-14.527343 6.753906-5.019531-.273437-9.949219-9.308593-10.511719-15.058593zm1.027344 42.96875c.171875-6.585938 4.140625-12.988281 9.863281-16.25.304687 10.621093-.78125 21.328125-2.5 31.828125-4.609375-3.726563-7.515625-9.664063-7.363281-15.578125zm.882812 93.472656c1.28125-15.488281 4.800782-31.066406 8.203125-46.132813.804688-3.570312 1.613281-7.140624 2.394531-10.714843 4.0625-18.632813 7.609376-38.605469 6.179688-58.484375 3.484375-1.542969 7.082031-3.769532 10.605469-5.960938 2.90625-1.804687 5.648437-3.511718 7.675781-4.367187 3-1.269531 6.054688-2.433594 9.144531-3.507813 6.765625 20.640625 2.433594 43.617188-1.4375 59.148438-1.5 6.027344-3.234375 12.152344-4.910156 18.074218-3.976563 14.046876-8.089844 28.570313-9.617187 43.480469-3.339844 32.644531 5.847656 65.019531 15.632812 93.425781-14.320312-3.980468-27.394531-15.078124-35.136719-30.210937-7.578125-14.816406-10.519531-33.238281-8.734375-54.75zm-61.851562 212.207031c-1.117188-1.402344-1.371094-3.820312-1.550782-6.386718-.886718-12.585938-1.238281-25.359376-1.046874-37.972657.320312-20.730469 2.097656-47.570312 13.105468-71.300781 13.625-29.363281 29.671875-46.421875 47.710938-50.742188 1.425781 4.425782 3.152344 8.632813 5.191406 12.617188 5.976562 11.679688 14.824219 21.25 25.074219 27.613281 11.734375 42.542969 18.671875 86.464844 20.621093 130.554688.003907.121093.035157.234375.050782.355469-19.054688-.351563-38.046875-.765626-56.941406-1.207032.003906-.097656.027343-.191406.023437-.292968l-1.378906-97.980469c-.027344-2.207031-1.828125-3.972657-4.027344-3.972657-.019531 0-.039063 0-.058594 0-2.226562.03125-4.003906 1.863282-3.972656 4.089844l1.378906 97.96875c-11.667969-.277344-23.292969-.5625-34.871093-.847656-3.617188-.089844-7.613282-.363281-9.308594-2.496094zm312.707031.617188c-3.464844 3.515625-9.625 3.964844-15.640625 4.121094-7.902344.203124-15.820312.359374-23.742188.5-.003906-.0625.003907-.125-.003906-.1875-3.863281-32.746094-6.453125-66.050782-7.703125-98.996094-.085937-2.222656-1.984375-3.945313-4.179687-3.875-2.226563.085937-3.960938 1.957031-3.878906 4.183594 1.25 32.945312 3.839843 66.253906 7.6875 99.011718-17.371094.261719-34.777344.382813-52.191407.394532.21875-.515626.339844-1.082032.324219-1.679688-1.226562-44.125 4.597656-87.925781 17.3125-130.195312.105469-.351563.144531-.707032.152344-1.058594 9.59375-6.34375 17.855468-15.53125 23.53125-26.621094 1.476562-2.890625 2.789062-5.902344 3.941406-9.027344 21.394531 12.269532 38.25 34.425782 47.667969 62.800782 9.101562 27.429687 10.429687 56.976562 10.507812 84.824218.019531 6.027344-.257812 12.21875-3.785156 15.804688zm0 0"/></svg>