<svg height="512pt" viewBox="-87 0 512 512.00187" width="512pt" xmlns="http://www.w3.org/2000/svg"><path d="m173.105469 507.914062c-32.695313 0-65.796875-.230468-98.378907-.683593l-4.660156-.066407.773438-4.597656c4.1875-24.941406 5.460937-50.371094 3.78125-75.582031 1.644531 25.632813.296875 51.476563-4.054688 76.8125l-.582031 3.375-3.421875-.050781c-16.074219-.25-30.105469-.503906-42.898438-.78125-5.757812-.117188-11.246093-.515625-15.039062-4.074219-4.296875-4.046875-4.609375-10.496094-4.5625-16.753906.222656-24.980469.835938-50.230469 1.824219-75.050781.8125-20.589844 2.292969-38.878907 12.203125-54.128907 9.871094-15.222656 27.175781-24.589843 42.621094-32.171875l3.246093-1.597656 28.730469 46.171875c1.550781 2.496094 3.476562 5.59375 6.53125 6.964844 1.175781.523437 2.355469.78125 3.605469.78125 4.863281 0 9.808593-3.945313 13.101562-6.914063l46.769531-42.035156-1.1875 10.46875c-2.625 23.160156-3.898437 41.585938-4.394531 63.601562-.066406 2.800782-.183593 7.476563 2.710938 10.15625 1.535156 1.421876 3.746093 2.113282 6.75 2.113282 1.316406 0 2.589843-.136719 3.613281-.246094l.226562-.023438c3.078126-.34375 8.25-.925781 10.539063-4.585937 1.527344-2.441406 1.316406-5.695313 1.160156-8.070313-1.226562-18.300781-2.683593-37.285156-4.324219-56.441406l-.863281-10.078125 39.09375 35.140625c3.300781 2.96875 8.257813 6.914063 13.117188 6.914063 1.226562 0 2.4375-.261719 3.589843-.78125 3.070313-1.375 4.996094-4.472657 6.539063-6.960938l29.273437-47.0625 3.316407 1.800781c17.320312 9.417969 41.042969 22.316407 51.292969 41.371094 8.566406 15.90625 8.925781 34.925782 9.246093 51.707032l1.4375 76.472656c.070313 3.976562-.085937 8.070312-2.738281 10.648437-2.433594 2.347657-6.144531 2.617188-9.742188 2.695313-15.636718.332031-32.25.617187-50.792968.871094l-3.984375.050781-1.519531-88.933594-.101563-.03125 1.546875 88.972656-4.015625.050781c-29.601563.371094-59.671875.5625-89.378906.5625zm0 0" fill="#288fc9"/><path d="m242.707031 169.667969c-1.164062-4.566407-2.425781-8.21875-3.96875-11.488281-2.316406-4.898438-6.585937-11.445313-13.777343-14.804688-3.609376-1.679688-7.597657-2.464844-12.546876-2.464844-4.144531 0-8.457031.558594-12.628906 1.097656l-.5.0625c-2.210937.28125-4.304687.550782-6.441406.742188-2.234375.203125-4.492188.304688-6.707031.304688-12.609375 0-24.253907-3.199219-33.675781-9.253907-12.335938-7.929687-20.535157-21.15625-21.410157-34.511719-4.386719 25.835938-14.894531 50.636719-30.457031 71.722657-1.730469 2.335937-3.328125 3.964843-5.398438 4.296875l-.253906.058594-.507812.003906c-3.339844 0-5.796875-3.738282-6.601563-4.96875-10.152343-15.4375-14.691406-34.8125-12.449219-53.148438 2.078126-16.941406 10.171876-33.699218 22.207032-45.976562l2.5-2.550782 2.816406 2.195313c2.90625 2.273437 6.878906 3.363281 10.722656 4.417969.535156.140625 1.09375.296875 1.660156.457031l120.128907 33.859375c2.257812.636719 4.769531 1.339844 7.304687 1.339844.734375 0 1.484375-.074219 2.234375-.222656l2.574219-.511719 1.492188 2.160156c6.46875 9.371094 9.78125 20.734375 9.328124 31.996094-.375 9.152343-3.359374 18.511719-8.402343 26.359375l-4.972657 7.734375zm0 0" fill="#c67045"/><path d="m171.738281 268.769531c-6.453125 0-12.957031-.730469-19.328125-2.175781-16.417968-3.734375-31.195312-12.082031-41.621094-23.507812-11.296874-12.382813-17.542968-28.480469-17.132812-44.160157h-.136719c-3.84375.867188-7.820312 1.769531-11.847656 1.769531-.558594 0-1.113281-.015624-1.664063-.054687-5.148437-.34375-9.511718-2.480469-11.96875-5.859375-3.9375-5.425781-2.460937-12.8125.746094-17.726562 2.917969-4.5 7.269532-7.785157 11.542969-10.671876l3.511719-2.371093 2.164062 3.644531c.605469 1.019531 1.1875 1.953125 1.777344 2.851562.808594 1.230469 3.28125 4.992188 6.671875 4.992188.109375 0 .222656-.003906.335937-.011719 2.546876-.179687 4.355469-2.351562 5.847657-4.371093 12.253906-16.609376 21.578125-35.964844 26.976562-55.988282l2.789063-10.355468 4.671875 9.65625c3.769531 7.789062 9.929687 14.710937 17.347656 19.488281 9.425781 6.054687 21.101563 9.257812 33.753906 9.257812 2.203125 0 4.449219-.101562 6.671875-.300781 2.3125-.203125 4.667969-.507812 6.945313-.800781 4.175781-.542969 8.496093-1.097657 12.609375-1.097657 4.882812 0 8.984375.800782 12.53125 2.457032 5.582031 2.597656 10.464844 7.84375 13.746094 14.773437 2.960937 6.238281 4.417968 13.050781 5.832031 19.636719l.070312.097656c2.683594-2.933594 5.070313-6.25 7.085938-9.875l1.179687-2.121094 2.421875.066407c7.046875.183593 18.042969 4.84375 19.941407 12.015625 1.898437 7.253906-1.269532 15.636718-7.710938 20.390625-3.914062 2.894531-9.007812 4.488281-14.34375 4.488281-2.617188 0-5.214844-.375-7.722656-1.121094-.007813 20.957032-11.976563 42.347656-30.527344 54.519532-12.421875 8.152343-27.351562 12.464843-43.167969 12.464843zm0 0" fill="#ffdac4"/><path d="m162.828125 316.75c-11.929687-15.175781-24.070313-26.738281-36.078125-34.363281-1.617188-1.023438-3.289062-1.933594-4.964844-2.695313l-3.789062-1.730468 1.878906-3.714844c2.082031-4.121094 3.359375-8.5625 3.796875-13.203125l.574219-6.109375 5.359375 2.996094c7.078125 3.957031 14.75 6.890624 22.792969 8.71875 6.363281 1.449218 12.867187 2.183593 19.324218 2.183593 12.777344 0 25.289063-2.90625 36.175782-8.402343l5.5625-2.808594.238281 6.226562c.125 3.265625.773437 6.441406 1.925781 9.4375l1.5 3.898438-3.960938 1.328125c-2.597656.871093-5.273437 2.175781-7.964843 3.878906-12.015625 7.632813-24.160157 19.191406-36.082031 34.359375l-3.144532 4.003906zm0 0" fill="#ffdac4"/><g fill="#5bd0fc"><path d="m227.101562 20.351562c-26.199218-10.8125-51.554687-16.292968-75.371093-16.292968-15.554688 0-30.386719 2.410156-44.078125 7.164062-4.375 1.519532-9.125 3.644532-11.171875 7.878906-1.246094 2.578126-1.285157 5.4375-1.214844 8.636719l.050781 2.324219c.234375 11.265625.476563 22.917969 3.117188 33.574219 2.019531 8.105469 8.148437 9.777343 15.265625 11.71875.644531.171875 1.3125.355469 2 .554687l119.746093 33.75c2.5.703125 4.941407 1.332032 7.296876 1.332032 1.238281 0 2.34375-.171876 3.371093-.515626 3.617188-1.199218 6.097657-4.53125 8.328125-7.839843 6.109375-9.074219 11.878906-18.597657 17.136719-28.292969 2.136719-3.925781 4.066406-7.792969 4.203125-11.992188.179688-5.363281-2.539062-10.871093-8.308594-16.839843-9.445312-9.777344-21.894531-17.535157-40.371094-25.160157zm0 0"/><path d="m266.765625 306.613281c-2.640625-2.230469-5.261719-4.484375-7.894531-6.746093l-.179688-.15625c-5.3125-4.5625-10.800781-9.285157-16.367187-13.703126-7.40625-5.886718-14.300781-8.746093-21.082031-8.746093-5.277344 0-10.511719 1.691406-16 5.183593-12.089844 7.671876-24.3125 19.332032-36.371094 34.714844-1.28125 1.652344-2.523438 3.4375-2.410156 5.433594.105468 2.066406 1.496093 3.699219 3.6875 5.652344l45.910156 41.277344c5.203125 4.683593 9.367187 6.863281 13.097656 6.863281 1.257812 0 2.453125-.253907 3.53125-.738281 2.824219-1.253907 4.625-3.890626 6.523438-6.945313l29.621093-47.613281c1.695313-2.730469 3.175781-5.417969 2.621094-8.273438-.503906-2.496094-2.503906-4.355468-4.6875-6.203125zm0 0"/><path d="m176.988281 335.925781-.140625-1.566406-6.917968-6.226563c-.328126-.296874-.707032-.636718-1.101563-1.03125l-3.039063-3.101562-2.753906 3.183594-2.167968 2.195312 1.40625 2.628906c-3.125 26.183594-4.554688 45.695313-5.097657 69.585938-.085937 3.621094.042969 7.691406 2.679688 10.109375 2.023437 1.875 4.773437 2.089844 6.664062 2.089844 1.082031 0 2.273438-.078125 3.847657-.257813 3.988281-.433594 8.417968-1.179687 10.546874-4.5625 1.386719-2.234375 1.335938-4.957031 1.140626-8.039062-1.457032-21.679688-3.164063-43.550782-5.066407-65.007813zm0 0"/><path d="m165.5 322.5625c.085938-1.992188-1.152344-3.761719-2.46875-5.457031-11.996094-15.320313-24.214844-26.980469-36.3125-34.660157-5.496094-3.492187-10.734375-5.1875-16.011719-5.1875-6.769531 0-13.664062 2.859376-21.078125 8.75-5.589844 4.433594-11.105468 9.175782-16.441406 13.765626l-.234375.199218c-2.585937 2.222656-5.171875 4.445313-7.753906 6.636719-2.195313 1.847656-4.207031 3.714844-4.695313 6.214844-.566406 2.832031.910156 5.523437 2.652344 8.328125l.109375.171875.453125.664062.546875.40625.121094.738281 28.355469 45.574219c1.914062 3.0625 3.722656 5.699219 6.5 6.929688 1.101562.496093 2.300781.75 3.558593.75 3.726563 0 7.886719-2.183594 13.089844-6.863281l45.964844-41.320313c1.855469-1.675781 3.53125-3.367187 3.644531-5.640625zm0 0"/></g><path d="m337.894531 492.953125-1.441406-76.464844c-.324219-17.242187-.691406-36.789062-9.726563-53.570312-10.597656-19.691407-33.671874-32.539063-52.644531-42.851563 1.09375-2.25 1.953125-5.023437 1.355469-8.023437-.816406-4.109375-3.96875-6.773438-6.054688-8.535157-2.632812-2.222656-5.246093-4.46875-7.859374-6.71875-5.398438-4.644531-10.984376-9.449218-16.675782-13.964843-8.601562-6.828125-16.777344-10.03125-24.9375-9.640625-.039062-.128906-.066406-.265625-.121094-.394532-1.757812-4.089843-2.414062-8.589843-1.894531-13.007812.023438-.203125.015625-.398438.007813-.597656 18.078125-12.195313 29.769531-31.878906 31.363281-52.445313 7.46875.960938 14.917969-.8125 20.652344-5.050781 7.742187-5.726562 11.53125-15.875 9.21875-24.6875-1.210938-4.609375-5.210938-8.789062-11.261719-11.765625-2.972656-1.464844-6.117188-2.453125-9.121094-2.941406 2.140625-5.660157 3.410156-11.648438 3.652344-17.648438.476562-11.785156-2.964844-23.832031-9.507812-33.675781 1.957031-1.8125 3.523437-3.996094 4.914062-6.066406 6.203125-9.21875 12.035156-18.851563 17.339844-28.628906 2.371094-4.375 4.515625-8.71875 4.6875-13.785157.21875-6.515625-2.875-12.996093-9.449219-19.804687-12.621094-13.0625-28.9375-20.804688-41.742187-26.089844-31.015626-12.804688-77.414063-24.792969-122.328126-9.207031-5.164062 1.792969-10.804687 4.375-13.496093 9.945312-1.636719 3.386719-1.699219 6.894531-1.621094 10.492188l.050781 2.324219c.230469 10.960937.492188 23.382812 3.238282 34.457031.277343 1.121093.632812 2.128906 1.03125 3.070312-13.15625 13.03125-21.925782 30.78125-24.171876 49.144531-1.886718 15.433594.800782 31.558594 7.421876 45.703126-5.363282 3.582031-10.050782 7.164062-13.402344 12.316406-3.960938 6.089844-5.6875 15.351562-.625 22.324218 3.164062 4.355469 8.625 7.101563 14.980468 7.53125 3.417969.222657 6.78125-.191406 9.953126-.792968.882812 15.066406 7.328124 30.101562 18.109374 41.917968 3.617188 3.964844 7.734376 7.570313 12.234376 10.769532-.140626.410156-.238282.839844-.242188 1.300781-.039062 5.503906-1.488281 10.902344-4.171875 15.699219-9.351563-1.644532-18.652344 1.410156-28.507813 9.234375-5.695312 4.519531-11.28125 9.328125-16.679687 13.972656-2.613281 2.246094-5.222656 4.492187-7.851563 6.714844-2.085937 1.761719-5.242187 4.425781-6.058593 8.535156-.664063 3.355469.484375 6.421875 1.75 8.792969-15.355469 7.558594-33.109375 17.148437-43.585938 33.285156-10.449219 16.109375-12.042969 35.765625-12.851562 56.183594-.988281 24.933594-1.597657 50.222656-1.8164065 75.164062-.0625 6.839844.3359375 14.574219 5.8320315 19.746094 4.824218 4.539062 11.410156 5.050781 17.738281 5.1875 49.644531 1.0625 99.621094 1.59375 149.609375 1.59375 49.53125 0 99.070312-.519531 148.25-1.566406 3.261719-.070313 8.714844-.1875 12.476562-3.835938 3.839844-3.730468 4.066407-9 3.980469-13.644531zm-116.648437-211.695313c5.949218 0 11.945312 2.605469 18.59375 7.878907 5.5625 4.421875 11.085937 9.167969 16.425781 13.761719 2.632813 2.265624 5.265625 4.53125 7.914063 6.765624 1.625 1.375 3.105468 2.710938 3.351562 3.949219.277344 1.402344-.882812 3.417969-2.09375 5.367188l-29.621094 47.605469c-1.546875 2.488281-2.96875 4.609374-4.75 5.40625-2.816406 1.269531-6.851562-.515626-12.332031-5.445313l-45.914063-41.273437c-.636718-.574219-2.328124-2.09375-2.371093-2.886719-.035157-.707031 1.164062-2.238281 1.617187-2.816407 11.714844-14.953124 23.597656-26.308593 35.316406-33.75 4.773438-3.03125 9.304688-4.5625 13.863282-4.5625zm-43.1875 119.9375c.160156 2.371094.226562 4.429688-.546875 5.660157-1.101563 1.757812-4.292969 2.339843-7.578125 2.710937-3.011719.335938-5.988282.472656-7.359375-.792968-1.347657-1.246094-1.46875-4.140626-1.402344-7.082032.539063-23.746094 1.960937-43.152344 5.070313-69.214844.105468-.859374-.078126-1.679687-.457032-2.386718.0625-.0625.125-.125.191406-.1875.53125.535156 1.039063.992187 1.457032 1.367187l5.566406 5.007813c1.910156 21.539062 3.613281 43.375 5.058594 64.917968zm-77.976563-380.355468c1.410157-2.917969 5.28125-4.585938 8.878907-5.835938 42.527343-14.757812 86.886718-3.230468 116.613281 9.042969 17.941406 7.40625 29.976562 14.882813 39.015625 24.242187 4.980468 5.152344 7.332031 9.710938 7.191406 13.929688-.109375 3.3125-1.820312 6.722656-3.714844 10.214844-5.183594 9.550781-10.882812 18.964844-16.941406 27.972656-1.835938 2.730469-3.832031 5.460938-6.273438 6.277344-2.210937.738281-5.082031.039062-8.332031-.875h.003907l-119.738282-33.753906c-.691406-.195313-1.378906-.382813-2.054687-.566407-7.410157-2.019531-11.03125-3.242187-12.414063-8.824219-2.53125-10.203124-2.769531-21.632812-3.003906-32.6875l-.050781-2.332031c-.058594-2.671875-.035157-5.027343.820312-6.804687zm-20.730469 96.960937c1.988282-16.242187 9.621094-31.957031 21.09375-43.660156 3.550782 2.769531 8.011719 3.992187 12.160157 5.125.65625.179687 1.320312.359375 1.992187.550781l119.734375 33.75c2.351563.664063 5.285157 1.488282 8.386719 1.488282.992188 0 2-.097657 3.015625-.296876 5.910156 8.5625 9.035156 19.183594 8.617187 29.5625-.347656 8.570313-3.109374 17.109376-7.765624 24.363282-1.050782-4.121094-2.347657-8.238282-4.234376-12.21875-2.605468-5.496094-7.441406-12.859375-15.703124-16.710938-8.808594-4.109375-18.246094-2.890625-27.375-1.710937-2.351563.300781-4.574219.589843-6.789063.785156-14.097656 1.273437-27.546875-1.691406-37.867187-8.332031-11.285157-7.257813-18.789063-19.289063-19.578126-31.398438-.132812-2.042968-1.773437-3.664062-3.816406-3.765625-2.046875-.082031-3.84375 1.34375-4.179687 3.359375-4.222657 25.222656-14.480469 49.429688-29.667969 70.003906-1.308594 1.773438-2.28125 2.695313-2.890625 2.738282-.128906.023437-1.238281-.007813-3.3125-3.164063-9.640625-14.660156-13.949219-33.058593-11.820313-50.46875zm34.390626 122.585938c-10.597657-11.621094-16.464844-26.695313-16.085938-41.355469.03125-1.246094-.511719-2.433594-1.476562-3.222656-.960938-.789063-2.238282-1.089844-3.449219-.8125-4.140625.945312-8.425781 1.921875-12.460938 1.652344-3.90625-.261719-7.269531-1.839844-9-4.222657-2.796875-3.855469-1.515625-9.539062.859375-13.191406 2.425782-3.726563 6.125-6.625 10.429688-9.539063.605468 1.011719 1.230468 2.015626 1.878906 3 1.167969 1.78125 4.734375 7.175782 10.621094 6.78125 4.625-.332031 7.449218-4.15625 8.804687-5.996093 12.664063-17.15625 22.0625-36.71875 27.609375-57.3125 4.042969 8.355469 10.570313 15.824219 18.785156 21.109375 11.820313 7.601562 27.074219 11 42.949219 9.582031 2.371094-.214844 4.773438-.523437 7.101563-.824219 8.351562-1.078125 16.246094-2.09375 22.933594 1.023438 4.746093 2.214844 8.945312 6.78125 11.824218 12.855468 2.765625 5.84375 4.179688 12.445313 5.542969 18.832032.316406 1.472656 1.425781 2.648437 2.878906 3.046875.351563.09375.710938.140625 1.0625.140625 1.109375 0 2.191407-.457032 2.964844-1.296875 2.953125-3.207031 5.515625-6.792969 7.652344-10.628907 6.109375.15625 14.945312 4.386719 16.171875 9.042969 1.472656 5.609375-1.140625 12.398438-6.214844 16.152344-4.917969 3.632813-12.027344 4.6875-18.554688 2.75-1.222656-.363281-2.542968-.128906-3.5625.632813-1.019531.765624-1.621093 1.964843-1.617187 3.238281.035156 19.609375-11.222656 39.683593-28.675781 51.136719-16.699219 10.960937-38.355469 14.503906-59.417969 9.726562-15.625-3.546875-29.671875-11.464844-39.554687-22.300781zm13.910156 21.03125c7.320312 4.09375 15.382812 7.207031 23.859375 9.128906 6.730469 1.527344 13.515625 2.277344 20.21875 2.277344 13.410156 0 26.464843-3.011719 37.96875-8.828125.140625 3.664062.878906 7.289062 2.191406 10.726562-2.921875.976563-5.859375 2.402344-8.832031 4.289063-12.410156 7.878906-24.882813 19.746093-37.082032 35.265625-12.199218-15.519532-24.675781-27.386719-37.085937-35.265625-1.828125-1.160157-3.644531-2.144531-5.449219-2.957031 2.316406-4.570313 3.738282-9.539063 4.210938-14.636719zm-63.230469 52.195312c.246094-1.238281 1.726563-2.574219 3.351563-3.949219 2.644531-2.230468 5.273437-4.496093 7.902343-6.757812 5.34375-4.59375 10.867188-9.347656 16.4375-13.769531 11.738281-9.316407 21.445313-10.308594 32.457031-3.316407 11.71875 7.441407 23.601563 18.792969 35.316407 33.75.449219.574219 1.648437 2.105469 1.613281 2.816407-.039062.792969-1.734375 2.316406-2.371094 2.886719l-45.910156 41.273437c-5.480469 4.929687-9.515625 6.710937-12.332031 5.445313-1.78125-.796876-3.207031-2.917969-4.753907-5.40625l-27.929687-44.890626c-.0625-.363281-.160156-.722656-.328125-1.070312-.296875-.609375-.738281-1.097656-1.253906-1.472656l-.105469-.171875c-1.210937-1.949219-2.371094-3.964844-2.09375-5.367188zm263.878906 187.195313c-1.375 1.332031-4.230469 1.503906-7.035156 1.5625-16.882813.359375-33.816406.632812-50.765625.867187l-1.445312-84.949219c-.039063-2.203124-1.835938-3.960937-4.03125-3.960937-.023438 0-.046876 0-.070313 0-2.222656.039063-4 1.875-3.960937 4.101563l1.445312 84.917968c-62.449219.792969-125.21875.753906-187.652344-.121094 4.238282-25.25 5.53125-50.960937 3.832032-76.507812-.144532-2.222656-2.054688-3.90625-4.289063-3.757812-2.21875.148437-3.902344 2.070312-3.753906 4.289062 1.683593 25.335938.347656 50.84375-3.949219 75.867188-14.3125-.21875-28.609375-.46875-42.871094-.773438-4.964844-.105469-9.644531-.414062-12.386718-2.996094-3.128907-2.945312-3.347657-8.4375-3.296876-13.808594.214844-24.855468.828126-50.0625 1.8125-74.914062.789063-19.984375 2.207032-37.699219 11.558594-52.109375 9.453125-14.570313 26.433594-23.597656 41.035156-30.765625l26.8125 43.097656c1.742188 2.800782 4.128907 6.632813 8.300782 8.503906 1.761718.789063 3.511718 1.128907 5.230468 1.128907 6.105469 0 11.75-4.308594 15.789063-7.9375l38.929687-34.996094c-2.660156 23.386719-3.925781 41.808594-4.429687 63.960937-.074219 3.25-.210937 9.296876 3.988281 13.183594 2.792969 2.582032 6.394532 3.179688 9.480469 3.179688 1.625 0 3.109375-.164063 4.253906-.292969 3.5625-.398437 10.1875-1.140625 13.511719-6.433594 2.222656-3.550781 1.945312-7.722656 1.757812-10.484375-1.253906-18.746094-2.714843-37.699218-4.328124-56.496094l31.570312 28.378907c4.039062 3.632812 9.679688 7.941406 15.789062 7.941406 1.714844 0 3.464844-.339844 5.230469-1.132813 4.171875-1.867187 6.558594-5.703124 8.300781-8.503906l27.28125-43.851562c18.082032 9.828125 40.160157 22.046875 49.683594 39.742187 8.109375 15.066407 8.457032 33.574219 8.765625 49.902344l1.4375 76.464844c.054688 2.953125-.011719 6.226562-1.53125 7.703125zm0 0"/></svg>