<svg height="512pt" viewBox="-91 0 512 512.00194" width="512pt" xmlns="http://www.w3.org/2000/svg"><path d="m190.699219 345.277344c-3.515625-.09375-7.230469-1.726563-11.042969-4.855469-6.667969-5.464844-11.371094-13.148437-13.25-21.640625l-.949219-4.289062 4.359375-.542969c12.546875-1.566407 24.402344-7.320313 33.378906-16.203125l4.523438-4.476563 2.074219 6.015625c3.910156 11.335938 2.753906 24.285156-3.089844 34.640625-1.496094 2.660157-7.0625 11.355469-15.695313 11.355469zm0 0" fill="#935252"/><path d="m133.308594 342.453125c-3.410156 0-6.523438-.808594-9.246094-2.402344-6.804688-3.976562-9.757812-12.183593-10.257812-18.539062-.582032-7.371094 1.242187-14.769531 2.851562-21.300781l1.664062-6.738282 4.996094 4.816406c9.699219 9.34375 22.945313 15.171876 36.339844 15.988282l6.574219.398437-3.386719 5.648438c-3.34375 5.578125-7.558594 11.886719-13.457031 16.410156-4.664063 3.578125-10.675781 5.71875-16.078125 5.71875zm0 0" fill="#935252"/><path d="m31.183594 507.9375c-7.648438 0-15.539063-.433594-20.578125-5.636719-4.480469-4.648437-5.152344-11.472656-5.492188-18.644531-1.324219-27.574219-2.695312-56.046875 4.75-83.195312 7.871094-28.679688 25.898438-51.511719 48.222657-61.078126l3.738281-1.605468 1.539062 3.765625c1.1875 2.902343 2.496094 5.742187 3.890625 8.4375 8.683594 16.761719 21.972656 31.875 39.492188 44.910156-.964844-18.898437-4.71875-37.960937-8.351563-56.398437l-.433593-2.21875c-1.152344-5.882813-2.34375-11.960938-3.398438-17.882813l-.539062-3.015625 2.773437-1.304688c3.933594-1.851562 7.628906-4.269531 10.980469-7.183593l8.339844-7.242188-1.769532 10.902344c-.667968 4.125-.867187 7.714844-.609375 10.976563.65625 8.238281 4.503907 15.1875 10.296875 18.582031 2.742188 1.605469 5.859375 2.417969 9.265625 2.417969 3.875 0 7.964844-1.046876 11.824219-3.027344l5.199219-2.664063.605469 5.8125c.242187 2.351563 1.066406 4.5625 2.375 6.398438.78125 1.09375 1.757812 2.070312 2.894531 2.902343l3.523437 2.574219-2.871094 3.289063c-10.65625 12.207031-16.40625 28.390625-15.765624 44.398437.695312 17.304688 8.960937 34.355469 22.105468 45.609375 12.351563-11.464844 20.292969-27.644531 21.835938-44.386718 1.484375-16.234376-3.109375-33.199219-12.605469-46.542969l-2.128906-2.992188 2.796875-2.375c2.019531-1.71875 3.507812-3.910156 4.296875-6.332031l1.53125-4.707031 4.28125 2.484375c2.566406 1.492187 5.066406 2.292968 7.433593 2.371094h.386719c5.839844 0 11.722657-4.257813 15.746094-11.386719 4.636719-8.230469 6.375-17.984375 4.890625-27.46875l-1.601562-10.261719 8.070312 6.539062c1.898438 1.53125 3.917969 2.898438 6.011719 4.058594l2.289062 1.265625-.242187 2.601563c-1.328125 14.277344-1.871094 28.9375-2.347656 41.867187l-1.5 40.621094c14.351562-17.179687 30.542968-36.660156 39.394531-59.457031l1.320312-3.398438 3.507813 1c24.667968 7.039063 45.148437 26.460938 53.453125 50.691406 6.523437 19.039063 5.601562 39.757813 4.785156 58.035157-.808594 18.019531-1.722656 36.125-2.714844 53.835937-.226562 3.84375-.621093 7.488282-2.96875 9.964844-2.765625 2.929688-7.195312 3.1875-11.492187 3.199219l-36.460938.113281-.308594-3.679688c-3.125-37.269531-3.4375-75.089843-.921874-112.402343-2.566407 37.066406-2.269532 74.671875.804687 111.769531l.359375 4.316406-205.035156.65625-4.058594-113.589844 4.003906 113.59375zm0 0" fill="#af7979"/><g fill="#644c4c"><path d="m99.484375 389.085938c-13.929687-11.652344-24.753906-24.820313-32.175781-39.136719-9.742188-18.777344-13.277344-39.507813-9.957032-58.375 1.453126-8.199219 4.050782-15.8125 6.804688-23.878907 2.796875-8.191406 5.691406-16.660156 7.054688-25.382812 2.207031-14.242188.273437-28.84375-1.597657-42.96875-.785156-5.894531-1.667969-12.523438-2.167969-18.964844-1.011718-12.898437-1.460937-44.570312 16.128907-59.980468l.902343-.789063 1.1875-.164063c2.691407-.371093 5.574219-1.695312 8.117188-2.863281l.410156-.1875c1.085938-.496093 2.109375-.964843 2.992188-1.273437 12.324218-4.320313 25.253906-7.464844 38.421875-9.34375 9.617187-1.371094 19.496093-2.066406 29.367187-2.066406 16.449219 0 32.730469 1.894531 48.398438 5.636718 7.101562 1.699219 14.179687 3.796875 21.035156 6.246094.351562.125 1.023438.347656 1.921875.640625 13.335937 4.386719 15.699219 5.851563 16.480469 6.335937l.539062.332032s.566406.671875.625.738281l.179688.195313.039062.058593.042969.042969.128906.160156c9.792969 12.058594 14.324219 31.058594 13.84375 58.09375-.160156 9.234375-1.105469 18.589844-2.023437 27.636719l-.035156.335937c-1.101563 10.804688-2.234376 21.917969-2.070313 32.90625.128906 8.921876 1.109375 17.941407 2.058594 26.667969 1.636719 15.15625 3.183593 29.46875.957031 44.058594-4.058594 26.507813-20.253906 49.382813-37.152344 70.15625l-7.539062 9.269531 1.5-40.660156c.652344-17.707031 1.328125-35.953125 3.652344-53.777344 1.394531-10.707031 3.414062-21.503906 5.371093-31.941406l.082031-.417969c2.136719-11.394531 4.34375-23.179687 5.738282-34.878906 3.222656-26.976563 1.234375-48.957031-6.070313-67.199219-.695312.003906-1.359375.011719-2.019531.011719-29.222656 0-56.789062-19.015625-67.039062-46.25-8.855469 19.109375-26.011719 34.535156-45.949219 41.261719-.578125.199218-1.183594.398437-1.796875.597656-4.460938 1.453125-9.082032 2.957031-12.03125 6.570312-4.402344 5.382813-3.269532 12.789063-2.175782 19.953126.265626 1.71875.480469 3.152343.648438 4.578124 1.390625 11.832032-1.425781 23.175782-4.960938 35.71875l-.214843.761719-.492188.625.097657.792969-.242188.824219c-1.453125 5.121093-2.847656 10.136719-3.925781 15.203125-6.550781 30.914062-.292969 62.734375 5.757812 93.507812 3.027344 15.367188 6.15625 31.257813 7.699219 47.132813l.945312 9.722656zm0 0"/><path d="m239.984375 92.761719c-6.464844-4.242188-14.542969-5.753907-21.609375-6.839844-11.457031-1.738281-22.773438-2.832031-33.628906-3.257813l-7.253906-.28125 4.113281-5.980468c4.304687-6.257813 6.136719-14.691406 5.160156-23.742188-.222656-2.089844-.582031-4.199218-1.101563-6.453125l-1.429687-6.214843 6.214844 1.417968c11.648437 2.65625 26.496093 6.855469 38.042969 15.808594 8.316406 6.445312 17.328124 18.261719 17.6875 32.097656l.199218 7.644532zm0 0"/><path d="m220.878906 304.710938c-12-8.277344-19.492187-22.902344-19.085937-37.253907l.0625-2.167969 1.851562-1.132812c10.136719-6.199219 19.175781-14.304688 26.132813-23.449219l7.132812 3.050781c-1.238281 7.757813-2.691406 15.546876-4.070312 22.863282l-.023438.117187c-1.960937 10.464844-3.992187 21.289063-5.382812 32.023438-.128906.984375-.238282 1.960937-.351563 2.925781l-.777343 6.808594zm0 0"/><path d="m86.105469 94.277344c1.804687-10.78125 6.75-21.101563 13.921875-29.066406 8.59375-9.53125 20.742187-16.132813 33.414062-18.171876l5.027344-2.453124.21875 6.148437c.367188 10.25 4.515625 19.835937 11.386719 26.300781l6.296875 5.929688-8.597656.960937c-17.636719 1.964844-34.417969 6-49.878907 11.984375-1.691406.65625-3.914062 1.546875-6.070312 2.613282l-7.011719 3.472656zm0 0"/><path d="m93.140625 310.003906c-2.863281-17.84375-5.507813-41.355468-.503906-65.003906.460937-2.15625.996093-4.308594 1.40625-5.941406l2.394531-9.484375 4.9375 8.445312c5.136719 8.785157 12.347656 16.730469 20.855469 22.972657l1.351562.992187.238281 1.660156c1.449219 10.015625-.359374 20.460938-5.09375 29.40625-4.410156 8.3125-11.421874 15.359375-19.738281 19.839844l-4.953125 2.667969zm0 0"/></g><path d="m247.800781 120.203125c-2.773437-1.089844-6.511719-2.402344-11.425781-4.015625l-.757812-.25c-.546876-.179688-.964844-.320312-1.214844-.410156-6.792969-2.425782-13.875-4.527344-21.019532-6.238282-15.675781-3.742187-31.96875-5.640624-48.421874-5.640624-9.882813 0-19.761719.695312-29.363282 2.070312-13.144531 1.867188-26.078125 5.011719-38.445312 9.34375-.90625.324219-2.015625.832031-3.195313 1.367188l-.21875.097656c-3.273437 1.507812-6.707031 2.980468-9.394531 2.980468-1.191406 0-2.238281-.28125-3.117188-.839843-1.425781-.90625-2.234374-2.175781-2.417968-3.773438-.40625-3.414062 2.136718-7.816406 4.667968-10.457031 3.65625-3.804688 8.417969-6.136719 14.441407-8.46875 23.042969-8.921875 48.796875-13.445312 76.539062-13.445312 14.050781 0 28.824219 1.167968 43.910157 3.472656 8.46875 1.285156 18.074218 3.175781 24.855468 9.34375 5.070313 4.605468 8.332032 11.285156 9.976563 20.433594l1.269531 7.046874zm0 0" fill="#c67045"/><path d="m156.40625 81.613281c-.035156-.035156-.066406-.074219-.105469-.101562-13.148437-7.1875-20.292969-24.953125-16.558593-41.285157 2.984374-13.007812 11.902343-24.964843 25.105468-33.675781l3.980469-2.625 8.941406 20.65625c3.867188 8.949219 7.867188 18.199219 8.925781 28.089844 1.191407 10.929687-1.902343 21.1875-8.277343 27.433594l-1.066407 2.347656-3.046874.015625c-4.949219 0-9.894532.148438-14.699219.441406l-1.910157.117188zm0 0" fill="#c67045"/><path d="m160.316406 445.101562c-11.539062-11.28125-18.519531-26.917968-19.160156-42.902343-.683594-16.886719 5.941406-34.261719 17.714844-46.484375l1.449218-1.503906 2.058594.328124c.753906.121094 1.496094.179688 2.214844.179688 1.007812 0 1.988281-.109375 2.914062-.328125l2.566407-.613281 1.570312 2.121094c9.996094 13.484374 14.847657 30.804687 13.320313 47.527343-1.429688 15.488281-8.160156 30.253907-18.957032 41.574219l-2.796874 2.933594zm0 0" fill="#c67045"/><path d="m164.5625 354.660156c-4.414062 0-8.707031-2.167968-11.203125-5.652344-2.910156-4.050781-3.273437-9.683593-1.019531-14.113281v-.570312l1.136718-1.175781c2.519532-2.589844 4.882813-5.632813 7.433594-9.578126l4.273438-6.609374 2.824218 7.34375c2.003907 5.214843 5.160157 10.023437 9.132813 13.917968l2.121094 2.078125-1.375 2.632813c-.039063.078125-.050781.109375-.054688.113281-.738281 5.320313-4.9375 9.964844-10.203125 11.25-.980468.238281-2.015625.363281-3.066406.363281zm0 0" fill="#c67045"/><path d="m165.175781 275.839844c-28.644531-.523438-56.507812-19.371094-67.757812-45.835938l-.550781-1.296875.382812-1.355469c3.628906-12.84375 6.519531-24.4375 5.128906-36.296874-.183594-1.492188-.421875-3.078126-.652344-4.5625-1.097656-7.148438-2.234374-14.539063 2.15625-19.914063 2.9375-3.59375 7.550782-5.101563 12.015626-6.558594.621093-.203125 1.21875-.398437 1.804687-.59375 17.265625-5.828125 32.632813-18.292969 42.15625-34.191406l3.667969-6.121094 3.308594 6.320313c12.054687 23.027344 37.410156 38.695312 63.089843 38.984375l2.765625.03125.945313 2.597656c5.792969 15.851563 7.707031 34.34375 5.851562 56.535156l-.070312.808594-.359375.6875c-12.269532 28.011719-44.941406 50.769531-72.929688 50.769531-.320312 0-.636718-.003906-.953125-.007812zm0 0" fill="#ffdac4"/><path d="m162.992188 314.320312c-15.949219 0-31.835938-7.125-42.503907-19.054687l-1.757812-1.96875 1.117187-2.394531c3.054688-6.539063 4.613282-13.855469 4.511719-21.160156l-.09375-6.941407 6.054687 3.398438c10.917969 6.132812 22.96875 9.488281 34.851563 9.699219.3125.007812.578125.007812.84375.007812h.085937c9.417969 0 19.78125-2.617188 29.96875-7.574219l5.316407-2.589843.421875 5.898437c.4375 6.089844 2.269531 12.25 5.296875 17.816406l1.425781 2.625-2.085938 2.085938c-10.613281 12.535156-26.730468 20.0625-43.164062 20.148437h-.289062zm0 0" fill="#ffdac4"/><path d="m323.859375 380.699219c-8.707031-25.410157-30.003906-45.660157-55.765625-53.15625 1.300781-4.277344 2.332031-8.652344 3.015625-13.132813 2.3125-15.113281.660156-30.363281-.9375-45.105468-.9375-8.652344-1.90625-17.597657-2.035156-26.296876-.15625-10.765624.96875-21.78125 2.054687-32.4375.941406-9.238281 1.914063-18.792968 2.082032-28.308593.484374-27.4375-4.15625-47.101563-14.152344-59.957031-.945313-11.109376-3.710938-19.652344-8.433594-25.882813 3.0625-16.886719-7.015625-33.355469-18.707031-42.417969-12.714844-9.859375-28.625-14.242187-43.921875-17.511718-.03125-.007813-.0625-.003907-.09375-.011719-1.636719-4.652344-3.585938-9.164063-5.507813-13.601563l-8.851562-20.449218c-.457031-1.054688-1.335938-1.859376-2.425781-2.222657-1.085938-.359375-2.277344-.2460935-3.269532.320313-16.25 9.253906-27.59375 23.394531-31.125 38.792968-.28125 1.234376-.507812 2.464844-.679687 3.703126-.523438-.140626-1.082031-.1875-1.652344-.101563-14.015625 2.089844-26.957031 9.042969-36.441406 19.570313-9.488281 10.527343-15.054688 24.121093-15.679688 38.277343 0 .035157.007813.066407.007813.101563-.265625.25-.539063.488281-.796875.753906-3.042969 3.175781-6.378907 8.6875-5.769531 13.78125.257812 2.128906 1.164062 3.964844 2.644531 5.410156-7.742188 8.789063-16.640625 26.371094-14.03125 59.882813.5 6.410156 1.359375 12.878906 2.1875 19.132812 1.925781 14.488281 3.742187 28.179688 1.617187 41.859375-1.296875 8.339844-4.007812 16.285156-6.878906 24.699219-2.691406 7.875-5.46875 16.015625-6.957031 24.480469-2.53125 14.371094-1.253907 29.75 3.535156 44.605468-23.71875 9.996094-42.644531 33.648438-50.941406 63.910157-7.621094 27.792969-6.234375 56.609375-4.898438 84.476562.292969 6.03125.730469 15.144531 6.632813 21.257813 6.042968 6.257812 15.117187 6.878906 23.257812 6.878906h.550782l276.144531-.886719c3.828125-.011719 10.234375-.035156 14.429687-4.464843 3.578125-3.78125 3.875-9.046876 4.070313-12.53125 1.003906-17.863282 1.921875-35.984376 2.71875-53.863282.796875-17.726562 1.78125-39.78125-4.996094-59.554687zm-240.496094-265.414063c-.445312-.28125-.542969-.496094-.582031-.84375-.203125-1.683594 1.4375-5 3.582031-7.234375 3.132813-3.269531 7.464844-5.363281 13-7.507812 34.203125-13.242188 74.039063-16.523438 118.402344-9.753907 7.894531 1.203126 16.816406 2.941407 22.765625 8.351563 4.371094 3.96875 7.25 9.953125 8.726562 18.1875-2.878906-1.136719-6.664062-2.464844-11.632812-4.097656-.871094-.289063-1.523438-.5-1.851562-.621094-6.96875-2.488281-14.1875-4.628906-21.457032-6.367187-16.003906-3.820313-32.695312-5.746094-49.359375-5.746094-10.039062 0-20.066406.699218-29.925781 2.105468-13.425781 1.914063-26.613281 5.125-39.195312 9.535157-1.15625.402343-2.414063.984375-3.75 1.597656-2.355469 1.082031-7.257813 3.332031-8.722657 2.394531zm142.679688-54.910156c8.398437 6.515625 15.835937 17.457031 16.132812 29.046875-7.046875-4.628906-15.5625-6.285156-23.195312-7.449219-11.664063-1.777344-23.03125-2.875-34.082031-3.304687 4.824218-7.011719 6.933593-16.34375 5.84375-26.4375-.253907-2.355469-.664063-4.660157-1.183594-6.925781 13.027344 2.976562 26.15625 7.0625 36.484375 15.070312zm-82.398438-19.253906c2.75-11.984375 11.183594-23.175782 23.40625-31.226563l7.007813 16.1875c3.765625 8.699219 7.660156 17.695313 8.667968 27.011719 1.050782 9.734375-1.605468 18.765625-7.105468 24.152344-.367188.363281-.644532.777344-.84375 1.222656-5.214844-.007812-10.355469.144531-15.421875.445312-.300781-.339843-.652344-.644531-1.074219-.875-11.703125-6.398437-17.996094-22.269531-14.636719-36.917968zm-40.644531 26.765625c8.117188-9.007813 19.648438-15.203125 31.640625-16.992188.019531 0 .035156-.007812.050781-.011719.394532 11.238282 4.988282 21.863282 12.636719 29.0625-18.023437 2.019532-35.019531 6.09375-50.878906 12.234376-2.132813.824218-4.296875 1.722656-6.398438 2.761718 1.667969-9.972656 6.21875-19.582031 12.949219-27.054687zm-41.707031 224.378906c1.382812-7.851563 3.941406-15.339844 6.648437-23.273437 2.855469-8.371094 5.8125-17.027344 7.214844-26.066407 2.304688-14.828125.328125-29.738281-1.589844-44.160156-.816406-6.148437-1.65625-12.503906-2.140625-18.699219-.964843-12.386718-1.410156-42.464844 14.785157-56.65625 3.269531-.457031 6.539062-1.953125 9.238281-3.195312 1.160156-.53125 2.253906-1.035156 3.054687-1.316406 12.085938-4.234376 24.757813-7.316407 37.664063-9.160157 25.230469-3.597656 51.601562-2.386719 76.273437 3.503907 6.988282 1.664062 13.921875 3.722656 20.617188 6.117187.367187.128906 1.085937.367187 2.042968.683594 10.363282 3.40625 14.253907 5.09375 15.601563 5.925781.105469.125.210937.246094.316406.367188.074219.097656.15625.191406.238281.28125 9.167969 11.292968 13.414063 29.480468 12.957032 55.5-.164063 9.179687-1.121094 18.5625-2.046875 27.636718-1.109375 10.882813-2.257813 22.136719-2.089844 33.367188.132813 9.082031 1.121094 18.214844 2.078125 27.046875 1.613281 14.886719 3.136719 28.949219.984375 43.023437-3.96875 25.945313-20.601563 48.929688-36.300781 68.234375l1.058594-28.722656c.652343-17.574219 1.324218-35.75 3.621093-53.410156 1.390625-10.664063 3.417969-21.476563 5.378907-31.929688 2.164062-11.527343 4.402343-23.445312 5.820312-35.347656 3.304688-27.65625 1.234375-50.277344-6.328125-69.15625-.628906-1.574219-2.1875-2.578125-3.867187-2.53125-27.917969.855469-55.324219-17.492187-65.164063-43.632813-.574219-1.523437-2.003906-2.550781-3.628906-2.609374-1.644531-.078126-3.125.867187-3.804688 2.34375-8.347656 18.128906-24.625 32.765624-43.535156 39.148437-.578125.195313-1.160156.386719-1.75.578125-4.789063 1.566406-10.21875 3.339844-13.902344 7.847656-5.535156 6.765625-4.203125 15.445313-3.027343 23.101563.234374 1.546875.460937 3.003906.628906 4.429687 1.332031 11.320313-1.542969 22.460938-4.84375 34.164063-.660156.835937-.976563 1.910156-.84375 2.992187-1.429688 5.050782-2.886719 10.253906-3.992188 15.464844-6.71875 31.726562-.378906 63.953125 5.75 95.121094 3.019532 15.335937 6.121094 31.113281 7.640625 46.734375-13.53125-11.3125-24.003906-24.03125-31.191406-37.902344-9.335937-18.003906-12.734375-37.839844-9.566406-55.84375zm141.933593 39.695313c-2.59375 4.597656-7.207031 9.449218-12.429687 9.316406-2.601563-.074219-5.496094-1.402344-8.605469-3.953125-5.988281-4.90625-10.210937-11.855469-11.878906-19.40625 13.378906-1.667969 26.113281-7.84375 35.703125-17.332031 3.496094 10.148437 2.472656 22.035156-2.789063 31.375zm-96.878906-141.371094c-.183594-1.5625-.429687-3.160156-.667968-4.707032-1.007813-6.574218-1.960938-12.785156 1.300781-16.777343 2.191406-2.679688 6.0625-3.945313 10.164062-5.285157.613281-.199218 1.222657-.398437 1.828125-.601562 18.296875-6.175781 34.371094-19.320312 44.320313-35.925781 12.675781 24.222656 39.183593 40.816406 66.589843 41.121093 5.578126 15.28125 7.421876 33.316407 5.617188 54.835938-.007812.015625-.019531.03125-.027344.046875-11.640625 26.792969-43.816406 49.042969-70.222656 48.542969-27.359375-.496094-53.457031-18.253906-64.144531-43.402344 3.449219-12.210938 6.777343-24.816406 5.242187-37.847656zm56.914063 119.734375c-.089844 0-.179688 0-.269531 0-14.917969 0-29.585938-6.601563-39.519532-17.722657 3.332032-7.148437 5.003906-15.03125 4.890625-22.910156 11.199219 6.289063 23.84375 9.976563 36.742188 10.210938.332031.007812.660156.011718.996093.011718 10.378907 0 21.324219-2.925781 31.722657-7.988281.492187 6.8125 2.515625 13.460938 5.769531 19.441407-.011719.011718-.027344.019531-.039062.035156-9.871094 11.765625-24.933594 18.839844-40.292969 18.921875zm-66.710938-64.496094c.40625-1.917969.878907-3.851563 1.375-5.789063 5.527344 9.457032 13.09375 17.6875 21.9375 24.175782 1.324219 9.199218-.320312 18.75-4.675781 26.960937-4.070312 7.6875-10.449219 14.070313-18.097656 18.195313-3.457032-21.554688-4.992188-42.523438-.539063-63.542969zm23.988281 55.339844c10.425782 10.035156 24.414063 16.21875 38.867188 17.101562-3.457031 5.773438-7.277344 11.320313-12.457031 15.292969-5.425781 4.167969-14.269531 6.894531-20.867188 3.035156-5.46875-3.203125-7.867187-10.050781-8.289062-15.394531-.523438-6.605469 1.113281-13.425781 2.746093-20.035156zm35.800782 34.78125c.003906-.003907.003906-.011719.007812-.015625 3.046875-3.128906 5.628906-6.628906 7.921875-10.195313 2.210938 5.753907 5.667969 11.023438 10.074219 15.34375-.226562.414063-.394531.867188-.460938 1.363281-.523437 3.722657-3.550781 7.074219-7.199218 7.96875-3.648438.898438-7.886719-.671874-10.070313-3.730468-2.1875-3.058594-2.300781-7.574219-.273437-10.734375zm8.253906 22.773437c1.289062 0 2.578125-.148437 3.839844-.445312 9.417968 12.710937 13.988281 29.03125 12.546875 44.78125-1.332031 14.535156-7.789063 28.613281-17.871094 39.175781-10.714844-10.472656-17.363281-25.234375-17.960937-40.191406-.636719-15.894531 5.566406-32.097657 16.601562-43.558594.9375.152344 1.890625.238281 2.84375.238281zm41.195312-91.15625c10.394532-6.34375 19.878907-14.773437 27.226563-24.441406-1.210937 7.648438-2.640625 15.285156-4.039063 22.75-1.984374 10.566406-4.03125 21.488281-5.449218 32.378906-.136719 1.054688-.25 2.113282-.378906 3.167969-10.800782-7.453125-17.730469-20.75-17.359376-33.855469zm115.015626 172.324219c-.800782 17.847656-1.714844 35.9375-2.71875 53.769531-.171876 3.058594-.445313 5.929688-1.875 7.441406-1.683594 1.777344-5.171876 1.933594-8.601563 1.949219l-32.769531.101563c-3.109375-37.070313-3.421875-74.6875-.921875-111.804688.148437-2.222656-1.53125-4.144531-3.753907-4.292968-2.214843-.132813-4.140624 1.53125-4.292968 3.753906-2.507813 37.304687-2.210938 75.105468.882812 112.371094l-196.828125.632812-3.917969-109.722656c-.082031-2.226563-1.960937-4.003906-4.175781-3.886719-2.222656.078125-3.964843 1.949219-3.882812 4.171875l3.910156 109.464844-30.390625.097656c-6.933594.011719-14.007812-.300781-17.984375-4.417969-3.503906-3.628906-4.070313-9.660156-4.378906-16.046875-1.308594-27.234375-2.660157-55.402344 4.621093-81.953125 7.601563-27.726562 24.65625-49.335937 45.933594-58.460937 1.210938 2.957031 2.546875 5.886718 4.039063 8.765625 8.976562 17.308593 22.65625 32.878906 40.664062 46.277343.710938.53125 1.558594.796876 2.410157.796876.652343 0 1.304687-.15625 1.90625-.476563 1.375-.738281 2.203124-2.210937 2.117187-3.769531-1.035156-19.125-4.816406-38.34375-8.472656-56.929688-1.328125-6.75-2.636719-13.417968-3.820313-20.027344 4.308594-2.039062 8.3125-4.671874 11.898438-7.789062-.632813 3.882812-.96875 7.898438-.648438 11.933594.753906 9.546875 5.335938 17.664062 12.257813 21.71875 7.96875 4.664062 17.484375 3.324218 24.9375-.5.316406 2.972656 1.351562 5.863281 3.105469 8.316406 1.050781 1.472656 2.339843 2.75 3.785156 3.808594-11.210938 12.835937-17.429688 30.167968-16.746094 47.183594.734375 18.390624 9.519531 36.519531 23.503906 48.492187.753906.648437 1.6875.96875 2.621094.96875.988281 0 1.976562-.363281 2.746094-1.082031 13.019531-12.121094 21.421875-29.234375 23.042968-46.949219 1.582032-17.253906-3.277343-35.101563-13.320312-49.222656 2.527344-2.148438 4.472656-4.988281 5.503906-8.148438 3.152344 1.835938 6.292969 2.828125 9.382813 2.914063.152343.003906.296875.007812.449219.007812 7.308593-.003906 14.472656-4.988281 19.226562-13.425781 5.128906-9.09375 6.957031-19.8125 5.359375-30.054687 2.058594 1.667968 4.261719 3.160156 6.59375 4.453124-1.3125 14.101563-1.847656 28.28125-2.359375 42.09375l-1.5 40.621094c-.0625 1.722656.976562 3.296875 2.589844 3.914063 1.613281.613281 3.4375.136719 4.539062-1.191407 14.109375-16.972656 30.902344-37.175781 39.988282-60.582031 23.453124 6.683594 42.863281 25.054688 50.773437 48.140625 6.28125 18.324219 5.371094 38.644532 4.570313 56.574219zm0 0"/></svg>