<svg height="512pt" viewBox="-89 0 512 512.00179" width="512pt" xmlns="http://www.w3.org/2000/svg"><path d="m239.5 81.511719c-19.835938-16.4375-45.925781-25.863281-71.589844-25.863281-.03125 0-.0625 0-.09375 0-.335937 0-.667968 0-.996094.011718-9.921874.105469-19.839843 1.570313-29.535156 4.355469-8.304687 2.386719-16.375 5.738281-23.992187 9.972656-1.878907 1.046875-3.980469 2.570313-5.667969 3.792969l-.117188.082031c-4.53125 3.269531-9.21875 6.648438-14.246093 6.648438l-.253907-.003907c-3.511718-.070312-8.308593-1.484374-11.140624-7.839843-4.035157-9.023438-1.75-21.933594 2.988281-27.445313 3.199219-3.71875 7.933593-5.9375 12.667969-5.9375 1.996093 0 3.878906.394532 5.589843 1.171875.242188-11.132812 6.9375-22.15625 16.710938-27.457031 4.496093-2.441406 9.730469-3.738281 15.128906-3.738281 6.136719 0 11.992187 1.632812 16.933594 4.714843 4.519531-6.121093 12.078125-9.921874 19.773437-9.921874 1.214844 0 2.429688.097656 3.609375.285156 8.726563 1.375 16.453125 7.949218 19.21875 16.359375 3.429688-3.957031 8.757813-6.332031 14.300781-6.332031 2.773438 0 5.484376.613281 7.84375 1.773437 7.320313 3.601563 11.566407 12.324219 9.878907 20.296875.539062-1.722656 1.804687-3.113281 3.636719-3.9375 1.09375-.5 2.371093-.765625 3.675781-.765625 1.394531 0 2.742187.304687 3.886719.882813 3.3125 1.664062 5.886718 5.121093 7.867187 10.566406 4.253906 11.695312 4.34375 24.675781.253906 36.546875l-1.882812 5.464843zm0 0" fill="#fff"/><path d="m72.824219 504.464844-1.066407-2.253906c-6.316406-13.339844-11.429687-27.285157-15.210937-41.449219-2.6875-10.042969-5.523437-23.214844-3.578125-36.003907 2.019531-13.230468 9.164062-24.234374 19.109375-29.433593 4.976563-2.59375 10.945313-3.90625 17.746094-3.90625 7.015625 0 13.707031 1.378906 18.128906 2.417969 12.296875 2.886718 21.679687 6.5625 29.519531 11.574218 9.65625 6.191406 16.832032 14.675782 20.214844 23.894532 15.199219-23.867188 43.25-39.519532 71.523438-39.863282l.871093-.003906c9.269531 0 22.359375 1.738281 32.058594 10.019531 7.890625 6.734375 13.167969 17.511719 15.691406 32.027344 4.324219 24.761719.234375 50.632813-11.515625 72.863281l-.972656 2.894532zm0 0" fill="#fff"/><path d="m281.191406 340.203125c-7.707031-7.351563-16.136718-13.914063-25.054687-19.515625l-4.359375-2.734375 3.726562-3.550781c11.773438-11.210938 18.25-26.96875 17.324219-42.148438-.527344-8.703125-3.199219-17.191406-5.785156-25.402344-2.550781-8.082031-4.953125-15.699218-5.695313-23.871093-1.023437-11.363281 1.304688-22.261719 3.765625-33.796875l.023438-.109375c1.34375-6.28125 2.734375-12.777344 3.46875-19.226563 2.960937-25.734375-4.527344-54.714844-20.03125-77.527344l5.144531-5.804687c10.296875 5.324219 18.886719 13.269531 24.832031 22.976563 7.859375 12.824218 10.886719 28.679687 8.300781 43.503906-.667968 3.804687-1.683593 7.589844-2.667968 11.25-1.964844 7.3125-3.996094 14.871094-3.222656 22.480468.71875 7.078126 3.839843 13.824219 6.859374 20.347657l-3.578124 1.792969 3.628906-1.679688c3.828125 8.261719 7.785156 16.808594 6.605468 25.824219-.585937 4.574219-2.421874 8.792969-4.363281 13.257812l-.0625.148438c-2.636719 6.023437-5.121093 11.703125-4.394531 17.953125.65625 5.683594 3.820312 10.359375 7.167969 15.308594 1.425781 2.101562 2.699219 4.003906 3.828125 6.003906 9.894531 17.40625 5.339844 41.957031-10.160156 54.714844l-2.738282 2.253906zm0 0" fill="#d8deec"/><path d="m35.96875 348.3125c-17.703125-13.730469-25.820312-38.304688-19.734375-59.765625 1.605469-5.644531 4.105469-11.089844 6.523437-16.355469 3.855469-8.425781 7.839844-17.125 8.105469-26.457031.175781-5.957031-1.179687-11.945313-2.492187-17.738281-1.757813-7.78125-3.574219-15.824219-1.597656-23.601563 1.648437-6.527343 5.796874-12.054687 9.808593-17.398437 3.074219-4.089844 6.25-8.324219 8.351563-13.074219 3.582031-8.09375 3.796875-17.136719 4.007812-25.878906l.003906-.148438c.113282-4.308593.226563-8.757812.734376-13.054687 2.121093-17.699219 11.597656-34.335938 26-45.644532l5.726562 5.472657c-5.832031 8.152343-10.179688 18.46875-12.921875 30.667969-2.238281 9.972656-3.300781 20.222656-4.324219 30.136718l-.019531.1875c-.699219 6.667969-1.421875 13.5625-2.488281 20.289063-1.84375 11.636719-4.761719 23.125-7.585938 34.238281l-.0625.25c-2.421875 9.550781-4.925781 19.429688-6.714844 29.277344-4.195312 22.933594-1.210937 42.078125 2.636719 59.355468 2.503907 11.285157 7.332031 20.332032 14.339844 26.902344l4.246094 3.976563-5.234375 2.539062c-7.917969 3.84375-15.351563 9.074219-22.082032 15.546875l-2.492187 2.394532zm0 0" fill="#d8deec"/><path d="m163.78125 385.800781c-2.007812 0-4.007812-.230469-5.945312-.6875-5.445313-1.285156-9.828126-4.246093-12.023438-8.121093-4.070312-7.191407-1.058594-15.804688 3.121094-21.46875 3.691406-5 10.292968-10.34375 17.75-10.34375 1.082031 0 2.152344.113281 3.183594.347656 7.644531 1.679687 13.550781 7.644531 15.390624 15.554687 1.777344 7.65625-.695312 15.046875-6.605468 19.773438-4.007813 3.191406-9.285156 4.945312-14.871094 4.945312zm0 0" fill="#d34242"/><g fill="#ffbf48"><path d="m79.929688 334.882812c-15.214844-4.703124-25.847657-17.425781-29.945313-35.824218-4.441406-19.957032-6.589844-37.683594-2.640625-59.335938 1.828125-9.996094 4.351562-19.917968 6.789062-29.519531 2.832032-11.167969 5.757813-22.699219 7.585938-34.242187 1.066406-6.734376 1.789062-13.644532 2.488281-20.320313l.027344-.304687c1.03125-9.890626 2.09375-20.121094 4.3125-29.984376 4.394531-19.597656 12.847656-34.117187 25.121094-43.160156l.835937-1.582031 1.71875-.429687c4-1 7.785156-3.71875 11.445313-6.347657 1.769531-1.285156 3.792969-2.746093 5.671875-3.789062 7.558594-4.214844 15.625-7.570313 23.964844-9.96875 9.703124-2.785157 19.609374-4.25 29.453124-4.355469.402344-.003906.808594-.007812 1.210938-.007812 26.988281 0 54.070312 10.304687 74.308594 28.269531l.546875.480469.328125.628906c18.96875 23.496094 28.695312 55.964844 25.394531 84.757812-.75 6.527344-2.203125 13.308594-3.484375 19.289063-2.367188 11.097656-4.800781 22.492187-3.777344 33.84375.746094 8.195312 3.257813 16.160156 5.691406 23.867187 2.703126 8.585938 5.253907 16.691406 5.785157 25.410156 1.230469 20.253907-10.300781 40.539063-28.6875 50.472657l-10.972657 5.925781 5.476563-11.203125c5.785156-11.839844 11.148437-25.835937 7.035156-39.886719-1.542969-5.289062-4.367187-10.132812-7.097656-14.820312-3.535156-6.066406-6.875-11.796875-7.878906-18.503906-1.492188-9.941407 2.488281-19.082032 6.703125-28.757813 3.472656-7.988281 7.054687-16.210937 7.171875-24.800781.171875-12.894532-7.644531-26.273438-22.015625-37.667969-4.632813-3.679687-9.628906-7.03125-14.464844-10.273437l-.328125-.21875c-7.714844-5.152344-15.007813-10.019532-21.515625-16.359376-15.140625-14.746093-16.867188-31.058593-13.746094-40.542968-6.988281 18.167968-23.164062 30.574218-38.804687 42.570312l-2.09375 1.601563c-16.765625 12.894531-32.832031 27.511719-36.769531 47.007812-1.820313 8.992188-.851563 18.328125.085937 27.355469l.011719.109375c.914062 8.882813 1.777344 17.273437.355468 25.757813-1.332031 7.976562-4.539062 15.1875-7.929687 22.816406l-.113281.257812c-1.785156 4.023438-3.632813 8.183594-5.109375 12.371094-7.265625 20.542969-6.285157 43.851562 2.691406 63.960938l3.59375 8.054687zm0 0"/><path d="m238.832031 309.3125c-10.089843-1.425781-19.515625-6.757812-25.855469-14.621094-6.402343-7.945312-9.667968-18.796875-8.738281-29.023437l.199219-2.214844 1.988281-.996094c7.1875-3.609375 13.746094-8.058593 19.492188-13.222656l4.339843-3.902344 2.070313 5.457031c1.605469 4.230469 4.007813 8.34375 6.125 11.976563l.105469.183594c2.820312 4.859375 5.480468 9.453125 6.992187 14.632812 2.480469 8.476563 1.691407 18.011719-2.40625 29.152344l-1.117187 3.027344zm0 0"/><path d="m80.582031 317.664062c-4.828125-17.167968-4.277343-35.695312 1.546875-52.167968 1.503906-4.257813 3.378906-8.472656 5.1875-12.550782l.078125-.171874c1.574219-3.546876 3.203125-7.214844 4.578125-10.898438l2.375-6.386719 4.417969 5.1875c5.722656 6.722657 12.476563 12.574219 20.070313 17.398438l2.742187 1.742187-1.144531 3.039063c-.546875 23.074219-13.890625 45.53125-33.996094 57.183593l-4.460938 2.585938zm0 0"/></g><path d="m312.847656 507.929688-47.851562-.691407 2.796875-5.675781c10.632812-21.578125 14.222656-46.476562 10.105469-70.097656-2.535157-14.527344-7.820313-25.3125-15.714844-32.054688-9.710938-8.292968-22.917969-10.035156-32.289063-10.035156l-.6875.003906c-25.828125.3125-51.742187 13.457032-67.613281 34.304688l-3.667969 4.816406-2.992187-5.261719c-3.933594-6.914062-9.960938-13.097656-17.429688-17.878906-7.835937-5.019531-17.21875-8.699219-29.535156-11.585937-4.433594-1.039063-11.140625-2.421876-18.160156-2.421876-6.800782 0-12.777344 1.316407-17.761719 3.914063-9.964844 5.203125-17.125 16.226563-19.140625 29.484375-1.949219 12.785156.886719 25.96875 3.578125 36.023438 3.441406 12.894531 8.015625 25.660156 13.589844 37.941406l2.605469 5.742187-52.128907-.75c-4.007812-.058593-7.550781-.277343-10.308593-2.332031-3.941407-2.941406-4.625-8.417969-4.953126-13.316406-1.964843-29.132813-2.585937-60.109375 6.105469-89.261719 9.527344-31.960937 29.542969-56.613281 54.910157-67.636719l2.164062-1.648437 2.308594 1.402343c5.214844 3.152344 11.15625 5.082032 17.65625 5.742188h.027344c-1.960938-3.5-3.695313-7.128906-5.148438-10.839844l-1.28125-3.28125 3.089844-1.6875c7.132812-3.898437 13.511718-9.125 18.960937-15.539062l2.90625-3.421875 3.066407 3.28125c11.84375 12.679687 25.183593 23.898437 39.652343 33.339843 1.511719.988282 3.527344 2.265626 5.703125 3.351563l6.140625 3.074219-5.699219 3.824218c-2.628906 1.765626-4.972656 4.027344-6.960937 6.726563-5.351563 7.242187-6.550781 15.492187-3.136719 21.535156 2.242188 3.957031 6.527344 6.851563 12.0625 8.152344 1.96875.460937 4 .695313 6.042969.695313 5.554687 0 10.816406-1.761719 14.816406-4.957032 5.863281-4.667968 8.40625-12.273437 6.640625-19.84375-1.332031-5.734375-4.761718-10.472656-9.65625-13.335937l-5.886718-3.449219 5.882812-3.453125c3.847656-2.257813 7.429688-5.351563 10.730469-8.359375 5.816406-5.296875 11.101562-9.613281 15.765625-13.421875 4.933594-4.03125 10.035156-8.199219 15.777344-13.429687l1.914062-3.917969 3.71875 2.269531c4.121094 2.476562 8.625 4.191406 13.386719 5.097656l5.042969.960938-2.164063 4.65625c-1.648437 3.554687-3.585937 7.34375-6.273437 12.285156 5.578124-1.472656 10.886718-4.015625 15.828124-7.507812l2.132813-1.511719 2.242187 1.355469c29.746094 17.9375 53.082032 45.617187 65.710938 77.9375 12.703125 32.472656 14.289062 68.785156 4.46875 102.242187-.796875 2.695313-1.847656 5.691406-4.261719 7.214844-1.746093 1.085937-3.855469 1.234375-5.882812 1.234375-.320313.003906-.640625 0-.945313-.003906zm0 0" fill="#ffdac4"/><path d="m166.230469 272.015625c-2.378907 0-4.785157-.101563-7.140625-.300781-24.917969-2.085938-48.730469-15.316406-63.703125-35.394532l-1.101563-1.472656.402344-1.792968c.253906-1.121094.449219-2.109376.597656-3.015626 1.433594-8.542968.519532-17.359374-.363281-25.886718-.980469-9.429688-1.90625-18.332032-.089844-27.335938 3.941407-19.472656 19.996094-34.085937 36.761719-46.980468l2.070312-1.589844c11.191407-8.578125 22.765626-17.449219 30.914063-28.457032l5.371094-7.257812 1.765625 8.855469c1.746094 8.753906 6.738281 17.335937 14.433594 24.824219 6.441406 6.273437 14.046874 11.371093 21.40625 16.300781l.113281.074219c4.992187 3.332031 10.085937 6.734374 14.78125 10.472656 8.3125 6.585937 22.234375 20.238281 22 37.625-.121094 8.582031-3.542969 16.441406-7.171875 24.761718-3.835938 8.816407-7.804688 17.929688-6.867188 27.378907l.210938 2.105469-1.621094 1.355468c-.082031.066406-.160156.128906-.242188.191406-16.457031 16.234376-39.234374 25.539063-62.527343 25.539063zm0 0" fill="#ffdac4"/><path d="m164.496094 344.199219c-.546875 0-1.101563-.027344-1.644532-.078125-4.824218-.480469-9.121093-3.058594-13.105468-5.660156-14.875-9.707032-28.542969-21.265626-40.625-34.359376l-2.144532-2.324218 1.765626-2.621094c6.820312-10.136719 10.835937-21.753906 11.617187-33.589844l.402344-6.070312 5.414062 2.773437c10.464844 5.359375 21.53125 8.554688 32.898438 9.503907 2.414062.203124 4.8125.304687 7.136719.304687 10.96875 0 21.851562-2.0625 32.355468-6.136719l5.398438-2.097656.046875 5.792969c.074219 9.136719 3.242187 18.042969 8.914062 25.082031 1.390625 1.726562 3.003907 3.402344 4.808594 4.984375l3.359375 2.953125-3.304688 3.007812c-5.691406 5.183594-10.765624 9.328126-15.671874 13.339844l-.269532.21875c-4.859375 3.972656-9.882812 8.082032-15.511718 13.203125-6.535157 5.957031-13.601563 11.773438-21.839844 11.773438zm0 0" fill="#ffdac4"/><path d="m323.253906 395.761719c-7.667968-19.609375-19.164062-37.539063-33.585937-52.722657 16.511719-14.128906 21.273437-40.441406 10.519531-59.375-1.238281-2.175781-2.644531-4.253906-4-6.265624-3.0625-4.527344-5.953125-8.800782-6.5-13.5-.601562-5.160157 1.667969-10.351563 4.074219-15.851563 2-4.574219 4.070312-9.304687 4.746093-14.515625 1.328126-10.203125-2.894531-19.304688-6.972656-28.105469-3.027344-6.527343-5.882812-12.691406-6.539062-19.113281-.695313-6.859375 1.152344-13.730469 3.109375-21.007812 1.011719-3.765626 2.058593-7.65625 2.746093-11.613282 2.753907-15.777344-.464843-32.664062-8.832031-46.324218-7.417969-12.101563-18.933593-21.746094-32.113281-27.066407 4.101562-12.441406 3.984375-26.125-.503906-38.503906-2.34375-6.457031-5.570313-10.648437-9.871094-12.808594-2.742188-1.378906-6.089844-1.675781-9.121094-.875-1.460937-6.613281-5.832031-12.597656-11.976562-15.617187-7.125-3.503906-15.945313-2.683594-22.5 1.632812-4.253906-7.195312-11.753906-12.496094-20.035156-13.804687-9.015626-1.425781-18.617188 1.9375-24.933594 8.5-10.3125-5.050781-22.941406-4.902344-33.085938.605469-9.695312 5.261718-16.527344 15.089843-18.320312 25.90625-6.367188-.6875-13.246094 1.960937-17.785156 7.242187-6.242188 7.261719-7.933594 22.101563-3.613282 31.753906 1.011719 2.269531 2.320313 4.179688 3.871094 5.722657-19.621094 11.089843-33.707031 31.90625-36.382812 54.300781-.542969 4.535156-.65625 9.140625-.765626 13.589843-.214843 8.742188-.417968 17-3.664062 24.335938-1.898438 4.289062-4.808594 8.167969-7.890625 12.277344-4.246094 5.664062-8.644531 11.523437-10.496094 18.835937-2.210937 8.714844-.285156 17.246094 1.574219 25.496094 1.3125 5.816406 2.550781 11.308594 2.394531 16.734375-.246093 8.507812-3.886719 16.460938-7.746093 24.878906-2.480469 5.417969-5.050782 11.027344-6.726563 16.933594-6.410156 22.566406 2.183594 48.902344 20.472656 63.558594-11.148437 12.558594-19.878906 28.460937-25.296875 46.640625-8.875 29.761719-8.253906 61.179687-6.265625 90.695312.28125 4.199219.808594 12.007813 6.570313 16.304688 4.042968 3.011719 9.035156 3.082031 12.683594 3.132812l292.257812 4.222657c.359375.003906.742188.007812 1.136719.007812 2.375 0 5.296875-.199219 7.929687-1.847656 3.953125-2.480469 5.296875-7.058594 6.019532-9.515625 10.070312-34.320313 8.441406-71.566407-4.582032-104.875zm-48.109375-284.179688c7.355469 12.007813 10.1875 26.851563 7.765625 40.726563-.625 3.59375-1.582031 7.144531-2.589844 10.902344-2.0625 7.660156-4.191406 15.585937-3.34375 23.917968.789063 7.769532 4.070313 14.847656 7.242188 21.6875 3.765625 8.121094 7.320312 15.789063 6.296875 23.679688-.53125 4.070312-2.28125 8.078125-4.136719 12.320312-2.730468 6.238282-5.550781 12.691406-4.699218 20.015625.777343 6.652344 4.359374 11.957031 7.828124 17.085938 1.328126 1.964843 2.585938 3.824219 3.667969 5.730469 9.03125 15.894531 4.875 38.054687-9.21875 49.664062-7.855469-7.492188-16.460937-14.214844-25.695312-20.007812 12.1875-11.613282 19.585937-28.398438 18.5625-45.292969-.5625-9.195313-3.3125-17.933594-5.976563-26.382813-2.476562-7.859375-4.816406-15.289062-5.511718-23.007812-.972657-10.769532 1.296874-21.390625 3.703124-32.632813 1.367188-6.402343 2.78125-13.023437 3.546876-19.683593 3.082031-26.859376-4.773438-56.789063-20.699219-80.238282 9.492187 4.914063 17.6875 12.425782 23.257812 21.515625zm-108.457031 237.601563c.769531 0 1.539062.082031 2.304688.25 6.140624 1.347656 10.882812 6.15625 12.367187 12.554687 1.425781 6.121094-.523437 12.007813-5.210937 15.746094-4.523438 3.605469-11.191407 4.941406-17.398438 3.480469-4.359375-1.023438-7.808594-3.28125-9.460938-6.199219-3.125-5.523437-.570312-12.464844 2.867188-17.121094 3.378906-4.574219 8.957031-8.710937 14.53125-8.710937zm-3.441406-9.042969c-3.929688-.390625-7.746094-2.695313-11.316406-5.027344-14.621094-9.546875-28.03125-20.894531-39.875-33.726562 7.074218-10.507813 11.457031-22.820313 12.296874-35.558594 10.679688 5.472656 22.390626 8.929687 34.394532 9.933594 2.484375.210937 4.972656.3125 7.464844.3125 11.546874 0 23.046874-2.238281 33.796874-6.40625.082032 9.957031 3.519532 19.765625 9.804688 27.566406 1.601562 1.984375 3.375 3.808594 5.28125 5.472656-5.605469 5.105469-10.640625 9.21875-15.511719 13.199219-4.980469 4.070312-10.132812 8.277344-15.9375 13.566406-6.347656 5.792969-13.152343 11.382813-20.398437 10.667969zm-77.34375-73.3125c1.460937-4.125 3.3125-8.289063 5.101562-12.3125 1.628906-3.671875 3.285156-7.40625 4.722656-11.246094 6.027344 7.074219 13.128907 13.199219 20.960938 18.179688-.148438.402343-.25.828125-.257812 1.285156-.503907 21.625-13.28125 42.996094-32 53.847656-4.554688-16.21875-4.15625-33.832031 1.472656-49.753906zm12.996094-63.089844c-.945313-9.128906-1.839844-17.753906-.144532-26.128906 3.675782-18.183594 19.128906-32.179687 35.277344-44.59375l2.074219-1.59375c11.472656-8.804687 23.226562-17.820313 31.691406-29.253906 1.695313 8.523437 6.371094 17.960937 15.5625 26.914062 6.738281 6.558594 14.539063 11.777344 22.085937 16.824219 4.878907 3.265625 9.921876 6.636719 14.519532 10.285156 7.742187 6.144532 20.699218 18.785156 20.484375 34.4375-.109375 7.777344-3.375 15.28125-6.835938 23.222656-4.046875 9.300782-8.21875 18.902344-7.183593 29.371094-.121094.09375-.246094.175782-.359376.289063-17.371093 17.207031-42.289062 26.257812-66.652343 24.21875-23.878907-2-46.503907-14.605469-60.828125-33.800781.246094-1.066407.464844-2.144532.644531-3.234376 1.515625-9.066406.574219-18.160156-.335937-26.957031zm117.191406 88.4375c-5.808594-7.210937-8.710938-16.914062-7.871094-26.144531 7.355469-3.6875 14.238281-8.3125 20.371094-13.824219 1.6875 4.449219 4.070312 8.558594 6.410156 12.578125 2.734375 4.699219 5.320312 9.140625 6.714844 13.914063 2.515625 8.605469 1 17.628906-2.320313 26.652343-8.992187-1.269531-17.613281-6.117187-23.304687-13.175781zm33.363281-15.734375c-1.667969-5.71875-4.625-10.800781-7.484375-15.710937-3.335938-5.730469-6.484375-11.144531-7.375-17.078125-1.324219-8.808594 2.433594-17.441406 6.414062-26.582032 3.621094-8.324218 7.371094-16.933593 7.5-26.332031.199219-14.15625-8.160156-28.667969-23.53125-40.863281-4.855468-3.851562-10.035156-7.316406-15.050781-10.671875-7.578125-5.066406-14.734375-9.855469-20.941406-15.898437-13.824219-13.464844-15.503906-28.042969-12.738281-36.441407.683594-2.078125-.417969-4.328125-2.480469-5.058593-2.066406-.734376-4.339844.316406-5.117187 2.363281-6.527344 17.128906-22.25 29.191406-37.453126 40.855469l-2.082031 1.597656c-17.390625 13.371094-34.058593 28.605468-38.265625 49.386718-1.9375 9.582032-.9375 19.230469.03125 28.5625.894532 8.640626 1.738282 16.804688.40625 24.792969-1.253906 7.484375-4.359375 14.472657-7.652344 21.871094-1.851562 4.171875-3.769531 8.480469-5.332031 12.90625-7.636719 21.601563-6.511719 46.035156 2.804688 66.921875-13.6875-4.234375-23.425781-15.84375-27.214844-32.871094-4.335937-19.488281-6.441406-36.769531-2.609375-57.75 1.785156-9.796875 4.296875-19.691406 6.722656-29.253906 2.855469-11.242188 5.804688-22.867188 7.664063-34.601562 1.09375-6.894532 1.824219-13.910157 2.527343-20.691407 1.019532-9.828125 2.078126-19.984375 4.25-29.664062 4.183594-18.636719 12.121094-32.371094 23.59375-40.824219.5-.367188.878907-.835938 1.152344-1.351562 4.726563-1.179688 8.972656-4.210938 12.808594-6.980469 1.882812-1.355469 3.660156-2.636719 5.277344-3.535157 7.308594-4.070312 15.09375-7.304687 23.136718-9.621093 9.332032-2.683594 18.882813-4.09375 28.390626-4.195313 26.53125-.304687 52.972656 9.628906 72.8125 27.246094.109374.191406.222656.382812.363281.558594 18.363281 22.699218 27.785156 54.0625 24.59375 81.855468-.71875 6.277344-2.09375 12.703126-3.421875 18.914063-2.425782 11.339844-4.929688 23.058594-3.847656 35.046875.777343 8.585938 3.359374 16.78125 5.855468 24.707031 2.628906 8.351563 5.113282 16.238281 5.613282 24.445313 1.152343 18.960937-10.03125 37.761718-26.601563 46.714844 6.777344-13.867188 11.503906-28.316407 7.28125-42.769532zm-161.5625-228.609375c3.484375-4.058593 9.320313-5.664062 13.574219-3.734375 1.234375.5625 2.671875.460938 3.816406-.261718 1.148438-.726563 1.855469-1.980469 1.878906-3.335938.175782-9.714844 6.027344-19.351562 14.566406-23.984375 8.535157-4.632813 19.808594-4.289063 28.046876.855469 1.789062 1.121094 4.144531.667968 5.390624-1.039063 4.355469-5.964843 12.183594-9.199219 19.476563-8.042969 7.292969 1.152344 13.742187 6.640626 16.046875 13.660157.453125 1.382812 1.621094 2.414062 3.050781 2.699219 1.429688.28125 2.902344-.234376 3.847657-1.339844 4.066406-4.773438 11.660156-6.34375 17.289062-3.578125 5.625 2.765625 9.019531 9.738281 7.730469 15.875-.449219 2.136719.882812 4.242187 3.003906 4.753906 2.125.503906 4.265625-.769531 4.832031-2.878906.183594-.6875.832032-1.101563 1.34375-1.332031 1.257813-.566407 2.953125-.546876 4.125.042968 2.371094 1.191406 4.304688 3.925782 5.910156 8.355469 3.953126 10.898437 3.992188 22.972656.226563 33.878906-20.652344-17.105469-47.300781-26.773437-74.136719-26.773437-.398437 0-.796875 0-1.191406.003906-10.234375.109375-20.507812 1.628906-30.539062 4.515625-8.628907 2.480469-16.980469 5.957031-24.828126 10.320313-2.027343 1.128906-4.082031 2.613281-6.066406 4.042968-4.125 2.972656-8.371094 6.0625-12.191406 5.972656-3.480469-.066406-5.960938-1.855468-7.578125-5.46875-3.328125-7.449218-1.425781-18.789062 2.375-23.207031zm-67.804687 241.804688c1.507812-5.3125 3.835937-10.394531 6.300781-15.777344 4.023437-8.78125 8.183593-17.859375 8.472656-28.003906.1875-6.441407-1.222656-12.695313-2.585937-18.742188-1.730469-7.660156-3.363282-14.898437-1.628907-21.738281 1.460938-5.75 5.1875-10.71875 9.136719-15.980469 3.214844-4.289062 6.542969-8.722656 8.8125-13.851562 3.890625-8.796875 4.125-18.253907 4.351562-27.398438.105469-4.265625.214844-8.671875.710938-12.832031 2.003906-16.769531 11.210938-32.539062 24.492188-42.976562-6.15625 8.617187-10.699219 19.359374-13.566407 32.128906-2.277343 10.140625-3.359375 20.539062-4.40625 30.597656-.691406 6.675781-1.410156 13.582031-2.46875 20.261719-1.800781 11.371093-4.707031 22.8125-7.515625 33.878906-2.460937 9.699219-5.003906 19.722656-6.84375 29.792969-4.308594 23.628906-1.261718 43.257812 2.675782 60.949218 2.703124 12.152344 8.054687 21.964844 15.511718 28.945313-8.367187 4.058594-16.128906 9.550781-23.109375 16.253906-16.253906-12.589843-23.960937-35.714843-18.339843-55.507812zm242.390624 213.5625-187.105468-2.703125c-6.191406-13.074219-11.226563-26.789063-14.960938-40.765625-2.585937-9.675781-5.320312-22.328125-3.484375-34.367188 1.824219-11.980469 8.183594-21.886719 17.007813-26.492187 10.546875-5.503906 23.945312-3.285156 33.105468-1.140625 11.847657 2.777343 20.835938 6.289062 28.277344 11.054687 8.929688 5.714844 15.539063 13.492188 18.613282 21.898438.527343 1.441406 1.828124 2.457031 3.355468 2.621094 1.523438.167968 3.011719-.550782 3.835938-1.847657 14.4375-22.765625 41.1875-37.6875 68.144531-38.011719 8.851563-.109374 21.28125 1.378907 30.273437 9.058594 7.160157 6.109375 11.988282 16.089844 14.355469 29.664063 4.171875 23.941406.207031 48.953125-11.171875 70.425781-.101562.195312-.175781.398438-.246094.605469zm57.621094-4.835938c-.625 2.128907-1.367187 4.203125-2.5625 4.953125-1.058594.664063-3.058594.636719-4.667968.609375l-41.488282-.597656c11.015625-22.351563 14.742188-47.972656 10.457032-72.546875-2.699219-15.46875-8.4375-27.046875-17.058594-34.410156-10.898438-9.304688-25.394532-11.085938-35.609375-10.992188-27.222657.328125-54.253907 14.210938-70.761719 35.878906-4.214844-7.421874-10.683594-14.105468-18.742188-19.265624-8.234374-5.273438-18.019531-9.121094-30.785156-12.113282-10.410156-2.4375-25.75-4.902344-38.671875 1.84375-11.097656 5.789063-19.042969 17.914063-21.253906 32.425782-2.058594 13.515624.878906 27.226562 3.667969 37.664062 3.523437 13.175781 8.171875 26.121094 13.8125 38.554688l-45.824219-.660157c-3.300781-.046875-6.179687-.195312-7.976563-1.539062-2.574218-1.914063-3.078124-6.359375-3.347656-10.378907-1.941406-28.761718-2.5625-59.3125 5.945313-87.851562 9.191406-30.828125 28.386719-54.558594 52.667969-65.113281.300781-.128907.566406-.300781.816406-.488281 5.65625 3.421874 12.140625 5.574218 19.316406 6.304687.132812.011719.269531.019531.40625.019531 1.351562 0 2.628906-.683594 3.375-1.832031.824219-1.265625.875-2.882813.128906-4.195313-1.882812-3.304687-3.515625-6.742187-4.902344-10.277343 7.691407-4.199219 14.476563-9.832031 20.089844-16.453125 12.046875 12.886718 25.621094 24.316406 40.394532 33.960937 1.878906 1.226563 3.914062 2.488281 6.097656 3.574219-2.921875 1.960938-5.640625 4.539062-7.953125 7.667969-6.300781 8.535156-7.601563 18.453125-3.394531 25.882812 2.796874 4.9375 7.992187 8.515625 14.632812 10.078125 2.308594.542969 4.644531.808594 6.957031.808594 6.375 0 12.535157-2.027344 17.3125-5.839844 7.070313-5.640625 10.152344-14.789062 8.039063-23.875-1.605469-6.890625-5.808594-12.535156-11.53125-15.875 4.132812-2.4375 7.917968-5.683594 11.394531-8.851562 5.640625-5.148438 10.707031-9.28125 15.605469-13.285156 4.980468-4.070313 10.132812-8.277344 15.9375-13.570313.378906-.34375.667968-.75.882812-1.183594 4.507813 2.710938 9.492188 4.617188 14.691406 5.597657-1.878906 4.058593-3.996093 8.089843-6.152343 12.066406-.769531 1.417968-.621094 3.160156.382812 4.425781 1.003907 1.265625 2.664063 1.8125 4.222657 1.382813 6.144531-1.675782 11.882812-4.488282 17.039062-8.140626 28.988281 17.476563 51.730469 44.441407 64.058594 75.972657 12.375 31.65625 13.921875 67.050781 4.351562 99.664062zm0 0"/></svg>