<svg height="511pt" viewBox="-80 0 511 511.99879" width="511pt" xmlns="http://www.w3.org/2000/svg"><path d="m31.070312 507.917969c-7.480468 0-16.753906-.851563-22.074218-7.511719-4.234375-5.3125-4.503906-12.574219-4.414063-20.175781.363281-30.605469.738281-62.226563 8.609375-92.394531 8.769532-33.613282 26.460938-60.640626 49.808594-76.101563.59375-.398437 1.222656-.792969 1.847656-1.1875l7.128906-4.460937-1.039062 8.347656c-1.570312 12.660156 5.335938 25.707031 16.429688 31.015625 3.71875 1.785156 7.800781 2.691406 12.140624 2.691406 7.246094 0 14.5625-2.625 20.078126-7.199219l5.214843-4.332031 1.269531 6.660156c2.511719 13.210938 13.53125 24.324219 26.191407 26.421875 1.53125.25 3.113281.378906 4.6875.378906 11.457031 0 23-6.890624 28.714843-17.140624l3.371094-6.039063 3.554688 5.929687c3.9375 6.574219 9.925781 11.523438 16.855468 13.941407 3.183594 1.113281 6.53125 1.679687 9.953126 1.679687 7.441406 0 14.734374-2.753906 20.007812-7.550781 4.957031-4.515625 8.214844-11.101563 8.933594-18.0625l.707031-6.851563 5.601563 4.011719c4.90625 3.511719 10.867187 5.445313 16.792968 5.445313 2.644532 0 5.214844-.390625 7.640625-1.15625 9.25-2.929688 16.714844-11.609375 18.574219-21.601563l1.277344-6.855469 5.273437 4.5625c.15625.136719.320313.269532.480469.402344.21875.175782.433594.351563.644531.535156 25.066407 21.851563 35.121094 53.144532 39.144531 75.550782 5.128907 28.53125 3.734376 57.90625 2.386719 86.316406l-.007812.1875c-.335938 7.050781-.9375 13.261719-4.894531 17.859375-4.914063 5.730469-13.144532 6.464844-19.765626 6.464844-1.226562 0-2.550781-.027344-4.171874-.085938-8.089844-.277343-16.640626-.542969-26.90625-.828125l-5.042969-.140625 1.285156-4.878906c8.941406-33.894531 10.964844-70.046875 5.851563-104.542969 5.148437 35.167969 2.960937 71.953125-6.402344 106.382813l-.824219 3.03125-3.140625-.082031c-34.042969-.878907-68.664062-1.324219-102.902344-1.324219-38.160156 0-76.757812.554687-114.71875 1.644531l-3.855468.109375-.25-3.847656c-2.175782-33.296875.277343-66.703125 7.289062-99.292969-7.050781 32.476562-9.515625 65.792969-7.375 99.015625l.265625 4.128906-4.136719.125c-7.160156.21875-14.324218.449219-21.476562.710938-1.804688.066406-3.269532.09375-4.613282.09375zm0 0" fill="#ed6d66"/><g fill="#fff"><path d="m271.480469 345.359375c-9.683594 0-19.058594-5.105469-23.882813-13.007813l-2.382812-3.898437 4.179687-1.84375c11.558594-5.101563 22.058594-11.558594 31.210938-19.191406l2.199219-1.835938 2.445312 1.492188c4.207031 2.566406 7.832031 4.933593 11.085938 7.242187l1.644531 1.171875.039062 2.015625c.210938 11.742188-7.941406 23.226563-18.964843 26.707032-2.394532.761718-4.945313 1.148437-7.574219 1.148437zm0 0"/><path d="m219.3125 368.351562c-3.410156 0-6.71875-.554687-9.835938-1.648437-9.601562-3.351563-17.59375-12.0625-20.355468-22.191406l-1.320313-4.847657 5.019531-.203124c17.117188-.679688 33.664063-3.988282 49.191407-9.835938l3.9375-1.480469 1.28125 4.011719c3.183593 9.980469.023437 21.507812-7.867188 28.691406-5.238281 4.769532-12.546875 7.503906-20.050781 7.503906zm0 0"/><path d="m156.902344 370.003906c-1.558594 0-3.113282-.128906-4.628906-.378906-16.003907-2.640625-28.371094-19.152344-26.464844-35.335938l.558594-4.75 4.578124 1.394532c16.617188 5.050781 33.082032 7.925781 48.941407 8.539062 1.789062.070313 3.542969.097656 5.019531.117188l4.832031.054687-.957031 4.734375c-2.902344 14.371094-16.90625 25.625-31.878906 25.625zm0 0"/><path d="m99.445312 348.054688c-4.320312 0-8.375-.894532-12.054687-2.660157-12.679687-6.082031-19.574219-22.082031-15.371094-35.667969l1.488281-4.8125 4.347657 2.539063c14.820312 8.65625 30.082031 15.714844 45.367187 20.972656l4.765625 1.640625-2.683593 4.269532c-5.234376 8.335937-15.386719 13.71875-25.859376 13.71875zm0 0"/></g><path d="m265.738281 188.109375c-2.546875 0-5.15625-.628906-7.550781-1.820313l-.5-.25-.414062-.375-.53125-.171874-.53125-.34375c-2.503907-1.671876-4.496094-3.898438-5.769532-6.441407-2.523437-5.054687-2.242187-11.503906.71875-16.4375l1.808594-3.011719 3.21875 1.402344c1.992188.867188 3.785156 1.289063 5.484375 1.289063.257813 0 .515625-.011719.777344-.03125 3.253906-.238281 6.285156-2.019531 9.019531-5.292969l4.105469-4.917969 2.617187 5.847657c3.015625 6.746093 5.71875 14.476562 2.882813 20.652343-2.667969 5.816407-8.761719 9.792969-15.160157 9.898438zm0 0" fill="#ffbf48"/><path d="m85.148438 194.890625c-3.207032 0-6.179688-.898437-8.601563-2.597656-4.800781-3.367188-7.398437-9.722657-6.628906-16.1875.554687-4.585938 2.710937-9.128907 6.234375-13.144531l4.597656-5.238282 2.203125 6.609375c.125.371094.242187.742188.363281 1.109375.160156.492188.316406.984375.484375 1.472656.390625.042969.730469.042969 1.058594.042969h.023437c4.167969 0 8.429688-.445312 12.667969-1.332031l3.929688-.820312.839843 4.085937c2.0625 7.542969.113282 15.929687-4.898437 20.953125-3.191406 3.203125-7.664063 5.046875-12.273437 5.046875zm0 0" fill="#ffbf48"/><path d="m302.550781 280.035156c-6.246093-3.753906-13.335937-6.289062-20.1875-8.742187l-.109375-.039063c-8.695312-3.109375-16.855468-6.03125-23.992187-11.207031-11.621094-8.425781-18.964844-22.574219-19.160157-36.921875-.175781-13.390625 5.78125-26.699219 15.929688-35.601562l1.875-1.648438 2.300781.960938c2.121094.882812 4.292969 1.332031 6.453125 1.332031h.320313c1.921875-.03125 3.917969-.445313 5.863281-1.230469l2.640625-1.0625 1.871094 2.144531c.070312.085938.140625.167969.207031.253907 22.054688 23.734374 33.730469 56 32.042969 88.542968l-.34375 6.65625zm0 0" fill="#644c4c"/><path d="m82.933594 164.097656c-7.761719-24.082031-9.964844-48.492187-6.371094-70.601562 4.171875-25.734375 16.21875-48.730469 33.914062-64.753906 4.699219-4.253907 9.914063-8.0625 15.5-11.320313 5.597657-3.246094 11.472657-5.882813 17.472657-7.84375 11.179687-3.664063 21.640625-5.519531 31.089843-5.519531 7.464844 0 14.433594 1.152344 20.703126 3.429687 24.507812 8.867188 42.1875 19.761719 55.632812 34.285157 16.851562 18.175781 27.609375 41.769531 30.28125 66.433593 1.761719 16.230469-.234375 30.472657-5.929688 42.335938-2.347656 4.902343-6.46875 10.851562-12.773437 11.316406-.246094.019531-.507813.027344-.773437.027344-3.730469 0-7.125-1.925781-10.285157-3.894531-33.101562-20.730469-58.53125-54.058594-69.773437-91.441407-9.023438 22.972657-18.289063 46.722657-34.03125 66.351563-16.484375 20.542968-39.183594 33.238281-60.714844 33.964844l-3.015625.101562zm0 0" fill="#644c4c"/><path d="m55.148438 287.207031c-.796876 0-1.59375-.015625-2.394532-.050781l-7.480468-.328125 4.433593-6.039063c5.753907-7.832031 7.230469-18.320312 7.453125-25.742187.128906-4.421875-.058594-8.988281-.226562-13.019531-.308594-7.472656-.597656-14.53125.546875-21.714844 1.609375-10.011719 7.6875-22.835938 19.523437-26.210938.03125-.011718 1.464844-.554687 1.464844-.554687l1.378906.492187c1.679688.597657 3.464844.898438 5.300782.898438 3.277343 0 6.621093-.972656 9.410156-2.738281l3.3125-2.097657 2.132812 3.222657c14.960938 18.082031 17.121094 45.773437 5.101563 65.953125-10.109375 16.964844-29.71875 27.929687-49.957031 27.929687zm0 0" fill="#644c4c"/><path d="m186.265625 339.539062c-2.117187 0-4.265625-.042968-6.378906-.125-32.132813-1.242187-66.476563-11.777343-99.316407-30.46875l-6.609374-3.761718 6.847656-3.316406c1.945312-.941407 3.894531-1.875 5.832031-2.800782 8.65625-4.128906 17.570313-8.382812 25.515625-13.945312 19.089844-13.34375 24.566406-30.875 23.453125-41.828125l-.683594-6.742188 6.234375 2.65625c10.183594 4.347657 20.777344 6.804688 31.488282 7.308594 1.03125.046875 2.007812.074219 2.910156.074219 12.957031 0 27.953125-3.820313 42.234375-10.757813l5.65625-2.75.089843 6.289063c.332032 23.003906 18.699219 39.808594 29.617188 47.777344 7.109375 5.183593 14.84375 9.722656 22.328125 14.109374l2.332031 1.359376 5.078125 2.941406-4.597656 3.652344c-24.628906 19.558593-57.3125 30.328124-92.03125 30.328124zm0 0" fill="#efb17c"/><path d="m175.507812 246.519531c-.964843 0-1.925781-.023437-2.855468-.066406-22.109375-1.039063-43.824219-10.519531-59.617188-26.019531-.074218-.066406-.148437-.132813-.21875-.199219l-.890625-.863281-.246093-1.21875c-1.902344-9.429688-5.964844-18.078125-11.75-25.023438l-2.71875-2.515625 2.078124-2.871093c3.765626-5.195313 4.917969-12.539063 3.007813-19.164063l-1.074219-3.722656 3.683594-1.191407c15.753906-5.105468 30.925781-16.011718 42.726562-30.71875 13.996094-17.441406 22.804688-38.121093 29.960938-56.132812l3.808594-9.585938 3.652344 9.644532c12.421874 32.828125 35.394531 61.28125 64.679687 80.125l3.230469 2.074218-1.941406 3.308594c-2.886719 4.933594-3.136719 11.355469-.632813 16.359375.789063 1.574219 1.859375 3.039063 3.191406 4.355469l2.925781 2.886719-2.964843 2.84375c-8.632813 8.28125-13.902344 19.832031-14.453125 31.691406l-.085938 1.820313-1.433594 1.132812c-17.472656 13.789062-42.414062 23.050781-62.0625 23.050781zm0 0" fill="#efb17c"/><path d="m348.476562 396.152344c-4.140624-23.050782-14.519531-55.273438-40.453124-77.878906-9.335938-8.136719-20.050782-14.414063-30.417969-20.484376-7.417969-4.347656-15.089844-8.84375-22.050781-13.921874-19.027344-13.886719-29.425782-31.914063-27.808594-48.21875.019531-.203126.011718-.40625 0-.605469 2.71875-1.59375 5.351562-3.289063 7.890625-5.082031 2.058593 13.171874 9.4375 25.550781 20.238281 33.375 7.628906 5.53125 16.464844 8.691406 25.011719 11.742187 9.085937 3.25 17.671875 6.316406 24.613281 11.960937.734375.59375 1.632812.902344 2.542969.902344.515625 0 1.03125-.097656 1.523437-.296875 1.367188-.558593 2.316406-1.816406 2.484375-3.277343 4.015625-35.3125-7.886719-71.902344-31.859375-98.128907 1.894532-1.796875 3.472656-3.933593 4.574219-6.328125 4.253906-9.265625-1.113281-20.472656-5.074219-28.738281l-.375.179687c5.691406-12.359374 7.675782-27.007812 5.878906-43.574218-2.761718-25.519532-13.890624-49.941406-31.335937-68.765625-13.917969-15.019531-32.101563-26.25-57.230469-35.34375-15.191406-5.5-33.511718-4.808594-54.449218 2.042969-12.628907 4.136718-24.535157 11.058593-34.429688 20.015624-18.375 16.632813-30.875 40.46875-35.199219 67.121094-3.28125 20.199219-1.867187 42.132813 4.03125 64.050782-.21875.132812-.433593.289062-.632812.46875-5.6875 5.152343-9.261719 11.628906-10.0625 18.242187-.746094 6.191406 1.089843 12.328125 4.785156 16.734375-10.261719 5.617188-15.65625 17.664062-17.199219 27.328125-1.210937 7.570313-.898437 15.167969-.597656 22.515625.171875 4.203125.347656 8.546875.222656 12.738281-.269531 9.117188-2.425781 21.386719-11.140625 28.054688-1.257812.960937-1.835937 2.566406-1.480469 4.105469.355469 1.542968 1.582032 2.734374 3.128907 3.046874 3.75.757813 7.550781 1.125 11.359375 1.125 21.324218 0 42.667968-11.503906 53.628906-29.902343 5.738281-9.636719 8.449219-20.871094 8.28125-32.082031 4.28125 3.453124 8.867188 6.53125 13.683594 9.203124.027344.144532.039062.289063.082031.429688 3.445313 11.691406-1.65625 29.488281-20.8125 42.890625-7.683594 5.371094-16.066406 9.371094-24.945313 13.605469-8.082031 3.859375-16.441406 7.84375-24.132812 12.941406-24.179688 16.027344-42.46875 43.890625-51.492188 78.46875-8 30.652344-8.378906 62.535156-8.746093 93.367188-.097657 8.367187.234375 16.40625 5.3125 22.765624 6.320312 7.910157 17.039062 9.054688 25.003906 9.054688 1.847656 0 3.542969-.0625 5.003906-.113281 93.574219-3.386719 188.472657-3.457031 282.058594-.207031 9.609375.332031 20.433594.035156 27.15625-7.800782 5.183594-6.039062 5.574219-14.289062 5.863281-20.308594 1.371094-28.695312 2.785156-58.371093-2.433594-87.417968zm-70.621093-55.75c-9.6875 3.066406-21.550781-1.472656-26.847657-10.132813 11.777344-5.195312 22.636719-11.835937 32.167969-19.785156 3.6875 2.253906 7.328125 4.597656 10.84375 7.089844.183594 9.84375-6.773437 19.851562-16.164062 22.828125zm-41.1875 17.488281c-6.6875 6.089844-17.085938 8.113281-25.871094 5.042969-8.449219-2.957032-15.382813-10.566406-17.816406-19.472656 17.609375-.703126 34.71875-4.167969 50.441406-10.09375 2.679687 8.402343-.054687 18.421874-6.753906 24.523437zm-160.824219-46.976563c15.148438 8.84375 30.617188 15.976563 46.078125 21.296876-6.5625 10.445312-21.648437 14.929687-32.796875 9.582031-10.929688-5.242188-16.851562-19.347657-13.28125-30.878907zm53.929688 23.839844c16.871093 5.136719 33.667968 8.089844 49.960937 8.71875 1.710937.066406 3.421875.097656 5.128906.109375-2.8125 13.921875-17.90625 24.425781-31.933593 22.101563-13.9375-2.304688-24.796876-16.929688-23.15625-30.929688zm143.761718-143.851562c21.335938 22.902344 32.691406 54.5 31.070313 85.703125-6.613281-3.976563-13.902344-6.582031-21.003907-9.117188-8.382812-2.996093-16.296874-5.824219-22.996093-10.679687-10.617188-7.699219-17.324219-20.628906-17.5-33.742188-.167969-12.242187 5.363281-24.472656 14.5625-32.535156 2.523437 1.050781 5.238281 1.640625 7.988281 1.636719h.324219c2.535156-.042969 5.03125-.578125 7.363281-1.519531.066406.082031.117188.171874.191406.253906zm-18.945312-26.570313c2.554687 1.109375 5.261718 1.792969 8.160156 1.578125 4.359375-.324218 8.398438-2.660156 11.789062-6.722656 2.675782 5.964844 5.019532 12.730469 2.898438 17.355469-2.011719 4.375-6.777344 7.484375-11.589844 7.5625-2.023437.027343-4.046875-.480469-5.882812-1.394531-.449219-.414063-.972656-.714844-1.535156-.886719-1.863282-1.242188-3.421876-2.925781-4.410157-4.902344-1.9375-3.882813-1.664062-8.859375.570313-12.589844zm-174.082032-70.191406c4.035157-24.855469 15.632813-47.027344 32.652344-62.4375 9.066406-8.207031 19.964844-14.542969 31.527344-18.328125 10.816406-3.542969 20.796875-5.3125 29.855469-5.3125 7.011719 0 13.46875 1.058594 19.339843 3.183594 23.875 8.640625 41.050782 19.203125 54.0625 33.242187 16.273438 17.566407 26.65625 40.347657 29.234376 64.152344 1.675781 15.472656-.195313 28.984375-5.5625 40.164063-1.550782 3.238281-4.847657 8.71875-9.460938 9.0625-2.832031.21875-5.9375-1.578126-8.644531-3.273438-32.28125-20.214844-57.089844-52.722656-68.066407-89.195312-.496093-1.648438-1.980468-2.796876-3.699218-2.867188-1.730469-.058594-3.292969.960938-3.914063 2.5625-8.851562 22.691406-18 46.152344-33.367187 65.304688-15.894532 19.8125-37.277344 31.785156-57.726563 32.464843-7.570312-23.484375-9.722656-47.1875-6.230469-68.722656zm-6.613281 82.433594c.457031-3.804688 2.316407-7.613281 5.269531-10.976563.28125.871094.554688 1.746094.851563 2.617188.546875 1.609375 2.046875 2.703125 3.742187 2.730468.378907.007813.75.011719 1.128907.011719 4.46875 0 8.980469-.484375 13.480469-1.417969.011718.046876.011718.097657.027343.144532 1.808594 6.265625.28125 13.234375-3.800781 17.335937-4.21875 4.238281-11.285156 5.132813-15.753906 1.996094-3.558594-2.5-5.546875-7.5-4.945313-12.441406zm27.769531 80.65625c-9.886718 16.601562-29.5 26.769531-48.734374 25.929687 6.21875-8.46875 7.972656-19.4375 8.226562-27.996094.132812-4.472656-.046875-8.964843-.226562-13.308593-.296876-7.273438-.578126-14.140625.503906-20.910157 1.421875-8.894531 6.683594-20.265624 16.84375-23.046874.082031-.023438.152344-.0625.230468-.085938 2.113282.746094 4.363282 1.128906 6.640626 1.128906 4 0 8.058593-1.152344 11.546874-3.359375.027344.03125.042969.066407.066407.097657 14.0625 16.820312 16.125 42.707031 4.902343 61.550781zm1.285157-66.726563c-.128907-.152344-.277344-.28125-.421875-.414062 4.46875-6.167969 5.902344-14.6875 3.617187-22.621094 16.351563-5.300781 32.105469-16.4375 44.609375-32.023438 13.773438-17.167968 22.621094-37.199218 30.558594-57.152343 12.625 33.367187 36.285156 62.78125 66.257812 82.066406-3.546874 6.054687-3.914062 13.851563-.761718 20.164063 1.007812 2.023437 2.363281 3.839843 3.957031 5.414062-9.292969 8.921875-15.078125 21.523438-15.671875 34.394531-17.703125 13.964844-43.09375 23.027344-62.253906 22.125-21.203125-1-42.027344-10.117187-57.144532-25.015625-.027343-.03125-.0625-.050781-.09375-.078125-1.980468-9.824219-6.222656-19.164062-12.652343-26.859375zm-14.59375 112.175782c8.785156-4.1875 17.867187-8.523438 26.09375-14.277344 14.488281-10.136719 26.957031-27.566406 25.144531-45.515625 10.410156 4.441406 21.585938 7.09375 32.863281 7.625 1.023438.046875 2.058594.070312 3.105469.070312 13.761719 0 29.53125-4.132812 43.976562-11.152343.160157 11.148437 4.691407 31.554687 31.261719 50.949218 7.289063 5.320313 15.136719 9.917969 22.730469 14.363282.753906.445312 1.519531.894531 2.277344 1.339843-25.261719 20.058594-59.894532 30.722657-95.765625 29.332031-31.5625-1.214843-65.179688-11.558593-97.496094-29.941406 1.941406-.945312 3.882813-1.871094 5.808594-2.792968zm254.503906 180.507812c-.300781 6.292969-.804687 11.796875-3.929687 15.441406-4.390626 5.121094-13.015626 5.269532-20.757813 4.992188-8.96875-.3125-17.953125-.582032-26.945313-.832032 9.078126-34.386718 11.152344-70.996093 5.945313-106.148437-.324219-2.203125-2.375-3.722656-4.578125-3.398437-2.203125.328124-3.726562 2.375-3.398438 4.578124 5.140626 34.703126 2.964844 70.871094-6.25 104.734376-72.433593-1.867188-145.445312-1.753907-217.839843.320312-2.140625-32.910156.277343-65.933594 7.214843-98.183594.46875-2.175781-.917968-4.320312-3.09375-4.785156-2.171874-.46875-4.320312.914062-4.789062 3.09375-7.070312 32.878906-9.550781 66.558594-7.390625 100.113281-7.175781.222657-14.34375.453125-21.5.714844-8.789063.316406-18.574219.148437-23.421875-5.917969-3.417969-4.28125-3.628906-10.78125-3.546875-17.632812.359375-30.347656.734375-61.730469 8.484375-91.429688 8.523438-32.652344 25.621094-58.855468 48.144531-73.78125.578125-.386718 1.175781-.753906 1.765625-1.128906-1.742187 14 5.742188 28.925781 18.664063 35.125 11.851562 5.683594 26.566406 3.210938 36.503906-5.046875 2.757813 14.503906 14.617187 27.164063 29.472656 29.621094 1.777344.296875 3.558594.4375 5.335938.4375 13.140625 0 25.84375-7.777344 32.214843-19.191407 4.339844 7.230469 11.058594 12.894532 18.972657 15.660157 11.679687 4.085937 25.007812 1.460937 33.960937-6.691407 5.832032-5.3125 9.417969-12.867187 10.21875-20.617187 7.960938 5.703125 18.574219 7.832031 27.972656 4.851563 10.929688-3.460938 19.21875-13.503907 21.300782-24.679688.375.316406.765625.621094 1.136718.945312 24.167969 21.066407 33.902344 51.449219 37.816407 73.226563 5.054687 28.148437 3.660156 57.359375 2.316406 85.609375zm0 0"/></svg>