<svg height="511pt" viewBox="-93 1 511 511.99976" width="511pt" xmlns="http://www.w3.org/2000/svg"><path d="m301.8125 507.933594c-.535156 0-1.082031-.003906-1.632812-.015625l-35.964844-.601563-.085938-3.84375c-.601562-26.179687.902344-52.472656 4.464844-78.152344-3.613281 25.609376-5.117188 51.796876-4.527344 77.832032l.09375 4.15625-101.132812-1.683594.039062-3.976562c.300782-30.335938 1.792969-61.023438 4.433594-91.203126l-.003906-2.378906 2.019531-1.152344c2.433594-1.386718 3.148437-5.339843 3.386719-6.640624l3.792968-20.433594c1.238282-6.675782 2.507813-13.53125 5.742188-19.601563l2.589844-4.863281 3.820312 3.96875c11.664063 12.109375 22.535156 25.101562 32.3125 38.609375l.128906.003906c12.027344-18.742187 17.675782-42.292969 15.410157-64.625l-.832031-8.207031 6.957031 4.429688c5.800781 3.6875 12 6.800781 17.996093 9.808593 8.5 4.257813 16.496094 8.265625 23.796876 13.847657 17.558593 13.429687 29.773437 35.695312 34.394531 62.691406 4.148437 24.238281 2.152343 49.050781.222656 73.046875-.492187 6.152343-1.433594 13.011719-6.40625 16.503906-3.273437 2.289063-7.402344 2.480469-11.015625 2.480469zm0 0" fill="#288fc9"/><path d="m60.644531 503.910156.207031-4.128906c1.121094-22.289062.058594-44.714844-3.152343-66.652344 3.160156 22.023438 4.21875 44.535156 3.082031 66.914063l-.195312 3.859375-39.683594-.652344c-4.824219-.085938-9.796875-.4375-12.96875-3.636719-3.375-3.390625-3.492188-8.625-3.324219-13.695312.640625-19.699219 1.519531-39.722657 2.613281-59.519531 1.199219-21.828126 3.332032-42.699219 16.125-58.113282 8.980469-10.8125 22.289063-17.300781 34.054688-22.53125.953125-.429687 1.929687-.855468 2.898437-1.28125l.875-.382812c4.976563-2.1875 10.617188-4.671875 15.894531-7.433594l7.394532-3.871094-1.613282 8.1875c-3.539062 17.953125-4.777343 36.285156-3.679687 54.496094.179687 3.003906 1.058594 4.796875 2.605469 5.324219.308594.105469.613281.15625.921875.15625 1.359375 0 3.003906-1.171875 4.632812-3.292969 12.5-16.347656 27.714844-30.15625 45.222657-41.035156l2.933593-3.59375 3.117188 3.417968c4.4375 4.871094 7.15625 10.957032 9.785156 16.839844l12.3125 27.613282c1.332031 2.976562 2.945313 5.058593 4.664063 6.011718l2.269531 1.261719-.222657 2.582031c-2.625 30.132813-4.109374 60.691406-4.40625 90.835938l-.039062 4.023437zm0 0" fill="#288fc9"/><g fill="#c67045"><path d="m84.371094 186.890625c-4.648438-8.054687-7.355469-17.789063-7.832032-28.148437-.53125-11.679688 1.523438-24.308594 6.46875-39.742188 5.191407-16.210938 11.003907-27.230469 18.847657-35.742188 13.519531-14.660156 32.382812-20.390624 45.828125-22.613281 6.035156-1 12.125-1.507812 18.097656-1.507812 11.902344 0 23.277344 1.964843 33.808594 5.839843 17.070312 6.292969 31.503906 17.664063 40.640625 32.015626 9.214843 14.449218 13.621093 33.015624 12.410156 52.28125-.773437 12.371093-3.824219 25.339843-9.066406 38.535156l-7.714844-1.597656c.078125-2.597657.21875-5.15625.363281-7.863282l.019532-.382812c.136718-2.441406.277343-5.027344.367187-7.574219.246094-7.421875.109375-17.0625-3.183594-25.738281-3.390625-8.929688-9.964843-15.707032-17.589843-18.128906-2.417969-.769532-4.921876-1.144532-7.664063-1.144532-7.835937 0-15.84375 3.125-22.730469 6.054688-7.378906 3.128906-15.734375 6.675781-24.078125 6.679687-2.164062 0-4.253906-.246093-6.21875-.726562-3-.734375-5.855469-2.0625-8.617187-3.351563l-.128906-.058594c-2.449219-1.148437-4.972657-2.332031-7.605469-3.109374-2.5-.742188-5.15625-1.117188-7.902344-1.117188-7.367187 0-14.757813 2.628906-20.816406 7.402344-7.378907 5.804687-13 14.855468-15.832031 25.496094-1.742188 6.554687-2.527344 13.808593-2.402344 22.183593l.226562 15.382813zm0 0"/><path d="m169.652344 325.644531c-6.488282 0-13.390625-1.40625-19.96875-4.066406-15.3125-6.1875-28.597656-18.261719-38.421875-34.914063l-.269531-.457031-.140626-.511719-.390624-.390624-.261719-.507813c-1.8125-3.222656-3.371094-6.320313-4.769531-9.472656-5.425782-12.269531-9.347657-25.746094-11.339844-38.976563-1.195313-7.839844-2.675782-19.613281-1.765625-31.261718l.890625-11.375 6.410156 9.441406c3.589844 5.292968 6.726562 11.242187 9.757812 16.992187l.28125.535157c1.054688 1.984374 2.082032 3.925781 3.101563 5.792968 4.414063 8.03125 9.261719 14.792969 12.992187 19.78125l1.894532 2.535156-1.929688 2.308594-.058594.085938c-.492187.652344-.953124 1.308594-1.507812 2.132812l-.226562.339844c-.417969.648438-.820313 1.292969-1.207032 1.941406-.0625.113282-.125.222656-.191406.328125-.472656.820313-.859375 1.542969-1.21875 2.25l-.257812.503907c-.40625.820312-.761719 1.585937-1.082032 2.324218-.730468 1.710938-1.421875 3.878906-.308594 5.503906.917969 1.363282 2.804688 1.785157 3.710938 1.988282 2.804688.636718 5.816406.957031 8.972656.957031 10.285156 0 20.273438-3.453125 26.714844-9.230469l2.652344-2.378906 2.667968 2.359375c.496094.4375 1.039063.886719 1.617188 1.339844.230469.167969.421875.3125.605469.457031.351562.257812.777343.554688 1.210937.839844.214844.144531.355469.242187.496094.332031.636719.410156 1.214844.761719 1.800781 1.089844l.171875.085937.085938.058594c.597656.324219 1.167968.617188 1.738281.886719l.558594.261719c.527343.234374 1.027343.460937 1.539062.664062l.597657.238281c.695312.273438 1.390624.527344 2.042968.738281l.195313.050782.0625.03125.511719.167968c.449218.136719.90625.265626 1.363281.390626l.53125.136718c.621093.160156 1.183593.296875 1.734375.414063.089844.019531.542968.121093.542968.121093.640626.128907 1.28125.25 1.921876.351563h.175781l.316406.078125c.683594.101562 1.363281.179688 2.046875.257812l.59375.058594c.566406.042969 1.125.089844 1.695312.125l.53125.027344c.570313.023438 1.132813.042969 1.691407.050781l.429687-.007812c.277344 0 .542969-.007813.816406-.015625.550782-.011719 1.035157-.019532 1.507813-.046875l.113281-.003907c.164063-.007812.324219-.023437.484375-.042968l.386719-.03125c.441406-.027344.839844-.050782 1.222656-.097656l.121094-.011719c.203125-.019531.398438-.050781.597656-.078125 0 0 .875-.121094 1.089844-.148438.164062-.019531.324219-.039062.480469-.066406.734375-.117188 1.402343-.25 2.011719-.394531l.097656-.023438c.246094-.050781.566406-.125.941406-.238281 1.324219-.390625 2.207031-.945312 2.714844-1.695312.328125-.480469.730468-1.269532.558594-2.726563l-.035157-.261719-.046875-.277344c-.1875-.96875-.585937-1.875-.757812-2.261718-.324219-.769532-.6875-1.539063-1.160156-2.488282l-.21875-.4375c-.476563-.917968-.878907-1.652343-1.289063-2.347656l-.257813-.433594c-.441406-.738281-.910156-1.472656-1.394531-2.199218l-.113281-.175782c-.4375-.640624-.949219-1.347656-1.613281-2.222656l-.078125-.105468-.042969-.070313-1.839844-2.117187 1.5625-2.507813c9.046875-14.507813 19.957031-27.746094 32.429688-39.351563l7.894531-7.347656-1.195312 10.722656c-3.441407 30.828126-11.476563 58.71875-23.878907 82.890626-5.015625 9.804687-13.226562 23.539062-26.5 29.53125-4.839843 2.171874-10.269531 3.277343-16.148437 3.277343zm0 0"/><path d="m191.128906 269.394531c-12.074218 0-23.054687-4.484375-29.371094-11.988281-6.363281 7.503906-17.339843 11.988281-29.417968 11.988281-3.144532 0-6.148438-.320312-8.929688-.953125-.699218-.160156-1.222656-.308594-1.644531-.46875l-3.089844-1.164062.558594-3.253906c.128906-.742188.390625-1.574219.808594-2.542969.25-.570313.488281-1.109375.746093-1.648438 1.804688-3.785156 4.128907-7.363281 6.90625-10.640625 3.097657-3.667968 6.691407-6.902344 10.679688-9.605468 5.164062-3.492188 9.84375-5.191407 14.308594-5.191407 2.070312 0 4.121094.371094 6.101562 1.101563 1.035156.386718 2.019532.871094 2.933594 1.445312.984375-.59375 1.980469-1.082031 3.007812-1.453125 1.949219-.722656 4-1.09375 6.066407-1.09375 4.464843 0 9.140625 1.695313 14.304687 5.1875 3.878906 2.625 7.378906 5.746094 10.40625 9.269531 3.320313 3.875 5.988282 8.121094 7.925782 12.621094.417968.976563.683593 1.808594.8125 2.550782l.558593 3.253906-3.09375 1.164062c-.421875.160156-.945312.308594-1.640625.46875-2.785156.628906-5.792968.953125-8.9375.953125zm0 0"/><path d="m137.769531 59.835938c-7.761719-5.703126-12.136719-16.269532-10.882812-26.292969 1.199219-9.535157 7.339843-18.726563 16.027343-23.996094 5.925782-3.589844 12.984376-5.488281 20.40625-5.488281 2.808594 0 5.628907.277344 8.386719.828125 11.992188 2.378906 25.019531 11.785156 26.707031 25.160156 1.277344 10.070313-3.648437 19.433594-9.253906 28.9375l-1.429687 2.425781-2.769531-.53125c-6.226563-1.191406-12.695313-1.796875-19.238282-1.796875-5.960937 0-12.03125.5-18.046875 1.496094-1.953125.324219-3.792969.679687-5.625 1.085937l-2.804687.621094zm0 0"/></g><path d="m233.667969 227.773438c1.40625-7.941407 2.5-16.199219 3.242187-24.546876l.082032-.894531.558593-.949219c2.019531-4.027343 3.914063-8.199218 5.609375-12.371093l1.332032-3.265625 3.40625.90625c7.144531 1.90625 13.160156 8.085937 14.96875 15.375 1.964843 7.855468-.835938 17.085937-6.976563 22.960937-5.03125 4.8125-11.339844 7.398438-18.238281 7.480469l-4.828125.058594zm0 0" fill="#ffdac4"/><path d="m124.789062 244.828125c-3.089843-4.179687-7.699218-10.636719-11.976562-18.398437-1.0625-1.933594-2.121094-3.925782-3.378906-6.320313-4.421875-8.382813-9.433594-17.875-15.707032-24.53125-.019531-.015625-1.359374-1.140625-1.359374-1.140625l-.121094-1.695312c-.855469-12.019532-.199219-21.578126 2.0625-30.082032 2.820312-10.601562 8.429687-19.644531 15.796875-25.460937 6.070312-4.773438 13.429687-7.402344 20.730469-7.402344 2.746093 0 5.414062.382813 7.929687 1.128906 2.601563.769531 4.992187 1.886719 7.527344 3.070313 2.871093 1.34375 5.773437 2.703125 8.832031 3.449218 1.964844.480469 4.054688.726563 6.214844.726563 8.398437 0 16.75-3.550781 24.121094-6.683594 6.910156-2.933593 14.925781-6.0625 22.644531-6.0625 2.722656 0 5.316406.390625 7.714843 1.152344 7.609376 2.429687 14.164063 9.195313 17.542969 18.09375 3.269531 8.597656 3.441407 17.828125 3.179688 25.722656-.078125 2.214844-.199219 4.46875-.316407 6.671875l-.046874.886719c-.332032 6.074219-.675782 12.351563-.234376 18.53125l1.628907 2.867187-2.480469 2.144532c-14.308594 12.289062-26.71875 26.585937-36.886719 42.488281l-2.621093 4.097656-3.515626-3.359375c-2.25-2.152344-4.585937-4.054687-6.9375-5.652344-5.191406-3.511718-9.878906-5.222656-14.335937-5.222656-2.074219 0-4.066406.363282-6.09375 1.113282-.433594.152343-.824219.316406-1.289063.53125l-1.675781.773437-1.679687-.773437c-.457032-.210938-.871094-.382813-1.257813-.523438-2.046875-.757812-4.042969-1.121094-6.121093-1.121094-4.464844 0-9.15625 1.710938-14.339844 5.222656-2.636719 1.789063-5.164063 3.878907-7.511719 6.214844l-3.285156 3.269532zm0 0" fill="#ffdac4"/><path d="m166.710938 407.335938c-2.933594-.570313-4.988282-4.300782-5.949219-6.472657l-12.316407-27.605469c-2.835937-6.351562-6.042968-13.554687-11.542968-18.640624-4.488282-4.144532-10.320313-6.710938-15.46875-8.976563l-33.871094-14.96875 4.980469-4.125c.28125-.230469.519531-.429687.75-.632813 8.21875-7.183593 14.964843-18.234374 17.210937-28.179687l1.894532-8.378906 5.195312 6.847656c8.921875 11.765625 20.011719 20.5625 32.070312 25.4375 6.570313 2.648437 13.484376 4.046875 19.992188 4.046875 5.914062 0 11.355469-1.097656 16.164062-3.265625 8.785157-3.964844 16.410157-11.6875 23.3125-23.617187l4.558594-7.882813 2.722656 8.691406c2.863282 9.160157 10.160157 16.988281 15.777344 21.945313l3.660156 3.226562-3.886718 2.957032c-6.015625 4.578124-13.019532 7.605468-19.792969 10.535156l-.785156.339844c-1.511719.65625-3.019531 1.308593-4.507813 1.988281-7.894531 3.558593-17.636718 8.738281-23.171875 17.335937-4.261719 6.617188-5.757812 14.726563-7.078125 21.882813l-3.78125 20.421875c-.59375 3.195312-1.46875 5.152344-2.808594 6.238281l-1.359374 1.234375zm0 0" fill="#ffdac4"/><path d="m81.914062 226.253906c-4.933593 0-9.820312-2.183594-13.066406-5.835937-4.613281-5.191407-6.042968-13.351563-3.558594-20.3125 2.222657-6.261719 7.519532-11.703125 14.171876-14.550781l3.238281-1.390626 1.785156 3.039063c1.875 3.195313 3.988281 6.054687 6.28125 8.5.035156.023437 2.496094 1.417969 2.496094 1.417969l-.398438 2.707031c-.894531 6.125-1.101562 13.101563-.613281 20.726563l.25 3.914062-3.910156.328125c-2.082032.96875-4.308594 1.457031-6.675782 1.457031zm0 0" fill="#ffdac4"/><path d="m235.710938 325.320312-5.476563 3.777344c-5.574219 3.84375-11.910156 6.589844-18.03125 9.238282-1.785156.769531-3.566406 1.539062-5.324219 2.335937-6.238281 2.820313-13.359375 6.457031-18.882812 12.070313l-2.742188 2.785156 2.722656 2.804687c10.609376 10.9375 20.589844 22.628907 29.667969 34.746094l3.691407 4.925781 3.003906-5.375c10.25-18.355468 14.5625-39.914062 12.140625-60.703125zm0 0" fill="#5bd0fc"/><path d="m121.402344 345.691406-36.011719-15.90625-1.082031 4.71875c-4.601563 19.996094-6.308594 40.511719-5.078125 60.960938.027343.4375.066406.8125.101562 1.136718l.980469 8.410157 5.875-6.097657c.351562-.363281.710938-.796874 1.085938-1.292968 12.222656-15.972656 27.039062-29.523438 44.039062-40.28125l5.511719-3.484375-5.605469-3.332031c-3.15625-1.878907-6.53125-3.375-9.816406-4.832032zm0 0" fill="#5bd0fc"/><path d="m323.015625 415.222656c-4.792969-28.019531-17.554687-51.1875-35.9375-65.238281-7.613281-5.820313-16.167969-10.109375-24.445313-14.257813-6.617187-3.316406-13.464843-6.75-19.582031-10.875-20.351562-13.738281-25.390625-28.363281-23.324219-37.464843.058594-.261719.085938-.519531.09375-.777344 7.085938-15.421875 12.515626-32.167969 16.246094-50.105469.441406.019532.882813.042969 1.316406.042969 7.972657 0 15.417969-2.984375 21.316407-8.621094 7.269531-6.953125 10.453125-17.507812 8.113281-26.890625-2.148438-8.628906-8.910156-15.609375-17.09375-18.089844 3.953125-11.410156 6.296875-22.59375 6.976562-33.421874 1.269532-20.101563-3.359374-39.535157-13.035156-54.71875-9.617187-15.097657-24.769531-27.046876-42.667968-33.640626-2.3125-.851562-4.667969-1.605468-7.058594-2.277343 4.675781-8.054688 9.90625-18.355469 8.515625-29.351563-1.417969-11.203125-11.398438-24.945312-29.945313-28.636718-11.078125-2.203126-22.628906-.316407-31.699218 5.179687-9.871094 5.984375-16.582032 16.0625-17.945313 26.960937-1.265625 10.085938 2.28125 20.316407 9.167969 27.195313-11.246094 3.601563-23.460938 9.753906-33.160156 20.273437-10.582032 11.476563-16.101563 25.9375-19.730469 37.257813-5.097657 15.914063-7.214844 28.996094-6.65625 41.164063.378906 8.265624 2.097656 16.078124 4.980469 23.066406-7.496094 3.339844-13.425782 9.519531-16.003907 16.746094-3.011719 8.449218-1.304687 18.015624 4.351563 24.375 4.140625 4.660156 10.152344 7.199218 16.089844 7.199218 2.425781 0 4.835937-.429687 7.105468-1.308594.328125 2.855469.699219 5.539063 1.0625 7.953126 2.085938 13.773437 6.003906 27.230468 11.648438 40 1.625 3.671874 3.421875 7.171874 5.34375 10.53125 1.757812 11.457031-6.972656 27.085937-16.410156 35.339843-8.839844 7.734375-20.160157 12.714844-31.105469 17.535157-1.269531.558593-2.535157 1.113281-3.796875 1.675781-12.1875 5.414062-25.988282 12.15625-35.523438 23.644531-13.578125 16.363281-15.820312 37.945312-17.0625 60.484375-1.09375 19.765625-1.972656 39.820313-2.613281 59.609375-.1875 5.699219-.007813 12.15625 4.5 16.699219 4.605469 4.636719 11.601563 4.757812 15.785156 4.828125l279.265625 4.667968c.660156.011719 1.355469.023438 2.082032.023438 4.027343 0 8.90625-.363281 12.972656-3.21875 6.964844-4.886719 7.726562-14.398438 8.136718-19.507812 1.945313-24.257813 3.957032-49.339844-.273437-74.050782zm-102.171875-24.546875c-9.226562-12.3125-19.300781-24.09375-30-35.125 4.953125-5.027343 11.574219-8.472656 17.6875-11.234375 1.738281-.785156 3.496094-1.546875 5.253906-2.308594 6.335938-2.738281 12.851563-5.566406 18.722656-9.625 2.316407 19.929688-1.871093 40.761719-11.664062 58.292969zm-21.667969-126.136719c-10.65625 2.417969-26.320312-.164062-34.355469-9.714843-.765624-.910157-1.894531-1.433594-3.085937-1.433594s-2.320313.523437-3.085937 1.433594c-8.035157 9.550781-23.699219 12.136719-34.355469 9.714843-.566407-.128906-.910157-.234374-1.113281-.3125.042968-.285156.175781-.792968.535156-1.636718.214844-.5.441406-1 .679687-1.496094 1.652344-3.46875 3.78125-6.75 6.347657-9.78125 2.863281-3.394531 6.1875-6.382812 9.875-8.878906 6.421874-4.351563 11.75-5.515625 16.78125-3.652344.75.273438 1.488281.632812 2.1875 1.074219 1.3125.828125 2.984374.828125 4.296874 0 .699219-.441407 1.433594-.800781 2.207032-1.082031 5.011718-1.855469 10.339844-.691407 16.761718 3.660156 3.589844 2.429687 6.824219 5.308594 9.609376 8.558594 3.0625 3.566406 5.515624 7.46875 7.292968 11.597656.359375.839844.492188 1.351562.535156 1.636718-.203124.078126-.546874.183594-1.113281.3125zm-4.335937-22.707031c-2.308594-2.214843-4.792969-4.265625-7.46875-6.074219-8.640625-5.855468-16.519532-7.339843-24.058594-4.550781-.53125.191407-1.058594.410157-1.578125.652344-.515625-.238281-1.035156-.457031-1.558594-.648437-7.558593-2.792969-15.4375-1.308594-24.078125 4.546874-2.914062 1.972657-5.609375 4.222657-8.09375 6.6875-3.945312-5.335937-7.96875-11.191406-11.683594-17.945312-1.101562-2-2.210937-4.101562-3.34375-6.25-4.554687-8.636719-9.71875-18.421875-16.398437-25.476562-.109375-.113282-.222656-.214844-.34375-.316407-.820313-11.539062-.207031-20.691406 1.9375-28.765625 2.601563-9.785156 7.71875-18.074218 14.414063-23.347656 7.40625-5.832031 17.003906-7.972656 25.042968-5.585938 2.335938.691407 4.617188 1.761719 7.035156 2.894532 2.984376 1.394531 6.070313 2.839844 9.511719 3.683594 11.625 2.847656 23.390625-2.148438 32.847657-6.167969 9.234374-3.921875 18.96875-7.523438 27.574218-4.777344 6.457032 2.054687 12.074219 7.925781 15.027344 15.699219 3.019531 7.941406 3.167969 16.675781 2.914062 24.167968-.082031 2.480469-.222656 5.019532-.355468 7.476563-.339844 6.203125-.691406 12.613281-.226563 19.03125.042969.617187.238281 1.1875.523438 1.691406-14.613281 12.5625-27.25 27.125-37.640625 43.375zm64.148437-38.847656c1.628907 6.523437-.730469 14.207031-5.863281 19.113281-4.296875 4.109375-9.710938 6.304688-15.515625 6.375 1.429687-8.078125 2.523437-16.378906 3.28125-24.898437.078125-.117188.15625-.238281.222656-.371094 2.132813-4.25 4.042969-8.476563 5.746094-12.679687 5.703125 1.515624 10.636719 6.46875 12.128906 12.460937zm-118.84375-146.367187c-6.636719-4.878907-10.367187-13.953126-9.285156-22.578126 1.046875-8.347656 6.457031-16.417968 14.125-21.066406 7.363281-4.464844 16.820313-5.980468 25.945313-4.164062 10.585937 2.105468 22.066406 10.25 23.519531 21.738281 1.097656 8.671875-3.25 17.113281-8.726563 26.402344-12.363281-2.371094-25.492187-2.5-38.699218-.320313-1.851563.308594-3.808594.683594-5.835938 1.132813-.261719-.433594-.609375-.824219-1.042969-1.144531zm-53.328125 63.609374c5.011719-15.640624 10.558594-26.203124 17.976563-34.25 12.757812-13.835937 30.722656-19.269531 43.546875-21.390624 17.433594-2.882813 34.679687-1.449219 49.863281 4.144531 16.253906 5.988281 29.980469 16.789062 38.65625 30.410156 8.765625 13.753906 12.949219 31.46875 11.789063 49.878906-.753907 11.984375-3.707032 24.488281-8.789063 37.3125.078125-2.671875.222656-5.378906.375-8.152343.136719-2.5.28125-5.085938.367187-7.648438.261719-7.8125.109376-17.972656-3.4375-27.304688-3.820312-10.050781-11.339843-17.722656-20.113281-20.519531-11.238281-3.578125-23.019531.726563-33.179687 5.039063-8.789063 3.734375-18.753906 7.964844-27.773438 5.757812-2.667968-.652344-5.265625-1.871094-8.015625-3.15625-2.578125-1.207031-5.246093-2.457031-8.160156-3.320312-10.507813-3.121094-22.898437-.445313-32.324219 6.980468-8.058594 6.347657-14.175781 16.152344-17.21875 27.609376-1.839844 6.925781-2.671875 14.460937-2.546875 23.273437-4.304687-7.453125-6.847656-16.5-7.296875-26.332031-.511718-11.179688 1.484375-23.359375 6.28125-38.332032zm0 100.960938c-4.785156 2.273438-11.222656.800781-14.980468-3.425781-3.671876-4.128907-4.789063-10.683594-2.785157-16.3125 1.882813-5.269531 6.339844-9.796875 11.988281-12.214844 1.972657 3.367187 4.253907 6.472656 6.839844 9.238281.304688.324219.65625.574219 1.027344.773438-1.058594 7.25-1.085938 14.6875-.644531 21.570312-.488281.03125-.976563.148438-1.445313.371094zm11.226563 14.566406c-1.238281-8.15625-2.585938-19.371094-1.726563-30.351562 3.457032 5.097656 6.527344 10.917968 9.53125 16.609375 1.15625 2.191406 2.285156 4.332031 3.40625 6.375 4.265625 7.75 8.863282 14.324219 13.304688 20.257812-.046875.066407-.089844.136719-.140625.203125-.546875.734375-1.074219 1.480469-1.582031 2.238282-.085938.132812-.171876.265624-.257813.398437-.457031.699219-.898437 1.410156-1.324219 2.128906-.070312.125-.148437.246094-.21875.367188-.453125.785156-.882812 1.582031-1.289062 2.386719-.09375.175781-.183594.355468-.269532.535156-.410156.828125-.804687 1.660156-1.167968 2.503906-.605469 1.410156-2.449219 5.699219.054687 9.363281 1.785157 2.644531 4.84375 3.339844 6.148438 3.632813 12.054687 2.738281 28.628906.296875 39.222656-9.207032.597656.535157 1.21875 1.039063 1.851563 1.53125.1875.144532.375.28125.5625.421876.480468.359374.96875.703124 1.46875 1.035156.191406.128906.378906.257812.570312.382812.675781.429688 1.359375.847656 2.0625 1.238282.015625.007812.03125.015624.046875.027343.691406.378907 1.394531.734375 2.105469 1.074219.207031.101562.417968.195312.625.289062.558594.257813 1.121094.5 1.691406.734376.199219.082031.402344.164062.601562.242187.757813.296875 1.523438.578125 2.296876.832031.015624.003906.03125.011719.046874.015625.753907.246094 1.515626.46875 2.28125.675781.210938.058594.421876.113282.632813.167969.613281.15625 1.226563.300781 1.84375.4375.195313.039063.386719.085938.582031.125.800782.164063 1.605469.3125 2.40625.4375.019532.003907.042969.003907.0625.007813.773438.117187 1.546875.214844 2.320313.296875.207031.019531.410156.039062.617187.058593.625.058594 1.25.105469 1.875.140626.183594.011718.371094.023437.558594.03125.761719.035156 1.527344.058593 2.28125.058593h.074219c.320312 0 .628906-.019531.945312-.027343.535157-.011719 1.074219-.015626 1.601563-.042969.339844-.019531.667968-.054688 1-.082031.496094-.035157.996094-.066407 1.484375-.117188.417969-.046875.824219-.113281 1.238281-.167969.390625-.054687.789062-.097656 1.171875-.160156.789063-.132813 1.5625-.28125 2.320313-.453125.324218-.074219.761718-.175781 1.257812-.320312 1.492188-.445313 3.542969-1.328126 4.875-3.296876 1.257812-1.84375 1.425781-3.839843 1.203125-5.546874-.003906-.042969-.011719-.085938-.019531-.128907-.023438-.167969-.050782-.335937-.078125-.496093-.273438-1.425782-.773438-2.59375-1.039063-3.210938-.386718-.898438-.808594-1.78125-1.246094-2.660156-.085937-.171875-.171874-.34375-.261718-.515625-.433594-.847657-.890625-1.683594-1.375-2.503907-.089844-.15625-.183594-.308593-.273438-.460937-.480468-.796875-.976562-1.585937-1.496094-2.363281-.046874-.066406-.085937-.132813-.132812-.199219-.550781-.816406-1.136719-1.613281-1.738281-2.402344-.0625-.085937-.121094-.175781-.1875-.261719 8.875-14.242187 19.523437-27.160156 31.761719-38.539062-3.398438 30.367188-11.277344 57.746094-23.464844 81.507812-4.75 9.28125-12.46875 22.246094-24.589844 27.707032-9.28125 4.179687-21.296875 3.871094-32.972656-.839844-14.527344-5.878906-27.191406-17.496094-36.480469-33.246094-.191406-.695312-.542969-1.304687-1.019531-1.789062-1.644532-2.917969-3.1875-5.957032-4.597656-9.136719-5.277344-11.949219-9.097657-25.070313-11.042969-37.949219zm16.363281 62.871094c9.316406 12.28125 20.847656 21.5 33.761719 26.726562 7.167969 2.890626 14.503906 4.34375 21.484375 4.34375 6.367187 0 12.441406-1.207031 17.816406-3.628906 11.75-5.292968 19.710938-15.902344 25.125-25.253906 3.054688 9.773438 10.488281 18.046875 16.957031 23.75-5.566406 4.226562-12.078125 7.066406-18.96875 10.046875-1.796875.777344-3.59375 1.554687-5.371093 2.355469-8.375 3.78125-18.769532 9.339844-24.867188 18.8125-4.671875 7.25-6.253906 15.789062-7.648438 23.324218l-3.78125 20.417969c-.640624 3.457031-1.429687 3.878907-1.4375 3.886719-.410156-.078125-1.757812-1.230469-3.066406-4.164062l-12.3125-27.609376c-2.992187-6.710937-6.382812-14.316406-12.480468-19.953124-4.9375-4.5625-11.121094-7.296876-16.574219-9.703126l-27.945313-12.347656c.289063-.242187.578125-.476562.863282-.726562 8.171874-7.152344 15.835937-18.742188 18.445312-30.277344zm-31.097656 97.511719c-.035156-.253907-.0625-.550781-.085938-.910157-1.207031-20.09375.46875-40.21875 4.980469-59.832031l31.578125 13.953125c3.1875 1.410156 6.441406 2.847656 9.394531 4.613282-17.394531 11.003906-32.558593 24.867187-45.078125 41.230468-.304687.398438-.566406.707032-.789062.945313zm-72.535156 100.664062c-2.25-2.265625-2.304688-6.554687-2.167969-10.757812.644531-19.726563 1.519531-39.722657 2.605469-59.425781 1.167968-21.136719 3.210937-41.308594 15.21875-55.78125 8.421874-10.148438 21.238281-16.378907 32.59375-21.425782 1.25-.554687 2.507812-1.109375 3.769531-1.664062 5.378906-2.367188 10.84375-4.777344 16.136719-7.542969-3.605469 18.261719-4.871094 36.898437-3.753907 55.507813.355469 5.960937 3.085938 8.113281 5.308594 8.867187.648437.222656 1.394531.375 2.210937.375 2.195313 0 4.925782-1.089844 7.808594-4.863281 12.21875-15.972656 27.078125-29.453125 44.160156-40.066406.390626-.242188.710938-.546876.984376-.882813 3.992187 4.382813 6.582031 10.160156 9.085937 15.773437l12.316406 27.613282c1.714844 3.84375 3.910157 6.515625 6.378907 7.886718-2.632813 30.183594-4.125 60.84375-4.425782 91.140626l-94.15625-1.574219c1.125-22.484375.070313-45.15625-3.1875-67.433594-.324218-2.199219-2.367187-3.722656-4.574218-3.40625-2.203126.324219-3.726563 2.371094-3.40625 4.574219 3.195312 21.84375 4.226562 44.078125 3.105468 66.132812l-35.816406-.601562c-4-.066406-8.082031-.3125-10.195312-2.445313zm304.476562-8.171875c-.421875 5.246094-1.167969 11.054688-4.730469 13.550782-2.453125 1.722656-6.109375 1.800781-10.285156 1.734374l-32.105469-.535156c-.59375-25.847656.875-51.90625 4.425782-77.511718.304687-2.203126-1.234376-4.242188-3.441407-4.546876-2.214843-.3125-4.242187 1.238282-4.546875 3.441407-3.59375 25.921875-5.089844 52.308593-4.503906 78.480469l-92.996094-1.554688c.300782-30.269531 1.789063-60.910156 4.433594-91.0625.007812-.078125-.003906-.152344 0-.230469 4.027344-2.300781 4.996094-7.53125 5.34375-9.40625l3.78125-20.417969c1.175781-6.363281 2.394531-12.914062 5.347656-18.453124 11.496094 11.941406 22.238282 24.761718 31.945313 38.179687.757812 1.046875 1.972656 1.667969 3.265625 1.667969.035156 0 .070312 0 .105468-.003906 1.332032-.03125 2.558594-.722657 3.28125-1.839844 12.6875-19.628906 18.464844-43.917969 16.113282-67.191406 5.9375 3.78125 12.230468 6.941406 18.339844 10.007812 8.308593 4.164062 16.152343 8.09375 23.160156 13.453125 16.757812 12.808594 28.4375 34.1875 32.886718 60.195313 4.058594 23.710937 2.085938 48.28125.179688 72.042968zm0 0"/></svg>