<svg height="512pt" viewBox="-90 0 512 512.00117" width="512pt" xmlns="http://www.w3.org/2000/svg"><path d="m265.214844 507.851562.363281-4.316406c2.90625-34.5 4.164063-69.4375 3.734375-103.84375.371094 34.585938-.902344 69.742188-3.84375 104.488282l-.3125 3.675781-199.8125-.851563.191406-4.164062c1.746094-37.988282 1.347656-76.386719-1.183594-114.128906 2.476563 37.859374 2.867188 76.371093 1.105469 114.457031l-.175781 3.828125-17.117188-.0625-1.03125-.011719c-12.800781-.054687-27.125-.953125-34.835937-11.003906-5.128906-6.695313-5.730469-15.886719-6.21875-23.273438-1.882813-28.460937-3.832031-57.894531 1.089844-86.570312 5.460937-31.839844 19.503906-58.546875 39.535156-75.195313 2.761719-2.308594 5.847656-4.585937 9.421875-6.964844l4.375-2.914062 1.640625 4.996094c18.1875 55.3125 54.785156 103.664062 103.042969 136.148437 2.785156 1.875 6.039062 3.878907 9.40625 3.878907.335937 0 .683594-.019532 1.03125-.0625 3.480468-.40625 6.222656-2.835938 8.953125-5.507813 38.980469-38.117187 71.113281-82.164063 95.519531-130.921875l2.558594-5.109375 3.925781 4.152344c16.507813 17.457031 28.535156 40.3125 34.78125 66.097656 7.066406 29.152344 7.4375 61.832031 1.164063 102.847656-1.28125 8.363281-3.027344 17.019531-8.96875 22.816407-7.199219 7.023437-18.304688 7.609374-28.152344 7.609374zm0 0" fill="#935252"/><path d="m171.03125 404.972656c-7.601562-26.277344-11.574219-53.519531-11.808594-80.96875l-.128906-15.09375 7.585938 13.050782c.742187 1.273437 1.464843 2.375 2.210937 3.367187 4.132813 5.550781 9.773437 9.105469 15.488281 9.757813.703125.085937 1.40625.125 2.105469.125 6.445313 0 13.425781-3.390626 20.1875-9.804688 13.148437-12.476562 21.230469-30.132812 22.167969-48.441406l.351562-6.875 5.800782 3.710937c4.886718 3.128907 10.0625 5.898438 15.375 8.691407l.257812.136718c1.414062.75 2.847656 1.507813 4.28125 2.277344l3.894531 2.089844-78.039062 115.851562c-.890625 1.308594-1.933594 2.792969-3.15625 3.9375l-4.761719 4.449219zm0 0" fill="#ff8984"/><path d="m162.960938 403.402344c-35.484376-29.558594-63.625-67.722656-81.378907-110.363282l-1.355469-3.25 3.050782-1.757812c6.105468-3.507812 10.898437-6.550781 15.085937-9.574219l6.546875-4.726562-.207031 8.074219c-.246094 9.5.039063 20.535156 4.015625 30.34375 4.144531 10.21875 14.070312 20.53125 26.898438 20.53125h.003906c.570312 0 1.140625-.023438 1.6875-.074219 6.949218-.625 12.023437-4.457031 15.050781-7.558594l6.667969-6.824219.195312 9.535156c.492188 24.117188 3.910156 48.1875 10.164063 71.539063l3.257812 12.175781zm0 0" fill="#ff8984"/><path d="m186.5 335.15625c-.703125 0-1.414062-.042969-2.109375-.121094-5.703125-.671875-11.332031-4.21875-15.441406-9.730468-3.652344-4.898438-5.738281-10.632813-7.148438-15.085938l-1.652343-5.207031h5.605468c.78125 0 1.5625-.007813 2.34375-.039063 20.203125-.734375 40.628906-11.292968 53.3125-27.558594l8.488282-10.894531-1.355469 13.746094c-1.683594 17.042969-9.671875 33.480469-21.917969 45.097656-4.710938 4.46875-12.027344 9.789063-20.125 9.792969zm0 0" fill="#ffb3b3"/><path d="m135.367188 332.621094c-12.5625 0-22.59375-10.625-26.59375-20.496094-3.90625-9.65625-4.226563-20.378906-4.019532-29.59375l.234375-10.457031 6.804688 7.945312c11.449219 13.371094 28.105469 22.289063 45.703125 24.472657l4.414062.546874-1.011718 4.332032c-3.460938 14.785156-14.660157 22.371094-23.605469 23.164062-.632813.058594-1.285157.085938-1.925781.085938zm0 0" fill="#ffb3b3"/><path d="m75.304688 146.179688c0-4.445313-.070313-8.808594-.140626-13.035157-.265624-17.109375-.515624-33.222656 3.359376-50.003906 4.09375-17.703125 13.210937-42.390625 33.441406-59.445313 15.007812-12.667968 34.738281-19.640624 55.554687-19.640624 7.777344 0 15.496094.996093 22.941407 2.957031 26.007812 6.871093 49.628906 25.890625 63.1875 50.882812 14.207031 26.191407 13.363281 56.488281 10.15625 77.296875l-.773438 5.011719-4.691406-1.917969c-2.109375-.859375-4.40625-1.316406-6.640625-1.316406-.820313 0-1.640625.058594-2.433594.179688l-5.601563.84375 1.082032-5.5625c1.976562-10.148438.804687-15.808594-3.917969-18.929688-9.515625-6.28125-23.425781-9.199219-34.605469-11.542969l-1.246094-.253906c-12.582031-2.644531-25.859374-3.980469-39.488281-3.980469-11.914062 0-23.996093 1.027344-35.90625 3.054688-10.28125 1.738281-20.523437 4.300781-30.453125 7.617187-3.386718 1.136719-6.625 2.363281-8.953125 4.835938-4.417969 4.6875-3.855469 12-2.609375 17.308593.3125 1.304688.667969 2.613282 1.011719 3.878907l.085937.316406c.824219 3.023437 1.664063 6.089844 1.941407 9.132813l.371093 4.019531-4.019531.332031c-2.027343.171875-4.042969.707031-5.984375 1.601562l-5.667968 2.601563zm0 0" fill="#d34242"/><path d="m256.722656 285.824219c-2.117187-1.152344-4.242187-2.285157-6.328125-3.386719-7.957031-4.199219-15.414062-8.136719-22.210937-13.535156-9.753906-7.757813-19.964844-21.988282-16.878906-36.726563v-1.699219l1.769531-1.1875c16.863281-11.320312 28.121093-30.445312 29.378906-49.90625l.238281-3.703124 3.710938-.039063c3.414062-.035156 6.855468-.792969 9.953125-2.195313l5.535156-2.503906.113281 6.074219c.320313 17.226563.308594 34.839844.300782 51.878906-.023438 18.265625-.011719 36.089844.328124 53.335938l.136719 6.886719zm0 0" fill="#d34242"/><path d="m76.324219 285.125c-.605469-33.457031-.417969-67.261719.550781-100.472656l.160156-5.480469 5.171875 1.828125c1.941407.6875 3.972657 1.035156 6.027344 1.035156 1.242187 0 2.476563-.132812 3.660156-.390625l3.402344-.746093 1.207031 3.265624c5.574219 15.058594 14.867188 28.28125 26.871094 38.238282l1.226562 1.019531.210938 1.765625c5.171875 21.023438-10.519531 41.449219-25.554688 52.550781-5.792968 4.273438-12.101562 8.007813-16.949218 10.785157l-5.863282 3.359374zm0 0" fill="#d34242"/><path d="m174.617188 445.953125c-3.398438 0-6.507813-1.910156-9.402344-3.867187-48.855469-32.878907-85.664063-81.910157-103.640625-138.054688l-.96875-3.023438 2.726562-1.628906c3.878907-2.320312 7.769531-4.496094 11.894531-6.796875l4.929688-2.753906 1.734375 4.121094c18.132813 43.121093 46.835937 81.554687 83.003906 111.148437 1.636719 1.339844 4.671875 3.832032 7.917969 3.832032.390625 0 .789062-.039063 1.1875-.113282 3.234375-.628906 5.382812-3.820312 6.804688-5.9375l78.046874-115.851562 3.246094 1.917968c1.03125.609376 2.054688 1.21875 3.054688 1.847657 5.226562 3.300781 10.332031 7.222656 15.1875 11.652343l1.304687 1.191407v2.875l-.503906.839843c-24.550781 49.617188-57.046875 94.371094-96.609375 133.058594-2.71875 2.65625-5.445312 5.074219-8.910156 5.484375-.332032.039063-.667969.058594-1.003906.058594zm0 0" fill="#af7979"/><g fill="#ffdac4"><path d="m200.023438 167.515625c-7.097657 0-13.921876-2.714844-18.726563-7.445313-6.1875-6.085937-8.804687-13.898437-7.363281-22 1.667968-9.394531 8.542968-17.882812 17.945312-22.152343 2.832032-1.296875 5.800782-1.957031 8.8125-1.957031 5.3125 0 9.644532 2.050781 12.339844 3.765624 7.851562 5.019532 12.953125 14.160157 13.011719 23.300782.070312 10.003906-6.152344 19.925781-15.132813 24.128906-3.300781 1.542969-7.0625 2.359375-10.886718 2.359375zm0 0"/><path d="m135.125 167.519531c-3.824219 0-7.59375-.816406-10.898438-2.367187-8.96875-4.195313-15.191406-14.117188-15.132812-24.125.058594-9.144532 5.167969-18.289063 13.019531-23.300782 2.671875-1.710937 6.988281-3.761718 12.328125-3.761718 3.007813 0 5.972656.65625 8.820313 1.957031 9.398437 4.261719 16.273437 12.75 17.941406 22.148437 1.015625 5.734376.5625 14.203126-7.363281 22-4.792969 4.734376-11.613282 7.449219-18.714844 7.449219zm0 0"/><path d="m173.703125 240.757812c-11.800781.003907-23.59375-2.722656-34.101563-7.875-20.34375-9.972656-36.910156-29.566406-44.3125-52.40625-2.160156.972657-4.585937 1.5-7.0625 1.5-4.765624 0-9.289062-1.851562-12.402343-5.089843-4.890625-5.074219-6.078125-13.292969-2.832031-19.546875 2.828124-5.449219 8.949218-9.113282 15.234374-9.113282.800782 0 1.601563.0625 2.378907.183594.59375-4.652344-.609375-9.042968-1.882813-13.691406-.363281-1.300781-.75-2.726562-1.09375-4.191406-1.242187-5.300782-1.796875-12.59375 2.582032-17.246094 2.339843-2.480469 5.566406-3.695312 8.945312-4.824219 9.886719-3.308593 20.128906-5.875 30.433594-7.628906 11.910156-2.019531 23.980468-3.042969 35.878906-3.042969 13.628906 0 26.910156 1.335938 39.476562 3.972656l1.1875.253907c11.183594 2.335937 25.113282 5.246093 34.65625 11.542969 7.042969 4.648437 4.757813 15.074218 3.089844 22.683593l-.074218.34375c-.222657 1.027344-.4375 2.003907-.613282 2.921875 2.433594-1.578125 5.347656-2.433594 8.476563-2.433594 5.390625 0 10.632812 2.550782 13.683593 6.65625 4.886719 6.578126 4.613282 16.316407-.648437 23.15625-4.121094 5.363282-11.242187 8.691407-18.578125 8.691407-1.207031 0-2.417969-.089844-3.597656-.265625.15625 23.007812-13.902344 46.003906-35.011719 57.253906-10.058594 5.363281-21.75 8.195312-33.8125 8.195312zm-.417969-97.046874.632813 3.230468c.949219 4.832032 3.480469 9.390625 7.332031 13.179688 4.835938 4.761718 11.65625 7.488281 18.714844 7.488281 3.824218 0 7.617187-.828125 10.972656-2.398437 9.140625-4.28125 15.234375-14 15.164062-24.183594-.050781-9.164063-5.164062-18.328125-13.027343-23.34375-3.847657-2.464844-8.117188-3.765625-12.363281-3.765625-3.046876 0-6.027344.652343-8.859376 1.941406-9.417968 4.273437-16.304687 12.78125-17.976562 22.199219-.109375.644531-.195312 1.296875-.257812 1.960937l-.335938 3.628907h-11.367188l-.378906-3.578126c-.066406-.648437-.144531-1.335937-.265625-1.996093-1.679687-9.433594-8.566406-17.941407-17.980469-22.210938-2.832031-1.292969-5.8125-1.945312-8.863281-1.945312-4.238281 0-8.511719 1.296875-12.359375 3.753906-7.855468 5.023437-12.972656 14.195313-13.03125 23.355469-.070312 10.183594 6.023438 19.902344 15.167969 24.179687 3.351563 1.570313 7.148437 2.402344 10.980469 2.402344 7.058594 0 13.875-2.726563 18.703125-7.488281 3.90625-3.84375 6.371093-8.277344 7.332031-13.179688l.632812-3.230468zm0 0"/><path d="m165.769531 304.949219c-22.675781 0-44.824219-11.476563-57.800781-29.949219l-1.917969-2.734375 2.347657-2.375c6.777343-6.859375 18.054687-20.882813 17.449218-37.695313l-.273437-7.574218 6.40625 4.050781c2.519531 1.589844 5.078125 3.027344 7.601562 4.273437 10.484375 5.136719 22.285157 7.855469 34.121094 7.855469 11.011719 0 21.8125-2.382812 31.246094-6.890625l5.777343-2.757812-.054687 6.398437c-.078125 9.675781 5.121094 20.105469 14.265625 28.621094l2.390625 2.226563-1.699219 2.785156c-11.996094 19.652344-34.578125 32.890625-57.527344 33.722656-.78125.03125-1.558593.042969-2.332031.042969zm0 0"/></g><path d="m122.503906 168.832031c3.996094 1.871094 8.339844 2.777344 12.675782 2.777344 7.90625 0 15.792968-3.003906 21.515624-8.640625 4.488282-4.421875 7.351563-9.644531 8.449219-15.253906h4.851563c1.097656 5.609375 3.960937 10.832031 8.453125 15.253906 5.71875 5.636719 13.609375 8.640625 21.511719 8.640625 4.335937 0 8.683593-.90625 12.675781-2.777344 10.527343-4.933593 17.550781-16.121093 17.472656-27.835937-.066406-10.476563-5.910156-20.953125-14.882813-26.691406-7.820312-5-16.941406-5.761719-25.027343-2.089844-10.601563 4.816406-18.363281 14.453125-20.261719 25.144531-.136719.765625-.226562 1.527344-.304688 2.289063h-4.121093c-.078125-.761719-.167969-1.519532-.304688-2.285157-1.898437-10.691406-9.660156-20.328125-20.261719-25.148437-8.082031-3.671875-17.203124-2.910156-25.027343 2.089844-8.972657 5.738281-14.816407 16.214843-14.882813 26.691406-.078125 11.71875 6.941406 22.902344 17.46875 27.835937zm55.371094-30.0625c1.441406-8.113281 7.441406-15.476562 15.660156-19.210937 2.53125-1.152344 4.945313-1.59375 7.15625-1.59375 4.425782 0 8.046875 1.761718 10.191406 3.136718 6.730469 4.300782 11.113282 12.132813 11.164063 19.949219.054687 8.492188-5.222656 16.917969-12.832031 20.480469-8.144532 3.816406-18.703125 2.007812-25.109375-4.304688-6.6875-6.585937-7.078125-13.671874-6.230469-18.457031zm-53.617188-17.671875c3.21875-2.054687 9.753907-4.996094 17.351563-1.539062 8.21875 3.734375 14.214844 11.097656 15.65625 19.214844.847656 4.78125.457031 11.867187-6.226563 18.453124-6.40625 6.3125-16.96875 8.121094-25.113281 4.304688-7.609375-3.566406-12.886719-11.988281-12.832031-20.480469.050781-7.816406 4.433594-15.648437 11.164062-19.953125zm0 0"/><path d="m325.3125 373.710938c-9.035156-37.289063-30.171875-68.761719-57.980469-86.34375-.175781-.113282-.359375-.214844-.535156-.324219-.460937-19.164063-.449219-38.980469-.433594-58.144531.011719-18.863282.023438-38.351563-.414062-57.285157.703125-.710937 1.363281-1.464843 1.972656-2.257812 6.351563-8.253907 6.640625-20.054688.6875-28.054688-.441406-.59375-.921875-1.148437-1.417969-1.679687 3.964844-22.570313 5.410156-55.308594-9.976562-83.671875-14.085938-25.957031-38.652344-45.722657-65.714844-52.859375-28.859375-7.617188-60.339844-.910156-82.152344 17.496094-21.09375 17.796874-30.554687 43.34375-34.777344 61.636718-3.988281 17.28125-3.734374 33.652344-3.464843 50.984375.089843 5.660157.183593 11.511719.109375 17.355469-.007813.578125.113281 1.125.324218 1.625-.820312 1.019531-1.542968 2.113281-2.152343 3.28125-4.023438 7.75-2.546875 17.941406 3.511719 24.234375.074218.074219.152343.144531.226562.21875-.121094.363281-.207031.742187-.21875 1.140625-1.097656 35.90625-1.289062 72.324219-.578125 108.242188.003906.078124.023437.152343.027344.226562-9.625 5.375-19.523438 10.964844-28.25 18.21875-20.773438 17.261719-35.3125 44.835938-40.941407 77.640625-4.996093 29.140625-3.035156 58.816406-1.140624 87.519531.523437 7.933594 1.175781 17.804688 7.054687 25.472656 8.414063 10.96875 23.265625 12.542969 38.058594 12.605469l237.027343 1.011719h1.105469c11.363281 0 23-.84375 31.117188-8.75 6.84375-6.667969 8.828125-16.464844 10.15625-25.121094 6.355469-41.554687 5.964843-74.734375-1.230469-104.417968zm-47.664062-68.3125c-.007813.011718-.019532.023437-.027344.039062-24.339844 49.253906-56.601563 93.703125-95.890625 132.109375-2.207031 2.160156-4.367188 4.117187-6.574219 4.375-2.394531.273437-5.113281-1.402344-7.703125-3.148437-48.207031-32.449219-84.359375-80.65625-102.066406-135.964844 3.824219-2.285156 7.761719-4.488282 11.796875-6.742188.339844-.1875.679687-.378906 1.019531-.566406 18.386719 43.730469 47.425781 82.640625 84.15625 112.6875 1.96875 1.609375 5.800781 4.746094 10.449219 4.746094.632812 0 1.285156-.058594 1.949218-.1875 4.863282-.949219 7.679688-5.132813 9.367188-7.632813l75.941406-112.726562c.996094.589843 1.988282 1.179687 2.953125 1.792969 5.132813 3.246093 10.019531 7.007812 14.628907 11.21875zm-198.945313-131.289063c-3.671875-3.8125-4.601563-10.230469-2.160156-14.925781 2.4375-4.699219 8.21875-7.632813 13.453125-6.820313 1.082031.164063 2.183594-.109375 3.054687-.769531.871094-.660156 1.433594-1.648438 1.566407-2.730469.648437-5.390625-.71875-10.378906-2.035157-15.207031-.382812-1.398438-.746093-2.722656-1.058593-4.046875-.835938-3.550781-1.734376-10.042969 1.605468-13.585937 1.695313-1.800782 4.417969-2.8125 7.292969-3.777344h.003906c9.679688-3.238282 19.71875-5.753906 29.839844-7.472656 25.160156-4.269532 50.699219-3.960938 73.855469.894531l1.183594.25c10.867187 2.273437 24.390624 5.101562 33.285156 10.972656 4.398437 2.90625 3.226562 10.09375 1.382812 18.488281-.261718 1.191406-.511718 2.324219-.710937 3.367188-.3125 1.601562.375 3.234375 1.738281 4.132812 1.363281.898438 3.132812.886719 4.484375-.03125 4.945313-3.359375 12.882813-1.800781 16.65625 3.269532 3.78125 5.078124 3.519531 12.957031-.609375 18.324218-3.988281 5.1875-11.386719 7.96875-18.402344 6.914063-1.171875-.175781-2.351562.167969-3.242187.941406s-1.398438 1.898437-1.386719 3.078125c.171875 21.523438-13.039062 43.085938-32.867188 53.65625-19.152343 10.207031-43.777343 10.308594-64.265624.257812-19.40625-9.511718-35.207032-28.222656-42.269532-50.050781-.359375-1.101562-1.171875-2-2.238281-2.457031-.507813-.222656-1.054687-.332031-1.597656-.332031-.589844 0-1.175781.128906-1.722657.386719-4.785156 2.257812-11.164062 1.089843-14.835937-2.726563zm59.113281 62.417969c11.253906 5.519531 23.644532 8.273437 35.882813 8.273437 11.480469 0 22.828125-2.433593 32.972656-7.277343-.101563 12.421874 7.132813 23.75 15.539063 31.582031-11.339844 18.574219-32.507813 31.019531-54.257813 31.804687-21.929687.78125-44.105469-10.265625-56.710937-28.210937 10.515624-10.636719 19.164062-25.15625 18.597656-40.652344 2.578125 1.632813 5.238281 3.136719 7.976562 4.480469zm37.050782 167.332031c-7.511719-26.003906-11.417969-52.847656-11.640626-79.886719.746094 1.285156 1.5625 2.546875 2.464844 3.761719 4.785156 6.410156 11.429688 10.542969 18.234375 11.332031.847657.097656 1.703125.148438 2.5625.144532 7.5 0 15.375-3.730469 22.9375-10.90625 13.886719-13.175782 22.429688-32.007813 23.410157-51.136719 5.105468 3.277343 10.441406 6.109375 15.664062 8.867187 1.496094.785156 3 1.589844 4.507812 2.398438l-75.570312 112.175781c-.792969 1.179687-1.667969 2.414063-2.570312 3.25zm-66.117188-121.242187c12.105469 14.128906 29.777344 23.550781 48.25 25.847656-2.863281 12.265625-12.144531 19.386718-20.058594 20.089844-10.875.964843-20.546875-8.28125-24.457031-17.929688-3.519531-8.691406-3.9375-18.59375-3.734375-28.007812zm56.867188 26.394531c.046874 0 .089843.003906.136718.003906.832032 0 1.660156-.015625 2.488282-.046875 21.734374-.785156 42.949218-11.945312 56.316406-29.101562-1.578125 16.011718-9.023438 31.53125-20.683594 42.589843-4.628906 4.394531-11.683594 9.453125-19.019531 8.597657-4.609375-.53125-9.238281-3.5-12.699219-8.140626-3.101562-4.164062-5.0625-9.234374-6.539062-13.902343zm-60.601563 4.636719c6.945313 17.144531 21.792969 23.902343 32.644531 22.9375 6.96875-.621094 12.933594-4.007813 17.558594-8.738282.507812 24.492188 3.960938 48.804688 10.300781 72.484375-35.035156-29.195312-62.714843-66.730469-80.246093-108.828125 5.25-3.023437 10.472656-6.222656 15.429687-9.804687-.265625 10.441406.125 21.621093 4.3125 31.949219zm147.25-34.746094c-7.753906-4.089844-15.078125-7.957032-21.589844-13.132813-8.9375-7.109375-18.328125-20.046875-15.378906-33.117187.003906-.011719.003906-.027344.003906-.042969 17.859375-11.992187 29.804688-32.210937 31.136719-52.96875 4.035156-.039063 7.988281-.933594 11.5625-2.546875.320312 17.167969.3125 34.742188.296875 51.800781-.011719 17.582031-.019531 35.703125.335937 53.414063-2.132812-1.160156-4.265624-2.296875-6.367187-3.40625zm-169.84375-194.863282c3.949219-17.101562 12.726563-40.925781 32.121094-57.289062 19.839843-16.742188 48.542969-22.820312 74.898437-15.867188 24.953125 6.585938 47.640625 24.871094 60.6875 48.914063 13.484375 24.851563 12.96875 53.707031 9.722656 74.785156-3.550781-1.453125-7.453124-1.953125-11.179687-1.390625 1.539063-7.910156 2.347656-17.753906-5.640625-23.027344-10.179688-6.71875-24.539062-9.726562-36.078125-12.140624l-1.179687-.246094c-24.132813-5.0625-50.710938-5.394532-76.859376-.953125-10.527343 1.789062-20.976562 4.40625-31.050781 7.777343-3.734375 1.25-7.628906 2.734376-10.605469 5.894532-4.457031 4.726562-5.695312 11.976562-3.582031 20.957031.34375 1.46875.742188 2.925781 1.125 4.332031.800781 2.925782 1.570313 5.738282 1.828125 8.449219-2.53125.203125-5.019531.882813-7.328125 1.949219 0-4.433594-.066406-8.824219-.132812-13.101563-.261719-16.828125-.511719-32.722656 3.253906-49.042969zm10.332031 101.515626c5.859375 15.824218 15.648438 29.625 28.066406 39.921874.019532.171876.03125.34375.074219.511719 4.792969 19.203125-9.941406 38.144531-24.011719 48.53125-5.207031 3.84375-10.867187 7.273438-16.5625 10.53125-.597656-33.304687-.414062-66.996093.546876-100.28125 3.792968 1.339844 7.964843 1.640625 11.886718.785157zm225.816406 291.355468c-1.179687 7.703125-2.753906 15.636719-7.808593 20.5625-6.203125 6.042969-16.496094 6.523438-26.5625 6.464844l-14.632813-.0625c2.902344-34.546875 4.175782-69.59375 3.75-104.234375-.027344-2.226563-1.871094-4.007813-4.078125-3.984375-2.226562.027344-4.011719 1.855469-3.984375 4.082031.425782 34.601563-.855468 69.605469-3.773437 104.101563l-191.949219-.820313c1.746094-38.050781 1.355469-76.59375-1.183594-114.582031-.148437-2.222656-2.082031-3.902344-4.292968-3.753906-2.21875.148437-3.898438 2.070312-3.753907 4.289062 2.53125 37.804688 2.914063 76.152344 1.160157 114.011719l-13.28125-.054687-1.007813-.003907c-11.871094-.050781-25.085937-.828125-31.695313-9.449219-4.394531-5.726562-4.957031-14.25-5.410156-21.097656-1.863281-28.234375-3.792968-57.425781 1.042969-85.625 5.304687-30.910156 18.851563-56.769531 38.148437-72.804687 2.90625-2.417969 5.945313-4.617188 9.082032-6.707031 18.480468 56.203124 55.480468 105.148437 104.609375 138.222656 3.3125 2.230468 7.171875 4.550781 11.644531 4.550781.492188 0 .992188-.027344 1.496094-.085937 4.726562-.550782 8.164062-3.570313 11.277344-6.617188 39.316406-38.4375 71.699218-82.84375 96.308593-131.988281 15.800781 16.71875 27.691407 39.070312 33.800781 64.289062 6.941407 28.625 7.285157 60.816407 1.09375 101.296875zm0 0"/></svg>