<svg height="511pt" viewBox="-84 0 511 511.99944" width="511pt" xmlns="http://www.w3.org/2000/svg"><path d="m171.804688 353.386719c-.140626-.125-.28125-.265625-.457032-.4375-5.546875-5.46875-10.894531-11.582031-15.867187-18.152344l-1.894531-2.496094 1.96875-2.4375c5.304687-6.558593 10.445312-13.417969 15.285156-20.394531l3.433594-4.949219 3.230468 5.085938c4.507813 7.105469 9.277344 14.210937 14.167969 21.125l2.144531 3.023437s-2.863281 2.371094-2.867187 2.375c-3.824219 5.921875-8.265625 11.523438-13.199219 16.652344-.265625.269531-.441406.441406-.589844.574219l-2.664062 2.429687zm0 0" fill="#ed6d66"/><path d="m173.03125 410.214844c-4.902344-8.132813-9.757812-16.769532-14.4375-25.671875l-.855469-1.632813.683594-1.714844c3.242187-8.117187 7.519531-15.824218 12.71875-22.910156l2.976563-4.054687 3.28125 3.808593c5.257812 6.105469 9.792968 12.789063 13.476562 19.863282l2.289062 1.886718-1.144531 2.726563c-3.78125 9.097656-7.792969 18.28125-11.925781 27.300781l-3.15625 6.886719zm0 0" fill="#ed6d66"/><path d="m200.765625 343.050781c-8.722656-11.554687-17.089844-23.703125-24.867187-36.105469l-3.410157-5.433593 6.382813-.671875c14.367187-1.503906 28.03125-6.929688 39.507812-15.6875l9.601563-7.328125-3.328125 11.609375c-5.0625 17.660156-10.757813 35.34375-16.929688 52.554687l-2.496094 6.96875zm0 0" fill="#fff"/><path d="m138.316406 341.070312c-6.492187-15.804687-12.242187-32.125-17.097656-48.503906l-3.136719-10.585937 9.191407 6.121093c12.359374 8.230469 26.757812 12.777344 41.640624 13.140626l7.355469.179687-4.152343 6.074219c-8.25 12.082031-17.371094 23.757812-27.113282 34.710937l-4.253906 4.789063zm0 0" fill="#fff"/><path d="m188.65625 373.757812c-3.179688-5.484374-6.890625-10.714843-11.027344-15.542968l-.960937-1.125v-3.09375l1.117187-1.171875c4.515625-4.6875 8.628906-9.792969 12.226563-15.167969l3.171875-4.738281 3.378906 4.59375c2.574219 3.503906 4.574219 6.179687 6.488281 8.671875l2.5 1.777344-1.054687 2.859374c-2.777344 7.503907-5.695313 15.050782-8.667969 22.425782l-3.066406 7.59375zm0 0" fill="#d8deec"/><path d="m153.820312 375.230469c-4.140624-8.28125-8.1875-16.984375-12.027343-25.875l-1.019531-2.367188 1.730468-1.910156c2.816406-3.09375 5.382813-6.011719 7.855469-8.917969l3.195313-3.765625 3.019531 3.914063c4.457031 5.78125 9.300781 11.28125 14.390625 16.34375l2.453125 2.4375-2.058594 2.78125c-3.996094 5.402344-7.480469 11.214844-10.347656 17.28125l-3.515625 7.433594zm0 0" fill="#d8deec"/><path d="m210.972656 487.46875c12.84375-61.148438 26.925782-118.539062 43.046875-175.449219l2.238281-7.90625 4.839844 6.640625c3.230469 4.433594 7.035156 8.558594 10.390625 12.195313l.152344.167969c2.609375 2.839843 5.308594 5.773437 7.769531 8.800781 6.304688 7.800781 13.214844 19.625 10.382813 31.707031-2.042969 8.679688-8.652344 15.019531-13.835938 18.804688-4.644531 3.390624-9.585937 5.953124-14.816406 8.671874l-.902344.472657c-1.65625.863281-3.34375 1.746093-5.011719 2.664062-2.574218 1.417969-5.492187 3.714844-4.777343 6.609375.269531 1.0625 1.03125 1.929688 1.765625 2.765625l.226562.25c6.195313 7.035157 10.941406 21.183594 4.105469 38.117188-5.074219 12.550781-14.476563 22.644531-23.570313 32.40625-1.632812 1.753906-3.234374 3.417969-4.726562 4.957031l-.082031.085938c-3.628907 3.769531-7.058594 7.328124-10.105469 11.296874zm0 0" fill="#5b8baf"/><path d="m130.378906 489.015625c-4.671875-6.933594-10.441406-13.078125-15.527344-18.496094-8.371093-8.929687-17.027343-18.160156-21.828124-29.488281-5.332032-12.582031-4.308594-26.320312 2.613281-35.003906l.792969-.964844c1.738281-2.105469 3.683593-4.460938 3.382812-7.167969-.351562-3.089843-3.542969-5.101562-6.160156-6.25-2.585938-1.128906-5.328125-2.019531-7.980469-2.882812l-.097656-.027344c-2.847657-.933594-5.535157-1.8125-8.195313-2.980469-4.410156-1.9375-10.140625-5.488281-12.40625-11.402344-2.238281-5.832031-.882812-12.796874 4.273438-21.910156 9.769531-17.277344 23.472656-32.074218 36.671875-45.746094l6.121093-6.339843.742188 8.777343c5.011719 59.101563 13.371094 118.613282 24.839844 176.875zm0 0" fill="#5b8baf"/><path d="m141.519531 504.925781-.648437-3.132812c-13.714844-66.144531-23.382813-133.828125-28.738282-201.160157l-.453124-2.300781 1.59375-1.511719c.800781-.761718 1.5625-1.515624 2.261718-2.246093l4.726563-4.90625 1.980469 6.515625c12.898437 42.363281 31.292968 82.90625 54.671874 120.503906v.019531h.023438c19.707031-41.910156 36.070312-85.769531 48.671875-130.382812l1.785156-6.324219 4.796875 4.492188c.289063.269531.585938.53125.875.785156 6.59375 5.757812 14.128906 10.160156 21.277344 14.175781l2.761719 1.550781-.875 3.039063c-18.398438 64.148437-34.269531 129.164062-48.515625 198.769531l-.664063 3.257812zm0 0" fill="#af7979"/><path d="m87.199219 146.976562c-4.058594-14.234374-8.476563-31.117187-10.449219-48.382812-2.179688-19.148438 1.171875-32.917969 9.964844-40.921875 1.398437-1.261719 2.945312-2.414063 4.3125-3.429687 3.320312-2.472657 6.753906-5.03125 8.363281-8.855469.714844-1.695313 1.050781-3.617188 1.375-5.476563.523437-3.117187 1.0625-6.292968 3.398437-8.351562 1.84375-1.601563 4.390626-2.113282 6.640626-2.5625 2.574218-.527344 4.992187-1.023438 6.785156-2.746094 1.667968-1.597656 2.296875-3.777344 2.964844-6.082031.546874-1.890625 1.101562-3.796875 2.238281-5.324219 1.296875-1.738281 3.976562-3.820312 9.351562-3.820312 1.359375 0 2.507813.136718 3.070313.21875 1.257812.175781 2.488281.421874 3.792968.6875l.398438.078124c2.472656.515626 5 1.042969 7.5 1.042969.59375 0 1.183594-.027343 1.742188-.089843 4.066406-.421876 7.671874-2.382813 11.484374-4.457032 4.195313-2.292968 8.117188-4.441406 12.496094-4.441406.53125 0 1.0625.035156 1.578125.097656 3.476563.425782 6.617188 2.335938 9.652344 4.183594 3.398437 2.078125 6.875 4.199219 10.78125 4.199219.152344 0 .304687 0 .460937-.007813 2.433594-.101562 4.921876-1.078125 7.113282-1.9375 2.796875-1.085937 4.933594-1.851562 7.0625-1.851562 1.058594 0 2.054687.191406 2.96875.578125 2.078125.898437 3.472656 2.636719 4.945312 4.476562 1.097656 1.382813 2.226563 2.800781 3.671875 3.816407 2.007813 1.398437 4.457031 1.898437 6.824219 2.382812 1.695312.351562 3.410156.707031 4.972656 1.363281 4.933594 2.085938 7.914063 6.707031 11.027344 12.082031 7.03125 12.140626 14.296875 24.6875 17.554688 38.625 5.597656 24.027344-1.457032 48.59375-9.910157 71.5625l-7.722656-.859374c-2.078125-15.710938-6.21875-30.902344-12.300781-45.152344-3.449219-8.117188-8.574219-18.003906-17.730469-22.511719-3.683594-1.816406-7.839844-2.738281-12.347656-2.738281-7.023438 0-15.195313 2.261718-23.632813 6.546875-2.242187 1.132812-4.714844 1.683593-7.566406 1.683593-4.320312 0-8.90625-1.308593-13.34375-2.574218-4.15625-1.191406-8.421875-2.414063-12.40625-2.558594-.394531-.015625-.796875-.023438-1.195312-.023438-19.566407 0-35.230469 16.644532-41.503907 32.109376-4.214843 10.417968-6.234375 22.261718-6.535156 38.398437zm0 0" fill="#644c4c"/><path d="m133.671875 223.515625c.347656-6.769531 3.535156-14.199219 8.53125-19.875 5.226563-5.9375 14.445313-13.683594 23.230469-15.980469.976562-.253906 1.894531-.378906 2.734375-.378906 2.433593 0 3.945312 1.027344 4.785156 1.890625.875-.863281 2.386719-1.890625 4.8125-1.890625.851563 0 1.742187.125 2.722656.378906 8.796875 2.292969 18.015625 10.046875 23.242188 15.988282 5 5.667968 8.183593 13.101562 8.519531 19.871093l.523438 10.570313-7.382813-7.578125c-1.683594-1.726563-3.707031-3.339844-6.019531-4.796875-2.761719-1.738282-5.738282-3.1875-8.617188-4.589844-2.28125-1.113281-4.351562-2.125-6.421875-3.289062-5.390625-3.058594-9.09375-6.363282-11.339843-10.113282-2.304688 3.757813-6.011719 7.0625-11.390626 10.101563-2.007812 1.140625-4.023437 2.125-6.164062 3.167969l-.265625.132812c-2.886719 1.402344-5.867187 2.855469-8.628906 4.589844-2.308594 1.457031-4.335938 3.074218-6.015625 4.796875l-7.402344 7.597656zm0 0" fill="#644c4c"/><path d="m313.980469 507.929688c-.679688 0-1.367188-.007813-2.058594-.019532l-31.960937-.558594 8.796874-80.277343-8.863281 80.28125-70.546875-1.246094 2.703125-5.621094c4.085938-8.496093 9.992188-14.621093 16.246094-21.105469l.300781-.308593c1.441406-1.5 2.917969-3.03125 4.417969-4.636719 9.09375-9.757812 18.503906-19.851562 23.582031-32.433594 5.636719-13.953125 4.046875-28.914062-4.054687-38.121094l-.238281-.269531c-.203126-.226562-.78125-.863281-1.132813-1.371093l-1.457031-2.09375 1.285156-2.199219c.738281-1.269531 2.210938-2.53125 4.265625-3.65625 1.890625-1.039063 3.851563-2.066407 5.746094-3.058594l.148437-.078125c5.011719-2.601562 10.179688-5.285156 14.828125-8.675781 5.199219-3.796875 11.824219-10.144531 13.863281-18.84375 2.839844-12.132813-4.085937-23.960938-10.394531-31.746094-2.417969-2.980469-5.019531-5.832031-7.921875-8.976563-2.90625-3.15625-5.730468-6.25-8.273437-9.421874l5.222656-5.90625.5.308593c.585937.359375 1.171875.71875 1.746094 1.085938 27.308593 17.519531 48.359375 45.917969 59.285156 79.96875 9.613281 29.972656 11.421875 64.699219 5.222656 100.425781-.925781 5.285156-2.265625 11.21875-6.511719 14.78125-3.964843 3.316406-9.429687 3.773438-14.746093 3.773438zm0 0" fill="#3a6082"/><path d="m61.121094 503.515625-.265625-3.648437c-2.125-29.53125-5.789063-59.175782-10.890625-88.113282 5 28.734375 8.648437 58.136719 10.78125 87.398438l.316406 4.363281-39.679688-.695313c-4.625-.082031-8.707031-.347656-11.847656-2.769531-4.605468-3.539062-5.09375-10.140625-4.941406-16.742187.691406-28.03125 1.875-55.324219 8.765625-81.15625 5.488281-20.621094 17.257813-49.222656 42.175781-68.382813 7.96875-6.113281 16.933594-10.976562 25.605469-15.675781 2.238281-1.214844 4.527344-2.46875 6.804687-3.730469l4.917969 6.171875c-10.429687 11.621094-17.953125 21.75-23.675781 31.875-3.25 5.734375-7.230469 14.25-4.277344 21.960938 1.804688 4.695312 6.101563 8.652344 12.4375 11.4375 2.566406 1.136718 5.285156 2.023437 7.910156 2.878906l.308594.101562c2.644532.863282 5.382813 1.753907 8.058594 2.910157 3.78125 1.664062 5.835938 3.738281 6.125 6.183593.296875 2.679688-1.527344 4.898438-3.289062 7.042969l-.910157 1.109375c-5.476562 6.878906-9.066406 19.730469-2.582031 35.023438 4.8125 11.359375 13.46875 20.582031 21.835938 29.503906 7.636718 8.144531 16.296874 17.371094 21.125 28.617188l2.445312 5.6875zm0 0" fill="#3a6082"/><path d="m171.894531 261.265625c-11.730469 0-23.261719-2.769531-33.34375-8.003906-20.125-10.46875-34.726562-30.898438-38.101562-53.324219-2.921875 1.679688-6.332031 2.574219-9.898438 2.574219-5.355469 0-10.472656-2.003907-14.042969-5.503907-6.183593-6.054687-7.648437-16.300781-3.410156-23.839843 3.375-6.003907 10.457032-10.039063 17.621094-10.039063 1.539062 0 3.054688.1875 4.5.554688-.359375-17.949219-.8125-38.257813 6.417969-56.105469 6.269531-15.445313 21.910156-32.066406 41.445312-32.066406.394531 0 .792969.007812 1.191407.023437 3.964843.144532 8.007812 1.300782 12.289062 2.519532 4.527344 1.292968 9.117188 2.605468 13.519531 2.605468 2.835938 0 5.304688-.554687 7.546875-1.6875 5.839844-2.964844 14.691406-6.5 23.660156-6.5 4.515626 0 8.644532.90625 12.265626 2.691406 9.09375 4.480469 14.234374 14.367188 17.699218 22.476563 8.46875 19.875 13.21875 41.8125 13.730469 63.445313 2.777344-2.019532 6.167969-3.09375 9.847656-3.09375.964844 0 1.953125.074218 2.933594.222656 5.035156.773437 9.699219 3.523437 12.472656 7.363281 5.414063 7.484375 4.800781 18.859375-1.433593 26.449219-4.851563 5.917968-12.734376 9.453125-21.085938 9.453125-1.535156 0-3.078125-.121094-4.589844-.359375-3.800781 22.394531-18.742187 42.578125-39.039062 52.699218-9.78125 4.871094-20.914063 7.445313-32.195313 7.445313zm-3.710937-74.046875c-.859375 0-1.789063.128906-2.765625.382812-8.25 2.15625-17.632813 9.589844-23.265625 16-6.785156 7.703126-11.429688 20.195313-6.519532 30.742188-.011718.007812-.042968.015625-.082031.019531l.125-.007812c1.90625-5.933594 6.984375-10.117188 10.914063-12.582031 2.691406-1.699219 5.480468-3.0625 8.429687-4.511719l.175781-.085938c1.902344-.921875 4.257813-2.066406 6.441407-3.292969 3.515625-1.992187 6.277343-4.058593 8.433593-6.320312l2.894532-3.042969 2.898437 3.042969c2.152344 2.257812 4.914063 4.328125 8.441407 6.328125 2.101562 1.183594 4.296874 2.25 6.417968 3.28125l.402344.195313c2.875 1.414062 5.589844 2.746093 8.222656 4.410156 3.914063 2.457031 8.984375 6.632812 10.886719 12.558594 4.972656-10.542969.328125-23.03125-6.457031-30.734376-5.65625-6.421874-15.042969-13.859374-23.261719-16.003906-.980469-.253906-1.917969-.386718-2.777344-.386718-1.117187 0-2.140625.222656-3.042969.652343l-1.722656.828125-1.722656-.820312c-.917969-.433594-1.949219-.652344-3.066406-.652344zm0 0" fill="#ffdac4"/><path d="m170.808594 301.214844c-16.058594 0-31.53125-4.847656-44.742188-14.019532l-2.917968-2.023437 1.664062-3.132813c4.515625-8.523437 6.15625-17.859374 4.628906-26.292968l-1.566406-8.621094 7.539062 4.464844c.96875.570312 2.015626 1.152344 3.113282 1.71875 10.058594 5.234375 21.597656 8 33.367187 8 11.328125 0 22.472657-2.570313 32.226563-7.4375 2.1875-1.089844 4.378906-2.339844 6.511718-3.71875l6.230469-4.027344-.058593 7.417969c-.070313 8.992187 4.050781 16.875 7.523437 21.90625l2.246094 3.253906s-3.414063 2.410156-3.414063 2.410156c-.003906 0 .046875-.046875.097656-.09375-13.386718 12.066407-30.605468 19.1875-48.53125 20.097657-1.296874.0625-2.613281.097656-3.917968.097656zm0 0" fill="#ffdac4"/><path d="m135.660156 238.359375c.085938 0 .171875 0 .253906-.007813 1.660157-.101562 3.082032-1.210937 3.589844-2.792968 1.527344-4.769532 5.851563-8.289063 9.207032-10.398438 2.574218-1.621094 5.328124-2.964844 8.242187-4.382812 2.179687-1.066406 4.4375-2.164063 6.644531-3.410156 3.84375-2.175782 6.945313-4.503907 9.367188-7.042969 2.417968 2.539062 5.523437 4.871093 9.371094 7.050781 2.203124 1.238281 4.457031 2.335938 6.636718 3.402344 2.914063 1.417968 5.667969 2.761718 8.242188 4.382812 3.359375 2.109375 7.683594 5.628906 9.210937 10.398438.507813 1.582031 1.929688 2.691406 3.585938 2.792968 1.6875.105469 3.207031-.816406 3.910156-2.320312 5.671875-12.183594.5-26.394531-7.144531-35.074219-5.609375-6.367187-15.589844-14.703125-25.253906-17.226562-3.746094-.976563-6.558594-.425781-8.554688.53125-2-.957031-4.816406-1.507813-8.5625-.53125-9.683594 2.53125-19.660156 10.863281-25.257812 17.226562-7.644532 8.679688-12.816407 22.890625-7.140626 35.074219.664063 1.425781 2.09375 2.328125 3.652344 2.328125zm9.542969-32.074219c5.230469-5.949218 13.828125-12.816406 21.238281-14.75 1.710938-.445312 2.933594-.300781 3.644532.425782.757812.777343 1.796874 1.214843 2.882812 1.214843s2.125-.4375 2.886719-1.214843c.710937-.726563 1.929687-.871094 3.628906-.429688 7.398437 1.933594 16 8.804688 21.246094 14.757812 4.015625 4.5625 7.203125 10.992188 7.53125 17.429688-1.890625-1.941406-4.152344-3.75-6.753907-5.382812-2.9375-1.851563-6.019531-3.355469-8.996093-4.808594-2.171875-1.058594-4.222657-2.058594-6.210938-3.175782-4.769531-2.699218-7.996093-5.539062-9.871093-8.675781-.726563-1.21875-2.039063-1.964843-3.457032-1.964843-.003906 0-.003906 0-.003906 0-1.417969 0-2.730469.742187-3.460938 1.960937-1.882812 3.140625-5.113281 5.980469-9.871093 8.675781-1.996094 1.121094-4.046875 2.121094-6.21875 3.183594-2.976563 1.453125-6.058594 2.953125-9 4.804688-2.597657 1.632812-4.859375 3.441406-6.75 5.386718.328125-6.441406 3.515625-12.871094 7.535156-17.4375zm0 0"/><path d="m333.886719 387.707031c-11.210938-34.9375-32.855469-64.109375-60.953125-82.136719-4.496094-2.886718-9.199219-5.515624-13.75-8.058593-8.488282-4.746094-16.507813-9.226563-23.449219-15.296875-8.917969-7.800782-17.90625-21.699219-13.898437-35.199219.039062-.128906.046874-.253906.074218-.382813 12.15625-10.722656 20.949219-25.289062 24.46875-41.117187 9.933594.375 19.644532-3.6875 25.566406-10.90625 7.367188-8.976563 8.046876-22.480469 1.582032-31.414063-3.449219-4.773437-8.96875-8.050781-15.144532-8.992187-2.285156-.347656-4.53125-.355469-6.683593-.046875 9.46875-24.347656 20.261719-54 13.5-83.011719-3.390625-14.53125-10.816407-27.34375-18-39.738281-2.691407-4.648438-6.375-11.011719-12.960938-13.78125-1.941406-.820312-3.953125-1.230469-5.726562-1.597656-2.148438-.441406-4.007813-.824219-5.324219-1.746094-.957031-.667969-1.859375-1.804688-2.820312-3.007812-1.644532-2.0625-3.507813-4.402344-6.542969-5.683594-4.765625-2.019532-9.375-.222656-13.078125 1.21875-2.101563.820312-4.085938 1.59375-5.824219 1.667968-2.882813.113282-5.671875-1.597656-8.933594-3.589843-3.25-1.980469-6.933593-4.226563-11.289062-4.761719-6.28125-.769531-11.695313 2.179688-16.464844 4.785156-3.460937 1.886719-6.734375 3.667969-10.007813 4.011719-2.464843.253906-5.144531-.296875-7.980468-.882813-1.449219-.300781-2.941406-.609374-4.484375-.828124-7.097657-1-13.015625.898437-16.226563 5.207031-1.589844 2.128906-2.277344 4.511719-2.886718 6.617187-.535157 1.847656-.996094 3.449219-1.875 4.285156-.949219.910157-2.820313 1.292969-4.804688 1.695313-2.753906.5625-5.878906 1.199219-8.480469 3.484375-3.402343 2.992188-4.105469 7.070312-4.722656 10.664062-.296875 1.726563-.578125 3.359376-1.121094 4.648438-1.179687 2.800781-4.027343 4.925781-7.050781 7.175781-1.535156 1.144531-3.125 2.328125-4.609375 3.679688-9.820313 8.933593-13.609375 23.867187-11.265625 44.386719 2.359375 20.6875 8.097656 40.832031 13.878906 60.363281-7.015625 1.210937-13.535156 5.515625-17.046875 11.765625-5.101562 9.085937-3.332031 21.433594 4.109375 28.726562 6.117188 5.988282 15.5625 8.074219 23.722656 5.695313 3.664063 16.328125 12.917969 31.324219 25.695313 42.117187-.089844.726563.003906 1.484375.332031 2.195313 4.644532 10.035156 2.710938 23.667969-4.925781 34.734375-7.695313 11.152344-19.414063 18.734375-29.863281 24.679687-3.101563 1.761719-6.316406 3.503907-9.421875 5.1875-8.816407 4.78125-17.933594 9.722657-26.132813 16.027344-25.8125 19.839844-37.976562 49.320313-43.636718 70.554687-7.003907 26.273438-8.203126 53.828126-8.894532 82.105469-.117187 4.789063-.359375 14.761719 6.527344 20.0625 4.460938 3.4375 10.117188 3.535157 14.25 3.609375l257.671875 4.515625c.160156.039063.316406.085938.488281.105469.148438.015625.296875.023438.445313.023438.289062 0 .566406-.039063.839843-.097657l31.089844.542969c.785156.015625 1.628906.03125 2.519532.03125 5.222656 0 11.929687-.507812 16.964843-4.730469 5.308594-4.453125 6.863281-11.210937 7.902344-17.199219 6.320313-36.367187 4.46875-71.765624-5.347656-102.363281zm-87.316407 14.101563c.511719 2.050781 1.769532 3.464844 2.691407 4.496094l.230469.261718c5.390624 6.121094 9.5 18.675782 3.339843 33.914063-4.796875 11.875-13.949219 21.695312-22.796875 31.191406-1.585937 1.699219-3.144531 3.316406-4.660156 4.890625-3.695312 3.828125-7.28125 7.554688-10.492188 11.726562 12.789063-60.886718 26.917969-118.449218 42.984376-175.175781 3.273437 4.496094 7.015624 8.574219 10.675781 12.550781 2.625 2.84375 5.335937 5.785157 7.757812 8.78125 5.738281 7.082032 12.0625 17.734376 9.59375 28.261719-1.757812 7.492188-7.660156 13.101563-12.304687 16.492188-4.378906 3.195312-9.195313 5.703125-14.292969 8.355469-1.96875 1.023437-4.003906 2.082031-5.996094 3.175781-7.265625 3.996093-7.335937 8.65625-6.730469 11.078125zm5.8125-98.863282c-18.429687 64.242188-34.332031 129.394532-48.585937 199.070313l-59.007813-1.035156c-13.691406-66.035157-23.339843-133.589844-28.683593-200.816407-.011719-.152343-.050781-.292968-.078125-.441406.808594-.769531 1.605468-1.5625 2.386718-2.371094 13.007813 42.703126 31.519532 83.53125 55.101563 121.453126.738281 1.1875 2.035156 1.902343 3.425781 1.902343.078125 0 .15625 0 .234375-.007812 1.476563-.085938 2.785157-.972657 3.414063-2.308594 19.78125-42.125 36.214844-86.183594 48.863281-130.980469.324219.296875.648437.589844.972656.871094 6.726563 5.882812 14.390625 10.402344 21.957031 14.664062zm-148.597656 94.507813c-.308594-2.757813-2.035156-6.636719-8.527344-9.46875-2.800781-1.222656-5.667968-2.15625-8.4375-3.058594-2.753906-.894531-5.355468-1.742187-7.835937-2.835937-3.710937-1.632813-8.511719-4.550782-10.277344-9.171875-1.777343-4.636719-.5-10.523438 4.019531-18.511719 9.457032-16.730469 22.753907-31.136719 36.066407-44.9375 5.035156 59.328125 13.398437 118.847656 24.90625 177.308594-4.777344-7.09375-10.582031-13.296875-15.925781-18.996094-8.136719-8.671875-16.546876-17.644531-21.066407-28.308594-4.765625-11.25-3.957031-23.398437 2.066407-30.953125.246093-.308593.503906-.625.765624-.9375 2-2.421875 4.738282-5.742187 4.246094-10.128906zm70.335938-85.699219c4.574218 7.195313 9.34375 14.304688 14.28125 21.285156-.285156.246094-.554688.523438-.773438.855469-3.710937 5.753907-8.007812 11.175781-12.765625 16.109375-.15625.164063-.285156.292969-.398437.398438-.085938-.082032-.179688-.175782-.285156-.277344-5.582032-5.507812-10.777344-11.484375-15.511719-17.75 5.40625-6.6875 10.570312-13.574219 15.453125-20.621094zm-20.71875 27c4.550781 5.882813 9.484375 11.503906 14.746094 16.734375-4.167969 5.625-7.757813 11.636719-10.753907 17.949219-4.21875-8.441406-8.1875-17.003906-11.925781-25.667969 2.691406-2.957031 5.339844-5.960937 7.933594-9.015625zm20.960937 21.898438c5.042969 5.84375 9.402344 12.253906 12.96875 19.097656.253907.492188.597657.902344 1 1.234375-3.808593 9.132813-7.761719 18.195313-11.878906 27.167969-5.023437-8.351563-9.789063-16.851563-14.316406-25.46875 3.128906-7.84375 7.238281-15.234375 12.226562-22.03125zm17.753907 11.101562c-3.3125-5.71875-7.148438-11.125-11.457032-16.144531.003906 0 .003906-.003906.007813-.007813 4.671875-4.847656 8.925781-10.132812 12.667969-15.722656 2.15625 2.941406 4.335937 5.859375 6.542968 8.742188.25.328125.550782.585937.871094.8125-2.773438 7.480468-5.648438 14.925781-8.632812 22.320312zm11.839843-31.109375c-8.707031-11.546875-16.984375-23.570312-24.667969-35.824219 15.074219-1.578124 29.492188-7.308593 41.519532-16.496093-5.039063 17.585937-10.660156 35.050781-16.851563 52.320312zm-61.941406-1.09375c-6.453125-15.726562-12.117187-31.785156-16.960937-48.117187 12.96875 8.636718 28.207031 13.425781 43.761718 13.804687-8.175781 11.964844-17.164062 23.480469-26.800781 34.3125zm-52.609375-278.914062c1.195312-1.089844 2.5625-2.105469 4.007812-3.183594 3.578126-2.664063 7.632813-5.6875 9.660157-10.507813.902343-2.144531 1.292969-4.410156 1.636719-6.410156.449218-2.613281.835937-4.867187 2.097656-5.972656.992187-.871094 2.828125-1.246094 4.773437-1.644531 2.878907-.585938 6.140625-1.25 8.773438-3.773438 2.4375-2.339843 3.289062-5.277343 4.039062-7.867187.457031-1.585938.890625-3.082032 1.601563-4.039063 2.042968-2.734375 7.132812-2.253906 8.640625-2.039062 1.285156.179687 2.59375.449219 3.976562.734375 3.3125.6875 6.738281 1.394531 10.449219 1.007812 4.882812-.507812 9.023438-2.769531 13.03125-4.953125 4.246094-2.3125 7.910156-4.316406 11.625-3.859375 2.625.320313 5.273438 1.933594 8.074219 3.644532 3.828125 2.335937 8.144531 4.976562 13.46875 4.757812 3.074219-.128906 5.910156-1.230469 8.414062-2.207031 3.273438-1.277344 5.378907-2 7.007813-1.3125 1.148437.488281 2.179687 1.785156 3.378906 3.285156 1.214844 1.527344 2.589844 3.253906 4.5 4.589844 2.683594 1.878906 5.679688 2.496093 8.328125 3.039062 1.546875.320313 3.007813.617188 4.21875 1.128907 3.785156 1.59375 6.367187 5.648437 9.113281 10.394531 6.886719 11.882812 14.007813 24.167969 17.121094 37.527343 5.167969 22.148438-.742188 44.742188-9.769531 69.273438-2.101563-15.882812-6.351563-31.585938-12.582031-46.203125-3.730469-8.75-9.332032-19.449219-19.644532-24.53125-13.425781-6.617187-28.925781-1.570313-39.5625 3.832031-5.015625 2.542969-11.339844.738282-18.03125-1.175781-4.355468-1.246094-8.859375-2.535156-13.332031-2.695313-22.035156-.761718-39.570313 17.367188-46.542969 34.574219-5.175781 12.765625-6.585937 26.535157-6.832031 39.832031-4.464844-15.640624-8.476563-31.617187-10.316406-47.742187-2.035157-17.796875.886719-30.417969 8.675781-37.503906zm15 138.707031c-.199219-1.324219-1.042969-2.460938-2.253906-3.035156-.546875-.261719-1.140625-.394532-1.730469-.394532-.710937 0-1.417969.1875-2.046875.558594-5.84375 3.445313-14.222656 2.425782-19.070312-2.320312-4.847657-4.75-6.042969-13.101563-2.71875-19.019532 3.320312-5.917968 11.078124-9.242187 17.652343-7.578124 1.21875.3125 2.515625.03125 3.5-.753907.984375-.785156 1.546875-1.980469 1.519531-3.242187-.386718-17.53125-.828124-37.402344 6.09375-54.480469 5.953126-14.6875 20.652344-30.171875 38.78125-29.546875 3.492188.125 7.335938 1.222656 11.402344 2.390625 7.527344 2.152344 16.0625 4.589844 23.898438.613281 7.367187-3.738281 21.367187-9.203125 32.351562-3.789062 7.933594 3.914062 12.605469 12.988281 15.789063 20.460937 8.28125 19.429688 12.917969 40.855469 13.410156 61.972657.035156 1.507812.910156 2.871093 2.265625 3.53125 1.359375.660156 2.96875.503906 4.175781-.398438 2.601563-1.941406 6.058594-2.703125 9.742188-2.140625 3.992187.609375 7.664062 2.757813 9.828125 5.746094 4.316406 5.964843 3.75 15.441406-1.28125 21.574219-4.921875 5.992187-13.546875 9.011718-21.960938 7.679687-2.179687-.339844-4.238281 1.132813-4.605468 3.316406-3.550782 21.125-17.667969 40.1875-36.84375 49.746094-19.175782 9.558594-42.890626 9.355469-61.902344-.523437-19.011719-9.878907-32.804688-29.179688-35.996094-50.367188zm32.277344 57.523438c10.828125 5.628906 23.015625 8.445312 35.210937 8.445312 11.742188 0 23.488281-2.617188 34.007813-7.859375 2.375-1.183594 4.679687-2.503906 6.90625-3.9375-.070313 8.816406 3.414062 17.242187 8.230468 24.210937-.175781.113282-.347656.226563-.503906.371094-12.65625 11.402344-28.996094 18.160156-46.007812 19.023438-16.390625.824218-32.714844-3.863282-46.179688-13.207032 4.96875-9.382812 6.714844-19.625 5.027344-28.882812 1.085938.636719 2.1875 1.253906 3.308594 1.835938zm-124.703125 240.015624c-3.203125-2.464843-3.519531-7.933593-3.382813-13.476562.679688-27.773438 1.847656-54.804688 8.625-80.226562 5.335938-20.027344 16.742188-47.777344 40.757813-66.242188 7.691406-5.910156 16.519531-10.695312 25.0625-15.324219 2.25-1.222656 4.550781-2.480469 6.84375-3.753906-9 10.027344-17.449219 20.671875-24.183594 32.578125-3.644531 6.445312-8.082031 16.089844-4.53125 25.363281 2.191406 5.714844 7.226563 10.441407 14.5625 13.667969 2.847656 1.257812 5.765625 2.207031 8.585937 3.125 2.707032.878906 5.265626 1.710938 7.710938 2.78125 2.640625 1.152344 3.664062 2.289062 3.742188 2.972656.109374.992188-1.253907 2.644532-2.457032 4.097656-.289062.351563-.578125.699219-.851562 1.046876-6.238282 7.828124-10.351563 22.214843-3.183594 39.125 5.078125 11.988281 13.988281 21.488281 22.605469 30.679687 7.4375 7.929687 15.824219 16.890625 20.367187 27.464844l-67.40625-1.183594c-2.128906-29.574219-5.804687-59.34375-10.945312-88.523437-.386719-2.191407-2.484375-3.65625-4.671875-3.269532-2.191407.386719-3.65625 2.476563-3.269531 4.671875 5.050781 28.667969 8.671874 57.917969 10.789062 86.980469l-35.296875-.617188c-3.894531-.070312-7.296875-.261718-9.472656-1.9375zm319.3125-8.191406c-.796875 4.582032-1.917969 9.695313-5.140625 12.398438-3.308594 2.773437-8.597656 2.910156-14.164063 2.820312l-27.574219-.484375 8.328126-75.914062c.242187-2.214844-1.355469-4.207031-3.570313-4.449219-2.214844-.234375-4.203125 1.355469-4.449219 3.566406l-8.40625 76.65625-60.664062-1.0625c3.804687-7.902344 9.285156-13.59375 15.527344-20.066406 1.550781-1.605469 3.136718-3.253906 4.75-4.988281 9.355468-10.03125 19.023437-20.410157 24.382812-33.667969 6.195312-15.34375 4.328125-31.933594-4.769531-42.261719l-.261719-.292969c-.273438-.308593-.667969-.753906-.828125-.984374.214844-.359376.957031-1.191407 2.726563-2.164063 1.914062-1.050781 3.910156-2.089844 5.835937-3.089844 5.140625-2.671875 10.453125-5.4375 15.328125-8.996093 5.746094-4.191407 13.082031-11.265626 15.398438-21.164063 3.214843-13.703125-4.300782-26.695313-11.175782-35.175781-2.585937-3.195313-5.386718-6.234375-8.09375-9.171875-2.847656-3.089844-5.597656-6.09375-8.089844-9.207031.738282.453124 1.476563.902343 2.195313 1.363281 26.523437 17.019531 46.992187 44.65625 57.628906 77.8125 9.421875 29.367187 11.179688 63.433593 5.085938 98.523437zm0 0"/></svg>