<svg height="511pt" viewBox="-85 0 511 511.999" width="511pt" xmlns="http://www.w3.org/2000/svg"><path d="m40.941406 507.933594c-11.027344 0-23.21875-1.136719-30.050781-9.578125-5.183594-6.394531-5.765625-14.839844-5.960937-24.414063-.71875-34.578125-1.457032-70.335937 8.894531-104.191406 11.136719-36.390625 35.164062-64.503906 64.273437-75.203125l3.296875-1.210937 1.628907 3.109374c3.757812 7.191407 10.121093 12.503907 17.453124 14.574219 2.453126.691407 5.03125 1.050781 7.527344 1.402344l.269532.039063c3.417968.464843 6.886718.941406 10.074218 2.199218 7.210938 2.851563 12.996094 9.425782 18.199219 20.691406.707031 1.515626 1.386719 3.0625 2.070313 4.617188l.171874.390625c3.058594 6.964844 6.191407 14.097656 11.453126 19.566406 6.898437 7.179688 17.554687 11.292969 29.234374 11.292969.878907 0 1.796876-.023438 2.800782-.074219 12.707031-.679687 24.449218-5.707031 33.253906-10.007812 18.714844-9.125 37.058594-21.660157 54.53125-37.25 1.449219-1.300781 3.640625-3.265625 5.082031-5.757813l2.003907-3.476562 3.46875 2.019531c23.074218 13.414063 40.609374 38.320313 49.367187 70.125 7.933594 28.824219 8.109375 59.105469 8.28125 88.390625.058594 9.050781-.40625 18.371094-6.617187 24.175781-5.503907 5.132813-13.496094 5.636719-21.890626 5.726563l-51.671874.550781v-.003906l-189.777344 2.019531.394531-4.402344c3.441406-38.441406 3.808594-77.449218 1.09375-115.933594 2.675781 38.742188 2.285156 78.015626-1.226563 116.730469l-.324218 3.601563-25.003906.265625c-.761719.011719-1.53125.015625-2.300782.015625zm219.230469-128.875c-3.351563 40.550781-4.050781 81.746094-2.148437 122.433594l.066406 1.367187v-1.195313c-1.914063-40.699218-1.210938-81.953124 2.082031-122.605468zm0 0" fill="#59bd8b"/><path d="m266.796875 209.242188c-.984375-.253907-2.550781-.996094-4.421875-3.078126-4.625-5.171874-7.808594-11.601562-9.207031-18.597656l-.050781-.253906c-.1875-1.027344-.445313-2.433594-.640626-4.023438-.96875-7.957031.160157-13.160156 3.253907-15.039062.328125-.195312.625-.332031.933593-.4375l1.566407-.519531 1.476562.730469c.601563.300781 1.191407.753906 1.808594 1.386718l.152344.160156.433593.433594.082032.160156.429687.507813s.078125.152344.082031.15625l.164063.207031.101563.171875.136718.191407s.203125.328124.238282.386718c.113281.164063.191406.304688.238281.386719l.113281.152344.121094.238281.257812.457031c.054688.097657.105469.195313.152344.292969.039062.070312.078125.140625.117188.210938l.117187.195312.070313.175781.09375.175781c.066406.140626.230468.476563.230468.476563l.257813.46875.046875.179687c3.941406 8.609376 6.425781 21.925782 6.890625 25.84375.15625 1.324219.289062 2.722657.054687 4.078126v.085937l-.117187.484375c-.207031.832031-.582031 1.597656-1.078125 2.207031l-1.621094 1.988281zm0 0" fill="#985bbc"/><path d="m66.910156 208.050781c-.570312-.628906-.992187-1.449219-1.222656-2.371093-.386719-1.496094-.25-3.058594-.0625-4.65625.335938-2.894532 2.226562-13.488282 5.3125-21.972657 2.167969-5.925781 4.46875-9.605469 6.839844-10.9375l2.191406-1.230469 1.9375 1.351563c4.167969 2.5625 3.984375 10.257813 3.109375 16.273437-.144531 1-.320313 2.054688-.515625 3.027344-1.398438 7.019532-4.582031 13.453125-9.203125 18.621094-1.859375 2.085938-3.429687 2.828125-4.417969 3.085938l-2.347656.605468zm0 0" fill="#985bbc"/><path d="m179.605469 371.15625c-11.75 0-22.4375-4.105469-29.320313-11.261719-5.257812-5.480469-8.253906-12.304687-11.425781-19.527343l-.214844-.492188c-.671875-1.527344-1.339843-3.046875-2.035156-4.554688-2.574219-5.566406-6.78125-13.515624-13.613281-18.226562l-7.742188-5.34375c-1.109375.25-2.21875.507812-3.324218.769531l-.851563.285157-.960937-.152344c-.597657-.09375-1.195313-.179688-1.796876-.253906-2.617187-.355469-5.28125-.71875-7.828124-1.4375-11.8125-3.328126-20.886719-15.550782-20.652344-27.824219.128906-7.019531 3.214844-14.089844 8.464844-19.398438 3.605468-3.652343 6.675781-5.769531 9.132812-6.285156.441406-.101563.925781-.191406 1.480469-.191406 2.328125 0 3.53125 1.386719 4.921875 2.988281.410156.476562.859375.980469 1.363281 1.511719 10.417969 10.898437 25.609375 18.394531 42.757813 21.089843 5.460937.855469 10.949218 1.273438 16.78125 1.273438 11.429687 0 23.894531-1.589844 39.238281-4.996094 7.226562-1.609375 14.523437-3.480468 21.578125-5.292968l.113281-.027344c10.792969-2.777344 21.957031-5.652344 33.246094-7.65625.703125-.121094 1.917969-.328125 3.050781-.328125 1.183594 0 2.15625.230469 2.980469.703125 2.6875 1.554687 2.992187 5.429687 1.730469 8.128906-1.09375 2.363281-3.089844 4.183594-5.019532 5.941406l-.09375.085938c-.285156.257812-.570312.519531-.855468.785156-2.160157 2.019531-4.410157 4.492188-4.761719 7.621094-.335938 2.957031.992187 5.722656 4.058593 8.457031l3.257813 2.902344.222656-.214844 2.585938 1.421875c3.367187 1.851562 10.375 5.699219 10.394531 11.765625.015625 4.066406-3.089844 7.40625-6.441406 10.410156-17.453125 15.574219-35.792969 28.105469-54.515625 37.253907-13.082031 6.375-23.335938 9.460937-33.246094 10-.886719.046874-1.78125.070312-2.660156.070312zm80.464843-67.695312c-15.109374 14.046874-35.472656 23.199218-55.871093 25.101562l.113281.054688c21.003906-1.984376 41.796875-11.582032 57.054688-26.332032l.824218-.796875zm-74.1875.402343c-22.878906 0-45.75 2.460938-68.085937 7.320313l6.703125-1.3125c20.195312-3.945313 40.820312-5.949219 61.304688-5.949219 3.527343 0 7.105468.0625 10.628906.179687-3.503906-.179687-7.050782-.238281-10.550782-.238281zm0 0" fill="#cbe580"/><path d="m74.421875 291.445312c-22.058594-7.796874-40.730469-25.257812-49.96875-46.746093-9.265625-21.566407-9.0625-47.21875.546875-68.617188 5.742188-12.789062 14.53125-23.949219 23.035156-34.746093 9.953125-12.636719 21.222656-26.945313 26.453125-43.378907 2.125-6.675781 3.269531-13.734375 4.378907-20.5625l.023437-.136719c1.46875-9.089843 2.855469-17.679687 6.320313-25.894531 4.28125-10.144531 18.960937-34.746093 62.699218-44.105469 9.945313-2.125 19.96875-3.199218 29.792969-3.199218 24.125 0 46.164063 6.355468 63.734375 18.378906 13.28125 9.089844 24.195312 22.308594 30.734375 37.226562 6.878906 15.699219 8.539063 31.992188 4.808594 47.113282-.335938 1.371094-.710938 2.761718-1.089844 4.164062l-.0625.230469c-2.273437 8.375-4.621094 17.011719-.234375 24.054687 2.996094 4.832032 8.109375 7.207032 13.519531 9.71875l.28125.128907c2.199219 1.027343 4.28125 1.996093 6.273438 3.171875 11.578125 6.824218 18.519531 21.421875 16.503906 34.714844-.519531 3.402343-1.550781 6.726562-2.542969 9.941406-1.214844 3.925781-2.46875 7.984375-2.792968 12.160156-.535157 6.945312 1.527343 13.777344 3.519531 20.382812 1.683593 5.585938 3.265625 10.839844 3.59375 16.410157.734375 12.757812-5.9375 26.328125-17.410157 35.417969-8.984374 7.109374-20.761718 11.808593-35.003906 13.960937l-8.972656 1.359375 5.050781-7.539062c.753907-1.128907 1.789063-2.289063 3.152344-3.546876.199219-.195312.480469-.445312.757813-.691406l.203124-.1875c1.910157-1.746094 3.90625-3.574218 5.023438-5.96875 1.253906-2.710937.941406-6.621094-1.761719-8.191406-.820312-.472656-1.832031-.707031-3.074219-.707031-1.125 0-2.203124.191406-2.988281.335937-9.984375 1.757813-19.871093 4.214844-29.960937 6.789063l-3.347656.851562-1.332032-3.1875c-7.476562-6.460937-11.546875-16.996093-10.347656-26.84375l-1.324219-3.035156 2.726563-1.835937c.792968-.539063 1.828125-1.257813 2.808594-2.003907 18.113281-13.730469 22.730468-32.691406 25.636718-49.386719l.554688-3.179687 3.222656-.132813c.378906-.015624.753906-.046874 1.136719-.089843l4.019531-.433594.375 3.871094.019531.089843c1.398438 7.011719 4.582031 13.453126 9.207031 18.621094 1.882813 2.109375 3.851563 3.269532 5.539063 3.269532.449219 0 .890625-.082032 1.347656-.246094 1.34375-.488282 2.40625-1.800782 2.828125-3.503906.359375-1.40625.285156-2.886719.070313-4.6875-.25-2.113282-2.328125-14.804688-6.15625-24.144532l-.792969-1.933594 1.128906-1.753906c.183594-.28125.367188-.570312.53125-.859375l.148438-.261719c4.222656-7.675781 3.730468-17.855468-1.230469-24.855468-2.414063-3.410156-5.589844-4.929688-10.292969-4.929688-2.769531 0-5.664062.535156-8.214844 1.007813-2.03125.378906-3.851562.707031-5.621093.878906-1.273438.125-2.574219.1875-3.863281.1875-22.105469.003906-37.550782-17.488281-41.761719-22.847656-7.285157-9.292969-12.152344-20.003907-15.953125-29.261719-1.003906-2.449219-3.324219-6.632812-7.546875-7.09375-.257813-.027344-.511719-.042969-.769531-.042969-2.976563 0-6.039063 2.042969-8.621094 5.75-1.742188 2.503907-3.355469 5.066407-4.917969 7.542969l-.171875.269531c-3.363281 5.339844-6.839844 10.859375-11.539062 15.816407-6.84375 7.195312-14.671876 13.300781-23.269532 18.144531-9.996094 5.613281-20.558594 9.277343-31.402344 10.898437-.878906.132813-1.765624.253906-2.65625.378906l-.195312.027344c-4.898438.664063-9.492188 1.289063-13.652344 3.515625-9.246094 4.933594-13.085937 17.398438-8.222656 26.675781.582031 1.109376 1.347656 2.226563 2.28125 3.3125l1.464844 1.710938-.699219 2.140625c-2.660156 8.125-4.265625 17.289063-4.546875 19.710937-.21875 1.804688-.289062 3.289063.058594 4.695313.425781 1.699219 1.503906 3.027344 2.886718 3.535156.40625.140625.859376.222657 1.300782.222657 1.691406 0 3.660156-1.15625 5.53125-3.261719 4.558594-5.089844 7.714844-11.414063 9.148437-18.304688v-3.046875l3.425781-.496094c.394532-.058593.78125-.113281 1.164063-.195312l4.398437-.929688.414063 4.476563c1.40625 15.183594 8.445313 29.742187 19.828125 40.992187 3.1875 3.160157 6.804688 6.105469 10.746094 8.753907l1.996094 1.339843s-.257813 2.503907-.261719 2.5625c.335937 9.339844-3.582031 18.691407-10.496094 25.042969l-2.574219 2.367188-2.691406-2.234375c-1.925781-1.605469-3.675781-3.226563-5.203125-4.820313-.347656-.363281-.664063-.722656-.964844-1.0625l-.347656-.390625c-1.667969-1.914062-2.761719-3.050781-4.894531-3.050781-.480469 0-1.003906.058594-1.566406.175781-2.472657.507813-5.570313 2.632813-9.210938 6.3125-5.253906 5.324219-8.34375 12.414063-8.472656 19.441406-.027344 1.355469.058594 2.738282.25 4.109376l1.046875 7.453124zm0 0" fill="#ffbf48"/><path d="m171.851562 251.578125c-4.101562 0-8.261718-.300781-12.359374-.890625-17.703126-2.539062-33.941407-10.367188-45.726563-22.035156-12.664063-12.515625-19.980469-29.328125-20.066406-46.121094-1 .453125-1.984375.851562-2.984375 1.15625l-5.164063 1.570312v-5.398437c0-.074219 0-.199219.011719-.359375 0-.148438.003906-.296875.011719-.445312.007812-.304688.007812-.609376.007812-.902344v-.488282l-.03125-.886718-.023437-.417969c-.015625-.269531-.042969-.542969-.066406-.8125l-.019532-.25c-.054687-.425781-.097656-.765625-.152344-1.085937l-.050781-.25c-.050781-.261719-.097656-.496094-.148437-.730469-.035156-.132813-.070313-.269531-.101563-.40625l-.179687-.613281-.050782-.144532c-.082031-.242187-.136718-.402344-.199218-.550781l-.140625-.351563c-.0625-.148437-.148438-.316406-.234375-.484374l-.097656-.203126c-.085938-.152343-.175782-.300781-.269532-.445312-.0625-.082031-.113281-.15625-.164062-.234375-.066406-.089844-.128906-.175781-.195313-.257813l-.109375-.128906-.027344-.042968-.035156-.035157c-.066406-.078125-.132812-.160156-.207031-.234375-.054687-.050781-.203125-.199218-.203125-.199218-.085938-.078126-.171875-.15625-.261719-.230469-.050781-.039063-.101562-.082031-.152343-.121094-.1875-.144531-.355469-.265625-.519532-.371094-.707031-.429687-1.464844-.664062-2.199218-.664062-.417969 0-.84375.078125-1.265626.226562-.203124.066407-.335937.132813-.46875.199219-.050781.023438-.109374.054688-.179687.085938-.113281.066406-.230469.128906-.34375.199218-.042969.023438-.082031.050782-.121094.074219-.105469.070313-.210937.144531-.316406.222656l-.261719.203125c-.152344.125-.296875.261719-.445312.40625l-.238282.238282c-.121093.125-.265624.28125-.40625.441406l-.152343.179687c-.179688.214844-.371094.449219-.554688.703125-.035156.050782-.070312.101563-.105469.152344-.167968.234375-.335937.476562-.496093.734375l-.25.394531c-.113281.1875-.277344.464844-.441407.757813l-.140624.238281-4.136719 7.257812-3.058594-7.777343c-3.5625-9.019531.539063-20.4375 8.953125-24.9375 4.140625-2.222657 8.9375-2.871094 13.582031-3.5l1.007813-.140625c.628906-.089844 1.257812-.175782 1.882812-.273438 10.902344-1.632812 21.46875-5.304687 31.429688-10.914062 8.601562-4.832032 16.4375-10.9375 23.296875-18.140625 4.65625-4.910157 8.140625-10.4375 11.507812-15.78125 1.71875-2.730469 3.375-5.339844 5.125-7.863281 2.5625-3.6875 5.625-5.722657 8.621094-5.722657.238281 0 .476563.011719.710937.039063 3.070313.339844 5.800782 2.917968 7.496094 7.074218 3.808594 9.265626 8.691406 19.996094 15.964844 29.261719 11.230469 14.316407 26.925781 22.867188 41.984375 22.867188 1.234375 0 2.476563-.0625 3.6875-.179688 1.722656-.164062 3.546875-.5 5.316406-.824219l.308594-.058593c3.046875-.5625 5.777344-1.027344 8.285156-1.027344 4.488281 0 7.8125 1.605469 10.160157 4.917969 4.082031 5.773437 5.191406 13.785156 2.894531 20.917968l-.890625 2.777344h-4.683594l-.011719-.011718h-.039062l-1.195313-1.347657c-.113281-.128906-.234375-.238281-.351562-.351562 0 0-.285156-.273438-.386719-.375-.003906-.003907-.003906-.003907-.003906-.003907s.027343.019532.058593.042969c-.15625-.132812-.273437-.214843-.390624-.304687l-.128907-.097656c-.105469-.078126-.210937-.15625-.316406-.242188-.015625-.011719-.390625-.207031-.390625-.207031-.101562-.054688-.203125-.109375-.300781-.171875-.191407-.082032-.355469-.140625-.5-.183594-.398438-.125-.761719-.179688-1.121094-.179688-.730469 0-1.484375.234376-2.242187.695313-.117188.074219-.28125.1875-.4375.304687l-.148438.128907c-.085938.066406-.171875.136719-.257812.21875 0 0-.339844.34375-.417969.429687l-.203125.246094-.261719.355469c-.058594.089843-.121094.1875-.171875.28125l-.066406.121093-.136719.214844c-.054687.101563-.085937.164063-.113281.226563 0 0-.167969.347656-.207032.421875-.078124.183594-.171874.410156-.257812.65625l-.097656.296875c-.066406.1875-.113282.347656-.160156.503906l-.113282.445313c-.035156.132812-.066406.289062-.105468.453124l-.195313 1.097657-.050781.367187-.078125.738282c-.007813.078124-.023438.1875-.027344.292968-.019531.320313-.039063.554688-.046875.789063l-.03125.535156c-.007812.394531-.015625.789063-.007812 1.199219v.085937l.011718.101563v.191406c0 .292969.007813.597656.023438.90625l.199218 3.820312-3.8125.363282c-.746093.070312-1.492187.109375-2.226562.109375-.652344 0-1.300781-.03125-1.9375-.085938-3.148438 19.015625-7.722656 38.730469-26.222656 52.746094-12.597656 9.550781-29.03125 14.8125-46.269532 14.8125zm0 0" fill="#ffdac4"/><path d="m164.726562 284.058594c-5.828124 0-11.308593-.414063-16.757812-1.265625-11.121094-1.753907-21.652344-5.609375-30.460938-11.15625l-4.230468-2.664063 3.523437-3.542968c5.398438-5.425782 8.722657-12.625 9.359375-20.273438l.503906-6 5.335938 2.789062c8.511719 4.445313 17.761719 7.40625 27.484375 8.804688 4.050781.589844 8.207031.890625 12.363281.890625 12.800782 0 25.257813-2.898437 36.015625-8.375l5.902344-3.003906-.089844 6.621093c-.105469 7.964844 2.964844 15.851563 8.429688 21.628907l4.667969 4.941406-6.585938 1.683594c-4.875 1.242187-10.617188 2.683593-16.222656 3.929687-15.324219 3.40625-27.792969 4.992188-39.238282 4.992188zm0 0" fill="#ffdac4"/><path d="m342.332031 475.164062c-.175781-29.558593-.355469-60.121093-8.429687-89.441406-9.175782-33.328125-27.710938-59.296875-52.199219-73.125-.398437-.230468-.824219-.363281-1.253906-.441406-.816407-7.726562-8.757813-12.070312-12.6875-14.210938-1.488281-.8125-3.074219-1.796874-4.429688-2.886718 14.429688-2.347656 26.441407-7.246094 35.734375-14.601563 12.488282-9.890625 19.746094-24.769531 18.9375-38.828125-.347656-6.058594-2.078125-11.804687-3.753906-17.355468-1.972656-6.539063-3.835938-12.71875-3.355469-18.90625.285157-3.707032 1.417969-7.378907 2.617188-11.269532 1.039062-3.367187 2.117187-6.851562 2.675781-10.53125 2.289062-15.101562-5.300781-31.0625-18.453125-38.820312-2.242187-1.320313-4.601563-2.417969-6.886719-3.476563-4.855468-2.253906-9.441406-4.382812-11.804687-8.183593-3.453125-5.554688-1.433594-12.980469.703125-20.839844.410156-1.515625.820312-3.019532 1.183594-4.492188 7.851562-31.851562-7.445313-68.3125-37.195313-88.671875-25.808594-17.65625-61.042969-23.410156-96.675781-15.792969-32.117188 6.871094-56.023438 23.816407-65.589844 46.492188-3.652344 8.671875-5.148438 17.902344-6.59375 26.832031-1.140625 7.035157-2.214844 13.683594-4.261719 20.109375-5.007812 15.734375-15.5625 29.136719-25.769531 42.09375-8.652344 10.992188-17.601562 22.351563-23.546875 35.597656-10.070313 22.425782-10.289063 49.300782-.578125 71.886719 9.152344 21.289063 27.140625 38.800781 48.609375 47.546875-26.972656 12.859375-48.777344 40.035156-59.386719 74.71875-10.53125 34.421875-9.792968 70.535156-9.078125 105.457032.164063 7.96875.386719 18.878906 6.867188 26.886718 8.277343 10.222656 23.007812 11.089844 32.585937 11.089844 1.054688 0 2.046875-.011719 2.960938-.019531l266.523437-2.824219c8.859375-.09375 18.054688-.699219 24.617188-6.828125 7.410156-6.917969 7.972656-17.652344 7.914062-27.164063zm-69.863281-161.730468c.011719 2.496094-2.449219 5.039062-5.113281 7.417968-17.183594 15.335938-35.214844 27.664063-53.601563 36.632813-12.578125 6.136719-22.355468 9.101563-31.710937 9.605469-11.492188.609375-22.273438-3.109375-28.875-9.976563-4.769531-4.960937-7.632813-11.480469-10.65625-18.382812-.75-1.707031-1.496094-3.410157-2.273438-5.089844-2.921875-6.320313-7.476562-14.671875-14.972656-19.839844 23.371094-4.570312 47.203125-6.496093 71.027344-5.703125 2.242187.042969 4.089843-1.671875 4.164062-3.898437.074219-2.222657-1.671875-4.085938-3.898437-4.160157-28.8125-.945312-57.671875 1.953126-85.734375 8.628907-.03125.007812-.058594.023437-.089844.03125-.640625-.09375-1.28125-.183594-1.917969-.269531-2.558594-.351563-4.972656-.683594-7.238281-1.320313-10.148437-2.863281-17.941406-13.363281-17.742187-23.902344.109374-5.996093 2.777343-12.070312 7.308593-16.660156 4.160157-4.210937 6.378907-5.03125 7.140625-5.1875.265625-.054687.464844-.097656.636719-.097656.492187 0 .78125.332031 1.890625 1.605469.449219.511718.933594 1.066406 1.480469 1.640624 11.039062 11.546876 27.035156 19.464844 45.042969 22.292969 16.429687 2.582031 34.164062 1.417969 57.507812-3.773437 7.328125-1.628906 14.695312-3.519532 21.820312-5.351563 10.765626-2.765625 21.898438-5.625 32.953126-7.582031.804687-.140625 2.691406-.472656 3.335937-.101562.441406.253906.671875 1.746093.105469 2.964843-.761719 1.644531-2.378906 3.121094-4.089844 4.683594-.332031.300781-.664062.605469-.988281.90625-2.53125 2.359375-5.503907 5.640625-6.007813 10.097656-.484375 4.300781 1.324219 8.277344 5.371094 11.882813-14.515625 13.5-33.808594 22.210937-53.515625 24.050781-2.214844.207031-3.847656 2.171875-3.640625 4.390625.195312 2.089844 1.953125 3.65625 4.011719 3.65625.125 0 .25-.007812.378906-.019531 22.058594-2.058594 43.625-12.039063 59.570313-27.449219 4.148437 2.28125 8.308593 5.035156 8.320312 8.277344zm-182.914062-133.738282c.003906-.160156.007812-.316406.011718-.472656.007813-.363281.015625-.722656.015625-1.074218 0-.183594-.003906-.367188-.007812-.550782-.003907-.320312-.015625-.636718-.027344-.945312-.007813-.175782-.015625-.355469-.027344-.527344-.023437-.328125-.050781-.648438-.082031-.964844-.015625-.136718-.023438-.277344-.039062-.414062-.050782-.4375-.113282-.863282-.183594-1.277344-.015625-.097656-.035156-.183594-.054688-.277344-.058594-.320312-.125-.632812-.195312-.9375-.035156-.144531-.074219-.285156-.109375-.425781-.066407-.246094-.132813-.488281-.207031-.726563-.042969-.144531-.09375-.285156-.140626-.425781-.078124-.230469-.160156-.453125-.25-.671875-.050781-.125-.097656-.253906-.148437-.375-.113281-.257812-.230469-.5-.355469-.742187-.035156-.074219-.070312-.152344-.105468-.222657-.164063-.304687-.339844-.597656-.523438-.875-.054688-.082031-.113281-.160156-.171875-.238281-.136719-.199219-.277344-.390625-.421875-.574219-.078125-.09375-.15625-.183593-.234375-.277343-.140625-.160157-.285156-.316407-.433594-.464844-.082031-.085937-.167969-.171875-.257812-.253906-.160157-.152344-.328125-.296875-.5-.433594-.082031-.066406-.160157-.136719-.242188-.199219-.257812-.195312-.523437-.382812-.800781-.554687-2.214844-1.351563-4.605469-1.640625-6.917969-.835938-.296875.105469-.589843.230469-.878906.371094-.082031.039063-.160156.082031-.242187.125-.222657.113281-.4375.234375-.652344.371094-.074219.046875-.152344.089843-.226563.140625-.28125.1875-.558593.386718-.832031.609375-.015625.011719-.03125.027343-.046875.039062-.257813.210938-.507813.441407-.757813.6875-.074218.070313-.148437.144531-.222656.21875-.203125.210938-.40625.429688-.605468.660157-.066407.074218-.128907.144531-.195313.222656-.257813.308594-.511719.632812-.765625.976562-.027344.042969-.054688.085938-.085938.128906-.222656.308594-.441406.632813-.65625.972657-.070312.109375-.140624.222656-.207031.332031-.191406.308594-.382812.632812-.570312.964844-.039063.070312-.082031.132812-.121094.203125-2.765625-7.015625.441406-16.371094 7.121094-19.941407 3.519531-1.886718 7.773437-2.464843 12.273437-3.074218.980469-.132813 1.957032-.265625 2.925782-.410156 11.339843-1.699219 22.367187-5.527344 32.777343-11.378907 8.949219-5.035156 17.101563-11.386719 24.226563-18.878906 4.957031-5.21875 8.554687-10.933594 12.039062-16.457031 1.589844-2.527344 3.234375-5.140625 4.984375-7.65625 1.863281-2.679688 3.964844-4.167969 5.613281-3.988282 1.53125.164063 3.117188 1.890626 4.230469 4.601563 3.90625 9.515625 8.921875 20.546875 16.515625 30.226563 13.039063 16.605468 31.898438 25.882812 49.214844 24.195312 1.984375-.191406 4.003906-.566406 5.953125-.925781 7.046875-1.304688 11.515625-1.894531 14.464844 2.273437 3.378906 4.769532 4.207031 11.597656 2.34375 17.375-.003907-.003906-.007813-.007812-.015625-.015625-.234375-.257812-.472656-.476562-.710938-.707031-.128906-.117188-.25-.253906-.375-.367188-.246094-.214843-.496094-.390624-.746094-.578124-.125-.09375-.25-.203126-.378906-.292969-.269531-.179688-.546875-.324219-.820312-.46875-.117188-.0625-.226563-.140625-.34375-.199219-.394532-.1875-.796875-.34375-1.207032-.464844-2.203124-.664062-4.472656-.335937-6.566406.945313-.269531.167969-.527344.347656-.777344.535156-.082031.0625-.160156.132813-.242187.199219-.164063.132812-.324219.269531-.480469.410156-.089844.085938-.175781.171875-.261718.261719-.136719.136719-.269532.277343-.398438.421875-.089844.097656-.171875.199218-.257812.300781-.121094.148437-.238282.304687-.351563.460937-.078125.109376-.15625.21875-.234375.332032-.109375.167968-.21875.34375-.320312.519531-.066407.113281-.136719.21875-.199219.335937-.117188.210938-.222657.433594-.328125.65625-.042969.09375-.089844.179688-.132813.273438-.136719.316406-.269531.640625-.390625.980469-.039062.117187-.074218.238281-.113281.359375-.078125.234375-.15625.46875-.222656.714844-.042969.152343-.082031.3125-.121094.46875-.054687.222656-.109375.445312-.160156.675781-.035157.171875-.066407.347656-.101563.527343-.042968.226563-.082031.457032-.117187.695313-.027344.183594-.054688.367187-.078125.558594-.03125.246093-.058594.496093-.082032.75-.019531.1875-.039062.375-.054687.570312-.019531.28125-.035156.570313-.046875.863281-.007812.171876-.019531.34375-.027344.519532-.011718.464844-.019531.941406-.015625 1.429687.003907.097657.007813.199219.007813.296875.007812.363282.015625.730469.03125 1.109375-1.152344.113281-2.296875.121094-3.425782.015625-2.089843-.199218-4.003906 1.277344-4.34375 3.367188-2.976562 18.195312-7.328124 37.0625-24.648437 50.183594-14.902344 11.296874-35.183594 16.089843-55.640625 13.148437-16.863281-2.425781-32.308594-9.855469-43.484375-20.921875-11.917969-11.785156-18.800781-27.570312-18.882813-43.304688-.007812-1.402343-.742187-2.699218-1.941406-3.429687-.640625-.386719-1.367187-.582031-2.089844-.582031-.632812 0-1.265624.148437-1.84375.445312-.71875.371094-1.480468.675782-2.273437.914063.003906-.054688.003906-.105469.007813-.160157zm-19.957032 21.796876c.3125-2.664063 2.171875-13.027344 5.101563-21.070313 2.613281-7.167969 4.628906-8.59375 5.035156-8.816406.03125.011719.070313.035156.121094.066406 1.320312.808594 2.261719 4.988281 1.203125 12.261719-.152344 1.042968-.316406 2.015625-.480469 2.824218-1.261719 6.3125-4.121094 12.097657-8.257813 16.730469-1.234374 1.378907-2.128906 1.800781-2.445312 1.882813-.09375-.109375-.230469-.339844-.308594-.660156-.222656-.890626-.101562-2.117188.03125-3.21875zm186.851563-18.683594c-.917969-7.570313.421875-10.566406 1.363281-11.136719.046875-.03125.085938-.050781.113281-.066406.117188.066406.367188.226562.722657.589843.007812.011719.015624.019532.023437.03125.050781.046876.101563.105469.152344.164063l.046875.046875c.046875.054688.097656.117188.152344.179688.019531.027343.039062.046874.058593.074218.050781.058594.101563.125.152344.195313.027344.035156.054687.066406.082031.101562.046875.066407.097656.136719.148438.207031.035156.046876.066406.089844.097656.136719.050781.070313.101562.148438.152344.222657.035156.058593.074218.109374.113281.171874.050781.074219.101563.160157.152344.238282.042969.070312.085937.132812.128906.207031.050781.082031.101563.175781.15625.261719.046875.078125.089844.15625.136719.238281.054687.09375.105468.191406.160156.289063.050781.089843.101562.179687.148438.273437.054687.097656.109374.203125.164062.308594.050781.105469.105469.207031.160156.316406.054688.105469.109375.21875.160156.328125.054688.109375.105469.214844.160157.328125.015625.039063.03125.078125.050781.117187 3.761719 8.0625 6.234375 21.230469 6.664062 24.878907.132813 1.082031.253907 2.308593.03125 3.195312v.011719c-.082031.316406-.21875.542969-.308593.652344-.308594-.078125-1.207031-.496094-2.445313-1.882813-4.140625-4.632812-6.996094-10.417969-8.253906-16.710937-.199219-1.027344-.453125-2.402344-.644531-3.96875zm-97.535157 71.902344c4.328126.625 8.652344.929687 12.929688.929687 13.472656 0 26.503906-3.042969 37.828125-8.816406-.121094 8.996093 3.351563 17.898437 9.53125 24.441406-5.332031 1.355469-10.75 2.699219-16.109375 3.890625-22.308594 4.960938-39.121094 6.097656-54.507812 3.679688-10.730469-1.6875-20.625-5.347657-28.945313-10.582032 6.042969-6.085937 9.792969-14.238281 10.511719-22.765625 8.78125 4.589844 18.539062 7.753907 28.761718 9.222657zm-130.789062-11.59375c-8.832031-20.546876-8.632812-44.996094.527344-65.398438 5.539062-12.339844 14.175781-23.304688 22.527344-33.910156 10.15625-12.898438 21.664062-27.511719 27.117187-44.636719 2.226563-6.996094 3.402344-14.253906 4.539063-21.269531 1.429687-8.851563 2.78125-17.207032 6.066406-24.988282 4.03125-9.5625 17.9375-32.777343 59.84375-41.742187 33.484375-7.15625 66.445312-1.847656 90.433594 14.566406 12.675781 8.671875 23.089843 21.289063 29.328124 35.53125 6.523438 14.882813 8.109376 30.289063 4.59375 44.554688-.351562 1.414062-.742187 2.855469-1.136718 4.308593-2.378906 8.753907-5.078125 18.671876.230468 27.210938 3.628907 5.84375 9.542969 8.585938 15.257813 11.238281 2.203125 1.023438 4.285156 1.992188 6.183594 3.109375 10.226562 6.03125 16.355469 18.925782 14.578125 30.664063-.46875 3.085937-1.410156 6.136719-2.40625 9.367187-1.277344 4.140625-2.597656 8.417969-2.957032 13.023438-.59375 7.695312 1.578126 14.894531 3.679688 21.855468 1.609375 5.339844 3.128906 10.382813 3.421875 15.492188.660156 11.480469-5.429687 23.757812-15.894531 32.042969-8.433594 6.675781-19.566406 11.09375-33.125 13.148437.695312-1.035156 1.660156-2.011718 2.542968-2.839844.304688-.285156.617188-.566406.925782-.847656 2.125-1.9375 4.527344-4.132812 5.972656-7.242187 2.046875-4.410157 1.339844-10.605469-3.378906-13.339844-3.191406-1.847656-6.828125-1.207031-8.78125-.859375-10.210938 1.804688-20.359375 4.332031-30.234375 6.859375-.234375-.554687-.578125-1.070313-1.066407-1.492187-6.515624-5.628907-10.050781-14.785157-9.007812-23.332032.089844-.726562-.039062-1.425781-.304688-2.054687 1.007813-.6875 2.003907-1.390625 2.976563-2.125 18.550781-14.058594 23.890625-33.148438 27.152344-51.878907.464843-.023437.929687-.0625 1.394531-.113281.019531.101563.039062.222657.058594.320313 1.542968 7.71875 5.054687 14.816406 10.152344 20.523437 2.699218 3.023438 5.644531 4.59375 8.519531 4.59375.910156 0 1.8125-.15625 2.699219-.476562 2.613281-.953125 4.621093-3.3125 5.367187-6.3125.53125-2.117188.386719-4.199219.15625-6.113281-.28125-2.367188-2.449219-15.480469-6.429687-25.191407.21875-.347656.441406-.691406.644531-1.042969 0-.003906.003906-.007812.007812-.011718 5.113281-9.011719 4.578125-21.105469-1.300781-29.402344-6.078125-8.585938-15.578125-6.824219-22.511719-5.542969-1.867187.347657-3.628906.671875-5.269531.832031-17.449219 1.707032-33.191406-9.816406-42.089844-21.148437-6.984375-8.90625-11.707031-19.308594-15.402344-28.3125-2.324218-5.65625-6.164062-9.046875-10.8125-9.554687-4.785156-.53125-9.429687 2.105468-13.113281 7.402343-1.847656 2.667969-3.542969 5.359375-5.183593 7.957031-3.421876 5.433594-6.65625 10.5625-11.0625 15.203126-6.570313 6.90625-14.085938 12.765624-22.332032 17.402343-9.554687 5.371094-19.65625 8.882813-30.023437 10.4375-.929688.140625-1.871094.265625-2.8125.394531-5.011719.679688-10.191407 1.382813-14.992188 3.953126-11.105469 5.933593-15.71875 20.917968-9.878906 32.0625.761719 1.453124 1.703125 2.804687 2.789063 4.058593-2.726563 8.328125-4.394532 17.746094-4.714844 20.488281-.234375 1.929688-.378906 4.011719.148437 6.121094.746094 2.996094 2.75 5.359375 5.386719 6.328125.878906.316407 1.777344.472657 2.683594.472657 2.867187 0 5.816406-1.574219 8.523437-4.597657 5.09375-5.703125 8.605469-12.800781 10.148438-20.515625.003906-.011718.003906-.023437.007812-.035156.476563-.066406.949219-.140625 1.414063-.238281 1.484375 15.972656 8.964844 31.5625 21.007812 43.472656 3.433594 3.402344 7.242188 6.480469 11.328125 9.230469-.023437.199218-.046875.398437-.039062.605468.332031 8.15625-3.1875 16.539063-9.199219 22.070313-1.722656-1.429687-3.359375-2.929687-4.878906-4.515625-.457032-.480469-.859375-.941406-1.234375-1.371094-1.9375-2.21875-4.59375-5.265625-10.226563-4.105468-3.316406.683593-6.996094 3.109374-11.253906 7.421874-5.96875 6.046876-9.480469 14.128907-9.632812 22.175782-.03125 1.589844.078124 3.175781.296874 4.742187-.042968-.019531-.085937-.046875-.128906-.0625-21.109375-7.394531-38.984375-24.074219-47.816406-44.621093zm300.789062 253.320312c-4.453124 4.160156-11.621093 4.578125-19.195312 4.65625l-47.632812.503906c0-.007812.003906-.019531.003906-.027344-1.910156-40.585937-1.214844-81.695312 2.066406-122.1875.179688-2.21875-1.476562-4.164062-3.695312-4.34375-2.234376-.167968-4.164063 1.472657-4.34375 3.695313-3.296876 40.742187-4.003907 82.109375-2.09375 122.949219l-181.332032 1.921875c3.457032-38.660157 3.828125-77.867188 1.09375-116.570313-.160156-2.21875-2.09375-3.898437-4.308594-3.734375-2.21875.15625-3.894531 2.085938-3.734374 4.304688 2.722656 38.542969 2.332031 77.589843-1.152344 116.085937l-21.398438.226563c-10.859375.117187-22.980468-.402344-29.195312-8.078125-4.386719-5.417969-4.890625-13.160156-5.074219-21.980469-.703125-34.285156-1.425781-69.742187 8.726563-102.933594 10.828124-35.378906 33.835937-62.332031 61.828124-72.621093 4.109376 7.859374 11.308594 14.136718 19.910157 16.5625 2.808593.792968 5.617187 1.179687 8.332031 1.550781 3.289062.449219 6.394531.875 9.15625 1.964843 6.195312 2.445313 11.292969 8.371094 16.042969 18.644532.753906 1.628906 1.480469 3.285156 2.207031 4.941406 3.175781 7.246094 6.460938 14.738281 12.230469 20.734375 7.726562 8.039063 19.308593 12.519531 32.121093 12.519531.992188 0 1.992188-.027344 3-.082031 13.433594-.722656 25.660157-5.945313 34.8125-10.410156 19.050782-9.292969 37.699219-22.03125 55.433594-37.863281 1.550782-1.386719 4.121094-3.6875 5.886719-6.738282 22.171875 12.894532 39.027344 36.898438 47.515625 67.734375 7.792969 28.296875 7.96875 58.316407 8.144531 87.347657.050781 8.164062-.324219 16.527343-5.355469 21.226562zm0 0"/></svg>