<svg height="512pt" viewBox="-87 0 512 512.00092" width="512pt" xmlns="http://www.w3.org/2000/svg"><g fill="#bfc7d8"><path d="m264.492188 203.289062c4.636718-21.28125 6.917968-43.148437 6.777343-64.992187l-.046875-7.191406 6.136719 3.753906c3.824219 2.34375 7.625 5.300781 10.425781 8.109375 9.042969 9.121094 13.75 21.683594 12.597656 33.609375-1.21875 12.539063-9.398437 24.136719-20.359374 28.855469-3.449219 1.492187-7.265626 2.398437-11.332032 2.695312l-5.339844.390625zm0 0"/><path d="m171.265625 223.847656c-4.398437 0-8.726563-2.332031-11.019531-5.9375-3.464844-5.453125-1.78125-11.023437.945312-14.421875 2.515625-3.105469 6.273438-4.957031 10.070313-4.957031 1.472656 0 2.933593.269531 4.34375.792969 4.984375 1.828125 8.519531 7.234375 8.207031 12.5625-.3125 5.382812-4.339844 10.261719-9.578125 11.589843-.953125.246094-1.953125.371094-2.96875.371094zm0 0"/><path d="m71.488281 208.132812c-4.0625-.296874-7.871093-1.207031-11.324219-2.699218-10.957031-4.714844-19.136718-16.3125-20.355468-28.855469-1.152344-11.925781 3.554687-24.488281 12.589844-33.601563 2.78125-2.789062 6.578124-5.746093 10.425781-8.113281l6.144531-3.773437-.046875 7.207031c-.140625 21.835937 2.140625 43.699219 6.769531 64.996094l1.136719 5.230469zm0 0"/></g><path d="m259.722656 207.859375c-1.804687-.230469-3.617187-.5625-5.382812-.988281-3.152344-.753906-7.558594-2.179688-9.40625-5.832032-1.019532-2.019531-1.070313-4.308593-1.03125-6.875.152344-10.171874.851562-20.46875 2.078125-30.601562.207031-1.707031.394531-3.492188.582031-5.328125.78125-7.710937 1.585938-15.6875 4.542969-22.230469 1.699219-3.734375 4.378906-5.949218 7.964843-6.597656.808594-.136719 1.59375-.203125 2.382813-.203125 2.066406 0 4.417969.445313 6.988281 1.324219l2.652344.902344.054688 2.800781c.476562 23.539062-1.855469 47.101562-6.929688 70.035156-.015625.152344-.050781.371094-.113281.617187l-.875 3.425782zm0 0" fill="#939baa"/><path d="m75.972656 204.3125c-5.074218-22.945312-7.40625-46.527344-6.929687-70.070312l.054687-2.792969 2.640625-.90625c2.574219-.890625 4.9375-1.339844 7.027344-1.339844.8125 0 1.601563.070313 2.34375.203125 3.597656.648438 6.277344 2.867188 7.972656 6.589844 2.960938 6.554687 3.769531 14.527344 4.546875 22.242187.191406 1.832031.375 3.617188.582032 5.324219 1.230468 10.128906 1.929687 20.421875 2.082031 30.601562.035156 2.578126-.019531 4.875-1.050781 6.890626-1.816407 3.632812-6.238282 5.0625-9.402344 5.816406-1.746094.425781-3.5625.753906-5.382813.988281l-3.941406.503906zm0 0" fill="#939baa"/><path d="m168.457031 296.890625 6.003907-.851563c15.53125-2.195312 30.0625-10.523437 39.871093-22.847656l8.8125-11.078125-1.714843 14.050781c-2.601563 21.316407-10.773438 41.5625-23.640626 58.542969l-3.558593 4.691407zm0 0" fill="#fff"/><path d="m143.542969 334.410156c-11.558594-18.375-22.34375-37.597656-32.054688-57.128906l6.730469-4.25c10.898438 13.902344 27.972656 22.691406 45.667969 23.515625l5.921875.273437-2.472656 5.386719c-5.066407 11.058594-10.78125 21.871094-16.980469 32.140625l-3.355469 5.558594zm0 0" fill="#fff"/><path d="m179.085938 505.28125 1.105468-4.800781c1.527344-6.613281 3.910156-12.875 6.433594-19.503907l.078125-.199218c3.550781-9.292969 7.203125-18.835938 7.929687-28.816406.59375-8.234376-.800781-16.488282-2.148437-24.472657l-12.195313-72.082031 1.328126-1.441406c.71875-.78125 1.027343-1.929688 1.25-2.769532l5.070312-19.101562 4.90625 4.855469c.542969.535156.945312.648437 1.238281.691406.117188.015625.207031.019531.296875.019531.800782 0 1.675782-.609375 2.605469-1.8125 13.644531-17.570312 22.429687-39.511718 24.75-61.789062l.847656-8.152344 5.902344 5.683594c1.875 1.800781 3.929687 3.65625 6.292969 5.667968.257812.21875 1.539062 1.28125 1.539062 1.28125l1.863282 1.570313-.535157 2.375c-16.3125 72.105469-28.257812 145.980469-35.515625 219.570313l-.359375 3.679687zm0 0" fill="#d8deec"/><path d="m140.5 504.53125-.734375-2.980469c-17.644531-71.648437-29.378906-145.277343-34.875-218.839843l-.574219-2.214844 1.605469-1.621094c.164063-.164062.3125-.308594.457031-.433594l3.890625-3.425781 2.328125 4.628906c10.425782 20.746094 21.984375 41.011719 34.359375 60.242188l.050781-.082031.097657-.0625 4.398437-7.007813 2.914063 7.316406c1.289062 3.238281 2.738281 6.316407 4.3125 9.148438.847656 1.519531 1.914062 3.234375 3.34375 4.359375l2.109375 1.65625-18.726563 65.800781c-1.980469 6.972656-4.023437 14.171875-4.421875 21.550781-.742187 13.878906 4.40625 27.195313 9.382813 40.074219 2.015625 5.214844 4.296875 11.117187 6.070312 16.957031l1.597657 5.265625zm0 0" fill="#d8deec"/><path d="m158.058594 504.871094-.800782-2.863282c-1.871093-6.710937-4.476562-13.4375-6.777343-19.371093-5.203125-13.460938-10.121094-26.179688-9.382813-40.078125.390625-7.335938 2.433594-14.515625 4.410156-21.460938l18.777344-65.996094 2.96875-.046874c1.035156-.019532 2.085938-.132813 2.988282-.234376 1.148437-.140624 2.289062-.265624 3.386718-.265624.363282 0 .714844.011718 1.054688.042968.40625.039063.78125.089844 1.160156.144532l.433594.0625c.308594.054687.632812.097656.976562.136718l2.953125.371094 12.207031 72.144531c1.355469 8.023438 2.75 16.277344 2.15625 24.503907-.734374 9.996093-4.226562 19.132812-7.921874 28.800781-2.484376 6.484375-5.292969 13.832031-6.855469 21.28125l-.675781 3.242187zm0 0" fill="#d34242"/><path d="m177.304688 354.886719c-.382813-.046875-.765626-.101563-1.070313-.148438-.523437-.078125-1.023437-.148437-1.503906-.191406-.375-.035156-.742188-.054687-1.144531-.054687-1.136719 0-2.308594.140624-3.347657.261718l-.117187.015625c-1.105469.121094-2.148438.242188-3.183594.242188-1.441406 0-2.640625-.25-3.664062-.753907-2.097657-1.058593-3.414063-3.179687-4.488282-5.082031-2.582031-4.648437-4.6875-9.546875-6.273437-14.589843-.023438-.054688-.972657-2.066407-.972657-2.066407l1.058594-1.828125c4.835938-8.269531 9.375-16.886718 13.484375-25.613281l3.175781-6.742187 19.175782 31.628906-5.660156 21.347656-.535157 2.132812-2.207031.777344s-.03125.011719-.089844.050782l-1.207031.78125zm0 0" fill="#d34242"/><path d="m203.234375 491.875c7.046875-67.546875 18.070313-135.417969 32.761719-201.71875l2.042968-9.21875 5.199219 7.878906c4.445313 6.734375 8.265625 13.140625 11.957031 19.335938 4.433594 7.453125 9.019532 15.15625 14.671876 23.382812 2.574218 3.75 4.714843 7.171875 4.78125 11.074219.117187 6.429687-5.464844 11.289063-10.726563 13.691406-2.660156 1.207031-5.445313 2.0625-8.140625 2.886719-3.125.964844-6.289062 1.941406-9.195312 3.398438-2.222657 1.121093-3.441407 2.269531-3.949219 3.722656-.65625 1.871094.140625 4.289062 1.980469 6.023437 1.203124 1.132813 2.6875 1.941407 4.125 2.726563l.488281.269531c.351562.195313.699219.386719 1.035156.589844 12.664063 7.414062 16.960937 23.410156 15.59375 35.96875-1.585937 14.40625-9.152344 27.136719-16.339844 37.6875-11.359375 16.652343-24.683593 32.015625-39.605469 45.667969l-7.773437 7.109374zm0 0" fill="#5b8baf"/><path d="m131.019531 497.257812c-16.007812-16.382812-31.15625-32.726562-40.515625-52.527343-8.828125-18.660157-13.429687-46.328125.136719-68.019531l.296875-.476563c1.109375-1.753906 2.246094-3.550781 2.371094-5.601563.148437-2.472656-1.265625-5.058593-3.785156-6.90625-1.835938-1.347656-4.015626-2.195312-6.121094-3.015624-.453125-.171876-.898438-.339844-1.335938-.523438-5.011718-1.980469-13.828125-6.574219-15.550781-14.753906-1.238281-5.882813 1.570313-11.949219 4.480469-17.109375 7.953125-14.050781 17.941406-26.71875 27.488281-38.492188l6.28125-7.746093.8125 9.9375c5.535156 67.660156 16.367187 135.457031 32.191406 201.507812l3.375 14.085938zm0 0" fill="#5b8baf"/><path d="m244.828125 139.1875c-12.519531-7.292969-22.992187-18.402344-29.488281-31.285156-6.921875-13.707032-9.527344-29.636719-7.328125-44.851563-5.605469 8.445313-12.570313 14.945313-20.195313 18.773438-5.3125 2.664062-11.078125 4.070312-16.675781 4.070312-3.621094 0-7.105469-.578125-10.347656-1.71875-9.0625-3.1875-16.058594-11.222656-17.40625-19.996093-3.816407 30.03125-22.261719 58.527343-48.191407 74.375l-4.019531 2.457031-1.910156-4.722657c-.046875-.117187-.09375-.234374-.144531-.351562-1.265625-2.800781-3.144532-4.78125-5.5625-5.847656l-2.066406-.914063-.296876-2.292969c-6.367187-23.414062-6.316406-42.316406.15625-57.789062 7.070313-16.898438 21.757813-29.332031 34.714844-40.296875 6.945313-5.886719 14.132813-11.976563 22.574219-15.878906 6.1875-2.867188 12.902344-4.472657 18.714844-5.746094 7.011719-1.53125 15.289062-3.101563 23.554687-3.101563 5.976563 0 11.25.804688 16.109375 2.460938 6.109375 2.085938 11.421875 5.457031 17.042969 9.023438l.152344.097656c3.578125 2.285156 7.628906 4.867187 11.769531 6.875 1.734375.839844 3.5 1.609375 5.617187 2.507812 5.429688 2.316406 10.980469 4.6875 14.945313 8.996094 4.390625 4.792969 6.242187 11.277344 8.027344 17.550781l.605469 2.132813c1.34375 4.628906 2.917968 9.265625 4.4375 13.75 2.492187 7.34375 5.066406 14.933594 6.714843 22.695312 2.113281 9.957032 3.335938 24.433594-2.84375 36.832032l-1.011719 2.03125-2.261718.171874c-.429688.035157-.785156.078126-1.085938.136719-3.6875.660157-6.382812 2.890625-8.074218 6.636719-.113282.246094-.207032.488281-.300782.730469l-.207031.53125-1.730469 4.277343zm0 0" fill="#644c4c"/><path d="m314.648438 507.9375c-.761719 0-1.53125-.011719-2.304688-.027344l-22.753906-.4375-.285156-3.617187c-2.519532-31.882813-2.914063-64.1875-1.179688-96.023438-1.785156 31.519531-1.410156 63.5625 1.054688 95.238281l.339843 4.398438-91.296875-1.800781 7.75-6.800781c16.578125-14.554688 31.246094-31.128907 43.59375-49.257813 6.773438-9.929687 14.753906-23.191406 16.347656-37.722656 1.378907-12.566407-2.921874-28.585938-15.644531-36.046875-.492187-.289063-.980469-.554688-1.472656-.8125l-.234375-.132813c-1.351562-.75-2.75-1.527343-3.898438-2.609375-1.421874-1.34375-2.769531-3.699218-1.960937-5.972656.5-1.414062 1.707031-2.546875 3.90625-3.667969 2.882813-1.453125 5.863281-2.371093 9.019531-3.339843l.175782-.054688c2.710937-.832031 5.507812-1.6875 8.140624-2.894531 5.28125-2.417969 10.882813-7.292969 10.765626-13.742188-.066407-4.234375-2.6875-8.042969-4.789063-11.105469-5.675781-8.261718-10.460937-16.300781-14.679687-23.394531l-.835938-1.398437c-1.410156-2.367188-2.839844-4.765625-4.320312-7.191406l5.894531-5.222657c.742187.585938 1.496093 1.171875 2.238281 1.738281 9.804688 7.621094 19.917969 15.480469 29.285156 23.90625 19.988282 17.984376 32.925782 35.730469 39.554688 54.246094 7.15625 20.027344 7.269531 42.089844 7.371094 61.558594.085937 17.582031.121093 34.273438.101562 49.605469-.011719 6.746093-.441406 14.3125-5.429688 18.695312-3.867187 3.417969-9.230468 3.886719-14.453124 3.886719zm0 0" fill="#3a6082"/><path d="m48.566406 502.710938.011719.058593-4.90625-.148437-23.96875-.480469c-4.175781-.070313-8.164063-.335937-11.03125-2.769531-3.683594-3.117188-4.03125-8.621094-4.070313-13.539063l-.507812-65.71875c-.238281-30.640625.804688-57.757812 16.03125-79.269531 11.6875-16.511719 30.042969-26.554688 47.796875-36.269531l.652344-.355469c3.308593-1.816406 6.730469-3.691406 10.019531-5.574219 1.78125-1.015625 3.570312-2.070312 5.476562-3.242187l5.257813 5.855468c-7.855469 10.171876-13.699219 18.761719-18.386719 27.039063-2.914062 5.160156-5.730468 11.242187-4.484375 17.152344 1.640625 7.773437 9.421875 12.359375 15.660157 14.835937l.246093.097656c.292969.113282.578125.226563.871094.332032l.171875.066406c2.085938.816406 4.242188 1.660156 6.070312 2.984375 2.53125 1.875 3.929688 4.441406 3.765626 6.890625-.121094 2.042969-1.3125 3.902344-2.359376 5.542969l-.304687.480469c-11.347656 18.160156-11.398437 44.246093-.128906 68.070312 9.382812 19.851562 24.613281 36.273438 40.710937 52.734375l6.835938 6.988281zm-1.101562-111.574219c1.414062 35.378906 1.507812 71.3125.222656 106.808593l.03125.160157.007812-.050781c.011719-.0625.023438-.128907.03125-.195313 1.28125-35.320313 1.183594-71.253906-.292968-106.722656zm0 0" fill="#3a6082"/><path d="m168.078125 256.8125c-10.578125 0-21.160156-2.097656-30.597656-6.0625-19.558594-8.214844-35.75-24.992188-43.320313-44.886719l-.773437-2.035156 1.292969-1.753906c.253906-.347657.460937-.683594.636718-1.027344.429688-.839844.714844-1.847656.878906-3.082031l.78125-5.84375 5.140626 2.882812c16.164062 9.058594 34.40625 14.8125 52.769531 16.648438l.804687.007812-1.359375-.140625c-19.753906-2.046875-39.183593-8.585937-56.195312-18.90625l-1.851563-1.125-.070312-2.167969c-.285156-8.828124-.9375-17.496093-1.941406-25.765624-.175782-1.472657-.335938-2.992188-.5-4.546876l-.078126-.757812c-.457031-4.507812-.972656-9.59375-2.019531-14.339844l-.625-2.84375 2.515625-1.46875c22.953125-13.402344 40.695313-36.992187 47.464844-63.101562l2.058594-7.941406 4.988281 6.511718c3.230469 4.21875 7.621094 7.386719 12.699219 9.167969 3.238281 1.140625 6.71875 1.71875 10.34375 1.71875 5.625 0 11.410156-1.410156 16.730468-4.078125 4.425782-2.21875 8.636719-5.339844 12.511719-9.277344l6.648438-6.765625.199219 9.484375c.238281 11.332032 3.03125 22.613282 8.074218 32.625 6.796875 13.472656 17.855469 24.914063 31.132813 32.214844l2.605469 1.429688-.617188 2.902343c-.964844 4.558594-1.46875 9.441407-1.914062 13.753907-.179688 1.8125-.363282 3.597656-.566407 5.300781-1.234375 10.140625-1.933593 20.4375-2.082031 30.617187-.027344 1.980469.023438 3.601563.378906 5.058594l.527344 2.1875-1.589844 1.585938c-5.355468 15.855468-16.015625 29.988281-30.054687 39.808593l-.351563.246094-.394531.164063c-.007813.003906-.039063.015624-.082031.0625l-.304688.320312-.367187.246094c-3.503907 2.335937-7.167969 4.375-10.898438 6.058594-10.003906 4.523437-21.285156 6.914062-32.628906 6.914062zm-9.371094-42.21875c.328125 1.1875.824219 2.3125 1.484375 3.347656 2.304688 3.625 6.667969 5.960938 11.117188 5.960938 1.003906 0 1.988281-.121094 2.921875-.363282 5.199219-1.3125 9.339843-6.320312 9.644531-11.644531.3125-5.445312-3.164062-10.761719-8.265625-12.636719-1.433594-.527343-2.914063-.792968-4.398437-.792968-3.847657 0-7.511719 1.808594-10.054688 4.96875-1.234375 1.527344-2.085938 3.226562-2.53125 5.054687l-.789062 3.253907zm0 0" fill="#ffdac4"/><path d="m166.453125 296.550781c-19.480469 0-38.566406-9.867187-49.816406-25.746093l-1.582031-2.230469 1.507812-2.285157c3.523438-5.34375 6.019531-10.957031 7.410156-16.683593l1.246094-5.113281 4.59375 2.570312c2.53125 1.414062 5.101562 2.671875 7.648438 3.742188 9.425781 3.964843 20.015624 6.058593 30.621093 6.058593 11.359375 0 22.652344-2.386719 32.652344-6.90625 2.242187-1.011719 4.503906-2.175781 6.722656-3.46875l4.5-2.625 1.371094 5.027344c1.152344 4.21875 3.160156 8.296875 6.132813 12.472656l2.246093 3.152344-3.082031 2.347656c-10.316406 17.347657-30.082031 29.003907-50.304688 29.65625-.621093.019531-1.246093.03125-1.867187.03125zm0 0" fill="#ffdac4"/><path d="m338.492188 435.726562c-.101563-19.800781-.222657-42.242187-7.613282-62.902343-6.859375-19.164063-20.160156-37.449219-40.660156-55.898438-9.46875-8.523437-19.644531-16.425781-29.480469-24.066406-7.753906-6.023437-15.769531-12.25-23.324219-18.695313-9.210937-7.855468-18.730468-17.367187-20.742187-28.914062 12.957031-9.433594 23.265625-22.640625 29.054687-37.539062 2.960938 1.988281 6.246094 2.773437 7.679688 3.113281 3.410156.816406 7.632812 1.488281 12.234375 1.488281 5.050781 0 10.566406-.8125 15.988281-3.144531 12.472656-5.367188 21.417969-18.007813 22.792969-32.203125 1.269531-13.117188-3.871094-26.894532-13.753906-36.851563-3.554688-3.585937-12.792969-11.136719-22.355469-13.917969 4.257812-10.222656 4.964844-22.878906 1.996094-36.875-1.6875-7.957031-4.308594-15.683593-6.839844-23.15625-1.511719-4.457031-3.074219-9.066406-4.394531-13.617187-.203125-.6875-.398438-1.378906-.59375-2.074219-1.917969-6.730468-3.898438-13.691406-8.945313-19.1875-4.566406-4.96875-10.550781-7.519531-16.335937-9.984375-1.902344-.8125-3.695313-1.574219-5.433594-2.417969-3.875-1.882812-7.519531-4.203124-11.375-6.65625-5.621094-3.578124-11.4375-7.277343-18.058594-9.535156-13.582031-4.636718-28.140625-2.492187-41.847656.515625-6.023437 1.320313-12.996094 2.984375-19.558594 6.023438-8.925781 4.136719-16.328125 10.402343-23.484375 16.460937-13.316406 11.277344-28.40625 24.054688-35.84375 41.835938-6.578125 15.726562-6.90625 34.644531-1.015625 57.726562-11.09375 1.140625-22.925781 10.6875-27.066406 14.859375-9.878906 9.957031-15.019531 23.734375-13.75 36.851563 1.371094 14.195312 10.320313 26.835937 22.792969 32.203125 5.417968 2.332031 10.933594 3.144531 15.984375 3.144531 4.605469 0 8.824219-.671875 12.234375-1.488281.914062-.214844 2.578125-.617188 4.429687-1.386719 6.035157 14.574219 16.441407 27.402344 29.375 36.523438-1.578125 8.796874-5.8125 17.132812-12.808593 25.113281-.570313.382812-1.019532.882812-1.324219 1.464843-7.238281 7.832032-17.160157 15.324219-29.867188 22.570313-3.480469 1.988281-7.109375 3.972656-10.617187 5.894531-18.160156 9.945313-36.941406 20.226563-49.160156 37.484375-15.921876 22.492188-17.019532 50.289063-16.7773442 81.65625l.5039062 65.714844c.03125 4.199219.089844 12.019531 5.511719 16.609375 4.191406 3.550781 9.835937 3.664062 13.574219 3.738281l292.644531 5.769531c.761719.011719 1.523437.023438 2.285156.023438 6.199219 0 12.441406-.671875 17.238281-4.894531 6.257813-5.511719 6.792969-14.117188 6.800782-21.75.027343-16.363281-.007813-33.0625-.09375-49.628907zm-96.617188-60.484374c1.582031 1.488281 3.371094 2.46875 4.949219 3.332031.46875.253906.933593.507812 1.390625.777343 11.152344 6.535157 14.894531 20.828126 13.660156 32.097657-1.480469 13.535156-8.753906 25.730469-15.667969 35.875-11.210937 16.449219-24.3125 31.542969-38.996093 44.96875 7.042968-67.460938 18.023437-135.058594 32.691406-201.265625 4.367187 6.617187 8.167968 12.984375 11.851562 19.175781 4.488282 7.53125 9.125 15.320313 14.8125 23.597656 2.285156 3.320313 4.035156 6.085938 4.082032 8.878907.078124 4.5-4.46875 8.1875-8.386719 9.980468-2.378907 1.085938-4.9375 1.871094-7.648438 2.703125-3.242187.996094-6.59375 2.023438-9.820312 3.652344-2.007813 1.011719-4.808594 2.730469-5.9375 5.976563-1.179688 3.386718.003906 7.410156 3.019531 10.25zm-9.695312-94.941407c.515624.4375 1.046874.867188 1.566406 1.304688-16.351563 72.285156-28.324219 146.304687-35.59375 220.058593l-14.066406-.277343c1.484374-6.414063 3.859374-12.640625 6.359374-19.179688 3.640626-9.523437 7.402344-19.367187 8.171876-29.953125.636718-8.730468-.800782-17.242187-2.195313-25.472656l-11.863281-70.113281c1.378906-1.496094 1.875-3.316407 2.171875-4.433594l3.300781-12.445313c.832031.828126 1.972656 1.601563 3.511719 1.816407.28125.039062.5625.058593.839843.058593 2.09375 0 4.03125-1.128906 5.773438-3.371093 14.207031-18.296875 23.160156-40.765625 25.554688-63.820313 2.117187 2.039063 4.300781 3.976563 6.46875 5.828125zm-71.074219 220.632813c-1.875-6.742188-4.417969-13.34375-6.894531-19.746094-5.046876-13.058594-9.8125-25.394531-9.121094-38.410156.371094-6.914063 2.355468-13.894532 4.277344-20.644532l17.949218-63.082031c1.195313-.023437 2.34375-.140625 3.386719-.261719 1.332031-.152343 2.589844-.300781 3.640625-.203124.414062.039062.84375.105468 1.277344.171874.355468.050782.738281.109376 1.140625.15625l11.710937 69.210938c1.3125 7.761719 2.667969 15.78125 2.105469 23.542969-.683594 9.402343-4.078125 18.269531-7.664063 27.660156-2.6875 7.035156-5.445312 14.296875-7.03125 21.894531zm-17.457031-.34375c-17.585938-71.421875-29.28125-144.824219-34.769532-218.175782-.019531-.246093-.066406-.480468-.125-.714843.089844-.085938.179688-.175781.273438-.261719 10.421875 20.753906 22.027344 41.125 34.570312 60.613281.738282 1.15625 2.019532 1.851563 3.390625 1.851563h.015625c1.378906-.007813 2.65625-.714844 3.394532-1.878906.101562-.164063.199218-.328126.300781-.492188 1.3125 3.292969 2.8125 6.515625 4.535156 9.605469 1.128906 2.027343 2.445313 4.058593 4.371094 5.566406l-17.992188 63.222656c-2.042969 7.179688-4.15625 14.601563-4.570312 22.421875-.789063 14.742188 4.519531 28.46875 9.652343 41.746094 2.109376 5.460938 4.269532 11.070312 5.96875 16.671875zm-51.757813-140.085938c-2.289063-1.679687-4.855469-2.671875-7.121094-3.546875-.382812-.148437-.769531-.296875-1.148437-.449219-4.355469-1.730468-11.859375-5.574218-13.1875-11.894531-.96875-4.597656 1.503906-9.816406 4.046875-14.316406 7.628906-13.484375 17.367187-25.933594 27.105469-37.945313 5.566406 67.933594 16.414062 135.832032 32.292968 202.109376-15.179687-15.53125-30.445312-31.738282-39.761718-51.441407-8.375-17.710937-12.792969-43.871093-.089844-64.1875l.304687-.480469c1.238281-1.960937 2.777344-4.402343 2.964844-7.46875.238281-3.839843-1.785156-7.722656-5.40625-10.378906zm87.046875-10.339844c-.015625.0625-.039062.148438-.058594.226563-.402344.125-.773437.296875-1.105468.527344-.339844-.042969-.683594-.09375-.953126-.136719-.585937-.085938-1.164062-.171875-1.722656-.222656-1.894531-.179688-3.714844.035156-5.324218.21875-1.957032.230468-3.652344.421875-4.71875-.105469-1.035157-.515625-1.949219-1.964844-2.777344-3.457031-2.460938-4.414063-4.472656-9.097656-5.980469-13.914063-.0625-.207031-.15625-.398437-.25-.585937 4.933594-8.429688 9.5-17.105469 13.652344-25.933594l14.433593 23.804688zm-3.917969-50.160156c16.476563-2.335937 32.078125-11.300781 42.441407-24.324218-2.488282 20.410156-10.457032 40.234374-22.863282 56.609374zm-28.085937 32.273438c-11.535156-18.324219-22.222656-37.386719-31.863282-56.769532 11.558594 14.738282 29.917969 24.167969 48.632813 25.035157-4.976563 10.859375-10.59375 21.5-16.769531 31.734375zm101.570312-133.050782c-.609375-1.207031-.632812-2.980468-.601562-5 .152344-10.042968.839844-20.199218 2.050781-30.183593.210937-1.734375.394531-3.542969.585937-5.398438.753907-7.414062 1.535157-15.082031 4.214844-20.996093 1.503906-3.320313 3.59375-4.046876 5.03125-4.304688.53125-.097656 1.085938-.140625 1.664063-.140625 1.734375 0 3.679687.414063 5.703125 1.109375.472656 23.28125-1.839844 46.597656-6.886719 69.332031-.019531.085938-.019531.167969-.03125.25-1.796875-.230469-3.46875-.554687-4.960937-.910156-3.726563-.890625-5.941407-2.117187-6.769532-3.757813zm47.894532-23.035156c-1.078126 11.136719-8.292969 21.414063-17.957032 25.574219-3.332031 1.433594-6.75 2.132813-10.035156 2.378906 4.703125-21.625 7.007812-43.75 6.867188-65.875 3.738281 2.296875 7.21875 5.046875 9.671874 7.523438 8.210938 8.273437 12.492188 19.636719 11.453126 30.398437zm-211.359376-105.550781c6.6875-15.992187 20.992188-28.105469 33.617188-38.792969 6.746094-5.714844 13.722656-11.621094 21.660156-15.296875 5.828125-2.699219 12.292969-4.234375 17.898438-5.464843 12.566406-2.757813 25.808594-4.757813 37.515625-.761719 5.710937 1.949219 10.871093 5.234375 16.335937 8.707031 3.878906 2.46875 7.890625 5.023438 12.179688 7.105469 1.917968.929687 3.890625 1.769531 5.792968 2.582031 5.230469 2.230469 10.171876 4.335938 13.5625 8.027344 3.75 4.085937 5.390626 9.839844 7.125 15.9375.203126.707031.402344 1.414062.605469 2.117187 1.371094 4.71875 2.964844 9.414063 4.503907 13.957031 2.457031 7.25 4.996093 14.746094 6.585937 22.238282 1.992187 9.378906 3.140625 22.875-2.515625 34.214844-.519531.046874-1.035156.105468-1.546875.195312-4.921875.886719-8.707031 3.96875-10.949219 8.914062-.207031.460938-.378906.941407-.570312 1.414063-11.875-6.921875-21.738282-17.359375-27.925782-29.628906-6.558593-12.992188-9.023437-28.082031-6.9375-42.488281.269532-1.867188-.792968-3.675782-2.5625-4.34375-1.769531-.671876-3.761718-.023438-4.800781 1.554687-5.171875 7.890625-11.601562 13.910156-18.589843 17.417969-7.863282 3.945312-16.574219 4.730468-23.898438 2.15625-7.710938-2.710938-13.652344-9.472656-14.78125-16.832032-.304688-1.988281-2-3.441406-4.039062-3.421874-2.011719.027343-3.695313 1.535156-3.945313 3.53125-3.632813 29.074218-21.253906 56.191406-46.246094 71.460937-.117187-.273437-.210937-.554687-.332031-.820313-1.703125-3.757812-4.300781-6.433593-7.609375-7.894531-.023437-.152343-.035156-.308593-.078125-.460937-6.164062-22.578125-6.183594-40.679688-.054688-55.324219zm-41.246093 105.550781c-1.042969-10.757812 3.238281-22.121094 11.449219-30.398437 2.457031-2.476563 5.9375-5.21875 9.675781-7.519531-.140625 22.125 2.164062 44.246093 6.867187 65.871093-3.285156-.246093-6.703125-.945312-10.039062-2.382812-9.660156-4.15625-16.875-14.433594-17.953125-25.570313zm41.121093 26.792969c-1.488281.355469-3.160156.679687-4.960937.910156-.011719-.082031-.007813-.164062-.027344-.25-5.046875-22.734375-7.359375-46.050781-6.890625-69.328125 2.703125-.925781 5.257813-1.351562 7.371094-.972656 1.441406.257812 3.527344.984375 5.03125 4.304688 2.679688 5.914062 3.460938 13.582031 4.214844 20.996093.191406 1.851563.375 3.664063.585937 5.398438 1.210938 9.988281 1.902344 20.140625 2.050781 30.183593.03125 2.019532.007813 3.792969-.601562 5-.832031 1.640626-3.042969 2.867188-6.773438 3.757813zm12.984376 1.460937c.359374-.492187.695312-1.011718.984374-1.582031.722657-1.433593 1.089844-2.9375 1.28125-4.367187 16.695313 9.351562 35.371094 15.261718 54.402344 17.144531.09375.007813.1875.007813.28125.011719.425782 1.535156 1.074219 3.027344 1.96875 4.4375 3.089844 4.863281 8.78125 7.8125 14.492188 7.808594 1.316406 0 2.636718-.15625 3.925781-.484376 6.914063-1.757812 12.226563-8.1875 12.636719-15.296874.410156-7.15625-4.164063-14.144532-10.878906-16.613282-6.828126-2.515625-14.269532-.386718-18.957032 5.421875-1.625 2.019531-2.722656 4.277344-3.300781 6.621094-19.207031-1.996094-38.011719-8.332031-54.523437-18.355469-.277344-8.710937-.921876-17.472656-1.96875-26.117187-.207032-1.683594-.382813-3.445313-.570313-5.246094-.480469-4.738281-1.007813-9.871094-2.097656-14.777344 24.203125-14.121093 42.292969-38.429687 49.324219-65.542969 3.597656 4.695313 8.652343 8.433594 14.550781 10.503907 9.378906 3.300781 20.382812 2.363281 30.1875-2.558594 4.832031-2.421875 9.410156-5.824219 13.570312-10.046875.257813 11.882812 3.15625 23.734375 8.503907 34.332031 7.183593 14.234375 18.804687 26.25 32.777343 33.925781-1 4.722657-1.511719 9.621094-1.972656 14.167969-.1875 1.800781-.363281 3.558594-.570313 5.242188-1.242187 10.265625-1.953124 20.707031-2.109374 31.035156-.027344 2.050781.007812 4.074219.492187 6.054687-.433594.429688-.785156.953126-.996094 1.570313-5.09375 15.15625-15.386719 28.597656-28.527343 37.792969-.546876.226562-1.03125.5625-1.421876.992187-3.285156 2.1875-6.734374 4.117188-10.324218 5.738281-18.683594 8.445313-41.125 8.742188-60.03125.804688-18.632813-7.828125-33.941406-23.722656-41.128906-42.617188zm66.414062 1.542969c1.433594-1.78125 3.9375-3.460937 6.945312-3.460937.941407 0 1.929688.164062 2.949219.539062 3.355469 1.234375 5.820313 5.007813 5.613281 8.585938-.210937 3.632812-3.035156 7.046875-6.570312 7.949218-3.527344.894532-7.667969-.753906-9.628906-3.839843-2.941406-4.625-.214844-8.652344.691406-9.773438zm-28.40625 48.503907c10.113281 4.25 21.140625 6.367187 32.171875 6.367187 11.800781 0 23.609375-2.421875 34.300781-7.257813 2.425782-1.09375 4.789063-2.324218 7.09375-3.660156 1.355469 4.980469 3.742188 9.539063 6.730469 13.734375-.378906.296875-.714844.660157-.976563 1.097657-9.671874 16.246093-28.136718 27.140624-47.039062 27.75-18.640625.613281-37.507812-8.8125-48.285156-24.035157 3.800781-5.757812 6.445312-11.730469 7.957031-17.9375 2.609375 1.460938 5.292969 2.785157 8.046875 3.941407zm-124.648438 241.828124c-2.398437-2.03125-2.632812-6.496093-2.660156-10.523437l-.503906-65.710937c-.230469-29.945313.761719-56.40625 15.296875-76.9375 11.144531-15.738282 29.09375-25.566407 46.449219-35.070313 3.539062-1.9375 7.199218-3.941406 10.742187-5.964844 1.917969-1.09375 3.773438-2.195312 5.574219-3.300781-6.746094 8.734375-13.203125 17.8125-18.691406 27.511719-3.285156 5.808593-6.441406 12.722656-4.921875 19.949219 1.582031 7.523437 7.84375 13.652343 18.101562 17.726562.40625.160156.808594.316406 1.214844.472656 1.972656.765625 3.832031 1.484375 5.261719 2.53125 1.339844.984375 2.195312 2.34375 2.132812 3.386719-.0625 1-.878906 2.289063-1.738281 3.652344l-.324219.511719c-12.070312 19.304687-12.210937 46.859374-.363281 71.910156 9.894531 20.917968 26.367187 38.371094 41.46875 53.820312l-76.640625-1.511718c.046875-.222657.085938-.449219.09375-.683594 1.285156-35.546875 1.191406-71.585938-.285156-107.113282-.089844-2.222656-1.960938-3.957031-4.195313-3.859374-2.222656.089843-3.953125 1.96875-3.859375 4.195312 1.464844 35.320312 1.5625 71.148438.285156 106.484375-.011718.28125.007813.554687.050782.824219l-23.964844-.472656c-3.4375-.070313-6.671875-.261719-8.523438-1.828126zm319.269532-10.972656c-.003906 5.875-.328125 12.414063-4.066406 15.707032-3.21875 2.832031-8.476563 2.96875-14.035157 2.859374l-19.136719-.375c-2.503906-31.660156-2.898437-63.777343-1.164062-95.488281.121094-2.226562-1.585938-4.125-3.804688-4.246093-2.222656-.113282-4.125 1.582031-4.246093 3.804687-1.738281 31.800781-1.351563 64.011719 1.121093 95.769531l-76.585937-1.511718c16.789063-14.730469 31.675781-31.539063 44.261719-50 7.039062-10.328126 15.335937-24.152344 17.023437-39.539063 1.515625-13.855469-3.339843-31.574219-17.601562-39.933594-.523438-.308593-1.0625-.601562-1.597657-.898437-1.265624-.691406-2.464843-1.34375-3.289062-2.121094-.761719-.71875-1-1.535156-.933594-1.726562.019532-.054688.238282-.570313 1.953125-1.433594 2.617188-1.320313 5.503907-2.207032 8.558594-3.144532 2.839844-.871093 5.773437-1.769531 8.632813-3.078124 6.425781-2.9375 13.242187-9.066407 13.09375-17.453126-.09375-5.4375-3.214844-9.984374-5.496094-13.304687-5.535156-8.0625-10.109375-15.738281-14.527344-23.160156-1.691406-2.835938-3.402344-5.707031-5.183594-8.628907.765625.59375 1.53125 1.191407 2.289063 1.78125 9.726562 7.554688 19.78125 15.363282 29.035156 23.691407 19.480469 17.535156 32.0625 34.746093 38.460937 52.625 6.929688 19.359375 7.042969 41.070312 7.144532 60.226562.082031 16.550781.113281 33.230469.09375 49.578125zm0 0"/></svg>