<svg height="512pt" viewBox="-76 0 512 512.00355" width="512pt" xmlns="http://www.w3.org/2000/svg"><path d="m176.683594 507.9375c-24.382813 0-49.003906-.785156-73.175782-2.335938-6.390624-.40625-12.476562-1.105468-16.726562-5.082031-5.425781-5.074219-5.578125-13.539062-5.296875-21.070312l4.09375-110.367188-1.929687 50.265625-.15625 4.332032-79.421876-9.332032.746094-4.179687c2.105469-11.828125 4.523438-24.371094 8.828125-36.222657 5.339844-14.722656 12.914063-26.300781 22.503907-34.417968 11.246093-9.527344 25.703124-14.621094 39.679687-19.546875l.125-.042969c13.070313-4.609375 26.589844-9.371094 37.292969-17.75l9.203125-7.199219-2.859375 11.328125c-3.574219 14.179688-5.324219 28.796875-5.199219 43.449219.039063 4.707031 1.027344 10.664063 5.507813 12.335937.769531.289063 1.523437.429688 2.324218.429688 3.789063 0 7.558594-3.164062 9.371094-4.683594l33.652344-28.292968.785156 7.5c.519531 4.980468-.0625 10.292968-.574219 14.976562-.339843 3.21875-.90625 8.53125 1.996094 11.910156 2.710937 3.144532 7.394531 3.507813 10.679687 3.507813.734376 0 1.402344-.019531 1.996094-.039063 3.195313-.078125 9.097656-.226562 11.816406-4.136718 1.59375-2.289063 1.828126-5.601563.667969-9.335938-.410156-1.296875-.902343-2.507812-1.503906-3.953125-.683594-1.636719-1.394531-3.332031-1.832031-5.109375-.421875-1.707031-.582032-3.511719-.480469-5.359375l.589844-10.675781 6.5625 8.441406c6.195312 7.972656 12.945312 15.539062 20.058593 22.484375 1.417969 1.398437 5.160157 5.082031 9.144532 5.082031.578125 0 1.121094-.066406 1.648437-.207031 3.632813-.957031 5.917969-4.828125 6.792969-11.515625 2.171875-16.65625 4.160156-34.351562 2.605469-51.445312l-.96875-10.640626 7.71875 7.386719c11.3125 10.832031 26.71875 16.257813 41.621093 21.507813l.125.046875c13.980469 4.921875 28.433594 10.015625 39.683594 19.546875 9.589844 8.117187 17.160156 19.695312 22.503906 34.414062 4.300782 11.851563 6.71875 24.394532 8.828126 36.226563l.742187 4.175781-79.398437 9.332031-.484376-3.953125c-2.125-17.363281-4.824218-35-7.203124-50.5625 5.375 35.609375 11 72.417969 11.59375 109.113282.136718 8.472656-.609376 17.800781-7.171876 22.738281-3.960937 2.972656-8.960937 3.550781-14.609374 3.953125-27.234376 1.972656-54.992188 2.972656-82.496094 2.972656zm0 0" fill="#94c668"/><path d="m225.148438 364.789062c-2.703126 0-5.507813-1.558593-9.09375-5.054687-8.472657-8.277344-16.359376-17.355469-23.453126-26.984375l-1.558593-2.121094 1.332031-2.269531c1.027344-1.761719 2.28125-3.46875 3.71875-5.074219 4.273438-4.816406 9.480469-8.355468 14.996094-12.105468 1.183594-.808594 2.347656-1.605469 3.503906-2.402344 5.140625-3.582032 10.425781-8.367188 14.121094-12.792969l5.917968-7.082031 1.121094 9.164062c2.21875 18.125.117188 37.140625-2.222656 55.0625-.871094 6.648438-3.136719 10.496094-6.734375 11.449219-.53125.140625-1.085937.210937-1.648437.210937zm0 0" fill="#cbe580"/><path d="m122.21875 362.453125c-.800781 0-1.570312-.136719-2.289062-.40625-3.570313-1.324219-5.414063-5.457031-5.472657-12.28125-.15625-18.402344 2.621094-36.609375 8.25-54.109375l1.917969-5.957031 28.25 26.019531c3.707031 3.417969 7.527344 6.941406 10.082031 11.390625l1.664063 2.898437-33.050782 27.785157c-2.757812 2.304687-6.015624 4.660156-9.351562 4.660156zm0 0" fill="#cbe580"/><path d="m262.078125 164.585938c-4.691406 0-8.761719-4.472657-10.769531-7.140626-13.554688-17.933593-19.078125-41.8125-14.761719-63.875-9.335937 5.734376-18.300781 8.980469-26.695313 9.609376-.953124.066406-1.910156.101562-2.851562.101562-9.238281 0-17.773438-3.277344-23.414062-8.992188-6.683594 8.597657-17.089844 14.363282-27.890626 15.429688-1.242187.125-2.515624.1875-3.78125.1875-9.675781 0-19.351562-3.589844-26.546874-9.847656 4.6875 18.628906.898437 39.089844-10.1875 54.761718-3.433594 4.851563-6.710938 7.363282-10.3125 7.902344-.46875.070313-.945313.105469-1.421876.105469-6.15625 0-10.832031-5.738281-12.121093-7.496094-6.507813-8.84375-8.449219-20.855469-5.058594-31.332031.332031-1.011719.691406-1.992188 1.128906-3.164062 1.054688-2.785157 2.246094-5.929688 2.1875-9.101563-.054687-3.28125-1.40625-6.359375-2.710937-9.332031l-.050782-.117188c-.65625-1.503906-1.339843-3.058594-1.839843-4.648437-3.683594-11.484375 2.964843-25.394531 14.230469-29.746094-1.890626-12.445313 3.136718-26.441406 13.136718-36.570313 7.84375-7.929687 18.476563-13.796874 31.605469-17.445312 6.234375-1.734375 12.417969-2.582031 18.957031-3.480469l.199219-.027343c4.328125-.582032 9.226563-1.246094 13.964844-2.25 2.082031-.4375 4.167969-.964844 6.1875-1.476563 4.726562-1.195313 9.617187-2.4375 14.601562-2.558594.363281-.007812.734375-.015625 1.105469-.015625 8.84375 0 18.632812 2.601563 25.546875 6.792969 4.25 2.578125 7.671875 6.09375 10.175781 10.445313.5625.96875 1.066406 2.078124 1.511719 3.058593 1.296875 2.824219 2.640625 5.757813 5.5625 7.222657 1.867187.929687 3.988281.984374 6.039063 1.035156l.410156.015625c.496094.015625.988281.03125 1.46875.066406 7.507812.476563 14.652344 4.785156 18.601562 11.238281 3.941406 6.453125 4.523438 14.769532 1.515625 21.710938-.34375.777344-.730469 1.5625-1.136719 2.386718l-.21875.433594c-1.691406 3.390625-3.4375 6.882813-2.351562 10.386719.839844 2.710937 3.164062 4.566406 5.414062 6.363281l.335938.269532c.421875.332031.839844.664062 1.246094 1.011718 10.511718 8.871094 12.722656 23.75 11.289062 34.71875-1.597656 12.160156-6.96875 23.269532-13.308594 35.5-1.648437 3.1875-3.527343 6.390625-6.726562 7.492188-.726562.246094-1.488281.371094-2.265625.371094zm0 0" fill="#644c4c"/><path d="m181.296875 265.007812c-11.976563 0-23.785156-2.851562-34.152344-8.25-2.679687-1.402343-5.375-3.046874-8.015625-4.886718l-1.496094-1.039063-.199218-1.832031c-3.441406-14.683594-2.15625-29.285156 3.640625-41.085938 6.484375-13.179687 19.238281-22.71875 32.484375-24.304687 1.351562-.164063 2.742187-.246094 4.132812-.246094 13.578125 0 27.339844 7.511719 35.90625 19.605469 8.242188 11.640625 12.097656 27.417969 10.859375 44.433594.003907.054687.375 2.503906.375 2.503906l-1.882812 1.433594c-3.867188 2.949218-7.996094 5.4375-12.273438 7.402344-8.894531 4.101562-19.054687 6.265624-29.378906 6.265624zm-.773437-56.101562c-5.507813 0-14.6875 6.742188-20.886719 13.007812-3.234375 3.285157-5.109375 7.523438-5.132813 11.628907-.039062 4.554687 2.28125 8.863281 5.910156 10.984375 1.519532.890625 3.308594 1.359375 5.171876 1.359375 2.691406 0 5.199218-.984375 6.878906-2.703125 1.539062-1.570313 2.382812-3.839844 2.320312-6.21875-.007812-.191406-.023437-.425782-.039062-.660156l-.332032-4.636719 10.445313.816406.066406 3.632813c.011719.738281.136719 1.507812.367188 2.289062.652343 2.179688 2.105469 4.019531 3.980469 5.03125 1.210937.652344 2.636718 1 4.121093 1 2.847657 0 5.636719-1.242188 7.464844-3.320312 2.722656-3.09375 3.417969-7.90625 1.738281-11.96875-1.679687-4.039063-5.171875-6.675782-8.550781-9.222657l-.71875-.554687c-1.386719-1.054688-2.828125-2.609375-4.429687-4.378906-2.082032-2.292969-4.234376-4.667969-6.441407-5.703126-.554687-.257812-1.183593-.382812-1.933593-.382812zm0 0" fill="#644c4c"/><g fill="#efb17c"><path d="m336.230469 504.863281c-10.976563 0-21.511719-.328125-31.703125-.644531-7.199219-.230469-15.585938-.484375-24.035156-.597656l-7.324219-.101563 4.039062-6.105469c3.582031-5.417968 3.921875-13.070312 3.816407-19.136718-.238282-15.226563-1.390626-31.769532-3.511719-50.578125l-.449219-3.957031 68.128906-8.011719 2.898438 78.722656c.105468 3.050781.039062 6.445313-2.125 8.476563-1.929688 1.78125-4.753906 1.929687-7.480469 1.929687zm0 0"/><path d="m130.601562 244.101562-1.15625-.203124-.890624-.894532c-10.121094-10.128906-17.414063-22.714844-21.09375-36.394531-2.621094 1.792969-5.78125 2.75-9.195313 2.75-5.179687 0-10.292969-2.242187-13.683594-6-5.386719-5.964844-6.808593-15.484375-3.53125-23.683594 2.824219-7.074219 9-13.242187 16.941407-16.925781l1.316406-.609375 1.402344.375c.9375.25 1.867187.378906 2.753906.378906.472656 0 .945312-.035156 1.402344-.105469 4.765624-.726562 8.195312-4.878906 10.363281-7.941406 9.1875-12.976562 13.480469-29.621094 11.777343-45.664062l-.792968-7.4375 6.625 3.472656c5.925781 3.105469 12.53125 4.746094 19.097656 4.746094 1.257812 0 2.527344-.0625 3.761719-.183594 9.460937-.933594 18.710937-5.492188 25.375-12.515625l2.460937-2.59375 2.851563 2.15625c5.558593 4.203125 12.882812 6.519531 20.621093 6.519531.945313 0 1.898438-.035156 2.839844-.105468 6.292969-.472657 12.945313-2.417969 19.765625-5.789063l6.394531-3.15625-.636718 7.101563c-1.796875 19.914062 3.996094 40.359374 15.894531 56.101562 3.488281 4.609375 7.332031 7.152344 10.820313 7.152344.144531 0 .300781-.007813.449218-.019532l1.484375-.117187 1.203125.886719c5.867188 1.628906 10.992188 6.015625 14.042969 12.027344 3.046875 6.023437 3.546875 12.75 1.378906 18.460937-2.183593 5.714844-7.027343 10.402344-13.292969 12.871094-2.976562 1.171875-6.042968 1.769531-9.109374 1.769531-3.328126 0-6.574219-.734375-9.394532-2.121094-1.839844 12.40625-7.738281 24.628906-16.652344 34.4375l-.917968 1.011719-1.34375.238281-5.066406 1.484375-.140626-5.261719c-.15625-14.449218-3.984374-27.378906-11.074218-37.390624-8.574219-12.109376-22.300782-19.632813-35.824219-19.632813-1.433594 0-2.867187.085937-4.265625.253906-13.484375 1.609375-25.953125 10.9375-32.539062 24.34375-4.574219 9.292969-6.363282 20.359375-5.171876 32.007813l.621094 6.03125zm0 0"/><path d="m178.277344 367.375c-3.625 0-8.125-.394531-10.769532-3.484375-2.664062-3.085937-2.441406-7.550781-1.980468-11.855469.796875-7.359375 1.699218-15.691406-1.386719-22.730468-2.414063-5.5-6.875-9.617188-11.183594-13.59375l-28.078125-25.863282 1.566406-2.765625c5.332032-9.382812 7.714844-20.492187 6.71875-31.285156l-.792968-8.527344 7.046875 4.867188c2.632812 1.820312 5.152343 3.351562 7.699219 4.675781 10.355468 5.390625 22.179687 8.238281 34.195312 8.238281 10.355469 0 20.519531-2.160156 29.390625-6.246093 3.550781-1.636719 7.023437-3.648438 10.320313-5.980469l6.988281-4.945313-.691407 8.535156c-.804687 9.941407 1.292969 20.277344 5.910157 29.113282l1.09375 2.09375-1.277344 1.929687c-3.484375 6.765625-11.773437 14.484375-18.503906 19.179688-.867188.605469-1.746094 1.210937-2.625 1.808593l-.824219.5625c-5.289062 3.59375-10.746094 7.304688-15.058594 12.148438-5.953125 6.691406-8.5 14.78125-6.816406 21.636719.417969 1.707031 1.070312 3.289062 1.761719 4.96875l.164062.390625c.5 1.203125 1.019531 2.449218 1.414063 3.726562 1.15625 3.707032.921875 7.003906-.660156 9.277344-2.363282 3.398438-7.050782 3.976562-11.757813 4.101562-.609375.011719-1.238281.023438-1.863281.023438zm0 0"/><path d="m165.617188 245.84375c-1.847657 0-3.636719-.472656-5.175782-1.367188-3.605468-2.117187-5.90625-6.402343-5.878906-10.921874.027344-4.101563 1.898438-8.328126 5.125-11.597657 5.402344-5.472656 15.558594-13.058593 20.566406-13.058593.691406 0 1.316406.109374 1.902344.335937l.136719.050781.132812.0625c2.054688.96875 3.964844 2.976563 6.441407 5.703125 1.453124 1.601563 2.953124 3.253907 4.441406 4.386719l.707031.539062c3.363281 2.542969 6.847656 5.179688 8.523437 9.207032 1.679688 4.027344.984376 8.8125-1.734374 11.898437-1.824219 2.070313-4.585938 3.300781-7.390626 3.300781-1.472656 0-2.894531-.347656-4.109374-1.003906-1.882813-1.019531-3.320313-2.855468-3.960938-5.035156-.609375-1.988281-.4375-4.128906.492188-5.824219l-13.433594-1.050781c1.410156 1.371094 2.261718 3.359375 2.320312 5.511719.058594 2.378906-.789062 4.628906-2.324218 6.179687-1.65625 1.699219-4.136719 2.683594-6.78125 2.683594zm0 0"/><path d="m82.554688 505.941406c-18.28125 0-36.667969-.59375-54.648438-1.761718-3.175781-.207032-6.449219-.582032-8.609375-2.652344-2.1875-2.113282-2.664063-5.363282-2.964844-8.519532-2.25-24.328124-1.339843-48.886718 2.695313-73.007812l.632812-3.757812 63.828125 7.496093-2.066406 55.707031c-.257813 6.9375-.171875 14.761719 4.183594 19.910157l5.574219 6.582031h-8.625zm0 0"/></g><path d="m158.390625 247.976562c2.203125 1.289063 4.710937 1.914063 7.195313 1.914063 3.640624 0 7.230468-1.34375 9.734374-3.90625 2.296876-2.351563 3.558594-5.675781 3.460938-9.125-.007812-.28125-.023438-.558594-.050781-.835937l2.191406.167968c.023437 1.105469.199219 2.230469.535156 3.34375.957031 3.207032 3.117188 5.910156 5.921875 7.421875 5.285156 2.847657 12.371094 1.472657 16.480469-3.195312 3.710937-4.21875 4.6875-10.707031 2.429687-16.140625-2.101562-5.050782-6.210937-8.160156-9.835937-10.898438l-.695313-.527344c-1.167968-.886718-2.550781-2.410156-3.890624-3.882812-2.355469-2.59375-4.789063-5.273438-7.714844-6.644531-9.355469-4.398438-25.542969 11.59375-27.355469 13.429687-3.964844 4.019532-6.261719 9.273438-6.296875 14.417969-.042969 5.957031 3.054688 11.632813 7.890625 14.460937zm4.144531-23.210937c5.957032-6.03125 14.769532-11.863281 17.722656-11.863281.175782 0 .332032.023437.46875.066406 1.464844.6875 3.4375 2.855469 5.171876 4.769531 1.585937 1.742188 3.226562 3.546875 4.984374 4.882813l.710938.535156c3.078125 2.332031 5.988281 4.53125 7.25 7.5625 1.085938 2.613281.660156 5.789062-1.039062 7.722656-1.636719 1.859375-4.601563 2.496094-6.601563 1.417969-.921875-.496094-1.679687-1.480469-2.023437-2.636719-.304688-1.015625-.246094-2.03125.164062-2.785156.648438-1.203125.644531-2.652344-.007812-3.847656-.65625-1.199219-1.871094-1.984375-3.234376-2.089844l-13.398437-1.023438c-1.714844-.132812-3.324219.839844-4.007813 2.414063-.683593 1.578125-.292968 3.417969.976563 4.578125.636719.582031 1.019531 1.535156 1.050781 2.617188.035156 1.257812-.402344 2.476562-1.167968 3.261718-1.652344 1.691406-4.835938 1.988282-7.097657.667969-2.351562-1.375-3.917969-4.363281-3.894531-7.441406.023438-3.0625 1.46875-6.273438 3.972656-8.808594zm0 0"/><path d="m360.460938 413.671875c-2.402344-13.625-4.890626-27.710937-9.753907-41.113281-5.585937-15.390625-13.558593-27.546875-23.707031-36.136719-11.851562-10.03125-26.707031-15.261719-41.074219-20.316406-16.390625-5.769531-31.871093-11.222657-42.664062-23.164063-10.730469-11.871094-14.710938-29.664062-10.296875-45.039062 9.34375-9.441406 16.105468-21.375 18.964844-34.074219 5.386718 1.335937 11.320312.914063 16.90625-1.285156 7.335937-2.890625 13.023437-8.433594 15.601562-15.210938 2.574219-6.777343 2.011719-14.699219-1.550781-21.734375-2.628907-5.1875-6.609375-9.339844-11.320313-11.941406 1.398438-1.757812 2.378906-3.648438 3.117188-5.070312 6.519531-12.574219 12.046875-24.027344 13.726562-36.839844 2.007813-15.347656-2.859375-30.046875-12.703125-38.355469-.53125-.449219-1.082031-.886719-1.636719-1.328125-1.863281-1.480469-3.621093-2.878906-4.097656-4.410156-.601562-1.945313.710938-4.570313 2.101563-7.347656.492187-.980469 1-2 1.453125-3.042969 3.527344-8.132813 2.847656-17.882813-1.777344-25.441407-4.621094-7.5625-12.992188-12.613281-21.835938-13.179687-.65625-.039063-1.320312-.058594-1.984374-.078125-1.695313-.046875-3.296876-.089844-4.34375-.613281-1.636719-.820313-2.589844-2.894531-3.691407-5.296875-.511719-1.113282-1.039062-2.265625-1.683593-3.382813-2.851563-4.949219-6.75-8.949219-11.589844-11.882812-7.910156-4.800781-18.960938-7.613281-28.863282-7.371094-5.414062.140625-10.539062 1.4375-15.496093 2.691406-2.074219.523438-4.035157 1.019531-6.015625 1.4375-4.488282.941407-9.164063 1.582031-13.6875 2.199219-6.457032.878906-13.132813 1.792969-19.691406 3.613281-13.832032 3.84375-25.070313 10.070313-33.40625 18.511719-10.246094 10.371094-15.570313 23.980469-14.597657 36.949219-11.578125 6.210937-17.808593 20.8125-13.75 33.476562.578125 1.808594 1.320313 3.5 2.039063 5.136719 1.195312 2.730469 2.324218 5.3125 2.371094 7.777344.042968 2.371094-.910157 4.910156-1.921876 7.597656-.40625 1.078125-.824218 2.191406-1.199218 3.339844-3.785156 11.6875-1.621094 25.101562 5.648437 35.003906 1.082031 1.46875 2.25 2.769531 3.476563 3.90625-6.578125 4.160156-11.640625 9.964844-14.257813 16.519531-3.828125 9.597657-2.101562 20.8125 4.292969 27.90625 5.921875 6.570313 15.519531 8.898438 23.375 6.257813 4.484375 13.457031 12.382812 25.675781 22.527344 35.253906 4.558594 15.445312.601562 33.398438-10.199219 45.351562-10.792969 11.941407-26.273437 17.390626-42.664063 23.164063-14.367187 5.054687-29.222656 10.285156-41.078124 20.316406-10.144532 8.589844-18.121094 20.746094-23.707032 36.136719-4.863281 13.402344-7.347656 27.488281-9.753906 41.113281-.191406 1.089844.074219 2.214844.734375 3.105469.664063.890625 1.664063 1.46875 2.765625 1.597656l11.394531 1.339844c-4.042969 24.328125-4.949219 49.09375-2.671875 73.65625.347656 3.75.988282 8.011719 4.199219 11.089844 3.40625 3.269531 8.253906 3.585937 11.152344 3.773437 18.246093 1.183594 36.703125 1.78125 55.050781 1.78125 4.601562 0 9.199219-.035156 13.78125-.113281.78125-.011719 1.5-.253906 2.109375-.648438 1.550781.179688 3.113281.304688 4.664063.402344 24.359374 1.5625 48.878906 2.34375 73.40625 2.34375 27.671874 0 55.347656-.992187 82.816406-2.980468 2.945312-.210938 6.546875-.476563 10.09375-1.519532.324218.082032.660156.136719 1.011718.136719 11.699219-.046875 22.949219.300781 33.824219.644531 10.144531.320313 20.605469.652344 31.519531.652344.863282 0 1.730469-.003906 2.601563-.007812 2.621094-.011719 7.011719-.03125 10.203125-3.015626 3.722656-3.476562 3.527344-8.765624 3.421875-11.609374l-2.761719-75.03125 7.578125-.890626c1.101563-.128906 2.101563-.707031 2.761719-1.597656.671875-.898437.933594-2.019531.742188-3.113281zm-130.894532-61.0625c-.359375 2.746094-1.328125 7.453125-3.789062 8.101563-1.589844.414062-3.855469-.84375-6.933594-3.84375-8.355469-8.164063-16.089844-17.074219-23.023438-26.492188.898438-1.515625 1.984376-3.003906 3.25-4.425781 3.964844-4.457031 8.984376-7.867188 14.296876-11.484375 1.171874-.796875 2.339843-1.59375 3.5-2.398438 4.617187-3.21875 10.4375-8.152344 14.917968-13.515625 2.132813 17.496094.105469 36.214844-2.21875 54.058594zm-88.148437-104.023437c-.015625-.089844-.015625-.179688-.035157-.269532-3.296874-13.90625-2.128906-27.625 3.28125-38.632812 5.898438-11.992188 17.429688-20.671875 29.375-22.101563 13.105469-1.570312 27.691407 5.542969 36.300782 17.699219 7.707031 10.882812 11.304687 25.753906 10.125 41.871094-.027344.34375.007812.679687.0625 1.003906-3.570313 2.722656-7.433594 5.070312-11.523438 6.953125-18.445312 8.496094-41.4375 7.765625-60.007812-1.90625-2.621094-1.359375-5.140625-2.917969-7.578125-4.617187zm-51.34375-123.355469c.316406-.96875.683593-1.949219 1.074219-2.988281 1.175781-3.125 2.507812-6.667969 2.4375-10.582032-.074219-4.078125-1.65625-7.683594-3.046876-10.867187-.664062-1.515625-1.292968-2.945313-1.746093-4.359375-3.070313-9.585938 2.472656-21.183594 11.859375-24.816406 1.765625-.683594 2.816406-2.503907 2.527344-4.375-1.714844-11.175782 2.890624-23.863282 12.019531-33.109376 7.335937-7.421874 17.367187-12.941406 29.824219-16.402343 6.035156-1.679688 12.152343-2.515625 18.625-3.398438 4.664062-.636719 9.488281-1.292969 14.257812-2.296875 2.140625-.449218 4.273438-.992187 6.335938-1.511718 4.734374-1.199219 9.207031-2.332032 13.722656-2.449219 8.316406-.203125 17.914062 2.222656 24.472656 6.207031 3.664062 2.222656 6.621094 5.253906 8.789062 9.015625.457032.792969.886719 1.730469 1.339844 2.71875 1.441406 3.144531 3.238282 7.054687 7.410156 9.144531 2.648438 1.324219 5.347657 1.398438 7.730469 1.464844.566407.015625 1.132813.027344 1.691407.066406 6.269531.398438 12.199218 3.976563 15.472656 9.335938 3.277344 5.359375 3.761718 12.265625 1.261718 18.027344-.367187.84375-.804687 1.71875-1.269531 2.644531-1.847656 3.699219-4.148437 8.296875-2.589843 13.339843 1.207031 3.910157 4.296874 6.367188 6.78125 8.339844.492187.390625.984374.777344 1.453124 1.175782 9.285157 7.839843 11.207032 21.230468 9.90625 31.148437-1.503906 11.511719-6.726562 22.289063-12.886718 34.175781-1.28125 2.46875-2.683594 4.9375-4.480469 5.550782-2.613281.898437-6.128906-2.191407-8.542969-5.382813-12.878906-17.046875-18.125-39.742187-14.03125-60.707031.304688-1.574219-.347656-3.183594-1.667968-4.09375-.6875-.472656-1.488282-.710938-2.289063-.710938-.738281 0-1.476563.199219-2.128906.605469-8.738281 5.429687-17.09375 8.472656-24.835938 9.046875-9.042969.660156-17.683593-2.210938-23.117187-7.707031-.816406-.828125-1.953125-1.265625-3.113282-1.1875-1.160156.070312-2.234374.636719-2.945312 1.558593-5.976562 7.730469-15.347656 12.925782-25.074219 13.886719-9.722656.960938-19.933593-2.289062-27.308593-8.703125-1.332032-1.15625-3.261719-1.316406-4.761719-.390625s-2.226563 2.71875-1.789063 4.429688c4.453125 17.480469.890625 36.707031-9.527344 51.429687-2.761718 3.90625-5.191406 5.894532-7.640624 6.269532-3.625.539062-7.398438-2.636719-9.722657-5.800782-5.761719-7.847656-7.480469-18.476562-4.476562-27.742187zm21.246093 80.339843c-.339843-1.273437-1.28125-2.296874-2.519531-2.746093-1.242187-.449219-2.621093-.261719-3.695312.496093-5.027344 3.546876-13.0625 2.339844-17.550781-2.640624-4.386719-4.863282-5.507813-12.710938-2.792969-19.519532 2.460937-6.164062 7.878906-11.519531 14.914062-14.785156 1.933594.523438 3.890625.660156 5.808594.367188 6.257813-.949219 10.425781-5.921876 13.011719-9.578126 9.867187-13.949218 14.289062-31.46875 12.488281-48.402343 7.667969 4.019531 16.539063 5.847656 25.113281 5 10.476563-1.039063 20.621094-6.089844 27.882813-13.742188 6.960937 5.269531 16.429687 7.929688 26.167969 7.207031 6.8125-.503906 13.929687-2.582031 21.238281-6.1875-1.875 20.75 4.121093 42.238282 16.683593 58.867188 4.3125 5.703125 9.261719 8.746094 14.011719 8.746094.253907 0 .507813-.011719.761719-.03125.382812.28125.808594.503906 1.292969.636718 4.804687 1.328126 9.015625 4.96875 11.554687 9.980469 2.539063 5.015625 2.980469 10.566407 1.207032 15.226563-1.773438 4.660156-5.789063 8.515625-11.019532 10.574218-5.226562 2.058594-10.792968 1.980469-15.269531-.222656-1.15625-.566406-2.515625-.550781-3.65625.054688-1.144531.597656-1.929687 1.710937-2.113281 2.988281-1.714844 11.863281-7.359375 23.214844-15.609375 32.304687-.167969.03125-.335938.066407-.503907.117188-.160156-15.113281-4.25-28.988281-11.808593-39.660156-10.425781-14.722656-27.636719-22.992188-43.835938-21.042969-14.8125 1.773437-28.472656 11.945313-35.652343 26.546875-4.925782 10.019531-6.808594 21.886719-5.554688 34.183594-.160156-.054688-.320312-.097656-.484375-.132813-9.4375-9.4375-16.542969-21.476562-20.070313-34.605469zm33.949219 54.789063c11.101563 5.78125 23.625 8.695313 36.039063 8.691406 10.773437 0 21.464844-2.195312 31.066406-6.613281 3.84375-1.773438 7.507812-3.910156 10.953125-6.351562-.863281 10.71875 1.375 21.757812 6.355469 31.289062-.035156.0625-.082032.113281-.113282.179688-3.082031 6.152343-11.136718 13.589843-17.316406 17.898437-1.132812.789063-2.277344 1.566406-3.421875 2.34375-5.484375 3.730469-11.15625 7.589844-15.785156 12.789063-6.828125 7.675781-9.710937 17.113281-7.714844 25.25.507813 2.066406 1.277344 3.917968 2.023438 5.710937.523437 1.253906 1.015625 2.433594 1.378906 3.601563.769531 2.472656.726563 4.59375-.121094 5.808593-1.351562 1.945313-5.09375 2.300781-8.574219 2.394531-3.652343.101563-7.699218.03125-9.496093-2.058593-1.632813-1.898438-1.394531-5.550781-1.035157-8.835938.847657-7.851562 1.808594-16.746093-1.703124-24.757812-2.761719-6.292969-7.765626-10.902344-12.179688-14.96875l-25.695312-23.671875c5.726562-10.089844 8.289062-22.066406 7.21875-33.625 2.617187 1.804687 5.320312 3.464844 8.121093 4.925781zm-18.753906 36.519531 23.644531 21.78125c3.484375 3.210938 7.070313 6.519532 9.320313 10.4375l-30.488281 25.628906c-2.273438 1.910157-5.546876 4.363282-7.664063 3.574219-2.535156-.945312-2.851563-6.308593-2.871094-8.574219-.152343-17.988281 2.558594-35.75 8.058594-52.847656zm-98.351563 203.3125c-2.4375-.160156-4.910156-.410156-6.097656-1.546875-1.207031-1.160156-1.535156-3.714843-1.75-6.015625-2.226562-24.003906-1.324218-48.203125 2.660156-71.96875l56.375 6.621094-1.925781 52.019531c-.289062 7.765625-.109375 16.445313 5.128907 22.644531-18.128907-.007812-36.363282-.585937-54.390626-1.753906zm315.925782-5.59375c.054687 1.445313.164062 4.457032-.867188 5.421875-.882812.824219-3.296875.835938-4.742187.84375-11.695313.050781-22.949219-.296875-33.824219-.644531-7.824219-.246094-15.847656-.492188-24.113281-.59375 4.078125-6.175781 4.597656-14.433594 4.484375-21.417969-.277344-17.023437-1.632813-34.050781-3.539063-50.960937l59.863281-7.035156zm-63.546875-75.359375c-2.09375-17.074219-4.671875-34.007812-7.214844-50.675781-.335937-2.203125-2.390625-3.714844-4.59375-3.378906-2.203125.335937-3.714844 2.394531-3.378906 4.59375 5.414062 35.480468 11.015625 72.167968 11.609375 108.558594.121094 7.46875-.445313 15.625-5.585938 19.480468-3.082031 2.3125-7.480468 2.800782-12.488281 3.164063-51.457031 3.71875-103.648437 3.933593-155.132813.628906-5.632812-.359375-10.964843-.9375-14.246093-4.011719-4.191407-3.917968-4.277344-11.34375-4.03125-17.996094l4.085937-110.371093c.085938-2.222657-1.652344-4.09375-3.878906-4.175781-2.222656-.09375-4.09375 1.652343-4.175781 3.878906l-1.863281 50.265625-70.898438-8.328125c2.132812-11.960938 4.511719-24.15625 8.648438-35.5625 5.097656-14.050782 12.277343-25.0625 21.335937-32.726563 10.722656-9.078125 24.863281-14.054687 38.542969-18.871093 13.421875-4.722657 27.207031-9.585938 38.429687-18.371094-3.660156 14.511718-5.445312 29.40625-5.316406 44.457031.089844 10.804687 4.460937 14.695313 8.113281 16.058594 1.261719.472656 2.507813.671875 3.71875.671875 5.257813 0 9.789063-3.808594 11.957032-5.628906l27.867187-23.429688c.472656 4.5-.046875 9.367188-.5625 14.132812-.386719 3.578126-1.109375 10.242188 2.941406 14.949219 3.742188 4.351563 9.582031 4.898438 13.710938 4.898438.773437 0 1.488281-.019531 2.117187-.035157 3.605469-.097656 11.117188-.300781 14.976563-5.847656 2.3125-3.324218 2.738281-7.875 1.199219-12.816406-.476563-1.523438-1.0625-2.933594-1.632813-4.300781-.65625-1.578125-1.277344-3.070313-1.636719-4.53125-.328125-1.335938-.445312-2.742188-.367187-4.179688 6.273437 8.078125 13.113281 15.765625 20.414062 22.894531 1.855469 1.8125 6.371094 6.222657 11.945313 6.222657.863281 0 1.757812-.105469 2.664062-.34375 5.363282-1.40625 8.640625-6.40625 9.742188-14.859375 2.234375-17.125 4.195312-35.070313 2.625-52.335938 11.914062 11.410156 27.726562 16.996094 43.0625 22.394532 13.679687 4.816406 27.820312 9.792968 38.542968 18.867187 9.058594 7.667969 16.238282 18.679687 21.335938 32.730469 4.136719 11.402344 6.515625 23.601562 8.648438 35.558594zm0 0"/></svg>