<svg height="511pt" viewBox="-91 0 511 511.99713" width="511pt" xmlns="http://www.w3.org/2000/svg"><g fill="#fff"><path d="m312.734375 418.109375c-1.035156 0-2.089844-.058594-3.144531-.171875-12.804688-1.402344-24.378906-7.125-34.015625-12.539062-24.304688-13.636719-46.03125-31.132813-64.582031-52.011719l-2.804688-3.160157 3.308594-2.628906c1.996094-1.585937 3.507812-3.433594 4.503906-5.5l1.878906-3.910156 3.742188 2.1875c15.746094 9.195312 31.273437 17.859375 44.972656 25.5l.429688.238281c14.890624 8.316407 30.289062 16.914063 46.246093 26.265625 3.523438 2.066406 7.492188 4.394532 10.175781 7.828125 2.4375 3.136719 3.980469 8.078125 1.957032 12.0625-1.917969 3.769531-6.414063 5.839844-12.667969 5.839844zm0 0"/><path d="m158.613281 462.699219c-2.710937 0-10.867187-.015625-14.570312-5.640625-1.980469-3.019532-2.175781-6.800782-2.210938-10.734375-.328125-28.472657 1.09375-57.429688 4.226563-86.058594l.433594-3.976563 3.972656.433594c5.222656.570313 10.421875.859375 15.449218.859375 3.707032 0 7.476563-.167969 11.523438-.507812l4.007812-.339844.316407 4.007813c2.183593 27.683593 3.082031 55.691406 2.660156 83.257812-.054687 3.867188-.234375 7.3125-1.859375 10.289062-3.433594 6.277344-11.734375 7.683594-19.40625 8.230469-1.703125.121094-3.183594.179688-4.527344.179688-.003906 0-.007812 0-.015625 0zm0 0"/><path d="m16.152344 413.253906c-3.8125 0-7.054688-1.273437-9.125-3.585937-3.835938-4.320313-2.691406-11.171875.324218-15.429688 3.265626-4.628906 8.714844-7.652343 13.09375-10.085937l85.902344-47.773438.644532 6.003906c.042968.378907.121093.722657.242187 1.058594.84375 2.351563 3.363281 3.457032 5.65625 4.308594.929687.355469 1.839844.675781 2.738281.992188l6.46875 2.277343-4.664062 4.5c-23.574219 22.746094-56.429688 39.359375-88.417969 53.921875-3.601563 1.636719-7.238281 3.289063-11.164063 3.726563-.582031.058593-1.140624.085937-1.699218.085937zm0 0"/></g><path d="m202.894531 507.917969c-45.796875 0-92.195312-.480469-137.902343-1.429688l-3.664063-.074219-.246094-3.65625c-1.832031-27.558593-4.96875-55.339843-9.328125-82.585937 4.246094 26.957031 7.371094 54.507813 9.210938 81.898437l.292968 4.367188-4.371093-.097656c-11.921875-.265625-24.152344-.570313-36.359375-.902344-3.410156-.085938-7.238282-.398438-9.382813-3.007812-1.722656-2.105469-1.8125-5-1.757812-8.035157l1.515625-81.328125 4.441406.226563c.238281.011719.476562.027343.722656.027343.582032 0 1.1875-.03125 1.792969-.097656 3.9375-.4375 7.597656-2.09375 11.136719-3.699218 33.5625-15.285157 67.832031-32.742188 91.46875-56.917969l1.667968-1.710938 2.296876.660157c6.128906 1.765624 12.269531 3.148437 18.25 4.117187l3.753906.605469-.414063 3.777344c-3.144531 28.640624-4.574219 57.671874-4.257812 86.289062.046875 4.097656.242187 7.734375 2.222656 10.746094 2.519531 3.835937 7.273437 5.699218 14.527344 5.699218 1.679687 0 3.191406-.105468 4.40625-.191406l.246093-.019531c7.683594-.542969 16.007813-1.949219 19.457032-8.269531 1.757812-3.214844 1.816406-7.148438 1.863281-10.308594.425781-27.734375-.480469-55.851562-2.691406-83.574219l-.296875-3.722656 3.695312-.550781c4.757813-.710938 9.324219-1.652344 13.574219-2.804688 2.554687-.695312 4.628906-1.390625 6.53125-2.195312l2.660156-1.121094 1.902344 2.167969c18.792969 21.425781 40.890625 39.34375 65.679687 53.25 9.085938 5.105469 21.167969 11.140625 34.046876 12.542969.597656.066406 1.199218.109374 1.859374.140624l3.753907.160157 1.414062 75.839843c.0625 3.589844-.0625 7.300782-2.269531 9.808594-2.53125 2.863282-6.886719 3.171875-10.765625 3.234375-12.460937.1875-24.675781.335938-36.308594.441407l-4.269531.039062.238281-4.261719c1.117188-20.007812 4.101563-39.941406 8.871094-59.246093-4.871094 19.476562-7.863281 39.582031-8.960937 59.746093l-.207032 3.75-3.753906.03125c-18.636719.164063-37.574219.242188-56.292969.242188zm0 0" fill="#d34242"/><path d="m226.71875 222.472656c-4.53125 0-9.148438-1.152344-13.359375-3.328125-6.78125-3.503906-11.863281-9.335937-13.953125-15.996093-6.15625 7.328124-15.488281 12.074218-25.015625 12.683593-.707031.046875-1.410156.066407-2.113281.066407-8.9375 0-17.777344-3.464844-24.253906-9.511719-2.679688 5.601562-8.671876 9.359375-14.964844 9.359375-.730469 0-1.464844-.054688-2.179688-.15625-6.929687-1-12.726562-6.75-13.777344-13.679688-2.703124 6.65625-8.273437 12.140625-14.972656 14.671875-2.914062 1.105469-6.140625 1.59375-10.464844 1.59375-1.847656 0-3.722656-.085937-5.535156-.167969l-.300781-.015624c-1.546875-.070313-3.144531-.144532-4.730469-.144532l-3.070312.015625-.96875-2.632812c-6.875-3.929688-11.851563-11.203125-12.984375-19.015625-1.140625-7.808594 1.542969-16.199219 7.015625-21.894532-4.015625-4.683593-5.828125-11.199218-4.960938-17.921874.851563-6.710938 4.230469-12.5625 9.273438-16.050782-7.574219-5.648437-10.597656-16.820312-6.871094-25.488281.824219-1.925781 1.957031-3.769531 2.953125-5.398437 1.703125-2.785157 3.3125-5.417969 3.953125-8.527344.839844-4.101563-.242188-8.367188-1.292969-12.488282l3.847657-1.109374-3.878907.988281c-1.160156-4.546875-2.359375-9.25-.882812-13.671875.882812-2.621094 2.613281-4.847656 4.289062-6.996094 1.574219-2.027344 3.039063-3.90625 3.976563-6.144531 1.558594-3.679688 1.433594-7.574219 1.300781-11.691407l-.007813-.28125c-.074218-2.574218-.140624-5.011718.21875-7.464843 1.472657-10.175781 11.125-18.453125 21.523438-18.453125.410156 0 .820312.011718 1.234375.039062 1.230469-8.875 9.144531-16.199218 18.058594-16.710937.386719-.023438.773437-.035157 1.164062-.035157 3.976563 0 7.917969 1.128907 11.726563 2.222657 3.785156 1.082031 7.703125 2.199219 11.566406 2.199219 1.039062 0 2.019531-.074219 3-.234376 3.316406-.53125 6.464844-1.976562 9.796875-3.507812 4.515625-2.070312 7.949219-3.519531 11.386719-3.519531 1.582031 0 3.089844.324219 4.480468.964843 1.453126.660157 2.761719 1.710938 4.03125 2.722657 2.035157 1.632812 3.898438 3.128906 6.316407 3.40625.285156.035156.566406.050781.847656.050781 1.828125 0 3.5625-.695312 5.402344-1.4375.976562-.40625 1.734375-.695312 2.417969-.925781 1.515624-.488281 3.082031-.730469 4.691406-.730469 2.839844 0 5.726562.753906 8.355468 2.179688 4.179688 2.261718 7.21875 5.949218 8.335938 10.117187 3.722656-.296875 7.53125-.613281 11.34375-.613281 4.324219 0 8.050781.421875 11.394531 1.292968 6.417969 1.652344 14.1875 6.21875 16.710938 14.066407.863281 2.726562 1.035156 5.632812 1.203125 8.441406.148437 2.53125.285156 4.84375.835937 7.152344.890625 3.742187 2.839844 7.351562 4.730469 10.847656 3.21875 5.953125 6.257812 11.578125 4.382812 17.667969-1.078124 3.511718-3.734374 6.433594-6.304687 9.261718-3.484375 3.835938-6.75 7.429688-6.390625 12.253907.242188 3.171875 2.105469 5.867187 3.902344 8.476562.5625.800781 1.226562 1.761719 1.8125 2.738281 5.3125 8.75 4.617187 21.011719-1.667969 29.132813-.546875.691406-1.097656 1.351563-1.65625 2.027344-3.375 4.085937-5.851563 7.496093-4.683594 11.296875.519531 1.703125 1.742188 3.070312 2.925781 4.394531.492188.550781.9375 1.054687 1.355469 1.570313 2.589844 3.296874 3.632813 7.757812 2.894531 12.269531-.742187 4.511719-3.167968 8.394531-6.648437 10.65625 3.160156 4.585937 3.9375 11.394531 2.082031 18.261719-1.832031 6.71875-5.835937 12.070312-10.710937 14.324218l-.625 1-1.105469.546875c-.476562.226563-1.667969.796875-1.667969.796875-2.378906 1.148438-4.582031 2.210938-6.972656 2.988282-2.464844.796874-5.070313 1.199218-7.765625 1.199218zm0 0" fill="#644c4c"/><path d="m163.980469 325.191406c-8.277344 0-16.335938-1.386718-23.949219-4.128906l-.140625-.050781-8.792969-3.921875-.132812-.070313c-1.257813-.679687-2.417969-1.351562-3.546875-2.054687-13.828125-8.648438-24.921875-22.574219-32.089844-40.285156l-.066406-.164063-5.808594-19.078125-.621094 1.035156-1.386719.503906c-2.179687.777344-4.507812 1.175782-6.917968 1.175782-5.59375 0-10.941406-2.117188-14.667969-5.8125-6.105469-6.054688-7.761719-16.03125-3.9375-23.722656 4.40625-8.882813 10.78125-10.703126 18.996094-10.703126 1.707031 0 3.511719.070313 5.210937.148438 1.832032.085938 3.722656.175781 5.589844.175781 4.292969 0 7.511719-.492187 10.4375-1.59375 4.273438-1.617187 8.246094-4.542969 11.175781-8.234375l3.34375-4.207031 3.070313 4.410156c2.632812 3.78125 6.792968 6.410157 11.121094 7.035157.714843.105468 1.449218.15625 2.179687.15625 4.855469 0 9.648437-2.246094 12.820313-6.011719l2.390624-2.839844 3.007813 2.171875c6.097656 4.402344 13.566406 6.824219 21.027344 6.824219.703125 0 1.410156-.019531 2.101562-.0625 7.542969-.476563 15.234375-3.65625 21.09375-8.722657l3.648438-3.15625 2.425781 4.167969c2.648438 4.554688 6.828125 8.464844 11.769531 11.019531 4.214844 2.179688 8.851563 3.332032 13.410157 3.332032 2.699218 0 5.308593-.402344 7.761718-1.195313 2.488282-.808593 4.875-1.96875 6.984375-2.992187 1.945313-.945313 3.710938-1.789063 5.585938-2.5 1.832031-.695313 4.632812-1.527344 7.566406-1.527344 2.144531 0 4.074219.441406 5.742187 1.3125 6.835938 3.554688 7.734376 13.472656 4.644532 20.621094-4.402344 10.144531-15.464844 17.226562-26.910156 17.226562 0 0 0 0-.003907 0-1.769531 0-3.523437-.175781-5.214843-.519531-.039063.003906-.925782.132813-.925782.132813l-.527344-.136719c.007813.140625.015626.269531.019532.386719.015625.605468.019531 1.238281.027344 1.875.011718.972656.019531 1.945312.066406 2.914062.152344 3.003906.324218 6.40625-.054688 9.957031l-.0625.5625c-1.015625 8.414063-4.527344 17.199219-10.433594 26.113281-5.085937 7.679688-11.6875 14.347657-19.085937 19.28125-.976563.648438-1.957031 1.269532-3.003906 1.890626-2.410157 1.414062-4.96875 2.691406-7.625 3.808593l-.117188.050781-8.226562 2.851563-.128907.039063c-6.09375 1.667968-12.429687 2.511718-18.839843 2.511718zm0 0" fill="#ffdac4"/><path d="m165.898438 357.519531c-17.671876 0-35.496094-3.304687-52.980469-9.820312-2.816407-1.054688-4.847657-2.179688-5.613281-4.25-.636719-1.742188-.164063-3.605469.800781-6.050781l11.011719-28.234376 4.199218 3.066407c1.09375.800781 2.546875 1.84375 4.058594 2.789062 10.6875 6.679688 23.359375 10.210938 36.640625 10.210938 12.558594 0 24.632813-3.199219 34.921875-9.25.980469-.574219 2.03125-1.238281 3.222656-2.035157l3.78125-2.527343 2.023438 4.070312c2.742187 3.527344 5.871094 7.558594 7.726562 12.054688 2.042969 4.921875 2.234375 10.019531.527344 13.980469-2.34375 5.433593-7.890625 9.171874-17.457031 11.769531-10.371094 2.804687-21.429688 4.226562-32.863281 4.226562zm0 0" fill="#f9d889"/><path d="m326.648438 397.707031c-3.164063-4.050781-7.503907-6.59375-11.328126-8.835937-16.136718-9.460938-31.699218-18.144532-46.746093-26.539063-15.019531-8.382812-30.546875-17.042969-46.617188-26.46875-.171875-.097656-.351562-.167969-.53125-.238281.011719-3.117188-.636719-6.386719-1.984375-9.640625-2.054687-4.964844-5.363281-9.242187-8.28125-13.011719-.140625-.183594-.300781-.339844-.464844-.492187 15.875-13.535157 25.824219-34.097657 26.214844-54.960938 13.1875.539063 26.546875-7.441406 31.839844-19.65625 4.96875-11.472656.597656-22.148437-6.496094-25.84375-1.816406-.945312-3.824218-1.496093-5.976562-1.6875 1.355468-2.304687 2.453125-4.882812 3.203125-7.65625 1.773437-6.542969 1.4375-13.121093-.835938-18.3125 2.839844-2.867187 4.785157-6.71875 5.492188-11.003906.933593-5.636719-.410157-11.253906-3.679688-15.402344-.507812-.648437-1.027343-1.230469-1.535156-1.792969-.933594-1.046874-1.820313-2.03125-2.082031-2.890624-.574219-1.875 1.269531-4.296876 3.933594-7.515626.597656-.71875 1.183593-1.429687 1.730468-2.132812 7.402344-9.546875 8.191406-23.429688 1.921875-33.753906-.617187-1.015625-1.28125-1.980469-1.921875-2.910156-1.566406-2.269532-3.042968-4.410157-3.195312-6.472657-.230469-3.085937 2.339844-5.914062 5.316406-9.1875 2.742188-3.019531 5.851562-6.441406 7.203125-10.828125 2.375-7.714844-1.378906-14.664062-4.6875-20.792968-1.847656-3.414063-3.589844-6.640626-4.355469-9.859376-.472656-1.984374-.597656-4.148437-.734375-6.4375-.179687-3.070312-.363281-6.246093-1.390625-9.453124-2.527344-7.875-10.019531-14.300782-19.5625-16.769532-7.050781-1.828125-14.347656-1.535156-21.03125-1.019531-1.863281-3.882813-5.0625-7.210937-9.125-9.410156-5.144531-2.789063-11.054687-3.425781-16.210937-1.746094-.9375.304687-1.808594.65625-2.652344 1-1.628906.660156-3.160156 1.277344-4.3125 1.148437-1.253906-.148437-2.617187-1.234374-4.195313-2.5-1.40625-1.125-3-2.398437-4.929687-3.289062-6.835937-3.148438-13.417969-.125-19.226563 2.542969-3.082031 1.417969-5.996093 2.757812-8.78125 3.203125-4.011718.644531-8.28125-.574219-12.804687-1.863282-4.523437-1.289062-9.203125-2.628906-14.238281-2.335937-9.605469.546875-18.253906 7.640625-21.058594 16.746094-11.496094.972656-21.875 10.300781-23.546875 21.851562-.417969 2.890625-.332031 5.71875-.25 8.453125.113281 3.671875.222656 7.140625-.980469 9.992188-.738281 1.753906-2.050781 3.441406-3.441406 5.222656-1.800781 2.3125-3.839844 4.933594-4.933594 8.203125-1.867187 5.578125-.445312 11.132813.808594 16.03125.988281 3.863281 1.921875 7.511719 1.261719 10.730469-.492188 2.402344-1.921875 4.746094-3.4375 7.226562-1.132813 1.851563-2.300781 3.769532-3.222657 5.910156-3.847656 8.960938-1.839843 19.769532 4.546876 26.964844-3.898438 4.089844-6.472657 9.585938-7.246094 15.671875-.839844 6.605469.550781 13.070313 3.839844 18.230469-4.800782 6.382812-7.03125 14.785156-5.878907 22.675781 1.039063 7.132813 4.851563 13.863281 10.316407 18.597657-4.613282 1.652343-8.890626 4.964843-12.089844 11.410156-4.578125 9.21875-2.59375 21.167968 4.714844 28.414062 6.109374 6.054688 15.472656 8.359375 23.742187 6.234375 5.003906 19.699219 14.746094 36.683594 27.667969 48.601563l-8.78125 22.511718c-.570313.042969-1.136719.191407-1.667969.488282l-85.488281 47.539062c-4.734375 2.632813-10.632813 5.914063-14.4375 11.296875-4.0195315 5.679688-5.324219 14.535157-.042969 20.46875.816406.917969 1.777344 1.703125 2.832031 2.378907 0 .042968-.015625.082031-.015625.125l-1.480469 79.453124c-.054687 2.890626-.132812 7.253907 2.679688 10.679688 3.488281 4.253906 9.289062 4.410156 12.40625 4.496094 60.5625 1.667968 121.660156 2.5 182.625 2.5 33.617188 0 67.199219-.253906 100.601562-.761719 3.4375-.050781 9.828126-.148437 13.753907-4.601563 3.441406-3.90625 3.34375-9.335937 3.28125-12.578124l-1.347657-72.691407c4.46875-1.195312 7.878907-3.679687 9.699219-7.253906 2.5-4.914063 1.570313-11.351563-2.371093-16.402344zm-258.617188-202.070312c-.964844-6.617188 1.3125-13.726563 5.949219-18.550781 1.441406-1.503907 1.503906-3.859376.136719-5.433594-3.273438-3.773438-4.738282-9.144532-4.027344-14.742188.710937-5.597656 3.476562-10.433594 7.585937-13.265625 1.074219-.742187 1.722657-1.953125 1.746094-3.253906.019531-1.300781-.589844-2.535156-1.636719-3.308594-6.152344-4.546875-8.605468-13.613281-5.585937-20.640625.695312-1.613281 1.667969-3.207031 2.695312-4.894531 1.808594-2.960937 3.679688-6.023437 4.453125-9.804687 1.035156-5.035157-.230468-9.984376-1.347656-14.347657-1.070312-4.195312-2.085938-8.15625-.972656-11.476562.65625-1.960938 2.109375-3.832031 3.648437-5.808594 1.652344-2.117187 3.355469-4.308594 4.511719-7.046875 1.882812-4.46875 1.746094-8.996094 1.609375-13.371094-.078125-2.496094-.148437-4.855468.167969-7.046875 1.242187-8.5625 9.914062-15.550781 18.535156-14.996093 2.125.125 3.980469-1.382813 4.261719-3.484376.933593-6.894531 7.339843-12.828124 14.289062-13.222656 3.679688-.214844 7.511719.882813 11.566407 2.039063 5.171874 1.476562 10.519531 3 16.296874 2.070312 3.871094-.621093 7.429688-2.253906 10.867188-3.835937 5.613281-2.578125 9.253906-4.035156 12.488281-2.546875 1.03125.476562 2.117188 1.34375 3.265625 2.261719 2.222656 1.78125 4.742188 3.796874 8.292969 4.214843 3.203125.378907 5.898437-.722656 8.28125-1.6875.746094-.304687 1.449219-.589843 2.109375-.804687 3.070312-.996094 6.671875-.570313 9.882812 1.167968 3.214844 1.742188 5.539063 4.523438 6.378907 7.636719.507812 1.882813 2.285156 3.109375 4.230469 2.964844 7.15625-.597656 14.558593-1.21875 21.367187.542969 5.398437 1.398437 11.882813 5.132812 13.902344 11.425781.714843 2.238281.863281 4.773437 1.019531 7.460937.148438 2.539063.304688 5.160157.941406 7.835938 1.011719 4.25 3.089844 8.101562 5.101563 11.824219 2.929687 5.421875 5.460937 10.105469 4.078125 14.589843-.820313 2.667969-3.078125 5.148438-5.464844 7.777344-3.691406 4.0625-7.878906 8.671875-7.390625 15.214844.316406 4.238281 2.589844 7.535156 4.597656 10.449219.601563.875 1.171875 1.699219 1.667969 2.515625 4.503906 7.414062 3.914062 17.773437-1.402344 24.628906-.492187.636719-1.027344 1.28125-1.566406 1.929688-3.09375 3.730468-7.328125 8.84375-5.433594 15.023437.78125 2.554687 2.449219 4.414063 3.789063 5.910156.410156.460938.824219.917969 1.203125 1.398438 1.871094 2.375 2.621094 5.691406 2.058594 9.101562-.5625 3.40625-2.339844 6.308594-4.875 7.957031-.914063.59375-1.550782 1.535157-1.757813 2.609376-.210937 1.070312.023437 2.183593.652344 3.078124 2.457031 3.519532 3.03125 9.21875 1.5 14.875-1.496094 5.507813-4.761719 10.003907-8.53125 11.742188-.753907.347656-1.351563.898438-1.753907 1.558594-.570312.269531-1.132812.542968-1.691406.8125-2.226562 1.074218-4.328125 2.089844-6.480468 2.789062-5.628907 1.824219-12.207032 1.136719-18.046876-1.882812-5.839843-3.019532-10.207031-7.988282-11.972656-13.632813-.441406-1.410156-1.617187-2.464843-3.066406-2.75-1.449219-.289062-2.9375.242188-3.878906 1.378907-5.414063 6.511718-13.691406 10.71875-22.140625 11.253906s-17.191407-2.597656-23.382813-8.375c-.9375-.882813-2.246094-1.261719-3.511718-1.015625-1.261719.246093-2.335938 1.078125-2.886719 2.242187-2.210938 4.703125-7.757813 7.6875-12.902344 6.941406-5.144531-.742187-9.617187-5.179687-10.40625-10.316406-.273437-1.800781-1.722656-3.191406-3.53125-3.394531-1.8125-.207031-3.53125.828125-4.199219 2.519531-2.230468 5.628906-6.941406 10.265625-12.601562 12.402344-4.3125 1.628906-9.210938 1.40625-14.398438 1.164062-1.769531-.078124-3.621094-.164062-5.503906-.15625-.316406-.871093-.914062-1.640624-1.78125-2.132812-5.820312-3.300781-10.035156-9.460938-11-16.082031zm159.46875 72.234375c-1.007812 8.917968-4.910156 17.265625-9.824219 24.679687-4.734375 7.140625-10.832031 13.40625-17.972656 18.160157-.925781.617187-1.871094 1.210937-2.832031 1.773437-2.292969 1.351563-4.675782 2.535156-7.125 3.570313l-7.984375 2.765624c-13.171875 3.609376-27.535157 3.097657-40.382813-1.519531l-8.511718-3.796875c-1.128907-.613281-2.246094-1.25-3.335938-1.933594-13.128906-8.214843-23.757812-21.746093-30.5-38.394531l-6.125-20.140625c-1.234375-1.851562-3.734375-2.355468-5.589844-1.121094-.519531.347657-.917968.796876-1.214844 1.300782-5.835937 2.089844-13.03125.636718-17.429687-3.71875-4.835937-4.792969-6.199219-13.003906-3.171875-19.101563 4.292969-8.644531 10.261719-8.800781 20.449219-8.332031 5.773437.261719 11.75.535156 17.617187-1.675781 5.042969-1.90625 9.535156-5.257813 12.898438-9.492188 3.195312 4.589844 8.21875 7.902344 13.835937 8.71875 6.972657 1.003907 14.148438-1.929687 18.625-7.246093 7.371094 5.320312 16.679688 8.078124 25.722657 7.515624 8.546874-.539062 16.957031-4.070312 23.460937-9.695312 3.019531 5.195312 7.679687 9.613281 13.386719 12.5625 7.742187 4 16.574218 4.871094 24.234375 2.390625 2.679687-.867187 5.132812-2.054687 7.503906-3.203125 1.808594-.875 3.519531-1.699219 5.257813-2.359375 2.339843-.886719 6.757812-2.113281 10.039062-.40625 4.652344 2.421875 5.214844 9.964844 2.820312 15.484375-4.414062 10.191406-16.851562 16.636719-27.722656 14.363281-.476562-.097656-.960937-.082031-1.433594-.011719-1.949218-.511718-4.011718.488282-4.765624 2.410157-.191407.488281.027343 1.476562.039062 1.988281.03125 1.636719.011719 3.28125.09375 4.914062.160156 3.179688.300781 6.273438-.050781 9.449219-.003907.035157-.007813.070313-.011719.101563zm-115.675781 70.996094 9.128906-23.40625c1.410156 1.03125 2.835937 2.027343 4.300781 2.945312 11.523438 7.207031 25.144532 10.824219 38.761719 10.824219 12.917969 0 25.832031-3.257813 36.945313-9.796875 1.164062-.683594 2.304687-1.410156 3.421874-2.164063.113282.21875.242188.4375.398438.636719 2.738281 3.535156 5.570312 7.195312 7.210938 11.160156 1.628906 3.9375 1.828124 7.902344.550781 10.871094-1.820313 4.226562-6.535157 7.242188-14.832031 9.488281-25.652344 6.949219-55.269532 5-83.398438-5.476562-2.460938-.917969-3.128906-1.535157-3.257812-1.894531-.226563-.625.472656-2.421876.769531-3.1875zm68.601562 105.070312c-.054687 3.453125-.1875 6.269531-1.367187 8.429688-2.511719 4.589843-9.589844 5.691406-16.183594 6.160156-5.8125.414062-12.832031.375-15.492188-3.671875-1.371093-2.082031-1.515624-5.109375-1.554687-8.5625-.324219-28.480469 1.105469-57.257813 4.210937-85.59375 5.324219.578125 10.625.878906 15.871094.878906 3.992188 0 7.949219-.183594 11.859375-.519531 2.179688 27.46875 3.082031 55.335937 2.65625 82.878906zm-169.8125-47.386719c2.746094-3.882812 7.542969-6.550781 11.777344-8.90625l80.621094-44.832031c.070312.648438.214843 1.308594.457031 1.972656 1.546875 4.304688 5.925781 5.933594 8.027344 6.71875 1.050781.390625 2.105468.769532 3.160156 1.136719-23.019531 22.207031-55.46875 38.664063-87.296875 53.15625-3.261719 1.484375-6.632813 3.023437-9.957031 3.386719-2.402344.257812-5.601563-.167969-7.394532-2.183594-2.367187-2.65625-1.550781-7.398438.605469-10.449219zm300.730469 104.753907c-1.445312 1.636718-4.800781 1.824218-7.828125 1.871093-12.074219.183594-24.167969.332031-36.277344.449219 1.101563-19.695312 4.03125-39.367188 8.753907-58.511719.535156-2.160156-.785157-4.347656-2.949219-4.878906-2.160157-.53125-4.34375.785156-4.878907 2.949219-4.886718 19.789062-7.902343 40.132812-9.007812 60.5-64.566406.542968-129.535156.148437-194.085938-1.191406-1.839843-27.679688-4.984374-55.574219-9.371093-82.953126-.351563-2.199218-2.417969-3.703124-4.617188-3.34375-2.199219.351563-3.695312 2.417969-3.34375 4.617188 4.308594 26.90625 7.40625 54.316406 9.242188 81.523438-12.136719-.265626-24.253907-.5625-36.351563-.894532-2.71875-.078125-5.378906-.316406-6.394531-1.554687-.859375-1.042969-.890625-3.246094-.851563-5.414063l1.441407-77.207031c.414062.027344.824219.058594 1.242187.058594.730469 0 1.46875-.042969 2.214844-.125 4.609375-.507813 8.757812-2.394531 12.417969-4.0625 33.898437-15.4375 68.554687-33.117188 92.621093-57.738281 6.21875 1.796874 12.476563 3.210937 18.722657 4.226562-3.152344 28.71875-4.605469 57.886719-4.277344 86.761719.050781 4.570312.3125 8.996093 2.878906 12.902343 4.203125 6.386719 12.042969 7.496094 17.871094 7.496094 1.933594 0 3.648437-.121094 4.933594-.214844 8.761719-.625 18.3125-2.339843 22.683593-10.339843 2.230469-4.078125 2.300782-8.757813 2.351563-12.171875.429687-27.894532-.484375-56.125-2.699219-83.945313 4.773438-.710937 9.460938-1.667969 14.03125-2.902343 2.164063-.589844 4.601563-1.339844 7.039063-2.371094 19.066406 21.742187 41.507812 39.945312 66.730469 54.097656 9.417968 5.289062 21.976562 11.546875 35.566406 13.03125.71875.082031 1.421875.128906 2.117187.160156l1.339844 72.078125c.054687 2.804688 0 5.660157-1.265625 7.097657zm10.488281-90.847657c-1.699219 3.34375-7.210937 4-11.804687 3.5-12.066406-1.320312-23.199219-6.828125-32.496094-12.046875-23.953125-13.441406-45.316406-30.660156-63.542969-51.183594 2.28125-1.808593 4.25-4.066406 5.617188-6.898437 15.527343 9.070313 30.523437 17.445313 45.039062 25.542969 15.011719 8.378906 30.53125 17.039062 46.597657 26.457031 3.359374 1.96875 6.832031 4.003906 9.050781 6.84375 1.601562 2.054687 2.769531 5.367187 1.539062 7.785156zm0 0"/></svg>