<svg height="511pt" viewBox="-87 0 511 511.99824" width="511pt" xmlns="http://www.w3.org/2000/svg"><path d="m254.648438 330.917969c-10.867188-6.753907-22.976563-10.660157-35.03125-11.292969-1.191407-.066406-2.390626-.097656-3.566407-.097656-10.328125 0-20.042969 2.390625-28.878906 7.101562l-10.761719 5.738282 5.273438-10.996094c6.488281-13.539063 20.515625-22.640625 34.898437-22.640625.484375 0 .964844.011719 1.449219.03125l-.480469-36.867188-.117187-8.324219 6.570312 5.113282c20.960938 16.296875 34.695313 41.917968 36.742188 68.527344l.605468 7.875zm0 0" fill="#94c668"/><path d="m85.875 323.253906c.621094-10.875 3.933594-21.800781 9.578125-31.589844l.425781-.738281.6875-.5.125-.839843.484375-.753907c7.269531-11.414062 17.265625-20.445312 28.914063-26.117187l5.804687-2.828125-.054687 6.457031c-.09375 11.042969-1.324219 22.011719-3.664063 32.597656.300781.011719.589844.015625.875.015625.273438 0 .542969-.003906.8125-.003906 17.265625 0 34.472657 9.757813 43.835938 24.859375l-5.378907 5.582031c-12.136718-6.910156-26.203124-10.566406-40.691406-10.566406-12.644531 0-25.089844 2.851563-35.984375 8.238281l-6.160156 3.046875zm0 0" fill="#94c668"/><g fill="#cbe580"><path d="m262.394531 499.996094c1.964844-40.324219 5.851563-81.015625 11.542969-120.941406-11.460938-4.386719-23.480469-7.160157-35.753906-8.28125l-4.175782-.378907.578126-4.15625c1.695312-12.175781 2.421874-24.285156 3.128906-37.71875l.296875-5.671875 5.242187 2.191406c6.238282 2.613282 12.214844 6.101563 17.753906 10.371094.265626-13.578125-2.621093-27.457031-8.300781-40.15625l-4.171875-9.328125 9.394532 4.015625c32.035156 13.695313 57.410156 42.65625 67.878906 77.480469 9.585937 31.925781 9.941406 69.574219 1.085937 115.09375-1.015625 5.21875-2.203125 10.199219-5.582031 13.792969-4.703125 4.976562-12.171875 5.765625-19.414062 6.148437-11.082032.59375-22.640626 1.160157-35.328126 1.730469l-4.390624.199219zm0 0"/><path d="m202.515625 367.851562c-9.585937-.859374-19.417969-1.296874-29.175781-1.296874-11.136719 0-22.40625.570312-33.5 1.695312l-3.9375.398438-5.597656-49.890626 4.878906.4375c14.964844 1.335938 28.964844 6.539063 40.488281 15.046876l1.6875-1.335938.960937.308594.351563-1.003906 1.027344-.78125c8.285156-6.109376 17.679687-9.921876 27.933593-11.324219l5.105469-.695313-5.691406 49.398438zm0 0"/><path d="m77.007812 507.878906c-15.800781-.085937-30.246093-.242187-44.15625-.480468-9.894531-.15625-19.75-1.285157-24.824218-8.433594-3.546875-4.976563-3.632813-11.25-3.386719-18.34375.597656-16.777344 1.285156-33.285156 2.042969-49.070313 1.304687-27.164062 3.132812-51.46875 12.273437-73.832031 12.074219-29.527344 37.453125-53.585938 67.886719-64.359375l8.742188-3.09375-3.75 8.480469c-4.484376 10.144531-6.574219 21.058594-6.042969 31.5625 5.148437-3.089844 10.664062-5.613282 16.433593-7.476563l5.289063-1.707031-.058594 5.554688c-.148437 14.082031.523438 28.371093 2 42.472656l.367188 3.503906-32.328125 7.628906c.59375 41.125 1.785156 82.640625 3.527344 123.425782l.179687 4.191406zm0 0"/></g><path d="m275.5 299.339844c-8.210938-5.402344-16.957031-9.660156-26-12.652344l-1.40625-.464844-.765625-1.273437c-7.003906-11.675781-16.46875-21.8125-27.375-29.3125l-2.453125-1-.082031-2.660157-.21875-15.828124 1.738281-1.214844c8.519531-5.960938 15.785156-13.542969 21.019531-21.929688 16.363281-26.261718 15.371094-59.433594 12.246094-88.414062-1.636719.089844-3.269531.152344-4.894531.152344-23.5 0-46.828125-12.625-59.429688-32.164063-2.113281 10.875-.386718 22.433594 4.808594 32.554687l4.929688 9.597657-9.992188-4.066407c-1.167969-.472656-2.039062-.890624-2.742188-1.308593-5.082031-2.957031-9.960937-6.441407-14.460937-10.34375-4.652344-4.019531-8.957031-8.523438-12.785156-13.386719-1.269531-1.613281-2.546875-4.042969-3.785157-6.390625-1.949218-3.691406-3.9375-7.449219-6.195312-9.148437-1.46875-1.105469-2.8125-1.664063-3.992188-1.664063-.472656 0-.929687.089844-1.359374.273437-3.976563 1.6875-5.121094 11.023438-5.957032 17.839844l-.054687.449219c-.328125 2.601563-.613281 4.847656-1.011719 6.277344-3.683594 13.167969-10.019531 25.675781-18.328125 36.167969-.9375 1.1875-1.90625 2.351562-2.871094 3.511718l-.4375.527344c-3.199219 3.84375-6.484375 7.792969-8.824219 12.25-5.667968 10.832031-7.128906 29.378906 5.769532 48.9375 4.5 6.839844 10.238281 12.953125 17.0625 18.175781l1.566406 1.199219v1.976562c0 .074219.003906.101563.007812.113282 1.273438 6.820312 2.09375 13.976562 2.4375 21.238281l.132813 2.785156-2.566406 1.085938c-12.933594 5.476562-24.394531 15.390625-32.277344 27.917969l-.828125 1.320312-1.503906.40625c-7.25 1.972656-14.398438 4.738281-21.238282 8.21875l-2.925781 1.488281-2.03125-2.578125c-10.28125-13.058594-16.398437-30.007812-16.785156-46.511718-.410156-17.75 5.632813-35.941407 16.582031-49.910157l-17.894531 9.972657-13.371094 7.507812 8-13.082031c4.691407-7.671875 8.152344-16.589844 10.292969-26.503907 3.269531-15.1875 3.320312-30.980468 3.367188-46.25l.03125-6.765624c.132812-16.421876.804687-35.359376 7.140624-52.472657 7.730469-20.886719 24.085938-39.433593 46.058594-52.21875 19.90625-11.574219 41.800782-17.691406 63.308594-17.691406 26.371094 0 50.539062 8.882813 69.886719 25.6875 24.445312 21.25 40.03125 54.652344 41.691406 89.351563.5625 11.710937-.347656 23.601562-1.226563 35.105468-.871093 11.300782-1.765624 22.96875-1.265624 34.550782.96875 22.121093 7.980468 40.917968 19.753906 52.921874l8.132812 8.300782-11.519531-1.535156c-6.160156-.820313-12.144531-2.335938-17.789063-4.511719 9.734376 16.359375 8.992188 38.679687-1.832031 54.324219l-2.226562 3.214843zm0 0" fill="#ffbf48"/><path d="m96.339844 507.9375c-3.753906 0-7.503906-.007812-11.253906-.019531l-3.820313-.011719-.164063-3.816406c-1.710937-39.960938-2.890624-80.515625-3.511718-120.539063l-.050782-3.214843 32.265626-7.621094.5625 4.410156c.316406 2.484375.664062 4.976562 1.019531 7.453125.523437 3.53125 1.246093 7.1875 3.769531 9.507813 1.847656 1.699218 4.453125 2.523437 7.972656 2.523437 1.894532 0 3.683594-.234375 5.121094-.425781 2.613281-.351563 7.332031-.988282 9.058594-4.402344.976562-1.921875.714844-4.253906.507812-6.128906l-1.90625-16.945313 4.023438-.40625c11.050781-1.121093 22.28125-1.6875 33.386718-1.6875 9.734376 0 19.550782.4375 29.167969 1.300781l4.664063-.003906-1.191406 10.375c-.480469 4.117188-1.601563 13.75 4.3125 18.035156 1.628906 1.179688 3.527343 1.777344 5.644531 1.777344 3.636719 0 7.53125-1.769531 10.160156-4.621094 3.890625-4.222656 5.488281-10.171874 6.636719-15.972656.226562-1.144531.441406-2.292968.644531-3.441406l.644531-3.597656 3.644532.320312c11.332031.988282 22.480468 3.394532 33.140624 7.148438l3.085938 1.089844-.457031 3.238281c-5.449219 38.898437-9.175781 78.492187-11.082031 117.683593l.558593 4.304688-4.347656.273438c-53.863281 2.265624-108.4375 3.414062-162.207031 3.414062zm0 0" fill="#288fc9"/><path d="m215.917969 398c-2.101563 0-4.039063-.597656-5.605469-1.730469-5.207031-3.773437-5.03125-11.589843-4.296875-17.976562l6.304687-54.6875v-4.078125l4.097657-.007813c6.128906 0 12.351562.878907 18.488281 2.613281l3.144531.886719-.242187 3.261719c-.011719.144531-.03125.289062-.050782.429688l-.003906.0625c-.882812 16.714843-1.796875 34-5.101562 50.722656-1.320313 6.691406-2.953125 11.964844-6.621094 15.945312-2.554688 2.769532-6.523438 4.558594-10.113281 4.558594zm0 0" fill="#288fc9"/><path d="m123.054688 396.542969c-3.453126 0-6.019532-.816407-7.851563-2.496094-2.527344-2.332031-3.242187-5.972656-3.753906-9.5-2.894531-19.640625-4.214844-39.703125-3.925781-59.636719l-.007813-.410156v-3.253906l3.1875-.660156c5.160156-1.074219 10.535156-1.652344 15.976563-1.714844l4.046874-.046875v4.210937l7.027344 62.597656c.210938 1.933594.460938 4.238282-.503906 6.128907-1.492188 2.964843-5.179688 3.84375-8.9375 4.355469-1.601562.210937-3.46875.425781-5.257812.425781zm0 0" fill="#288fc9"/><path d="m174.808594 249.140625c-25.152344 0-50.339844-13.550781-64.167969-34.519531-12.886719-19.519532-11.425781-38.046875-5.757813-48.875 2.316407-4.433594 5.4375-8.183594 8.742188-12.15625l.441406-.527344c.992188-1.191406 1.980469-2.375 2.9375-3.585938 8.316406-10.511718 14.65625-23.027343 18.332032-36.191406.414062-1.464844.703124-3.773437 1.039062-6.449218l.035156-.289063c1.441406-11.953125 2.824219-15.285156 4.71875-16.996094l1.707032-1.539062 2.191406.699219c.8125.261718 1.660156.726562 2.585937 1.425781 2.113281 1.59375 3.894531 4.789062 6.183594 9.128906l.050781.097656c1.285156 2.429688 2.5 4.726563 3.738282 6.3125 3.820312 4.84375 8.121093 9.347657 12.789062 13.378907 4.550781 3.9375 9.429688 7.425781 14.503906 10.378906 1.660156.96875 4.046875 1.828125 6.570313 2.734375 4.527343 1.625 7.871093 2.914062 9.613281 4.710937l-1.128906-1.164062.003906-.132813c-7.75-8.621093-12.417969-20.183593-12.867188-31.996093l-.421874-11.085938 7.398437 8.265625c13.476563 15.050781 33.417969 24.035156 53.351563 24.035156.363281 0 .726562 0 1.09375-.007812l3.683593-.0625.363281 3.664062c4.886719 49.152344-4.191406 71.019531-12.648437 84.574219-13.476563 21.640625-38.667969 35.835938-64.171875 36.164062-.25.007813-.574219.007813-.910156.007813zm0 0" fill="#ffdac4"/><path d="m173.75 323.714844c-8.746094-14.246094-24.40625-23.722656-40.867188-24.730469l-4.523437-.277344.839844-4.453125c3.15625-16.804687 3.554687-34.652344 1.148437-51.609375l-1.152344-8.132812 7.113282 4.105469c11.996094 6.925781 25.3125 10.585937 38.511718 10.585937h.949219c12.046875-.160156 24.359375-3.46875 35.554688-9.566406l5.824219-3.171875.839843 62.027344-3.765625.269531c-14 .996093-27.726562 11.039062-33.378906 24.417969l-3.027344 7.15625zm0 0" fill="#ffdac4"/><path d="m329.695312 366.253906c-7.960937-26.492187-24.292968-49.601562-45.414062-65.597656 9.917969-14.292969 12.058594-33.695312 6.121094-50.035156 7.515625 1.917968 15.339844 2.78125 23.039062 2.53125 1.777344-.058594 3.308594-1.273438 3.765625-2.996094.453125-1.71875-.269531-3.53125-1.785156-4.464844-7.605469-4.683594-25.480469-19.621094-27.121094-57.09375-.492187-11.269531.394531-22.84375 1.253907-34.039062.890624-11.636719 1.8125-23.667969 1.238281-35.632813-1.746094-36.328125-17.449219-69.941406-43.085938-92.21875-37.121093-32.253906-91.25-35.570312-137.898437-8.441406-22.789063 13.25-39.777344 32.542969-47.835938 54.320313-6.5625 17.730468-7.25 37.085937-7.382812 53.835937-.015625 2.261719-.023438 4.527344-.03125 6.796875-.054688 15.078125-.105469 30.675781-3.28125 45.398438-4.019532 18.652343-12.972656 33.566406-25.21875 42-1.773438 1.222656-2.273438 3.625-1.132813 5.453124 1.136719 1.828126 3.511719 2.4375 5.394531 1.382813l25.96875-14.578125c-5.984374 11.929688-9.019531 25.246094-8.707031 38.710938.40625 17.335937 6.367188 34.15625 16.855469 47.886718-21.847656 13.082032-39.59375 33.132813-49.238281 56.707032-9.382813 22.925781-11.242188 47.609374-12.570313 75.175781-.78125 16.28125-1.46875 32.808593-2.046875 49.121093-.265625 7.546876-.148437 14.820313 4.136719 20.847657 6.113281 8.601562 17.101562 9.957031 28.0625 10.140625 21.234375.355468 42.523438.535156 63.863281.535156 68.511719-.003906 137.382813-1.835938 205.476563-5.488281 8.070312-.433594 16.429687-1.363281 22.136718-7.417969 4.121094-4.367188 5.53125-10.199219 6.617188-15.800781 8.988281-46.199219 8.601562-84.484375-1.179688-117.039063zm-274.054687-114.859375c-.390625-16.832031 5.339844-34.089843 15.726563-47.339843 1.1875-1.511719 1.140624-3.652344-.109376-5.113282-1.25-1.457031-3.359374-1.828125-5.035156-.890625l-17.851562 10.023438c4.875-7.984375 8.550781-17.367188 10.789062-27.761719 3.351563-15.550781 3.40625-31.570312 3.460938-47.070312.007812-2.253907.015625-4.507813.03125-6.761719.128906-16.0625.773437-34.589844 6.882812-51.101563 7.410156-20.023437 23.152344-37.832031 44.328125-50.144531 43.621094-25.367187 94.082031-22.398437 128.558594 7.558594 23.628906 20.535156 38.703125 52.878906 40.320313 86.519531.550781 11.460938-.351563 23.238281-1.226563 34.628906-.875 11.433594-1.78125 23.253906-1.265625 35.007813 1.019531 23.347656 8.484375 42.886719 20.894531 55.546875-5.78125-.765625-11.484375-2.203125-16.882812-4.28125-1.609375-.613282-3.425781-.148438-4.535157 1.167968-1.105468 1.316407-1.257812 3.191407-.371093 4.667969 9.007812 15.039063 8.3125 35.535157-1.65625 49.953125-8.402344-5.53125-17.445313-9.972656-26.9375-13.117187-7.199219-12-16.886719-22.523438-28.546875-30.554688-.253906-.171875-.523438-.308593-.796875-.417969l-.191407-13.710937c8.824219-6.164063 16.453126-13.996094 22.117188-23.085937 17.015625-27.300782 16.039062-61.300782 12.835938-90.964844-.234376-2.160156-2.136719-3.730469-4.308594-3.585938-23.507813 1.773438-47.859375-10.359375-60.628906-30.160156-.894532-1.386719-2.542969-2.085938-4.160157-1.769531-1.617187.316406-2.878906 1.582031-3.1875 3.203125-2.253906 11.886718-.269531 24.40625 5.234375 35.117187-.863281-.351562-1.625-.695312-2.203125-1.03125-4.882812-2.84375-9.554687-6.1875-13.890625-9.941406-4.472656-3.867187-8.597656-8.1875-12.257812-12.839844-1.03125-1.304687-2.230469-3.582031-3.394532-5.78125-2.132812-4.042969-4.335937-8.222656-7.320312-10.472656-4.09375-3.085937-7.324219-2.722656-9.3125-1.878906-6.101562 2.585937-7.308594 12.390625-8.375 21.039062-.3125 2.53125-.609375 4.917969-.945312 6.132813-3.539063 12.660156-9.632813 24.683594-17.617188 34.769531-1.054688 1.335937-2.148438 2.648437-3.242188 3.960937-3.320312 3.980469-6.753906 8.101563-9.289062 12.945313-6.199219 11.851563-7.886719 31.996094 5.960938 53 4.835937 7.335937 10.976562 13.789063 17.980468 19.148437-.003906.269532.015625.542969.066406.820313 1.265626 6.8125 2.054688 13.75 2.382813 20.71875-14.121094 5.976563-25.972656 16.554687-34.105469 29.472656-7.605468 2.066407-14.976562 4.9375-21.996094 8.511719-9.789062-12.4375-15.558593-28.34375-15.929687-44.136719zm178.121094 74.96875c-.871094 16.640625-1.773438 33.851563-5.03125 50.351563-1.191407 6.027344-2.605469 10.714844-5.648438 14.015625-2.574219 2.796875-7.492187 4.425781-10.425781 2.300781-3.523438-2.554688-3.277344-8.976562-2.664062-14.28125l6.320312-54.820312c.015625-.136719.003906-.273438.007812-.414063 5.804688 0 11.6875.824219 17.503907 2.464844-.019531.128906-.054688.25-.0625.382812zm-30.183594 37.628907c-.191406-.046876-.378906-.09375-.578125-.109376-21.101562-1.90625-42.472656-1.757812-63.558594.386719l-4.613281-41.089843c13.792969 1.234374 27.265625 6.015624 38.472656 14.28125.722657.53125 1.558594.785156 2.390625.785156.894532 0 1.773438-.304688 2.492188-.871094.03125 0 .058594.003906.085937.003906.15625 0 .316407-.007812.476563-.027344 1.5625-.183593 2.832031-1.261718 3.328125-2.699218 7.824219-5.777344 16.753906-9.296875 26.105469-10.582032zm-104.660156-70.332032c.882812-.640625 1.472656-1.609375 1.632812-2.683594 6.671875-10.480468 16.097657-19.214843 27.289063-24.664062-.09375 10.707031-1.28125 21.402344-3.566406 31.773438-.269532 1.214843.042968 2.492187.839843 3.449218.800781.957032 1.988281 1.496094 3.246094 1.445313 16.597656-.605469 33.191406 8.828125 41.933594 22.9375-24.253907-13.816407-55.375-14.824219-80.421875-2.441407.59375-10.484374 3.808594-20.726562 9.046875-29.816406zm21.214843-141.699218c8.644532-10.921876 15.234376-23.921876 19.058594-37.605469.503906-1.792969.816406-4.355469 1.183594-7.316407.4375-3.554687 1.582031-12.847656 3.433594-14.519531.21875.070313.671875.265625 1.398437.8125 1.546875 1.164063 3.488281 4.84375 5.046875 7.796875 1.390625 2.632813 2.703125 5.125 4.1875 7.007813 3.976563 5.050781 8.460938 9.746093 13.316406 13.945312 4.714844 4.082031 9.796876 7.714844 15.109376 10.808594 1.972656 1.148437 4.527343 2.066406 7.234374 3.039063 2.894532 1.042968 6.863282 2.464843 8.082032 3.730468 1.546875 1.597656 4.101562 1.644532 5.699218.097656 1.601563-1.546874 1.644532-4.101562.097657-5.699218 0-.003906 0-.003906 0-.003906-7.902344-8.175782-12.484375-19.3125-12.910157-30.628907 14.339844 16.027344 35.957032 25.730469 57.484376 25.363281 2.71875 27.363282 2.972656 57.960938-12.050782 82.066407-12.789062 20.515625-36.667968 33.96875-60.835937 34.277343-.285157.003907-.570313.007813-.855469.007813-23.882812-.003906-47.6875-12.773437-60.839844-32.714844-11.921875-18.078125-10.683594-35.007812-5.546875-44.824219 2.132813-4.085937 5.148438-7.699218 8.335938-11.523437 1.136719-1.367187 2.273437-2.730469 3.371093-4.117187zm54.6875 101.242187c.316407 0 .632813-.003906.953126-.007813 13.019531-.167968 25.960937-3.777343 37.460937-10.042968l.710937 51.617187c-15.871093 1.128907-30.601562 12.230469-36.785156 26.847657-9.339844-15.207032-26.117187-25.527344-44.027344-26.628907 3.257813-17.34375 3.65625-35.417969 1.179688-52.902343 12.296875 7.097656 26.390625 11.117187 40.507812 11.117187zm-63.296874 71.296875c4.996093-1.035156 10.097656-1.570312 15.203124-1.628906 0 .160156-.011718.320312.007813.488281l7.046875 62.722656c.140625 1.273438.335938 3.015625-.089844 3.859375-.765625 1.511719-4.503906 2.015625-5.910156 2.207032-3.6875.496093-7.789062.867187-9.867188-1.046876-1.554687-1.429687-2.089843-4.304687-2.503906-7.128906-2.890625-19.605468-4.195312-39.59375-3.882812-59.410156 0-.019531-.003906-.042969-.003906-.0625zm108.308593-8.867188c-12.382812-.65625-24.136719 1.917969-34.546875 7.46875 5.824219-12.140624 18.972656-20.921874 32.566406-20.339843 1.117188.050781 2.1875-.363281 2.984376-1.136719.796874-.773438 1.238281-1.835938 1.222656-2.945312l-.507813-36.835938c20.050781 15.589844 33.257813 40.332031 35.207031 65.675781-11.335937-7.050781-24.191406-11.222656-36.925781-11.886719zm-208.542969 181.023438c-2.828124-3.976562-2.871093-9.550781-2.648437-15.894531.574219-16.277344 1.261719-32.769531 2.042969-49.019531 1.289062-26.808594 3.082031-50.765626 11.976562-72.507813 11.734375-28.679687 36.339844-51.777344 65.519532-62.097656-4.625 10.445312-6.960938 21.882812-6.382813 33.371093.074219 1.417969.886719 2.695313 2.144531 3.359376 1.257813.664062 2.769532.617187 3.984375-.125 4.890625-2.984376 10.113281-5.351563 15.527344-7.105469-.140625 14.300781.53125 28.675781 2.023437 42.929687l-28.898437 6.824219c-1.839844.433594-3.132813 2.089844-3.105469 3.984375.613282 40.996094 1.808594 82.542969 3.550782 123.503906-14.726563-.074218-29.433594-.226562-44.109376-.472656-8.84375-.148438-17.585937-1.070312-21.625-6.75zm73.804688 7.261719c-1.703125-39.9375-2.882812-80.425781-3.507812-120.425781l24.816406-5.863282c.320312 2.511719.664062 5.019532 1.03125 7.515625.597656 4.066407 1.527344 8.671875 5.015625 11.882813 3.117187 2.871094 7.132812 3.585937 10.683593 3.585937 2.195313 0 4.210938-.273437 5.726563-.476562 3.03125-.410157 9.339844-1.261719 12.023437-6.546875 1.515626-2.996094 1.152344-6.25.910157-8.40625l-1.449219-12.898438c20.546875-2.085937 41.371094-2.226562 61.933594-.375.132812.015625.257812 0 .390625 0l-.683594 5.917969c-.554687 4.8125-1.851563 16.082031 5.945313 21.730469 2.441406 1.769531 5.210937 2.539062 7.996093 2.539062 4.910157 0 9.859375-2.394531 13.089844-5.90625 4.574219-4.964844 6.367187-11.542968 7.625-17.914062.230469-1.167969.445313-2.335938.65625-3.503906 10.980469.957031 21.773437 3.277343 32.167969 6.941406-5.472656 39.046875-9.214844 78.769531-11.125 118.121094-.011719.234374.007812.464843.035156.691406-57.609375 2.425781-115.589844 3.5625-173.28125 3.390625zm237.871094-22.164063c-.898438 4.625-1.925782 9.007813-4.570313 11.8125-3.667969 3.886719-10.261719 4.550782-16.703125 4.894532-11.746094.632812-23.515625 1.203124-35.296875 1.722656 1.953125-40.175782 5.824219-80.738282 11.507813-120.5625.265625-1.867188-.796875-3.667969-2.558594-4.335938-11.835938-4.503906-24.195312-7.34375-36.792969-8.492187 1.769531-12.710938 2.503907-25.53125 3.164063-38.058594 5.824218 2.433594 11.496094 5.714844 16.855468 9.839844.71875.554687 1.585938.839843 2.460938.839843.59375 0 1.191406-.132812 1.75-.402343 1.371094-.660157 2.253906-2.042969 2.277344-3.566407.230468-14.472656-2.859375-28.769531-8.703125-41.828124 30.742187 13.144531 55.445312 41.09375 65.621093 74.957031 9.394532 31.273437 9.71875 68.292969.988282 113.179687zm0 0"/></svg>