<svg height="512pt" viewBox="-79 0 512 512.00253" width="512pt" xmlns="http://www.w3.org/2000/svg"><path d="m28.476562 507.945312c-3.859374 0-8.289062-.160156-12.039062-2.039062-6.304688-3.167969-10.011719-10.601562-11.332031-22.734375-5.1289065-47.269531 8.890625-95.761719 38.472656-133.039063l2.242187-2.820312 3.039063 1.933594c3.722656 2.371094 8.46875 3.960937 14.101563 4.734375 3.300781.449219 6.914062.667969 11.046874.667969 4.085938 0 8.207032-.207032 12.191407-.410157 4.015625-.203125 8.167969-.414062 12.175781-.414062 6.757812 0 12.230469.609375 17.210938 1.917969 19.003906 4.972656 34.066406 22.792968 35.808593 42.375l.132813.023437c-1.816406-19.632813-16.898438-37.472656-35.929688-42.460937-4.980468-1.304688-10.480468-1.910157-17.308594-1.910157-4.046874 0-8.132812.207031-12.085937.40625-4.226563.210938-8.199219.410157-12.203125.410157-4.097656 0-7.707031-.21875-11.027344-.671876-8.199218-1.121093-14.378906-3.890624-18.367187-8.238281-7.167969-7.8125-6.429688-19.765625-5.347657-26.195312 3.09375-18.515625 14.226563-35.867188 29.777344-46.410157 11.417969-7.730468 25.503906-11.984374 39.660156-11.984374 4.925782 0 9.800782.519531 14.496094 1.535156l2.714844-1.488282 2.121094 2.25c1.542968 1.644532 3.097656 3.199219 4.621094 4.632813l2.195312 2.0625-1.375 2.679687c-2.28125 15.109376-7.222656 29.558594-14.695312 42.9375.328124.03125.632812.035157.933593.035157h.222657c15.734374 0 32.429687 9.113281 43.566406 23.78125 11.78125 15.5 16.800781 35.019531 19.550781 48.351562v.019531h.035156c5.390625-17.25 10.5625-32.605468 19.507813-46.0625 10.289062-15.496093 24.738281-25.863281 39.640625-28.4375l-20.097657-42.359374 2.234376-1.992188c.816406-.730469 1.621093-1.46875 2.40625-2.207031l1.152343-1.082031h1.582031c.082032 0 .164063.003906.242188.007812 8.050781-.601562 16.335938-1.214844 24.648438-1.214844 7.070312 0 13.328124.449219 19.128906 1.367188 16.171875 2.578125 29.875 9.464844 38.589844 19.390625 10.21875 11.652343 13.324218 28.492187 7.550781 40.953125-7.027344 15.1875-24.632813 21.726562-34.5 24.269531-5.742188 1.492187-11.707031 2.523437-17.476563 3.523437l-.246094.042969c-8.273437 1.441407-16.832031 2.933594-24.871093 5.78125-16.191407 5.730469-27.171875 16.757813-29.382813 29.503907 2.660156-14.972657 16.925782-25.027344 29.414063-29.445313 8.035156-2.855469 16.214843-4.273437 24.875-5.777344l.347656-.058593c5.726563-.996094 11.648437-2.023438 17.355469-3.503907 10.273437-2.660156 18.660156-6.6875 24.925781-11.976562l3.402344-2.871094 2.492187 3.6875c29.472656 43.628906 40.867188 98.320313 31.257813 150.050781-1.097657 5.859375-2.734375 11.726563-7.277344 14.972656-3.816406 2.714844-8.808594 2.9375-14.015625 2.9375l-57.84375.105469-.347656-3.625c-2.4375-25.464843-2.269532-51.246093.496094-76.625-2.804688 25.09375-2.992188 50.628907-.632813 75.890625l.40625 4.367188-195.40625.363281-.101563-3.90625c-.867187-33.679687-4.519531-67.484375-10.859374-100.476563 6.269531 32.984376 9.921874 66.722657 10.796874 100.28125l.105469 4.097657zm171.863282-124.761718s-.027344.003906-.039063.035156c-4.304687 17.398438-4.339843 35.824219-.101562 53.277344l.898437 3.707031-3.65625 1.074219c-1.355468.398437-2.660156.828125-3.878906 1.277344 4.605469-1.625 9.375-2.785157 14.199219-3.394532-1.023438.066406-2.042969.238282-2.90625.390625l-3.695313.648438-.882812-3.644531c-4.253906-17.476563-4.21875-35.917969.09375-53.339844l-.03125-4.035156zm-37.902344 53.484375-.054688.417969-.511718 3.160156-6.25.386718v.0625c.023437 0 12.648437-.769531 12.648437-.769531l-1.394531.027344-4.871094.308594.65625-4.839844c2.484375-18.398437 2.515625-37.027344.085938-55.367187l-.046875-.027344h-.015625c2.480468 18.796875 2.398437 37.804687-.246094 56.542968zm0 0" fill="#935252"/><path d="m104.980469 177.152344c-1.078125 0-2.230469-.152344-3.429688-.453125-6.496093-1.632813-12.875-6.632813-16.65625-13.046875-2.941406-5-3.875-10.320313-2.625-14.976563.554688-2.082031 1.546875-4.078125 2.421875-5.835937 1.023438-2.074219 2.089844-4.21875 2.589844-6.542969 1.527344-7.113281-2.421875-13.695313-6.238281-20.058594-1.621094-2.695312-3.292969-5.480469-4.558594-8.324219-4.964844-11.210937-3.664063-25.859374 3.480469-39.195312 6.449218-12.042969 16.320312-21.746094 25.863281-31.125l.078125-.078125c14.054688-13.792969 27.042969-25.425781 43.738281-28.125 3.898438-.628906 7.816407-.710937 11.136719-.710937.984375 0 1.976562.007812 2.984375.019531h.328125c1.101562.011719 2.207031.019531 3.324219.019531 2.910156 0 6.347656-.058594 9.777343-.507812 3.265626-.425782 6.625-1.21875 9.589844-1.914063 4.949219-1.160156 9.539063-2.230469 14.3125-2.230469.824219 0 1.640625.03125 2.425782.097656 12.75 1.054688 22.625 10.4375 32.449218 20.792969 11.804688 12.445313 21.695313 23.945313 23.128906 38.65625.320313 3.230469.183594 6.554688.054688 9.769531-.222656 5.382813-.453125 10.945313 1.453125 16.0625 1.710937 4.578126 4.824219 8.1875 8.121094 12.015626l.136719.15625c1.957031 2.269531 3.804687 4.417968 5.398437 6.824218 6.128906 9.292969 7.660156 22.117188 4.09375 34.320313-2.976563 10.210937-9.34375 20.242187-18.921875 29.808593-1.648438 1.644532-4.113281 3.59375-6.503906 3.59375h-.898438l-.894531-.398437c-2.019531-1.007813-2.78125-3.078125-3.382813-6.101563l-5.566406-27.582031c-2.601562 1.199219-5.652344 1.847657-8.871094 1.847657-8.234374 0-16.375-3.949219-22.335937-10.84375-7.730469-8.9375-11.164063-20.914063-14.191406-31.476563l-.042969-.097656c-3.664062 13.761719-5.269531 27.90625-4.800781 42.066406l.328125 9.945313-7.121094-6.949219c-6.914062-6.75-11.847656-16.21875-13.890625-26.664063-2.203125-11.296875-1.433594-24.21875 2.363281-39.511718-9.308594 21.71875-26.769531 40.167968-47.964844 50.59375l-.460937.226562c-2.414063 1.183594-4.882813 2.390625-6.503906 4.492188-2.820313 3.65625-2.160157 8.777343-1.578125 13.296874l.125.992188c.066406.527344.132812 1.046875.191406 1.570312.140625 1.316407.210938 2.726563.210938 4.199219 0 3.199219-.441407 14.023438-6.152344 18.988281-1.867188 1.613282-3.996094 2.394532-6.515625 2.394532zm0 0" fill="#c67045"/><path d="m150.726562 243.734375c-3.148437 0-6.148437-.320313-8.929687-.953125-.753906-.171875-1.28125-.324219-1.710937-.496094l-2.898438-1.164062.421875-3.089844c.105469-.769531.375-1.648438.824219-2.683594 1.882812-4.375 4.453125-8.503906 7.636718-12.261718 3.085938-3.65625 6.679688-6.886719 10.679688-9.597657 5.148438-3.492187 9.824219-5.191406 14.292969-5.191406 2.066406 0 4.121093.371094 6.097656 1.101563 1.050781.390624 2.039063.882812 2.945313 1.460937.960937-.609375 1.960937-1.097656 2.984374-1.46875 1.949219-.71875 3.992188-1.089844 6.050782-1.089844 4.464844 0 9.144531 1.695313 14.304687 5.183594 3.871094 2.628906 7.363281 5.738281 10.390625 9.253906 3.332032 3.875 5.996094 8.125 7.925782 12.625.410156.949219.675781 1.78125.804687 2.527344l.558594 3.242187-3.074219 1.171876c-.417969.160156-.921875.304687-1.632812.472656-2.792969.632812-5.789063.949218-8.929688.949218-12.070312 0-23.046875-4.476562-29.355469-11.972656-6.363281 7.5-17.328125 11.980469-29.386719 11.980469zm0 0" fill="#c67045"/><path d="m179.792969 290.253906c-9.199219.003906-19.128907-3.074218-29.507813-9.140625-25.511718-14.90625-44.007812-42.339843-48.269531-71.597656-1.953125.582031-3.984375.894531-6.074219.894531-9.265625 0-18.207031-5.984375-21.261718-14.230468-3.628907-9.773438.96875-21.894532 10.25-27.019532l2.605468-1.441406 2.125 2.082031c3.523438 3.453125 7.738282 5.921875 11.875 6.957031 1.191406.300782 2.355469.453126 3.445313.453126 2.511719 0 4.71875-.8125 6.5625-2.40625 6.085937-5.289063 6.554687-17.503907 5.949219-23.226563-.085938-.824219-.191407-1.671875-.304688-2.523437-.613281-4.761719-1.246094-9.660157 1.550781-13.300782 1.605469-2.085937 4.054688-3.285156 6.421875-4.445312l.570313-.273438c14.542969-7.15625 27.398437-18.09375 37.144531-31.613281l8.007812-11.105469-.769531 13.667969c-.355469 6.363281.011719 12.398437 1.09375 17.941406 2.777344 14.265625 10.546875 26.058594 21.316407 32.363281-1.0625-11.84375-.714844-23.765624 1.074218-35.464843l2.304688-15.085938 5.390625 14.277344c2.726562 7.222656 5.789062 12.65625 9.640625 17.105469 5.757812 6.664062 14.546875 10.96875 22.390625 10.96875 1.667969 0 3.308593-.1875 4.871093-.5625l4.027344-.957032 5.46875 27.105469c.488282 2.382813 1.179688 4.996094 3.300782 6.085938.59375.308593 1.238281.460937 1.921874.460937 1.929688 0 4.203126-1.246094 6.574219-3.605468 1.9375-1.9375 3.820313-3.988282 5.597657-6.089844l2.261718-2.675782 2.949219 1.890626c8.433594 5.398437 12.585937 16.878906 9.453125 26.128906-2.910156 8.617187-12.230469 15.117187-21.683594 15.117187-1.503906 0-2.988281-.164062-4.414062-.488281.644531 13.691406-3.3125 28.269531-11.171875 41.089844-7.066407 11.539062-17.164063 21.839844-30.015625 30.613281-10.917969 7.457031-20.75 11.371094-30.058594 11.96875-.855469.054687-1.738281.082031-2.613281.082031zm2.960937-55.679687c6.4375 5.773437 16.410156 9.222656 26.679688 9.222656 3.152344 0 6.164062-.324219 8.953125-.957031.921875-.207032 2.808593-.625 3.714843-1.964844 1.121094-1.648438.429688-3.824219-.300781-5.539062-1.933593-4.492188-4.601562-8.742188-7.9375-12.632813-3.023437-3.527344-6.519531-6.640625-10.398437-9.257813-5.195313-3.519531-9.886719-5.226562-14.34375-5.226562-2.066406 0-4.054688.363281-6.082032 1.113281-.410156.144531-.8125.316407-1.277343.527344l-1.695313.785156-1.6875-.796875c-.425781-.199218-.832031-.371094-1.214844-.511718-2.050781-.753907-4.050781-1.121094-6.125-1.121094-4.460937 0-9.144531 1.707031-14.320312 5.222656-3.980469 2.683594-7.570312 5.914062-10.691406 9.605469-3.191406 3.765625-5.765625 7.898437-7.648438 12.285156-.6875 1.582031-1.460937 3.863281-.324218 5.527344.914062 1.355469 2.800781 1.777343 3.710937 1.980469 2.800781.632812 5.8125.953124 8.957031.953124 10.273438 0 20.25-3.445312 26.691406-9.21875l2.667969-2.394531zm0 0" fill="#ffdac4"/><path d="m179.804688 374.078125c-4.007813-14.167969-9.324219-25.488281-16.257813-34.609375-10.152344-13.359375-24.238281-21.941406-38.644531-23.542969l-5.683594-.628906 2.539062-5.125c5.300782-10.679687 9.058594-22.113281 11.179688-33.972656l1.167969-6.546875 5.234375 4.097656c3.472656 2.722656 7.148437 5.214844 10.917968 7.414062 10.390626 6.078126 20.328126 9.15625 29.546876 9.15625.871093 0 1.75-.027343 2.617187-.082031 9.320313-.601562 19.164063-4.523437 30.085937-11.980469 1.835938-1.253906 3.742188-2.644531 5.660157-4.125l3.925781-3.027343 19.972656 41.988281-4.546875 1.292969c-13.335937 3.792969-25.761719 13.519531-34.984375 27.386719-5.738281 8.640624-10.25 18.363281-15.097656 32.511718l-4.148438 12.113282zm0 0" fill="#ffdac4"/><path d="m168.027344 435.875-1.410156.085938c2.535156-18.71875 2.574218-37.695313.09375-56.429688-.292969-2.207031-2.320313-3.75-4.527344-3.464844-2.207032.292969-3.757813 2.316406-3.46875 4.523438 2.449218 18.480468 2.355468 37.207031-.269532 55.660156-.011718.070312-.003906.136719-.007812.203125l-3.0625.1875c-2.222656.136719-3.914062 2.042969-3.78125 4.269531.132812 2.136719 1.90625 3.785156 4.023438 3.785156.082031 0 .164062 0 .246093-.007812l12.652344-.765625c2.222656-.136719 3.914063-2.046875 3.78125-4.269531s-2.039063-3.929688-4.269531-3.777344zm0 0"/><path d="m207.257812 435.128906c-1.035156.132813-2.066406.304688-3.097656.480469-4.09375-16.847656-4.074218-34.589844.089844-51.425781.535156-2.160156-.78125-4.347656-2.945312-4.882813-2.160157-.535156-4.347657.785157-4.882813 2.945313-4.46875 18.070312-4.496094 37.113281-.113281 55.195312-1.386719.414063-2.765625.855469-4.121094 1.355469-2.089844.769531-3.164062 3.082031-2.394531 5.171875.597656 1.632812 2.140625 2.644531 3.785156 2.644531.460937 0 .929687-.078125 1.386719-.246093 4.292968-1.578126 8.769531-2.664063 13.300781-3.238282 2.210937-.277344 3.773437-2.292968 3.496094-4.503906-.277344-2.207031-2.292969-3.78125-4.503907-3.496094zm0 0"/><path d="m318.695312 336.136719c-.078124-.113281-.171874-.207031-.261718-.3125 2.210937-2.730469 3.792968-5.417969 4.929687-7.875 6.527344-14.09375 3.234375-32.3125-8.191406-45.335938-11.960937-13.636719-28.898437-18.796875-41.003906-20.722656-12.222657-1.945313-24.476563-1.578125-36.46875-.785156 3.078125-3.648438 5.835937-7.445313 8.25-11.390625 7.390625-12.058594 11.503906-25.617188 11.792969-38.667969.09375.003906.1875.003906.28125.003906 11.023437 0 22.011718-7.335937 25.578124-17.871093 3.707032-10.949219-1.0625-24.023438-10.53125-30.492188 4.25-6.128906 7.332032-12.40625 9.195313-18.78125 3.890625-13.335938 2.171875-27.425781-4.605469-37.695312-1.773437-2.683594-3.847656-5.085938-5.851562-7.40625-3.054688-3.542969-5.9375-6.882813-7.386719-10.773438-1.613281-4.335938-1.417969-9.269531-1.207031-14.488281.136718-3.355469.273437-6.828125-.066406-10.324219-1.683594-17.292969-14.714844-31.027344-24.230469-41.058594-9.96875-10.507812-20.890625-20.871094-35.058594-22.046875-6.28125-.527343-12.234375.878907-17.996094 2.226563-3.171875.746094-6.171875 1.449218-9.1875 1.84375-4.058593.527344-8.179687.492187-12.546875.453125-4.925781-.039063-10.023437-.082031-15.128906.742187-19.332031 3.121094-34.707031 18.21875-45.933594 29.242188-9.792968 9.617187-19.921875 19.558594-26.683594 32.1875-7.726562 14.429687-9.074218 30.40625-3.609374 42.742187 1.351562 3.050781 3.097656 5.960938 4.785156 8.777344 3.570312 5.949219 6.941406 11.570313 5.75 17.121094-.390625 1.8125-1.300782 3.652343-2.261719 5.597656-1.011719 2.046875-2.058594 4.164063-2.707031 6.589844-1.527344 5.71875-.441406 12.140625 3.054687 18.078125.121094.203125.25.398437.371094.59375-10.015625 6.355468-15.058594 20.058594-10.890625 31.289062 4.066406 10.964844 16.328125 17.996094 27.828125 16.722656 2.984375 15.773438 9.691406 30.621094 19.277344 43.316407-17.71875-2.253907-36.460938 2.082031-51.214844 12.074219-16.453125 11.148437-28.234375 29.503906-31.515625 49.105468-1.957031 11.691406-.035156 21.726563 5.398438 28.476563-30.429688 38.175781-44.855469 87.753906-39.578126 136.320312.542969 5 2.199219 20.226563 13.542969 25.925781 4.648438 2.332032 9.832031 2.464844 14.144531 2.464844.277344 0 .550782 0 .820313-.003906l296.414063-.550781c4.726562-.007813 11.199218-.019531 16.347656-3.695313 5.746094-4.09375 7.734375-11.164062 8.917968-17.542968 9.890626-53.238282-1.976562-109.394532-32.5625-154.074219zm-238.550781-229.851563c-4.46875-10.082031-3.21875-23.417968 3.34375-35.671875 6.179688-11.539062 15.863281-21.046875 25.226563-30.238281 13.550781-13.308594 26.035156-24.527344 41.570312-27.035156 3.414063-.554688 6.886719-.65625 10.496094-.65625 1.082031 0 2.171875.007812 3.277344.019531 4.445312.035156 9.046875.074219 13.65625-.523437 3.417968-.445313 6.761718-1.230469 9.988281-1.988282 5.386719-1.261718 10.476563-2.457031 15.488281-2.042968 11.347656.941406 20.609375 9.792968 29.878906 19.5625 11.292969 11.902343 20.746094 22.847656 22.050782 36.289062.289062 2.945312.164062 5.992188.035156 9.21875-.230469 5.785156-.472656 11.769531 1.707031 17.625 1.953125 5.246094 5.453125 9.304688 8.839844 13.226562 1.921875 2.226563 3.738281 4.332032 5.222656 6.582032 5.488281 8.316406 6.832031 19.902344 3.597657 30.992187-2.792969 9.566407-8.820313 19.019531-17.914063 28.09375-2.1875 2.183594-3.566406 2.503907-3.765625 2.414063-.132812-.070313-.609375-.511719-1.167969-3.273438l-5.5625-27.582031c-.246093-1.21875-1.039062-2.257813-2.152343-2.8125-1.113282-.554687-2.417969-.566406-3.539063-.03125-6.691406 3.203125-18.21875 1.484375-26.414063-7.984375-7.167968-8.289062-10.46875-19.839844-13.386718-30.03125-.492188-1.730469-2.078125-2.921875-3.875-2.921875-.011719 0-.027344 0-.039063 0-1.816406.019531-3.394531 1.246094-3.859375 3-3.738281 14.148437-5.378906 28.636719-4.894531 43.191406-6.265625-6.101562-10.859375-14.804687-12.765625-24.566406-2.09375-10.714844-1.332031-23.074219 2.320312-37.78125.507813-2.042969-.640624-4.128906-2.636718-4.796875-1.992188-.660156-4.164063.3125-4.988282 2.246094-8.871093 20.871094-25.632812 38.585937-45.984374 48.59375l-.484376.238281c-2.671874 1.304687-5.703124 2.789063-7.890624 5.632813-3.832032 4.976562-3.019532 11.25-2.367188 16.285156.105469.828125.210938 1.648437.296875 2.449218.738281 6.992188-.617187 16.285157-4.585937 19.734376-1.027344.886718-2.796876 1.96875-6.351563 1.078124-5.40625-1.355468-10.972656-5.75-14.179687-11.195312-2.390626-4.066406-3.179688-8.292969-2.210938-11.910156.441406-1.648438 1.265625-3.324219 2.140625-5.09375 1.140625-2.304688 2.316406-4.6875 2.917969-7.476563 1.863281-8.664062-2.695313-16.261719-6.71875-22.964843-1.628906-2.726563-3.171875-5.300782-4.320313-7.894532zm25.832031 102.660156c-.171874-1.171874-.847656-2.210937-1.851562-2.835937-1.003906-.628906-2.234375-.785156-3.359375-.425781-8.566406 2.71875-19.207031-2.46875-22.332031-10.890625-2.945313-7.9375 1.042968-18.046875 8.429687-22.136719 3.960938 3.882812 8.789063 6.753906 13.695313 7.984375 1.601562.402344 3.070312.574219 4.417968.574219 4.246094 0 7.257813-1.714844 9.179688-3.390625 7.332031-6.363281 8.050781-19.753907 7.320312-26.664063-.09375-.863281-.207031-1.746094-.320312-2.636718-.535156-4.113282-1.035156-8 .757812-10.332032 1.039063-1.351562 2.984376-2.304687 5.046876-3.3125l.5-.242187c15.265624-7.507813 28.664062-19.011719 38.65625-32.882813-.378907 6.765625.007812 13.042969 1.160156 18.929688 3.007812 15.402344 11.46875 28.179687 23.21875 35.054687 1.300781.761719 2.925781.730469 4.199218-.082031 1.277344-.8125 1.992188-2.269531 1.851563-3.773438-1.070313-11.539062-.730469-23.074218 1.003906-34.453124 2.453125 6.492187 5.640625 12.851562 10.359375 18.3125 7.25 8.382812 19.695313 14.414062 31.210938 11.671874l4.652344 23.054688c.441406 2.203125 1.367187 6.78125 5.386718 8.847656 2.285156 1.175782 7.03125 2.234375 13.148438-3.875 2.09375-2.085937 4.03125-4.203125 5.832031-6.335937 6.792969 4.351562 10.410156 13.835937 7.820313 21.488281-2.824219 8.339844-12.835938 13.949219-21.421876 12.007812-1.230468-.277343-2.519531.035157-3.484374.847657-.964844.808593-1.496094 2.027343-1.433594 3.285156.644531 12.847656-3.101563 26.617187-10.550782 38.765625-6.773437 11.054688-16.484374 20.945312-28.859374 29.394531-10.3125 7.039063-19.492188 10.730469-28.058594 11.28125-9.125.597657-19.175782-2.277343-29.847656-8.515625-24.492188-14.3125-42.242188-40.640625-46.328126-68.714844zm130.449219 101.597657c-14.132812 4.015625-27.476562 14.355469-37.222656 29.023437-6.761719 10.175782-11.40625 21.304688-15.554687 33.429688-3.265626-11.566406-8.371094-24.695313-16.914063-35.945313-10.890625-14.335937-25.988281-23.386719-41.394531-25.097656 5.5-11.089844 9.355468-22.84375 11.535156-35.050781 3.597656 2.816406 7.390625 5.402344 11.363281 7.722656 11.019531 6.441406 21.621094 9.695312 31.566407 9.691406.960937 0 1.917968-.027344 2.867187-.089844 10.050781-.648437 20.546875-4.789062 32.085937-12.667968 2.023438-1.382813 3.96875-2.800782 5.859376-4.253906zm106.902344 178.195312c-.933594 5.03125-2.269531 10.023438-5.667969 12.449219-2.828125 2.015625-6.964844 2.1875-11.683594 2.195312l-54.214843.101563c-2.40625-25.179687-2.25-50.671875.492187-75.8125.238282-2.214844-1.359375-4.203125-3.570312-4.445313-2.214844-.226562-4.203125 1.359376-4.445313 3.570313-2.773437 25.4375-2.960937 51.222656-.574219 76.703125l-187.117187.347656c-.875-33.855468-4.546875-67.875-10.933594-101.128906-.417969-2.183594-2.53125-3.617188-4.71875-3.199219-2.1875.421875-3.617187 2.535157-3.199219 4.71875 6.289063 32.761719 9.914063 66.269531 10.785157 99.625l-38.921875.070313c-3.792969.023437-8.097656.019531-11.328125-1.605469-4.996094-2.507813-7.988281-8.917969-9.148438-19.589844-5.03125-46.332031 8.679688-93.632812 37.628907-130.117187 4.1875 2.660156 9.425781 4.457031 15.710937 5.316406 8.035156 1.097656 16.144531.6875 23.984375.292969 9.882812-.496094 19.214844-.96875 28.167969 1.375 17.429687 4.570312 31.242187 20.910156 32.839843 38.859375.1875 2.097656 1.945313 3.675781 4.011719 3.675781.121094 0 .242188-.003906.363281-.015625 2.214844-.199219 3.855469-2.15625 3.65625-4.375-1.886718-21.21875-18.21875-40.542969-38.828124-45.945312-10.15625-2.65625-20.558594-2.136719-30.617188-1.628907-7.816406.394531-15.199219.765625-22.488281-.226562-7.253907-.992188-12.621094-3.339844-15.957031-6.976563-6.015626-6.558594-5.3125-17.117187-4.355469-22.828125 2.921875-17.46875 13.421875-33.828125 28.085937-43.761719 14.664063-9.929687 33.75-13.613281 51.054688-9.851562.984375.21875 1.957031.035156 2.777344-.410156 1.546874 1.652344 3.148437 3.253906 4.800781 4.804687-.195313.378907-.347657.78125-.414063 1.226563-2.207031 14.652344-6.988281 28.648437-14.21875 41.589844-.707031 1.265624-.679687 2.8125.074219 4.054687.75 1.238281 2.136719 1.96875 3.5625 1.9375 14.820313-.394531 30.667969 8.078125 41.390625 22.191406 11.308594 14.886719 16.15625 33.804688 18.816406 46.738281.371094 1.800782 1.914063 3.125 3.75 3.214844.066406.003906.132813.003906.199219.003906 1.757813 0 3.320313-1.140624 3.847656-2.832031 5.28125-16.941406 10.355469-32.023437 18.992188-45.023437 9.695312-14.585938 23.175781-24.320313 36.992187-26.707032 1.242188-.214843 2.3125-.996093 2.890625-2.117187.582031-1.121094.605469-2.449219.0625-3.585937l-18.835937-39.609376c.84375-.75 1.671875-1.503906 2.480468-2.269531.117188 0 .226563.015625.34375.007813 14.191407-1.054688 28.863282-2.152344 43.046876.105468 15.257812 2.425782 28.117187 8.847657 36.210937 18.074219 9.210937 10.5 12.0625 25.566407 6.9375 36.636719-6.332031 13.675781-22.6875 19.703125-31.871094 22.082031-5.621093 1.453125-11.535156 2.476563-17.253906 3.46875-8.488281 1.46875-17.265625 2.992188-25.675781 5.96875-17.574219 6.230469-29.535156 18.414063-31.988282 32.59375-.378906 2.195313 1.089844 4.28125 3.285157 4.660157.234375.039062.464843.0625.691406.0625 1.925781 0 3.628906-1.386719 3.96875-3.347657 2.296875-13.269531 15.316406-22.320312 26.734375-26.367187 7.765625-2.75 15.828125-4.148438 24.363281-5.628906 5.875-1.015626 11.953125-2.070313 17.894531-3.605469 12.140626-3.140625 20.597657-7.808594 26.492188-12.789063 28.902344 42.773438 40.074219 96.304688 30.640625 147.078125zm0 0"/><path d="m140.898438 246.742188c3.042968.691406 6.371093 1.050781 9.820312 1.050781 10.207031 0 21.457031-3.15625 29.363281-10.246094 10.585938 9.492187 27.144531 11.933594 39.191407 9.195313 1.300781-.292969 4.351562-.984376 6.136718-3.621094 2.503906-3.683594.664063-7.960938.058594-9.367188-2.097656-4.878906-4.980469-9.472656-8.570312-13.652344-3.25-3.789062-7.019532-7.148437-11.199219-9.976562-8.636719-5.847656-16.507813-7.335938-24.042969-4.546875-.53125.195313-1.054688.410156-1.574219.652344-.511719-.238281-1.03125-.453125-1.554687-.644531-7.554688-2.792969-15.425782-1.308594-24.0625 4.539062-4.292969 2.910156-8.164063 6.390625-11.5 10.339844-3.441406 4.0625-6.222656 8.535156-8.269532 13.289062-.605468 1.410156-2.449218 5.695313.054688 9.359375 1.785156 2.640625 4.839844 3.335938 6.148438 3.628907zm1.207031-9.800782c1.726562-4.023437 4.089843-7.8125 7.019531-11.269531 2.863281-3.390625 6.183594-6.375 9.867188-8.871094 6.414062-4.347656 11.734374-5.507812 16.757812-3.648437.753906.273437 1.488281.636718 2.183594 1.074218 1.3125.828126 2.988281.828126 4.300781 0 .695313-.4375 1.429687-.800781 2.203125-1.082031 5.007812-1.847656 10.328125-.6875 16.742188 3.65625 3.585937 2.429688 6.816406 5.304688 9.601562 8.550781 3.058594 3.5625 5.507812 7.460938 7.285156 11.585938.355469.839844.488282 1.347656.535156 1.632812-.207031.078126-.550781.183594-1.113281.3125-10.648437 2.410157-26.292969-.167968-34.320312-9.707031-.765625-.910156-1.894531-1.4375-3.082031-1.4375-1.191407 0-2.320313.527344-3.085938 1.4375-8.027344 9.539063-23.671875 12.125-34.320312 9.703125-.5625-.125-.90625-.230468-1.109376-.308594.042969-.285156.175782-.792968.535157-1.628906zm0 0"/></svg>