<svg height="511pt" viewBox="-87 0 511 511.99896" width="511pt" xmlns="http://www.w3.org/2000/svg"><path d="m71.652344 503.78125.019531-.308594c-5.792969-53.757812-7.691406-108.433594-5.648437-162.523437l.101562-2.628907 2.453125-.949218c3.289063-1.273438 6.691406-2.519532 9.878906-3.679688 2.523438-.914062 5.457031-1.980468 8.347657-3.085937l5.816406-2.226563-.398438 6.21875c-1.277344 19.90625-.695312 39.9375 1.730469 59.542969 1.503906 12.097656 3.886719 24.675781 11.042969 34.671875 8.859375 12.363281 24.691406 20.296875 47.046875 23.578125 6.472656.949219 12.753906 1.429687 18.660156 1.429687 24.828125 0 39.636719-8.511718 47.6875-15.652343 15.546875-13.789063 21.335937-35.078125 24.953125-54.085938 3.542969-18.628906 5.902344-38.730469 7.015625-59.753906l.339844-6.414063 5.605469 3.136719c3.324218 1.855469 6.726562 3.652344 10.015624 5.390625 3.417969 1.800782 7.011719 3.703125 10.5 5.660156l2.265626 1.273438-15.984376 172.574219-190.671874 1.589843zm0 0" fill="#59bd8b"/><path d="m45.636719 188.140625c5.253906-11.125 8.660156-23.1875 11.957031-34.847656 2.019531-7.152344 4.101562-14.53125 6.582031-21.621094 11.535157-32.9375 28.789063-44.921875 41.230469-49.175781-11.910156.078125-24.128906 2.574218-35.351562 7.15625l-4.421876-6.445313c9.5-10.074219 19.289063-17.902343 29.101563-23.265625 11.476563-6.28125 23.917969-9.601562 35.976563-9.601562 7.421874 0 14.40625 1.261718 20.757812 3.746094-10.242188-8.480469-20.859375-17.195313-33.300781-22.6875-7.300781-3.214844-14.96875-5-22.175781-5.160157l-13.972657-.308593 12.023438-7.128907c16.253906-9.640625 33.488281-14.738281 49.839843-14.738281 3.015626 0 6.019532.179688 8.933594.527344 20.230469 2.421875 36.457032 12.933594 46.925782 30.40625 14.945312 24.972656 16.921874 62.371094 4.914062 93.070312-7.769531 19.871094-21.898438 37.53125-39.78125 49.730469l-9.511719 6.484375 3.441407-10.984375c6.804687-21.730469 8.988281-45.121094 6.316406-67.644531-2.726563 25.71875-19.222656 50.546875-44.191406 66.414062-19.113282 12.144532-43.117188 19.46875-71.351563 21.769532l-6.898437.5625zm0 0" fill="#d34242"/><g fill="#efb17c"><path d="m279.152344 333.269531 5.53125 3.53125c2.453125 1.5625 4.648437 3.085938 6.71875 4.648438 20.199218 15.265625 34.730468 40.429687 39.867187 69.035156 4.308594 24.042969 2.65625 50.484375-5.0625 80.832031-1.335937 5.257813-3.175781 10.4375-7.53125 12.75-2.71875 1.445313-6.105469 1.472656-8.828125 1.492188l-46.6875.386718zm0 0"/><path d="m173.785156 282.070312c-11.367187 0-22.558594-2.480468-32.359375-7.171874-22.496093-10.769532-39.082031-33.707032-42.261719-58.429688-3.269531 2.121094-7.128906 3.246094-11.210937 3.25-3.046875 0-6.085937-.65625-8.792969-1.890625l-4.472656-2.042969 2.914062-3.964844c.847657-1.152343 1.730469-2.25 2.628907-3.261718-.835938.859375-1.609375 1.8125-2.417969 2.871094l-3.347656 4.375-3.125-4.535157c-3.515625-5.105469-4.625-11.644531-2.960938-17.492187l.671875-2.367188 2.414063-.46875c18.949218-3.65625 35.601562-9.992187 49.492187-18.828125 16.59375-10.539062 29.886719-25.480469 37.425781-42.066406l7.636719 1.832031c-.792969 17.839844-4.480469 35.285156-10.949219 51.847656 22.375-11.8125 40.453126-32.105468 49.648438-55.632812 7.53125-19.265625 9.714844-42.179688 5.988281-62.863281l-1.519531-8.445313 7.445312 4.265625c15.859376 9.082031 28.480469 26.597657 34.625 48.050781 5.988282 20.902344 5.957032 43.511719 5.925782 63.457032 2.210937-1.398438 4.800781-2.144532 7.539062-2.144532 1.394532 0 2.824219.191407 4.25.570313.480469.132813.902344.277344 1.324219.421875l7.742187 2.65625-6.847656 4.476562c-1.347656.882813-2.433594 1.621094-3.417968 2.339844 1.804687-1.222656 3.703124-2.480468 5.828124-3.785156l3.320313-2.039062 2.125 3.265624c.164063.25.386719.589844.59375 1.015626 3.03125 5.992187 2.253906 13.855468-1.984375 20.054687l-1.917969 2.804687 1.015625.476563-7.144531 3.734375c-3.847656 2.015625-8.34375 3.078125-13 3.078125-2.398437 0-4.808594-.28125-7.167969-.839844-.640625 24.957031-14.765625 49.480469-36.015625 62.515625-11.640625 7.136719-25.347656 10.910156-39.640625 10.910156zm89.933594-85.367187c1.90625.8125 3.835938 1.644531 5.734375 2.539063l2.964844 1.390624c-2.855469-1.460937-5.78125-2.78125-8.699219-3.929687zm0 0"/><path d="m170.566406 449.441406c.714844-19.023437.367188-38.179687-1.042968-56.929687 1.355468 18.953125 1.703124 38.214843.964843 57.265625l-.152343 3.972656-3.976563-.128906c-4.679687-.152344-9.496094-.589844-14.308594-1.292969-22.335937-3.269531-38.148437-11.191406-47-23.546875-7.164062-10.011719-9.535156-22.570312-11.027343-34.648438-2.597657-20.980468-3.09375-42.347656-1.46875-63.507812l.179687-2.382812 2.1875-.96875c12.136719-5.367188 20.917969-11.558594 26.855469-18.921876 7.644531-9.496093 11.839844-21.648437 10.683594-30.957031l-.960938-7.75 6.851562 3.75c1.085938.59375 2.078126 1.101563 3.027344 1.550781 9.800782 4.691407 20.996094 7.167969 32.390625 7.167969 13.972657-.011719 27.410157-3.613281 38.859375-10.421875l5.617188-3.339844.414062 6.523438c.898438 14.007812 10.363282 28.222656 25.972656 39.003906 1.394532.964844 2.816407 1.878906 4.023438 2.648438l1.953125 1.242187-.101563 2.3125c-1.027343 22.632813-3.457031 44.160157-7.230468 63.988281-3.601563 18.984376-9.382813 40.257813-24.933594 54.054688-10.730469 9.507812-25.402344 14.710938-43.617188 15.464844l-4.328124.179687zm0 0"/><path d="m24.066406 507.933594c-3.886718 0-7.960937-.171875-11.289062-2.246094-5.949219-3.730469-7.066406-11.597656-7.394532-19.542969-1.027343-25.167969-2.09375-51.195312 3.515626-76.296875 6.28125-28.078125 20.523437-50.433594 40.097656-62.945312 3.328125-2.125 6.984375-4.085938 11.179687-6.007813l5.886719-2.695312-.226562 6.472656c-1.820313 52.75.105468 106.074219 5.730468 158.484375l.472656 4.390625-46.917968.386719zm0 0"/></g><path d="m335.265625 409.773438c-5.308594-29.597657-20.402344-55.679688-41.410156-71.5625-8.035157-6.074219-16.964844-10.785157-25.597657-15.339844-4.910156-2.589844-9.929687-5.242188-14.75-8.132813-.453124-.457031-1.015624-.796875-1.648437-.996093-1.671875-1.035157-3.320313-2.097657-4.917969-3.203126-6.246094-4.316406-26.433594-20.019531-24.105468-41.019531 17.082031-13.523437 28.488281-34.449219 30.378906-56.140625 8.339844.804688 16.617187-1.425781 22.65625-6.195312 2.011718 1.207031 3.984375 2.480468 5.898437 3.835937.710938.503907 1.523438.742188 2.328125.742188 1.265625 0 2.507813-.589844 3.292969-1.699219 1.289063-1.816406.859375-4.332031-.957031-5.621094-1.648438-1.167968-3.332032-2.285156-5.050782-3.351562 4.609376-7.152344 5.539063-16.394532 1.859376-23.632813-.144532-.285156-.328126-.554687-.484376-.832031 2.117188-1.039062 4.273438-2 6.472657-2.859375 2.074219-.816406 3.09375-3.15625 2.28125-5.226563-.8125-2.074218-3.152344-3.097656-5.226563-2.28125-3.132812 1.226563-6.195312 2.632813-9.179687 4.1875-2.109375-1.523437-4.511719-2.703124-7.089844-3.390624-2.960937-.785157-5.964844-.898438-8.769531-.363282-.023438-18.71875-.527344-39.316406-6.085938-58.714844-6.867187-23.96875-21.273437-42.957031-39.519531-52.085937-.964844-.480469-2.027344-.535156-2.984375-.242187-2.207031-8.222657-5.351562-15.925782-9.429688-22.742188-11.132812-18.589844-28.394531-29.777344-49.925781-32.355469-25.070312-2.996093-53.105469 6.339844-76.914062 25.628907-1.5625 1.261718-1.953125 3.480468-.921875 5.207031 1.035156 1.71875 3.175781 2.417969 5.023437 1.640625 10.171875-4.289063 23.308594-3.523438 36.042969 2.09375 6.691406 2.949218 12.90625 6.9375 18.859375 11.332031-13.890625-.957031-28.90625 2.429687-42.609375 9.925781-19.832031 10.847656-34.746094 28.453125-44.234375 40.753906-1.21875 1.574219-1.101563 3.800782.265625 5.242188 1.371094 1.441406 3.585938 1.664062 5.222656.535156 9.757813-6.769531 20.921875-11.605468 32.558594-14.207031-13.277344 11.242187-21.425781 27.84375-26.25 41.621094-2.523438 7.210937-4.628906 14.660156-6.664062 21.863281-4.042969 14.308594-7.863282 27.828125-14.785157 40.1875-.71875 1.28125-.683593 2.851562.089844 4.097656.738281 1.1875 2.035156 1.90625 3.425781 1.90625.070313 0 .136719-.003906.207032-.007812 7.304687-.371094 14.339843-1.070313 21.117187-2.070313-.863281 7.128907 1.449219 14.5625 6.34375 19.867188-.777344 1.472656-1.5 2.976562-2.144531 4.523437-.855469 2.054688.117187 4.414063 2.175781 5.273438.503906.210937 1.03125.308594 1.546875.308594 1.578125 0 3.078125-.933594 3.722656-2.484376.378906-.910156.792969-1.800781 1.230469-2.679687 5.964844 3.03125 13.121094 3.519531 19.441406 1.34375 3.796875 18.441406 14.5625 35.511719 29.386719 47.199219.105469.375.25.742187.472656 1.085937 6.144532 9.449219.976563 24.789063-7.296875 35.058594-8.484375 10.53125-21.414062 16.472656-32.945312 20.894531-2.839844 1.085938-5.769531 2.152344-8.601563 3.179688-10.21875 3.714844-20.78125 7.554687-30.25 13.605468-20.492187 13.089844-35.363281 36.347657-41.878906 65.484376-5.722656 25.601562-4.652344 51.90625-3.613281 77.34375.234375 5.664062.714843 17.445312 9.289062 22.816406 4.199219 2.625 9.160157 2.878906 13.128907 2.878906.488281 0 .964843-.003906 1.417968-.007812l284.707032-2.367188c3.164062-.027344 7.109374-.058594 10.714843-1.972656 5.75-3.050782 7.992188-9.171875 9.5625-15.332032 7.867188-30.910156 9.539063-57.914062 5.121094-82.546874zm-273.828125-255.390626c2.003906-7.085937 4.074219-14.414062 6.515625-21.390624 10.996094-31.40625 27.140625-42.738282 38.746094-46.710938 1.875-.644531 3.003906-2.550781 2.667969-4.5-.332032-1.9375-2.011719-3.347656-3.972657-3.347656-.015625 0-.03125 0-.046875 0-12.550781.144531-25.128906 2.75-36.800781 7.511718 7.746094-8.210937 17.167969-16.511718 28.105469-22.496093 17.691406-9.675781 37.636718-11.785157 53.359375-5.640625 1.847656.722656 3.945312-.003906 4.945312-1.714844 1.003907-1.714844.613281-3.898438-.921875-5.15625-10.488281-8.605469-21.332031-17.5-34.25-23.195312-7.902344-3.484376-16.003906-5.328126-23.703125-5.5 18.410157-10.921876 38.238281-15.84375 56.261719-13.683594 18.960938 2.269531 34.164062 12.121094 43.964844 28.492187 14.34375 23.957031 16.199218 59.949219 4.625 89.5625-7.519532 19.230469-21.199219 36.210938-38.308594 47.875 6.992188-22.316406 9.230469-46.054687 6.472656-69.308593-.242187-2.027344-1.960937-3.554688-4.003906-3.554688-.007812 0-.019531 0-.03125 0-2.050781.015625-3.765625 1.574219-3.980469 3.617188-2.539062 24.503906-18.351562 48.222656-42.300781 63.445312-18.570312 11.804688-41.933594 18.910156-69.527344 21.167969 5.386719-11.414063 8.835938-23.613281 12.183594-35.472657zm41.695312 61.582032c-.179687-1.382813-1.058593-2.574219-2.324218-3.152344-1.269532-.582031-2.746094-.464844-3.90625.308594-4.65625 3.09375-11.003906 3.394531-16.082032 1.070312.753907-1.023437 1.554688-2.015625 2.398438-2.976562 1.46875-1.675782 1.304688-4.222656-.367188-5.691406-1.671874-1.46875-4.222656-1.304688-5.691406.371093-.882812 1.003907-1.722656 2.042969-2.523437 3.109375-2.796875-4.046875-3.757813-9.410156-2.421875-14.132812 19.433594-3.746094 36.480468-10.21875 50.886718-19.378906 17.570313-11.164063 31.117188-26.628907 38.921876-43.792969-.773438 17.285156-4.367188 34.421875-10.679688 50.570312-.613281 1.570313-.1875 3.355469 1.070312 4.476563 1.261719 1.121094 3.085938 1.34375 4.574219.550781 23.15625-12.289063 41.90625-33.335937 51.453125-57.75 8.027344-20.535156 9.992188-43.988281 6.199219-65.03125 15 8.597656 26.859375 25.058594 32.769531 45.679687 5.832032 20.359376 5.796875 42.667969 5.769532 62.351563 0 1.484375.808593 2.847656 2.113281 3.550781 1.304687.707032 2.894531.640625 4.132812-.175781 2.332031-1.53125 5.355469-1.914063 8.519531-1.070313.359376.09375.710938.214844 1.058594.339844-1.210937.789063-2.410156 1.601563-3.582031 2.445313-1.808594 1.304687-2.214844 3.824219-.910156 5.628906.785156 1.09375 2.019531 1.671875 3.269531 1.671875.820312 0 1.644531-.246094 2.355469-.761719 1.804687-1.300781 3.664062-2.519531 5.558593-3.679687.121094.207031.253907.40625.359376.617187 2.425781 4.765625 1.605468 11.179688-1.699219 16.011719-2.984375-1.53125-6.042969-2.921875-9.171875-4.140625-2.074219-.808594-4.410156.210937-5.222656 2.285156-.808594 2.074219.214843 4.414063 2.289062 5.222657 1.859375.726562 3.695312 1.519531 5.503906 2.367187-4.972656 2.59375-11.265625 3.335937-17.386718 1.894531-1.183594-.285156-2.429688-.011718-3.390626.730469-.960937.742187-1.539062 1.878906-1.566406 3.09375-.574218 23.601563-13.949218 46.824219-34.074218 59.167969-20.128907 12.339844-46.894532 13.730468-68.1875 3.535156-21.296876-10.1875-37.003907-31.902344-40.015626-55.316406zm21.757813 94.894531c7.402344-9.1875 12.980469-22.351563 11.535156-33.960937 1.070313.578124 2.148438 1.136718 3.242188 1.664062 10.558593 5.050781 22.316406 7.542969 34.097656 7.542969 14.328125 0 28.675781-3.699219 40.910156-10.96875.96875 15.144531 10.941407 30.46875 27.679688 42.035156 1.363281.941406 2.753906 1.84375 4.152343 2.726563-1 22.324218-3.398437 43.65625-7.15625 63.421874-3.484374 18.332032-9.019531 38.824219-23.664062 51.8125-11.777344 10.441407-27.335938 13.890626-41.128906 14.457032.722656-19.070313.378906-38.355469-1.046875-57.375-.167969-2.21875-2.113281-3.863282-4.324219-3.71875-2.21875.167968-3.882812 2.101562-3.71875 4.324218 1.414062 18.824219 1.75 37.921876 1.023438 56.796876-5.21875-.167969-9.960938-.675782-13.859376-1.25-21.226562-3.109376-36.144531-10.484376-44.332031-21.921876-6.640625-9.269531-8.878906-21.246093-10.3125-32.804687-2.570312-20.757813-3.042969-41.84375-1.445312-62.703125 9.972656-4.417969 20.710937-10.601562 28.347656-20.078125zm-45.070313 26.59375c2.757813-1.003906 5.609376-2.039063 8.40625-3.109375-1.285156 20.078125-.710937 40.332031 1.757813 60.289062 1.566406 12.617188 4.070313 25.769532 11.761719 36.507813 9.511718 13.285156 26.238281 21.765625 49.71875 25.207031 6.960937 1.019532 13.363281 1.472656 19.238281 1.472656 25.539063 0 41.226563-8.578124 50.332031-16.65625 16.457032-14.59375 22.5-36.667968 26.238282-56.339843 3.589843-18.871094 5.957031-39.125 7.082031-60.28125 3.378906 1.890625 6.785156 3.691406 10.136719 5.460937 3.542968 1.867188 7 3.699219 10.367187 5.585938l-15.410156 166.390625-183.773438 1.527343c0-.050781.003907-.097656 0-.152343-5.796875-53.691407-7.695312-108.277344-5.652343-162.25 3.199218-1.246094 6.464843-2.441407 9.796874-3.652344zm-54.726562 166.476563c-4.238281.035156-7.679688-.0625-10.199219-1.644532-4.371093-2.734375-5.234375-9.453125-5.511719-16.304687-1.019531-24.921875-2.070312-50.6875 3.421876-75.257813 6.046874-27.046875 19.667968-48.515625 38.351562-60.449218 3.417969-2.183594 6.992188-4.046876 10.683594-5.738282-1.828125 52.929688.101562 106.40625 5.753906 159.039063zm297.234375-13.597657c-1.109375 4.363281-2.546875 8.617188-5.527344 10.199219-1.863281.992188-4.59375 1.011719-7 1.03125l-42.246093.351562 14.980468-161.742187c2.203125 1.410156 4.363282 2.886719 6.460938 4.472656 19.40625 14.671875 33.378906 38.929688 38.332031 66.550781 4.210937 23.480469 2.578125 49.363282-5 79.136719zm0 0"/></svg>