<svg height="511pt" viewBox="-79 0 511 511.99804" width="511pt" xmlns="http://www.w3.org/2000/svg"><path d="m182.496094 395.570312c-9.535156 0-19.867188-2.421874-31.597656-7.394531-6.472657-2.746093-12.980469-6.089843-18.722657-9.035156-5.980469-3.0625-11.394531-5.796875-17.050781-8.273437l-2.21875-.976563-.164062-2.417969c-.363282-5.296875-.410157-10.648437-.144532-15.894531l.3125-6.199219 45.234375 23.367188c4.621094 2.386718 9.855469 5.089844 15.449219 5.527344.535156.046874 1.0625.066406 1.707031.066406 7.914063 0 15.339844-4.3125 21.679688-8.351563 28.1875-17.984375 53.523437-39.984375 75.304687-65.382812l2.117188-2.472657 2.851562 1.574219c6.878906 3.796875 13.546875 7.523438 19.464844 11.367188l4.097656 2.660156-3.417968 3.492187c-21.9375 22.410157-46.0625 42.894532-71.710938 60.886719-9.789062 6.863281-21.300781 14.375-34.089844 16.664063-2.929687.527344-5.992187.792968-9.101562.792968zm0 0" fill="#f7b36f"/><path d="m68.949219 344.214844c-7.980469-4.003906-15.144531-9.789063-20.722657-16.726563l-2.367187-2.941406 2.800781-2.53125c7.515625-6.792969 15.742188-12.082031 25.160156-16.171875l6.316407-2.746094-.746094 6.847656c-.566406 5.210938-1.480469 10.441407-2.285156 15.054688-.859375 4.9375-1.835938 10.539062-2.382813 16.039062l-.578125 5.785157zm0 0" fill="#f7b36f"/><path d="m172.449219 336.351562c-4.652344-.136718-8.90625-2.710937-10.847657-6.570312-1.46875-2.917969-1.597656-6.320312-.378906-9.839844 1.753906-5.109375 6.292969-10.148437 11.292969-12.523437 1.453125-.6875 2.964844-1.035157 4.503906-1.035157 2.074219 0 4.175781.652344 6.074219 1.878907 3.933594 2.539062 6.425781 7.101562 6.335938 11.625-.0625 4.082031-1.914063 8.246093-5.074219 11.417969-3.195313 3.210937-7.40625 5.050781-11.554688 5.050781zm0 0" fill="#d34242"/><g fill="#c67045"><path d="m114.625 407.738281c-22.363281-8.679687-38.894531-31.121093-40.195312-54.574219-.535157-9.441406 1.050781-18.527343 2.730468-28.148437 1.238282-7.066406 2.515625-14.359375 2.804688-21.644531.78125-20.148438-5.957032-39.757813-12.476563-58.722656l-.386719-1.132813c-1.5625-4.566406-3.179687-9.285156-4.644531-13.921875-16.941406-53.554688-15.917969-105.871094 2.894531-147.316406 6.878907-15.164063 16.492188-28.957032 28.578126-40.992188 21.8125-21.707031 49.40625-34.757812 77.703124-36.742187 4.5625-.320313 8.976563-.480469 13.121094-.480469 10.765625 0 20.15625 1.082031 27.914063 3.222656 13.605469 3.765625 27.351562 12.707032 39.753906 25.863282 25.363281 26.929687 41.359375 63.527343 43.890625 100.410156 1.652344 23.945312-2.230469 48.605468-11.230469 71.316406-5.949219 15.03125-19.089843 34.878906-36.527343 41.335938l-6.726563 2.492187 1.414063-7.03125c.667968-3.324219 1.597656-6.628906 2.582031-10.128906l.144531-.511719c1.117188-4 2.273438-8.132812 2.925781-12.109375 1.671875-10.148437 2.476563-19.988281 2.398438-29.246094-.183594-21.179687-5.144531-40.898437-14.34375-57.03125-5.183594-9.082031-11.894531-17.351562-18.386719-25.351562l-.285156-.351563c-4.738282-5.84375-9.640625-11.882812-13.894532-18.222656-6.460937-9.601562-14.042968-24.324219-13.449218-39.929688l.015625-.375.085937-.363281c.835938-3.667969 1.511719-7.320312 2.007813-10.855469-1.230469 3.433594-1.925781 7.085938-2.136719 10.835938l-.019531.355469-.082031.339843c-6.707032 28.484376-22.601563 54.398438-37.976563 79.460938-17.617187 28.714844-35.785156 58.335938-40.222656 91.660156-2.75 20.65625-.347657 42.308594 7.355469 66.183594 5.160156 16.035156 12.507812 32.617188 23.117187 52.191406l6.941406 12.808594-12.507812-7.464844c-9.515625-5.679687-16.558594-15.242187-18.84375-25.582031l-.046875-.003906-.054688-.019531c-8.761718 27.328124-8.324218 57.40625 1.277344 84.722656l2.882812 8.199218zm0 0"/><path d="m248.179688 282.359375c-27.804688-19.445313-29.90625-38.03125-29.066407-50.320313l.125-1.847656 1.488281-1.101562c8.28125-6.109375 15.949219-13.523438 22.171876-21.441406l8.863281-11.273438-1.75 14.234375c-.355469 2.921875-.742188 5.636719-1.179688 8.300781-.679687 4.140625-1.867187 8.359375-3.019531 12.4375-1.542969 5.476563-3.140625 11.140625-3.53125 16.542969 6.863281-1.046875 13.691406-4.503906 20.335938-10.246094l6.78125-5.859375-.167969 8.960938c-.277344 15.121094-5.871094 29.671875-15.746094 40.96875l-2.363281 2.703125zm0 0"/><path d="m115.195312 267.992188c-3.683593-16.902344-4.535156-33.09375-2.527343-48.121094l1.183593-8.835938 5.8125 6.757813c3.027344 3.515625 6.433594 6.796875 10.121094 9.746093l2.035156 1.632813s-.6875 2.570313-.691406 2.59375c.476563 7.34375.964844 14.878906-.558594 22.171875-1.382812 6.664062-4.519531 12.421875-8.824218 16.207031l-5.105469 4.484375zm0 0"/></g><path d="m175.234375 374.28125c-.542969 0-1.085937-.019531-1.628906-.0625-5.554688-.441406-10.550781-3.019531-15.378907-5.507812l-45.183593-23.347657.316406-2.746093c.511719-4.386719 1.214844-8.640626 2.085937-12.648438l2.207032-10.132812 5.167968 8.992187c5.566407 9.683594 15.195313 16.882813 25.761719 19.261719-9.726562-17.195313-21.898437-40.125-29.566406-65.472656l-3.339844-11.035157 9.457031 6.597657c13.519532 9.433593 28.0625 17.632812 43.222657 24.367187l6.28125 2.789063-5.527344 4.082031c-3.632813 2.6875-6.605469 6.617187-7.953125 10.519531-1.210938 3.523438-1.074219 6.941406.394531 9.871094 1.949219 3.871094 6.21875 6.464844 10.882813 6.601562.148437.007813.246094.011719.324218.011719h.085938c4.128906 0 8.34375-1.851563 11.5625-5.070313 3.160156-3.167968 5.019531-7.347656 5.101562-11.46875.070313-4.121093-2.105468-8.429687-5.488281-11.042968h-13.667969l61.40625-35.4375 2.636719-2.246094 2.628907 2.378906c9.683593 8.914063 22.125 16.132813 33.027343 22.199219l4.300781 2.394531-3.222656 3.71875c-21.539062 24.863282-46.496094 46.421875-74.179687 64.082032-6.328125 4.042968-13.746094 8.351562-21.714844 8.351562zm0 0" fill="#ffdac4"/><path d="m178.617188 244.878906c-24.515626 0-48.5625-12.273437-62.761719-32.023437l-1.726563-1.5625.492188-2.285157c6.5-29.019531 22.648437-55.335937 38.265625-80.789062 12.234375-19.945312 24.855469-40.515625 32.820312-62.335938l4.117188-11.277343 3.46875 11.492187c2.832031 9.371094 7.566406 17.496094 11.039062 22.664063 4.339844 6.445312 9.328125 12.59375 14.152344 18.535156 6.492187 7.992187 13.203125 16.253906 18.414063 25.382813 9.195312 16.121093 14.148437 35.832031 14.324218 57 .011719 1.429687 0 2.890624-.03125 4.347656l-.019531.980468-.46875.855469c-7.1875 13.125-18.457031 25.398438-31.742187 34.5625-12.203126 8.421875-25.242188 13.640625-35.773438 14.308594-1.507812.09375-3.046875.144531-4.570312.144531zm0 0" fill="#ffdac4"/><path d="m173.957031 304.875c-18.175781-7.554688-35.515625-17.207031-51.535156-28.691406l-4.03125-2.890625 3.679687-3.328125c4.203126-3.804688 7.167969-9.339844 8.566407-16.015625 1.230469-5.902344 1.136719-11.804688.851562-17.300781l-.394531-7.625 6.492188 4.015624c12.414062 7.675782 27.003906 11.902344 41.085937 11.902344 1.488281 0 3.011719-.046875 4.535156-.144531 9.125-.585937 19.386719-4.195313 29.671875-10.4375l5.820313-3.53125.25 6.804687c.417969 11.222657 4.53125 21.140626 12.578125 30.320313l3.21875 3.664063-58.964844 34.015624zm0 0" fill="#ffdac4"/><path d="m315.925781 507.917969c-2.582031 0-5.136719-.136719-7.078125-.253907-9.839844-.617187-20.183594-1.195312-31.632812-1.769531l-4.523438-.226562.78125-4.457031c5.289063-30.199219 8.710938-60.855469 10.175782-91.113282-1.554688 30.679688-5.035157 61.664063-10.40625 92.097656l-.613282 3.46875-3.515625-.167968c-44.011719-2.097656-88.730469-3.160156-132.910156-3.160156-19.304687 0-38.851563.203124-58.085937.605468l-3.699219.074219-.367188-3.679687c-2.890625-29.132813-3.601562-58.699219-2.113281-87.878907-1.535156 28.914063-.84375 58.28125 1.996094 87.28125l.421875 4.285157-4.304688.105468c-15.5.375-30.519531.847656-44.640625 1.40625-.914062.039063-1.855468.066406-2.792968.066406-3.9375 0-8.84375-.441406-11.828126-3.898437-2.222656-2.601563-2.714843-6.082031-3.089843-10.027344-1.515625-15.976562-3.085938-32.496093-3.136719-48.824219-.101562-31.304687 5.523438-58.824218 16.714844-81.796874 6.285156-12.90625 13.277344-23.410157 21.375-32.121094l3.109375-3.34375 2.90625 3.523437c6.105469 7.398438 13.882812 13.363281 22.492187 17.25l3.132813.78125-.023438 3.152344c-.007812 1.339844.023438 2.601563.097657 3.859375 1.484374 26.742188 22.316406 51.300781 48.457031 57.136719-4.425781-10.503907-7.496094-21.683594-9.105469-33.265625l-1.015625-7.304688 6.679687 3.132813c4.355469 2.046875 8.699219 4.253906 12.769532 6.339843 6.109375 3.128907 12.363281 6.332032 18.71875 9.027344 11.71875 4.984375 22.058594 7.402344 31.621094 7.402344 3.078124 0 6.148437-.265625 9.125-.789062 12.808593-2.292969 24.324218-9.808594 34.117187-16.675782 25.882813-18.164062 50.199219-38.839844 72.273437-61.457031.074219-.089844.140626-.175781.214844-.257813l2.417969-2.714843 2.933594 2.148437c.089843.0625.183593.136719.28125.21875 22.601562 17.410156 38.089843 45.273438 43.621093 78.460938 4.300782 25.824218 2.863282 54.867187-4.523437 91.390625-1.097656 5.464843-2.359375 10.703125-5.710937 14.652343-5.554688 6.558594-14.828126 7.316407-21.316407 7.316407zm0 0" fill="#f9d889"/><path d="m351.484375 393.902344c-5.707031-34.246094-21.761719-63.039063-45.210937-81.078125-8.128907-6.25-18.085938-11.734375-28.632813-17.539063-6.898437-3.796875-13.851563-7.628906-20.382813-11.722656 11.753907-13.910156 17.558594-32.574219 15.710938-50.707031 6.800781-7.9375 12.285156-17.375 15.894531-26.492188 9.214844-23.261719 13.191407-48.535156 11.503907-73.082031-2.636719-38.375-18.613282-74.921875-44.988282-102.917969-13.089844-13.890625-27.097656-22.972656-41.632812-26.992187-11.203125-3.097656-25.472656-4.066406-42.398438-2.882813-29.257812 2.050781-57.769531 15.515625-80.277344 37.917969-12.433593 12.371094-22.328124 26.566406-29.421874 42.191406-19.222657 42.351563-20.308594 95.703125-3.066407 150.222656 1.601563 5.070313 3.367188 10.195313 5.070313 15.15625 6.113281 17.789063 12.410156 36.160157 12.289062 54.683594-.265625.046875-.535156.121094-.796875.226563-24.667969 9.820312-43.480469 28.59375-57.515625 57.386719-11.464844 23.527343-17.226562 51.652343-17.128906 83.59375.050781 16.507812 1.628906 33.125 3.15625 49.195312.34375 3.585938.808594 8.5 4.042969 12.269531 4.957031 5.777344 13.359375 5.449219 17.875 5.265625 93.949219-3.753906 189.179687-2.707031 283.023437 3.117188 2.066406.128906 4.582032.28125 7.324219.28125 8.082031 0 18.132813-1.351563 24.417969-8.765625 3.960937-4.671875 5.382812-10.457031 6.597656-16.472657 7.488281-37.023437 8.933594-66.527343 4.546875-92.855468zm-56.9375-79.464844c-21.761719 22.21875-45.695313 42.539062-71.148437 60.398438-9.429688 6.617187-20.5 13.859374-32.507813 16.003906-11.113281 1.988281-23.683594-.089844-38.429687-6.351563-6.246094-2.648437-12.453126-5.828125-18.457032-8.902343-5.59375-2.863282-11.363281-5.792969-17.273437-8.386719-.34375-5.132813-.394531-10.285157-.136719-15.417969l39.722656 20.515625c4.960938 2.5625 10.582032 5.464844 16.96875 5.96875.675782.054687 1.347656.078125 2.015625.078125 8.949219 0 16.957031-4.601562 23.832031-8.984375 28.535157-18.203125 54.15625-40.457031 76.1875-66.144531 6.851563 3.773437 13.40625 7.433594 19.226563 11.222656zm-142.460937 31.625c-10.738282-18.871094-22.101563-41-29.238282-64.601562 13.796875 9.625 28.503906 17.914062 43.882813 24.738281-4.242188 3.144531-7.71875 7.679687-9.351563 12.429687-1.574218 4.578125-1.371094 9.066406.59375 12.972656 2.597656 5.167969 8.230469 8.628907 14.339844 8.808594.179688.007813.355469.011719.535156.011719 5.195313 0 10.410156-2.257813 14.382813-6.246094 3.890625-3.898437 6.171875-9.078125 6.269531-14.214843.105469-5.890626-3.113281-11.824219-8.207031-15.113282 0 0-.003907 0-.003907-.003906l48.585938-28.039062c.160156-.09375.300781-.207032.441406-.320313 9.679688 8.910156 21.839844 16.101563 33.789063 22.746094-21.269531 24.550781-45.910157 45.855469-73.308594 63.332031-6.285156 4.007812-13.597656 8.222656-20.878906 7.664062-4.765625-.375-9.40625-2.773437-13.898438-5.09375l-42.691406-22.046874c.484375-4.121094 1.144531-8.222657 2.027344-12.265626 6.035156 10.507813 16.394531 18.484376 28.34375 21.167969 1.558593.351563 3.175781-.25 4.125-1.535156.949219-1.28125 1.050781-3.003906.261719-4.390625zm95.105468-152.125c-14.96875 27.347656-44.949218 45.578125-64.253906 46.800781-24.460938 1.566407-49.527344-10.304687-63.835938-30.21875-.171874-.238281-.367187-.449219-.578124-.636719 6.355468-28.351562 22.289062-54.34375 37.765624-79.566406 12.382813-20.183594 25.0625-40.851562 33.175782-63.070312 2.925781 9.703125 7.746094 18.097656 11.546875 23.746094 4.4375 6.597656 9.488281 12.816406 14.371093 18.828124 6.394532 7.878907 13.011719 16.027344 18.039063 24.835938 8.859375 15.535156 13.632813 34.570312 13.804687 55.050781.011719 1.398438-.003906 2.8125-.035156 4.230469zm-72.957031 117.089844c2.75-1.300782 5.152344-.394532 6.6875.59375 2.757813 1.78125 4.574219 5.074218 4.515625 8.191406-.054688 3.074219-1.484375 6.234375-3.914062 8.671875-2.507813 2.515625-5.855469 3.949219-8.96875 3.867187-3.144532-.09375-6.109376-1.847656-7.375-4.371093-.980469-1.953125-1.042969-4.214844-.175782-6.734375 1.414063-4.109375 5.207032-8.308594 9.230469-10.21875zm1.261719-9.839844c-17.929688-7.457031-34.96875-16.945312-50.742188-28.257812 4.800782-4.335938 8.222656-10.628907 9.796875-18.164063 1.285157-6.160156 1.246094-12.304687.933594-18.328125 12.917969 7.988281 28.039063 12.5 43.1875 12.5 1.589844 0 3.1875-.050781 4.777344-.152344 10.441406-.660156 21.324219-4.824218 31.507812-11 .492188 13.226563 5.714844 23.855469 13.5625 32.800782zm-48.214844-70.527344c-.109375.414063-.175781.847656-.144531 1.304688.460937 7.058594.9375 14.355468-.480469 21.15625-1.226562 5.878906-3.925781 10.832031-7.550781 14.023437-3.328125-15.285156-4.566407-31.019531-2.472657-46.746093 3.214844 3.742187 6.789063 7.175781 10.648438 10.261718zm95.816406 1.652344c8.746094-6.449219 16.667969-14.203125 22.941406-22.191406-.320312 2.691406-.703124 5.402344-1.152343 8.140625-.636719 3.863281-1.75 7.816406-2.925781 12-1.59375 5.675781-3.246094 11.539062-3.664063 17.335937-.089844 1.226563.386719 2.425782 1.292969 3.257813.902344.835937 2.144531 1.203125 3.355468 1.015625 8.050782-1.273438 15.597657-5.421875 22.289063-11.203125-.265625 14.003906-5.519531 27.84375-14.761719 38.414062-16.5625-11.582031-28.808594-25.667969-27.375-46.769531zm-151.820312 11.042969c-1.6875-4.914063-3.433594-9.992188-5.007813-14.964844-16.644531-52.617187-15.675781-103.921875 2.722657-144.460937 6.683593-14.734376 16.027343-28.125 27.765624-39.808594 21.132813-21.035156 47.824219-33.675782 75.152344-35.589844 16.015625-1.121094 29.363282-.242188 39.6875 2.609375 12.910156 3.570313 26.019532 12.128906 37.914063 24.753906 24.734375 26.253907 40.339843 61.953125 42.8125 97.941407 1.605469 23.351562-2.183594 47.40625-10.957031 69.558593-6.222657 15.710938-19.167969 33.492188-34.207032 39.0625.652344-3.226562 1.589844-6.558593 2.5625-10.011719 1.183594-4.210937 2.410156-8.566406 3.121094-12.875 1.703125-10.339843 2.527344-20.410156 2.445312-29.933593-.183593-21.851563-5.324218-42.246094-14.867187-58.976563-5.351563-9.382812-12.179687-17.789062-18.78125-25.921875-4.769531-5.875-9.703125-11.949219-13.9375-18.246093-5.472656-8.132813-13.339844-22.550782-12.769531-37.546876.839844-3.683593 1.539062-7.414062 2.066406-11.195312.285156-2.058594-1.039062-4-3.066406-4.476562-2.019532-.476563-4.078125.660156-4.746094 2.628906-1.347656 3.980468-2.058594 7.972656-2.273438 11.914062-6.558593 27.855469-22.253906 53.441406-37.496093 78.285156-17.808594 29.023438-36.21875 59.035157-40.777344 93.21875-2.832031 21.242188-.375 43.46875 7.507813 67.941407 5.203124 16.148437 12.722656 33.148437 23.414062 52.871093-8.410156-5.015624-14.890625-13.507812-16.988281-23.003906-.390625-1.777344-1.925781-3.074218-3.746094-3.160156-1.796875-.113281-3.46875 1.058594-4.027344 2.789062-9.046875 28.0625-8.519531 59.402344 1.277344 87.253907-20.742187-8.050781-36.414063-28.75-37.660156-51.070313-.5-8.992187 1.046875-17.859375 2.6875-27.246094 1.257812-7.195312 2.558593-14.636718 2.851562-22.164062.820313-20.898438-6.042969-40.863281-12.679687-60.175781zm4.136718 66.15625c-.539062 4.949219-1.402343 9.929687-2.25 14.792969-.933593 5.351562-1.871093 10.808593-2.421874 16.339843-7.492188-3.761719-14.148438-9.128906-19.398438-15.667969 7.183594-6.492187 15.160156-11.59375 24.070312-15.464843zm263.625 175.652343c-1.039062 5.132813-2.121093 9.640626-4.847656 12.855469-5.355468 6.316407-15.765625 6.222657-25.09375 5.648438-10.542968-.652344-21.109375-1.238281-31.683594-1.773438 5.292969-30.203125 8.746094-61 10.234376-91.605469.109374-2.222656-1.605469-4.113281-3.832032-4.222656-2.246094-.101562-4.113281 1.609375-4.222656 3.832032-1.488281 30.605468-4.957031 61.40625-10.292969 91.601562-63.570312-3.023438-127.59375-3.886719-191.265625-2.558594-2.867187-28.910156-3.582031-58.265625-2.105468-87.277344.113281-2.222656-1.59375-4.117187-3.820313-4.230468-2.242187-.105469-4.117187 1.597656-4.230469 3.824218-1.488281 29.207032-.78125 58.761719 2.078125 87.878907-14.925781.351562-29.832031.8125-44.707031 1.410156-4.359375.171875-9.203125.140625-11.433594-2.457031-1.449218-1.695313-1.824218-4.527344-2.132812-7.785156-1.511719-15.890626-3.074219-32.320313-3.121094-48.460938-.097656-30.695312 5.394531-57.625 16.3125-80.035156 6.070312-12.449219 12.894531-22.75 20.710938-31.144532 6.460937 7.839844 14.699218 14.1875 23.960937 18.371094.238281.105469.480469.179688.722656.234375-.003906 1.371094.023438 2.742188.097657 4.117188 1.589843 28.460937 23.765624 54.605469 51.582031 60.816406.292969.066406.585937.097656.878906.097656 1.183594 0 2.324219-.523437 3.097656-1.453125.96875-1.164062 1.203125-2.769531.609375-4.160156-4.363281-10.242188-7.308594-21.117188-8.851562-32.203125 4.273437 2.007813 8.507812 4.164063 12.644531 6.28125 6.128906 3.136719 12.46875 6.382813 18.980469 9.144531 12.164062 5.167969 23.113281 7.722656 33.183594 7.722656 3.367187 0 6.636718-.285156 9.820312-.855468 13.625-2.433594 25.578125-10.226563 35.714844-17.339844 26.125-18.328125 50.671875-39.203125 72.960937-62.050781.085938-.085938.144531-.1875.222657-.277344.046874.035156.097656.070313.144531.109375 21.828125 16.789062 36.804687 43.785156 42.175781 76.007812 4.21875 25.328126 2.792969 53.90625-4.492188 89.9375zm0 0"/></svg>