<svg height="512pt" viewBox="-84 0 512 512.00092" width="512pt" xmlns="http://www.w3.org/2000/svg"><path d="m167.703125 377.898438c-4.214844 0-8.195313-1.921876-12.246094-4.0625-15.488281-8.179688-30.894531-17.289063-45.785156-27.074219l-1.417969-.933594-1.855468-9.804687c-1.101563-5.855469-2.230469-11.859376-.9375-17.769532.835937-3.835937 2.566406-7.203125 4.742187-11.207031l2.351563-4.324219 3.75 3.1875c12.785156 10.847656 25.800781 21.296875 38.6875 31.058594 3.089843 2.332031 7.28125 5.503906 12 5.582031l.175781-.003906c4.488281 0 8.335937-2.609375 12.207031-5.515625 14.390625-10.796875 32.636719-24.871094 46.125-37.980469l2.976562-2.898437 2.78125 3.085937c1.382813 1.539063 2.707032 2.898438 4.046876 4.152344l1.769531 1.664063-.65625 2.339843c-2.1875 7.734375-4.308594 15.597657-6.308594 23.371094l-.476563 1.855469-1.746093.789062-45.757813 37.402344c-4.25 3.484375-8.472656 6.648438-13.375 7.042969-.355468.03125-.703125.042969-1.050781.042969zm0 0" fill="#ed6d66"/><path d="m202.898438 481.789062c6.316406-59.710937 17.84375-119.191406 34.261718-176.785156-3.527344-3.089844-6.785156-6.621094-9.691406-10.527344l-5.269531-7.082031 8.800781.707031c10.25.828126 20.660156 1.246094 30.941406 1.246094 14.445313 0 29.019532-.824218 43.324219-2.453125l10.585937-1.203125-62.378906 68.414063c21.769532 4.714843 42.496094 15.925781 58.386719 31.621093l5.101563 5.039063-6.972657 1.691406c-22.589843 5.484375-53.75 17.492188-73.894531 43.578125-9.59375 12.421875-15.925781 26.964844-22.046875 41.03125-.996094 2.273438-2.175781 4.554688-3.726563 7.175782zm0 0" fill="#939baa"/><path d="m124.347656 473.09375c-11.582031-18.140625-26.207031-37.257812-44.714844-58.453125-7.792968-8.90625-18.367187-19.53125-31.023437-22.613281l-6.882813-1.675782 4.992188-5.03125c12.46875-12.554687 26.546875-23.507812 41.851562-32.554687-14.011718-17.023437-28.828124-33.9375-44.023437-50.3125l-8.625-9.296875 12.394531 2.664062c8.429688 1.8125 17.089844 2.726563 25.742188 2.726563 12.023437 0 23.9375-1.75 35.40625-5.207031l8.257812-2.488282-3.433594 7.914063c-.71875 1.648437-1.410156 3.121094-2.125 4.507813-.570312 1.101562-1.15625 2.183593-1.753906 3.261718-2.011718 3.6875-4.101562 7.519532-5.011718 11.714844-1.296876 5.964844-.109376 12.242188.941406 17.777344l1.765625 9.34375-.007813.410156.167969.398438.074219.429687 23.308594 123.589844zm0 0" fill="#939baa"/><path d="m190.40625 507.933594c-.582031 0-1.191406-.015625-1.820312-.035156l-35.054688-1.199219c-3.996094-.144531-7.828125-.421875-10.871094-2.171875l-1.066406-.617188-.535156-1.105468c-1.496094-3.085938-3.101563-6.234376-4.769532-9.359376l-.277343-.515624-.113281-.574219c-.097657-.484375-.195313-.96875-.28125-1.464844l-27.335938-144.871094 7.796875 4.96875c12.890625 8.21875 26.128906 15.925781 39.347656 22.90625 4.0625 2.148438 8.054688 4.078125 12.222657 4.078125.371093 0 .742187-.015625 1.125-.046875 5.300781-.4375 9.792968-4.109375 13.402343-7.0625l47.574219-38.90625-2.835938 11.613281c-12.144531 49.738282-20.6875 100.683594-25.394531 151.410157-.136719 1.472656-.296875 2.664062-.496093 3.765625l-.117188.625-.304688.558594c-.792968 1.464843-1.488281 2.871093-2.117187 4.292968l-.253906.921875-.765625.808594-.460938.457031-.429687.230469c-1.914063 1.136719-4.1875 1.292969-6.167969 1.292969zm0 0" fill="#d34242"/><path d="m93.171875 229.3125c.675781-15.292969-1.507813-30.695312-3.617187-45.589844-1.285157-9.085937-2.613282-18.484375-3.296876-27.820312-1.1875-16.457032-.363281-33.1875.429688-49.371094l.007812-.128906c.933594-18.847656 1.984376-40.210938 11.914063-57.917969 4.796875-8.558594 11.625-16.117187 20.292969-22.46875 12.644531-9.265625 31.171875-17.011719 48.363281-20.21875 6.195313-1.144531 12.101563-1.726563 17.550781-1.726563 16.597656 0 26.816406 5.375 32.464844 9.882813 8.984375 7.183594 14.074219 18.144531 18.566406 27.8125 6.808594 14.660156 13.839844 29.796875 16.152344 46.101563 2 14.160156.304688 28.691406-1.332031 42.742187l-.222657 1.886719c-.1875 1.617187-.378906 3.234375-.550781 4.851562-2.570312 23.230469-3.574219 46.847656-2.976562 70.210938v.210937c.15625 6.207031.332031 13.332031-2.945313 18.957031-1.890625 3.261719-5.523437 5.804688-9.25 6.472657-.636718.113281-1.269531.167969-1.878906.167969-2.070312 0-3.949219-.648438-5.429688-1.878907-5.148437-4.257812-3.582031-12.882812-2.832031-17.03125 4.878907-26.832031 7.722657-53.382812 8.457031-78.910156.277344-9.710937.203126-19.941406-3.90625-28.894531-3.375-7.355469-11.382812-15.269532-20.992187-15.269532-.671875 0-1.351563.035157-2.019531.113282-6.378906.71875-11.425782 4.535156-16.769532 8.574218l-.199218.152344c-2.515625 1.886719-4.890625 3.671875-7.476563 5.183594-5.628906 3.289062-12.1875 5.027344-18.960937 5.027344-4.773438 0-9.363282-.859375-13.640625-2.554688-2.015625-.800781-4.050781-1.792968-6.019531-2.753906-4.679688-2.273438-9.488282-4.609375-14.328126-4.609375-1.359374 0-2.644531.183594-3.917968.554687-4.628906 1.347657-8.628906 5.320313-11.886719 11.816407-6.777344 13.507812-8.675781 30.160156-5.976563 52.410156.707032 5.792969 1.628907 11.566406 2.679688 17.976563l.019531.113281c1.847657 11.421875 3.761719 23.230469 3.855469 34.980469.019531 2.691406-.058594 5.527343-1.269531 8.007812-3.144531 6.464844-11.949219 6.949219-14.84375 7.109375l-4.410157.242187zm0 0" fill="#644c4c"/><path d="m142.648438 298.273438c-.207032 0-.417969-.011719-.625-.035157-2.738282-.261719-5.351563-2.488281-6.628907-5.664062-1.144531-2.902344-1.191406-6.144531-1.234375-9.003907l-.292968-22.75c-.15625-12.191406-.316407-24.796874 4.351562-36.367187 2.597656-6.457031 13.390625-17.945313 22.964844-20.589844 1.269531-.347656 2.46875-.523437 3.574218-.523437 1.964844 0 3.671876.539062 5.078126 1.597656 1.457031-1.058594 3.167968-1.597656 5.136718-1.597656 1.105469 0 2.304688.175781 3.566406.523437 9.5625 2.636719 20.363282 14.125 22.976563 20.585938 4.65625 11.539062 4.496094 24.144531 4.339844 36.335937l-.289063 22.667969c-.03125 2.886719-.066406 6.164063-1.21875 9.082031-1.28125 3.210938-3.898437 5.441406-6.671875 5.707032-.195312.019531-.398437.027343-.597656.027343-5.355469 0-8.578125-6.46875-9.710937-12.007812-1.921876-9.4375-2.453126-19.089844-1.574219-28.6875l.132812-1.417969c.792969-8.46875 1.691407-18.058594-4.636719-23.503906-1.742187-1.507813-3.851562-2.480469-5.890624-3.421875-1.894532-.875-3.867188-1.777344-5.515626-3.097657-1.714843 1.335938-3.667968 2.230469-5.554687 3.101563-2.035156.9375-4.144531 1.910156-5.890625 3.417969-6.3125 5.429687-5.425781 15.019531-4.640625 23.480468l.140625 1.429688c.875 9.582031.347656 19.222656-1.570312 28.683594-1.132813 5.546875-4.355469 12.023437-9.71875 12.027344zm0 0" fill="#644c4c"/><path d="m241.675781 507.351562c-12.519531 0-25.171875-.078124-37.414062-.152343h-5.925781l1.964843-5.371094c.234375-.648437.429688-1.304687.574219-1.949219l.128906-.585937.296875-.519531c1.574219-2.769532 3.304688-5.433594 4.980469-8.011719 2.785156-4.285157 5.648438-8.683594 7.816406-13.667969 6.136719-14.082031 12.480469-28.636719 22.042969-41.019531 21.640625-28.015625 55.851563-39.984375 80.742187-45.09375-14.933593-16.785157-35.148437-29.304688-56.898437-35.304688l-6.289063-1.734375 24.914063-27.316406 2.558594.996094c18.234375 7.101562 34.441406 22.4375 44.464843 42.082031 8.839844 17.3125 13.535157 38.386719 13.941407 62.628906.378906 21.660157-2.574219 43.40625-5.433594 64.4375-.375 2.84375-.980469 6.023438-3.410156 7.550781-1.339844.828126-2.9375.972657-4.734375 1.066407-12.972656.71875-26.242188 1.222656-40.554688 1.53125l-3.824218.085937-.253907-3.820312c-1.707031-25.996094.96875-51.90625 7.949219-77.015625-7.011719 24.964843-9.695312 50.761719-8.035156 76.65625l.269531 4.1875-4.191406.066406c-10.742188.183594-22.414063.273437-35.679688.273437zm0 0" fill="#5b5d6d"/><path d="m134.628906 505.738281c-18.558594-.324219-37.109375-.378906-55.054687-.429687l-6.332031-.019532c-6.21875-.019531-12.492188-.042968-18.800782-.078124l-3.957031-.023438-.015625-3.960938c-.113281-23.359374-1.421875-46.894531-3.898438-69.949218 2.410157 23.066406 3.726563 46.570312 3.835938 69.863281l.019531 4.050781-4.050781-.03125c-11.59375-.089844-21.722656-.234375-30.957031-.441406-3.046875-.066406-5.964844-.265625-8.097657-1.953125-3.027343-2.40625-3.34375-6.757813-3.230468-11.105469.519531-21.832031 1.824218-43.910156 3.15625-64.515625 1.191406-18.417969 2.542968-39.234375 10.789062-57.675781 8.617188-19.28125 24.753906-35.039062 44.261719-43.234375l2.660156-1.117187 1.898438 2.167968c6.320312 7.210938 12.605469 14.570313 18.6875 21.875l2.9375 3.535156-3.902344 2.421876c-16.082031 9.984374-30.722656 22.109374-43.515625 36.039062v.046875c.089844 0 .175781-.003906.265625-.003906 15.71875 0 28.703125 12.554687 38.261719 23.488281 25.222656 28.886719 43.042968 53.59375 56.089844 77.761719l.265624.5.121094.550781c.574219 2.636719 1.261719 4.660156 2.167969 6.371094l3.164063 5.988281zm0 0" fill="#5b5d6d"/><g fill="#ffdac4"><path d="m246.96875 206.726562c-.273438-11.246093-.167969-22.664062.300781-33.941406l.195313-4.691406 4.601562.9375c5.652344 1.15625 10.816406 4.695312 13.816406 9.472656 3.746094 5.953125 4.226563 13.90625 1.230469 20.253906-2.847656 6.085938-8.769531 10.613282-15.441406 11.8125l-4.589844.824219zm0 0"/><path d="m205.96875 256.34375c.0625-10.015625-.21875-21.5625-4.398438-31.902344-2.941406-7.289062-13.855468-18.113281-23.003906-20.632812-1.273437-.351563-2.488281-.527344-3.609375-.527344-1.273437 0-2.453125.230469-3.503906.683594l-1.585937.683594-1.582032-.683594c-1.050781-.453125-2.230468-.683594-3.507812-.683594-1.121094 0-2.335938.175781-3.613282.527344-9.148437 2.519531-20.070312 13.347656-23.007812 20.628906-4.210938 10.429688-4.472656 22.183594-4.390625 32.378906l.050781 6.03125-5.574218-2.300781c-10.753907-4.4375-19.59375-12.570313-24.886719-22.902344l-2.0625-4.027343 4.25-1.554688c3.277343-1.195312 5.484375-3.050781 6.753906-5.667969 1.203125-2.476562 1.289063-5.328125 1.269531-8.039062-.105468-11.863281-2.027344-23.671875-3.886718-35.09375l-.164063-1.007813c-.894531-5.554687-1.820313-11.300781-2.507813-16.960937-2.699218-22.242188-.800781-38.890625 5.972657-52.386719 3.25-6.46875 7.234375-10.433594 11.847656-11.777344 1.234375-.359375 2.550781-.546875 3.902344-.546875 4.824219 0 9.613281 2.328125 14.242187 4.574219 2.097656 1.027344 4.085938 1.988281 6.078125 2.773438 4.195313 1.664062 8.914063 2.542968 13.640625 2.542968 6.824219 0 13.402344-1.734375 19.019532-5.015625 2.601562-1.519531 5.101562-3.40625 7.519531-5.230469l.148437-.109374c5.144532-3.875 10.414063-7.84375 16.742188-8.550782.640625-.074218 1.296875-.109375 1.941406-.109375 9.632812 0 17.640625 7.886719 21.007812 15.214844 4.101563 8.960937 4.179688 19.175781 3.902344 28.871094-.734375 25.503906-3.578125 52.050781-8.449218 78.902343-.8125 4.480469-2.324219 12.8125 2.851562 17.09375.125.101563.238281.179688.355469.261719l2.886719 2.074219-1.4375 3.019531c-4.03125 8.449219-9.578126 15.988281-16.488282 22.40625l-6.785156 6.300781zm0 0"/><path d="m167.046875 342.488281c-4.40625-.066406-8.195313-2.675781-12.015625-5.570312-13.449219-10.179688-26.957031-21.046875-40.148438-32.292969l-2.292968-1.957031 1.246094-2.742188c5.140624-11.328125 7.527343-23.871093 6.894531-36.28125l-.335938-6.605469 6.003907 2.769532c1.574218.722656 3.167968 1.359375 4.746093 1.890625l2.6875.90625.265625 20.84375c.035156 2.910156.078125 6.203125 1.238282 9.140625 1.300781 3.25 3.867187 5.441406 6.695312 5.710937.230469.019531.449219.03125.667969.03125 4.40625 0 8.226562-4.738281 9.726562-12.074219.699219-3.453124 1.226563-7.035156 1.566407-10.632812l.378906-4.007812 4.003906.402343c4.210938.425781 8.390625.640625 12.421875.640625 3.460937 0 7.039063-.160156 10.628906-.472656l3.964844-.347656.367187 3.960937c.324219 3.46875.84375 6.996094 1.546876 10.476563 1.496093 7.320312 5.316406 12.054687 9.730468 12.054687.230469 0 .460938-.015625.695313-.039062 2.789062-.261719 5.363281-2.464844 6.667969-5.734375 1.148437-2.882813 1.1875-6.152344 1.226562-9.035156l.246094-18.472657 2.714844-2.109375 5.285156-4.101562 1.109375 6.597656c1.660156 9.910156 5.648437 19.535156 11.527343 27.832031l1.972657 2.785157-2.4375 2.386718c-13.574219 13.285156-32.085938 27.574219-46.695313 38.539063-3.730468 2.789062-7.738281 5.511719-12.191406 5.511719h-.109375zm0 0"/><path d="m170.800781 272.582031c-4.269531 0-8.582031-.222656-12.816406-.664062l-3.628906-.375.042969-3.648438c.039062-3.527343-.097657-6.996093-.402344-10.304687l-.132813-1.464844c-.78125-8.429688-1.671875-18.003906 4.621094-23.433594 1.71875-1.480468 3.832031-2.457031 5.871094-3.402344 1.234375-.5625 2.414062-1.113281 3.519531-1.746093l1.996094-1.148438 1.992187 1.148438c1.105469.636719 2.285157 1.183593 3.496094 1.738281 2.082031.96875 4.175781 1.945312 5.890625 3.417969 6.285156 5.410156 5.398438 14.976562 4.613281 23.414062l-.132812 1.457031c-.316407 3.5-.449219 7.027344-.394531 10.484376l.0625 3.726562-3.710938.324219c-3.601562.316406-7.265625.476562-10.886719.476562zm0 0"/><path d="m88.355469 214.027344c-6.328125-.460938-12.304688-3.6875-15.984375-8.628906-4.414063-5.921876-5.460938-14.476563-2.601563-21.289063 2.375-5.640625 7.351563-10.191406 13.316407-12.175781l4.59375-1.527344.632812 4.796875c.324219 2.433594.667969 4.859375 1.007812 7.265625l.246094 1.746094c1.167969 8.3125 2.371094 16.90625 3.070313 25.503906l.375 4.652344zm0 0"/></g><path d="m343.640625 432.265625c-.417969-24.859375-5.261719-46.53125-14.386719-64.410156-10.011718-19.613281-25.773437-34.953125-43.761718-42.839844l33.574218-36.816406c1.144532-1.253907 1.378906-3.09375.582032-4.597657-.792969-1.503906-2.4375-2.355468-4.128907-2.109374-29.855469 4.25-60.199219 4.925781-90.214843 2.035156-3.878907-7.4375-6.300782-15.632813-6.972657-24.054688 5.953125-6.140625 10.910157-13.242187 14.582031-20.972656.171876-.355469.261719-.722656.320313-1.09375.726563-.019531 1.457031-.078125 2.199219-.210938 4.917968-.875 9.539062-4.105468 12.054687-8.429687 2.546875-4.371094 3.324219-9.234375 3.511719-14 .089844-.003906.175781-.003906.269531-.015625 8.425781-1.109375 15.910157-6.574219 19.527344-14.269531 3.617187-7.691407 3.054687-16.941407-1.472656-24.140625-3.835938-6.105469-10.523438-10.375-17.652344-11.492188.515625-9.050781 1.265625-18.078125 2.257813-27.046875.246093-2.222656.503906-4.445312.765624-6.671875 1.671876-14.324218 3.402344-29.136718 1.324219-43.828125-2.390625-16.917969-9.558593-32.335937-16.488281-47.246093-4.6875-10.082032-9.996094-21.511719-19.714844-29.273438-27.15625-21.691406-77.449218-6.992188-103.316406 11.957031-9.136719 6.695313-16.347656 14.691407-21.429688 23.761719-10.410156 18.566406-11.484374 40.457031-12.4375 59.769531-.800781 16.324219-1.632812 33.203125-.421874 49.917969.277343 3.808594.664062 7.628906 1.105468 11.429688-7.625 2.011718-14.226562 7.621093-17.289062 14.917968-3.453125 8.214844-2.238282 18.144532 3.085937 25.292969 4.660157 6.25 12.253907 10.082031 20.015625 10.304687.183594 5.0625.132813 10.113282-.273437 15.125-.089844 1.109376.285156 2.203126 1.03125 3.027344.746093.824219 1.796875 1.304688 2.910156 1.328125.507813.007813 1.023437.015625 1.554687.015625 1.414063 0 2.90625-.042968 4.417969-.164062 3.953125 8.632812 10.285157 16.070312 18.0625 21.457031-.28125.617187-.425781 1.304687-.359375 2.03125.820313 8.867187-.050781 17.972656-2.457031 26.617187-25.101563 8.980469-52.761719 9.226563-78.011719.636719-1.757812-.59375-3.695312.082031-4.695312 1.644531s-.800782 3.605469.476562 4.949219c8.941406 9.398438 17.777344 19.011719 26.453125 28.769531-19.332031 8.855469-35.222656 24.800782-43.910156 44.234376-8.554687 19.125-9.921875 40.347656-11.132813 59.070312-1.335937 20.683594-2.644531 42.835938-3.1718745 64.6875-.078125 3.378906-.2499995 10.40625 4.7773435 14.386719 3.378907 2.679687 7.683594 2.773437 10.535157 2.832031 21.464843.46875 42.960937.527344 63.746093.589844 20.738281.058594 42.183594.117187 63.558594.582031h.089844c.570312 0 1.113281-.125 1.605469-.339844 3.167968.9375 6.414062 1.050781 9.058593 1.140625l35.050781 1.199219c.648438.023437 1.347657.046875 2.085938.046875 1.8125 0 3.84375-.15625 5.835938-.832031.148437.015625.292968.046875.445312.046875l7.421875.042968c12.824219.082032 25.421875.15625 37.953125.15625 27.851562 0 55.339844-.378906 84.046875-1.96875 1.832031-.101562 4.335937-.242187 6.640625-1.675781 4.234375-2.636719 4.925781-7.71875 5.296875-10.449219 2.871094-21.203124 5.84375-43.125 5.46875-65.054687zm-37.921875-141.394531-55.203125 60.535156c-.972656 1.066406-1.300781 2.570312-.859375 3.945312s1.582031 2.410157 2.992188 2.710938c21.203124 4.542969 40.984374 15.285156 56.402343 30.511719-24.683593 5.988281-55.703125 18.574219-76.121093 45.011719-9.875 12.785156-16.320313 27.578124-22.550782 41.878906-1.03125 2.367187-2.21875 4.578125-3.503906 6.742187 6.289062-59.46875 17.753906-118.648437 34.136719-176.105469.429687-1.507812-.050781-3.125-1.234375-4.148437-3.394532-2.953125-6.433594-6.269531-9.101563-9.859375 24.976563 2.003906 50.140625 1.601562 75.042969-1.222656zm-80.382812 39.441406-45.734376 37.40625c-3.894531 3.1875-7.425781 5.847656-11.160156 6.152344-3.511718.265625-7.101562-1.449219-11.113281-3.570313-15.507813-8.195312-30.789063-17.238281-45.464844-26.882812l-1.535156-8.140625c-1.023437-5.425782-2.082031-11.035156-.964844-16.164063.746094-3.445312 2.480469-6.71875 4.351563-10.15625 12.628906 10.71875 25.671875 21.207031 38.867187 31.199219 3.308594 2.507812 8.308594 6.292969 14.34375 6.386719.082031.003906.160157.003906.242188.003906 5.703125 0 10.347656-3.121094 14.613281-6.320313 14.605469-10.957031 32.914062-25.097656 46.507812-38.3125 1.363282 1.523438 2.785157 2.992188 4.28125 4.390626-2.203124 7.792968-4.3125 15.613281-6.332031 23.460937-.316406.144531-.625.3125-.902343.546875zm37.164062-149.679688c3.027344 4.820313 3.421875 11.265626 1 16.417969-2.316406 4.925781-7.183594 8.613281-12.539062 9.582031-.265626-11.195312-.164063-22.449218.304687-33.683593 4.554687.933593 8.761719 3.75 11.234375 7.683593zm-186.921875 22.378907c-3.597656-4.828125-4.449219-11.804688-2.117187-17.355469 1.933593-4.609375 6.105468-8.332031 10.882812-9.929688.386719 2.875.789062 5.738282 1.1875 8.566407 1.199219 8.476562 2.414062 17.105469 3.109375 25.746093-5.046875-.375-10.050781-2.992187-13.0625-7.027343zm17.9375-19.847657c-1.277344-9.046874-2.601563-18.398437-3.261719-27.558593-1.175781-16.226563-.359375-32.855469.433594-48.9375.90625-18.429688 1.933594-39.3125 11.414062-56.226563 4.515626-8.058594 10.964844-15.191406 19.164063-21.199218 12.203125-8.941407 30.109375-16.417969 46.730469-19.507813 6.269531-1.167969 11.851562-1.667969 16.820312-1.667969 15.003906 0 24.378906 4.550782 29.96875 9.015625 8.234375 6.578125 13.121094 17.09375 17.433594 26.367188 6.683594 14.378906 13.59375 29.246093 15.820312 44.980469 1.929688 13.660156.261719 27.949218-1.351562 41.765624-.261719 2.242188-.523438 4.484376-.769531 6.71875-2.585938 23.398438-3.597657 47.203126-3 70.746094l.003906.109375c.148437 6.042969.308594 12.292969-2.398437 16.9375-1.316407 2.265625-3.929688 4.09375-6.503907 4.554688-1.128906.203125-2.757812.21875-4.050781-.851563-2.949219-2.4375-2.386719-8.0625-1.445312-13.242187 4.914062-27.0625 7.777343-53.816407 8.511718-79.507813.289063-10.179687.199219-20.933594-4.269531-30.679687-4.308594-9.390625-14.644531-18.871094-27.097656-17.457031-7.453125.839843-13.1875 5.167968-18.734375 9.351562-2.480469 1.875-4.824219 3.644531-7.269532 5.074219-8.648437 5.050781-19.804687 5.898437-29.113281 2.207031-1.863281-.738281-3.746093-1.652344-5.742187-2.625-6.304688-3.066406-13.445313-6.542969-21.117188-4.304688-5.742187 1.671876-10.566406 6.335938-14.339844 13.859376-7.148437 14.25-9.171874 31.628906-6.371093 54.691406.738281 6.089844 1.734375 12.214844 2.695312 18.136718 1.835938 11.308594 3.730469 23.003907 3.828125 34.480469.019532 2.214844-.03125 4.519531-.859375 6.222657-1.429687 2.945312-5.113281 4.523437-11.472656 4.871093.683594-15.625-1.519531-31.210937-3.65625-46.324219zm13.40625 52.652344c3.75-1.367187 7.039063-3.703125 8.96875-7.671875 1.589844-3.277343 1.699219-6.785156 1.671875-9.816406-.101562-12.09375-2.050781-24.097656-3.933594-35.703125-.949218-5.847656-1.929687-11.890625-2.648437-17.816406-2.601563-21.417969-.832031-37.339844 5.574219-50.109375 2.726562-5.4375 5.886718-8.714844 9.386718-9.730469 4.683594-1.371094 9.859375 1.148438 15.335938 3.8125 2.039062.996094 4.152344 2.023438 6.296875 2.871094 11.5625 4.582031 25.417969 3.53125 36.152343-2.742188 2.859376-1.671875 5.503907-3.667968 8.0625-5.597656 4.894532-3.695312 9.515626-7.183594 14.777344-7.777344 8.105469-.898437 15.632813 5.75 18.867188 12.808594 3.746094 8.164062 3.800781 17.855469 3.539062 27.085938-.722656 25.289062-3.542968 51.632812-8.382812 78.296874-.894532 4.910157-2.746094 15.125 4.238281 20.894532.238281.195312.488281.367187.738281.542968-3.804687 7.972657-9.132812 15.195313-15.597656 21.207032.070312-10.847656-.332031-22.648438-4.6875-33.4375-3.34375-8.277344-15.277344-20.121094-25.65625-22.984375-4.230469-1.164063-7.441406-.660157-9.761719.339843-2.316406-1-5.527343-1.503906-9.761719-.339843-10.375 2.863281-22.3125 14.707031-25.65625 22.984375-4.417968 10.953125-4.769531 22.941406-4.683593 33.917968-9.785157-4.039062-18.019531-11.605468-22.839844-21.035156zm76.976563-6.199218c-2.152344-1.855469-4.632813-3.003907-6.824219-4.011719-1.761719-.816407-3.425781-1.585938-4.691407-2.597657-.734374-.589843-1.628906-.882812-2.519531-.882812s-1.78125.292969-2.519531.882812c-1.265625 1.011719-2.929688 1.78125-4.691406 2.597657-2.1875 1.011719-4.671875 2.15625-6.820313 4.011719-7.882812 6.78125-6.84375 17.9375-6.011719 26.902343l.132813 1.429688c.84375 9.171875.335937 18.429687-1.511719 27.503906-.910156 4.460937-3.351562 9.074219-6.011718 8.800781-1.257813-.117187-2.621094-1.429687-3.320313-3.175781-.878906-2.226563-.914063-4.996094-.949219-7.675781l-.292968-22.632813c-.148438-11.804687-.304688-24.011719 4.054687-34.816406 2.265625-5.613281 12.273437-16.011719 20.324219-18.230469 2.257812-.621094 4.003906-.488281 5.183594.40625 1.441406 1.09375 3.429687 1.09375 4.871093 0 1.179688-.894531 2.921875-1.027344 5.179688-.40625 8.054687 2.21875 18.0625 12.617188 20.324219 18.230469 4.363281 10.800781 4.207031 23.011719 4.058593 34.816406l-.292969 22.632813c-.035156 2.679687-.070312 5.453125-.945312 7.664062-.703125 1.757813-2.070312 3.070313-3.324219 3.1875-2.699219.265625-5.101562-4.34375-6.011719-8.796875-1.847656-9.078125-2.355468-18.332031-1.511718-27.515625l.132812-1.421875c.832032-8.964843 1.871094-20.121093-6.011718-26.902343zm-25.503907 38.320312c.046875-3.578125-.085937-7.15625-.414062-10.71875l-.132813-1.445312c-.726562-7.855469-1.484375-15.976563 3.246094-20.050782 1.296875-1.117187 3.070312-1.9375 4.941406-2.800781 1.269532-.585937 2.5625-1.183594 3.828125-1.914063 1.269531.730469 2.5625 1.328126 3.828125 1.914063 1.875.863281 3.648438 1.683594 4.945313 2.804687 4.730469 4.070313 3.972656 12.191407 3.246093 20.046876l-.132812 1.4375c-.335938 3.628906-.46875 7.269531-.414062 10.90625-7.625.675781-15.328126.617187-22.941407-.179688zm-28.527343-2.453125.234374 18.019531c.035157 3.089844.085938 6.933594 1.515626 10.550782 1.859374 4.660156 5.707031 7.808593 10.042968 8.226562 6.886719.667969 12.660156-5.308594 14.683594-15.21875.746094-3.667969 1.289062-7.359375 1.628906-11.066406 4.261719.433594 8.542969.660156 12.828125.660156 3.664063 0 7.328125-.167969 10.972657-.480469.347656 3.644531.878906 7.28125 1.613281 10.890625 1.921875 9.40625 7.214843 15.261719 13.644531 15.261719.34375 0 .691406-.015625 1.035156-.046875 4.335938-.414062 8.183594-3.566406 10.050782-8.238281 1.425781-3.601563 1.472656-7.445313 1.515624-10.539063l.210938-16.476562c.398438-.308594.796875-.613282 1.191406-.925782 1.785156 10.605469 6.007813 20.722657 12.210938 29.472657-13.3125 13.046875-31.679688 27.230469-46.300782 38.203125-3.179687 2.382812-6.550781 4.707031-9.789062 4.707031-.035156 0-.070312 0-.105469 0-3.136719-.050781-6.332031-2.277344-9.601562-4.753906-13.582031-10.289063-27.011719-21.101563-39.972657-32.152344 5.378907-11.851563 7.914063-25.152344 7.25-38.140625 1.671876.777344 3.386719 1.457031 5.140626 2.046875zm-19.25 31.691406c-.628907 1.441407-1.292969 2.867188-2.015626 4.261719-.542968 1.058594-1.117187 2.113281-1.691406 3.164062-2.160156 3.960938-4.394531 8.058594-5.425781 12.796876-1.460937 6.730468-.195313 13.449218.921875 19.375l1.6875 8.933593c-.011719.566407.089844 1.121094.308594 1.640625l23.3125 123.585938c-11.753906-18.410156-26.53125-37.699219-45.070313-58.917969-8.472656-9.699219-19.535156-20.578125-33.085937-23.875 12.261718-12.347656 26.039062-23.066406 41.046875-31.925781 1.019531-.601563 1.71875-1.613282 1.921875-2.773438.203125-1.164062-.109375-2.355468-.859375-3.265625-14.175781-17.160156-28.996094-34.082031-44.1875-50.449219 20.855469 4.480469 42.65625 3.609376 63.136719-2.550781zm-56.148438 204.039063c-.105469-23.414063-1.421875-47.082032-3.921875-70.367188-.238281-2.214844-2.226563-3.820312-4.441406-3.578125-2.214844.238281-3.816407 2.222657-3.578125 4.4375 2.472656 22.984375 3.769531 46.34375 3.878906 69.453125-10.257812-.082031-20.585938-.210937-30.898438-.4375-2.339843-.046875-4.539062-.171875-5.699218-1.085937-1.652344-1.3125-1.796875-4.71875-1.722656-7.875.523437-21.710938 1.828124-43.765625 3.15625-64.363281 1.164062-18.046876 2.484374-38.5 10.445312-56.300782 8.230469-18.410156 23.574219-33.367187 42.15625-41.179687 6.308594 7.203125 12.527344 14.476562 18.625 21.800781-16.386719 10.167969-31.289062 22.507812-44.347656 36.726562-1.085938 1.183594-1.367188 2.898438-.714844 4.363282.644531 1.460937 2.089844 2.398437 3.683594 2.398437.078125-.003906.15625-.003906.234375-.003906 14.109375 0 26.242187 11.8125 35.246093 22.117187 24.808594 28.398438 42.726563 53.203126 55.589844 77.03125.507813 2.335938 1.246094 4.953126 2.535156 7.382813-18.742187-.320313-37.4375-.375-55.589843-.425781-8.117188-.023438-16.347657-.046875-24.636719-.09375zm134.253906 2.679687-35.050781-1.199219c-3.585937-.121093-6.769531-.34375-9.019531-1.636718-1.527344-3.15625-3.132813-6.316406-4.832032-9.496094-.089843-.449219-.179687-.902344-.265624-1.359375l-25.625-135.847656c12.878906 8.214843 26.171874 15.960937 39.628906 23.074219 4.539062 2.394531 9.039062 4.535156 14.09375 4.535156.472656 0 .957031-.019532 1.441406-.058594 6.546875-.535156 11.785156-4.816406 15.609375-7.949219l38.320313-31.34375c-12.1875 49.9375-20.746094 100.894531-25.488282 151.992188-.109375 1.175781-.25 2.328125-.445312 3.410156-.832032 1.535156-1.625 3.121094-2.351563 4.785156-.046875.105469-.066406.214844-.101562.320313-.023438.015625-.039063.035156-.058594.046875-1.300781.8125-3.421875.8125-5.855469.726562zm141.457032-7.660156c-.164063 1.214844-.550782 4.054687-1.570313 4.691406-.546875.339844-1.863281.414063-2.820313.46875-13.691406.757813-27.109374 1.234375-40.433593 1.527344-1.675781-25.542969.941406-50.984375 7.816406-75.683594.597656-2.144531-.660156-4.367187-2.804687-4.964843-2.144532-.59375-4.367188.660156-4.964844 2.804687-7.082032 25.453125-9.800782 51.675781-8.121094 78-24.191406.410156-48.179688.269531-72.996094.117187h-.226562c.292968-.816406.535156-1.636718.722656-2.445312 1.488281-2.640625 3.140625-5.179688 4.851562-7.808594 2.863282-4.402344 5.824219-8.957031 8.132813-14.257812 6.039063-13.851563 12.277344-28.175782 21.542969-40.167969 20.894531-27.054687 54.152344-38.648437 78.375-43.613281 1.414062-.289063 2.566406-1.3125 3.019531-2.683594.453125-1.367188.140625-2.875-.820313-3.953125-15.59375-17.453125-36.285156-30.230469-58.835937-36.445313l18.667969-20.472656c17.347656 6.75 32.707031 21.273438 42.355468 40.171875 8.5625 16.773438 13.109376 37.257813 13.511719 60.878907.359375 21.324218-2.566406 42.933593-5.402343 63.835937zm0 0"/></svg>