<svg height="511pt" viewBox="-89 0 511 511.99954" width="511pt" xmlns="http://www.w3.org/2000/svg"><path d="m174.199219 329.046875c-1.65625 0-3.308594-.121094-4.90625-.363281-4.917969-.742188-9.894531-2.59375-16.144531-5.988282-11.589844-6.316406-22.011719-14.765624-32.089844-22.9375-4.382813-3.546874-9.359375-7.570312-14.363282-11.3125l-3.742187-2.800781 3.777344-3.6875c.261719-.253906.523437-.507812.78125-.765625 1.660156-1.671875 3.234375-3.402344 4.664062-5.132812l2.585938-3.121094 3.085937 2.625c15.128906 12.855469 29.660156 22.933594 47.109375 32.675781 3.507813 1.953125 7.257813 3.859375 11.164063 3.859375.308594 0 .613281-.003906.921875-.027344 4.097656-.308593 7.65625-2.75 11.242187-5.445312 12.046875-9.054688 23.796875-18.886719 34.921875-29.214844l3.082031-2.863281 2.703126 3.222656c1.71875 2.046875 3.582031 3.925781 5.546874 5.59375.636719.550781 1.277344 1.058594 1.917969 1.558594l4.347657 3.40625-4.59375 3.070313c-6.300782 4.210937-11.980469 9.261718-17.472657 14.148437l-.074219.066406c-3.976562 3.546875-8.089843 7.210938-12.382812 10.5-7.671875 5.898438-19.472656 12.933594-32.082031 12.933594zm0 0" fill="#ed6d66"/><g fill="#d34242"><path d="m212.445312 507.929688c-47.195312 0-95.015624-.566407-142.132812-1.691407l-3.644531-.085937-4.199219-61.257813c-1.066406-15.671875-1.386719-29.582031 5.5625-41.128906 5.558594-9.234375 15.734375-16.1875 28.652344-19.574219 5.363281-1.40625 10.980468-2.121094 16.6875-2.121094 21.308594 0 42.453125 10.054688 55.179687 26.238282 15.425781-14.601563 38.253907-16.566406 58.558594-16.566406 8.523437.019531 16.828125.238281 24.824219 2.671874 8.929687 2.726563 15.875 7.921876 19.5625 14.628907 4.820312 8.820312 3.855468 19.761719 3.078125 28.554687l-6.222657 70.070313-3.628906.03125c-17.3125.152343-34.902344.230469-52.277344.230469zm0 0"/><path d="m91.878906 71.566406c-3.367187 0-6.070312-1.539062-7.410156-4.21875-1.242188-2.449218-1.429688-6.457031 1.804688-10.28125 3.410156-4.054687 8.808593-5.675781 14.042968-6.988281 25.417969-6.386719 51.871094-9.628906 78.621094-9.628906 14.933594 0 30.164062 1.015625 45.273438 3.015625 9.191406 1.214844 19.210937 3.515625 23.839843 11.347656 2.289063 3.882812 2.539063 9.644531-1 12.574219-1.5625 1.296875-3.632812 1.929687-6.332031 1.929687-1.773438 0-3.652344-.269531-5.417969-.558594-12.746093-2.0625-25.816406-3.523437-38.84375-4.335937-8.171875-.507813-16.488281-.765625-24.71875-.765625-14.945312 0-30.007812.84375-44.773437 2.507812-4.855469.542969-9.84375 1.492188-14.664063 2.410157l-.507812.09375c-5.976563 1.148437-12.753907 2.453125-19.175781 2.871093-.257813.019532-.5.027344-.738282.027344zm0 0"/><path d="m176.816406 375.320312c-1.644531 0-3.269531-.183593-4.824218-.546874-9.359376-2.191407-16.769532-10.726563-17.617188-20.289063-1.0625-11.976563 6.601562-19.617187 14.125-22.773437 2.933594-1.226563 6.167969-1.871094 9.359375-1.871094 6.570313 0 12.535156 2.757812 16.796875 7.769531 6.222656 7.316406 7.109375 18.578125 2.105469 26.78125-4.046875 6.640625-11.875 10.929687-19.945313 10.929687zm0 0"/></g><path d="m308.902344 345.167969c-7.726563-13.40625-17.347656-24.433594-28.597656-32.785157-6.445313-4.785156-13.582032-8.800781-20.480469-12.6875l-.199219-.109374c-8.957031-5.03125-17.425781-9.78125-25.046875-16.269532-13.148437-11.179687-19.726563-30.214844-16.757813-48.488281 0-.011719-.003906-1.984375-.003906-1.984375l1.421875-1.199219c9.742188-8.230469 17.335938-18.796875 21.957031-30.558593l3.550782-9.027344c-3.078125-6.191406-6.910156-12.472656-11.484375-18.832032-6.609375-9.191406-14.164063-17.851562-21.46875-26.226562l-.214844-.246094c-6.550781-7.527344-13.320313-15.308594-19.375-23.433594-14.40625-19.335937-22.050781-37.980468-22.722656-55.414062l-.160157-4.171875 4.175782.015625c7.871094.03125 15.597656.28125 22.960937.738281 13.023438.8125 26.089844 2.269531 38.839844 4.332031 1.449219.238282 3.417969.5625 5.425781.5625l2.359375-.023437 1.195313 1.847656c6.109375 9.4375 6.351562 21.375 6.578125 32.921875.238281 11.777344.488281 23.957032 6.878906 33.613282 3.246094 4.921874 7.949219 8.886718 12.5 12.722656 6.207031 5.238281 12.59375 10.625 15.089844 18.320312 2.851562 8.828125-.144531 18.144532-3.039063 27.160156l-.664062 2.085938c-2.636719 8.273438-5.453125 20.277344.507812 28.964844 1.699219 2.488281 4.046875 4.613281 6.316406 6.667968 4.035157 3.675782 7.796876 7.101563 8.257813 12.164063.210937 2.347656-.390625 4.679687-.96875 6.9375-.429687 1.625-.863281 3.285156-.996094 4.996094-.429687 5.332031 2.175781 11.152343 7.332031 16.40625 2.117188 2.152343 4.480469 4.105469 6.761719 5.996093l.261719.214844c2.417969 2.003906 4.703125 3.898438 6.820312 6.089844 8.148438 8.414062 12.566407 20.421875 11.816407 32.117188-.648438 10.167968-5.21875 20.167968-12.546875 27.425781l-3.6875 3.65625zm-60.25-144.054688c3.855468 10.035157 5.679687 19.863281 5.429687 29.253907.320313-10.574219-1.964843-21.5625-6.820312-32.875zm0 0" fill="#ffbf48"/><path d="m93.578125 44.601562c15.191406-23.542968 41.078125-39.039062 67.546875-40.445312 1.140625-.0625 2.308594-.089844 3.46875-.089844 24.488281 0 52.585938 13.625 69.925781 33.902344l7.675781 8.980469-11.550781-2.464844c-1.910156-.410156-3.953125-.753906-6.441406-1.089844-15.109375-2-30.339844-3.015625-45.257813-3.015625-26.730468 0-53.1875 3.238282-78.644531 9.628906-.738281.191407-1.5.390626-2.257812.605469l-10.246094 2.9375zm0 0" fill="#ffbf48"/><path d="m28.640625 332.34375c-5.523437-4.785156-9.339844-11.601562-10.464844-18.699219-1.328125-8.320312.964844-17.273437 6.128907-23.941406 1.367187-1.773437 2.9375-3.410156 4.453124-4.996094 2.746094-2.859375 5.582032-5.808593 7.21875-9.535156 1.859376-4.21875 1.914063-8.742187 1.96875-13.527344.023438-2.585937.0625-4.851562.308594-7.09375.972656-8.804687 5.125-16.472656 9.519532-24.59375l.066406-.121093c4.117187-7.570313 8.367187-15.390626 9.523437-23.996094 1.105469-8.191406-.679687-16.65625-2.402343-24.839844-2.3125-10.957031-4.484376-21.234375-.617188-31.097656 2.699219-6.859375 7.972656-12.21875 13.074219-17.398438 2.300781-2.339844 4.914062-4.992187 7.183593-7.746094 9.476563-11.523437 17.992188-31.074218 15.660157-48.753906l-.550781-4.167968 4.191406-.34375c6.078125-.492188 12.359375-1.695313 17.902344-2.761719 4.734374-.90625 10.101562-1.933594 15.175781-2.503907 12.214843-1.371093 24.761719-2.183593 37.28125-2.417968l4.238281-.078125-.164062 4.234375c-.683594 17.421875-8.324219 36.046875-22.710938 55.355468-6.21875 8.339844-13.328125 16.488282-19.605469 23.679688-7.273437 8.34375-14.800781 16.96875-21.457031 26.226562-2.984375 4.152344-5.65625 8.273438-8.007812 12.355469l2.753906 9.875c4.398437 15.746094 13.195312 29.113281 25.4375 38.65625l1.390625 1.085938.140625 1.753906c1.183594 14.890625-5.679688 31-18.824219 44.199219-10.9375 10.980468-24.664063 18.949218-37.9375 26.652344l-2.917969 1.695312c-11.207031 6.519531-22.960937 13.644531-32.59375 22.730469l-2.632812 2.480469zm64.949219-141.300781c-7.433594 14.585937-10.71875 28.667969-9.78125 42.046875.027344.027344-.011719.035156-.054688.039062l.101563-.011718c-.832031-12.167969 1.84375-25.035157 7.972656-38.269532zm0 0" fill="#ffbf48"/><path d="m274.632812 437.605469c.78125-8.800781 1.753907-19.75-3.082031-28.585938-3.683593-6.730469-10.640625-11.9375-19.597656-14.664062-7.960937-2.425781-16.300781-2.65625-24.859375-2.6875-17.710938.011719-40.050781 1.609375-55.570312 14.007812l-2.953126 2.359375-2.523437-2.820312c-12.992187-14.519532-32.726563-23.1875-52.78125-23.1875-5.6875 0-11.269531.707031-16.59375 2.101562-12.941406 3.398438-23.128906 10.355469-28.683594 19.601563-7.535156 12.507812-6.449219 28.398437-5.578125 41.167969l4.1875 61.25-4.390625-.109376c-17.378906-.4375-34.585937-.945312-51.136719-1.511718l-4.128906-.140625.273438-4.121094c1.082031-16.226563-.023438-32.726563-1.089844-48.683594l-.007812-.148437c-.703126-10.394532-1.429688-21.144532-1.539063-31.851563-.371094-35.230469 7.007813-61.402343 22.558594-80.007812 10.609375-12.695313 24.734375-21.445313 39.488281-30.023438l2.914062-1.691406c10.492188-6.085937 21.34375-12.378906 30.851563-20.226563l2.40625-1.984374 2.511719 1.847656c5.3125 3.910156 10.460937 8.058594 15.710937 12.316406 10.082031 8.171875 20.507813 16.621094 32.101563 22.933594 3.570312 1.941406 6.757812 3.382812 9.730468 4.398437l7.472657 2.554688-6.480469 4.511719c-6.679688 4.652343-10.242188 12.234374-9.53125 20.277343.851562 9.589844 8.277344 18.148438 17.660156 20.347657 1.589844.367187 3.234375.554687 4.875.554687 8.066406 0 15.902344-4.304687 19.964844-10.964844 5.015625-8.222656 4.128906-19.519531-2.109375-26.851562-1.574219-1.855469-3.394531-3.414063-5.402344-4.640625l-6.8125-4.144532 7.394531-2.980468c5.421876-2.1875 10.953126-5.429688 16.4375-9.640625 4.429688-3.398438 8.691407-7.207031 12.453126-10.570313l.144531-.128906c6.070312-5.402344 11.804687-10.507812 18.449219-14.773438l2.261718-3.171874 3.273438 2.128906c5.546875 3.738281 11.46875 7.058594 16.691406 9.988281 6.621094 3.714844 14.121094 7.925781 20.679688 12.796875 23.53125 17.464844 39.835937 46.714844 45.910156 82.359375 5.199218 30.496094 2.957031 60.417969-.511719 96.367187-.480469 4.925782-1.179687 9.59375-4.445313 12.597657-3.25 3-7.941406 3.316406-12.867187 3.386719-10.988281.1875-22.609375.339843-35.519531.472656l-4.414063.042968zm0 0" fill="#ffdac4"/><path d="m170.578125 249.257812c-12.925781 0-25.515625-3.128906-36.410156-9.042968-19.25-10.457032-32.601563-29.71875-36.621094-52.839844v.019531c-.003906 0-.019531-.027343-.027344-.054687l-.8125-1.878906 1.042969-1.757813c2.054688-3.449219 4.363281-6.960937 6.859375-10.4375 6.65625-9.253906 14.1875-17.882813 21.464844-26.226563 6.609375-7.578124 13.445312-15.417968 19.597656-23.679687 9.285156-12.460937 15.816406-24.761719 19.410156-36.558594l3.820313-12.539062 3.832031 12.535156c3.601563 11.796875 10.136719 24.097656 19.414063 36.5625 6.101562 8.183594 12.921874 16.015625 19.515624 23.589844l.082032.09375c7.277344 8.339843 14.804687 16.96875 21.460937 26.21875 3.972657 5.519531 7.464844 11.132812 10.375 16.691406l.90625 1.730469-.855469 1.886718c-5.984374 21.8125-22.613281 40.867188-43.414062 49.757813-9.089844 3.878906-19.339844 5.929687-29.640625 5.929687zm0 0" fill="#ffdac4"/><path d="m176.128906 312.042969c-3.890625 0-7.636718-1.90625-11.136718-3.859375-17.574219-9.808594-32.226563-19.992188-47.507813-33.019532l-2.703125-2.300781 1.964844-2.957031c5.847656-8.792969 9.1875-18.25 9.667968-27.355469l.34375-6.554687 5.667969 3.308594c.5625.332031 1.136719.648437 1.707031.957031 10.882813 5.914062 23.488282 9.039062 36.457032 9.039062 10.347656 0 20.597656-2.046875 29.644531-5.917969 3.667969-1.5625 7.273437-3.464843 10.722656-5.648437l6.492188-4.117187-.355469 7.679687c-.5 10.898437 2.113281 21.410156 7.566406 30.398437l1.914063 3.160157-3.15625 2.273437c-11.140625 10.367188-22.972657 20.277344-35.164063 29.449219-3.582031 2.6875-7.132812 5.121094-11.222656 5.429687-.296875.023438-.597656.035157-.902344.035157zm0 0" fill="#ffdac4"/><path d="m330.1875 394.117188c-2.710938-15.90625-7.421875-30.585938-13.871094-43.589844 8.96875-8.015625 14.703125-19.683594 15.472656-31.683594.820313-12.816406-4.023437-25.980469-12.957031-35.210938-2.335937-2.410156-4.882812-4.511718-7.34375-6.546874-2.328125-1.921876-4.53125-3.742188-6.511719-5.757813-2.503906-2.554687-6.636718-7.664063-6.191406-13.238281.105469-1.335938.480469-2.777344.875-4.300782.640625-2.476562 1.367188-5.28125 1.089844-8.332031-.613281-6.660156-5.371094-10.980469-9.570312-14.792969-2.203126-2-4.28125-3.886718-5.703126-5.964843-4.941406-7.210938-2.359374-17.972657.015626-25.441407l.644531-2.019531c2.957031-9.191406 6.308593-19.613281 3.050781-29.695312-2.839844-8.800781-9.683594-14.574219-16.304688-20.15625-4.539062-3.828125-8.824218-7.445313-11.765624-11.886719-5.734376-8.667969-5.957032-19.734375-6.195313-31.453125-.230469-11.347656-.476563-23.035156-5.996094-32.992187.238281-.164063.472657-.335938.703125-.523438 5.425782-4.480469 5.035156-12.507812 1.917969-17.785156-1.675781-2.835938-3.875-5.046875-6.402344-6.796875-.105469-.390625-.25-.777344-.476562-1.132813-17.570313-27.550781-52.792969-46.359375-83.753907-44.7187498-30.914062 1.6367188-61.308593 22.0664058-75.636718 50.8359378-.28125.566406-.402344 1.164062-.40625 1.757812-.601563.542969-1.167969 1.125-1.703125 1.757813-3.769531 4.46875-4.65625 10.121093-2.316407 14.75 1.125 2.226562 2.871094 3.917969 5.007813 5.015625 3.171875 16.140625-4.660156 36.117187-14.402344 47.96875-2.105469 2.558594-4.453125 4.945312-6.9375 7.472656-5.390625 5.484375-10.96875 11.15625-13.953125 18.75-4.320312 11.003906-1.921875 22.367188.402344 33.355469 1.742188 8.234375 3.382812 16.015625 2.371094 23.539062-1.050782 7.832031-4.945313 15.003907-9.066406 22.597657-4.417969 8.140624-8.988282 16.558593-10.054688 26.195312-.28125 2.515625-.308594 5.015625-.332031 7.433594-.050781 4.382812-.09375 8.527344-1.625 12.015625-1.332031 3.023437-3.808594 5.609375-6.429688 8.347656-1.601562 1.667969-3.253906 3.398437-4.742187 5.320313-5.835938 7.539062-8.421875 17.660156-6.925782 27.070312 1.265626 7.941406 5.460938 15.453125 11.472657 20.824219-.542969.613281-1.085938 1.230469-1.613281 1.863281-16.203126 19.386719-23.890626 46.425781-23.511719 82.65625.113281 10.734375.84375 21.589844 1.550781 32.089844 1.15625 17.226562 2.355469 35.035156.785156 52.339844-.101562 1.101562.257813 2.199218.988282 3.03125.734374.832031 1.777343 1.324218 2.886718 1.363281 68.140625 2.363281 136.933594 3.550781 205.5 3.550781 32.148438 0 64.253906-.261719 96.210938-.785156 4.335937-.070313 10.886718-.179688 15.546875-4.464844 4.683593-4.308594 5.316406-10.863281 5.734375-15.199219 2.75-28.496093 6.179687-63.960937.472656-97.433593zm-83.328125-289.90625c.25 12.347656.511719 25.117187 7.535156 35.738281 3.578125 5.40625 8.515625 9.574219 13.292969 13.601562 6.015625 5.074219 11.695312 9.867188 13.828125 16.46875 2.460937 7.613281-.34375 16.324219-3.050781 24.75l-.65625 2.046875c-2.886719 9.078125-5.917969 22.320313 1.019531 32.441406 1.957031 2.855469 4.484375 5.152344 6.929687 7.375 3.5625 3.234376 6.640626 6.027344 6.964844 9.5625.152344 1.648438-.34375 3.554688-.863281 5.570313-.464844 1.792969-.945313 3.648437-1.109375 5.683594-.515625 6.492187 2.492188 13.425781 8.476562 19.523437 2.277344 2.320313 4.742188 4.359375 7.128907 6.332032 2.398437 1.980468 4.664062 3.851562 6.6875 5.941406 7.378906 7.621094 11.378906 18.492187 10.703125 29.082031-.59375 9.269531-4.773438 18.296875-11.371094 24.84375-7.914062-13.726563-17.921875-25.269531-29.679688-34.003906-6.710937-4.980469-14.03125-9.09375-21.109374-13.066407-8.796876-4.941406-17.109376-9.609374-24.414063-15.828124-12.101563-10.296876-18.148437-27.886719-15.402344-44.808594.042969-.257813.054688-.511719.046875-.765625 10.1875-8.597657 18.207032-19.675781 23.105469-32.152344 4.015625 10.460937 5.71875 20.578125 5.039063 30.257813-.15625 2.222656 1.515624 4.148437 3.738281 4.304687.097656.007813.191406.011719.285156.011719 2.097656 0 3.867187-1.625 4.019531-3.75 1.386719-19.714844-5.847656-40.738282-21.496094-62.480469-6.710937-9.328125-14.328124-18.070313-21.695312-26.523437-6.574219-7.542969-13.375-15.34375-19.402344-23.4375-13.933594-18.699219-21.292968-36.566407-21.929687-53.183594 7.589843.035156 15.171875.261718 22.726562.730468 12.855469.796876 25.792969 2.242188 38.457031 4.292969 1.703126.277344 3.910157.632813 6.253907.605469 5.476562 8.46875 5.710937 19.347656 5.941406 30.835938zm-76.808594 231.191406c2.246094-.941406 4.960938-1.558594 7.8125-1.558594 4.691407 0 9.765625 1.679688 13.746094 6.359375 5.054687 5.941406 5.800781 15.445313 1.738281 22.105469s-12.859375 10.34375-20.453125 8.566406c-7.597656-1.777344-13.84375-8.976562-14.535156-16.746094-.871094-9.832031 5.46875-16.117187 11.691406-18.726562zm-.164062-10.671875c-4.421875-.667969-8.996094-2.382813-14.828125-5.554688-11.25-6.125-21.535156-14.460937-31.484375-22.523437-4.695313-3.808594-9.53125-7.707032-14.488281-11.417969.417968-.402344.839843-.800781 1.25-1.214844 1.746093-1.753906 3.390624-3.5625 4.925781-5.410156 15.320312 13.019531 30.132812 23.292969 47.746093 33.117187 3.996094 2.226563 8.28125 4.378907 13.113282 4.378907.402344 0 .808594-.015625 1.21875-.046875 5.191406-.394532 9.441406-3.296875 13.351562-6.234375 12.195313-9.171875 24.046875-19.09375 35.238282-29.484375 1.828124 2.183594 3.835937 4.21875 6.015624 6.074218.667969.570313 1.355469 1.113282 2.042969 1.660157-6.476562 4.324219-12.289062 9.480469-17.910156 14.488281-3.949219 3.519531-8.03125 7.15625-12.230469 10.378906-8.390625 6.445313-21.101562 13.726563-33.960937 11.789063zm28.757812-85.082031c-19.734375 8.421874-43.710937 7.289062-62.566406-2.949219-18.171875-9.867188-30.777344-28.09375-34.59375-50.007813-.058594-.335937-.167969-.644531-.300781-.945312 2.007812-3.355469 4.21875-6.734375 6.675781-10.148438 6.492187-9.019531 13.984375-17.617187 21.230469-25.929687 6.675781-7.660157 13.578125-15.578125 19.792968-23.921875 9.617188-12.90625 16.292969-25.539063 20.03125-37.78125 3.734376 12.242187 10.414063 24.875 20.027344 37.78125 6.214844 8.339844 13.117188 16.261718 19.792969 23.917968 7.246094 8.316407 14.738281 16.914063 21.230469 25.933594 3.941406 5.476563 7.289062 10.882813 10.078125 16.210938-.09375.199218-.179688.402344-.238281.617187-5.652344 20.703125-21.421876 38.796875-41.160157 47.222657zm-66.417969 4.136718c11.632813 6.316406 25.007813 9.515625 38.367188 9.515625 10.726562 0 21.441406-2.066406 31.214844-6.238281 3.9375-1.679688 7.707031-3.679688 11.285156-5.953125-.535156 11.714844 2.363281 23.132813 8.140625 32.664063-.140625.097656-.285156.191406-.414063.3125-11.097656 10.328124-22.863281 20.183593-34.976562 29.292968-3.078125 2.316406-6.089844 4.410156-9.113281 4.640625-3.09375.234375-6.402344-1.441406-9.792969-3.332031-17.292969-9.644531-31.808594-19.734375-46.859375-32.566406 6.226563-9.371094 9.808594-19.480469 10.324219-29.363282.605468.351563 1.210937.691407 1.824218 1.027344zm112.269532-179.472656c-1.757813 1.453125-5.183594 1.042969-8.542969.5-12.925781-2.09375-26.128906-3.566406-39.246094-4.382812-23.332031-1.449219-46.945312-.855469-70.183593 1.761718-5.1875.582032-10.421876 1.585938-15.480469 2.550782-6.1875 1.183593-12.582031 2.40625-18.6875 2.804687-2.0625.132813-3.59375-.570313-4.304688-1.980469-.671875-1.332031-.6875-3.582031 1.28125-5.917968 2.652344-3.148438 7.363281-4.539063 11.960938-5.691407 25.214843-6.335937 51.199219-9.511719 77.644531-9.511719 14.789062 0 29.722656.992188 44.75 2.980469 8.238281 1.089844 17.164062 3.0625 20.917969 9.417969 1.414062 2.398438 1.707031 5.96875-.109375 7.46875zm-83.15625-56.160156c24.441406-1.296875 52.871094 12.210937 70.136718 32.414062-2.246093-.476562-4.511718-.839844-6.734374-1.132812-42.910157-5.679688-85.105469-3.421875-125.417969 6.699218-.785157.199219-1.585938.410157-2.390625.632813 14.277344-22.101563 39.160156-37.28125 64.40625-38.613281zm-139.210938 304.863281c-1.15625-7.257813.839844-15.058594 5.335938-20.867187 1.230468-1.589844 2.667968-3.089844 4.1875-4.679688 2.992187-3.125 6.089844-6.355469 7.988281-10.683594 2.195313-4.996094 2.25-10.167968 2.304687-15.171875.027344-2.324219.050782-4.515625.285157-6.632812.894531-8.066407 4.894531-15.433594 9.128906-23.238281 4.289063-7.898438 8.722656-16.066407 9.972656-25.367188 1.199219-8.902344-.667969-17.738281-2.476562-26.28125-2.171875-10.277344-4.222657-19.984375-.785157-28.738281 2.382813-6.0625 7.152344-10.914063 12.199219-16.046875 2.5-2.542969 5.082031-5.171875 7.414063-8.003906 10.125-12.3125 19.015625-33.101563 16.546875-51.820313 6.160156-.503906 12.335937-1.679687 18.328125-2.824219 4.910156-.9375 9.984375-1.910156 14.863281-2.460937 12.234375-1.375 24.574219-2.160157 36.917969-2.390625-.652344 16.597656-8.007813 34.445312-21.925782 53.121094-6.027343 8.09375-12.828124 15.894531-19.40625 23.4375-7.367187 8.453124-14.984374 17.195312-21.695312 26.519531-15.648438 21.746093-22.878906 42.769531-21.492188 62.484375.148438 2.125 1.917969 3.75 4.019532 3.75.09375 0 .1875-.003906.285156-.011719 2.222656-.15625 3.894531-2.082031 3.738281-4.304687-.808593-11.523438 1.753907-23.667969 7.59375-36.277344 4.625 16.546875 14 30.746094 26.832031 40.738281 1.089844 13.722656-5.335937 28.675781-17.671874 41.0625-10.566407 10.613281-24.0625 18.441406-37.117188 26.015625l-2.914062 1.691406c-11.984376 6.96875-23.558594 14.070313-33.332032 23.285156-4.789062-4.152343-8.132812-10.054687-9.125-16.304687zm48.273438 189.226563-3.941406-57.621094c-1.023438-14.980469-1.351563-28.242188 5-38.792969 5.019531-8.335937 14.339843-14.648437 26.242187-17.773437 24.320313-6.378907 52.160156 2.964843 67.707031 22.726562.699219.890625 1.742188 1.445312 2.875 1.523438 1.140625.085937 2.242188-.3125 3.066406-1.09375 14.347657-13.621094 36.238282-15.464844 55.757813-15.476563 7.832031.023437 16.03125.1875 23.660156 2.507813 7.925781 2.414062 14.042969 6.933593 17.214844 12.726562 4.246094 7.753906 3.335937 18.027344 2.601563 26.28125l-5.894532 66.445312c-64.601562.574219-129.613281.089844-194.289062-1.453124zm251.285156-11.464844c-.398438 4.121094-.9375 7.988281-3.167969 10.039062-2.214843 2.039063-6.097656 2.269532-10.21875 2.335938-11.816406.195312-23.65625.347656-35.507812.46875l5.828125-65.65625c.828125-9.34375 1.859375-20.96875-3.566406-30.871094-4.191407-7.652344-11.980469-13.535156-21.9375-16.5625-8.6875-2.648438-17.601563-2.832031-26.011719-2.859375-18.621094.007813-41.675781 1.78125-58.078125 14.878906-17.867188-19.972656-47.40625-29.105469-73.371094-22.296875-13.945312 3.660156-24.992188 11.265625-31.101562 21.414063-8.179688 13.585937-7.046876 30.171875-6.132813 43.503906l3.886719 56.867187c-17.0625-.429687-34.101563-.929687-51.097656-1.503906 1.101562-16.546875-.019532-33.207031-1.105469-49.363281-.695313-10.386719-1.417969-21.125-1.527344-31.632813-.363281-34.230468 6.714844-59.546874 21.632813-77.402343 10.167968-12.167969 23.980468-20.722657 38.433593-29.132813l2.90625-1.683594c10.691407-6.203124 21.667969-12.578124 31.394531-20.605468 5.289063 3.902344 10.503907 8.105468 15.554688 12.199218 10.230469 8.289063 20.804688 16.863282 32.707031 23.339844 3.792969 2.066406 7.160157 3.585938 10.355469 4.671875-7.78125 5.421875-12.085938 14.285157-11.230469 23.914063 1 11.265625 9.71875 21.3125 20.730469 23.886718 1.90625.445313 3.851562.660157 5.792969.660157 9.273437 0 18.507812-4.898438 23.375-12.878907 5.894531-9.65625 4.851562-22.914062-2.476563-31.527343-1.875-2.207031-4.027344-4.03125-6.371094-5.464844 5.726563-2.304687 11.554688-5.707031 17.378907-10.179687 4.429687-3.402344 8.625-7.140626 12.679687-10.753907 6-5.34375 11.664063-10.390625 18.089844-14.519531.460938-.296875.839844-.671875 1.136719-1.097656 5.519531 3.726562 11.304687 6.984375 16.96875 10.164062 6.859375 3.851563 13.953125 7.835938 20.25 12.515625 22.703125 16.855469 38.453125 45.203125 44.355469 79.828125 5.113281 30.027344 2.886718 59.671875-.554688 95.304688zm0 0"/></svg>