<svg height="511pt" viewBox="-86 0 511 511.99872" width="511pt" xmlns="http://www.w3.org/2000/svg"><g fill="#d8deec"><path d="m248.988281 507.800781.175781-4.160156c.78125-18.675781 1.667969-39.839844-3.210937-59.832031-5.363281-22-17.679687-39.628906-33.792969-48.375-5.042968-2.742188-10.632812-4.769532-16.035156-6.734375-11.011719-4.007813-21.40625-7.792969-27.898438-16.863281-5.316406-7.402344-6.476562-16.316407-7.699218-25.753907-.625-4.832031-1.265625-9.789062-2.539063-14.523437-4.089843-15.230469-15.578125-29.300782-31.523437-38.601563-14.089844-8.222656-26.679688-13.65625-38.496094-16.617187l-11.101562-2.777344 10.417968-4.742188c2.710938-1.234374 5.148438-2.410156 7.441406-3.59375l.984376-.507812 1.230468.078125c1.476563-.082031 3.003906-.125 4.558594-.125 10.003906 0 20.15625 1.707031 29.976562 3.359375 1.890626.320312 3.707032.625 5.5.921875 10.355469 1.675781 24.917969 6.039063 35.375 17.292969 5.421876 5.839844 9.34375 13.125 13.140626 20.167968 5.425781 10.058594 11.007812 20.40625 20.820312 26.191407 5.839844 3.4375 12.613281 4.878906 19.167969 6.269531 3.558593.753906 7.234375 1.53125 10.789062 2.648438 18.386719 5.765624 34.207031 21.042968 43.398438 41.914062 7.152343 16.230469 10.515625 34.996094 10.902343 60.84375.117188 7.796875-.023437 15.726562-.160156 23.394531l-.011718.523438c-.207032 11.578125-.421876 23.546875.234374 35.460937l.230469 4.226563zm0 0"/><path d="m158.53125 507.617188.886719-4.722657c3.652343-19.511719 6.539062-37.128906 4.890625-55.140625-2-21.761718-11.234375-40.34375-25.347656-50.980468-2.316407-1.75-4.855469-3.378907-7.101563-4.816407l-.085937-.058593c-6.359376-4.105469-12.9375-8.351563-16.097657-15.183594-2.953125-6.414063-2.3125-13.695313-1.320312-21.21875l.324219-2.484375c1.539062-11.714844 3.128906-23.824219.488281-35.402344-2.503907-10.984375-9.160157-22.25-17.804688-30.136719l4.144531-6.683594c7.914063 3.078126 16.300782 7.191407 24.925782 12.222657 15.925781 9.289062 27.402344 23.34375 31.496094 38.558593 1.277343 4.785157 1.914062 9.71875 2.527343 14.488282 1.175781 9.050781 2.394531 18.390625 7.71875 25.816406 6.507813 9.078125 17.394531 13.042969 27.921875 16.875l.144532.050781c5.367187 1.964844 10.914062 3.992188 15.878906 6.679688 16.097656 8.734375 28.40625 26.355469 33.773437 48.339843 4.878907 19.988282 4.019531 40.398438 3.191407 60.136719l-.164063 3.839844zm0 0"/><path d="m78.0625 507.449219.140625-4.125c0-.015625 0-.023438.003906-.023438 0 0 .007813.023438.011719.046875-1.664062-9.253906 2.339844-18.226562 6.207031-26.90625 4.070313-9.136718 7.902344-17.738281 6.191407-26.953125-.816407-4.367187-2.871094-8.375-4.859376-12.253906-1.40625-2.75-2.863281-5.597656-3.894531-8.613281-3.730469-10.964844-1.363281-22.828125.925781-34.300782l.441407-2.175781c3.210937-16.230469 6.453125-37.578125 2.953125-58.617187-3.167969-18.964844-11.765625-35.445313-24.207032-46.40625l-4.125-3.632813 4.726563-2.808593c2.519531-1.496094 5.207031-2.933594 8.226563-4.398438l1.035156-.503906 1.148437.125c20.941407 2.304687 37.863281 23.019531 42.121094 41.71875 2.648437 11.640625 1.039063 23.777344-.511719 35.515625l-.3125 2.359375c-.941406 7.234375-1.617187 14.835937 1.335938 21.25 3.179687 6.886718 9.503906 10.953125 16.203125 15.257812 2.6875 1.726563 4.914062 3.175782 7.085937 4.808594 14.101563 10.636719 23.332032 29.207031 25.332032 50.949219 1.796874 19.558593-1.898438 39.230469-5.160157 56.585937l-.613281 3.269532zm0 0"/></g><path d="m290.929688 507.890625-.214844-3.765625c-.683594-12.074219-.464844-24.195312-.253906-35.917969.15625-8.167969.285156-16.140625.167968-23.929687-.390625-25.871094-3.753906-44.644532-10.898437-60.867188-9.207031-20.890625-25.039063-36.179687-43.445313-41.945312-3.578125-1.121094-7.410156-1.933594-10.796875-2.652344-6.539062-1.386719-13.304687-2.816406-19.144531-6.269531-9.785156-5.757813-15.109375-15.621094-20.746094-26.066407l-.046875-.089843c-3.800781-7.054688-7.726562-14.347657-13.152343-20.1875-10.445313-11.25-25.027344-15.625-35.417969-17.3125l-1.363281-.226563c-1.359376-.226562-2.726563-.457031-4.097657-.6875-7.347656-1.242187-14.949219-2.523437-22.578125-3.074218l-9.882812-.714844 7.609375-6.347656c10.597656-8.835938 13.425781-24.304688 15.246093-38.109376l.851563-6.453124 5.371094 3.671874c3.230469 2.207032 6.65625 4.160157 10.183593 5.808594 9.476563 4.398438 20.214844 6.726563 31.050782 6.726563 12.902344 0 25.464844-3.226563 36.332031-9.320313.695313-.394531 1.394531-.808594 2.09375-1.230468l6.378906-3.835938-.316406 7.4375c-.648437 15.003906 5.832031 30.429688 16.507813 39.300781 7.875 6.542969 17.199218 11.242188 26.214843 15.785157l.195313.097656c5.984375 3.019531 12.175781 6.140625 17.898437 9.777344 27.957031 17.785156 48.511719 51.066406 56.390625 91.308593 7.117188 36.371094 4.222656 73.789063 1.421875 109.976563-.527343 7.003906-1.75 13.9375-7.035156 17.15625-3.003906 1.839844-6.5625 1.992187-10.898437 2.007812zm0 0" fill="#efb17c"/><path d="m169.394531 229.433594c-10.808593 0-21.542969-2.332032-31.046875-6.746094-5.441406-2.523438-10.632812-5.796875-15.433594-9.734375l-.167968-.136719s-.0625-.0625-.074219-.074218c-13.421875-11.121094-22.582031-26.441407-25.800781-43.144532-3.667969 2.574219-7.644532 3.886719-11.871094 3.886719-4.527344 0-9.144531-1.570313-12.992188-4.421875-5.8125-4.3125-11.332031-13.09375-7.765624-23.644531 2.835937-8.382813 11.453124-14.46875 20.484374-14.46875.875 0 1.75.058593 2.605469.175781-2.011719-9.695312-1.621093-20.042969-1.242187-30.050781l.070312-2.011719c.351563-9.453125 1.476563-18.398438 3.347656-26.59375 1.925782-8.453125 4.675782-16.402344 8.171876-23.621094 2.21875-4.570312 4.765624-8.898437 7.578124-12.863281 2.800782-3.949219 5.929688-7.617187 9.304688-10.894531 13.757812-13.363282 33.433594-21.03125 53.984375-21.03125 6.234375 0 12.484375.699218 18.578125 2.082031 25.167969 5.703125 44.375 21.875 52.695312 44.371094 3.726563 10.089843 4.988282 21.453125 5.960938 32.226562.554688 6.054688.875 12.699219 1.007812 20.917969.007813.730469.128907 2.082031.265626 3.644531l.03125.320313c.683593 7.683594.765624 11.429687.289062 13.371094l-.027344.101562h.878906c2.261719-1.734375 5.105469-2.644531 8.332032-2.644531.574218 0 1.160156.03125 1.734375.089843 5.191406.550782 9.980469 3.417969 12.503906 7.492188 4.636719 7.433594 3.277344 18.328125-3.234375 25.894531-6.902344 8.011719-17.175781 10.964844-24.582031 12.03125-2.667969 23.222657-16.957031 44.722657-37.3125 56.148438-10.867188 6.101562-23.410157 9.328125-36.273438 9.328125zm0 0" fill="#efb17c"/><path d="m28.863281 507.359375c-7.117187-.023437-13.886719-.398437-18.585937-4.671875-5.628906-5.128906-5.871094-13.640625-5.65625-21.214844.894531-31.023437 3.203125-62.363281 6.867187-93.15625 2.15625-18.148437 5.078125-39.128906 12.464844-58.503906 5.011719-13.105469 14.507813-31.410156 31.3125-44.207031l2.507813-1.910157 2.441406 1.992188c13.191406 10.75 22.632812 28.191406 25.898437 47.855469 3.507813 21.042969.265625 42.375-2.949219 58.613281l-.421874 2.105469c-2.304688 11.484375-4.691407 23.359375-.9375 34.375.988281 2.929687 2.429687 5.746093 3.820312 8.476562l.128906.25c1.964844 3.847657 3.996094 7.828125 4.796875 12.144531 1.707031 9.199219-2.308593 18.203126-6.191406 26.910157-3.804687 8.527343-7.738281 17.347656-6.28125 26.394531l.746094 4.644531zm0 0" fill="#efb17c"/><path d="m335.046875 378.019531c-8.089844-41.328125-29.296875-75.574219-58.1875-93.949219-5.941406-3.777343-12.269531-6.964843-18.386719-10.046874-9.242187-4.65625-17.972656-9.050782-25.511718-15.316407-11.140626-9.257812-17.195313-26.816406-14.394532-41.757812.050782-.273438.074219-.550781.066406-.820313 14.761719-12.140625 25-29.75 27.949219-48.660156 7.710938-1.515625 17.257813-4.992188 24.058594-12.886719 7.640625-8.875 9.160156-21.789062 3.605469-30.707031-3.179688-5.113281-9.128906-8.703125-15.523438-9.375-2.445312-.253906-4.832031-.074219-7.039062.507812-.085938-2.191406-.285156-4.792968-.5625-7.878906-.136719-1.507812-.261719-2.933594-.273438-3.539062-.128906-8.253906-.449218-15-1.015625-21.222656-1-11.050782-2.304687-22.722657-6.203125-33.265626-8.800781-23.804687-29.070312-40.910156-55.609375-46.925781-27.855469-6.3125-57.085937 1.347657-76.289062 19.996094-7.070313 6.863281-13.027344 15.242187-17.707031 24.898437-3.628907 7.492188-6.484376 15.734376-8.480469 24.5-1.925781 8.460938-3.085938 17.660157-3.441407 27.347657l-.070312 1.917969c-.328125 8.628906-.664062 17.503906.503906 26.148437-9.796875.898437-18.949218 7.703125-22.140625 17.128906-3.519531 10.394531.089844 21.46875 9.195313 28.214844 7.429687 5.5 16.566406 6.648437 24.523437 3.371094 4.046875 14.964843 12.71875 28.597656 24.371094 38.804687-1.957031 15.828125-4.371094 33.445313-16.269531 41.621094-6.855469 4.707031-14.433594 8.058594-22.460938 11.601562-7.585937 3.351563-15.429687 6.816407-22.589844 11.539063-.234374.152344-.449218.320313-.683593.476563-.851563.238281-1.632813.738281-2.191407 1.507812-.011718.019531-.019531.035156-.03125.050781-18.332031 13.316407-28.636718 32.753907-34.097656 47.0625-7.554687 19.796875-10.523437 41.078125-12.710937 59.476563-3.679688 30.925781-5.996094 62.390625-6.886719 93.515625-.175781 6.128906-.5 17.535156 6.972656 24.335937 6.261719 5.691406 15.320313 5.710938 21.316406 5.726563l285.667969.578125c.207031 0 .414063.003906.628907.003906 3.636718 0 8.390624-.128906 12.425781-2.597656 6.828125-4.179688 8.34375-12.230469 8.964843-20.308594 2.820313-36.472656 5.730469-74.183594-1.492187-111.074219zm-234.246094-209.179687c-.261719-1.351563-1.191406-2.476563-2.464843-2.984375-.484376-.191407-.988282-.285157-1.496094-.285157-.828125 0-1.652344.257813-2.347656.753907-7.289063 5.226562-15.164063 3.183593-20.101563-.472657-4.734375-3.511718-9.242187-10.628906-6.355469-19.152343 2.527344-7.46875 10.945313-12.675781 18.75-11.613281 1.304688.1875 2.605469-.285157 3.5-1.246094.890625-.960938 1.261719-2.296875.992188-3.578125-1.945313-9.203125-1.558594-19.328125-1.1875-29.121094l.070312-1.925781c.339844-9.183594 1.429688-17.882813 3.246094-25.851563 1.863281-8.167969 4.511719-15.832031 7.875-22.777343 4.269531-8.804688 9.675781-16.421876 16.066406-22.628907 17.265625-16.769531 43.664063-23.636719 68.890625-17.917969 23.832031 5.402344 41.992188 20.660157 49.828125 41.859376 3.558594 9.617187 4.785156 20.683593 5.738282 31.199218.542968 6.015625.855468 12.570313.980468 20.617188.015625.90625.144532 2.332031.304688 4.140625.253906 2.804687.910156 10.109375.402344 12.179687-1.089844 1.59375-.898438 3.789063.539062 5.171875 1.609375 1.542969 4.160156 1.492188 5.703125-.109375 0-.003906 0-.003906 0-.003906 2.605469-2.710938 6.226563-2.777344 8.148437-2.574219 3.976563.417969 7.621094 2.570313 9.519532 5.617188 3.675781 5.90625 2.441406 15.011719-2.871094 21.183593-6.09375 7.070313-15.390625 9.710938-22.121094 10.679688-1.816406.261719-3.226562 1.714844-3.433594 3.535156-2.496093 21.9375-16.007812 42.277344-35.265624 53.082032-19.25 10.808593-43.65625 11.742187-63.679688 2.445312-5.238281-2.433594-10.128906-5.546875-14.578125-9.207031-.050781-.046875-.105469-.089844-.164063-.132813-12.476562-10.324218-21.421874-24.941406-24.488281-40.882812zm185.835938 335.039062-33.476563-.070312c.800782-19.082032 1.640625-40.628906-3.316406-60.949219-5.636719-23.09375-18.675781-41.660156-35.777344-50.945313-5.273437-2.863281-11.019531-4.953124-16.578125-6.976562-10.40625-3.792969-20.238281-7.371094-26.007812-15.421875-4.734375-6.605469-5.832031-15.050781-6.992188-23.988281-.640625-4.949219-1.304687-10.066406-2.632812-15.007813-4.367188-16.242187-16.53125-31.191406-33.375-41.019531-14.363281-8.378906-27.398438-13.996094-39.542969-17.042969 2.554688-1.160156 5.101562-2.378906 7.621094-3.675781.15625.007812.304687.03125.460937.019531 11.0625-.652343 22.640625 1.296875 33.828125 3.179688 1.832032.308593 3.65625.617187 5.476563.914062 9.761719 1.589844 23.429687 5.664063 33.097656 16.074219 5.0625 5.445312 8.871094 12.511719 12.550781 19.34375 5.664063 10.507812 11.519532 21.375 22.308594 27.738281 6.398438 3.769531 13.496094 5.277344 20.363281 6.734375 3.644531.777344 7.085938 1.507813 10.421875 2.550782 17.289063 5.417968 32.214844 19.894531 40.945313 39.714843 6.917969 15.710938 10.175781 33.996094 10.558593 59.289063.117188 7.90625-.03125 15.980468-.171874 23.789062-.210938 11.707032-.421876 23.777344.238281 35.75zm-204.441407-.417968c.015626-.296876.003907-.597657-.050781-.902344-1.4375-7.964844 2.140625-15.988282 5.929688-24.488282 4.136719-9.273437 8.414062-18.863281 6.472656-29.308593-.914063-4.925781-3.105469-9.210938-5.226563-13.355469-1.414062-2.765625-2.753906-5.378906-3.671874-8.078125-3.390626-9.957031-1.121094-21.300781 1.078124-32.269531l.421876-2.113282c3.285156-16.574218 6.589843-38.378906 2.976562-60.074218-3.308594-19.882813-12.496094-37.292969-25.507812-48.75 2.566406-1.527344 5.214843-2.917969 7.9375-4.242188 19.171874 2.113282 34.695312 21.253906 38.652343 38.632813 2.484375 10.90625.929688 22.695312-.574219 34.09375l-.3125 2.375c-1.019531 7.8125-1.730468 16.0625 1.671876 23.433593 3.660156 7.9375 10.78125 12.519532 17.667968 16.953126 2.429688 1.5625 4.722656 3.035156 6.855469 4.644531 13.191406 9.953125 21.847656 27.488281 23.742187 48.113281 1.699219 18.515625-1.691406 37.289062-5.113281 55.484375zm86.089844-56.074219c-2.101562-22.882813-11.910156-42.496094-26.917968-53.8125-2.367188-1.789063-4.898438-3.414063-7.34375-4.988281-6.191407-3.980469-12.035157-7.742188-14.710938-13.546876-2.503906-5.425781-1.902344-12.09375-.996094-19.015624l.308594-2.363282c1.597656-12.101562 3.25-24.621094.445312-36.9375-2.570312-11.277344-9.332031-23.375-19.011718-32.199218 7.710937 2.992187 15.84375 6.976562 24.359375 11.941406 15.023437 8.765625 25.828125 21.941406 29.648437 36.148437 1.1875 4.417969 1.789063 9.050781 2.425782 13.953125 1.238281 9.535156 2.515624 19.390625 8.429687 27.644532 7.226563 10.078124 18.703125 14.257812 29.804687 18.300781 5.28125 1.925781 10.746094 3.914062 15.492188 6.492187 15.109375 8.195313 26.691406 24.878906 31.789062 45.765625 4.71875 19.332031 3.898438 39.503907 3.082032 59.023438l-81.746094-.167969c3.429688-18.28125 6.699219-37.132812 4.941406-56.238281zm-155.320312 52.339843c-4.371094-3.976562-4.53125-11.449218-4.339844-18.140624.882812-30.886719 3.179688-62.105469 6.832031-92.792969 2.128907-17.917969 5.011719-38.621094 12.238281-57.554688 4.929688-12.921875 14.0625-30.316406 29.996094-42.445312 12.476563 10.160156 21.335938 26.515625 24.480469 45.402343 3.398437 20.410157.21875 41.277344-2.9375 57.179688l-.417969 2.101562c-2.40625 12.015626-4.890625 24.4375-.800781 36.449219 1.105469 3.253907 2.640625 6.25 4.125 9.152344 1.941406 3.796875 3.777344 7.382813 4.476563 11.15625 1.484374 7.976563-2.105469 16.03125-5.90625 24.550781-4.046876 9.078125-8.21875 18.460938-6.582032 28.660156l-45.257812-.09375c-6.292969-.011718-12.246094-.296874-15.90625-3.625zm315.539062-11.253906c-.460937 5.945313-1.398437 11.761719-5.136718 14.050782-2.15625 1.320312-5.117188 1.40625-8.828126 1.410156l-19.824218-.039063c-.675782-11.832031-.46875-23.910156-.253906-35.617187.144531-7.875.292968-16.019532.171874-24.058594-.398437-26.425781-3.867187-45.675781-11.242187-62.417969-9.667969-21.949219-26.402344-38.042969-45.910156-44.15625-3.699219-1.160156-7.492188-1.964843-11.160157-2.742187-6.519531-1.386719-12.679687-2.695313-17.945312-5.796875-8.851562-5.222657-13.929688-14.640625-19.304688-24.617188-3.921874-7.277343-7.980468-14.804687-13.738281-21.007812-11.226562-12.082031-26.707031-16.753907-37.714843-18.542969-1.800782-.292969-3.613282-.601562-5.429688-.90625-7.527344-1.269531-15.21875-2.558594-22.960938-3.125 11.503907-9.589844 14.652344-25.492188 16.65625-40.660156 3.40625 2.328125 7 4.386718 10.75 6.128906 10.230469 4.75 21.484376 7.105469 32.738282 7.105469 13.324218 0 26.648437-3.300781 38.289062-9.832031.742188-.414063 1.472656-.847657 2.199219-1.289063-.6875 16.023437 6.183594 32.773437 17.945313 42.546875 8.246093 6.851562 17.800781 11.660156 27.039062 16.316406 5.945312 2.992188 12.089844 6.089844 17.6875 9.648438 27.035156 17.199218 46.9375 49.527344 54.601562 88.699218 7.011719 35.8125 4.144532 72.96875 1.371094 108.902344zm0 0"/></svg>