<svg height="512pt" viewBox="-90 0 512 512.00141" width="512pt" xmlns="http://www.w3.org/2000/svg"><path d="m124.875 506.03125-.382812-3.527344c-6.539063-60.109375-12.300782-121.882812-17.128907-183.609375l-.710937-9.050781 49.039062 38.253906c2.769532 2.15625 6.183594 4.8125 10.109375 5.28125.453125.046875.882813.070313 1.257813.070313 4.445312 0 8.730468-2.636719 11.855468-4.5625l46.792969-28.867188-21.085937 186.859375zm0 0" fill="#59bd8b"/><path d="m167.082031 353.386719c-.425781 0-.851562-.023438-1.265625-.070313-3.644531-.4375-6.722656-2.640625-10.085937-5.261718l-49.074219-38.289063-.136719-1.761719c-.9375-12.234375-1.765625-23.511718-2.542969-34.472656l-.757812-10.734375 7.585938 7.632813c16.144531 16.242187 32.976562 32.0625 50.03125 47.015624 2.050781 1.796876 5.847656 5.125 9.902343 5.125.484375 0 .980469-.046874 1.464844-.144531 2.8125-.570312 5.027344-2.808593 6.808594-4.601562l53.019531-53.789063-6.074219 53.75v3.773438l-2.878906.011718-44.160156 27.246094c-3.925781 2.410156-7.777344 4.570313-11.835938 4.570313zm0 0" fill="#cbe580"/><g fill="#644c4c"><path d="m248.953125 278.078125c-6.035156-3.992187-10.496094-7.210937-14.464844-10.433594-18.332031-14.890625-27.980469-33.886719-25.808593-50.816406v.011719s0-.027344 0-.054688l-.15625-2.082031 1.617187-1.304687c14.171875-11.542969 24.429687-28.335938 28.144531-46.078126l.710938-3.394531 3.460937.222657c.523438.035156 1.042969.050781 1.5625.050781 2.207031 0 4.441407-.300781 6.640625-.890625l5.152344-1.386719-.113281 5.335937c-.769531 35.5625-.949219 71.710938-.542969 107.4375l.089844 7.542969zm0 0"/><path d="m233.171875 127.457031c-15.21875 0-27.785156-11.058593-33.921875-17.652343-11.335938-12.1875-19.929688-27.703126-26.269531-47.429688-2.539063-7.917969-4.773438-16.675781-6.832031-26.777344-.410157-2.019531-.683594-4.839844-.949219-7.570312-.636719-6.398438-1.351563-13.570313-3.773438-17.445313l-3.5-5.609375 6.589844-.5c3.164063-.242187 6.339844-.363281 9.429687-.363281 23.917969 0 44.503907 7.195313 57.96875 20.261719 14.382813 13.960937 19.875 33.109375 21.949219 46.71875 2.648438 17.410156 1.472657 35.273437.4375 51.035156l-.25 3.84375-3.851562-.105469c-.242188-.007812-.480469-.011719-.71875-.011719-2.691407 0-5.417969.40625-8.050781.796876-2.558594.382812-4.691407.683593-6.910157.78125-.449219.015624-.902343.027343-1.347656.027343zm0 0"/><path d="m66.222656 129.007812c-.925781-22.046874.855469-41.648437 5.148438-56.683593 7.570312-26.480469 21.316406-41.953125 31.519531-50.273438 13.09375-10.671875 29.015625-16.550781 44.839844-16.550781 3.179687 0 6.347656.246094 9.414062.726562l3.597657.570313-.230469 3.636719c-.21875 3.4375-.308594 6.761718-.394531 10.4375-.203126 8.289062-.398438 16.109375-2.300782 24.347656-2.707031 11.734375-7.15625 22.8125-13.226562 32.921875-13.078125 21.800781-33.367188 38.789063-57.128906 47.835937-.789063.300782-1.585938.597657-2.390626.890626l-.933593.34375c-3.832031 1.40625-8.164063 2.992187-11.964844 5.121093l-5.675781 3.175781zm0 0"/><path d="m70.300781 279.21875c-.558593-17.625-1.039062-35.566406-1.558593-55.503906l-.074219-2.675782c-.433594-16.292968-.882813-33.144531-1.386719-49.40625l-.179688-5.828124 5.5 1.933593c2.125.742188 4.339844 1.121094 6.585938 1.121094 1.746094 0 3.457031-.230469 5.089844-.691406l4.160156-1.164063.84375 4.234375c3.285156 16.5 12.9375 32.21875 26.484375 43.128907l1.289063 1.035156.179687 1.644531c2.074219 19.039063-.007813 32.40625-6.367187 40.867187-8.265626 10.980469-20.746094 17.980469-33.007813 23.910157-.582031.277343-7.285156 3.46875-7.285156 3.46875zm0 0"/></g><path d="m303.535156 507.929688-42.414062-.449219-.148438-3.804688c-1.3125-33.777343.976563-67.730469 6.808594-100.917969-5.867188 33.082032-8.164062 66.90625-6.886719 100.519532l.160157 4.195312-56.367188-.589844 27.210938-241.085937 5.613281 4.296875c6.277343 4.804688 13.03125 9.128906 19.5625 13.308594l-2.023438 3.453125 2.15625-3.367188c8.816407 5.644531 17.933594 11.476563 25.921875 18.5 22.035156 19.371094 37.203125 49.855469 42.703125 85.839844 4.960938 32.414063 2.273438 65.566406-.324219 97.625-.597656 7.457031-1.746093 15.734375-7.898437 19.8125-3.734375 2.464844-8.472656 2.671875-12.625 2.671875-.476563 0-.957031-.003906-1.449219-.007812zm0 0" fill="#3a6082"/><path d="m58.058594 505.332031-13.085938-116.214843 13.019532 116.210937-38.953126-.40625c-4.875-.050781-9.734374-.570313-12.289062-4.003906-1.648438-2.25-1.902344-5.148438-2.035156-8.171875-1.652344-36.761719-.175782-73.941406 4.386718-110.5 3.585938-28.660156 10.324219-60.582032 33.128907-80.066406 8.878906-7.589844 19.675781-12.710938 30.121093-17.664063 1.902344-.898437 3.722657-1.765625 5.542969-2.640625 5.71875-2.761719 13.132813-6.542969 19.703125-11.253906l5.816406-4.167969.507813 7.132813c.886719 12.472656 1.734375 23.929687 2.585937 35.027343l.042969.523438-.097656.515625.179687.507812.035157.554688c4.890625 63.671875 10.832031 127.882812 17.660156 190.84375l.484375 4.480468zm0 0" fill="#3a6082"/><path d="m161.96875 230.257812c-11.519531 0-22.890625-2.574218-32.882812-7.453124-21.726563-10.621094-37.636719-32.789063-40.535157-56.476563-2.789062 1.609375-6.019531 2.472656-9.394531 2.472656-5.167969 0-10.082031-1.996093-13.480469-5.476562-5.835937-5.980469-6.886719-15.824219-2.441406-22.902344 4.480469-7.125 13.214844-10.324219 20.917969-13.144531l.355468-.132813c.996094-.363281 1.980469-.726562 2.964844-1.105469 23.785156-9.046874 44.082032-26.042968 57.164063-47.863281 6.082031-10.128906 10.539062-21.210937 13.246093-32.941406.417969-1.84375.773438-3.75 1.078126-5.816406l7.871093-.253907c1.839844 8.601563 3.832031 16.203126 6.085938 23.238282 6.359375 19.753906 14.957031 35.273437 26.289062 47.445312 10.605469 11.394532 22.722657 17.671875 34.113281 17.671875.398438 0 .796876-.007812 1.191407-.023437 2.210937-.097656 4.441406-.414063 6.917969-.789063 2.652343-.390625 5.367187-.792969 8.003906-.792969 1.980468 0 3.730468.222657 5.351562.679688 4.367188 1.210938 8.097656 4.59375 10.222656 9.277344 2.339844 5.125 2.40625 11.226562.167969 15.914062-3.507812 7.386719-12.011719 12.351563-21.152343 12.351563-1.722657 0-3.433594-.179688-5.085938-.53125-3.820312 23.945312-19.183594 45.917969-40.132812 57.367187-11.128907 6.074219-23.867188 9.285156-36.835938 9.285156zm0 0" fill="#efb17c"/><path d="m170.734375 322.503906c-3.546875 0-6.835937-2.453125-9.859375-5.105468-18.09375-15.855469-35.945312-32.710938-53.066406-50.089844l-2.664063-2.707032 2.566407-2.804687c1.132812-1.234375 2.210937-2.53125 3.203124-3.851563 5.605469-7.453124 7.875-18.648437 6.945313-34.214843l-.453125-7.539063 6.488281 3.859375c1.769531 1.054688 3.457031 1.972657 5.164063 2.804688 9.980468 4.875 21.359375 7.453125 32.902344 7.453125 13.011718 0 25.761718-3.210938 36.871093-9.289063 1.078125-.582031 2.183594-1.226562 3.40625-1.980469l5.953125-3.679687.148438 6.996094c.203125 9.613281 3.808594 24.3125 19.820312 39.765625l2.90625 2.808594-52.078125 52.828124c-2.183593 2.210938-4.203125 4.082032-6.8125 4.605469-.453125.09375-.945312.140625-1.441406.140625zm0 0" fill="#efb17c"/><path d="m329.851562 387.214844c-5.648437-36.929688-21.289062-68.285156-44.042968-88.28125-8.238282-7.242188-17.515625-13.175782-26.484375-18.917969-.015625-.007813-.03125-.015625-.042969-.027344-.503906-38.296875-.324219-77.105469.53125-115.367187.007812-.328125-.035156-.644532-.101562-.953125 3.933593-2.511719 7.160156-5.972657 9.140624-10.144531 2.769532-5.828126 2.71875-13.0625-.140624-19.34375-2.234376-4.90625-5.957032-8.667969-10.429688-10.636719 1.140625-17.367188 2.300781-35.320313-.398438-53.066407-2.164062-14.214843-7.929687-34.261718-23.136718-49.019531-9.976563-9.683593-32.992188-25.238281-75.046875-20.621093-1 .109374-1.863281.589843-2.5 1.273437-19.285157-2.855469-40.347657 3.3125-56.875 16.789063-15.277344 12.464843-26.640625 30.550781-32.859375 52.308593-4.871094 17.042969-6.558594 38.445313-5.015625 63.613281-.964844 1.050782-1.859375 2.183594-2.648438 3.4375-5.421875 8.621094-4.144531 20.613282 2.964844 27.898438.09375.097656.195313.179688.289063.273438.605468 18.785156 1.121093 38.40625 1.625 57.398437.507812 19.332031 1.039062 39.328125 1.65625 58.429687.007812.203126.042968.394532.078124.589844-9.34375 4.480469-18.746093 9.34375-26.824218 16.246094-23.871094 20.398438-30.84375 53.226562-34.515625 82.648438-4.589844 36.765624-6.074219 74.175781-4.414063 111.191406.125 2.789062.3125 7.007812 2.820313 10.394531 4.101562 5.535156 11.523437 5.609375 15.511719 5.652344l284.507812 3.007812c.578125.007813 1.183594.011719 1.8125.011719 4.453125 0 9.957031-.320312 14.535156-3.347656 8.308594-5.503906 9.222656-16.785156 9.710938-22.847656 2.617187-32.300782 5.324218-65.703126.292968-98.589844zm-78.695312-112.476563c-4.867188-3.214843-9.679688-6.570312-14.152344-10.199219-17.25-14.015624-26.359375-31.664062-24.359375-47.203124.039063-.285157.042969-.5625.019531-.835938 14.824219-12.070312 25.589844-29.488281 29.539063-48.355469 3.230469.207031 6.445313-.148437 9.496094-.972656-.773438 35.691406-.949219 71.824219-.542969 107.566406zm-122.691406 227.335938c-6.601563-60.777344-12.332032-122.277344-17.117188-183.492188l41.882813 32.671875c2.972656 2.320313 7.046875 5.5 12.097656 6.09375.582031.066406 1.160156.101563 1.734375.101563 5.59375 0 10.578125-3.078125 13.984375-5.179688l39.765625-24.53125-19.761719 175.105469zm-6.613282-278.585938c1.773438 1.0625 3.589844 2.054688 5.445313 2.964844 10.746094 5.246094 22.683594 7.855469 34.664063 7.855469 13.417968 0 26.886718-3.273438 38.789062-9.773438 1.214844-.664062 2.414062-1.367187 3.589844-2.097656.210937 9.875 3.804687 25.933594 21.035156 42.558594l-49.242188 49.949218c-1.707031 1.734376-3.246093 3.195313-4.746093 3.5-2.332031.472657-5.289063-1.789062-7.878907-4.058593-18.136718-15.898438-35.898437-32.675781-52.847656-49.886719 1.207032-1.320312 2.359375-2.699219 3.449219-4.144531 6.183594-8.226563 8.730469-20.335938 7.742187-36.867188zm100.109376 94.074219c-.007813.003906-.015626.007812-.023438.011719l-45.125 27.835937c-3.851562 2.375-7.300781 4.304688-10.542969 3.929688-2.605469-.304688-5.09375-2.113282-8.082031-4.441406l-47.679688-37.195313c-.878906-11.5-1.726562-22.984375-2.539062-34.453125 16.164062 16.265625 33.027344 32.125 50.226562 47.199219 2.359376 2.070312 6.976563 6.121093 12.542969 6.121093.730469 0 1.480469-.070312 2.238281-.222656 4.042969-.8125 6.851563-3.660156 8.898438-5.742187l44.882812-45.527344zm39.609374-167.5c-3.460937 7.28125-13.03125 11.503906-21.789062 9.628906-1.082031-.230468-2.214844-.007812-3.125.617188-.914062.628906-1.53125 1.601562-1.703125 2.695312-3.589844 22.71875-18.175781 43.585938-38.066406 54.457032-20.273438 11.074218-45.582031 11.742187-66.050781 1.746093-20.535157-10.03125-35.578126-30.980469-38.3125-53.367187-.164063-1.351563-1.003907-2.53125-2.226563-3.128906-.5625-.277344-1.167969-.414063-1.777344-.414063-.714843 0-1.429687.191406-2.0625.570313-5.542969 3.304687-13.414062 2.273437-17.921875-2.339844-4.507812-4.617188-5.347656-12.515625-1.914062-17.976563 3.75-5.960937 11.457031-8.789062 18.90625-11.523437 1.136718-.414063 2.265625-.832032 3.378906-1.253906 24.609375-9.363282 45.625-26.960938 59.167969-49.542969 6.292969-10.488281 10.902343-21.964844 13.703125-34.097657.472656-2.058593.847656-4.101562 1.144531-6.128906 1.878906 8.773438 3.914063 16.527344 6.191406 23.613282 6.53125 20.320312 15.417969 36.335937 27.164063 48.953124 11.839844 12.71875 25.488281 19.421876 38.394531 18.917969 2.515625-.105469 4.976563-.46875 7.355469-.824219 4.195312-.621093 8.160156-1.210937 11.671875-.226562 3.238281.90625 6.035156 3.488281 7.671875 7.082031 1.859375 4.082031 1.933594 8.890625.199218 12.542969zm-32.441406-122.820312c13.59375 13.199218 18.804688 31.457031 20.78125 44.449218 2.507813 16.5 1.484375 33.59375.398438 50.175782-3.21875-.097657-6.378906.363281-9.464844.824218-2.269531.335938-4.414062.65625-6.5.738282-14.21875.609374-26.253906-10-32.167969-16.351563-10.921875-11.734375-19.226562-26.757813-25.386719-45.925781-2.492187-7.757813-4.691406-16.375-6.71875-26.355469-.359374-1.769531-.617187-4.386719-.890624-7.160156-.675782-6.839844-1.433594-14.480469-4.355469-19.171875 26.558593-2.027344 49.828125 4.722656 64.304687 18.777344zm-153.914062 46.183593c7.285156-25.480469 20.445312-40.316406 30.203125-48.277343 14.9375-12.183594 33.894531-17.6875 51.101562-14.96875-.226562 3.597656-.320312 7.152343-.402343 10.601562-.199219 8.070312-.386719 15.695312-2.199219 23.539062-2.609375 11.3125-6.902344 22-12.757813 31.765626-12.617187 21.039062-32.195312 37.429687-55.121094 46.152343-1.082031.414063-2.183593.816407-3.289062 1.222657-4.121094 1.511718-8.515625 3.125-12.535156 5.378906-.90625-21.644532.800781-40.714844 5-55.414063zm10.144531 98.597657c3.515625 17.625 13.730469 34.050781 27.894531 45.460937 1.960938 17.972656.132813 30.410156-5.589844 38.023437-7.742187 10.300782-19.734374 17.003907-31.542968 22.710938-.605469.292969-1.214844.578125-1.820313.871094-.578125-18.199219-1.078125-37.128906-1.5625-55.476563-.453125-17.210937-.925781-34.9375-1.457031-52.097656 4.5 1.578125 9.476562 1.792969 14.078125.507813zm-75.398437 326.503906c-.964844-1.300782-1.136719-3.46875-1.246094-5.953125-1.640625-36.5625-.171875-73.515625 4.359375-109.832031 3.480469-27.890626 9.976562-58.910157 31.753906-77.519532 8.492187-7.257812 19.074219-12.269531 29.304687-17.121094 1.835938-.871093 3.671876-1.738281 5.496094-2.621093 6.933594-3.351563 13.941406-7.054688 20.304688-11.609375.824218 11.664062 1.691406 23.347656 2.585937 35.046875-.132812.707031-.082031 1.433593.160157 2.109375 4.894531 63.671875 10.808593 127.707031 17.667968 190.964844l-58.710937-.621094-12.683594-112.699219c-.25-2.210937-2.246094-3.816406-4.457031-3.554687-2.210938.246093-3.804688 2.242187-3.554688 4.453124l12.570313 111.710938-34.433594-.363281c-3.84375-.039063-7.613281-.359375-9.117187-2.390625zm311.5625-13.371094c-.527344 6.5-1.480469 13.691406-6.128907 16.769531-2.921875 1.933594-7.082031 2.050781-11.8125 2l-38.609375-.40625c-1.300781-33.449219.960938-67.105469 6.746094-100.074219.386719-2.191406-1.082031-4.28125-3.273438-4.664062-2.1875-.378906-4.28125 1.078125-4.667968 3.269531-5.859375 33.398438-8.164063 67.492188-6.875 101.382813l-47.746094-.507813 25.917969-229.65625c6.433593 4.914063 13.265625 9.292969 19.902343 13.539063 8.71875 5.578125 17.734376 11.34375 25.511719 18.179687 21.332031 18.75 36.03125 48.382813 41.394531 83.445313 4.886719 31.957031 2.21875 64.882812-.359374 96.722656zm0 0"/></svg>