<svg height="511pt" viewBox="-78 0 511 511.99936" width="511pt" xmlns="http://www.w3.org/2000/svg"><path d="m270.777344 507.664062 1.457031-73.804687h-.027344l-1.488281 73.796875-195.339844-.820312-9.664062-70.03125 8.972656 65.457031.632812 4.566406-59.644531-.246094v-3.984375c0-12.5-.585937-25.601562-1.105469-37.160156-1.421874-31.722656-2.890624-64.441406 5.488282-94.964844l1.035156-3.761718 3.785156.9375c44.433594 10.984374 88.15625 25.847656 129.953125 44.167968l.582031.253906c9.410157 4.125 19.125 8.378907 29.171876 8.378907.953124 0 1.925781-.035157 2.890624-.109375 8.929688-.730469 17.132813-5.035156 25.070313-9.203125l1.960937-1.027344c36.296876-18.917969 75.273438-31.230469 115.863282-36.605469l3.457031-.457031 1.171875 4.273437c11.585938 45.054688 6.84375 91.644532 1.421875 127.203126l-.523437 3.410156zm0 0" fill="#ff8984"/><path d="m184.644531 420.390625c-10.097656 0-19.789062-4.253906-29.15625-8.367187l-.613281-.261719c-41.675781-18.265625-85.261719-33.089844-129.554688-44.070313l-4.214843-1.046875 1.390625-4.113281c.65625-1.945312 1.226562-3.542969 1.796875-5.019531 1.367187-3.582031 2.976562-7.269531 4.78125-10.945313l1.40625-2.859375 3.097656.730469c47.777344 11.222656 95.324219 25.640625 141.320313 42.855469 6.535156 2.449219 13.941406 5.226562 21.238281 5.226562 1.046875 0 2.109375-.0625 3.15625-.183593 5.628906-.648438 10.890625-3.117188 15.980469-5.507813l.589843-.273437c33.269531-15.597657 68.269531-27.929688 104.015625-36.648438l4.132813-3.601562 2.136719 5.042968c2.386718 5.546875 4.515624 11.300782 6.324218 17.101563l1.410156 4.519531-4.691406.636719c-40.195312 5.453125-78.789062 17.714843-114.707031 36.441406l-1.96875 1.035156c-7.929687 4.164063-16.132813 8.46875-25.066406 9.195313-.914063.074218-1.859375.113281-2.804688.113281zm0 0" fill="#ffb3b3"/><g fill="#fff"><path d="m241.238281 285.601562c-3.679687 0-7.265625-1.121093-10.089843-3.15625-4.824219-3.464843-7.238282-9.191406-6.460938-15.316406.8125-6.308594 4.722656-11.390625 10.464844-13.609375 1.273437-.480469 2.566406-.71875 3.871094-.71875 4.78125 0 8.726562 3.085938 10.65625 4.925781 5.644531 5.414063 8.285156 13.042969 6.425781 18.5625-1.050781 3.136719-3.671875 5.90625-7.195313 7.589844-2.328125 1.125-4.984375 1.722656-7.671875 1.722656zm0 0"/><path d="m214.722656 303.050781c-3.675781 0-7.257812-1.121093-10.089844-3.152343-4.828124-3.464844-7.242187-9.191407-6.464843-15.320313.808593-6.308594 4.726562-11.394531 10.480469-13.609375 1.242187-.476562 2.539062-.71875 3.855468-.71875 4.78125 0 8.726563 3.089844 10.652344 4.929688 5.648438 5.402343 8.289062 13.03125 6.429688 18.558593-1.050782 3.136719-3.675782 5.90625-7.195313 7.589844-2.328125 1.125-4.984375 1.722656-7.667969 1.722656zm0 0"/><path d="m183.515625 314.492188c-3.683594 0-7.269531-1.121094-10.097656-3.15625-4.835938-3.472657-7.25-9.203126-6.460938-15.328126.796875-6.289062 4.710938-11.371093 10.46875-13.589843 1.195313-.472657 2.503907-.71875 3.859375-.71875 4.777344 0 8.726563 3.085937 10.652344 4.925781 5.550781 5.304688 8.261719 13.105469 6.441406 18.550781-1.054687 3.136719-3.675781 5.902344-7.1875 7.597657-2.347656 1.125-5 1.71875-7.675781 1.71875zm0 0"/><path d="m149.582031 303.050781c-2.6875 0-5.34375-.597656-7.6875-1.730469-3.503906-1.675781-6.128906-4.445312-7.183593-7.589843-.382813-1.171875-.574219-2.425781-.574219-3.75 0-4.984375 2.683593-10.648438 7-14.789063 1.914062-1.839844 5.851562-4.941406 10.660156-4.941406 1.308594 0 2.601563.238281 3.84375.710938 5.765625 2.21875 9.679687 7.304687 10.492187 13.609374.789063 6.121094-1.625 11.851563-6.460937 15.328126-2.824219 2.03125-6.410156 3.152343-10.089844 3.152343zm0 0"/><path d="m123.066406 285.601562c-2.683594 0-5.339844-.597656-7.6875-1.730468-3.511718-1.679688-6.132812-4.445313-7.1875-7.589844-1.847656-5.53125.800782-13.15625 6.4375-18.554688 1.921875-1.839843 5.863282-4.929687 10.648438-4.929687 1.335937 0 2.636718.242187 3.871094.722656 5.75 2.214844 9.664062 7.304688 10.464843 13.605469.789063 6.113281-1.625 11.839844-6.453125 15.320312-2.832031 2.035157-6.417968 3.15625-10.09375 3.15625zm0 0"/></g><path d="m298.554688 307.695312c-11.71875-13.007812-25.042969-23.054687-39.601563-29.851562l-2.558594-1.195312.269531-2.808594c.503907-5.304688-2.222656-11.644532-6.941406-16.148438-3.324218-3.183594-7.144531-4.933594-10.761718-4.933594-1.328126 0-2.613282.234376-3.828126.703126-.339843.132812-.679687.269531-1.007812.429687l-2.921875 1.394531-1.96875-2.566406c-5.15625-6.707031-6.84375-15.871094-4.410156-23.910156l-.371094-2.402344 1.960937-1.4375c17.082032-12.480469 28.320313-33.007812 29.324219-53.5625l.226563-4.601562 4.523437.867187c1.210938.230469 2.46875.347656 3.730469.347656 5.164062 0 10.121094-1.917969 13.601562-5.265625 5.726563-5.5 7.480469-14.726562 4.175782-21.9375-2.550782-5.589844-8.070313-9.777344-14.40625-10.941406l-4.394532-.804688 1.289063-4.28125c.40625-1.359374.703125-2.933593.933594-4.949218 2.757812-24.058594-1.917969-47.09375-13.164063-64.871094-14.449218-22.828125-41.554687-38.773438-65.921875-38.773438-.433593 0-.863281.003907-1.296875.015626-26.402344.59375-52.507812 14.171874-69.832031 36.324218-16.964844 21.683594-23.910156 50.832032-18.585937 77.964844l.574218 2.929688-2.640625 1.382812c-5.558593 2.914062-10.738281 8.15625-13.203125 13.351562-3.292968 6.925782-2.394531 15.191407 2.230469 20.570313 2.921875 3.398437 7.441406 5.429687 12.097656 5.429687 1.316407 0 2.601563-.164062 3.824219-.488281l3.851562-1.019531 1.035157 3.847656c5.191406 19.292969 16.816406 36.183594 32.734375 47.566406l1.773437 1.265626-.105469 2.179687c2.296876 8.144531 1.496094 17.28125-2.21875 25.035156l-1.8125 3.785157-3.691406-1.992188c-.667968-.359375-1.28125-.644531-1.875-.867188-1.238281-.476562-2.527344-.714843-3.851562-.714843-3.613282 0-7.4375 1.75-10.761719 4.933593-5.066406 4.851563-7.796875 11.753907-6.792969 17.167969l.632813 3.394531-3.265625 1.117188c-17.175782 5.898438-33.429688 15.65625-47.003906 28.222656l-1.660157 1.539063-2.171875-.632813c-13.59375-3.945312-25.632812-13.226562-33.035156-25.472656l-3.21875-5.316406 6.175781-.722656c13.066407-1.53125 25.386719-6.621094 35.632813-14.726563-.285156-.003906-.570313-.007813-.855469-.007813-.644531 0-1.28125.011719-1.917969.011719-16.414062 0-32.910156-6.367187-45.257812-17.472656l-8.082032-7.265625 10.863282.292969c.863281.023437 1.71875.035156 2.558594.035156 6.285156 0 11.863281-.652344 17.050781-2 10.570312-2.75 19.195312-8.523437 24.28125-16.257813 4.886719-7.421874 7.003906-17.515624 6.121093-29.1875-.5-6.765624-1.890624-13.523437-3.238281-20.058593l-.058593-.300781c-.578126-2.773438-1.292969-6.242188-1.882813-9.53125-6.800781-38.410157.691406-77.140626 20.554687-106.265626 15.300782-22.4375 38.367188-39.144531 63.277344-45.832031 10.8125-2.894531 22.125-4.367187 33.628906-4.367187 14.109376 0 27.960938 2.183594 41.15625 6.488281 25.21875 8.234375 45.882813 23.347656 59.765626 43.710937 19.863281 29.125 27.355468 67.855469 20.554687 106.261719-.585937 3.292969-1.304687 6.761719-1.882813 9.542969l-.058593.292969c-1.34375 6.535156-2.734375 13.292969-3.238281 20.054687-.882813 11.675782 1.234374 21.769532 6.121093 29.191406 5.089844 7.730469 13.714844 13.503907 24.289063 16.257813 5.183594 1.34375 10.757812 1.996094 17.046875 1.996094.839843 0 1.691406-.011719 2.558593-.03125l10.859376-.292969-8.078126 7.265625c-12.351562 11.101563-28.835937 17.472656-45.230468 17.472656-.925782 0-1.851563-.019531-2.777344-.0625 10.21875 8.160157 22.542969 13.253907 35.609375 14.78125l6.167969.722657-3.210938 5.316406c-7.410156 12.273437-19.488281 21.570312-33.136718 25.507812l-2.785157 1.554688zm0 0" fill="#c67045"/><path d="m108.628906 134.332031c-3.460937 0-6.03125-.125-7.855468-.382812l-1.171876-.164063-.789062-.6875-1.714844-.855468-.457031-1.980469c-5.261719-27.019531 1.699219-56.066407 18.613281-77.695313 17.316406-22.132812 43.40625-35.699218 69.792969-36.296875.410156-.011719.84375-.019531 1.277344-.019531 24.347656 0 51.4375 15.9375 65.878906 38.761719 11.238281 17.769531 15.90625 40.789062 13.15625 64.820312-.425781 3.777344-1.273437 7.953125-4.324219 10.210938-2.378906 1.753906-5.414062 1.929687-8.847656 1.964843-2.167969.023438-4.339844.035157-6.511719.035157-11.367187 0-22.785156-.3125-32.859375-.585938l-.105468-.003906c-10.570313-.28125-21.5-.574219-32.429688-.574219-8.539062 0-16.175781.175782-23.351562.542969-.734376.035156-2.578126.191406-5.125.402344l-.378907.03125c-19.597656 1.644531-34 2.476562-42.796875 2.476562zm0 0" fill="#c67045"/><path d="m196.101562 392.453125c-7.269531 0-14.367187-2.664063-21.230468-5.238281-45.289063-16.949219-92.121094-31.195313-139.1875-42.34375l-5.226563-1.238282 2.683594-4.652343c16.113281-27.933594 42.742187-49.765625 73.058594-59.894531l2.527343-.84375 1.753907 2.007812c1.3125 1.507812 3 2.78125 4.878906 3.683594 2.359375 1.136718 5.027344 1.734375 7.714844 1.734375 1.976562 0 3.925781-.324219 5.800781-.964844l5.785156-1.976563-.507812 6.09375c-.152344 1.828126.019531 3.488282.503906 4.933594 1.058594 3.15625 3.691406 5.933594 7.222656 7.628906 2.359375 1.136719 5.023438 1.738282 7.707032 1.738282 3.683593 0 7.28125-1.125 10.128906-3.171875.257812-.1875.542968-.402344.8125-.636719l5.207031-4.472656 1.328125 6.734375c.777344 3.960937 3.023438 7.445312 6.316406 9.816406 2.855469 2.050781 6.449219 3.179687 10.117188 3.179687 2.675781 0 5.347656-.601562 7.726562-1.738281 3.519532-1.699219 6.152344-4.484375 7.210938-7.636719.21875-.644531.371094-1.34375.460937-2.078124l.78125-6.433594 5.398438 3.582031c2.777343 1.839844 6.203125 2.851563 9.640625 2.851563 2.691406 0 5.359375-.597657 7.714844-1.734376 3.535156-1.695312 6.164062-4.472656 7.222656-7.628906.488281-1.445312.660156-3.105468.507812-4.933594l-.507812-6.105468 5.792968 1.988281c1.859376.640625 3.808594.964844 5.789063.964844 2.683594 0 5.355469-.601563 7.71875-1.738281 2.269531-1.09375 4.203125-2.664063 5.582031-4.535157l1.953125-2.648437 2.976563 1.40625c26.234375 12.40625 48.75 35.851562 63.398437 66.007812l2.535157 5.21875-5.707032.507813c-35.664062 8.707031-70.59375 21.023437-103.855468 36.613281l-.621094.285156c-5.28125 2.480469-10.304688 4.84375-15.933594 5.484375-1.023438.125-2.097656.183594-3.179688.183594zm0 0" fill="#ffdac4"/><path d="m182.828125 238.582031c-12.363281 0-24.546875-2.847656-35.222656-8.230469-22.023438-11.105468-38.980469-33.492187-44.253907-58.425781-2.191406 1.40625-4.8125 2.160157-7.632812 2.160157-4.664062 0-9.1875-2.019532-12.09375-5.398438-4.535156-5.277344-5.449219-13.707031-2.222656-20.492188 2.832031-5.980468 9.167968-11.886718 15.410156-14.355468l1.148438-.453125 1.199218.269531c2.132813.480469 5.472656.714844 10.203125.714844 2.625 0 5.777344-.074219 9.632813-.230469 11.425781-.46875 24.886718-1.585937 32.117187-2.1875l.328125-.027344c2.914063-.246093 4.746094-.398437 5.46875-.4375 7.160156-.367187 14.773438-.542969 23.296875-.542969 10.832031 0 21.640625.285157 32.097657.5625l.503906.011719c10.164062.277344 21.683594.59375 33.234375.59375 2.046875 0 4.097656-.011719 6.148437-.03125 2.546875-.035156 6.003906-.082031 8.542969-1.753906l1-.65625h1.144531c.449219-.035156.90625-.054687 1.359375-.054687 7.402344 0 14.683594 4.613281 17.703125 11.222656 3.296875 7.191406 1.542969 16.394531-4.167968 21.878906-3.464844 3.328125-8.398438 5.242188-13.539063 5.242188-3.015625 0-5.949219-.679688-8.480469-1.960938.902344 24.867188-13.320312 50.125-35.433594 62.875-10.992187 6.347656-23.960937 9.707031-37.492187 9.707031zm0 0" fill="#ffdac4"/><path d="m191.582031 286.21875c-3.234375-2.945312-6.917969-4.5625-10.378906-4.5625-1.316406 0-2.597656.234375-3.800781.695312-1.792969.695313-3.441406 1.699219-4.890625 2.980469l-5.144531 4.535157-1.417969-6.710938c-1.191407-5.652344-5.027344-10.230469-10.261719-12.242188-1.210938-.46875-2.492188-.707031-3.8125-.707031-2.050781 0-4.144531.550781-6.230469 1.640625l-5.507812 2.871094-.335938-6.203125c-.023437-.421875-.050781-.910156-.113281-1.339844-.40625-3.171875-1.628906-6.105469-3.546875-8.542969l-1.636719-2.078124 1.277344-2.320313c3.4375-6.253906 4.921875-13.644531 4.1875-20.804687l-.777344-7.53125 6.660156 3.605468c.570313.308594 1.132813.609375 1.714844.902344 10.671875 5.375 22.859375 8.214844 35.257813 8.214844 12.515625 0 24.660156-2.894532 35.117187-8.363282l6.429688-3.363281-.589844 7.230469c-.535156 6.605469 1.410156 13.367188 5.332031 18.550781l2 2.640625-2.21875 2.457032c-2.339843 2.585937-3.816406 5.820312-4.273437 9.351562-.054688.449219-.085938.925781-.113282 1.394531l-.335937 6.195313-5.503906-2.863282c-2.09375-1.089843-4.191407-1.640624-6.238281-1.640624-1.324219 0-2.605469.234374-3.816407.703124-5.433593 2.089844-9.414062 7.070313-10.390625 13l-1.199218 7.257813zm0 0" fill="#ffdac4"/><path d="m356.851562 235.167969c-.78125-1.429688-2.34375-2.253907-3.960937-2.074219-11.5 1.21875-20.472656.847656-28.242187-1.167969-9.59375-2.492187-17.375-7.664062-21.917969-14.5625-5.542969-8.414062-6.035157-19.132812-5.46875-26.644531.496093-6.601562 1.824219-13.03125 3.230469-19.835938.652343-3.152343 1.324218-6.40625 1.902343-9.652343 6.988281-39.441407-.738281-79.269531-21.203125-109.269531-14.402344-21.113282-35.792968-36.773438-61.855468-45.277344-24.792969-8.089844-52.175782-8.859375-77.101563-2.175782-25.828125 6.925782-49.730469 24.222657-65.578125 47.453126-20.464844 30-28.191406 69.828124-21.199219 109.269531.574219 3.246093 1.246094 6.5 1.898438 9.652343 1.40625 6.804688 2.734375 13.234376 3.230469 19.835938.566406 7.507812.074218 18.230469-5.46875 26.644531-4.539063 6.898438-12.324219 12.070313-21.917969 14.5625-7.765625 2.019531-16.742188 2.390625-28.242188 1.167969-1.621093-.171875-3.179687.644531-3.960937 2.074219-.78125 1.425781-.628906 3.179687.386718 4.453125 11.246094 14.082031 28.097657 23.453125 45.910157 26.003906-8.964844 4.738281-18.992188 7.429688-29.148438 7.734375-1.347656.039063-2.589843.753906-3.304687 1.898437-.710938 1.148438-.804688 2.574219-.242188 3.804688 6.683594 14.644531 19.355469 26.3125 34.410156 31.9375-12.277343 12.9375-22.078124 28.238281-28.515624 45.070312-13.339844 34.882813-11.636719 72.84375-9.988282 109.554688.605469 13.488281 1.234375 27.433594 1.089844 40.945312-.011719 1.074219.40625 2.105469 1.160156 2.875.753906.761719 1.78125 1.195313 2.851563 1.199219l320.292969 1.355469h.015624c1.984376 0 3.675782-1.445312 3.984376-3.40625 5.832031-37.167969 10.996093-85.785156-.953126-132.257812-6.324218-24.582032-17.378906-46.722657-31.808593-64.722657 15.800781-5.359375 29.179687-17.355469 36.117187-32.554687.558594-1.226563.46875-2.65625-.246094-3.800782-.714843-1.148437-1.953124-1.859374-3.304687-1.902343-10.15625-.300781-20.1875-2.992188-29.148437-7.730469 17.8125-2.550781 34.664062-11.921875 45.910156-26.007812 1.015625-1.269532 1.167968-3.023438.386718-4.449219zm-249.390624 47.714843c1.640624 1.878907 3.730468 3.488282 6.164062 4.65625 2.972656 1.429688 6.21875 2.132813 9.445312 2.132813 2.417969 0 4.820313-.40625 7.09375-1.183594-.191406 2.292969.019532 4.519531.699219 6.542969 1.398438 4.167969 4.78125 7.796875 9.277344 9.960938 2.972656 1.429687 6.21875 2.132812 9.445313 2.132812 4.4375 0 8.839843-1.328125 12.453124-3.925781.378907-.269531.742188-.550781 1.097657-.84375.96875 4.921875 3.714843 9.277343 7.910156 12.289062 3.613281 2.597657 8.015625 3.925781 12.453125 3.925781 3.226562 0 6.472656-.703124 9.445312-2.132812 4.5-2.167969 7.882813-5.796875 9.28125-9.960938.308594-.921874.515626-1.886718.640626-2.878906 3.496093 2.324219 7.652343 3.527344 11.851562 3.527344 3.226562 0 6.472656-.703125 9.445312-2.132812 4.496094-2.164063 7.882813-5.792969 9.277344-9.960938.679688-2.023438.890625-4.246094.699219-6.542969 2.277344.777344 4.675781 1.1875 7.09375 1.1875 3.230469 0 6.472656-.703125 9.445313-2.132812 2.902343-1.398438 5.332031-3.410157 7.070312-5.777344 25.710938 12.167969 47.390625 35.054687 61.519531 64.140625-.117187.019531-.234375.019531-.351562.050781-35.988281 8.777344-71.242188 21.199219-104.785157 36.917969l-.585937.277344c-5.019531 2.351562-9.753906 4.574218-14.722656 5.152344-7.363281.855468-15.0625-2.03125-22.554688-4.832032-45.445312-17.015625-92.414062-31.300781-139.667969-42.496094 15.625-27.078124 41.019532-48.125 70.859376-58.09375zm10.945312-227.847656c16.582031-21.199218 41.523438-34.195312 66.726562-34.765625.398438-.011719.796876-.015625 1.195313-.015625 23.117187 0 48.660156 15.027344 62.492187 36.890625 10.75 16.992188 15.210938 39.09375 12.566407 62.234375-.335938 2.933594-.921875 6.113282-2.730469 7.449219-1.410156 1.046875-3.785156 1.15625-6.515625 1.1875-13.191406.144531-26.421875-.210937-39.214844-.550781-18.300781-.492188-37.222656-1-56.199219-.035156-.835937.042968-2.742187.203124-5.628906.445312-32.421875 2.710938-45.175781 2.761719-49.757812 2.109375-.238282-.191406-.5-.347656-.777344-.480469-5.050781-25.945312 1.542969-53.628906 17.84375-74.46875zm-20.125 82.519532c2.40625.542968 5.917969.816406 11.078125.816406 2.765625 0 6-.078125 9.792969-.234375 11.695312-.476563 25.308594-1.617188 32.621094-2.226563 2.601562-.21875 4.660156-.390625 5.363281-.425781 18.664062-.953125 37.425781-.449219 55.570312.039063 12.871094.34375 26.175781.699218 39.523438.554687 2.882812-.035156 7.167969-.085937 10.703125-2.410156.035156-.003907.070312.003906.105468 0 6.140626-.554688 12.703126 3.226562 15.269532 8.832031 2.5625 5.605469 1.144531 13.054688-3.300782 17.328125-4.445312 4.269531-11.941406 5.390625-17.441406 2.601563-1.273437-.644532-2.792968-.566407-3.996094.203124-1.203124.773438-1.910156 2.121094-1.855468 3.546876.886718 23.390624-12.53125 47.195312-33.390625 59.230468-20.28125 11.707032-47.335938 12.242188-68.917969 1.363282-20.957031-10.5625-37.105469-31.898438-42.140625-55.679688-.277344-1.304688-1.1875-2.390625-2.421875-2.894531-1.238281-.507813-2.644531-.367188-3.757812.375-4.160157 2.773437-10.902344 1.605469-14.425782-2.496094-3.535156-4.113281-4.210937-10.765625-1.644531-16.171875 2.445313-5.144531 8.039063-10.273438 13.265625-12.351562zm96.300781 166.355468c-.710937 2.113282-2.582031 4.03125-5.132812 5.257813-4.371094 2.101562-9.875 1.667969-13.699219-1.074219-3.621094-2.597656-5.425781-6.925781-4.828125-11.570312.617187-4.816407 3.585937-8.699219 7.941406-10.378907.816407-.3125 1.628907-.449219 2.421875-.449219 3.457032 0 6.554688 2.542969 7.894532 3.824219 4.414062 4.222657 6.738281 10.410157 5.402343 14.390625zm7.554688-18.832031c.621093-4.816406 3.589843-8.695313 7.945312-10.375.816407-.316406 1.628907-.449219 2.421875-.449219 3.457032 0 6.550782 2.539063 7.890625 3.820313 4.417969 4.222656 6.738281 10.410156 5.402344 14.390625-.707031 2.117187-2.578125 4.035156-5.128906 5.257812-4.371094 2.105469-9.878907 1.671875-13.699219-1.074218-3.621094-2.597657-5.425781-6.921876-4.832031-11.570313zm26.519531-17.449219c.617188-4.820312 3.585938-8.699218 7.941406-10.378906.816406-.316406 1.628906-.449219 2.425782-.449219 3.457031 0 6.550781 2.542969 7.886718 3.824219 4.417969 4.222656 6.738282 10.410156 5.402344 14.386719-.707031 2.117187-2.578125 4.035156-5.128906 5.261719-4.371094 2.101562-9.878906 1.671874-13.699219-1.074219-3.617187-2.601563-5.425781-6.925781-4.828125-11.570313zm-82.882812-33.652344c11.449218 5.769532 24.292968 8.640626 37.050781 8.640626 12.929687 0 25.769531-2.953126 36.96875-8.816407-.601563 7.511719 1.578125 15.28125 6.132812 21.285157-2.824219 3.125-4.703125 7.121093-5.269531 11.519531-.070312.566406-.113281 1.128906-.144531 1.691406-4.414063-2.296875-9.117188-2.742187-13.332031-1.121094-6.808594 2.628907-11.691407 8.746094-12.910157 16.078125-5.652343-5.148437-12.453125-6.886718-18.308593-4.632812-2.265626.875-4.320313 2.140625-6.097657 3.707031-1.460937-6.917969-6.214843-12.632813-12.738281-15.152344-4.214844-1.625-8.917969-1.175781-13.332031 1.121094-.03125-.5625-.074219-1.125-.144531-1.691406-.503907-3.90625-2.042969-7.496094-4.363282-10.441407 3.878906-7.0625 5.484375-15.183593 4.65625-23.140624.609375.324218 1.21875.644531 1.832032.953124zm-1.863282 44.097657c1.339844-1.28125 4.433594-3.820313 7.890625-3.820313.792969 0 1.609375.132813 2.421875.449219 4.355469 1.679687 7.328125 5.558594 7.945313 10.375.59375 4.648437-1.210938 8.972656-4.832031 11.570313-3.820313 2.746093-9.328126 3.179687-13.699219 1.074218-2.550781-1.222656-4.417969-3.140625-5.128907-5.257812-1.335937-3.980469.984376-10.167969 5.402344-14.390625zm-8.261718-10.445313c.597656 4.644532-1.210938 8.96875-4.828126 11.570313-3.824218 2.746093-9.328124 3.179687-13.703124 1.074219-2.546876-1.226563-4.417969-3.144532-5.128907-5.261719-1.335937-3.976563.988281-10.164063 5.402344-14.386719 1.648437-1.578125 5.953125-5.0625 10.316406-3.375 4.355469 1.679688 7.324219 5.558594 7.941407 10.378906zm193.003906 102.007813c-40.617188 5.515625-79.636719 17.898437-116.011719 36.863281l-1.988281 1.039062c-7.574219 3.976563-15.40625 8.085938-23.527344 8.75-10.09375.828126-20.242188-3.628906-30.0625-7.9375l-.597656-.261718c-41.941406-18.378906-85.722656-33.261719-130.179688-44.277344.550782-1.628906 1.121094-3.253906 1.738282-4.863281 1.386718-3.621094 2.941406-7.160157 4.648437-10.617188 47.625 11.183594 94.976563 25.542969 140.820313 42.707031 6.917968 2.589844 14.636718 5.480469 22.644531 5.480469 1.199219 0 2.40625-.066406 3.617187-.207031 6.273438-.726562 11.839844-3.335938 17.21875-5.859375l.585938-.277344c33.058594-15.492187 67.804687-27.734375 103.269531-36.386719.636719-.15625 1.183594-.460937 1.648437-.859374 2.316407 5.390624 4.382813 10.964843 6.175782 16.707031zm3.808594 134.285156-57.605469-.246094 1.382812-69.742187c.042969-2.222656-1.722656-4.0625-3.949219-4.109375-.027343 0-.054687 0-.082031 0-2.1875 0-3.984375 1.753906-4.027343 3.953125l-1.386719 69.867187-187.929688-.796875-9.1875-66.582031c-.304687-2.207031-2.332031-3.753906-4.546875-3.445313-2.203125.304688-3.746094 2.339844-3.441406 4.546876l9.03125 65.449218-51.039062-.21875c0-12.433594-.566407-25.074218-1.117188-37.335937-1.414062-31.425781-2.867188-63.792969 5.351562-93.726563 44.160157 10.914063 87.65625 25.6875 129.3125 43.945313l.597657.261719c9.785156 4.289062 19.875 8.714843 30.765625 8.714843 1.054687 0 2.121094-.042969 3.1875-.128906 9.761718-.796875 18.332031-5.296875 26.625-9.648437l1.964844-1.03125c35.894531-18.714844 74.417968-30.875 114.53125-36.179688.074218.292969.160156.582031.238281.878906 11.222656 43.640625 6.808593 89.648438 1.324219 125.574219zm-34.285157-245.714844c-1.734375-.074219-3.34375.980469-3.953125 2.621094-.609375 1.636719-.09375 3.480469 1.277344 4.566406 10.804688 8.550781 23.980469 13.964844 37.648438 15.5625-6.867188 11.359375-18.035157 20.042969-30.820313 23.730469-.285156.082031-.550781.195312-.796875.328125-11.890625-13.183594-25.726562-23.71875-40.882812-30.796875.609374-6.414062-2.457032-13.964844-8.160157-19.421875-5.746093-5.496094-12.773437-7.386719-18.789062-5.070313-.441407.171876-.875.355469-1.296875.554688-4.34375-5.660156-5.816406-13.480469-3.746094-20.3125.183594-.589844.207031-1.191406.117188-1.765625 18.089843-13.222656 29.894531-34.71875 30.964843-56.605469 7.355469 1.410156 15.4375-.746094 20.859375-5.957031 6.90625-6.636719 9.027344-17.78125 5.042969-26.496094-3.148437-6.871093-9.917969-11.847656-17.324219-13.207031.5625-1.859375.871094-3.792969 1.082032-5.644531 2.851562-24.960938-2.035157-48.917969-13.761719-67.457031-15.507813-24.515626-44.5625-41.238282-70.6875-40.628907-27.589844.625-54.839844 14.777344-72.890625 37.859375-17.761719 22.703125-24.925782 52.882813-19.359375 81.203125-6.207031 3.25-12.050781 9.035157-14.96875 15.179688-3.953125 8.328125-2.824219 18.328125 2.8125 24.886719 4.941406 5.75 13.054687 8.050781 19.980469 6.207031 5.441406 20.207031 17.746093 37.957031 34.269531 49.777343-.015625.414063.011719.839844.132812 1.261719 2.0625 7.273438 1.3125 15.40625-1.953125 22.242188-.757812-.410157-1.542968-.78125-2.363281-1.097657-6.015625-2.320312-13.042969-.425781-18.789063 5.070313-6.117187 5.851563-9.199218 14.109375-7.96875 20.796875-18.050781 6.199219-34.539062 16.21875-48.414062 29.066406-12.746094-3.703125-23.882812-12.371094-30.734375-23.703125 13.671875-1.597656 26.84375-7.011719 37.652344-15.5625 1.371093-1.085937 1.886719-2.929687 1.277343-4.566406-.613281-1.640625-2.214843-2.71875-3.957031-2.621094-16.410156.714844-32.957031-5.417969-45.15625-16.382812 7.8125.207031 14.550781-.492188 20.714844-2.097657 11.527344-2.992187 20.980469-9.363281 26.621094-17.929687 5.378906-8.164063 7.71875-19.121094 6.777343-31.683594-.535156-7.121093-1.980468-14.109375-3.378906-20.863281-.640625-3.09375-1.300781-6.296875-1.855468-9.425781-6.625-37.390625.632812-75.046875 19.921874-103.320313 14.777344-21.660156 37.015626-37.777344 61.007813-44.210937 23.433594-6.285157 49.183594-5.554688 72.507813 2.058593 24.355468 7.945313 44.308593 22.523438 57.699218 42.152344 19.285156 28.273438 26.546875 65.929688 19.921875 103.320313-.554687 3.128906-1.21875 6.332031-1.855469 9.425781-1.398437 6.753906-2.84375 13.742188-3.378906 20.863281-.945312 12.5625 1.398438 23.519531 6.777344 31.683594 5.640625 8.566406 15.09375 14.933594 26.621094 17.929687 6.164062 1.601563 12.894531 2.296876 20.714844 2.097657-12.203126 10.964843-28.746094 17.101562-45.160157 16.382812zm0 0"/></svg>