<svg height="512pt" viewBox="-90 0 512 512.00063" width="512pt" xmlns="http://www.w3.org/2000/svg"><path d="m165.554688 362.894531c-4.582032 0-9.003907-1.769531-12.136719-4.851562-2.890625-2.847657-4.46875-6.507813-4.332031-10.042969.234374-6.363281 5.171874-13.214844 11.742187-16.285156 1.515625-.703125 3.875-1.539063 6.5625-1.539063 2.75 0 5.34375.890625 7.5 2.570313 4.894531 3.796875 7.507813 9.925781 6.804687 15.992187-.65625 5.65625-4.035156 10.277344-9.269531 12.683594-2.085937.960937-4.464843 1.472656-6.871093 1.472656zm0 0" fill="#fff"/><path d="m62.222656 502.554688c.058594-55.773438-3.484375-112.058594-10.539062-167.289063l-.308594-2.402344 1.992188-1.386719c5.976562-4.160156 12.683593-7.761718 19.039062-11.089843l4.242188-2.222657 1.429687 4.570313c2.1875 6.980469 3.046875 14.300781 3.878906 21.378906l.035157.304688c.402343 3.421875.820312 6.957031 1.386718 10.402343 2.304688 14.097657 7.082032 23.835938 14.605469 29.78125 6.898437 5.449219 15.964844 7.4375 24.730469 8.773438 12.859375 1.960938 25.964844 2.953125 38.949218 2.953125 12.238282 0 24.597657-.882813 36.730469-2.628906 9.527344-1.367188 19.441407-3.414063 27.410157-9.082031 9.203124-6.542969 15.558593-17.613282 19.425781-33.847657 1.058593-4.4375 1.894531-8.933593 2.699219-13.28125 1.515624-8.058593 2.941406-15.660156 5.570312-23.128906l1.605469-4.5625 4.179687 2.433594c5.167969 3.011719 11.21875 6.628906 16.953125 10.667969l2.050781 1.445312-.410156 2.480469c-9.535156 57.234375-15.839844 115.628906-18.742187 173.5625l-.1875 3.785156-3.792969.015625c-62.804688.25-126.34375 1.046875-188.847656 2.367188l-4.089844.089843zm0 0" fill="#d34242"/><path d="m211.160156 65.667969c-9.609375-4.257813-19.683594-8.828125-29.941406-13.589844l-3.6875-1.710937 1.769531-3.65625c1.835938-3.804688 2.03125-7.820313.558594-11.617188l-1.277344-3.300781 3.121094-1.671875c10.351563-5.53125 21.1875-10.214844 32.203125-13.914063l5.074219-1.703125.195312 5.351563c.132813 3.589843.175781 7.25.125 10.871093l-.011719.707032-.253906.664062.222656.660156-.019531.71875c-.234375 9.8125-1.078125 19.609376-2.503906 29.125l-.777344 5.191407zm0 0" fill="#d34242"/><path d="m163.035156 57.039062c-2.089844 0-4.152344-.394531-6.132812-1.179687-4.367188-1.726563-7.976563-5.410156-9.902344-10.113281-1.890625-4.65625-1.898438-9.734375-.019531-13.945313 2.152343-4.847656 6.320312-7.886719 11.726562-8.5625.699219-.089843 1.464844-.140625 2.304688-.140625 6.210937 0 12.628906 3.042969 16.347656 7.75 5.355469 6.78125 3.578125 14.128906.128906 18.746094-3.417969 4.589844-8.957031 7.445312-14.453125 7.445312zm0 0" fill="#d34242"/><path d="m118.417969 66.15625c-.617188 0-1.207031-.097656-1.75-.292969-2.882813-1.066406-3.929688-4.375-4.578125-7.472656-2.535156-12.03125-4.035156-24.382813-4.464844-36.703125l-.191406-5.496094 5.289062 1.511719c10.789063 3.085937 21.292969 7.257813 31.222656 12.40625l2.769532 1.433594-.722656 3.039062c-.855469 3.617188-.519532 7.582031.949218 11.167969.253906.628906.566406 1.277344 1.027344 2.121094l1.980469 3.652344-26.183594 12.949218c-1.742187.871094-3.609375 1.683594-5.347656 1.683594zm0 0" fill="#d34242"/><path d="m93.453125 306.464844c-8.003906-2.308594-14.855469-8.179688-18.324219-15.699219-3.617187-7.867187-3.414062-17.546875.53125-25.265625-5.796875.835938-11.757812 1.75-17.730468 1.75-2.539063 0-4.867188-.160156-7.113282-.492188-9.148437-1.359374-16.84375-6.039062-20.578125-12.519531-3.746093-6.484375-3.9375-15.1875-.511719-23.289062 2.699219-6.375 7.390626-12.367188 14.761719-18.851563-15.617187-5.050781-27.289062-21.179687-27.15625-37.570312.121094-16.382813 12.035157-32.328125 27.707031-37.085938 1.203126-.363281 2.40625-.675781 3.683594-1.003906 4.921875-1.289062 9.953125-2.605469 12.835938-6.597656 3.082031-4.269532 2.527344-9.859375 1.992187-15.269532l-.140625-1.453124c-2.84375-30.472657 12.96875-61.679688 39.347656-77.667969l5.347657-3.242188.703125 6.214844c.757812 6.738281 1.839844 13.460937 3.214844 19.980469.621093 2.949218 1.703124 6.460937 4.613281 7.515625.550781.199219 1.144531.300781 1.753906.300781 1.972656 0 4.007813-1 5.355469-1.660156l23.792968-11.765625 2.398438-1.625 2.3125 1.953125c1.417969 1.195312 2.972656 2.136718 4.625 2.789062 1.953125.777344 4.015625 1.167969 6.136719 1.167969 4.539062 0 8.914062-1.765625 12.3125-4.96875l2.316406-2.183594s2.734375 1.824219 2.78125 1.851563c11.097656 5.164062 22.28125 10.230468 33.25 15.0625.289063.128906.785156.351562 1.269531.351562.203125 0 .378906-.042968.570313-.140625.515625-.261719.71875-.875.859375-1.710937 1.390625-8.574219 2.308594-17.40625 2.730468-26.25l.328126-6.78125 5.773437 3.570312c14.511719 8.972656 32.75 21.664063 45.066406 40.351563 13.683594 20.777343 16.308594 46.15625 6.6875 64.65625.957031-.050781 1.894531-.097657 2.832031-.097657 10.636719 0 21.148438 5.988282 26.785157 15.261719 5.898437 9.722657 6.414062 22.917969 1.328125 33.625-4.902344 10.292969-14.710938 18.386719-26.246094 21.652344 11.703125 6.226563 17.925781 21.484375 13.867188 34.078125-3.683594 11.441406-15.261719 19.746094-27.527344 19.746094-1.210938 0-2.425782-.085938-3.605469-.25 5.03125 7.433594 6.34375 17.269531 3.394531 25.722656-2.769531 7.9375-9.589844 10.003906-17.488281 12.394531l-1.492187.453125c-.046876.019532-.09375.050782-.140626.078125l-2.070312 1.242188-2.066406-1.253907c-3.65625-2.226562-6.582032-4.09375-9.207032-5.886718-16.253906-11.105469-26.359374-27.121094-28.457031-45.101563l-.28125-2.410156 2.007813-1.359375c17.207031-11.675781 28.640625-30.648438 30.585937-50.746094l.378907-3.925781 3.929687.324219c.886719.070312 1.785156.109375 2.671875.109375 8.367188 0 16.269531-3.316407 21.128906-8.871094 6.878906-7.859375 7.015625-20.816406.292969-27.722656-2.898437-2.980469-7.222656-4.6875-11.859375-4.6875-.980469 0-1.96875.078125-2.933594.234375-3.925781.632812-7.296875 2.480468-9.496094 5.207031l-2.160156 2.671875-2.96875-1.730469c-6.628906-3.867187-22.851562-15.324219-25.03125-17.175781-8.933594-7.648438-16.859375-16.433594-23.570312-26.121094-6.667969-9.59375-12.058594-19.945312-16.019532-30.773437-.210937-.59375-.441406-1.46875-.851562-3.097657-1.066406-4.210937-2.519531-9.96875-4.636719-10.050781l-.125-.003906c-3.273437 0-4.746093 7.984375-5.535156 12.273437-.335937 1.882813-.46875 2.316407-.523437 2.503907-4.167969 14.398437-11.546876 27.914062-21.328126 39.050781-14.941406 17.003906-35.410156 28.675781-57.632812 32.871094-.777344.144531-1.546875.289062-2.328125.421875-4.605469.820312-8.933594 1.59375-12.765625 3.894531-4.09375 2.457031-7.078125 6.808594-8.1875 11.945312-1.105469 5.132813-.183594 10.324219 2.535156 14.246094 2.714844 3.925782 7.25 6.613282 12.449219 7.382813.988281.144531 1.988281.222656 2.972656.222656 2.40625 0 4.710938-.429687 6.851563-1.269531l4.203125-1.648438 1.132812 4.371094c4.65625 18.007812 15.113281 34.175781 29.4375 45.523438l1.875 1.484374-.417969 2.351563c-.007812.039063-.015624.078125-.015624.117187 3.046874 18.300782-3.195313 37.960938-16.296876 51.226563-2.191406 2.222656-4.609374 4.320313-7.382812 6.421875l-1.597656 1.203125zm0 0" fill="#ffbf48"/><path d="m176.339844 29.589844c-3.832032-4.042969-9.707032-6.554688-15.332032-6.554688-.78125 0-1.558593.046875-2.3125.144532-4.203124.527343-7.660156 2.449218-9.996093 5.5625l-2.023438 2.699218-3.003906-1.542968c-4.664063-2.402344-9.527344-4.617188-14.457031-6.597657l-6.652344-2.664062 5.761719-4.261719c10.199219-7.550781 22.785156-11.914062 35.441406-12.285156.59375-.015625 1.191406-.023438 1.785156-.023438 12.375 0 24.371094 3.621094 34.691407 10.472656l6.234374 4.136719-6.902343 2.886719c-6.25 2.609375-12.453125 5.570312-18.433594 8.800781l-2.695313 1.453125zm0 0" fill="#ffbf48"/><g fill="#ffdac4"><path d="m259.21875 499.96875c2.84375-56.355469 8.90625-113.171875 18.015625-168.875l1.078125-6.582031 5.296875 4.050781c.203125.152344.390625.308594.582031.460938 21.5 18.277343 36.078125 47.320312 41.117188 81.839843 4.511718 30.886719 1.414062 63.460938-1.074219 89.636719l-.34375 3.628906-3.648437-.007812c-5.941407-.011719-11.890626-.019532-17.839844-.019532-13.042969 0-26.101563.027344-39.179688.070313l-4.21875.011719zm0 0"/><path d="m167.59375 261.003906c-13.015625 0-25.875-3.261718-37.195312-9.433594-21.363282-11.660156-36.960938-33.359374-41.722657-58.054687-3.027343 2.351563-6.941406 3.652344-11.066406 3.652344-.992187 0-1.996094-.074219-2.988281-.222657-5.175782-.761718-9.699219-3.441406-12.398438-7.355468-2.707031-3.914063-3.628906-9.089844-2.53125-14.191406 1.117188-5.125 4.085938-9.457032 8.152344-11.898438 3.84375-2.308594 8.386719-3.117188 12.777344-3.898438l2.347656-.417968c22.195312-4.195313 42.675781-15.882813 57.628906-32.894532 9.785156-11.140624 17.167969-24.667968 21.351563-39.113281.148437-.496093.300781-1.332031.507812-2.457031.300781-1.6875.785157-4.152344 1.367188-6.269531l3.695312-13.4375 3.996094 13.351562c.429687 1.4375.804687 2.914063 1.054687 3.890625l.058594.226563c.316406 1.273437.613282 2.449219.863282 3.132812 3.957031 10.804688 9.347656 21.160157 16.015624 30.777344 6.738282 9.707031 14.671876 18.492187 23.582032 26.109375 1.070312.917969 7.683594 5.714844 14.292968 10.214844 9.820313 6.703125 13.09375 8.386718 14.082032 8.585937.0625-.011719.125-.027343.191406-.039062.117188-.027344.152344-.070313.171875-.113281 1.921875-4 5.921875-6.773438 10.96875-7.585938.980469-.15625 1.980469-.238281 2.96875-.238281 4.59375 0 8.882813 1.703125 11.773437 4.667969 6.816407 7.007812 6.679688 19.664062-.292968 27.644531-4.925782 5.628906-12.582032 8.855469-21.011719 8.859375-2.273437 0-4.5625-.242188-6.804687-.722656-.757813 24.132812-16.050782 47.933593-38.089844 59.246093-10.179688 5.222657-21.851563 7.984375-33.746094 7.984375zm0 0"/><path d="m161.652344 396.261719c-12.976563 0-26.070313-.988281-38.921875-2.945313-8.78125-1.347656-17.84375-3.335937-24.707031-8.757812-7.507813-5.9375-12.277344-15.664063-14.589844-29.742188-.5625-3.484375-.984375-7.054687-1.390625-10.503906l-.023438-.203125c-.847656-7.230469-1.71875-14.691406-3.984375-21.777344l-.511718-.488281-.011719-1.730469v-2.398437l2.113281-1.128906c8.449219-4.523438 17.25-9.683594 24.359375-16.742188l2.296875-2.28125 2.710938 1.773438c14.695312 9.617187 30.144531 18.167968 45.917968 25.410156.9375.4375 1.863282.855468 2.796875 1.246094l6.992188 2.925781-6.363281 4.121093c-5.449219 3.527344-9.109376 9.402344-9.316407 14.960938-.136719 3.554688 1.453125 7.230469 4.355469 10.089844 3.144531 3.097656 7.582031 4.871094 12.175781 4.871094 2.414063 0 4.800781-.507813 6.898438-1.472657 5.257812-2.421875 8.652343-7.066406 9.308593-12.738281.699219-6.066406-1.902343-12.207031-6.789062-16.023438l-5.191406-4.054687 5.992187-2.738281c1.9375-.886719 3.808594-1.914063 5.5625-2.894532l46.941407-26.148437c.023437-.019531 2.472656-2.472656 2.472656-2.472656l3.253906 2.363281c.421875.308594.839844.617188 1.28125.914062 5.664062 3.871094 11.695312 7.410157 16.902344 10.425782l2.925781 1.691406-1.179687 3.164062c-2.996094 8.046876-4.621094 16.785157-6.058594 24.496094l-.0625.351563c-.796875 4.257812-1.621094 8.664062-2.636719 12.933593-3.867187 16.210938-10.210937 27.269532-19.402344 33.8125-7.949219 5.652344-17.863281 7.699219-27.386719 9.070313-12.132812 1.738281-24.488281 2.621094-36.730468 2.621094zm0 0"/><path d="m166.589844 328.109375c-3.96875-.039063-7.628906-1.566406-11.65625-3.414063-15.453125-7.105468-30.566406-15.441406-44.921875-24.773437l-3.625-2.355469 2.632812-3.433594c8.785157-11.433593 13.273438-26.214843 12.324219-40.546874l-.507812-7.644532 6.5625 3.953125c.960937.578125 1.960937 1.179688 2.949218 1.710938 11.316406 6.183593 24.1875 9.441406 37.246094 9.441406 11.875 0 23.507812-2.734375 33.644531-7.914063l.132813-.066406 4.914062-2.984375 1 5.785157c2.328125 13.464843 9.230469 25.734374 19.957032 35.480468l4.121093 3.746094-50.0625 27.890625c-4.097656 2.289063-9.179687 5.125-14.472656 5.125zm0 0"/><path d="m7.421875 504.222656c-2.578125-26.753906-5.785156-60.046875-.472656-91.597656 5.355469-31.765625 18.726562-57.730469 38.667969-75.082031l5.671874-4.9375.921876 7.460937c6.667968 53.839844 10.011718 108.570313 9.941406 162.667969l-.003906 3.910156-3.910157.085938c-18.375.398437-33.222656.75-46.730469 1.105469l-3.730468.101562zm0 0"/></g><path d="m329.328125 410.277344c-5.183594-35.492188-20.25-65.425782-42.429687-84.285156-9.246094-7.863282-19.792969-13.949219-29.992188-19.835938-.355469-.203125-.71875-.414062-1.074219-.621094 6.699219-2.253906 12.953125-5.433594 15.792969-13.570312 2.570312-7.359375 2.308594-15.640625-.527344-22.894532 12.660156-1.25 24.332032-10.121093 28.296875-22.417968 3.882813-12.039063-.140625-25.730469-9.269531-34.191406 9.394531-4.476563 17.140625-11.984376 21.445312-21.039063 5.753907-12.101563 5.171876-26.460937-1.519531-37.476563-5.832031-9.601562-16.109375-15.957031-26.886719-17.054687 7.0625-19.035156 3.59375-43.011719-9.503906-62.890625-12.996094-19.726562-32.503906-33.320312-50.304687-44.007812.042969-5.230469-.058594-10.460938-.359375-15.679688-.070313-1.238281-.707032-2.375-1.726563-3.082031-1.015625-.707031-2.304687-.90625-3.488281-.539063-3.847656 1.183594-7.660156 2.492188-11.4375 3.894532-.277344-.636719-.703125-1.21875-1.304688-1.660157-11.914062-8.75-26.613281-13.328125-41.398437-12.8984372-14.777344.4335942-29.1875 5.8632812-40.574219 15.2929682-.378906.316407-.671875.691407-.90625 1.09375-4.511718-1.539062-9.085937-2.902343-13.710937-4.0625-1.207031-.300781-2.492188-.027343-3.472657.742188-.980468.773438-1.546874 1.957031-1.539062 3.207031.042969 4.582031.25 9.167969.582031 13.746094-29.480469 15.992187-47.777343 49.980469-44.65625 83.429687l.148438 1.488282c.460937 4.65625.9375 9.46875-1.246094 12.492187-2.042969 2.824219-6.1875 3.902344-10.578125 5.042969-1.253906.328125-2.554688.664062-3.828125 1.050781-17.589844 5.347657-30.457031 22.566407-30.59375 40.953125-.121094 16.179688 9.628906 31.609375 23.90625 38.902344-5.265625 5.324219-8.871094 10.492188-11.1875 15.964844-3.917969 9.269531-3.644531 19.324218.734375 26.898437 4.421875 7.65625 12.988281 12.945313 23.5 14.503907 6.535156.972656 12.96875.511718 19.257812-.316407-1.851562 7.277344-1.207031 15.113281 1.964844 22.003907 3.109375 6.757812 8.492188 12.253906 15.039063 15.601562-4.578125 2.769531-9.421875 5.308594-14.394531 7.90625-7.171876 3.753906-14.589844 7.632812-21.375 12.410156-24.644532 17.347656-41.609376 47.027344-47.769532 83.570313-5.421875 32.175781-2.257812 64.828125.796875 96.410156.203125 2.070313 1.945313 3.640625 4.011719 3.640625h.109375c104.84375-2.792969 211.179687-4.082031 316.046875-3.808594h.011719c2.074219 0 3.8125-1.582031 4.011719-3.648437 2.949218-30.855469 6-62.757813 1.398437-94.265625zm-222.523437-107.59375c14.789062 9.679687 30.390624 18.328125 46.433593 25.699218.972657.449219 1.945313.882813 2.921875 1.292969-6.4375 4.167969-10.878906 11.25-11.140625 18.167969-.175781 4.675781 1.847657 9.449219 5.550781 13.09375 3.984376 3.921875 9.484376 6.019531 14.976563 6.019531 2.9375 0 5.871094-.597656 8.574219-1.839843 6.558594-3.015626 10.789062-8.816407 11.609375-15.914063.859375-7.441406-2.320313-14.960937-8.300781-19.636719 2.105468-.953125 4.0625-2.042968 5.847656-3.035156l47.003906-26.1875c.335938-.1875.621094-.425781.878906-.683594.625.449219 1.238282.910156 1.878906 1.347656 5.5625 3.804688 11.402344 7.25 17.144532 10.574219-3.0625 8.21875-4.6875 16.824219-6.242188 25.160157-.808594 4.324218-1.644531 8.792968-2.664062 13.085937-3.621094 15.222656-9.457032 25.519531-17.828125 31.476563-7.253907 5.160156-16.609375 7.074218-25.636719 8.371093-24.726562 3.554688-49.785156 3.445313-74.484375-.320312-8.222656-1.253907-16.683594-3.085938-22.824219-7.941407-6.691406-5.289062-10.984375-14.203124-13.117187-27.25-.566407-3.457031-.988281-7.050781-1.398438-10.53125-.910156-7.765624-1.851562-15.796874-4.46875-23.507812-.003906-.003906-.003906-.007812-.007812-.011719 8.972656-4.796875 17.882812-10.074219 25.292969-17.429687zm92.703124-53.226563c-20.539062 10.542969-46.289062 10.007813-67.199218-1.402343-20.320313-11.085938-35.164063-31.753907-39.703125-55.289063-.265625-1.386719-1.238281-2.527344-2.558594-3.019531-.457031-.167969-.929687-.25-1.398437-.25-.898438 0-1.785157.300781-2.507813.875-2.859375 2.269531-6.84375 3.222656-10.929687 2.621094-4.089844-.605469-7.621094-2.675782-9.703126-5.675782-2.078124-3.003906-2.773437-7.039062-1.902343-11.078125.871093-4.039062 3.167969-7.433593 6.300781-9.3125 3.207031-1.921875 7.195312-2.632812 11.417969-3.382812.785156-.140625 1.566406-.28125 2.34375-.425781 23.121093-4.371094 44.40625-16.511719 59.933593-34.1875 10.164063-11.566407 17.835938-25.621094 22.1875-40.640626.199219-.679687.367188-1.59375.601563-2.855468.214844-1.171875.691406-3.746094 1.292969-5.925782.4375 1.472657.828125 3.019532 1.066406 3.960938.375 1.488281.671875 2.660156.980469 3.507812 4.082031 11.144532 9.628906 21.808594 16.492187 31.695313 6.941406 10 15.105469 19.042969 24.261719 26.871094 1.28125 1.097656 8.097656 6.015625 14.644531 10.480469 14.335938 9.78125 15.542969 9.535156 17.363282 9.148437 1.289062-.269531 2.355468-1.101563 2.925781-2.273437 1.363281-2.824219 4.289062-4.785157 8.019531-5.390626 4.285156-.691406 8.59375.5625 11.234375 3.273438 5.328125 5.476562 5.125 15.859375-.441406 22.21875-5.359375 6.125-14.765625 8.824219-23.972657 6.859375-1.167968-.25-2.386718.035156-3.328124.769531-.941407.738282-1.503907 1.855469-1.539063 3.050782-.683594 22.695312-15.101563 45.109374-35.882813 55.777343zm-71.0625 5.675781c12.105469 6.605469 25.679688 9.921876 39.144532 9.921876 12.367187-.003907 24.648437-2.800782 35.601562-8.425782.050782-.023437.097656-.050781.148438-.078125 2.496094 14.398438 9.832031 27.425781 21.214844 37.753907l-45.199219 25.183593c-3.929688 2.1875-8.398438 4.691407-12.703125 4.625-3.214844-.03125-6.453125-1.402343-10.046875-3.058593-15.332031-7.042969-30.246094-15.277344-44.414063-24.480469 9.375-12.207031 14.15625-27.890625 13.144532-43.25 1.027343.621093 2.058593 1.234375 3.109374 1.808593zm34.074219 80.210938c2.148438-1.003906 6.296875-2.261719 9.917969.554688 3.800781 2.957031 5.824219 7.699218 5.285156 12.382812-.289062 2.488281-1.578125 7.03125-6.972656 9.511719-4.691406 2.160156-10.800781 1.0625-14.527344-2.601563-2.058594-2.027344-3.238281-4.660156-3.148437-7.042968.1875-4.875 4.246093-10.378907 9.445312-12.804688zm52.785157-304.675781c-.34375.890625-.347657 1.839843-.0625 2.707031-.226563 9.585938-1.039063 19.160156-2.457032 28.632812-9.980468-4.417968-20.011718-8.972656-29.878906-13.5625 2.316406-4.796874 2.546875-9.992187.691406-14.796874 10.121094-5.40625 20.710938-9.992188 31.589844-13.652344.121094 3.554687.160156 7.113281.117188 10.671875zm-64.601563 13.558593c-1.484375-3.636718-1.511719-7.570312-.074219-10.796874 2.003906-4.503907 5.765625-5.871094 8.570313-6.222657.597656-.074219 1.203125-.109375 1.816406-.109375 4.960937 0 10.1875 2.414063 13.203125 6.234375 4.960938 6.28125 1.304688 12.203125.066406 13.867188-3.109375 4.179687-9.414062 7.511719-15.914062 4.9375-3.363282-1.332031-6.160156-4.214844-7.667969-7.910157zm13.171875-36.140624c12.082031-.34375 24.101562 3.113281 34.152344 9.78125-6.40625 2.683593-12.679688 5.683593-18.789063 8.972656-5.257812-5.546875-13.464843-8.585938-21.042969-7.632813-5.328124.671875-9.707031 3.164063-12.695312 7.136719-4.820312-2.484375-9.761719-4.734375-14.792969-6.753906 9.578125-7.085938 21.234375-11.152344 33.167969-11.503906zm-21.769531 25.570312c-1.042969 4.386719-.679688 9.175781 1.132812 13.617188.351563.867187.769531 1.695312 1.21875 2.503906l-22.464843 11.113281c-.921876.457031-3.085938 1.523437-3.96875 1.207031-.429688-.15625-1.269532-.953125-2.023438-4.53125-2.492188-11.828125-3.964844-23.921875-4.382812-36.019531 10.53125 3.007813 20.761718 7.074219 30.488281 12.109375zm-63.339844 255.4375c-3.121094-6.785156-2.945313-15.125.457031-21.769531.6875-1.347657.566406-2.96875-.320312-4.199219-.886719-1.226562-2.382813-1.847656-3.878906-1.625-7.828126 1.203125-15.925782 2.445312-23.621094 1.296875-7.945313-1.179687-14.566406-5.128906-17.703125-10.5625-3.121094-5.398437-3.226563-12.769531-.285157-19.722656 2.449219-5.796875 6.808594-11.328125 13.71875-17.414063 1.089844-.957031 1.578126-2.429687 1.28125-3.847656-.296874-1.421875-1.332031-2.574219-2.714843-3.015625-14.003907-4.488281-24.480469-18.960937-24.371094-33.667969.113281-14.707031 10.808594-29.023437 24.878906-33.296875 1.113281-.339843 2.277344-.644531 3.511719-.964843 5.316406-1.382813 11.34375-2.949219 15.082031-8.128907 3.972657-5.496093 3.3125-12.140625 2.734375-18.003906l-.140625-1.445313c-2.71875-29.144531 12.507813-58.75 37.4375-73.859374.777344 6.839843 1.863281 13.644531 3.28125 20.363281.492188 2.324219 1.792969 8.5 7.164063 10.449219 1.054687.382812 2.101562.535156 3.113281.535156 2.941406 0 5.574219-1.300782 7.179687-2.09375l24.019532-11.886719c.03125-.015625.058594-.035156.089844-.054687 1.722656 1.457031 3.652343 2.632812 5.726562 3.453124 2.464844.976563 5.042969 1.445313 7.609375 1.445313 5.476563 0 10.898437-2.140625 15.0625-6.058594.179687.125.363281.242188.566406.339844 11.023438 5.132813 22.265625 10.226563 33.417969 15.144531.46875.203125 1.554688.683594 2.886719.683594.730469 0 1.535156-.144531 2.351562-.558594 2.472657-1.253906 2.886719-3.804687 3.023438-4.644531 1.433593-8.832031 2.355469-17.757813 2.78125-26.707031 15.902343 9.835937 32.628906 22.160156 43.824219 39.15625 12.898437 19.585937 15.445312 43.371094 6.488281 60.605468-.683594 1.316407-.589844 2.902344.242187 4.128907.835938 1.226562 2.277344 1.898437 3.75 1.742187 9.8125-1.019531 20.40625 4.417969 25.753906 13.222656 5.214844 8.585938 5.660157 20.296876 1.125 29.828126-4.402343 9.261718-13.265624 16.558593-23.714843 19.519531-1.585938.449219-2.738281 1.820312-2.910157 3.460937-.171874 1.640625.671876 3.21875 2.132813 3.988282 10.070313 5.296874 15.421875 18.417968 11.925781 29.246093-3.492187 10.832031-15.5 18.351563-26.769531 16.769531-1.582031-.21875-3.144531.507813-3.988281 1.867188-.839844 1.359375-.800782 3.085938.101562 4.402344 4.359375 6.355468 5.488282 14.820312 2.949219 22.097656-2 5.730469-6.710937 7.40625-14.867187 9.878906l-1.585938.480469c-.34375.105469-.652344.265625-.945312.445313-3.066407-1.855469-6.105469-3.765626-9.027344-5.761719-15.347656-10.484375-24.789063-25.453125-26.75-42.265625 18.113281-12.289063 30.253906-32.296875 32.324218-53.667969 10.507813.871094 20.804688-2.871094 27.136719-10.109375 8.316407-9.507812 8.386719-24.6875.152344-33.152344-4.445313-4.566406-11.457031-6.714844-18.300781-5.613281-4.964844.804687-9.160156 3.164063-11.964844 6.640625-6.414062-3.734375-22.484375-15.082031-24.457031-16.769531-8.636719-7.382813-16.332031-15.910157-22.878907-25.34375-6.472656-9.320313-11.703124-19.371094-15.546874-29.867188-.164063-.453125-.453126-1.597656-.734376-2.707031-1.597656-6.328125-3.25-12.871094-8.351562-13.0625-6.816406-.28125-8.59375 9.242188-9.753906 15.53125-.15625.835938-.328125 1.785156-.414063 2.082031-4.027343 13.886719-11.117187 26.875-20.503906 37.558594-14.347656 16.332031-34.011719 27.546875-55.371094 31.585937-.75.140626-1.503906.277344-2.261719.410157-4.753906.847656-9.671874 1.722656-14.152343 4.410156-5.039063 3.019531-8.695313 8.316406-10.035157 14.523437-1.335937 6.210938-.1875 12.542969 3.15625 17.371094s8.863282 8.128906 15.148438 9.058594c4.128906.613281 8.238281.152344 11.875-1.277344 4.894531 18.941406 15.914062 35.839844 30.828125 47.660156-.082031.445313-.105469.914063-.027344 1.390626 2.84375 17.144531-2.976562 35.476562-15.1875 47.839843-2.171875 2.199219-4.5 4.191407-6.949219 6.042969-6.839843-1.972656-12.832031-7.074219-15.804687-13.53125zm-4.503906 34.839844c2.046875 6.542968 2.871093 13.402344 3.71875 20.644531.421875 3.566406.851562 7.253906 1.449219 10.890625 2.472656 15.125 7.730468 25.679688 16.074218 32.273438 7.613282 6.019531 17.289063 8.164062 26.609375 9.585937 13.117188 2 26.328125 3 39.546875 3 12.457032 0 24.921875-.886719 37.300782-2.667969 10.03125-1.441406 20.511718-3.625 29.160156-9.78125 10.035156-7.140625 16.90625-18.976562 21-36.179687 1.066406-4.484375 1.917968-9.054688 2.742187-13.472657 1.476563-7.886718 2.886719-15.375 5.402344-22.539062 5.652344 3.292969 11.3125 6.714844 16.660156 10.488281-9.558593 57.386719-15.875 115.910157-18.789062 174.019531-62.898438.246094-126.066407 1.035157-188.921875 2.363282.0625-55.910156-3.488282-112.34375-10.5625-167.792969 5.804687-4.046875 12.269531-7.511719 18.609375-10.832031zm-63.371094 89.355468c5.179687-30.714843 18.324219-56.171874 37.355469-72.734374 6.640625 53.628906 9.972656 108.148437 9.910156 162.171874-15.609375.339844-31.203125.703126-46.753906 1.113282-2.882813-29.890625-5.542969-60.675782-.511719-90.550782zm309.359375 86.828126c-18.96875-.039063-37.992188-.011719-57.035156.046874 2.835937-56.230468 8.878906-112.84375 17.972656-168.425781.160156.132813.328125.261719.488281.394531 20.683594 17.59375 34.773438 45.757813 39.675781 79.3125 4.28125 29.316407 1.683594 59.4375-1.101562 88.671876zm0 0"/></svg>