<svg height="512pt" viewBox="-89 0 512 512.00015" width="512pt" xmlns="http://www.w3.org/2000/svg"><path d="m79.058594 502.574219c9.9375-60.941407 6.117187-124.503907-11.054688-183.8125l-.957031-3.308594 3.128906-1.4375c2.253907-1.039063 4.507813-2.054687 6.757813-3.058594l1.085937-.484375c4.902344-2.195312 8.8125-4.027344 12.296875-5.773437l4.496094-2.246094 17.671875 72.992187c1.828125 7.554688 4.105469 16.957032 10.414063 23.160157 6.878906 6.765625 17.066406 8.558593 27.050781 9.492187 5.488281.519532 10.335937.769532 14.835937.769532 14.765625 0 26.476563-2.804688 35.792969-8.578126 13.160156-8.148437 22.789063-22.980468 28.613281-44.09375 2.035156-7.363281 3.542969-14.996093 5-22.375l.089844-.46875c1.789062-9.136718 3.820312-19.503906 6.996094-29.152343l1.550781-4.710938 4.273437 2.511719c3.726563 2.1875 7.578126 4.300781 10.890626 6.105469 4.28125 2.34375 8.140624 4.46875 12.023437 6.804687l2.679687 1.609375-.914062 2.988281c-17.765625 58.058594-23.582031 120.636719-16.820312 180.972657l.492187 4.386719-177.160156 2.414062zm0 0" fill="#f0f2fa"/><path d="m86.03125 168.179688c-10.6875-6.976563-16.859375-14.15625-20.648438-24.003907-4.558593-11.871093-5.917968-24.695312-3.925781-37.078125 2.058594-12.800781 7.621094-24.859375 16.085938-34.871094 4.609375-5.457031 10.773437-8.824218 16.738281-12.078124 5.625-3.074219 11.417969-6.242188 16.035156-11.140626 4.230469-4.507812 7.335938-9.972656 10.34375-15.253906 3.152344-5.550781 6.132813-10.792968 10.398438-15.3125 6.625-7.019531 16.378906-11.84375 27.460937-13.582031 3.351563-.527344 6.921875-.796875 10.605469-.796875 6.246094 0 12.921875.734375 20.40625 2.246094 14.277344 2.882812 24.140625 7.414062 31.042969 14.261718 6.015625 5.960938 9.597656 13.441407 13.390625 21.359376 1.550781 3.246093 3.265625 6.851562 5.167968 10.226562 4.730469 8.402344 10.933594 15.988281 16.929688 23.320312 2.835938 3.464844 6.054688 7.394532 9.003906 11.320313 10.78125 14.414063 15.976563 27.316406 15.890625 39.449219-.128906 18.308594-14.453125 36.019531-32.605469 40.316406l-5.386718 1.273438.480468-5.515626c2.097657-24.214843 1.855469-45.675781-.742187-65.605468-1.199219-9.222656-3.027344-18.878906-8.246094-27.03125-5.304687-8.273438-13.777343-13.417969-22.101562-13.417969-.511719 0-1.023438.019531-1.527344.058594-7.640625.617187-14.695313 4.726562-21.515625 8.699219-4.832031 2.824218-9.832031 5.742187-15.050781 7.375-1.839844.574218-3.746094.867187-5.660157.867187-6.257812 0-11.898437-3.011719-17.867187-6.199219-3.777344-2.015625-7.683594-4.101562-11.699219-5.253906-2.511718-.71875-5.171875-1.082031-7.90625-1.082031-8.917968 0-17.980468 3.753906-24.863281 10.296875-9.90625 9.414062-13.902344 22.273437-15.507813 31.40625-2.035156 11.605468-1.550781 23.421875-.828124 35.515625.472656 7.8125 1.105468 17.0625 2.257812 26.390625l1.054688 8.546875zm0 0" fill="#644c4c"/><path d="m158.746094 219.308594c-1.335938 0-2.554688-.289063-3.621094-.863282-1.523438-.792968-2.730469-2.445312-3.101562-4.289062-.316407-1.445312-.019532-2.921875.832031-4-5.03125 3.167969-10.777344 5.320312-16.65625 6.175781-.753907.101563-1.625.210938-2.519531.210938-1 0-1.859376-.132813-2.640626-.402344-.648437-.222656-1.132812-.558594-1.339843-.699219l-3.042969-2.109375 1.863281-3.195312c.378907-.648438.964844-1.359375 1.835938-2.230469 5.15625-5.15625 11.023437-9.613281 17.4375-13.253906l.617187-.351563c4.46875-2.539062 10.023438-5.695312 15.253906-6.011719 1.097657-.0625 2.238282-.097656 3.394532-.097656 4.265625 0 8.730468.449219 12.914062 1.300782 11.710938 2.402343 22.265625 8.546874 29.734375 17.304687 1.5 1.753906 3.117188 4.066406 2.425781 6.472656-.726562 2.554688-3.746093 3.777344-6.160156 4.046875-.574218.0625-1.136718.09375-1.695312.09375-5.054688 0-9.921875-2.320312-13.027344-6.210937-.550781 4.242187-4.804688 7.8125-9.355469 7.8125-.164062 0-.332031-.003907-.5-.015625-4.441406-.289063-8.621093-3.800782-9.972656-8.351563-1.960937 2.421875-4.121094 5.183594-6.953125 6.945313-1.800781 1.109375-3.828125 1.71875-5.722656 1.71875zm0 0" fill="#644c4c"/><g fill="#ffdac4"><path d="m255.113281 501.273438c-6.820312-59.769532-1.261719-121.859376 16.074219-179.554688l1.59375-5.304688 4.875 3.417969c.585938.414063 1.179688.828125 1.753906 1.257813 21.773438 16.003906 37.691406 42.878906 44.804688 75.660156 6.398437 29.484375 5.558594 60.035156 4.738281 89.578125-.140625 5.355469-.550781 10.445313-3.953125 13.863281-3.476562 3.492188-8.917969 3.855469-14.1875 3.929688l-55.289062.746094zm0 0"/><path d="m240.21875 188.5c.84375-4.816406 1.566406-10.039062 2.273438-16.429688l.457031-4.457031 3.011719-.5c4.429687-.730469 8.753906-2.265625 12.855468-4.554687l4.289063-2.394532 1.476562 4.683594c1.929688 6.132813 1.140625 12.925782-2.121093 18.164063-3.773438 6.082031-10.9375 10.078125-18.25 10.179687l-4.828126.0625zm0 0"/><path d="m170.152344 258.992188c-8.542969 0-16.703125-1.605469-24.253906-4.773438-19.023438-7.976562-35.136719-25.988281-44.210938-49.414062-8.40625-21.722657-10.382812-44.9375-11.691406-66.855469-.734375-12.058594-1.222656-23.851563.820312-35.5 1.605469-9.121094 5.59375-21.964844 15.484375-31.367188 6.878907-6.546875 15.902344-10.300781 24.757813-10.300781 2.738281 0 5.414062.367188 7.949218 1.09375 3.980469 1.144531 7.707032 3.132812 11.65625 5.238281 5.75 3.0625 11.65625 6.210938 17.992188 6.210938 1.917969 0 3.757812-.28125 5.621094-.859375 5.117187-1.601563 10.09375-4.492188 14.90625-7.285156l.164062-.097657c6.800782-3.96875 13.839844-8.074219 21.488282-8.6875.523437-.042969 1.050781-.0625 1.578124-.0625 8.273438 0 16.699219 5.132813 21.992188 13.390625 5.191406 8.113282 7.027344 17.777344 8.238281 27.007813 2.933594 22.546875 2.859375 47.191406-.21875 75.347656-2.441406 22.320313-7.105469 47.570313-23.207031 65.578125-11.945312 13.359375-30.285156 21.335938-49.066406 21.335938zm-17.816406-43.597657c.558593 1.335938 1.566406 2.46875 2.761718 3.113281 1.070313.570313 2.304688.863282 3.660156.863282 1.933594 0 3.921876-.601563 5.753907-1.734375 1.136719-.710938 2.242187-1.625 3.363281-2.769531l3.0625-3.140626 2.84375 3.339844c2.003906 2.355469 4.769531 3.804688 7.585938 3.980469.183593.011719.363281.019531.546874.019531 2.835938 0 5.734376-1.417968 7.558594-3.703125l2.296875-2.875 3.054688 2.050781c2.8125 1.886719 6.175781 2.925782 9.472656 2.925782.5625 0 1.128906-.027344 1.679687-.089844 3.359376-.367188 5.761719-2.019531 6.277344-4.308594.601563-2.691406-1.726562-5.40625-2.492187-6.296875-7.488281-8.78125-18.058594-14.9375-29.769531-17.339843-4.195313-.855469-8.664063-1.308594-12.925782-1.308594-1.160156 0-2.304687.035156-3.40625.101562-5.246094.324219-10.808594 3.480469-15.28125 6.019532l-.585937.339843c-6.445313 3.652344-12.316407 8.113281-17.480469 13.277344-.824219.824219-2.539062 2.539063-2.480469 4.515625.050781 1.605469 1.355469 3.179688 3.179688 3.824219.777343.277343 1.652343.410156 2.664062.410156.730469 0 1.515625-.066406 2.539063-.214844 3.699218-.539062 7.339844-1.585937 10.820312-3.117187l3.726563-1.632813zm0 0"/><path d="m164.761719 408.808594c-4.460938 0-9.167969-.242188-14.804688-.765625-9.984375-.941407-20.160156-2.738281-27.007812-9.484375-5.839844-5.734375-8.078125-13.53125-10.398438-23.128906l-17.691406-73.046876 2.621094-1.488281c7.980469-4.542969 14.039062-9.207031 19.054687-14.6875 7.03125-7.667969 13.851563-20.664062 11.921875-34.140625l-1.273437-8.902344 7.464844 5.015626c3.628906 2.441406 7.40625 4.488281 11.226562 6.09375 7.507812 3.148437 15.644531 4.746093 24.183594 4.746093 13.105468 0 26.304687-3.910156 37.15625-11.015625l5.261718-3.445312.890626 6.226562c2.660156 18.644532 10.210937 34.113282 20.714843 42.441406 1.929688 1.527344 4.035157 3.050782 6.4375 4.660157l3.714844 2.480469-2.878906 3.417968c-3.203125 9.574219-5.179688 19.636719-7.097657 29.367188l-.113281.582031c-1.457031 7.40625-2.96875 15.066406-5.011719 22.453125-5.828124 21.09375-15.445312 35.917969-28.589843 44.054688-9.300781 5.765624-21.003907 8.566406-35.78125 8.566406zm0 0"/><path d="m85.292969 196.972656c-.492188 0-.984375-.011718-1.476563-.039062-2.976562-.148438-8.5625-1.007813-12.433594-5.089844-3.46875-3.683594-4.917968-9.535156-3.878906-15.660156.75-4.5 2.617188-8.664063 4.519532-12.496094l2.308593-4.636719 3.90625 3.40625c3.101563 2.707031 6.675781 5.238281 11.25 7.96875v.003907h3.5l.546875 3.355468c1.007813 6.199219 2.203125 11.835938 3.644532 17.230469l1.109374 4.144531-4.210937.816406c-2.394531.464844-5.554687.996094-8.785156.996094zm0 0"/><path d="m29.761719 507.929688c-8.003907 0-16.855469-.851563-21.835938-7.160157-4.164062-5.269531-4.097656-12.59375-3.671875-19.640625 1.496094-24.863281 3.863282-50.027344 7.035156-74.789062 3.257813-25.3125 8.335938-53.882813 27.492188-72.628906 5.964844-5.847657 13.332031-10.8125 23.894531-16.105469l4.3125-2.164063 1.324219 4.640625c17 59.421875 20.617188 123.015625 10.460938 183.90625l-.550782 3.296875-46.269531.625c-.722656.011719-1.457031.019532-2.191406.019532zm0 0"/></g><path d="m129.675781 219.96875c2.503907.882812 5.003907.6875 7.117188.378906 4.066406-.589844 8.074219-1.75 11.855469-3.410156.910156 2.175781 2.53125 4.007812 4.5625 5.09375 1.679687.898438 3.578124 1.34375 5.550781 1.34375 2.625 0 5.367187-.789062 7.855469-2.339844 1.558593-.96875 2.910156-2.136718 4.113281-3.371094 2.652343 3.097657 6.402343 5.128907 10.386719 5.378907 4.503906.28125 8.808593-1.835938 11.476562-5.179688 4.027344 2.695313 9.007812 4.019531 13.820312 3.488281 5.105469-.5625 8.835938-3.402343 9.738282-7.40625 1.046875-4.636718-2.261719-8.511718-3.351563-9.785156-8.066406-9.453125-19.433593-16.074218-32.007812-18.648437-5.6875-1.160157-11.859375-1.617188-17.382813-1.28125-6.164062.375-12.171875 3.789062-17 6.535156l-.625.351563c-6.722656 3.8125-12.878906 8.492187-18.292968 13.910156-1.128907 1.125-3.769532 3.765625-3.65625 7.460937.101562 3.277344 2.449218 6.285157 5.839843 7.480469zm3.515625-9.242188c4.90625-4.902343 10.480469-9.140624 16.574219-12.59375l.628906-.359374c4.101563-2.332032 9.210938-5.230469 13.507813-5.496094 4.835937-.292969 10.261718.109375 15.273437 1.136718 10.820313 2.214844 20.585938 7.890626 27.496094 15.980469 1.753906 2.054688 1.625 2.746094 1.617187 2.777344-.058593.261719-1.070312.976563-2.757812 1.164063-4.167969.449218-8.542969-1.363282-11.15625-4.640626-1.015625-1.273437-2.695312-1.808593-4.261719-1.363281-1.566406.449219-2.707031 1.796875-2.894531 3.414063-.273438 2.347656-2.976562 4.402344-5.59375 4.25-2.75-.175782-5.488281-2.535156-6.367188-5.496094-.429687-1.445312-1.628906-2.53125-3.109374-2.8125-1.480469-.277344-2.996094.285156-3.925782 1.472656-1.792968 2.285156-3.644531 4.648438-5.867187 6.027344-1.851563 1.15625-4 1.449219-5.335938.734375-.5-.269531-.941406-.90625-1.074219-1.550781-.070312-.328125-.046874-.621094.050782-.746094 1.21875-1.546875 1.140625-3.75-.183594-5.207031-.789062-.867188-1.878906-1.320313-2.984375-1.320313-.753906 0-1.511719.210938-2.183594.644532-4.507812 2.90625-9.703125 4.851562-15.011719 5.625-1.140624.164062-2.417968.296874-3.273437-.007813-.152344-.050781-.285156-.136719-.378906-.214844.136719-.230469.460937-.664062 1.210937-1.417969zm0 0"/><path d="m328.183594 395.890625c-7.324219-33.75-23.796875-61.484375-46.386719-78.089844-6.9375-5.101562-14.519531-9.246093-21.855469-13.25-8.347656-4.566406-16.238281-8.875-23.335937-14.503906-10.585938-8.398437-17.917969-24.914063-19.757813-44.339844 1.898438-1.671875 3.707032-3.449219 5.402344-5.34375 10.984375-12.289062 16.867188-27.609375 20.324219-43.144531.464843.027344.929687.042969 1.394531.042969 8.722656 0 17.320312-4.664063 21.945312-12.097657 4.382813-7.046874 4.953126-16.1875 1.722657-23.78125 10.417969-8.507812 17.289062-21.394531 17.386719-35.101562.09375-13.054688-5.371094-26.761719-16.707032-41.90625-2.9375-3.925781-6.070312-7.757812-9.105468-11.464844-6.164063-7.539062-11.988282-14.65625-16.535157-22.742187-1.785156-3.171875-3.425781-6.605469-5.015625-9.921875-3.78125-7.90625-7.691406-16.085938-14.21875-22.5625-9.84375-9.761719-23.609375-13.4375-33.109375-15.355469-12.34375-2.492187-22.957031-2.976563-32.445312-1.484375-11.957031 1.878906-22.535157 7.140625-29.785157 14.808594-4.582031 4.851562-7.832031 10.5625-10.976562 16.089844-3.027344 5.320312-5.886719 10.34375-9.773438 14.480468-4.175781 4.4375-9.441406 7.3125-15.015624 10.359375-6.296876 3.4375-12.808594 6.992188-17.902344 13.019531-8.941406 10.589844-14.816406 23.332032-16.988282 36.851563-2.101562 13.089844-.667968 26.636719 4.144532 39.171875 2.09375 5.449219 4.878906 9.957031 8.050781 13.769531-2.460937 4.796875-5.152344 10.1875-6.148437 16.117188-1.242188 7.386719.605468 14.53125 4.941406 19.117187 3.589844 3.792969 8.984375 6.054688 15.191406 6.367188.539062.027344 1.078125.039062 1.617188.039062 3.605468 0 7.113281-.574218 10.378906-1.226562.710937 2.167968 1.457031 4.324218 2.28125 6.457031 5.691406 14.699219 14.078125 27.367187 24.214844 36.960937-.152344.789063-.074219 1.628907.28125 2.414063 5.902343 13.007813-.195313 28.367187-8.855469 37.824219-9.503907 10.382812-22.46875 16.699218-37.195313 23.304687l-1.082031.488281c-13.847656 6.207032-28.167969 12.628907-39.328125 23.542969-20.089844 19.660157-25.335938 49.035157-28.675781 75.023438-3.1875 24.832031-5.566407 50.085937-7.0625 75.066406-.46875 7.832031-.507813 16.011719 4.539062 22.398437 6.296875 7.964844 17.355469 8.710938 24.691407 8.710938.921874 0 1.785156-.011719 2.574218-.023438l278.859375-3.792968c4.515625-.0625 12.070313-.164063 17.007813-5.117188 4.453125-4.460937 4.984375-10.660156 5.148437-16.628906.816407-29.796875 1.660157-60.613281-4.835937-90.546875zm-69.113282-214.988281c-3.09375 4.972656-9.035156 8.210937-14.910156 8.285156.984375-5.640625 1.710938-11.242188 2.304688-16.675781.054687-.488281.097656-.964844.148437-1.449219 5.011719-.835938 9.78125-2.570312 14.15625-5.007812 1.542969 4.882812.980469 10.535156-1.699219 14.847656zm-189.953124-38.164063c-4.304688-11.214843-5.589844-23.316406-3.714844-35.003906 1.941406-12.074219 7.195312-23.460937 15.191406-32.925781 4.121094-4.878906 9.699219-7.925782 15.605469-11.152344 5.882812-3.210938 11.96875-6.535156 17.023437-11.910156 4.546875-4.835938 7.78125-10.519532 10.910156-16.015625 3.039063-5.347657 5.914063-10.394531 9.828126-14.539063 6.03125-6.378906 14.972656-10.777344 25.179687-12.382812 8.519531-1.339844 18.203125-.878906 29.597656 1.421875 13.476563 2.71875 22.699219 6.90625 29.023438 13.175781 5.535156 5.492188 8.980469 12.691406 12.625 20.316406 1.644531 3.4375 3.34375 6.992188 5.257812 10.398438 4.894531 8.691406 11.214844 16.417968 17.324219 23.890625 2.980469 3.640625 6.058594 7.40625 8.890625 11.191406 10.242187 13.683594 15.179687 25.792969 15.101563 37.019531-.121094 16.796875-13.277344 32.601563-29.535157 36.449219 2.125-24.457031 1.871094-46.289063-.757812-66.464844-1.261719-9.691406-3.210938-19.871093-8.847657-28.671875-6.433593-10.046875-17.167968-16.003906-27.3125-15.191406-8.546874.6875-16.003906 5.03125-23.214843 9.230469-4.878907 2.84375-9.492188 5.527343-14.230469 7.011719-6.9375 2.164062-13.199219-1.171876-20.449219-5.039063-3.972656-2.121094-8.078125-4.3125-12.476562-5.574219-12.097657-3.476562-26.480469.511719-36.636719 10.164063-10.695312 10.164062-14.976562 23.886719-16.683594 33.609375-2.113281 12.03125-1.625 24.105468-.882812 36.445312.507812 8.476563 1.152344 17.476563 2.277344 26.644532-9.992188-6.535157-15.648438-13.125-19.09375-22.097657zm14.910156 50.207031c-2.386719-.121093-6.828125-.78125-9.738282-3.855468-2.605468-2.757813-3.671874-7.332032-2.84375-12.242188.652344-3.886718 2.320313-7.679687 4.160157-11.382812 3.839843 3.355468 7.914062 6.054687 11.835937 8.398437.648438.386719 1.359375.574219 2.0625.574219.027344 0 .054688-.003906.078125-.007812.960938 5.886718 2.179688 11.789062 3.734375 17.617187-3.105468.597656-6.238281 1.054687-9.289062.898437zm21.394531 10.410157c-8.191406-21.164063-10.144531-44.035157-11.441406-65.648438-.707031-11.84375-1.183594-23.398437.777343-34.570312 1.5-8.523438 5.195313-20.503907 14.300782-29.15625 6.222656-5.914063 14.320312-9.203125 21.996094-9.203125 2.347656 0 4.65625.308594 6.855468.941406 3.582032 1.03125 7.140625 2.929688 10.910156 4.9375 7.730469 4.125 16.492188 8.796875 26.652344 5.621094 5.601563-1.75 10.828125-4.792969 15.878906-7.738282 6.726563-3.917968 13.082032-7.617187 19.804688-8.15625 7.230469-.582031 15.027344 3.933594 19.878906 11.503907 4.78125 7.460937 6.496094 16.597656 7.640625 25.359375 2.890625 22.203125 2.816407 46.535156-.226562 74.390625-2.371094 21.695312-6.863281 46.1875-22.210938 63.351562-16.722656 18.707031-45.65625 25.238281-68.792969 15.539063-18.03125-7.5625-33.347656-24.753906-42.023437-47.171875zm14.066406 85.554687c8.535157-9.316406 14.914063-23.585937 12.925781-37.414062 3.8125 2.566406 7.792969 4.738281 11.910157 6.464844 8.148437 3.417968 16.933593 5.058593 25.738281 5.058593 13.859375 0 27.765625-4.085937 39.339844-11.671875 2.785156 19.472656 10.855468 36.023438 22.191406 45.015625 2.167969 1.722657 4.417969 3.320313 6.707031 4.84375-.324219.382813-.589843.828125-.757812 1.332031-3.285157 9.863282-5.300781 20.117188-7.25 30.03125-1.464844 7.460938-2.980469 15.175782-5.015625 22.546876-5.546875 20.09375-14.578125 34.128906-26.835938 41.722656-14.554687 9.015625-33.359375 8.59375-48.113281 7.214844-9.230469-.859376-18.597656-2.464844-24.574219-8.339844-5.082031-4.996094-7.148437-12.253906-9.320312-21.226563l-16.976563-70.113281c7.484375-4.269531 14.242188-9.140625 20.03125-15.464844zm-44.660156 214.421875-42.933594.582031c-7.839843.113282-16.5625-.230468-20.828125-5.625-3.289062-4.160156-3.195312-10.636718-2.820312-16.914062 1.488281-24.800781 3.847656-49.871094 7.015625-74.519531 3.164062-24.648438 8.070312-52.4375 26.316406-70.289063 6.523437-6.382812 14.507813-11.1875 22.894531-15.386718 16.832032 58.871093 20.421875 121.765624 10.355469 182.152343zm8.179687-.113281c10.042969-61.570312 6.1875-125.640625-11.160156-185.566406 2.238282-1.027344 4.484375-2.039063 6.714844-3.039063l1.085938-.484375c4.304687-1.933594 8.460937-3.847656 12.457031-5.847656l16.492187 68.105469c1.949219 8.050781 4.378906 18.074219 11.503906 25.078125 7.773438 7.640625 18.761719 9.621094 29.476563 10.617187 4.75.445313 9.890625.789063 15.210937.789063 12.617188 0 26.222657-1.949219 37.894532-9.179688 14.042968-8.695312 24.261718-24.316406 30.367187-46.429687 2.113281-7.664063 3.660157-15.53125 5.15625-23.136719 1.875-9.542969 3.816407-19.410156 6.871094-28.679688 3.65625 2.15625 7.351563 4.1875 11 6.179688 3.949219 2.15625 7.96875 4.359375 11.882813 6.710938-17.949219 58.621093-23.808594 121.671874-16.972657 182.597656zm241.953126-17.003906c-.125 4.53125-.429688 8.789062-2.796876 11.15625-2.417968 2.425781-6.960937 2.6875-11.410156 2.75l-51.664062.703125c-6.769532-59.332031-1.265625-120.746094 15.921875-177.953125.675781.46875 1.351562.941406 2.011719 1.425781 21.003906 15.441406 36.375 41.476563 43.28125 73.304687 6.289062 28.980469 5.460937 59.296876 4.65625 88.613282zm0 0"/></svg>