<svg height="512pt" viewBox="-86 0 512 512.00098" width="512pt" xmlns="http://www.w3.org/2000/svg"><path d="m264.40625 437.484375-.050781-3.753906c-.199219-15.21875-.855469-30.542969-1.949219-45.550781-5.691406-1.027344-11.519531-1.535157-17.347656-1.535157-1.6875 0-3.398438.042969-5.082032.128907l-4.671874.234374.492187-4.652343c1.433594-13.519531 2.199219-27.308594 2.265625-40.988281l.035156-6.234376 5.652344 2.628907c8.0625 3.746093 14.785156 9.570312 19.445312 16.851562.195313-15.503906-2.703124-30.871093-8.550781-45.695312l-4.613281-11.691407 10.519531 6.875c28.640625 18.707032 51.238281 48.980469 63.636719 85.242188 4.945312 14.46875 8.429688 30.277344 10.359375 46.996094l.542969 4.691406zm0 0" fill="#f0f2fa"/><path d="m185.082031 355.621094-5.191406-1.773438 1.140625-3.707031c.0625-.195313.121094-.382813.191406-.570313 7.3125-21.128906 15.738282-43.269531 31-61.433593.382813-.457031.761719-.910157 1.15625-1.363281 2.699219-3.167969 5.488282-6.441407 6.769532-10.40625.582031-1.820313.839843-3.753907.789062-5.898438l-.253906-10.101562 7.097656 7.191406c19.875 20.136718 32.269531 46.78125 34.898438 75.03125l.96875 10.429687-7.675782-7.128906c-8.078125-7.503906-18.886718-12.050781-29.652344-12.476563-.476562-.019531-.953124-.027343-1.425781-.027343-12.804687 0-25.125 6.964843-34.6875 19.613281l-1.214843 3.941406zm0 0" fill="#f0f2fa"/><path d="m136.382812 385.355469-.402343-3.535157c-1.492188-13.097656-3.507813-26.300781-5.992188-39.238281l-1.675781-8.722656c-4.097656-1.859375-8.484375-3.078125-12.96875-3.519531-1.273438-.125-2.578125-.191406-3.871094-.191406-9.257812 0-18.5625 3.171874-26.199218 8.933593l-9.710938 7.328125 3.46875-11.664062c3.828125-12.847656 9.449219-25.113282 16.714844-36.464844l.273437-.421875.363281-.339844.152344-.386719.242188-.394531c5.492187-8.339843 11.84375-16.09375 18.875-23.046875l7.734375-7.640625-.933594 10.832031c-.261719 2.996094-.050781 5.640626.640625 8.085938 1.285156 4.535156 4.230469 8.273438 7.074219 11.890625l48.15625 61 .472656-1.234375c.753906-2.203125 1.511719-4.414062 2.28125-6.621094l1.308594-3.757812 8.941406 3.058594-1.125 3.695312c4.28125-5.542969 9.035156-10.027344 14.1875-13.300781l7.390625-4.6875-7.539062 50.621093zm-.09375-46.746094c6.554688 4.828125 11.535157 11.214844 14.40625 18.464844-3.148437-8.066407-8.964843-14.972657-16.175781-19.769531zm0 0" fill="#f0f2fa"/><path d="m5.039062 438.832031c1.597657-19.046875 5.253907-36.847656 10.871094-52.914062 12.933594-36.972657 37.921875-67.257813 68.558594-83.085938l11.382812-5.878906-6.011718 11.3125c-6.960938 13.089844-11.816406 27.007813-14.4375 41.371094 5.175781-7.910157 13.128906-14.015625 22.453125-17.160157l5.566406-1.875-.289063 5.863282c-.773437 15.621094-.933593 31.503906-.480468 47.207031l.109375 3.761719-22.289063 2.007812.578125 49.335938-76.398437 4.664062zm0 0" fill="#f0f2fa"/><path d="m89.058594 88.808594c-2.914063-27.550782 10.492187-56.4375 33.359375-71.875 12.316406-8.320313 27.628906-12.902344 43.113281-12.902344 13.480469 0 26.554688 3.382812 37.8125 9.78125 23.597656 13.421875 38.832031 39.757812 38.8125 67.089844l-.003906 6.390625-5.746094-2.796875c-18.222656-8.875-39.675781-13.5625-62.039062-13.5625-2.785157 0-5.613282.074218-8.414063.21875-24.613281 1.292968-49.152344 8.457031-70.957031 20.722656l-5.300782 2.980469zm75.28125-65.746094c-7.703125 0-13.488282 4.421875-15.871094 12.128906-1.847656 5.980469-.144531 12.980469 4.332031 17.820313 3.945313 4.253906 10 6.796875 16.195313 6.796875.347656 0 .695312-.007813 1.042968-.03125 6.28125-.300782 11.773438-3.25 14.417969-7.695313 2.113281-3.53125 2.597657-8.234375 1.335938-12.910156-2.40625-9-11.480469-15.917969-21.105469-16.105469zm0 0" fill="#ed6d66"/><path d="m234.273438 176.109375c-11.386719-16.199219-17.402344-36.574219-16.097657-54.503906-3.144531 4.785156-8.871093 7.890625-14.644531 7.894531-.441406 0-.882812-.019531-1.324219-.054688-6.152343-.496093-11.953125-4.640624-14.429687-10.320312-2.328125 2.699219-1.714844 6.40625-.671875 10.96875l.171875.78125c.984375 4.363281.339844 9.332031-3.324219 10.578125-.5.171875-1.046875.261719-1.617187.261719-1.507813 0-3.164063-.59375-5.382813-1.929688-5.589844-3.359375-10.601563-7.574218-14.898437-12.523437l-.550782 13.839843-.285156 7.875-6.191406-4.875c-9.175782-7.234374-16.347656-17.160156-20.191406-27.953124-3.210938 12.546874-6.792969 26.757812-13.726563 39.070312-3.773437 6.707031-12.132813 18.820312-25.695313 24.609375l-4.9375 2.105469-.605468-5.335938c-2.652344-23.414062-2.644532-47.171875.019531-70.621094l.390625-3.4375 4.179688-.132812c25.582031-.808594 52.035156-1.644531 77.992187-2.367188 6.140625-.167968 12.84375-.246093 21.097656-.246093 4.402344 0 8.78125.019531 13.105469.042969 4.226562.023437 8.492188.042968 12.773438.042968 8.664062 0 15.699218-.089844 22.136718-.28125l3.78125-.113281.324219 3.773437c1.816406 21.238282.609375 41.867188-4.179687 71.195313l-1.578126 9.679687zm0 0" fill="#644c4c"/><path d="m80.511719 389.507812 22.242187-2.011718.179688 4.191406c.246094 5.714844.511718 10.699219.8125 15.234375.136718 1.9375.390625 5.519531 2.75 7.167969.996094.695312 2.273437 1.019531 4.011718 1.019531.675782 0 1.324219-.050781 1.898438-.097656l13.460938-1.003907c2.945312-.21875 7.363281-.546874 9.859374-3.375 2.613282-2.964843 2.25-7.648437 2.03125-10.445312-.25-3.113281-.546874-6.410156-.933593-10.359375l-.429688-4.40625 67.839844.273437-3.433594 23.023438c-.238281 1.558594-.40625 3.304688.617188 4.488281.757812.890625 1.96875 1.28125 3.929687 1.28125h.597656l16.246094-.257812c2.367188-.039063 5.308594-.082031 7.398438-1.796875 2.28125-1.867188 2.804687-5.066406 3.183594-7.40625.746093-4.570313 1.429687-9.339844 2.09375-14.609375l.410156-3.277344 3.296875-.214844c2.179687-.140625 4.390625-.214843 6.5625-.214843 4.699219 0 9.414062.335937 14.019531.996093l3.199219.460938.222656 3.226562c2.554687 37.382813 2.367187 75.242188-.554687 112.527344l-.289063 3.683594-179.78125.226562zm0 0" fill="#288fc9"/><path d="m205.441406 414.421875c-.453125 0-.796875-.015625-1.054687-.035156l-3.835938-.300781.148438-3.84375c.015625-.394532.0625-.84375.160156-1.5l10.851563-72.863282 2.390624-.746094c3.578126-1.121093 7.234376-1.6875 10.867188-1.6875.445312 0 .894531.007813 1.339844.023438 2.921875.121094 5.847656.535156 8.710937 1.230469l3.496094.851562-.488281 3.667969c.007812 21.9375-1.773438 44.070312-5.304688 65.769531-.453125 2.792969-1.070312 5.660157-3.140625 7.378907-2.097656 1.703124-5.109375 1.757812-7.308593 1.796874zm0 0" fill="#288fc9"/><path d="m110.484375 415.035156c-1.175781 0-2.691406-.113281-3.957031-1.003906-1.9375-1.339844-2.488282-3.8125-2.710938-7.113281-1.632812-24.085938-1.804687-48.539063-.515625-72.683594l.179688-3.390625 3.375-.371094c1.566406-.171875 3.132812-.261718 4.660156-.261718 1.285156 0 2.570313.0625 3.820313.183593 3.765624.371094 7.507812 1.292969 11.132812 2.734375l2.949219 1.175782-.476563 3.140624c4.15625 20.585938 7.105469 41.695313 8.753906 62.75.285157 3.777344.363282 7.683594-2 10.378907-2.324218 2.621093-6.128906 3.101562-9.828124 3.371093l-13.433594 1c-.484375.035157-1.207032.089844-1.949219.089844zm0 0" fill="#288fc9"/><g fill="#ffdac4"><path d="m262.136719 503.277344c1.574219-20.265625 2.339843-40.960938 2.277343-61.507813l-.011718-4.21875 66.804687 3.347657h3.785157l.359374 3.664062c1.566407 18.546875 1.328126 38.511719-.714843 59.335938l-.351563 3.605468-72.480468.089844zm0 0"/><path d="m238.886719 194.191406c.570312-3.613281 1.011719-6.96875 1.351562-10.253906-.003906.011719-.003906.019531-.007812.019531-.007813 0-.011719-.03125-.019531-.0625l-.128907-.703125.121094-.707031c1.351563-7.78125 2.417969-14.527344 3.269531-20.621094l.511719-3.664062 3.695313.226562c4.542968.273438 8.929687 2.671875 11.726562 6.402344 3.167969 4.238281 4.316406 10.09375 3.074219 15.660156-1.128907 5.109375-4.214844 9.957031-8.679688 13.644531-3.363281 2.777344-7.046875 4.394532-10.65625 4.675782l-5.050781.390625zm0 0"/><path d="m172.808594 262.464844c-5.804688 0-11.96875-.558594-18.328125-1.664063-19.226563-3.351562-35.289063-10.890625-46.441407-21.804687-12.949218-12.667969-19.378906-33.824219-16.78125-55.210938l.289063-2.398437 2.257813-.855469c10.777343-4.101562 20.492187-13.078125 27.355468-25.273438 5.375-9.542968 8.632813-20.101562 10.871094-28.230468l2.550781-9.269532 4.777344 8.34375c5.269531 9.207032 12.84375 16.941407 21.902344 22.367188l.46875-11.949219.292969-8.320312 6.3125 5.429687c2.683593 2.308594 5.578124 4.398438 8.59375 6.214844.960937.582031 3.191406 1.929688 5.433593 1.929688.574219 0 1.105469-.085938 1.621094-.261719 4.210937-1.441407 4.09375-7.371094 3.359375-10.648438l-2.316406-10.746093 8.457031 6.125c2.605469 1.886718 5.625 3.019531 8.730469 3.273437.445312.035156.898437.054687 1.347656.054687 2.949219 0 5.902344-.78125 8.535156-2.265624l5.601563-3.152344.355469 6.421875c1.003906 18.375 8.667968 37.265625 21.023437 51.820312l1.117187 1.3125-.191406 1.71875c-1.183594 10.675781-3.253906 21.289063-6.144531 31.542969-3.417969 12.132812-8.804687 21.890625-16.007813 29.007812-7.585937 7.511719-17.871093 12.722657-29.738281 15.070313-4.796875.9375-9.945312 1.417969-15.304687 1.417969zm0 0"/><path d="m130.265625 296.878906c-2.738281-3.472656-5.824219-7.386718-7.109375-11.933594-1.648438-5.804687-.226562-11.878906 1.152344-17.753906.699218-2.976562 1.488281-6.332031 1.796875-9.574218l.515625-5.402344 5.007812 2.09375c7.019532 2.933594 14.699219 5.136718 22.832032 6.546875 6.375 1.109375 12.539062 1.671875 18.324218 1.671875 5.375 0 10.535156-.476563 15.339844-1.421875 8.246094-1.628907 15.679688-4.613281 22.09375-8.859375l4.457031-2.957032 1.613281 5.257813c3.292969 7.464844 6.054688 14.789063 3.792969 21.800781-1.261719 3.9375-4.023437 7.1875-6.695312 10.328125l-1.230469 1.441407c-15.335938 18.265624-24.269531 41.957031-31.4375 62.726562l-2.386719 6.917969zm0 0"/><path d="m84.683594 199.039062c-.304688.019532-.574219.027344-.839844.027344-7.734375 0-14.996094-6.347656-16.539062-14.453125-1.453126-7.574219 2.019531-16.371093 8.644531-21.882812 2.734375-2.265625 5.378906-3.414063 7.855469-3.414063.34375 0 .6875.019532 1.023437.066406.152344.011719.328125.03125.527344.070313l3.007812.585937.210938 3.058594c.445312 6.339844 1.066406 12.570313 1.839843 18.523438l.824219 1.226562-.140625 1.496094c-.425781 3.710938-.589844 7.4375-.484375 11.078125l.203125 7.070313zm0 0"/><path d="m6.550781 504.378906c-2.308593-20.425781-3.007812-39.707031-2.078125-57.3125l.1875-3.5625 76.382813-4.664062.839843 68.992187-74.929687.101563zm0 0"/></g><path d="m89.761719 95.019531c23.074219-14.167969 49.425781-22.398437 76.207031-23.804687 2.808594-.148438 5.644531-.222656 8.441406-.222656 28.066406 0 54.722656 7.464843 75.054688 21.019531l10.214844 6.804687-12.265626.519532c-10.144531.429687-20.214843.480468-27.855468.480468-4.132813 0-8.25-.015625-12.332032-.035156l-.566406-.003906c-4.46875-.023438-8.992187-.046875-13.539062-.046875-8.089844 0-14.660156.078125-20.671875.246093-27.578125.773438-55.675781 1.664063-80.464844 2.449219l-15.058594.476563zm0 0" fill="#f9d889"/><path d="m168.960938 59.742188c-6.246094 0-12.117188-2.46875-16.109376-6.773438-4.46875-4.832031-6.164062-11.804688-4.316406-17.765625 2.367188-7.667969 8.160156-12.066406 15.890625-12.066406h.226563c8.191406.144531 18.347656 5.816406 21.085937 16.046875 1.25 4.652344.765625 9.339844-1.320312 12.863281-2.644531 4.429687-8.125 7.363281-14.304688 7.667969-.382812.015625-.769531.027344-1.152343.027344zm0 0" fill="#f9d889"/><path d="m168.992188 63.804688c.4375 0 .878906-.011719 1.320312-.035157 7.527344-.367187 14.265625-4.0625 17.585938-9.640625 2.652343-4.457031 3.292968-10.289062 1.761718-16.003906-2.855468-10.648438-13.558594-18.839844-24.898437-19.054688-9.621094-.175781-17.167969 5.402344-20.113281 14.9375-2.261719 7.324219-.214844 15.847657 5.21875 21.714844 4.738281 5.113282 11.808593 8.082032 19.125 8.082032zm-16.640626-27.414063c2.535157-8.207031 8.769532-9.296875 12.257813-9.257813 6.796875.128907 15.113281 5.054688 17.261719 13.082032.972656 3.625.644531 7.195312-.898438 9.792968-1.957031 3.28125-6.191406 5.472657-11.054687 5.710938-5.433594.265625-10.714844-1.78125-14.132813-5.472656-3.460937-3.734375-4.839844-9.304688-3.433594-13.855469zm0 0"/><path d="m328.035156 388.035156c-14.085937-41.199218-41.480468-75.175781-75.15625-93.222656-.121094-.0625-.246094-.097656-.371094-.152344-6.972656-13.257812-16.234374-25.308594-27.433593-35.285156-.796875-.714844-1.796875-1.039062-2.789063-1.011719-.773437-2.054687-1.609375-3.957031-2.347656-5.628906-.332031-.75-.867188-1.347656-1.507812-1.757813.777343-.6875 1.542968-1.382812 2.277343-2.109374 7.703125-7.617188 13.445313-17.980469 17.058594-30.796876 1.410156-4.992187 2.617187-10.058593 3.632813-15.167968.210937.007812.417968.023437.628906.023437 4.789062-.003906 9.90625-1.972656 14.367187-5.660156 5.148438-4.253906 8.71875-9.898437 10.054688-15.886719 1.496093-6.703125.082031-13.796875-3.789063-18.976562-3.4375-4.605469-8.730468-7.515625-14.195312-8.003906 2.082031-17.46875 2.742187-33.746094 1.28125-51.105469 3.023437-.144531 6.039062-.308594 9.042968-.523438 1.636719-.117187 3.039063-1.214843 3.546876-2.777343.507812-1.558594.015624-3.269532-1.238282-4.328126-4.609375-3.875-9.628906-7.382812-14.988281-10.515624 1.703125-29.953126-14.675781-60.035157-40.757813-74.867188-26.089843-14.832031-60.332031-13.515625-85.207031 3.28125-24.871093 16.796875-38.886719 48.070312-34.875 77.8125.066407.496094.222657.960938.453125 1.378906-3.445312 2.179688-6.808594 4.488282-10.070312 6.917969-1.410156 1.054687-1.976563 2.898437-1.394532 4.5625.566407 1.621094 2.09375 2.703125 3.804688 2.703125.042969 0 .085938 0 .128906-.003906l5.660156-.179688c.621094-.019531 1.253907-.039062 1.878907-.058594-1.773438 16.121094-2.300781 32.371094-1.597657 48.570313-3.519531-.09375-7.21875 1.375-10.78125 4.34375-7.84375 6.519531-11.785156 16.636719-10.039062 25.769531 1.910156 10.007813 10.988281 17.753906 20.539062 17.753906.355469 0 .714844-.011718 1.074219-.03125.8125-.050781 1.554688-.34375 2.164063-.796874 1.765625 15.59375 8.09375 29.800781 18.105468 39.601562 4.84375 4.738281 10.554688 8.855469 16.984376 12.316406.074218 3.175782-.546876 6.445313-1.324219 9.859375-.660157.136719-1.292969.425781-1.835938.898438-9.804687 8.617187-18.371093 18.503906-25.519531 29.3125-36.203125 14.1875-66.574219 47.808593-81.425781 90.285156-12.0507815 34.46875-15.042969 74.984375-9.144531 123.875.246093 2.023437 1.964843 3.546875 4.003906 3.546875h.003906l327.355469-.433594c2.054687 0 3.78125-1.550781 4.003906-3.597656 4.886719-45.382812 1.433594-85.734375-10.261719-119.933594zm-71.835937-220.808594c2.480469 3.320313 3.371093 7.953126 2.378906 12.390626-.945313 4.253906-3.546875 8.3125-7.320313 11.433593-2.746093 2.269531-5.71875 3.5625-8.417968 3.769531.546875-3.480468 1.011718-6.976562 1.375-10.476562.042968-.40625.003906-.796875-.070313-1.175781 1.25-7.210938 2.363281-14.089844 3.289063-20.75 3.300781.199219 6.65625 1.980469 8.765625 4.808593zm-131.539063-146.984374c22.394532-15.121094 53.222656-16.308594 76.707032-2.953126 22.382812 12.726563 36.8125 37.925782 36.792968 63.605469-20.949218-10.199219-46.164062-15.101562-72.410156-13.734375-25.332031 1.324219-50.523438 8.746094-72.710938 21.226563-2.777343-26.199219 9.757813-53.378907 31.621094-68.144531zm-38.042968 175.292968c-.644532-.355468-1.390626-.542968-2.183594-.484375-5.925782.355469-11.972656-4.757812-13.199219-11.1875-1.1875-6.199219 1.738281-13.453125 7.273437-18.058593 1.289063-1.070313 3.769532-2.816407 5.914063-2.441407.054687.011719.109375.003907.167969.015625.433594 6.265625 1.050781 12.523438 1.855468 18.757813.082032.636719.328126 1.230469.683594 1.75-.453125 3.910156-.617187 7.808593-.511718 11.648437zm79.554687-120.324218c30.480469-1.59375 59.390625 5.675781 81.070313 20.132812-13.511719.5625-27.21875.496094-40.570313.429688-11.253906-.054688-22.890625-.113282-34.335937.207031-26.792969.746093-53.988282 1.601562-80.484376 2.449219 22.3125-13.699219 48.238282-21.855469 74.320313-23.21875zm-72.304687 31.222656c25.933593-.828125 52.503906-1.664063 78.695312-2.394532 11.3125-.316406 22.882812-.257812 34.070312-.203124 11.523438.058593 23.304688.105468 35.050782-.238282 2.003906 23.351563.011718 44.785156-4.136719 70.210938-10.839844-15.421875-16.636719-34.621094-15.378906-51.914063.136719-1.835937-.996094-3.53125-2.742188-4.117187-1.746093-.582032-3.667969.09375-4.667969 1.644531-2.574218 4-7.488281 6.425781-12.222656 6.039063-4.738281-.386719-9.195312-3.578126-11.085937-7.9375-.554688-1.28125-1.734375-2.183594-3.121094-2.386719-1.382813-.191407-2.769531.332031-3.667969 1.402343-3.730468 4.457032-2.414062 10.234376-1.453125 14.453126l.171875.757812c.664063 2.964844.164063 5.617188-.707031 5.914062-.355469.121094-1.296875.109376-3.65625-1.304687-5.246094-3.15625-9.933594-7.097656-13.9375-11.726563-1.082031-1.25-2.824219-1.714843-4.386719-1.164062s-2.628906 2.003906-2.6875 3.660156l-.492187 13.824219c-8.542969-6.726563-15.273438-15.960937-18.902344-26.144531-.597656-1.671875-2.21875-2.753906-3.992187-2.671875-1.773438.085937-3.28125 1.320312-3.714844 3.042969-3.09375 12.292968-6.601563 26.230468-13.277344 38.082031-3.695312 6.5625-11.433594 17.621093-23.78125 22.890625-2.613281-23.144532-2.605469-46.574219.023438-69.71875zm16.972656 129.707031c-12.03125-11.773437-18.039063-31.941406-15.617188-51.875 11.671875-4.433594 22.019532-13.894531 29.425782-27.046875 5.210937-9.25 8.5625-19.386719 11.234374-29.128906 5.582032 9.746094 13.605469 17.992187 23.320313 23.8125 1.226563.730468 2.746094.765625 4 .082031 1.25-.679687 2.054687-1.972656 2.101563-3.394531l.425781-11.933594c2.84375 2.457031 5.894531 4.667969 9.128906 6.613281 1.625.976563 5.933594 3.566407 10.425781 2.023438 6.023438-2.066407 7.332032-9.175781 5.960938-15.304688l-.113282-.503906c3.121094 2.257813 6.839844 3.695313 10.75 4.011719 4.253907.355468 8.507813-.652344 12.171876-2.707032 1.042968 19.007813 9.046874 38.964844 21.972656 54.191407-1.160156 10.433593-3.179688 20.824219-6.023438 30.902343-3.230468 11.457032-8.269531 20.625-14.96875 27.25-7.042968 6.964844-16.625 11.796876-27.699218 13.980469-9.554688 1.882813-20.378907 1.792969-32.175782-.253906-18.417968-3.207031-33.746094-10.371094-44.320312-20.71875zm105.441406 38.976563c-1.035156 3.207031-3.453125 6.039062-6.011719 9.039062-.386719.457031-.777343.914062-1.160156 1.371094-15.71875 18.710937-24.671875 42.277344-32.175781 64.007812l-43.523438-55.136718c-2.621094-3.320313-5.332031-6.753907-6.40625-10.539063-1.367187-4.824219-.121094-10.140625 1.203125-15.769531.769531-3.277344 1.550781-6.640625 1.878907-10.097656 7.21875 3.027343 15.160156 5.324218 23.695312 6.808593 6.605469 1.152344 12.957031 1.726563 19.003906 1.726563 5.644532 0 11.027344-.5 16.109375-1.503906 8.761719-1.726563 16.738281-4.945313 23.53125-9.449219.042969.136719.074219.277343.132813.414062 3.011718 6.824219 5.5625 13.421875 3.722656 19.128907zm-117.167969 25.320312c.453125-.417969.78125-.9375 1-1.503906 5.308594-8.058594 11.453125-15.574219 18.351563-22.390625-.265625 3.121093-.132813 6.292969.78125 9.519531 1.511718 5.324219 4.871094 9.578125 7.832031 13.332031l48.109375 60.941407c.769531.976562 1.941406 1.535156 3.164062 1.535156.222657 0 .453126-.019532.679688-.058594 1.457031-.25 2.65625-1.277344 3.132812-2.671875 8.195313-24.011719 16.664063-48.839844 33.117188-68.425781.371094-.441406.746094-.882813 1.125-1.324219 2.820312-3.308594 6.019531-7.058594 7.546875-11.796875.777344-2.402344 1.042969-4.832031.984375-7.222656 19.121094 19.371094 31.238281 45.5 33.761719 72.59375-8.710938-8.09375-20.273438-13.078125-32.226563-13.546875-14.691406-.574219-28.695312 6.945312-39.453125 21.175781-1.339843 1.773438-.988281 4.300781.785157 5.644531 1.777343 1.34375 4.304687.992188 5.648437-.785156 3.949219-5.222656 8.367187-9.378906 13.082031-12.378906l-5.742187 38.546875-60.839844-.25c-1.511719-13.25-3.527344-26.476563-6.03125-39.539063 5.769531 4.261719 10.417969 10.046875 13.050781 16.71875.628906 1.585938 2.144532 2.550781 3.75 2.550781.496094 0 .996094-.089843 1.480469-.28125 2.070313-.816406 3.085937-3.160156 2.269531-5.230468-6.246094-15.816406-21.8125-27.5625-38.734375-29.230469-11.628906-1.148437-23.554687 2.5-32.871093 9.527344 3.730468-12.527344 9.222656-24.472657 16.246093-35.449219zm134.957031 38.144531c-.015624.152344-.042968.296875-.042968.449219.015625 21.808594-1.753906 43.785156-5.257813 65.316406-.316406 1.957032-.742187 4.113282-1.75 4.9375-1 .820313-3.25.855469-4.890625.882813l-16.179687.25-.125.003906c-.515625.007813-.878907-.003906-1.132813-.023437.015625-.25.050782-.597657.125-1.082032l10.484375-70.367187c3.542969-1.113281 7.183594-1.621094 10.855469-1.476563 2.679688.105469 5.328125.488282 7.914062 1.109375zm-109.058593-.335937c4.144531 20.484375 7.070312 41.429687 8.691406 62.261718.21875 2.789063.335937 5.894532-1.019531 7.429688-1.300782 1.476562-4.226563 1.808594-7.109375 2.023438l-13.4375.996093c-.957031.074219-2.738281.207031-3.3125-.195312-.515625-.363281-.859375-1.746094-1.019531-4.113281-1.617188-23.945313-1.785157-48.230469-.507813-72.199219 2.539063-.285157 5.101563-.320313 7.648437-.066407 3.449219.339844 6.828126 1.1875 10.042969 2.46875-.066406.453126-.074219.921876.023438 1.394532zm-114.488281 165.683594c-2.292969-20.359376-2.976563-39.179688-2.054688-56.65625l68.632812-4.179688.738282 60.746094zm65.925781-114.40625.554687 45.496093-67.976562 4.144531c1.582031-18.839843 5.117187-36.078124 10.660156-51.925781 12.664062-36.21875 37.082031-65.589843 66.617188-80.84375-7.0625 13.273438-12.113282 27.625-14.839844 42.527344-.347656 1.894531.691406 3.765625 2.480468 4.472656 1.789063.707031 3.828126.054688 4.871094-1.5625 4.714844-7.316406 12.078125-12.78125 20.324219-15.5625-.78125 15.777344-.945313 31.671875-.488281 47.519531l-18.535156 1.667969c-2.097657.191407-3.695313 1.960938-3.667969 4.066407zm181.589843 114.078124-172.136718.230469-1.347656-110.675781 14.382812-1.292969c.214844 5.121094.476562 10.234375.824219 15.328125.160156 2.410156.5 7.421875 4.445312 10.179688 2.046875 1.429687 4.371094 1.734375 6.304688 1.734375.832031 0 1.59375-.058594 2.222656-.105469l13.4375-.996094c3.355469-.25 8.972656-.667968 12.558594-4.730468 3.726562-4.222657 3.261719-10.1875 3.011719-13.390626-.269532-3.480468-.589844-6.960937-.933594-10.445312l58.78125.242188-2.746094 18.449218c-.246094 1.632813-.75 5.023438 1.539062 7.691406 2.097657 2.453126 5.132813 2.667969 6.964844 2.667969.21875 0 .417969-.003906.601563-.003906l16.300781-.253906c2.671875-.042969 6.703125-.105469 9.878906-2.707031 3.449219-2.824219 4.171875-7.242188 4.597656-9.878907.796876-4.886719 1.492188-9.800781 2.109376-14.726562 6.589843-.429688 13.210937-.1875 19.746093.746093 2.550781 37.171876 2.363281 74.808594-.542969 111.9375zm5.039063-119.386718c-7.683594-1.351563-15.507813-1.832032-23.300781-1.433594 1.457031-13.757812 2.222656-27.601562 2.289062-41.394531 7.191406 3.34375 13.460938 8.65625 17.757813 15.378906.753906 1.175781 2.046875 1.855469 3.394531 1.855469.371094 0 .746094-.050782 1.117188-.15625 1.710937-.492188 2.898437-2.054688 2.914062-3.835938.148438-16.125-2.972656-32.199218-8.882812-47.183594 27.628906 18.050782 49.933593 47.796876 62.039062 83.195313 4.882812 14.273437 8.269531 29.691406 10.164062 46.15625l-62.214843-3.121094c-.203125-15.296875-.851563-30.582031-1.957031-45.785156-.132813-1.839844-1.5-3.355469-3.320313-3.675781zm67.574219 119.292968-64.523438.085938c1.585938-20.519531 2.347656-41.183594 2.292969-61.839844l62.6875 3.140625c.070313.003907.136719.007813.203125.007813.019531 0 .039062-.007813.058594-.007813 1.539062 18.347657 1.316406 37.914063-.71875 58.613281zm0 0"/></svg>