<svg height="511pt" viewBox="-87 0 511 511.99919" width="511pt" xmlns="http://www.w3.org/2000/svg"><path d="m309.085938 507.933594c-7.003907 0-14.523438-.078125-24.390626-.253906l-3.449218-.0625-.445313-3.425782c-4.65625-35.933594-5.855469-72.425781-3.5625-108.464844-2.335937 35.617188-1.1875 71.714844 3.359375 107.285157l.585938 4.601562-4.640625-.097656c-3.066407-.0625-6.128907-.136719-9.175781-.210937l-3.664063-.085938c-15.980469-.382812-30.40625-.695312-45.070313-.695312-1.183593 0-2.367187 0-3.550781.003906l-5.464843.023437 1.632812-5.21875c13.429688-42.835937 21.433594-87.253906 23.792969-132.015625.160156-3.144531.339843-6.722656 2.195312-9.507812 1.933594-2.925782 5.46875-4.550782 9.949219-4.550782 2.46875 0 5.140625.515626 7.523438 1.445313 2.355468.910156 4.546874 2.085937 6.867187 3.328125l.097656.050781c3.335938 1.789063 6.78125 3.636719 10.566407 4.496094 1.921874-12.914063 1.101562-26.425781-2.335938-39.105469l-2.472656-9.113281 8.269531 4.566406c21.234375 11.730469 37.894531 30.476563 46.902344 52.785157 7.683593 19.007812 9.765625 39.304687 10.527343 63.933593.585938 18.53125.484376 37.253907.382813 55.355469-.023437 3.859375-.199219 7.273438-2.097656 9.96875-2.988281 4.25-8.847657 4.878906-14.738281 4.929688-2.523438.023437-5.058594.035156-7.59375.035156zm0 0" fill="#935252"/><path d="m29.328125 507.933594c-2.625 0-5.246094-.011719-7.859375-.035156-5.882812-.046876-11.746094-.679688-14.734375-4.929688-1.894531-2.695312-2.070313-6.105469-2.097656-9.964844-.097657-18.105468-.199219-36.824218.382812-55.363281.765625-24.625 2.847657-44.921875 10.527344-63.929687 9.011719-22.308594 25.667969-41.054688 46.90625-52.785157l8.265625-4.566406-2.472656 9.117187c-3.4375 12.675782-4.257813 26.1875-2.371094 39.074219 3.820312-.832031 7.269531-2.679687 10.601562-4.46875l.101563-.050781c2.320313-1.242188 4.507813-2.417969 6.878906-3.335938 2.371094-.925781 5.039063-1.4375 7.507813-1.4375 4.472656 0 8.007812 1.617188 9.964844 4.554688 1.847656 2.792969 2.027343 6.367188 2.183593 9.523438 2.359375 44.746093 10.363281 89.160156 23.792969 131.996093l1.636719 5.21875-5.46875-.023437c-1.183594-.003906-2.367188-.007813-3.550781-.007813-14.664063 0-29.085938.316407-45.070313.695313l-3.664063.089844c-3.046874.074218-6.105468.148437-9.175781.210937l-4.640625.097656.589844-4.601562c4.542969-35.574219 5.691406-71.667969 3.414062-107.289063 2.238282 36.050782 1.039063 72.542969-3.621093 108.46875l-.441407 3.421875-3.449218.0625c-9.308594.175781-16.976563.257813-24.136719.257813zm0 0" fill="#935252"/><path d="m205.84375 506.246094c-14.5-.632813-29.953125-1.246094-45.421875-1.246094-10.121094 0-19.304687.261719-28.070313.792969l-3.96875.238281-.265624-3.964844c-1.160157-17.308594-2.273438-35.175781-3.3125-53.105468-1.882813-32.460938-3.53125-65.929688-4.902344-99.46875l-.523438-13.28125-.292968-7.695313 6.464843 4.1875c11.125 7.199219 22.871094 12.734375 39.28125 18.503906 2.015625.703125 4.160157 1.394531 6.285157 1.394531.253906 0 .511718-.007812.773437-.027343 2.933594-.238281 5.566406-1.882813 7.890625-3.332031l39.441406-24.726563-.289062 7.558594c-.21875 5.8125-.449219 11.636719-.679688 17.417969-1.375 33.542968-3.023437 67.011718-4.902344 99.472656-.972656 16.917968-2.097656 34.9375-3.34375 53.554687l-.261718 3.898438zm0 0" fill="#f7b36f"/><path d="m212.277344 468.136719c.386718-6.40625.765625-12.800781 1.136718-19.167969 1.910157-33.039062 3.558594-66.507812 4.898438-99.472656.667969-16.257813 1.277344-33 1.816406-49.765625.046875-1.453125-.03125-2.992188-.105468-4.480469-.28125-5.609375-.574219-11.40625 5.667968-13.015625 1.730469-.441406 3.546875-.664063 5.40625-.664063 4.546875 0 9.316406 1.335938 13.433594 3.765626 6.113281 3.601562 11.460938 9.5625 16.339844 18.21875 9.480468 16.8125 13.71875 36.683593 11.941406 55.953124l-.511719 5.539063-5.089843-2.25c-1.796876-.792969-3.558594-1.726563-5.515626-2.773437-2.234374-1.195313-4.546874-2.4375-6.976562-3.390626-2.367188-.921874-5.039062-1.429687-7.519531-1.429687-3.183594 0-7.511719.792969-10.027344 4.585937-1.832031 2.757813-2.023437 6.320313-2.195313 9.460938-1.773437 33.734375-6.757812 67.386719-14.824218 100.085938zm0 0" fill="#af7979"/><path d="m118.003906 469.335938c-8.0625-32.699219-13.050781-66.351563-14.820312-100.015626-.175782-3.210937-.367188-6.773437-2.195313-9.527343-2.523437-3.796875-6.84375-4.59375-10.03125-4.59375-2.472656 0-5.144531.511719-7.527343 1.4375-2.421876.949219-4.734376 2.191406-6.972657 3.386719-1.949219 1.046874-3.714843 1.980468-5.511719 2.773437l-5.089843 2.25-.511719-5.539063c-1.777344-19.269531 2.460938-39.140624 11.941406-55.953124 4.878906-8.65625 10.222656-14.617188 16.34375-18.222657 4.109375-2.425781 8.875-3.765625 13.425782-3.765625 1.875 0 3.695312.226563 5.414062.667969 6.238281 1.609375 5.945312 7.40625 5.664062 13.015625-.074218 1.488281-.152343 3.027344-.105468 4.484375.539062 16.761719 1.148437 33.503906 1.816406 49.761719 1.339844 32.964844 2.984375 66.433594 4.894531 99.472656.371094 6.367188.75 12.761719 1.140625 19.167969zm0 0" fill="#af7979"/><path d="m259.675781 158.941406c-1.769531-.761718-3.664062-1.148437-5.625-1.148437l-.335937.003906-4.007813.089844-.078125-4.011719c-.359375-18.628906-3.25-36.820312-6.1875-53.855469l-1.097656-3.332031 2.941406-1.605469c1.824219-.984375 3.597656-2.015625 5.269532-3.0625l2.480468-1.554687 2.234375 1.898437c7.03125 5.984375 13.683594 12.015625 17.816407 19.996094 7.496093 14.507813 3.765624 34.308594-8.488282 45.082031.007813-.003906.011719-.007812.011719-.007812.007813 0-.007813.027344-.027344.054687l-1.847656 2.769531zm0 0" fill="#c67045"/><path d="m192.933594 107.839844c-7.382813 0-14.800782-.6875-22.039063-2.039063-17.128906-3.1875-31.980469-9.882812-42.941406-19.367187-9.480469-8.199219-20.453125-22.519532-20.203125-35.890625.207031-10.1875 10.261719-23.6875 19.863281-30.859375 8.0625-6.035156 18.460938-10.34375 31.785157-13.167969 7.8125-1.652344 14.828124-2.453125 21.453124-2.453125 3.199219 0 6.34375.195312 9.347657.578125 11.070312 1.433594 20.800781 5.550781 28.144531 11.902344 2.746094 2.375 5.128906 5.015625 7.648438 7.816406l-2.890626 2.769531 2.96875-2.683594c4.097657 4.542969 8.335938 9.238282 13.824219 12.082032 4.097657 2.121094 8.824219 3.199218 14.042969 3.199218 2.804688 0 5.722656-.3125 8.675781-.925781 2.046875-.421875 4.082031-.964843 6.222657-1.664062l4.0625 6.636719c-9.765626 9.726562-21.0625 17.53125-33.570313 23.199218 1.542969.140625 3.09375.179688 4.632813.179688 9.425781 0 18.765624-1.441406 27.761718-4.285156l12.285156-3.886719-7.925781 10.160156c-10.527343 13.492187-24.757812 24.128906-41.152343 30.765625-12.804688 5.191406-27.324219 7.933594-41.996094 7.933594zm0 0" fill="#c67045"/><path d="m81.945312 162.34375c-9.480468-5.875-16.628906-12.875-21.261718-20.808594-5.40625-9.253906-7.144532-19.847656-4.761719-29.066406 3.246094-12.511719 13.648437-21.980469 23.394531-29.589844 1.097656-.863281 2.210938-1.714844 3.324219-2.570312l.171875-.132813c7.28125-5.609375 14.816406-11.417969 20.355469-18.738281l4.289062-5.675781 2.621094 6.617187c.539063 1.367188 1.160156 2.738282 1.84375 4.070313l1.320313 2.589843-1.746094 1.75-.945313 1.492188h-.085937c-15.027344 22.664062-22.027344 53.183594-19.734375 86.222656l.261719 3.769532-3.753907.476562c-.722656.089844-1.34375.199219-1.902343.332031l-1.78125.425781zm0 0" fill="#c67045"/><g fill="#ffdac4"><path d="m208.847656 191.683594c-.429687 0-.855468-.007813-1.285156-.027344-9.984375-.425781-19.554688-6.105469-24.972656-14.824219-2.980469-4.789062-4.210938-9.210937-4.390625-15.761719-.035157-1.691406.304687-9.738281.816406-14.113281l.4375-3.765625 3.78125.234375c15.730469.980469 33.558594 2.089844 51.046875 4.945313l3.46875.566406-.117188 3.515625c-.171874 5.175781-.5 10.695313-1.742187 15.964844-1.175781 4.976562-3.746094 11.941406-9.339844 16.871093-4.683593 4.125-10.96875 6.394532-17.703125 6.394532zm0 0"/><path d="m131.535156 190.382812c-6.976562 0-13.683594-2.554687-18.402344-7.003906-5.417968-5.101562-7.753906-12.160156-8.757812-17.183594-1.0625-5.257812-1.207031-10.800781-1.207031-16.007812v-3.515625l3.488281-.449219c17.679688-2.277344 35.476562-2.78125 51.179688-3.222656l3.785156-.105469.3125 3.773438c.355468 4.261719.445312 12.292969.335937 14.128906-.394531 6.542969-1.769531 10.921875-4.910156 15.605469-5.710937 8.527344-15.46875 13.882812-25.464844 13.976562zm0 0"/><path d="m246.050781 191.53125c1.804688-7.851562 2.941407-16.128906 3.382813-24.601562.09375-1.789063.140625-3.609376.175781-5.152344l.085937-3.753906 3.75-.152344c.214844-.007813.425782-.011719.632813-.011719 3.960937 0 9.550781 1.5625 13.695313 9.015625 3.558593 6.371094 3.007812 14.753906-1.375 20.855469-3.65625 5.082031-9.722657 8.328125-16.226563 8.691406l-5.3125.296875zm0 0"/><path d="m171.929688 261.308594c-21.164063 0-43.304688-12.0625-57.777344-31.476563-12.144532-16.277343-19.769532-37.664062-22.660156-63.570312-3.941407-35.292969 2.492187-68.15625 18.117187-92.539063l3.214844-5.015625 3.425781 4.871094c3.265625 4.636719 7.40625 9.222656 11.664062 12.90625 10.96875 9.480469 25.828126 16.183594 42.96875 19.382813 7.25 1.347656 14.660157 2.03125 22.015626 2.03125 14.691406 0 29.234374-2.742188 42.0625-7.929688 1.03125-.425781 2.078124-.882812 3.125-1.347656l4.699218-2.082032.867188 5.0625c3.382812 19.738282 6.890625 42.691407 5.722656 65.320313-1.300781 24.921875-8.355469 46.789063-20.40625 63.25-14.054688 19.183594-35.890625 31.113281-56.984375 31.136719zm6.632812-95.191406c.59375 3.972656 1.816406 7.285156 3.972656 10.75 5.4375 8.730468 15.027344 14.421874 25.023438 14.847656.421875.015625.835937.023437 1.25.023437 6.683594 0 13.171875-2.335937 17.792968-6.410156 4.429688-3.902344 7.664063-9.75 9.351563-16.90625 1.5-6.363281 1.667969-12.996094 1.832031-19.417969l.671875-4.042968-.695312 3.9375c-18.953125-3.351563-37.3125-4.476563-56.746094-5.667969 0 0-1.003906-.058594-1.007813-.058594-.0625 0-.128906.023437-.199218.089844-.328125.324219-.855469 2.136719-1.300782 8.773437-.132812 2.117188-.253906 4.5625-.320312 6.703125l-.105469 3.238281-3.191406.570313c-1.433594.257813-2.90625.386719-4.371094.386719-1.660156 0-3.324219-.167969-4.945312-.496094l-3.222657-.652344.019532-3.289062c.007812-1.941406-.027344-4.460938-.097656-6.742188-.226563-6.644531-.6875-8.476562-1.03125-8.835937-.027344-.027344-.132813-.070313-.210938-.070313l-1.195312.035156c-19.414063.546876-37.753907 1.058594-56.683594 3.746094l-.023438.144532c-.046875 6.40625-.097656 13.035156 1.183594 19.441406 1.445312 7.199218 4.480469 13.148437 8.78125 17.203125 4.722656 4.464843 11.480469 7.019531 18.546875 7.019531h.300781c9.960938-.085938 19.738282-5.453125 25.476563-14 2.261719-3.382812 3.597656-6.648438 4.316406-10.582031l.714844-3.871094 3.882812.648437c1.445313.242188 2.859375.367188 4.199219.367188 1.15625 0 2.339844-.085938 3.519531-.253906l3.929688-.554688zm0 0"/><path d="m173.984375 321.519531c-2.3125 0-4.628906-.835937-6.992187-1.769531-15.855469-6.253906-31.550782-13.582031-46.664063-21.785156l-2.214844-1.203125.128907-2.515625c.019531-.347656.039062-.710938.046874-1.074219l.042969-1.804687 1.382813-1.160157c7.539062-10.257812 11.449218-22.949219 11.054687-35.765625l-.230469-7.441406 6.335938 3.917969c11.046875 6.835937 23.167969 10.453125 35.054688 10.453125 9.789062-.011719 19.980468-2.609375 29.53125-7.519532l6.097656-3.136718-.273438 6.851562c-.4375 11.046875 3.257813 22.199219 10.144532 30.640625.050781.050781.101562.097657.148437.144531l5.105469 5.105469-7.035156 1.621094-32.867188 22.722656c-2.15625 1.492188-4.839844 3.347657-7.804688 3.664063-.320312.035156-.652343.054687-.992187.054687zm0 0"/><path d="m93.394531 200.828125c-5.269531 0-15.230469-1.308594-19.152343-6.222656-4.378907-5.523438-5.457032-13.5625-2.6875-20.015625 2.632812-6.15625 8.652343-10.765625 15.335937-11.738282l4.09375-.597656.460937 4.109375c1.15625 10.378907 3.132813 20.238281 5.882813 29.304688l1.558594 5.144531zm0 0"/></g><path d="m171.078125 352.539062c-2.050781 0-4.027344-.628906-6.214844-1.394531-18.632812-6.542969-31.421875-12.851562-44.152343-21.78125l-1.628907-1.140625-.070312-1.984375c-.28125-7.523437-.542969-15.042969-.792969-22.507812l-.230469-6.894531 6.101563 3.226562c13.980468 7.394531 28.40625 14.035156 42.875 19.746094 2.019531.789062 4.511718 1.769531 7.035156 1.769531.351562 0 .679688-.015625.996094-.046875 2.96875-.320312 5.542968-2.105469 7.8125-3.679688l37.515625-25.925781-.257813 7.933594c-.25 7.695313-.519531 15.449219-.800781 23.210937l-.136719 3.859376h-3.859375l-35.496093 22.238281c-2.203126 1.378906-4.945313 3.097656-7.890626 3.335937-.242187.023438-.523437.035156-.804687.035156zm0 0" fill="#f9d889"/><path d="m174.609375 166.707031c.675781 4.558594 2.09375 8.355469 4.53125 12.269531 6.121094 9.839844 16.945313 16.25 28.25 16.734376.472656.023437.945313.03125 1.417969.03125 7.667968 0 15.046875-2.660157 20.433594-7.410157 5.058593-4.460937 8.726562-11.027343 10.601562-18.988281 1.601562-6.792969 1.777344-13.664062 1.945312-20.3125.050782-1.992188-1.363281-3.726562-3.328124-4.074219-19.121094-3.375-37.621094-4.515625-57.203126-5.71875l-1-.0625c-1.175781-.089843-2.347656.359375-3.210937 1.195313-1.171875 1.132812-1.929687 2.46875-2.527344 11.398437-.164062 2.496094-.277343 5.007813-.335937 6.835938-2.574219.457031-5.246094.425781-7.816406-.089844.003906-1.832031-.023438-4.367187-.105469-6.882813-.292969-8.949218-1.003907-10.308593-2.140625-11.480468-.835938-.863282-2.019532-1.324219-3.164063-1.304688l-1.015625.027344c-19.609375.546875-38.132812 1.0625-57.355468 3.792969-1.972657.28125-3.445313 1.964843-3.464844 3.960937-.050782 6.648438-.105469 13.523438 1.261718 20.363282 1.605469 8.023437 5.050782 14.707031 9.957032 19.335937 5.476562 5.164063 13.222656 8.113281 21.292968 8.113281h.296876c11.3125-.105468 22.347656-6.148437 28.800781-15.777344 2.5625-3.824218 4.105469-7.566406 4.9375-12.089843 1.601562.269531 3.226562.421875 4.855469.421875 1.371093 0 2.734374-.097656 4.085937-.289063zm8.378906-19.285156c17.347657 1.074219 33.871094 2.160156 50.644531 4.894531-.164062 5.125-.488281 10.304688-1.636718 15.179688-1.039063 4.410156-3.285156 10.558594-8.085938 14.789062-4.167968 3.675782-10.058594 5.644532-16.171875 5.371094-8.683593-.371094-17.015625-5.328125-21.75-12.9375-2.605469-4.183594-3.628906-7.910156-3.785156-13.761719-.039063-1.503906.292969-9.351562.785156-13.535156zm-24.707031 13.132813c-.355469 5.839843-1.503906 9.535156-4.246094 13.625-4.992187 7.445312-13.488281 12.121093-22.171875 12.199218-6.097656.078125-11.945312-2.097656-15.988281-5.914062-4.652344-4.390625-6.691406-10.609375-7.582031-15.050782-.980469-4.910156-1.128907-10.097656-1.125-15.226562 16.855469-2.167969 33.40625-2.699219 50.78125-3.1875.351562 4.199219.417969 12.050781.332031 13.554688zm0 0"/><path d="m337.203125 437.519531c-.679687-21.703125-2.464844-44.640625-10.824219-65.332031-10.425781-25.800781-30.902344-47.125-56.242187-58.613281-1.640625-4.117188-3.539063-8.136719-5.722657-12.011719-5.242187-9.292969-11.066406-15.746094-17.816406-19.726562-6.882812-4.058594-14.871094-5.347657-21.914062-3.535157-3.101563.796875-5.132813 2.285157-6.457032 4.132813-5.828124-8.792969-8.160156-19.761719-6.292968-30.175782 7.660156-5.242187 14.605468-11.894531 20.3125-19.6875 6.75-9.214843 11.976562-20.050781 15.578125-32.097656.375.015625.746093.046875 1.121093.046875 8.128907 0 16.101563-3.949219 20.753907-10.417969 5.277343-7.339843 5.933593-17.46875 1.628906-25.199218-1.03125-1.855469-2.21875-3.480469-3.519531-4.890625 13.394531-12.234375 17.238281-33.371094 8.890625-49.511719-4.15625-8.035156-10.738281-14.289062-17.097657-19.773438 11.222657-8.285156 20.601563-18.675781 27.355469-30.535156.875-1.527344.652344-3.449218-.550781-4.738281-1.199219-1.292969-3.097656-1.65625-4.6875-.894531-7.964844 3.804687-16.480469 6.371094-25.195312 7.628906 11.984374-7.769531 22.535156-17.679688 31.039062-29.230469 1.09375-1.492187 1.039062-3.535156-.140625-4.960937-1.175781-1.425782-3.175781-1.867188-4.839844-1.070313-7.285156 3.472657-13.875 6.464844-20.789062 7.898438-7.535157 1.558593-14.644531.882812-20.03125-1.90625-4.835938-2.503907-8.648438-6.730469-12.683594-11.207031-2.515625-2.789063-5.121094-5.679688-8.078125-8.234376-7.949219-6.882812-18.421875-11.328124-30.28125-12.859374-9.628906-1.242188-20.152344-.61328175-32.160156 1.929687-13.90625 2.9375-24.824219 7.480469-33.378906 13.882813-8.171876 6.109374-21.230469 20.757812-21.488282 34.039062-.019531.941406.011719 1.882812.089844 2.828125-.269531.265625-.515625.554687-.710938.898437-5.136718 9.191407-14.089843 16.089844-22.746093 22.765626-1.175781.902343-2.347657 1.808593-3.507813 2.714843-10.285156 8.035157-21.277344 18.09375-24.824218 31.773438-2.652344 10.242187-.765626 21.957031 5.179687 32.140625 4.277344 7.324218 10.527344 13.878906 18.597656 19.535156-3.457031 2.496094-6.257812 5.894531-7.960937 9.875-3.386719 7.917969-2.109375 17.386719 3.253906 24.125 4.664062 5.867188 14.757812 7.746094 22.273438 7.746094 1.003906 0 1.949218-.039063 2.84375-.101563 3.835937 10.285157 8.738281 19.480469 14.714843 27.492188 4.527344 6.070312 9.691407 11.417969 15.292969 15.957031.003906.167969-.003906.339844.023438.511719 1.679687 11.5625-.613282 23.519531-6.300782 33.671875-1.328125-1.832032-3.351562-3.308594-6.4375-4.101563-7.050781-1.8125-15.035156-.523437-21.914062 3.535157-6.75 3.980468-12.574219 10.433593-17.816406 19.726562-2.183594 3.875-4.085938 7.894531-5.722657 12.011719-25.339843 11.488281-45.816406 32.8125-56.242187 58.613281-8.359375 20.691406-10.144532 43.628906-10.824219 65.332031-.578125 18.519531-.476563 37.320313-.378906 55.5.019531 3.511719.046875 8.320313 2.835937 12.285157 4.589844 6.535156 13.664063 6.617187 18.027344 6.660156 2.652344.023437 5.3125.035156 7.976562.035156 15.117188 0 30.339844-.363281 45.132813-.71875 17.332031-.414062 35.257813-.839844 52.84375-.679688h.035156c.726563 0 1.394531-.203124 1.984375-.539062 26.945313-1.871094 54.097656-.734375 80.410156.429688.292969.066406.59375.109374.910157.109374h.039062c17.589844-.167968 35.507813.265626 52.839844.679688 14.792969.355469 30.011719.71875 45.132813.71875 2.660156 0 5.324218-.011719 7.976562-.035156 4.363281-.039063 13.4375-.125 18.03125-6.660156 2.785156-3.964844 2.8125-8.773438 2.832031-12.285157.097657-18.179687.199219-36.980469-.378906-55.5zm-113.1875-142.464843c-.339844-6.78125.109375-8.285157 2.675781-8.945313 1.402344-.363281 2.886719-.539063 4.40625-.539063 3.808594 0 7.84375 1.109376 11.402344 3.210938 5.496094 3.238281 10.363281 8.714844 14.890625 16.738281 9.148437 16.234375 13.148437 35.101563 11.441406 53.625-1.726562-.761719-3.457031-1.6875-5.242187-2.644531-2.347656-1.261719-4.78125-2.5625-7.40625-3.585938-7.367188-2.875-17.503906-2.640624-22.34375 4.664063-2.449219 3.695313-2.675782 8.042969-2.855469 11.53125-1.761719 33.492187-6.699219 66.746094-14.714844 99.269531.390625-6.410156.769531-12.8125 1.140625-19.183594 1.90625-33.023437 3.554688-66.511718 4.902344-99.535156.671875-16.558594 1.28125-33.3125 1.8125-49.796875.050781-1.609375-.027344-3.234375-.109375-4.808593zm-101.792969 8.539062c14.019532 7.425781 28.550782 14.121094 43.273438 19.933594 2.246094.882812 5.214844 2.054687 8.5 2.054687.464844 0 .9375-.023437 1.410156-.074219 3.988281-.421874 7.144531-2.609374 9.683594-4.363281l30.972656-21.417969c-.246094 7.691407-.515625 15.441407-.796875 23.199219-.730469 0-1.472656.1875-2.136719.605469l-35.476562 22.242188c-1.933594 1.214843-4.125 2.585937-6.089844 2.746093-1.574219.136719-3.371094-.445312-5.382812-1.152343-18.226563-6.398438-30.753907-12.570313-43.175782-21.277344-.277344-7.519532-.539062-15.027344-.78125-22.496094zm140.925782-118.199219c-2.96875 4.132813-7.976563 6.742188-13.203126 7.03125 1.839844-8.003906 3.019532-16.457031 3.480469-25.285156.089844-1.757813.144531-3.515625.183594-5.269531 4.414063-.179688 8 2.148437 10.671875 6.949218 2.773438 4.976563 2.304688 11.792969-1.132812 16.574219zm6.390624-71.191406c6.691407 12.945313 3.363282 30.617187-7.582031 40.238281-.28125.246094-.503906.53125-.699219.832032-2.371093-1.027344-4.9375-1.53125-7.632812-1.46875-.355469-18.710938-3.246094-37.109376-6.257812-54.5625-.039063-.222657-.109376-.433594-.179688-.640626 1.867188-1.011718 3.699219-2.074218 5.492188-3.1875 6.519531 5.542969 13.019531 11.371094 16.859374 18.789063zm-139.53125-91.316406c7.597657-5.6875 17.484376-9.761719 30.21875-12.453125 11.105469-2.347656 20.746094-2.945313 29.460938-1.820313 10.285156 1.328125 19.289062 5.117188 26.039062 10.957031 2.578126 2.234376 4.902344 4.8125 7.367188 7.542969 4.339844 4.808594 8.824219 9.785157 14.960938 12.964844 9 4.660156 18.765624 4.011719 25.375 2.640625 2.265624-.46875 4.46875-1.070312 6.648437-1.78125-9.347656 9.308594-20.332031 16.925781-32.394531 22.394531-1.695313.769531-2.644532 2.59375-2.296875 4.421875.34375 1.828125 1.898437 3.179688 3.753906 3.277344 11.421875.578125 22.90625-.90625 33.792969-4.355469-10.023438 12.847657-23.699219 23.128907-39.503906 29.527344-18.753907 7.59375-40.703126 9.605469-61.804688 5.671875-16.4375-3.066406-30.636719-9.453125-41.054688-18.46875-9.523437-8.234375-19.035156-21.566406-18.816406-32.78125.167969-8.828125 9.605469-21.273438 18.253906-27.738281zm-45.800781 136.148437c-8.996093-5.550781-15.75-12.113281-20.070312-19.511718-4.882813-8.359376-6.464844-17.851563-4.339844-26.050782 2.941406-11.347656 12.765625-20.242187 21.984375-27.445312 1.148438-.894532 2.304688-1.789063 3.464844-2.683594 7.539062-5.808594 15.28125-11.78125 21.109375-19.492188.589843 1.492188 1.257812 2.964844 2 4.417969-.003907.007813-.011719.011719-.019531.023438-16.460938 23.730469-24.023438 55.621093-21.597657 90.488281-.785156.097656-1.566406.226562-2.335937.402344-.066406-.046875-.121094-.105469-.195313-.148438zm-6.835937 33.070313c-3.488282-4.382813-4.347656-10.785157-2.148438-15.933594 2.101563-4.914063 6.957032-8.59375 12.242188-9.359375 1.207031 10.773438 3.230468 20.78125 6.035156 30.015625-6.246094.027344-13.753906-1.734375-16.128906-4.722656zm39.984375 35.335937c-11.714844-15.710937-19.082031-36.441406-21.890625-61.625-3.851563-34.535156 2.363281-66.296875 17.515625-89.9375 3.75 5.328125 8.164062 10.039063 12.3125 13.625 11.5 9.949219 27.011719 16.96875 44.851562 20.296875 7.53125 1.402344 15.167969 2.097657 22.75 2.097657 15.167969 0 30.117188-2.78125 43.558594-8.222657 1.097656-.445312 2.175781-.917969 3.253906-1.394531 3.539063 20.652344 6.796875 42.574219 5.664063 64.4375-1.253906 24.136719-8.039063 45.261719-19.632813 61.085938-13.3125 18.175781-33.914062 29.480468-53.765625 29.5-.015625 0-.03125 0-.046875 0-19.917969 0-40.824219-11.441407-54.570312-29.863282zm17.410156 26.878906c11.523437 7.125 24.351563 11.046876 37.160156 11.046876h.058594c10.589844-.011719 21.34375-2.835938 31.304687-7.953126-.476562 12.039063 3.488282 24.164063 11.191407 33.507813.082031.097656.179687.167969.265625.257813-.476563.113281-.941406.304687-1.371094.597656l-32.875 22.734375c-1.875 1.296875-4.003906 2.769531-5.949219 2.976562-1.734375.1875-3.785156-.550781-6.097656-1.464843-15.761719-6.21875-31.300781-13.480469-46.214844-21.570313.019531-.386719.035157-.78125.046875-1.1875.253906-.207031.484375-.449219.6875-.726563 8.078125-11.003906 12.21875-24.625 11.792969-38.21875zm-39.109375 34.460938c4.980469-2.9375 10.894531-3.9375 15.808594-2.671875 2.566406.660156 3.015625 2.164063 2.675781 8.945313-.082031 1.574218-.160156 3.203124-.109375 4.808593.53125 16.488281 1.140625 33.242188 1.816406 49.796875 1.34375 33.027344 2.992188 66.515625 4.898438 99.539063.371094 6.371093.75 12.773437 1.140625 19.183593-8.015625-32.527343-12.953125-65.78125-14.714844-99.269531-.179687-3.492187-.40625-7.839843-2.855469-11.53125-3.035156-4.578125-8.144531-6.378906-13.351562-6.378906-3.101563 0-6.238282.636719-8.988282 1.710937-2.628906 1.023438-5.058593 2.324219-7.410156 3.585938-1.785156.957031-3.515625 1.882812-5.242187 2.644531-1.707031-18.523437 2.292969-37.390625 11.445312-53.625 4.519531-8.023437 9.390625-13.5 14.886719-16.738281zm-21.300781 214.441406c-4.242188.097656-8.523438.203125-12.824219.296875 4.566406-35.757812 5.734375-72.085937 3.441406-108.050781-.144531-2.21875-2.082031-3.878906-4.28125-3.765625-2.222656.140625-3.910156 2.058594-3.769531 4.28125 2.285156 35.847656 1.085937 72.058594-3.539063 107.691406-10.613281.199219-21.300781.324219-31.871093.222657-4.828125-.042969-9.566407-.464844-11.507813-3.230469-1.234375-1.753907-1.347656-4.523438-1.367187-7.691407-.097657-18.109374-.199219-36.832031.375-55.203124.761719-24.222657 2.792969-44.132813 10.242187-62.566407 8.679688-21.484375 24.894532-39.601562 45.132813-50.777343-3.574219 13.195312-4.460938 27.097656-2.46875 40.699218.164062 1.109375.78125 2.101563 1.707031 2.738282.925781.636718 2.074219.855468 3.167969.609374 4.289062-.964843 7.992187-2.953124 11.578125-4.871093 2.242187-1.203125 4.355468-2.335938 6.53125-3.183594 4.476562-1.746094 10.449218-1.773437 12.691406 1.609375 1.230469 1.859375 1.382812 4.726562 1.527344 7.5 2.375 45.148438 10.445312 89.863281 23.964844 133-16.296876-.066406-32.761719.308594-48.730469.691406zm57.753906-1.417968c-1.179687-17.632813-2.296875-35.464844-3.3125-53.070313-1.90625-32.976563-3.550781-66.421875-4.894531-99.402344-.179688-4.410156-.355469-8.835937-.523438-13.269531 11.492188 7.4375 23.574219 13.101562 40.128906 18.914062 2.367188.828126 4.890626 1.625 7.609376 1.625.363281 0 .730468-.015624 1.097656-.042968 3.925781-.320313 7.140625-2.335938 9.71875-3.953125l33-20.6875c-.21875 5.816406-.445313 11.628906-.679688 17.414062-1.34375 32.980469-2.988281 66.425781-4.894531 99.402344-1.027344 17.757813-2.152344 35.738281-3.339844 53.519531-24.183593-1.058594-49.035156-1.960937-73.910156-.449218zm197.410156-8.828126c-.019531 3.167969-.132812 5.9375-1.367187 7.691407-1.945313 2.765625-6.679688 3.1875-11.507813 3.230469-10.578125.097656-21.257812-.027344-31.871093-.222657-4.628907-35.632812-5.828126-71.847656-3.542969-107.691406.144531-2.222656-1.542969-4.140625-3.765625-4.28125-2.199219-.117187-4.140625 1.542969-4.28125 3.765625-2.289063 35.964844-1.125 72.289062 3.441406 108.050781-4.300781-.09375-8.578125-.195312-12.820312-.296875-15.972657-.382812-32.4375-.753906-48.738282-.691406 13.523438-43.132812 21.59375-87.847656 23.96875-133 .144532-2.769531.292969-5.636719 1.527344-7.5 2.242188-3.382812 8.214844-3.351562 12.691406-1.605469 2.175782.847657 4.289063 1.980469 6.53125 3.179688 3.585938 1.921875 7.289063 3.90625 11.578125 4.871093 1.09375.246094 2.242188.027344 3.167969-.609374.925781-.632813 1.542969-1.628907 1.707031-2.738282 1.992188-13.601562 1.105469-27.503906-2.46875-40.699218 20.238281 11.175781 36.453125 29.292968 45.132813 50.777343 7.453125 18.433594 9.480468 38.34375 10.242187 62.566407.574219 18.371093.472657 37.09375.375 55.203124zm0 0"/></svg>