<svg height="511pt" viewBox="-79 0 511 511.99906" width="511pt" xmlns="http://www.w3.org/2000/svg"><path d="m151.246094 506.03125.433594-4.394531c.152343-1.546875.015624-3.316407-.414063-5.253907l-36.101563-163.300781 7.042969-3.34375c16.476563 20.828125 34.371094 40.613281 53.183594 58.808594 1.542969 1.488281 3.867187 3.738281 6.671875 3.960937.171875.007813.320312.011719.46875.011719 4.152344 0 7.214844-4.398437 8.6875-6.515625 15.375-22.066406 30.089844-46.132812 43.839844-68.894531l7.328125 2.933594-38.992188 176.339843c-.40625 1.878907-.554687 3.582032-.429687 5.046876l.375 4.347656-5.679688-.007813c-6.742187 0-14.113281.070313-20.613281.132813-7.011719.066406-14.457031.128906-21.386719.128906zm0 0" fill="#935252"/><path d="m196.65625 327.53125c-6.746094-8.652344-13.269531-17.609375-19.394531-26.621094l-3.335938-4.910156 5.800781-1.25c4.410157-.949219 8.453126-2.496094 11.484376-3.738281 13.105468-5.40625 25.574218-12.949219 37.222656-20.214844l13.105468-8.171875-7.492187 13.507812c-9.519531 17.164063-19.914063 34.367188-30.890625 51.128907l-3.0625 4.679687zm0 0" fill="#fff"/><path d="m151.425781 323.269531c-11.980469-14.511719-21.394531-27.851562-28.777343-40.785156l5.910156-5.152344c4.765625 3.664063 11.140625 8.328125 18.203125 11.910157 7.257812 3.699218 14.460937 5.824218 21.414062 6.320312l6.90625.492188-3.878906 5.734374c-4.601563 6.8125-9.058594 13.863282-13.246094 20.964844l-2.898437 4.910156zm0 0" fill="#fff"/><path d="m178.761719 354.273438c-6.691407-7.304688-14.449219-15.824219-21.851563-24.472657l-2.269531-2.65625 2.324219-2.605469c4.378906-7.511718 9.183594-15.152343 14.25-22.65625l3.296875-4.878906 3.320312 4.859375c6.625 9.691407 13.492188 19.054688 20.417969 27.828125l1.804688 2.285156-1.621094 2.417969c-4.46875 6.675781-9 13.238281-13.464844 19.5l-2.871094 4.023438zm0 0" fill="#d8deec"/><path d="m205.453125 505.902344-1.371094-.738282-.542969-1.335937c-.714843-1.777344-.746093-4.414063-.085937-7.425781l44.691406-202.125c.242188-1.121094.445313-2.523438.660157-4.007813l.035156-.253906c1.015625-7.125 2.207031-13.191406 6.46875-15.179687 1.769531-.820313 3.726562-1.234376 5.832031-1.234376 10.679687 0 24 10.945313 28.851563 18.796876 7.105468 11.472656 8.511718 26.851562 3.761718 41.132812-4.128906 12.445312-12.730468 24.179688-24.878906 33.9375-.542969.445312-1.125.902344-1.703125 1.355469-2.542969 2-5.171875 4.066406-7.246094 6.601562-2.890625 3.527344-4.195312 7.570313-3.578125 11.09375.605469 3.394531 2.824219 6.140625 4.972656 8.796875l.117188.148438c1.882812 2.351562 3.828125 4.789062 4.65625 7.675781 2.066406 7.164063-3.378906 13.691406-5.097656 15.519531-2.296875 2.4375-4.882813 4.398438-7.617188 6.476563l-.167968.132812c-1.71875 1.292969-3.648438 2.75-5.410157 4.308594-10.53125 9.296875-16.113281 23.1875-19.796875 34.246094-.964844 2.898437-1.890625 5.863281-2.785156 8.734375l-.050781.164062c-3.160157 10.078125-6.144531 19.597656-11.191407 28.492188-1.402343 2.464844-3.167968 4.277344-4.84375 4.984375l-2.03125.855469zm0 0" fill="#5b8baf"/><path d="m145.203125 506.039062c-1.5625-.777343-3.207031-2.53125-4.511719-4.808593-5.054687-8.914063-8.039062-18.433594-11.199218-28.507813l-.046876-.15625c-.902343-2.886718-1.824218-5.851562-2.789062-8.738281-3.6875-11.066406-9.265625-24.953125-19.792969-34.25-1.765625-1.5625-3.695312-3.019531-5.402343-4.304687l-.179688-.136719c-2.734375-2.078125-5.320312-4.039063-7.613281-6.472657-1.722657-1.835937-7.167969-8.359374-5.101563-15.53125.828125-2.882812 2.773438-5.316406 4.65625-7.667968l.101563-.132813c2.164062-2.671875 4.382812-5.417969 4.988281-8.820312.617188-3.515625-.6875-7.558594-3.574219-11.085938-2.078125-2.535156-4.707031-4.601562-7.25-6.601562-.578125-.457031-1.160156-.914063-1.730469-1.378907-12.121093-9.734374-20.722656-21.472656-24.855468-33.917968-4.746094-14.277344-3.339844-29.65625 3.769531-41.132813 4.847656-7.847656 18.167969-18.796875 28.847656-18.796875 2.105469 0 4.066407.417969 5.824219 1.234375 4.273438 1.988281 5.460938 8.058594 6.476562 15.191407l.035157.242187c.214843 1.488281.421875 2.890625.664062 4.027344l44.6875 202.101562c.3125 1.441407.472657 2.785157.472657 4.003907 0 1.277343-.167969 2.378906-.503907 3.273437l-.664062 1.773437-1.714844.582032-1.765625.890625zm0 0" fill="#5b8baf"/><path d="m182.488281 392.453125c-.121093 0-.238281-.003906-.359375-.011719-2.601562-.167968-4.652344-1.964844-6.695312-3.953125-22.988282-22.214843-44.316406-46.453125-63.394532-72.046875-.0625-.066406-.121093-.136718-.175781-.203125l-.585937-.730469-4.691406-21.242187c-.25-1.117187-.460938-2.511719-.707032-4.257813-.15625-1.105468-.328125-2.289062-.53125-3.503906l-.457031-2.699218 2.355469-1.398438c2.394531-1.429688 4.683594-3.140625 6.792968-5.085938l3.78125-3.484374 2.449219 4.519531c16.148438 29.84375 39.355469 55.148437 61.800781 79.621093-.03125.007813-.074218.015626-.121093.019532l.140625-.007813c18.957031-26.226562 36.476562-53.808593 52.105468-81.992187l1.878907-5.355469 4.449219 3.550781c2.066406 1.699219 4.394531 3.050782 7.117187 4.132813l3.261719 1.296875-.863282 3.402344c-.578124 2.296874-.933593 4.753906-1.246093 6.921874-.253907 1.808594-.46875 3.203126-.714844 4.324219l-.773437 3.46875-1.175782.890625-5.171875 8.558594c-15.988281 26.550781-32.523437 54.003906-49.785156 78.792969-2.253906 3.207031-5.039063 6.472656-8.683594 6.472656zm0 0" fill="#af7979"/><path d="m178.144531 277.191406c-.914062 0-1.765625-.199218-2.535156-.59375-2.203125-1.148437-3.289063-3.5-4.335937-5.78125-.3125-.675781-.59375-1.292968-.898438-1.894531-4.316406-8.40625-13.132812-12.042969-22.46875-15.894531-2.601562-1.066406-5.144531-2.121094-7.605469-3.296875-20.554687-9.785157-36.59375-30.980469-44-58.148438-3.792969-13.9375-4.539062-27.660156-5.328125-42.1875l-.015625-.304687c-.433593-8.03125-.882812-16.335938-1.914062-24.519532-.121094-.941406-.664063-5.164062-.664063-5.164062-1.871094-14.523438-3.636718-28.246094-2.300781-43.035156 1.183594-13.242188 5.242187-25.835938 11.742187-36.425782 12.457032-20.289062 34.320313-33.960937 57.058594-35.675781 1.84375-.140625 3.757813-.210937 5.691406-.210937 10.28125 0 20.269532 1.933594 30.847657 3.976562l.417969.082032c3.855468.746093 7.839843 1.519531 11.765624 2.164062 4.527344.746094 11.414063 1.734375 18.859376 1.734375 6.9375 0 13.277343-.875 18.847656-2.597656l9.226562-2.851563-12.804687 24.277344c4.707031-1.09375 9.535156-1.710938 14.390625-1.785156l11.25-.175782-16.417969 13.789063c15.183594 3.621094 22.832031 21.589844 22.328125 36.691406-.316406 9.488281-2.726562 18.410157-5.277344 27.859375-1.554687 5.730469-3.15625 11.65625-4.191406 17.628906-1.910156 10.980469-1.898438 22.332032-1.890625 33.308594v.175782c.007813 6.574218.019531 14.03125-.460937 21.226562-1.90625 28.148438-12.269532 42.246094-20.628907 49.117188-4.742187 3.890624-10.207031 6.703124-15.488281 9.425781l-.148438.078125c-3.578124 1.847656-7.277343 3.761718-10.695312 5.96875-7.90625 5.117187-13.199219 11.71875-14.894531 18.585937l-1.363281 5.511719-6.300782-4.175781c-.574218 3.050781-1.234375 6.839843-3.34375 9.667969-1.585937 2.101562-4.113281 3.449218-6.453125 3.449218zm-49.078125-214.808594c-.8125 0-1.675781.113282-2.558594.339844-9.683593 2.503906-16.476562 16.359375-18.328124 20.546875-4.71875 10.644531-6 22.40625-6.589844 31.460938-1.511719 23.320312.855468 55.957031 20.710937 79.023437 13.394531 15.546875 33.753907 24.828125 54.457031 24.828125 1.304688 0 2.625-.039062 3.921876-.113281 23.488281-1.378906 45.546874-15.273438 56.195312-35.390625 7.371094-13.910156 9.238281-30.023437 10.042969-42.503906.691406-10.753907 1.132812-26.820313-3.019531-42.125-4.03125-14.863281-12.046876-27.292969-22.570313-35.003907-1.328125 2.339844-.550781 5.003907.6875 8.515626 1.097656 3.128906 1.742187 5.277343.933594 7.214843l-1.027344 2.457031h-2.011719c-.503906.117188-1.054687.179688-1.660156.179688-.9375 0-2.019531-.140625-3.304688-.425781-13.449218-3.027344-26.222656-10.027344-35.984374-19.714844l15.570312 31.449219 3.160156 6.351562-7.074218-.585937c-16.847657-1.398438-33.378907-9.488281-45.359376-22.191407-1.234374-1.304687-2.417968-2.910156-3.667968-4.613281l-.0625-.078125c-3.320313-4.515625-7.085938-9.621094-12.460938-9.621094zm0 0" fill="#c67045"/><path d="m150.890625 188.378906c-2.121094 0-4.347656-.117187-6.617187-.347656l-9.960938-1.019531 8.820312-6.816407c1.214844-.933593 1.789063-1.367187 2.179688-1.621093 4.167969-2.667969 8.519531-5.414063 12.957031-8.1875.980469-.609375 1.949219-1.246094 2.921875-1.886719l.410156-.273438c5.027344-3.328124 9.785157-6.476562 15.472657-6.476562 1.59375 0 3.1875.257812 4.738281.769531 4.78125 1.585938 9.398438 4.777344 13.472656 7.589844l.703125.480469c1.371094.9375 2.789063 1.90625 4.152344 2.761718.785156.484376 2.179687 1.546876 4.382813 3.230469 2.386718 1.816407 4.234374 3.191407 5.800781 4.324219l8.734375 6.3125-10.738282.917969c-1.867187.15625-3.710937.238281-5.480468.238281-2.480469 0-4.894532-.160156-7.167969-.472656-7.882813-1.097656-14.734375-4.226563-18.804687-8.582032-4.046876 4.285157-11.078126 7.496094-18.855469 8.582032-2.25.316406-4.648438.476562-7.121094.476562zm0 0" fill="#c67045"/><path d="m265.714844 507.929688c-16.277344 0-32.503906-.324219-48.238282-.972657l-6.527343-.265625 3.207031-5.691406c5.035156-8.945312 8.128906-18.847656 11.117188-28.421875.882812-2.828125 1.832031-5.847656 2.792968-8.726563 3.675782-11.054687 9.246094-24.933593 19.777344-34.230468 1.691406-1.488282 3.445312-2.832032 5.398438-4.304688 2.679687-2.023437 5.449218-4.117187 7.792968-6.613281 4.605469-4.894531 6.519532-10.726563 5.121094-15.601563-.855469-2.945312-2.855469-5.421874-4.789062-7.820312-2.140626-2.652344-4.351563-5.394531-4.953126-8.753906-.613281-3.523438.683594-7.546875 3.546876-11.054688 2.128906-2.589844 4.738281-4.632812 7.265624-6.613281.574219-.441406 1.132813-.886719 1.683594-1.332031 12.164063-9.777344 20.773438-21.527344 24.902344-33.976563 1.40625-4.203125 2.285156-8.597656 2.617188-13.066406l.566406-7.570313 5.925781 4.746094c21.371094 17.113282 36.671875 44.644532 43.085937 77.515625 6.28125 32.292969 4.011719 65.546875 1.8125 97.707031-.285156 4.207032-.878906 8.890626-4.289062 11.253907-2.117188 1.460937-4.882812 1.632812-7.105469 1.769531l-.117187.007812c-14.5625.839844-29.316406 1.417969-43.863282 1.726563l-4.632812.097656.578125-4.597656c4.65625-36.9375 7.058594-74.542969 7.140625-111.765625-.140625 37.632812-2.597656 75.625-7.355469 112.921875l-.4375 3.441406-3.46875.054688c-6.160156.089843-12.402343.136719-18.554687.136719zm0 0" fill="#3a6082"/><path d="m76 507.464844c-1.878906 0-3.75-.003906-5.609375-.015625l-3.503906-.015625-.441407-3.476563c-4.734374-37.222656-7.175781-75.097656-7.253906-112.578125.011719 37.054688 2.402344 74.570313 7.050782 111.511719l.570312 4.554687-4.589844-.054687c-15.3125-.179687-30.066406-.675781-43.851562-1.476563l-.140625-.007812c-2.21875-.140625-4.984375-.3125-7.089844-1.761719-3.421875-2.375-4.015625-7.058593-4.300781-11.261719-2.195313-32.160156-4.46875-65.417968 1.8125-97.707031 6.414062-32.871093 21.714844-60.402343 43.089844-77.519531l5.921874-4.742188.566407 7.566407c.332031 4.472656 1.210937 8.867187 2.613281 13.0625 4.132812 12.457031 12.742188 24.203125 24.902344 33.980469.554687.445312 1.113281.890624 1.675781 1.324218 2.539063 1.988282 5.148437 4.035156 7.269531 6.613282 2.871094 3.519531 4.167969 7.539062 3.5625 11.042968-.609375 3.378906-2.820312 6.125-4.960937 8.773438-1.933594 2.398437-3.929688 4.875-4.789063 7.835937-1.398437 4.863281.515625 10.691407 5.121094 15.585938 2.34375 2.5 5.117188 4.59375 7.796875 6.617187 1.949219 1.472656 3.707031 2.8125 5.394531 4.304688 10.53125 9.296875 16.101563 23.175781 19.777344 34.226562.957031 2.882813 1.910156 5.898438 2.792969 8.726563 2.902343 9.269531 5.902343 18.855469 10.664062 27.578125l3.074219 5.632812-6.410156.28125c-21.101563.925782-41.53125 1.398438-60.714844 1.398438zm0 0" fill="#3a6082"/><g fill="#ffdac4"><path d="m257.84375 172.261719c.144531-4.867188.144531-9.738281.136719-13.921875-.007813-6.316406-.019531-13.476563.429687-20.523438l.292969-4.617187 4.527344.960937c4.148437.878906 7.492187 1.894532 10.355469 4 7.199218 5.339844 7.851562 15.675782 4.816406 22.699219-2.542969 5.902344-7.453125 10.953125-14.589844 15l-6.183594 3.507813zm0 0"/><path d="m176.699219 218.519531c-20.640625 0-40.957031-9.273437-54.347657-24.808593-19.855468-23.066407-22.210937-55.683594-20.691406-78.980469.578125-9.03125 1.851563-20.769531 6.570313-31.4375 1.855469-4.179688 8.648437-18.007813 18.296875-20.503907.824218-.207031 1.617187-.308593 2.394531-.308593 5.523437 0 9.097656 4.859375 12.550781 9.5625 1.152344 1.5625 2.460938 3.339843 3.75 4.71875 12.511719 13.257812 29.78125 21.398437 47.367188 22.324219l.140625.007812c.128906.007812.289062.019531.472656.019531 1.796875 0 2.3125-.695312 2.480469-.925781.230468-.3125.851562-1.160156-.359375-3.617188l-14.65625-29.480468 11.847656 7.238281c7.023437 4.289063 14.5625 7.355469 22.398437 9.109375.671876.152344 1.898438.433594 3.257813.433594 1.699219 0 2.96875-.425782 3.886719-1.292969.980468-.929687 1.785156-2.234375 1.019531-5.441406l6.921875-3.539063c6.253906 7.25 11.039062 16.539063 13.84375 26.867188 4.132812 15.285156 3.699219 31.355468 3.011719 42.109375-.796875 12.464843-2.65625 28.554687-10.027344 42.46875-10.648437 20.101562-32.6875 33.980469-56.152344 35.359375-1.3125.078125-2.648437.117187-3.976562.117187zm2.589843-36.921875c4.152344 3.210938 9.96875 5.476563 16.375 6.371094 2.265626.3125 4.675782.472656 7.15625.472656 5.359376 0 11.207032-.742187 17.378907-2.203125l-.730469.046875-.675781-.285156c-2.539063-.796875-7.265625-4.164062-14.070313-9.339844l-.164062-.125c-1.726563-1.320312-3.5-2.679687-4.382813-3.234375-1.578125-.988281-3.136719-2.0625-4.785156-3.199219l-.082031-.054687c-4.304688-2.960937-8.761719-6.023437-13.476563-7.574219-1.640625-.542968-3.21875-.804687-4.824219-.804687-5.617187 0-10.613281 3.3125-15.445312 6.519531-1.097656.726562-2.207031 1.457031-3.308594 2.144531-4.226562 2.625-8.578125 5.371094-12.953125 8.175781-.476562.3125-1.320312.953126-2.515625 1.882813l-.265625.203125c-3.535156 2.707031-6.042969 4.523438-7.597656 5.230469l-.6875.3125-.757813.039062c6.183594 1.523438 12.039063 2.265625 17.414063 2.265625 2.460937 0 4.859375-.15625 7.132813-.472656 6.398437-.894531 12.214843-3.15625 16.367187-6.371094l2.449219-1.894531zm0 0"/><path d="m171.226562 295.617188c-9.738281 0-18.664062-3.488282-24.4375-6.417969-8.445312-4.300781-16.136718-10.210938-23.925781-16.394531l-2.757812-2.191407 1.816406-3.011719c3.378906-5.59375 5.507813-11.871093 6.160156-18.152343l.652344-6.335938 5.421875 3.34375c2.050781 1.261719 4.105469 2.382813 6.105469 3.328125 2.539062 1.222656 5.347656 2.371094 7.601562 3.292969 8.972657 3.710937 18.171875 7.515625 22.464844 15.886719.292969.589844.558594 1.167968.824219 1.746094l.042968.09375c1.066407 2.3125 2.160157 4.695312 4.382813 5.847656.789063.40625 1.65625.617187 2.5625.617187 2.324219 0 4.941406-1.402343 6.511719-3.492187.859375-1.15625 1.554687-2.566406 2.105468-4.304688l1.613282-5.042968 6.730468 4.46875c-1.046874-13 11.542969-22.183594 15.429688-24.6875 3.167969-2.042969 6.433594-3.769532 10.070312-5.652344l6.007813-3.105469-.171875 6.761719c-.183594 7.210937 1.636719 14.308594 5.257812 20.523437l2.566407 4.351563-3.300781 2.0625c-11.886719 7.433594-25.355469 15.859375-39.777344 21.796875-3.9375 1.621093-9.160156 3.574219-14.648438 4.316406-1.726562.234375-3.511718.351563-5.308594.351563zm0 0"/><path d="m88.605469 183.523438c-6.683594 0-13.261719-3.847657-16.757813-9.808594-3.484375-5.953125-3.761718-14.003906-.710937-20.511719 2.703125-5.734375 7.828125-10.375 14.070312-12.734375l5.101563-1.925781.332031 5.933593c.089844 1.613282.183594 3.226563.265625 4.832032.519531 9.644531 1.058594 19.636718 2.644531 29.570312l.738281 4.632813h-4.6875c-.066406 0-.132812-.003907-.199218-.003907-.265625.011719-.53125.015626-.796875.015626zm0 0"/></g><path d="m180.910156 222.460938c24.851563-1.457032 48.207032-16.183594 59.503906-37.511719 7.730469-14.59375 9.667969-31.242188 10.496094-44.117188.707032-11.046875 1.152344-27.566406-3.152344-43.433593-4.265624-15.734376-12.8125-28.933594-24.070312-37.171876-.933594-.683593-2.121094-.933593-3.253906-.683593-1.132813.25-2.101563.976562-2.660156 1.992187-2.242188 4.082032-.734376 8.351563.480468 11.78125.449219 1.273438 1.289063 3.644532 1.007813 4.3125-.007813.007813-.5625.496094-3.449219-.148437-12.703125-2.855469-24.789062-9.476563-34.03125-18.644531-1.402344-1.390626-3.601562-1.5625-5.199219-.40625-1.601562 1.152343-2.128906 3.296874-1.25 5.0625l15.617188 31.414062c-15.910157-1.328125-31.410157-8.898438-42.78125-20.953125-1.089844-1.152344-2.222657-2.691406-3.417969-4.320313-4.113281-5.582031-9.738281-13.230468-19.238281-10.777343-11.113281 2.867187-18.382813 16.894531-20.992188 22.792969-4.976562 11.246093-6.3125 23.445312-6.917969 32.820312-1.5625 24.0625.929688 57.804688 21.671876 81.890625 14.125 16.402344 35.835937 26.226563 57.488281 26.222656 1.382812 0 2.769531-.039062 4.148437-.121093zm-55.527344-31.363282c-18.964843-22.023437-21.203124-53.542968-19.738281-76.109375.566407-8.707031 1.785157-19.996093 6.246094-30.078125 3.277344-7.402344 9.335937-16.625 15.636719-18.25.480468-.125.941406-.183594 1.394531-.183594 3.230469 0 5.777344 3.109376 9.332031 7.9375 1.289063 1.75 2.621094 3.558594 4.046875 5.074219 13.222657 14.011719 31.476563 22.613281 50.078125 23.597657h.003906c1.113282.058593 4.492188.230468 6.519532-2.523438 1.527344-2.078125 1.53125-4.683594.007812-7.757812l-8.484375-17.0625c7.308594 4.457031 15.347657 7.746093 23.621094 9.601562 1.757813.398438 7.109375 1.597656 10.761719-1.863281 2.933594-2.78125 2.886718-6.234375 2.164062-9.269531 5.839844 6.773437 10.335938 15.457031 13.003906 25.296874 3.988282 14.710938 3.558594 30.335938 2.886719 40.808594-.773437 12.070313-2.5625 27.621094-9.574219 40.859375-10.003906 18.894531-30.75 31.9375-52.847656 33.234375-20.554687 1.21875-41.636718-7.726562-55.058594-23.3125zm0 0"/><path d="m202.820312 192.441406c5.667969 0 11.796876-.769531 18.300782-2.308594.003906 0 .003906 0 .007812-.003906h.003906c2.164063-.511718 3.507813-2.683594 2.992188-4.847656-.453125-1.929688-2.222656-3.21875-4.136719-3.101562-2.417969-.757813-9.800781-6.390626-13.007812-8.832032-2.140625-1.632812-3.691407-2.816406-4.675781-3.4375-1.53125-.960937-3.082032-2.027344-4.722657-3.15625-4.542969-3.121094-9.242187-6.351562-14.496093-8.085937-9.605469-3.167969-17.113282 1.796875-23.734376 6.179687-1.074218.710938-2.148437 1.421875-3.222656 2.089844-4.292968 2.675781-8.664062 5.4375-12.992187 8.207031-.597657.382813-1.414063 1.007813-2.808594 2.082031-1.691406 1.304688-5.535156 4.261719-7.050781 4.953126-1.746094.089843-3.292969 1.316406-3.714844 3.101562-.515625 2.164062.828125 4.335938 2.992188 4.847656h.003906c9.570312 2.265625 18.324218 2.867188 26.015625 1.796875 7.144531-.992187 13.589843-3.546875 18.269531-7.167969 4.679688 3.621094 11.125 6.175782 18.269531 7.167969 2.460938.34375 5.03125.515625 7.707031.515625zm-23.027343-15.855468c-.761719-.816407-1.828125-1.28125-2.949219-1.28125-1.117188 0-2.1875.464843-2.949219 1.28125-3.398437 3.648437-9.539062 6.394531-16.433593 7.355468-3.910157.546875-8.191407.582032-12.785157.109375.1875-.140625.378907-.289062.570313-.4375.894531-.6875 1.902344-1.464843 2.238281-1.679687 4.300781-2.753906 8.644531-5.496094 12.902344-8.152344 1.140625-.707031 2.277343-1.457031 3.414062-2.210938 5.832031-3.859374 10.863281-7.191406 16.757813-5.246093 4.160156 1.371093 8.378906 4.269531 12.453125 7.074219 1.640625 1.125 3.332031 2.289062 5 3.335937.675781.425781 2.332031 1.6875 4.082031 3.023437 2.207031 1.683594 4.152344 3.140626 5.882812 4.394532-4.207031.363281-8.132812.292968-11.753906-.210938-6.890625-.957031-13.03125-3.707031-16.429687-7.355468zm0 0"/><path d="m349.988281 394.394531c-7.148437-36.699219-24.796875-66.398437-49.742187-83.808593-.804688-7.335938-3.078125-14.3125-6.796875-20.320313-6.316407-10.210937-25.574219-25.777344-39.855469-19.109375-1.746094.8125-3.105469 2.03125-4.199219 3.496094-6.597656-2.539063-9.878906-6.578125-14.191406-13.964844-4-6.863281-5.550781-15.28125-4.261719-23.125 2.925782-1.6875 5.789063-3.542969 8.464844-5.738281 12.558594-10.316407 20.121094-27.683594 21.960938-50.261719.296874-.0625.597656-.160156.886718-.300781 6.757813-3.230469 15.699219-9.113281 19.878906-18.796875 4.296876-9.945313 1.660157-21.792969-6.128906-27.5625-4.023437-2.972656-8.796875-4.101563-12.851562-4.914063.1875-1.488281.402344-2.972656.65625-4.441406 1-5.757813 2.582031-11.609375 4.109375-17.265625 2.503906-9.257812 5.09375-18.828125 5.421875-28.78125.292968-8.769531-1.769532-17.617188-5.8125-24.90625-3.285156-5.929688-7.617188-10.398438-12.742188-13.191406l10.269532-8.628906c1.214843-1.019532 1.71875-2.660157 1.285156-4.1875-.4375-1.527344-1.726563-2.660157-3.296875-2.886719-5.875-.855469-11.929688-.933594-17.875-.246094l9.875-18.71875c.84375-1.601563.515625-3.574219-.804688-4.816406-1.320312-1.242188-3.308593-1.449219-4.855469-.511719-10.839843 6.59375-25.179687 8.140625-45.128906 4.863281-3.960937-.652343-8.015625-1.433593-11.933594-2.195312-12.242187-2.375-24.902343-4.828125-37.742187-3.855469-24.011719 1.8125-47.085937 16.21875-60.21875 37.601562-6.820313 11.109376-11.085937 24.3125-12.332031 38.191407-1.371094 15.296875.433594 29.292969 2.347656 44.113281.210938 1.644531.425781 3.296875.632812 4.957031.453126 3.585938.78125 7.210938 1.058594 10.832031-.078125.019532-.160156.023438-.238281.046876-8.070313 2.40625-14.933594 8.207031-18.367187 15.515624-3.664063 7.800782-3.324219 17.109376.882812 24.289063 4.207031 7.175781 12.265625 11.820313 20.339844 11.820313.386718 0 .777344-.011719 1.164062-.035157.429688-.023437.832032-.132812 1.210938-.277343.398437 1.796874.835937 3.589843 1.324218 5.378906 5.910157 21.699218 17.183594 39.765625 31.863282 51.664062-.003906.089844-.023438.175782-.019532.269532.207032 9.210937-3.207031 18.421874-9.042968 25.59375-.445313.347656-.804688.78125-1.0625 1.265624-2.101563 2.371094-4.472656 4.488282-7.082032 6.269532-1.261718-2.820313-3.113281-5.226563-5.972656-6.5625-14.277344-6.664063-33.539062 8.898437-39.855468 19.109375-3.71875 6.007812-5.992188 12.988281-6.792969 20.320312-24.945313 17.410157-42.59375 47.113281-49.746094 83.8125-6.390625 32.800781-4.101563 66.335938-1.886719 98.765625.253906 3.722656.726563 10.652344 6.054688 14.324219 3.074218 2.121094 6.667968 2.328125 9.289062 2.480469 17.972656 1.042968 37.25 1.566406 57.699219 1.566406 21.191406 0 43.640625-.5625 67.1875-1.683594.210937-.007812.410156-.050781.609375-.089844 1.199219.566407 2.4375.867188 3.679688.867188.886718 0 1.777343-.152344 2.652343-.460938.070313-.023437.136719-.058593.207031-.085937 1.742188.011719 3.53125.019531 5.378907.019531 6.835937 0 14.28125-.070312 21.539062-.136718 9.210938-.085938 18.710938-.171876 26.851563-.117188.25.117188.503906.226562.773437.320312.875.308594 1.761719.460938 2.652344.460938.632813 0 1.265625-.085938 1.894531-.234375.429688.179687.890625.304687 1.382813.328125 17.9375.855469 36.441406 1.28125 55.121093 1.28125 23.589844 0 47.457032-.679688 70.773438-2.035156 2.621094-.152344 6.214844-.359375 9.289062-2.480469 5.328126-3.671875 5.800782-10.601563 6.054688-14.324219 2.214844-32.429687 4.507812-65.964844-1.886719-98.765625zm-92.984375-115.933593c1.261719-.589844 2.65625-.855469 4.136719-.855469 9.011719 0 21.128906 9.910156 25.453125 16.898437 6.484375 10.480469 7.742188 24.597656 3.367188 37.769532-3.890626 11.714843-12.046876 22.808593-23.589844 32.078124-.550782.445313-1.109375.886719-1.667969 1.324219-2.714844 2.132813-5.519531 4.339844-7.875 7.214844-3.625 4.425781-5.234375 9.644531-4.414063 14.320313.773438 4.390624 3.441407 7.703124 5.792969 10.621093 1.757813 2.183594 3.417969 4.246094 4.042969 6.40625 1.179688 4.089844-1.382812 8.714844-4.171875 11.683594-2.105469 2.234375-4.621094 4.140625-7.285156 6.15625-1.871094 1.410156-3.804688 2.875-5.640625 4.5-11.25 9.9375-17.101563 24.449219-20.941406 35.980469-.976563 2.929687-1.910157 5.917968-2.816407 8.808594-3.097656 9.925781-6.027343 19.300781-10.898437 27.867187-1.136719 2-2.347656 3.039063-2.914063 3.277344-.105469-.070313-.21875-.121094-.328125-.183594-.25-.617187-.5-2.292969.113282-5.066406l44.679687-202.121094c.296875-1.339844.519531-2.898437.753906-4.546875.582031-4.074219 1.558594-10.898438 4.203125-12.132812zm-130.886718 2.042968c5.894531 4.523438 12.058593 8.867188 18.832031 12.308594 7.738281 3.9375 15.523437 6.207031 22.945312 6.738281-4.671875 6.914063-9.15625 14.003907-13.382812 21.171875-10.484375-12.691406-20.253907-25.964844-28.394531-40.21875zm34.277343 46.09375c4.433594-7.613281 9.1875-15.144531 14.140625-22.472656 6.53125 9.5625 13.421875 18.980469 20.578125 28.046875-4.382812 6.542969-8.851562 13.015625-13.40625 19.402344-7.308593-7.980469-14.648437-16.066407-21.753906-24.375.164063-.183594.3125-.382813.441406-.601563zm39.414063-1.53125c-6.683594-8.558594-13.128906-17.410156-19.238282-26.402344 4.601563-.996093 8.824219-2.585937 12.15625-3.960937 13.386719-5.507813 25.8125-13.019531 37.820313-20.511719-9.578125 17.265625-19.871094 34.277344-30.738281 50.875zm71.398437-183.683594c5.335938 3.953126 5.980469 12.195313 3.523438 17.886719-2.625 6.078125-7.992188 10.328125-12.886719 13.113281.132812-4.726562.140625-9.441406.136719-14.050781-.007813-6.683593-.011719-13.511719.414062-20.261719 3.546875.75 6.5 1.601563 8.8125 3.3125zm-181.808593 38.117188c-5.519532.335938-11.175782-2.828125-14.097657-7.8125-2.839843-4.84375-3.054687-11.433594-.539062-16.785156 2.253906-4.804688 6.621093-8.710938 11.859375-10.695313.101562 1.773438.199218 3.546875.292968 5.300781.53125 9.847657 1.078126 19.925782 2.683594 30.003907-.066406 0-.132812-.015625-.199218-.011719zm10.765624 11.035156c-3.699218-13.570312-4.425781-27.117187-5.203124-41.460937-.441407-8.167969-.894532-16.613281-1.953126-25.003907-.210937-1.667968-.425781-3.328124-.636718-4.976562-1.855469-14.371094-3.605469-27.941406-2.3125-42.359375 1.132812-12.644531 4.996094-24.640625 11.167968-34.691406 11.804688-19.21875 32.480469-32.164063 53.957032-33.785157 11.769531-.882812 23.34375 1.359376 35.601562 3.730469 3.976563.773438 8.085938 1.570313 12.160156 2.238281 10.847657 1.78125 25.679688 3.304688 39.546876-.984374l-8.304688 15.742187c-.738281 1.402344-.585938 3.109375.390625 4.359375.972656 1.25 2.589844 1.8125 4.136719 1.4375 4.371094-1.070312 8.917968-1.644531 13.460937-1.71875l-7.792969 6.542969c-1.164062.980469-1.679687 2.539062-1.328124 4.023437.355468 1.484375 1.515624 2.640625 3 2.988282 13.089843 3.078124 19.675781 19.101562 19.226562 32.617187-.296875 9.015625-2.652344 17.722656-5.144531 26.941406-1.578125 5.835938-3.210938 11.871094-4.273438 17.992188-1.972656 11.382812-1.957031 22.96875-1.945312 34.175781.007812 6.902344.015625 14.042969-.453125 20.960938-1.808594 26.71875-11.425782 39.921874-19.179688 46.289062-4.355468 3.582031-9.417968 6.191406-14.78125 8.957031-3.710937 1.914063-7.542968 3.894531-11.179687 6.246094-8.847657 5.71875-14.6875 13.214844-16.609375 20.980469l-1.570313-1.039063c-1.136719-.75-2.570312-.878906-3.820312-.339843-1.246094.535156-2.144531 1.667968-2.375 3.007812-.484375 2.765625-1.035157 5.898438-2.5625 7.941406-1.035157 1.386719-2.960938 2.207032-3.953125 1.691406-.976563-.507812-1.738282-2.167968-2.542969-3.929687-.3125-.675781-.621094-1.351563-.953125-1.996094-4.984375-9.722656-14.914062-13.820312-24.515625-17.78125-2.601563-1.074219-5.058594-2.085937-7.40625-3.207031-19.503906-9.292969-34.757813-29.554688-41.851563-55.589844zm38.386719 62.871094c2.539063 1.210938 5.214844 2.3125 7.800781 3.378906 8.628907 3.5625 16.785157 6.925782 20.414063 14.007813.277344.539062.535156 1.105469.796875 1.675781 1.214844 2.648438 2.722656 5.945312 6.164062 7.726562 1.441407.75 2.941407 1.078126 4.417969 1.078126 3.855469 0 7.558594-2.234376 9.703125-5.09375 1.28125-1.71875 2.125-3.605469 2.722656-5.488282l2.324219 1.535156c1.289063.855469 2.953125.898438 4.28125.105469 1.328125-.785156 2.089844-2.265625 1.960938-3.808593-.910157-10.714844 10.152343-18.75 13.566406-20.957032 3.074219-1.984375 6.320313-3.6875 9.734375-5.449218-.195312 7.894531 1.792969 15.753906 5.804688 22.632812.195312.339844.394531.675781.59375 1.007812-12.519532 7.835938-25.457032 15.847657-39.179688 21.492188-3.714844 1.53125-8.625 3.375-13.65625 4.054688-10.585938 1.4375-20.742188-2.292969-27.398438-5.675782-8.308593-4.226562-15.910156-10.128906-23.246093-15.957031 3.636719-6.03125 5.984375-12.84375 6.703125-19.808594 2.113281 1.296875 4.273437 2.484375 6.492187 3.542969zm-21.804687 26.855469c16.355468 30.214843 39.722656 55.71875 62.371094 80.421875.765624.835937 1.847656 1.304687 2.972656 1.304687.078125 0 .15625 0 .234375-.007812 1.210937-.070313 2.324219-.679688 3.03125-1.664063 19.007812-26.3125 36.625-54.046875 52.367187-82.433594.109375-.195312.1875-.402343.261719-.605468 2.246094 1.855468 4.910156 3.464844 8.179687 4.761718-.644531 2.53125-1.019531 5.125-1.347656 7.414063-.214844 1.496094-.414062 2.90625-.644531 3.949219l-.449219 2.03125c-.40625.300781-.765625.683594-1.042968 1.148437l-5.148438 8.542969c-15.960938 26.503906-32.46875 53.910156-49.644531 78.5625-.847657 1.214844-3.433594 4.894531-5.511719 4.765625-1.222656-.082031-2.726562-1.441406-4.160156-2.828125-22.871094-22.105469-44.101563-46.246094-63.109375-71.753906-.039063-.054688-.085938-.09375-.128907-.140625l-4.492187-20.328125c-.230469-1.042969-.433594-2.453125-.644531-3.949219-.164063-1.140625-.339844-2.359375-.554688-3.605469 2.675782-1.59375 5.171875-3.472656 7.460938-5.585937zm-48.679688 14.242187c4.324219-6.988281 16.441406-16.898437 25.453125-16.898437 1.480469 0 2.875.265625 4.136719.855469 2.644531 1.234374 3.621094 8.058593 4.203125 12.136718.234375 1.644532.460937 3.207032.757813 4.546875l44.679687 202.117188v.003906c.59375 2.695313.371094 4.347656.128906 5-.148437.054687-.292969.125-.4375.195313-.597656-.300782-1.742187-1.320313-2.824219-3.226563-4.867187-8.566406-7.796874-17.941406-10.898437-27.867187-.902344-2.890626-1.835937-5.878907-2.8125-8.804688-3.84375-11.535156-9.695313-26.046875-20.941406-35.984375-1.839844-1.625-3.773438-3.089844-5.640625-4.5-2.664063-2.015625-5.183594-3.921875-7.289063-6.160156-2.789062-2.964844-5.351562-7.589844-4.167969-11.679688.621094-2.160156 2.28125-4.222656 4.042969-6.40625 2.351563-2.917969 5.019531-6.230469 5.789063-10.621093.824218-4.675782-.785156-9.894532-4.414063-14.320313-2.355469-2.875-5.160156-5.082031-7.871093-7.214844-.558594-.4375-1.121094-.878906-1.671876-1.324219-11.539062-9.269531-19.699218-20.363281-23.589843-32.078124-4.375-13.171876-3.117188-27.289063 3.367187-37.769532zm2.339844 208.949219c-4.707031-37.054687-7.140625-74.75-7.214844-112.085937-.003906-2.222657-1.808594-4.023438-4.03125-4.023438 0 0-.003906 0-.007812 0-2.226563.003906-4.027344 1.8125-4.023438 4.039062.074219 37.304688 2.484375 74.964844 7.140625 112.003907-15.292969-.179688-29.875-.667969-43.671875-1.472657-1.769531-.101562-3.964844-.230468-5.183594-1.066406-1.867187-1.289062-2.347656-4.71875-2.585937-8.238281-2.179687-31.910156-4.433594-64.910156 1.753906-96.671875 6.277344-32.203125 20.964844-58.585938 41.660157-75.160156.347656 4.691406 1.269531 9.417968 2.804687 14.035156 4.378906 13.191406 13.4375 25.578125 26.1875 35.824219.574219.460937 1.15625.917969 1.738281 1.375 2.480469 1.953125 4.824219 3.796875 6.621094 5.988281 2.136719 2.605469 3.125 5.457031 2.710938 7.816406-.414063 2.34375-2.21875 4.582032-4.132813 6.957032-2.078125 2.582031-4.4375 5.507812-5.511719 9.230468-1.796875 6.238282.464844 13.503906 6.046875 19.4375 2.574219 2.734375 5.480469 4.9375 8.296875 7.066406 1.828125 1.382813 3.554688 2.6875 5.164063 4.109376 9.808593 8.664062 15.109375 21.914062 18.632812 32.492187.949219 2.859375 1.871094 5.808594 2.765625 8.660156 2.964844 9.496094 6.050782 19.289063 10.972656 28.300781-23.207031 1.015626-45.304687 1.480469-66.132812 1.382813zm106.601562-1.550781c-7.203124.066406-14.582031.132812-21.351562.132812.195312-1.929687.042969-4.117187-.488281-6.511718l-36.101563-163.308594c16.507813 20.878906 34.453125 40.75 53.546875 59.203125 1.851563 1.789062 4.949219 4.785156 9.214844 5.078125.238281.015625.472656.023437.703125.023437 6.238281 0 10.230469-5.726562 11.96875-8.222656 15.191406-21.804687 29.800781-45.640625 43.972656-69.121094l-38.980468 176.347657c-.507813 2.285156-.671876 4.378906-.515626 6.242187-6.953124 0-14.554687.066406-21.96875.136719zm166.824219-9.289063c-.238281 3.515625-.71875 6.949219-2.585937 8.234375-1.21875.839844-3.414063.964844-5.183594 1.070313-14.421875.835937-29.058594 1.410156-43.707031 1.726562 4.683593-37.121093 7.101562-74.867187 7.175781-112.261719.003906-2.226562-1.796875-4.03125-4.023438-4.039062-.003906 0-.003906 0-.007812 0-2.222656 0-4.027344 1.800781-4.03125 4.023438-.074219 37.449218-2.519531 75.261718-7.257812 112.425781-22.476563.339843-44.902344.0625-66.566407-.832031 5.210938-9.253907 8.382813-19.382813 11.445313-29.1875.894531-2.851563 1.816406-5.804688 2.769531-8.664063 3.519531-10.574219 8.824219-23.824219 18.628906-32.492187 1.609375-1.417969 3.335938-2.726563 5.164063-4.109376 2.816406-2.128906 5.726562-4.328124 8.296875-7.0625 5.585937-5.933593 7.84375-13.203124 6.046875-19.4375-1.074219-3.722656-3.429688-6.648437-5.511719-9.230468-1.910156-2.375-3.71875-4.617188-4.128906-6.960938-.414063-2.355468.570312-5.207031 2.707031-7.8125 1.796875-2.195312 4.140625-4.035156 6.621094-5.988281.582031-.457031 1.164062-.914063 1.738281-1.375 12.753906-10.246094 21.808594-22.632813 26.191406-35.824219 1.53125-4.617187 2.453125-9.34375 2.804688-14.039062 20.695312 16.574218 35.382812 42.960937 41.65625 75.160156 6.191406 31.761719 3.9375 64.761719 1.757812 96.675781zm0 0"/></svg>