<svg height="512pt" viewBox="-100 0 512 512.00101" width="512pt" xmlns="http://www.w3.org/2000/svg"><path d="m103.257812 28.46875c10.855469-10.988281 24.101563-18.671875 38.300782-22.230469 5.808594-1.453125 11.824218-2.1875 17.886718-2.1875 16.964844 0 33.050782 5.617188 45.296876 15.816407 2.519531 2.101562 4.945312 4.453124 7.207031 6.992187l7.765625 8.714844-11.480469-2.121094c-16.800781-3.105469-33.167969-4.683594-48.644531-4.683594-18.054688 0-35.722656 2.148438-52.507813 6.386719l-13.90625 3.515625zm0 0" fill="#ed6d66"/><path d="m247.03125 502.257812c3.910156-24.863281 1.683594-50.558593-6.445312-74.304687-.613282-1.785156-1.257813-3.566406-1.90625-5.351563l-.21875-.597656c-2.59375-7.121094-5.046876-13.855468-5.796876-21.164062-1.152343-11.152344 1.699219-23.164063 8.976563-37.800782 2.300781-4.625 4.9375-9.359374 7.058594-13.164062 3.210937-5.78125 6.511719-11.726562 9.265625-17.839844l2.199218-4.882812 4.542969 3.910156c.351563.304688.707031.605469 1.058594.914062 24.03125 21.378907 34.246094 51.316407 38.585937 72.667969 5.519532 27.066407 5.097657 54.898438 4.117188 83.410157-.1875 5.613281-.746094 11.90625-5.003906 15.476562-3.441406 2.875-8.230469 3.132812-13.242188 3.160156l-43.921875.210938zm0 0" fill="#935252"/><path d="m161.800781 271.8125c-8.929687 0-18.1875-1.964844-26.769531-5.683594-13.648438-5.902344-26.539062-16.472656-37.28125-30.5625-3.152344-4.140625-6.195312-8.683594-7.152344-13.902344-.695312-3.824218-.226562-7.734374.226563-11.515624l6.90625-57.117188v-3.117188l3.019531-.761718c1.261719-.316406 2.523438-.636719 3.78125-.921875 16.804688-3.925781 34.046875-5.917969 51.222656-5.917969 9.601563 0 19.328125.625 28.90625 1.859375 9.390625 1.199219 18.828125 3.03125 28.042969 5.449219l2.855469.746094.128906 2.949218c.394531 9.058594 2.683594 17.925782 4.894531 26.503906l.03125.117188c3.207031 12.484375 6.234375 24.277344 4.222657 36.53125-1.390626 8.535156-5.269532 17.132812-11.859376 26.277344-8.738281 12.125-19.285156 20.863281-30.503906 25.277344-6.386718 2.515624-13.34375 3.789062-20.671875 3.789062zm0 0" fill="#935252"/><path d="m158.242188 398.414062c-2.199219 0-4.390626-.175781-6.507813-.515624-13.46875-2.175782-31.113281-13.015626-40.25-36.910157-6.878906-18.03125-7.195313-37.550781-7.5-56.425781l-.640625-2.460938 1.945312-1.644531c10.082032-8.347656 16.703126-22.507812 16.097657-34.433593l-.371094-7.332032 6.359375 3.660156c2.515625 1.449219 5.078125 2.738282 7.621094 3.835938 8.589844 3.71875 17.859375 5.683594 26.816406 5.683594 7.332031 0 14.292969-1.273438 20.6875-3.785156 4.761719-1.875 9.457031-4.5625 13.960938-7.988282l4.992187-3.796875 1.335937 6.125c3.078126 14.105469 10.226563 27.539063 19.609376 36.855469l2.671874 2.652344-2.484374 2.828125-.019532.175781c-1.847656 14.207031-3.75 28.898438-8.160156 42.800781-4.988281 15.726563-12.523438 28.183594-22.394531 37.03125-9.699219 8.671875-22.007813 13.644531-33.769531 13.644531zm0 0" fill="#935252"/><path d="m23.835938 507.933594c-4.21875 0-8.617188-.222656-11.917969-2.875-4.105469-3.3125-4.875-9.035156-5.3125-14.617188-2.394531-30.414062-4.867188-61.859375 1.511719-92.339844 7.101562-33.90625 25.210937-61.195312 49.671874-74.871093 2.484376-1.382813 5.203126-2.726563 8.3125-4.113281l4.160157-1.851563 1.300781 4.359375c6.6875 22.382812 15.84375 53.035156 7.75 80.863281-2.003906 6.875-4.90625 13.214844-7.980469 19.929688l-.105469.230469c-2.675781 5.839843-5.445312 11.878906-7.410156 18.089843-6.714844 21.125-4.332031 45.125-2.597656 62.648438l.4375 4.371093zm0 0" fill="#935252"/><path d="m72.808594 157.238281c-.714844 0-1.398438-.074219-2.039063-.214843-3.203125-.734376-5.707031-2.832032-7.464843-6.242188-3.359376-6.582031-2.964844-16.390625-.679688-21.710938 2.847656-6.601562 8.78125-12.324218 16.710938-16.109374 7.207031-3.429688 15.214843-5.003907 22.800781-6.320313 23.101562-4.015625 45.101562-6.050781 65.386719-6.050781 19.703124 0 38.65625 1.921875 56.335937 5.710937 5.941406 1.269531 12.691406 2.996094 17.550781 7.425781 7.363282 6.730469 8.550782 17.707032 9.136719 28.375.230469 4.214844.25 8.242188-2.078125 11.234376-1.839844 2.367187-5.03125 3.726562-8.761719 3.726562-.234375 0-.464843-.007812-.6875-.015625-.796875-.039063-1.648437-.136719-2.511719-.285156l-.441406-.078125-.414062-.175782-.398438-.019531-.363281-.085937c-1.808594-.449219-3.601563-1.066406-5.429687-1.710938l-.640626-.222656c-14.15625-4.929688-29.011718-8.414062-44.148437-10.363281-9.585937-1.230469-19.316406-1.851563-28.917969-1.851563-17.191406 0-34.433594 1.988282-51.25 5.910156-6.371094 1.492188-12.773437 3.292969-19.027344 5.355469-1.003906.332031-2.074218.753907-3.210937 1.203125-3.042969 1.195313-6.394531 2.515625-9.457031 2.515625zm0 0" fill="#ed6d66"/><path d="m61.699219 502.988281-.535157-.824219-.09375-.96875c-1.945312-19.992187-3.332031-41.125 2.800782-60.4375 1.96875-6.1875 4.597656-11.929687 7.382812-18.011718l.101563-.222656c2.96875-6.476563 6.011719-13.121094 8.015625-20.019532 8.109375-27.871094-.824219-57.734375-8-81.730468l-1.050782-3.515626 3.660157-1.449218c1.3125-.519532 2.621093-1.035156 3.925781-1.546875 6.71875-2.652344 13.679688-5.398438 20.132812-9.015625l5.832032-3.265625.121094 6.683593c.3125 17.449219 1.144531 35.859376 7.4375 52.335938 9.140624 23.921875 26.8125 34.777344 40.304687 36.960938 2.125.335937 4.3125.507812 6.480469.507812 11.808594 0 24.140625-4.980469 33.828125-13.660156 9.894531-8.847656 17.4375-21.3125 22.425781-37.050782 4.039062-12.75 5.941406-25.785156 7.839844-40.28125l.921875-7.039062 5.542969 4.4375c5.28125 4.226562 10.875 8.027344 16.289062 11.703125l1.066406.722656.253906.214844.230469.117187.214844.144532c3.402344 2.3125 7.046875 4.816406 10.652344 7.5l2.53125 1.886718-1.242188 2.902344c-2.957031 6.882813-6.761719 13.730469-10.121093 19.773438-2.585938 4.632812-4.898438 8.816406-7.0625 13.171875-7.289063 14.636719-10.140626 26.660156-8.984376 37.832031.75 7.304688 3.320313 14.351562 5.804688 21.167969l.183594.503906c.660156 1.820313 1.316406 3.636719 1.9375 5.457031 8.28125 24.183594 10.433594 50.320313 6.230468 75.589844l-.550781 3.328125-184.785156.867187zm0 0" fill="#f7b36f"/><path d="m77 108.230469c-.613281-6.09375-.730469-12.179688-.351562-18.089844l.140624-2.1875 2.457032-1.351563.351562-.074218c26.996094-9.800782 55.472656-14.765625 84.640625-14.765625 22.792969 0 45.316407 3.078125 66.953125 9.15625l2.6875.753906.21875 2.78125c.476563 6.035156.605469 12.5625.382813 19.40625l-.167969 5.125-4.929688-1.410156c-1.601562-.457031-3.351562-.882813-5.511718-1.34375-17.710938-3.789063-36.664063-5.710938-56.34375-5.710938-20.539063 0-41.929688 1.980469-65.394532 6.050781-6.425781 1.117188-13.242187 2.421876-19.679687 4.976563l-4.921875 1.949219zm0 0" fill="#f7b36f"/><path d="m77.625 80.917969c1.921875-12.648438 6.011719-24.382813 12.152344-34.878907 1.238281-2.113281 2.597656-4.21875 4.164062-6.441406l1.191406-1.695312h2.078126c.078124 0 .15625 0 .230468.003906 20.039063-6.101562 40.375-9.070312 62.171875-9.070312 17.824219 0 36.804688 2.09375 56.410157 6.214843h2.332031l1.175781 1.863281c4.382812 6.941407 7.851562 14.761719 10.308594 23.242188 1.382812 4.761719 2.484375 9.945312 3.277344 15.410156l.871093 6-5.859375-1.5625c-20.679687-5.511718-42.160156-8.304687-63.851562-8.304687-27.957032 0-55.339844 4.574219-81.390625 13.601562l-6.257813 2.167969zm0 0" fill="#cbe580"/><g fill="#644c4c"><path d="m262.324219 328.980469c-4.4375-3.621094-9.070313-6.875-13.015625-9.582031l-2.632813-1.804688 1.179688-2.972656c2.992187-7.539063.046875-16.21875-1.972657-20.722656-1.171874-2.617188-2.570312-5.199219-3.925781-7.695313l-.242187-.445313c-2.542969-4.667968-4.941406-9.074218-6.335938-14.035156-1.476562-5.300781-1.644531-10.660156-1.820312-16.332031l-.007813-.285156c-.066406-2.394531-.140625-4.878907-.328125-7.304688-.753906-9.640625-3.632812-16.699219-8.554687-20.980469l-1.960938-1.703124.757813-2.480469c.625-2.050781 1.109375-4.121094 1.4375-6.152344 2.015625-12.300781-1.175782-24.679687-4.257813-36.652344-1.980469-7.679687-4.015625-15.597656-4.71875-23.632812l-.519531-5.914063 5.679688 1.742188c2.863281.882812 5.378906 1.695312 7.691406 2.492187l.679687.242188c1.984375.691406 3.65625 1.261719 5.394531 1.703125l.980469.246094.742188.683593c9.066406 8.324219 14.398437 21.5 15.851562 39.167969.445313 5.367188.554688 10.859375.660157 16.175781l.015624.652344c.164063 9.09375.339844 18.492187 2.089844 27.585937 1.765625 9.125 5.136719 17.980469 8.394532 26.546876l.078124.207031c2.195313 5.765625 4.460938 11.726562 6.226563 17.722656 6.222656 21.207031 2.605469 34.730469-1.523437 42.335937l-2.300782 4.242188zm0 0"/><path d="m242.355469 314.664062c-5.378907-3.671874-11.582031-7.988281-17.105469-12.78125-1.78125-1.558593-3.574219-3.339843-5.34375-5.308593l-1.390625-1.550781.46875-2.027344c3.554687-15.320313 1.238281-31.996094-6.355469-45.742188l-1.210937-2.195312 1.46875-2.074219.015625-.03125.128906-.175781c3.027344-4.191406 5.523438-8.363282 7.421875-12.390625l2.785156-5.914063 3.996094 5.167969c3.320313 4.292969 5.3125 10.402344 5.925781 18.164063.179688 2.355468.253906 4.640624.328125 7.0625l.011719.367187c.164062 5.53125.332031 11.171875 1.824219 16.496094 1.390625 4.984375 3.90625 9.601562 6.339843 14.066406l.128907.230469c1.449219 2.675781 2.820312 5.199218 4.03125 7.894531 1.71875 3.839844 4.355469 11.328125 2.679687 18.367187l-1.347656 5.648438zm0 0"/><path d="m212.828125 287.117188c-5.484375-8.800782-9.230469-18.941407-10.839844-29.335938l-.3125-2.027344 1.464844-1.441406c1.605469-1.570312 3.109375-3.15625 4.476563-4.714844l3.996093-4.546875 2.617188 5.460938c5.195312 10.839843 7.261719 22.914062 5.96875 34.914062l-1.238281 11.527344zm0 0"/><path d="m89.414062 303.257812c-.59375-18.386718 4.949219-36.636718 15.609376-51.390624l2.191406-5.050782 4.132812 3.75c2.339844 2.121094 4.703125 4.085938 7.035156 5.832032l.925782.695312.410156 1.082031c2.695312 7.085938 2.027344 15.957031-1.878906 24.984375-3.566406 8.253906-9.289063 15.378906-15.695313 19.550782-2.0625 1.351562-4.324219 2.652343-6.90625 3.976562l-5.621093 2.886719zm0 0"/><path d="m62.695312 314.949219c-1.65625-12.628907 1.226563-26.503907 9.078126-43.652344 2.238281-4.902344 4.75-9.847656 6.960937-14.207031 3.714844-7.339844 7.519531-14.855469 10.519531-22.59375l2.6875-6.945313 4.304688 6.078125c.484375.683594.976562 1.34375 1.460937 1.980469 2.664063 3.492187 5.5 6.816406 8.417969 9.867187l3.777344 3.953126-4.910156 2.402343c-11.238282 15.527344-16.871094 35.457031-15.460938 54.675781l.210938 2.855469-2.636719 1.121094c-3.125 1.324219-6.371094 2.597656-9.234375 3.71875l-.277344.109375c-3.074219 1.214844-6.257812 2.46875-9.359375 3.796875l-4.851563 2.074219zm0 0"/><path d="m35.785156 332.949219c-2.40625-6.175781-.5-13.191407.847656-16.820313.976563-2.625 2.15625-5.085937 3.40625-7.691406l.144532-.308594c1.78125-3.683594 3.617187-7.484375 4.683594-11.503906 1.371093-5.121094 1.46875-10.523438 1.5625-15.746094l.003906-.140625c.09375-4.742187.179687-9.222656 1.085937-13.710937 1.230469-6.050782 3.820313-11.472656 6.5625-17.214844l.191407-.40625c1.613281-3.378906 3.285156-6.875 4.578124-10.433594 3.921876-10.746094 4.71875-22.421875 5.484376-33.710937.167968-2.511719.367187-5.429688.609374-8.300781 1.042969-12.457032 3.4375-28.203126 12.789063-39.632813l.214844-.285156.707031-.898438 1.074219-.386719c.761719-.277343 1.5-.566406 2.210937-.847656l.316406-.125c1.121094-.441406 2.21875-.871094 3.242188-1.207031 2.003906-.660156 4.207031-1.347656 6.734375-2.09375l5.835937-1.730469-7.300781 60.324219c-.445312 3.625-.949219 7.726563-.234375 11.597656.199219 1.082031.511719 2.203125.960938 3.429688l.464844 1.269531-.402344 1.296875c-3.203125 10.25-8.121094 19.980469-12.878906 29.390625-2.4375 4.789062-4.800782 9.472656-6.972657 14.214844-8.304687 18.152344-11.074219 32.761718-8.71875 45.976562l.519531 2.910156-2.628906 1.351563c-1.046875.539063-2.085937 1.074219-3.113281 1.648437-5.4375 3.039063-10.675781 6.839844-15.5625 11.289063l-4.304687 3.925781zm0 0"/></g><path d="m308.335938 403.832031c-4.316407-21.191406-14.289063-50.628906-37.300782-72.519531 5.304688-8.777344 9.582032-23.726562 2.753906-47.003906-1.816406-6.199219-4.132812-12.277344-6.375-18.15625-3.355468-8.8125-6.53125-17.136719-8.230468-25.953125-1.683594-8.726563-1.847656-17.542969-2.023438-26.878907-.105468-5.59375-.214844-11.375-.683594-17.09375-1.230468-15.003906-5.183593-26.996093-11.75-35.824218 2.832032-.847656 5.273438-2.414063 6.953126-4.570313 3.441406-4.429687 3.132812-10.160156 2.925781-13.949219-.628907-11.503906-1.953125-23.382812-10.457031-31.15625-1.757813-1.605468-3.691407-2.894531-5.714844-3.949218.824218-18.347656-.707032-33.984375-4.691406-47.753906-5.0625-17.492188-14.191407-32.113282-26.402344-42.28125-17.742188-14.769532-43.328125-20.304688-66.761719-14.445313-22.265625 5.570313-42.0625 20.769531-54.308594 41.691406-11.375 19.4375-16.007812 43.316407-13.035156 67.246094.015625.132813.054687.253906.082031.382813-6.695312 4.097656-11.738281 9.605468-14.421875 15.851562-2.707031 6.304688-3.152343 17.4375.792969 25.152344 2.292969 4.492187 5.820312 7.382812 10.195312 8.363281.132813.027344.269532.039063.402344.066406-6.519531 11.273438-8.472656 24.636719-9.390625 35.570313-.234375 2.777344-.425781 5.597656-.609375 8.328125-.78125 11.527343-1.519531 22.414062-5.246094 32.625-1.273437 3.480469-2.875 6.832031-4.570312 10.378906-2.746094 5.746094-5.589844 11.6875-6.921875 18.257813-.996094 4.886718-1.085937 9.792968-1.171875 14.539062-.097656 5.230469-.1875 10.171875-1.429688 14.828125-.96875 3.640625-2.644531 7.109375-4.414062 10.785156-1.289062 2.675781-2.621094 5.441407-3.703125 8.347657-3.226563 8.671874-2.953125 16.855468.683594 22.765624-14.082031 15.289063-24.375 35.972657-29.363281 59.792969-6.503907 31.042969-4.003907 62.789063-1.589844 93.492188.484375 6.1875 1.453125 13.15625 6.816406 17.460937 4.40625 3.542969 10.203125 3.777344 14.386719 3.777344.332031 0 .65625 0 .964843-.003906l265.515626-1.238282c4.371093-.023437 10.980468-.054687 15.824218-4.109374 5.542969-4.640626 6.242188-11.960938 6.464844-18.457032.984375-28.765625 1.402344-56.863281-4.195312-84.359375zm-79.71875-2.574219c.804687 7.804688 3.460937 15.097657 6.035156 22.144532.710937 1.957031 1.421875 3.910156 2.09375 5.871094 8.074218 23.597656 10.160156 49.042968 6.070312 73.640624l-177.160156.828126.03125-.519532c.050781-.886718-.1875-1.722656-.636719-2.417968-1.851562-19.015626-3.351562-39.992188 2.636719-58.835938 1.914062-6.027344 4.53125-11.734375 7.300781-17.773438 3.015625-6.578124 6.132813-13.378906 8.226563-20.578124 8.332031-28.628907-.601563-59.222657-8.011719-83.988282 1.390625-.554687 2.777344-1.101562 4.15625-1.644531 6.894531-2.710937 13.972656-5.515625 20.632813-9.246094.3125 17.289063 1.085937 36.382813 7.699218 53.695313 9.746094 25.515625 28.808594 37.121094 43.398438 39.472656 2.34375.375 4.722656.5625 7.117187.5625 12.734375 0 25.957031-5.234375 36.507813-14.675781 10.425781-9.332031 18.355468-22.394531 23.5625-38.828125 4.25-13.414063 6.21875-27.378906 7.988281-40.96875 5.359375 4.285156 11.027344 8.144531 16.550781 11.890625.292969.199219.585938.398437.882813.597656.148437.132813.300781.265625.472656.378906.132813.085938.273437.15625.414063.226563 3.515624 2.390625 7.0625 4.835937 10.503906 7.402344-2.851563 6.640624-6.445313 13.121093-9.941406 19.40625-2.402344 4.320312-4.886719 8.789062-7.144532 13.328124-7.636718 15.351563-10.621094 28.070313-9.386718 40.03125zm-153.210938-128.296874c2.15625-4.714844 4.566406-9.46875 6.894531-14.0625 3.753907-7.410157 7.601563-15.007813 10.679688-22.957032.511719.71875 1.027343 1.417969 1.542969 2.089844 2.769531 3.632812 5.683593 7.039062 8.714843 10.207031-.574219.28125-1.097656.6875-1.496093 1.238281-11.84375 16.382813-17.679688 37.15625-16.207032 57.320313-2.96875 1.261719-6.015625 2.460937-9.128906 3.6875-3.21875 1.265625-6.492188 2.554687-9.742188 3.949219-1.550781-11.816406 1.257813-25.109375 8.742188-41.472656zm19.394531-62.394532 6.921875-57.183594c.015625-.121093.003906-.234374.007813-.347656 1.230469-.3125 2.460937-.621094 3.695312-.90625 25.851563-6.039062 52.339844-7.382812 78.730469-3.992187 9.320312 1.199219 18.535156 2.992187 27.539062 5.359375.402344 9.351562 2.734376 18.484375 5.011719 27.328125 3.117188 12.105469 6.058594 23.539062 4.1875 35-1.296875 7.917969-4.945312 15.960937-11.160156 24.585937-8.289063 11.5-18.21875 19.761719-28.722656 23.894532-13.363281 5.257812-29.546875 4.589843-44.394531-1.84375-13.011719-5.636719-25.351563-15.773438-35.6875-29.320313-2.84375-3.726563-5.585938-7.78125-6.394532-12.195313-.597656-3.25-.15625-6.875.265625-10.378906zm149.8125 100.792969c-5.738281-3.910156-11.535156-7.980469-16.738281-12.503906-1.746094-1.515625-3.40625-3.183594-4.992188-4.960938 3.785157-16.296875 1.34375-33.929687-6.753906-48.574219.050782-.066406.097656-.128906.148438-.195312 3.191406-4.433594 5.78125-8.761719 7.796875-13.035156 2.839843 3.671875 4.550781 9.035156 5.09375 16.027344.1875 2.371093.253906 4.738281.332031 7.246093.167969 5.71875.34375 11.628907 1.96875 17.449219 1.515625 5.410156 4.144531 10.234375 6.683594 14.902344 1.464844 2.683594 2.84375 5.21875 4.023437 7.84375 1.355469 3.027344 3.867188 9.796875 2.4375 15.800781zm-151.199219-8.230469c-.566406-17.316406 4.71875-34.898437 14.863282-48.925781.152344-.214844.28125-.441406.386718-.671875 2.382813 2.167969 4.828126 4.195312 7.320313 6.070312 4.972656 13.097657-4.472656 32.238282-16.019531 39.761719-2.117188 1.378907-4.308594 2.613281-6.550782 3.765625zm31.96875-37.308594c2.640626 1.515626 5.320313 2.867188 8.03125 4.039063 9.234376 4 18.960938 6.015625 28.398438 6.015625 7.722656-.003906 15.25-1.351562 22.152344-4.066406 5.148437-2.027344 10.152344-4.898438 14.914062-8.527344 3.261719 14.933594 10.695313 28.902344 20.703125 38.839844-.503906.582031-.851562 1.308594-.957031 2.128906-1.828125 14.089844-3.714844 28.65625-8.035156 42.28125-4.765625 15.039062-11.914063 26.898438-21.253906 35.253906-10.738282 9.613282-24.554688 14.164063-36.960938 12.160156-12.371094-1.992187-28.628906-12.074218-37.152344-34.386718-6.632812-17.367188-6.941406-36.527344-7.238281-55.054688-.007813-.332031-.066406-.652344-.144531-.960937 10.460937-8.664063 18.238281-23.910157 17.542968-37.722657zm85.238282-13.585937c4.851562 10.125 6.796875 21.605469 5.601562 32.765625-5.132812-8.226562-8.742187-17.867188-10.285156-27.828125 1.597656-1.558594 3.160156-3.203125 4.683594-4.9375zm38.476562-38.761719c.171875 9.265625.351563 18.847656 2.167969 28.253906 1.832031 9.507813 5.28125 18.550782 8.613281 27.296876 2.1875 5.734374 4.445313 11.660156 6.171875 17.554687 5.6875 19.394531 2.859375 31.820313-1.203125 39.304687-4.285156-3.5-8.789062-6.703124-13.277344-9.785156 3.488282-8.789062.367188-18.46875-2.039062-23.835937-1.304688-2.914063-2.828125-5.707031-4.296875-8.40625-2.4375-4.46875-4.734375-8.6875-6-13.214844-1.363281-4.871094-1.515625-10.042969-1.679687-15.519531-.074219-2.488282-.148438-5.066406-.347657-7.628906-.835937-10.75-4.175781-18.707032-9.914062-23.691407.671875-2.230469 1.195312-4.453125 1.558593-6.679687 2.144532-13.128906-1.148437-25.929688-4.339843-38.308594-1.941407-7.546875-3.933594-15.3125-4.597657-22.960938 2.539063.777344 5.0625 1.582032 7.558594 2.453126l.648438.226562c1.863281.652344 3.765625 1.308594 5.75 1.804688 8.292968 7.617187 13.203125 19.894531 14.570312 36.546874.445313 5.46875.554688 11.121094.65625 16.589844zm-24.394531-111.148437c-36.589844-7.835938-76.90625-7.730469-123.253906.308593-6.714844 1.164063-13.757813 2.542969-20.46875 5.199219-.59375-5.851562-.703125-11.6875-.339844-17.433593.023437-.007813.046875-.011719.070313-.019532 47.613281-17.335937 100.617187-19.3125 149.402343-5.613281.464844 5.953125.589844 12.253906.371094 18.960937-1.957031-.554687-3.90625-1.003906-5.78125-1.402343zm-82.167969-92.203125c20.988282-5.25 43.84375-.335938 59.648438 12.820312 2.398437 1.996094 4.65625 4.199219 6.78125 6.574219-37.15625-6.863281-70.980469-6.285156-102.863282 1.765625 10.195313-10.328125 22.808594-17.75 36.433594-21.160156zm-49.308594 37.941406c1.242188-2.125 2.585938-4.171875 3.988282-6.160156.0625.003906.125.015625.1875.015625.390625 0 .785156-.058594 1.175781-.175781 35.660156-10.871094 73.820313-11.777344 116.65625-2.773438.308594.066406.613281.085938.914063.082031 4.15625 6.570313 7.484374 14.035157 9.851562 22.21875 1.359375 4.695313 2.40625 9.640625 3.160156 14.871094-48.285156-12.875-100.355468-10.976563-147.578125 5.382813 1.820313-11.992188 5.746094-23.386719 11.644531-33.460938zm-26.359374 100.890625c-2.699219-5.277344-2.460938-13.878906-.5625-18.300781 2.453124-5.714844 7.695312-10.714844 14.757812-14.078125 6.769531-3.222657 14.464844-4.726563 21.765625-5.996094 23.015625-3.992187 44.480469-5.988281 64.699219-5.988281 19.582031 0 37.992187 1.875 55.488281 5.617187 5.441406 1.164063 11.585937 2.722657 15.691406 6.472657 6.261719 5.722656 7.308594 15.804687 7.847657 25.640624.183593 3.433594.230468 6.671876-1.238282 8.5625-1.363281 1.75-4.039062 2.265626-6.101562 2.171876-.664063-.03125-1.335938-.117188-2.011719-.238282-.4375-.179687-.890625-.277344-1.355469-.296875-1.640625-.40625-3.324218-.988281-5.0625-1.597656l-.65625-.230469c-14.421875-5.023437-29.542968-8.574218-44.945312-10.550781-27.34375-3.511719-54.796875-2.121094-81.59375 4.136719-6.542969 1.527344-13.058594 3.359375-19.367188 5.445312-1.125.371094-2.257812.816406-3.457031 1.289063-3.144531 1.242187-6.703125 2.648437-9.121094 2.105469-2.015625-.453126-3.578125-1.8125-4.777343-4.164063zm-26.484376 168.570313c.953126-2.558594 2.144532-5.035157 3.410157-7.660157 1.855469-3.851562 3.777343-7.832031 4.941406-12.210937 1.492187-5.605469 1.597656-11.273438 1.699219-16.753906.085937-4.585938.164062-8.914063 1.011718-13.082032 1.140626-5.59375 3.644532-10.835937 6.296876-16.382812 1.703124-3.566406 3.46875-7.25 4.871093-11.09375 4.121094-11.289063 4.929688-23.265625 5.714844-34.847656.1875-2.738282.371094-5.476563.601563-8.199219 1-11.953125 3.277343-27.03125 12.054687-37.613281.042969-.050782.070313-.109376.105469-.160157.914062-.332031 1.796875-.675781 2.632812-1.007812 1.089844-.429688 2.121094-.835938 3.03125-1.136719 2.179688-.71875 4.390625-1.398438 6.613282-2.054688l-6.570313 54.273438c-.472656 3.914062-1.011719 8.347656-.195313 12.800781.261719 1.410157.65625 2.769531 1.140626 4.085938-3.101563 9.917969-7.9375 19.5-12.636719 28.773437-2.363281 4.664063-4.804688 9.488282-7.03125 14.351563-8.652344 18.910156-11.527344 34.335937-9.019531 48.359375-1.089844.550781-2.175782 1.121094-3.246094 1.714844-5.796875 3.242187-11.246094 7.214843-16.296875 11.820312-1.964844-5.058594-.140625-11.261719.871093-13.976562zm-15.695312 186.410156c-4.222656.023437-7.925781-.117188-10.265625-1.996094-2.855469-2.292969-3.457031-7.09375-3.828125-11.808594-2.371094-30.136718-4.820312-61.292968 1.441406-91.203125 6.863282-32.78125 24.253906-59.097656 47.707032-72.203125 2.566406-1.433594 5.25-2.734375 7.984374-3.953125 7.054688 23.601563 15.324219 52.542969 7.746094 78.597657-1.929687 6.628906-4.785156 12.863281-7.816406 19.46875-2.746094 5.992187-5.589844 12.195312-7.65625 18.691406-6.710938 21.121094-4.777344 43.894531-2.757812 64.253906zm279.785156-16.019532c-.164062 4.757813-.589844 10.042969-3.585937 12.550782-2.414063 2.023437-6.429688 2.207031-10.683594 2.226562l-39.222656.183594c4.011719-25.488281 1.75-51.789062-6.605469-76.210938-.6875-2.011718-1.417969-4.015624-2.152344-6.023437-2.511718-6.890625-4.882812-13.402344-5.585937-20.210937-1.070313-10.375 1.660156-21.691407 8.585937-35.613282 2.175782-4.371094 4.613282-8.757812 6.972656-13 3.25-5.84375 6.582032-11.859375 9.417969-18.132812.503907.429687 1.011719.855468 1.503907 1.296875 23.183593 20.617187 33.089843 49.695312 37.316406 70.460937 5.425781 26.632813 5.003906 54.210938 4.039062 82.472656zm0 0"/></svg>