<svg height="512pt" viewBox="-97 0 512 512.00033" width="512pt" xmlns="http://www.w3.org/2000/svg"><path d="m75.140625 166.144531c-.382813-2.367187-.789063-4.722656-1.1875-7.054687l-.175781-1.023438c-1.699219-9.820312-3.445313-19.910156-3.847656-30.152344-.863282-22.023437 1.515624-43.886718 7.082031-64.976562-3.820313-6.929688-7.53125-15.101562-6.148438-23.339844.777344-4.632812 3.785157-9.03125 7.847657-11.484375 2.003906-1.21875 4.1875-1.863281 6.296874-1.863281 1.125 0 2.222657.179688 3.265626.53125-3.089844-3.699219-2.691407-9.808594.894531-13.671875 2.644531-2.847656 6.757812-4.476563 11.289062-4.476563.808594 0 1.628907.054688 2.4375.160157 4.195313.539062 8.542969 2.351562 13.679688 5.707031 3.0625-5.261719 9.300781-8.394531 16.738281-8.394531.824219 0 1.648438.039062 2.453125.125 7.429687.773437 14.085937 4.308593 20.519531 7.726562 2.742188-5.601562 8.707032-9.5625 14.882813-9.871093.269531-.015626.542969-.023438.816406-.023438 5.972656 0 11.839844 3.261719 14.949219 8.308594 3.625-2.917969 8.453125-4.601563 13.296875-4.601563 2.425781 0 4.757812.40625 6.9375 1.203125 6.617187 2.4375 11.910156 8.730469 13.175781 15.667969 1.074219-3.007813 4.335938-5.023437 8.175781-5.023437.960938 0 1.898438.132812 2.789063.398437 3.46875 1.03125 6.625 3.648437 9.925781 8.234375 11.257813 15.699219 15.507813 37.058594 13 65.300781-.667969 7.511719-1.53125 14.988281-2.292969 21.585938-.902344 7.867187-1.929687 16.785156-2.605468 25.589843l-.304688 3.964844-9.757812-.691406.253906-3.964844c.671875-10.574218-.234375-20.621094-2.691406-29.867187-2.25-8.453125-5.496094-14.96875-9.929688-19.921875-5.230469-5.851563-12.4375-9.339844-19.273438-9.339844l-.394531.003906c-6.234375.113282-11.722656 2.808594-17.535156 5.660156l-.285156.140626c-2.960938 1.445312-5.753907 2.808593-8.734375 3.851562-4.285156 1.515625-8.839844 2.285156-13.53125 2.285156-6.648438 0-13.191406-1.566406-18.914063-4.539062-1.960937-1.015625-3.800781-2.164063-5.75-3.382813-3.820312-2.390625-7.730469-4.835937-12.140625-5.847656-2.078125-.472656-4.152344-.714844-6.15625-.714844-5.316406 0-10.441406 1.695313-15.234375 5.035157-9.640625 6.714843-21.359375 24.160156-24.3125 46.601562-1.480469 11.261719-1.359375 23.226562.351563 34.605469l.589844 3.921875-9.808594 1.558594zm0 0" fill="#644c4c"/><path d="m172.738281 313.808594c-1.5625 0-3.089843-.203125-4.53125-.605469-3.585937-.984375-6.714843-3.160156-9.742187-5.261719-2.1875-1.523437-4.441406-3.089844-6.898438-4.234375-2.070312-.964843-4.390625-1.683593-6.632812-2.382812l-.140625-.042969c-5.386719-1.664062-10.449219-3.230469-13.007813-7.824219-1.15625-2.078125-1.554687-4.550781-1.902344-6.730469-.28125-1.6875-.539062-3.265624-1.0625-4.816406-2.515624-7.390625-9.929687-11.101562-17.101562-14.691406-2.734375-1.375-5.296875-2.660156-7.714844-4.15625-10.503906-6.542969-18.421875-18.472656-22.300781-33.597656-3.019531-11.8125-3.464844-24.261719-3.890625-36.296875l-.179688-4.746094c-.316406-8.089844-1.4375-15.796875-2.492187-22.265625l-.648437-3.964844 9.910156-1.574218.59375 3.996093c.695312 4.691407 1.671875 9.21875 2.894531 13.445313 1.480469 5.113281 3.957031 10.390625 7.792969 16.613281.476562.785156 2.300781 2.945313 5.246094 6.410156l.132812.15625c3.335938 3.941407 6.414062 7.609375 7.433594 9.175781l.289062.445313.160156.503906.070313.019531.003906-.015624c5.902344-18.933594 26.464844-32.675782 48.898438-32.675782 1.007812 0 2.027343.027344 3.03125.082032 26.960937 1.503906 47.058593 19.796874 56.640625 30.566406 6.875-13.96875 14.414062-30.601563 18.632812-48.070313 1.757813-7.273437 2.871094-14.417969 3.304688-21.234375l.257812-4.019531 9.859375.699219-.304687 4.011718c-.769532 10.015626-.988282 18.824219-.671875 26.929688 1.117187 28.941406-8.101563 58.214844-16.035157 77.675781-2.238281 5.476563-5.035156 11.671875-9.949218 15.914063-1.816406 1.578125-3.90625 2.859375-5.929688 4.101562-2.058594 1.265625-4.1875 2.570313-6.039062 4.191406-5.175782 4.527344-7.734375 10.839844-10.445313 17.519532-.476562 1.195312-.945312 2.351562-1.4375 3.507812-3.398437 8.066406-6.898437 13.402344-11.335937 17.292969-4.308594 3.78125-9.691406 5.949219-14.757813 5.949219zm-8.78125-105.335938c-5.554687 0-14.816406 6.808594-21.074219 13.132813-1.640624 1.671875-2.933593 3.566406-3.828124 5.621093-.894532 2.035157-1.347657 4.085938-1.355469 6.109376-.039063 4.605468 2.300781 8.949218 5.960937 11.09375 1.53125.894531 3.339844 1.371093 5.230469 1.371093 2.710937 0 5.238281-.992187 6.929687-2.726562 1.558594-1.59375 2.410157-3.875 2.34375-6.269531l-.003906-.113282c0-.167968-.011718-.324218-.027344-.488281l-.484374-4.769531 10.6875.84375.0625 3.628906c.015624.769531.140624 1.550781.371093 2.320312.664063 2.222657 2.128907 4.078126 4.027344 5.101563 1.230469.664063 2.667969 1.011719 4.167969 1.011719 2.867187 0 5.675781-1.25 7.523437-3.351563 2.707031-3.078125 3.429688-8.042969 1.75-12.070312-1.695312-4.089844-5.226562-6.75-8.636719-9.324219l-.71875-.550781c-1.433593-1.09375-2.929687-2.730469-4.375-4.316407l-.082031-.089843c-2.113281-2.324219-4.289062-4.722657-6.523437-5.78125-.550782-.253907-1.1875-.382813-1.945313-.382813zm0 0" fill="#644c4c"/><path d="m15.871094 507.90625c-2.527344 0-6.140625-.3125-8.3125-3.003906-1.585938-1.980469-1.902344-4.707032-2.089844-7.328125-2.273438-29.972657-1.789062-60.375 1.441406-90.351563 2.410156-22.273437 7.636719-49.914062 26.808594-66.097656 9.058594-7.640625 20.40625-12.03125 31.378906-16.277344l3.09375-1.191406c7.710938-3.003906 15.835938-6.445312 22.953125-11.210938l7.464844-4.992187-1.28125 8.886719c-1.644531 11.433594-.464844 23.425781 3.414063 34.679687 4.875 14.1875 13.855468 26.640625 25.289062 35.0625.90625.667969 3.023438 2.226563 5.148438 2.226563.429687 0 .867187-.066406 1.300781-.203125 1.976562-.632813 3.066406-2.660157 4.191406-5.046875l.105469-.234375c4.625-9.765625 13.460937-17.636719 23.660156-21.101563l1.238281-.648437 1.269531.175781c15.078126 2.085938 28.949219 12.207031 35.339844 25.777344 20.121094-21.335938 30.460938-51.527344 27.722656-80.765625l-.773437-8.226563 6.933594 4.5c4.171875 2.710938 8.628906 5.078125 12.9375 7.371094l.121093.0625c4.207032 2.214844 7.996094 4.238281 11.652344 6.519531 26.921875 16.75 46.582032 48.472657 53.929688 87.023438 6.808594 35.765625 3.773437 74.492187.898437 100.507812l-.421875 3.792969-3.808594-.238281c-6.21875-.394531-12.921874-.582031-20.5-.582031-8.441406 0-16.921874.234374-25.125.460937l-.230468.007813c-1.894532.058593-3.800782.109374-5.726563.160156l-3.632812.09375-.441407-3.605469c-4.414062-36.035156-5.953124-72.609375-4.566406-108.710937-.71875 17.132812-.714844 34.640624-.046875 52.039062l.15625 4.066406-4.066406.085938c-33.1875.710937-66.980469 1.070312-100.445313 1.070312-24.378906 0-48.984374-.191406-73.132812-.570312l-4.058594-.0625.121094-4.058594c.65625-21.808594.605469-43.820312-.15625-65.417969 1.355469 40.222657.316406 81.015625-3.148438 121.253907l-.328124 3.773437-3.785157-.121094c-.9375-.027343-1.875-.058593-2.800781-.078125-5.628906-.164062-11.976562-.347656-18.121094-.347656-6.8125 0-12.710937.226562-18.042968.691406-1.386719.125-2.507813.183594-3.527344.183594zm0 0" fill="#288fc9"/><g fill="#ffdac4"><path d="m246.429688 198.726562c1.894531-10.90625 2.671874-21.359374 2.300781-31.074218-.058594-1.636719-.101563-3.257813-.121094-4.867188l-.070313-5.515625 5.261719 1.644531c5.59375 1.742188 10.433594 6.261719 12.636719 11.789063 2.644531 6.59375 1.824219 14.757813-2.148438 21.296875-2.757812 4.523438-6.9375 8.316406-12.085937 10.96875l-7.152344 3.679688zm0 0"/><path d="m104.945312 205.75c-1.09375-1.3125-2.402343-2.863281-3.964843-4.699219-3.8125-4.484375-4.789063-5.710937-5.183594-6.3125l-.066406-.101562c-3.832031-6.234375-6.300781-11.503907-7.773438-16.582031-4.175781-14.460938-5.363281-31.96875-3.253906-48.042969 2.953125-22.433594 14.660156-39.855469 24.292969-46.554688 4.746094-3.320312 9.894531-5.007812 15.292968-5.007812 1.980469 0 4.015626.234375 6.050782.699219 4.402344 1.007812 8.308594 3.449218 12.082031 5.8125 1.769531 1.101562 3.785156 2.355468 5.789063 3.402343 5.71875 2.964844 12.285156 4.535157 18.980468 4.535157 4.699219 0 9.246094-.765626 13.519532-2.269532 3.097656-1.101562 6.101562-2.574218 9.007812-4 5.550781-2.726562 11.292969-5.542968 17.515625-5.660156.136719 0 .285156-.003906.4375-.003906 6.78125 0 13.953125 3.484375 19.1875 9.324218 4.425781 4.945313 7.667969 11.453126 9.917969 19.890626 4.070312 15.335937 3.859375 32.519531-.617188 51.078124-3.925781 16.265626-10.617187 31.378907-16.007812 42.726563l-2.453125 5.167969-4.011719-4.078125c-15.714844-15.980469-34.441406-25.34375-52.726562-26.359375-.972657-.054688-1.964844-.082032-2.945313-.082032-19.597656 0-38.261719 10.609376-46.441406 26.398438l-2.773438 5.347656zm65.316407-56.050781.203125 3.789062c.183594 3.5 1.09375 5.890625 2.859375 7.523438 2.558593 2.375 6.460937 2.539062 9.316406 2.660156l19.535156.832031c1.117188.046875 2.273438.09375 3.484375.09375 2.890625 0 7.132813-.246094 10.539063-2.371094 3.367187-2.105468 5.785156-5.894531 6.808593-10.671874.929688-4.332032.628907-9.03125.390626-12.808594l-.011719-.152344c-.003907-.0625-.011719-.113281-.015625-.144531-.703125-.554688-3.5625-.839844-5.285156-1.011719-2.769532-.277344-6.714844-.53125-11.726563-.761719-9.734375-.4375-19.226563-.585937-19.316406-.585937-.003907 0-.003907 0-.007813 0-.683594 0-1.644531-.078125-2.65625-.15625l-.210937-.019532c-1.5625-.125-3.3125-.269531-4.96875-.269531-2.8125 0-4.730469.410157-5.867188 1.261719-2.285156 1.710938-2.699219 5.632812-2.804687 8.863281l-.125 3.867188h-20.886719l-.113281-3.878907c-.144532-4.78125-1.011719-7.511718-2.808594-8.855468-1.117188-.835938-3.085938-1.257813-5.859375-1.257813-1.65625 0-3.402344.144531-4.945313.269531l-.296874.023438c-1.03125.082031-1.925782.148438-2.660157.148438-.035156.003906-9.539062.152343-19.265625.585937-4.992187.230469-8.933594.488281-11.71875.765625-1.722656.171875-4.570312.453125-5.277344 1.003906-.007812.035156-.015624.085938-.019531.152344-.253906 3.816406-.566406 8.558594.371094 12.960938 1.027344 4.777343 3.445313 8.570312 6.804687 10.671874 3.40625 2.125 7.65625 2.371094 10.550782 2.371094 1.191406 0 2.347656-.046875 3.460937-.09375l19.550781-.832031c2.855469-.121094 6.769532-.289063 9.320313-2.65625 1.769531-1.644531 2.679687-4.035156 2.867187-7.527344l.199219-3.789062zm0 0"/><path d="m165.441406 359.03125c-2.222656 0-4.371094-1.394531-6.210937-2.699219-20.183594-14.496093-39.097657-31.03125-56.226563-49.152343l-2.371094-2.511719 2.136719-2.710938c6.703125-8.519531 9.148438-19.128906 6.53125-28.378906l-2.523437-8.925781 8.222656 4.292968c5.5 2.871094 11.554688 6.480469 13.761719 13.003907.507812 1.492187.78125 3.066406 1.058593 4.824219.371094 2.269531.757813 4.636718 1.914063 6.707031 2.582031 4.640625 7.898437 6.273437 13.039063 7.855469l.171874.050781c2.332032.726562 4.53125 1.414062 6.601563 2.375 2.460937 1.152343 4.707031 2.714843 6.878906 4.226562 3.164063 2.195313 6.152344 4.273438 9.765625 5.277344 1.414063.394531 2.917969.59375 4.480469.59375 5.136719 0 10.550781-2.167969 14.859375-5.945313 5.71875-5.011718 9.074219-11.898437 11.363281-17.335937.480469-1.136719.949219-2.28125 1.410157-3.4375 1.679687-4.152344 3.109374-7.5625 4.992187-10.753906l5.25-8.902344 2.109375 10.117187c1.335938 6.402344 5.074219 12.6875 10.808594 18.179688l2.902344 2.773438-54.828126 56.882812c-1.695312 1.753906-3.25 3.214844-5.304687 3.535156-.277344.039063-.53125.058594-.792969.058594zm0 0"/><path d="m205.605469 164.523438c-1.296875 0-2.59375-.050782-3.691407-.097657l-19.265624-.820312c-3.558594-.152344-6.941407-.46875-9.273438-2.628907-2.800781-2.59375-2.996094-6.972656-2.851562-10.5.023437-.488281.023437-1.015624.03125-1.585937l.003906-.566406c.039062-7.042969.714844-9.796875 2.789062-11.355469l.132813-.097656.136719-.085938c1.203124-.757812 2.777343-1.066406 5.433593-1.066406 1.832031 0 3.761719.148438 4.917969.238281l.167969.015625c1.101562.089844 2.144531.167969 2.964843.1875 7.886719.082032 26.199219.683594 32.90625 1.542969l3.320313.425781.167969 3.339844c.140625 2.839844.207031 6.546875-.546875 10.066406-1.003907 4.703125-3.476563 8.578125-6.78125 10.640625-3.34375 2.082031-7.402344 2.347657-10.5625 2.347657zm0 0"/><path d="m148.917969 245.757812c-1.867188 0-3.671875-.476562-5.222657-1.382812-3.636718-2.128906-5.964843-6.453125-5.9375-11.019531.027344-4.136719 1.914063-8.40625 5.175782-11.707031 6.261718-6.335938 15.988281-13.179688 20.785156-13.179688.554688 0 1.105469.085938 1.636719.25l.269531.082031.253906.121094c2.203125 1.03125 4.367188 3.410156 6.464844 5.707031 1.425781 1.582032 2.996094 3.316406 4.519531 4.480469l.707031.539063c3.386719 2.550781 6.902344 5.195312 8.609376 9.292968 1.695312 4.082032.988281 8.910156-1.753907 12.015625-1.828125 2.082031-4.617187 3.328125-7.453125 3.328125-1.484375 0-2.921875-.351562-4.152344-1.011718-1.867187-.996094-3.332031-2.84375-3.996093-5.058594-.621094-2.082032-.445313-4.179688.492187-5.898438l-13.5625-1.066406c1.425782 1.386719 2.28125 3.390625 2.34375 5.5625.074219 2.363281-.769531 4.640625-2.316406 6.222656-1.6875 1.730469-4.191406 2.722656-6.863281 2.722656zm0 0"/><path d="m114.324219 164.523438c-3.164063 0-7.222657-.265626-10.5625-2.347657-3.300781-2.070312-5.769531-5.945312-6.773438-10.636719-.738281-3.464843-.695312-7.027343-.554687-10.058593l.15625-3.351563 3.332031-.429687c6.707031-.859375 25.019531-1.457031 32.957031-1.539063.789063-.019531 1.820313-.101562 2.890625-.1875 1.136719-.09375 3.207031-.257812 5.128907-.257812 2.65625 0 4.226562.308594 5.417968 1.066406l.132813.085938.125.09375c2.0625 1.550781 2.769531 4.421874 2.804687 11.386718 0 .816406.011719 1.542969.027344 2.179688.15625 3.460937-.023438 7.832031-2.847656 10.445312-2.316406 2.160156-5.707032 2.476563-9.265625 2.632813l-19.28125.816406c-1.09375.054687-2.394531.101563-3.6875.101563zm0 0"/><path d="m73.554688 203.011719c-5.890626-.601563-11.449219-3.75-14.875-8.429688-4.230469-5.792969-5.167969-13.808593-2.386719-20.421875 2.429687-5.765625 7.519531-10.242187 13.613281-11.984375l4.324219-1.238281.726562 4.4375c1.113281 6.824219 2.296875 14.898438 2.617188 23.046875l.238281 6.53125c.042969 1.300781.089844 2.605469.144531 3.914063l.1875 4.609374zm0 0"/></g><path d="m247.5625 455.429688-.1875-3.800782h-3.804688c-.175781 0-.335937.011719-.472656.027344-32.875.707031-66.695312 1.0625-100.527344 1.0625-24.339843 0-48.902343-.191406-73.007812-.566406l-3.914062-.0625-.144532 3.910156c-.597656 15.714844-1.578125 31.632812-2.917968 47.308594l-.367188 4.269531 4.28125.070313c2.375.039062 4.746094.070312 7.101562.070312h59.441407c10.261719-.011719 20.847656-.140625 30.03125-.261719 9.785156-.125 19.898437-.253906 29.957031-.253906 11.222656 0 20.984375.164063 29.855469.503906 4.070312.152344 8.363281.226563 13.125.226563 3.511719 0 7.359375-.042969 11.765625-.128906l4.429687-.085938-.535156-4.394531c-1.917969-15.683594-3.296875-31.800781-4.109375-47.894531zm0 0" fill="#5bd0fc"/><path d="m195.71875 382.230469 2.9375 4.605469 3.503906-4.191407c17.125-20.492187 25.863282-47.511719 23.96875-74.128906l-.636718-8.957031-53.921876 55.9375c-.34375.359375-.738281.761718-1.167968 1.167968l-4.777344 4.480469 6.171875 2.203125c9.910156 3.539063 18.40625 10.246094 23.921875 18.882813zm0 0" fill="#5bd0fc"/><path d="m126.066406 386.03125c2.074219 1.527344 3.648438 2.210938 5.101563 2.210938h.664062l.582031-.183594c2.003907-.628906 2.960938-2.394532 4.191407-5.007813l.140625-.292969c4.046875-8.558593 11.035156-15.480468 19.6875-19.488281l1.605468-.761719.523438-1.703124 2.3125-3.230469-3.21875-2.332031c-18.746094-13.589844-36.429688-28.996094-52.5625-45.792969l-5.171875-5.386719-1.617187 7.289062c-6.085938 27.441407 5.328124 58.148438 27.761718 74.679688zm0 0" fill="#5bd0fc"/><path d="m107.789062 215.222656c.398438.121094.804688.183594 1.199219.183594 1.71875 0 3.3125-1.109375 3.847657-2.835938.003906-.003906.003906-.007812.003906-.011718 5.667968-18.1875 26.230468-30.992188 47.890625-29.789063 25.511719 1.417969 44.703125 18.921875 53.871093 29.230469.890626 1 2.21875 1.503906 3.558594 1.3125 1.332032-.179688 2.484375-1.015625 3.074219-2.222656 6.917969-14.152344 14.566406-31.027344 18.875-48.878906 4.640625-19.214844 4.835937-37.070313.589844-53.070313-2.40625-9.070313-5.941407-16.121094-10.808594-21.554687-6.125-6.84375-14.597656-10.832032-22.734375-10.679688-7.113281.136719-13.269531 3.152344-19.21875 6.070312-2.949219 1.445313-5.730469 2.808594-8.582031 3.816407-9.445313 3.339843-20.390625 2.578125-29.28125-2.035157-1.832031-.953124-3.613281-2.066406-5.5-3.246093-4.070313-2.542969-8.277344-5.171875-13.335938-6.328125-8.738281-1.988282-17.007812-.328125-24.570312 4.933594-14.75 10.269531-23.8125 32.789062-25.992188 49.367187-2.179687 16.601563-.949219 34.714844 3.375 49.6875 1.574219 5.453125 4.1875 11.042969 8.222657 17.59375.621093 1.003906 2.105468 2.785156 5.601562 6.90625 2.382812 2.8125 6.28125 7.410156 7.269531 8.914063.382813 1.214843 1.335938 2.226562 2.644531 2.636718zm-3.765624-16.765625c-1.980469-2.335937-4.449219-5.242187-4.886719-5.917969-3.640625-5.914062-5.972657-10.871093-7.335938-15.601562-4.03125-13.949219-5.167969-30.859375-3.128906-46.402344 2.015625-15.351562 10.425781-35.324218 22.601563-43.796875 4.097656-2.855469 8.457031-4.285156 13.011718-4.285156 1.695313 0 3.417969.199219 5.164063.59375 3.730469.851563 7.1875 3.011719 10.851562 5.300781 1.9375 1.214844 3.941407 2.46875 6.0625 3.566406 10.832031 5.621094 24.167969 6.550782 35.679688 2.480469 3.289062-1.160156 6.417969-2.695312 9.441406-4.175781 5.398437-2.648438 10.496094-5.148438 15.824219-5.25 5.796875-.125 11.992187 2.878906 16.574218 7.996094 4 4.464844 6.949219 10.433594 9.023438 18.246094 3.898438 14.6875 3.683594 31.210937-.636719 49.109374-3.609375 14.957032-9.75 29.363282-15.730469 41.949219-16.457031-16.742187-35.929687-26.46875-55.363281-27.550781-22.382812-1.21875-43.917969 10.648438-53.160156 28.472656-1.101563-1.324218-2.421875-2.882812-3.992187-4.734375zm0 0"/><path d="m180.011719 216.394531-.695313-.527343c-1.183594-.898438-2.582031-2.4375-3.933594-3.925782-2.375-2.613281-4.828124-5.3125-7.777343-6.699218-9.421875-4.433594-25.734375 11.695312-27.566407 13.550781-3.996093 4.046875-6.308593 9.339843-6.34375 14.527343-.042968 5.996094 3.074219 11.710938 7.941407 14.558594 2.222656 1.296875 4.746093 1.925782 7.25 1.925782 3.664062 0 7.273437-1.351563 9.792969-3.933594 2.308593-2.363282 3.582031-5.707032 3.484374-9.179688-.011718-.296875-.027343-.59375-.054687-.886718l2.289063.175781c.019531 1.121093.199218 2.265625.535156 3.398437.96875 3.226563 3.140625 5.949219 5.960937 7.46875 5.324219 2.867188 12.457031 1.488282 16.589844-3.214844 3.738281-4.246093 4.722656-10.78125 2.445313-16.25-2.113282-5.089843-6.257813-8.222656-9.917969-10.988281zm1.421875 21.914063c-1.664063 1.894531-4.671875 2.539062-6.710938 1.441406-.941406-.503906-1.710937-1.507812-2.0625-2.683594-.308594-1.035156-.25-2.070312.167969-2.839844.648437-1.203124.644531-2.648437-.007813-3.847656-.65625-1.199218-1.871093-1.984375-3.230468-2.089844l-13.527344-1.03125c-1.714844-.125-3.324219.839844-4.007812 2.417969-.683594 1.578125-.289063 3.414063.976562 4.574219.652344.59375 1.039062 1.566406 1.070312 2.667969.035157 1.28125-.40625 2.523437-1.1875 3.320312-1.675781 1.71875-4.910156 2.023438-7.207031.679688-2.386719-1.394531-3.972656-4.425781-3.949219-7.539063.019532-3.101562 1.484376-6.355468 4.019532-8.921875 6.921875-7.007812 16.25-12.65625 18.402344-11.914062 1.488281.699219 3.476562 2.890625 5.234374 4.820312 1.597657 1.761719 3.25 3.578125 5.023438 4.925781l.714844.542969c3.113281 2.351563 6.058594 4.574219 7.332031 7.644531 1.105469 2.652344.667969 5.875-1.050781 7.832032zm0 0"/><path d="m118.1875 168.488281 19.273438-.820312c3.28125-.140625 8.246093-.355469 11.863281-3.714844 3.035156-2.8125 3.953125-6.648437 4.144531-10.25h12.996094c.191406 3.601563 1.109375 7.4375 4.140625 10.25 3.625 3.359375 8.585937 3.574219 11.867187 3.714844l19.273438.820312c1.207031.050781 2.527344.109375 3.910156.109375 4.054688 0 8.671875-.484375 12.664062-2.976562 4.292969-2.683594 7.347657-7.382813 8.601563-13.234375 1.050781-4.921875.71875-9.976563.453125-14.042969-.261719-4.027344-4.457031-4.441406-8.894531-4.882812-2.894531-.285157-6.910157-.546876-11.9375-.777344-8.957031-.40625-18.027344-.574219-19.441407-.589844-.636718-.007812-1.601562-.085938-2.625-.167969-4.488281-.363281-10.070312-.8125-13.535156 1.773438-3.613281 2.699219-4.273437 7.617187-4.410156 11.941406h-13.128906c-.136719-4.324219-.796875-9.242187-4.414063-11.941406-3.464843-2.585938-9.046875-2.136719-13.53125-1.773438-1.023437.082031-1.988281.160157-2.625.167969-1.414062.015625-10.484375.183594-19.441406.589844-5.027344.226562-9.042969.488281-11.9375.777344-4.4375.441406-8.632813.855468-8.894531 4.882812-.269532 4.066406-.597656 9.121094.453125 14.046875 1.257812 5.847656 4.308593 10.546875 8.597656 13.226563 3.996094 2.496093 8.613281 2.980468 12.667969 2.980468 1.382812 0 2.703125-.058594 3.910156-.109375zm56.332031-17.84375c.027344-.664062.03125-1.4375.035157-2.277343.007812-1.8125.035156-7.332032 1.199218-8.199219.535156-.34375 1.84375-.449219 3.292969-.449219 1.769531 0 3.746094.160156 4.78125.242188 1.21875.097656 2.269531.183593 3.179687.195312 7.808594.089844 26.011719.683594 32.488282 1.511719.148437 2.988281.160156 6.132812-.460938 9.03125-.78125 3.644531-2.601562 6.589843-4.988281 8.082031-2.996094 1.871094-7.1875 1.855469-11.960937 1.652344l-19.273438-.820313c-2.78125-.121093-5.386719-.328125-6.726562-1.570312-1.617188-1.503907-1.667969-4.941407-1.566407-7.398438zm-73.625.054688c-.621093-2.898438-.609375-6.042969-.460937-9.027344 6.476562-.832031 24.679687-1.425781 32.484375-1.515625.914062-.011719 1.964843-.097656 3.183593-.191406 1.882813-.15625 6.886719-.558594 8.066407.195312 1.171875.878906 1.199219 6.394532 1.207031 8.210938.007812.839844.011719 1.609375.039062 2.277344.101563 2.453124.046876 5.894531-1.574218 7.394531-1.335938 1.242187-3.941406 1.453125-6.722656 1.570312l-19.273438.820313c-4.773438.203125-8.964844.222656-11.960938-1.652344-2.386718-1.492188-4.203124-4.4375-4.988281-8.082031zm0 0"/><path d="m314.796875 402.75c-7.558594-39.660156-27.886719-72.359375-55.773437-89.71875-3.894532-2.421875-7.960938-4.578125-11.894532-6.660156-6.113281-3.238282-11.886718-6.296875-17.082031-10.28125-9.390625-7.203125-14.554687-16.609375-13.808594-25.160156.011719-.152344-.003906-.300782-.007812-.453126.847656-.558593 1.734375-1.105468 2.644531-1.664062 2.164062-1.328125 4.398438-2.699219 6.46875-4.488281 5.597656-4.839844 8.636719-11.550781 11.046875-17.460938 4.234375-10.386719 8.828125-23.53125 12.078125-37.953125 8.277344-2.707031 15.121094-7.953125 19.285156-14.808594 4.621094-7.597656 5.5625-17.148437 2.457032-24.917968-3.046876-7.621094-9.882813-13.257813-17.546876-14.742188.34375-12.933594 1.800782-25.613281 3.316407-38.847656.808593-7.050781 1.648437-14.347656 2.296875-21.675781 2.601562-29.261719-1.890625-51.511719-13.742188-68.027344-2.414062-3.367187-6.292968-8.042969-12.054687-9.765625-3.335938-.996094-7.273438-.648438-10.46875 1.015625-2.824219-5.445313-7.65625-9.851563-13.445313-11.980469-6.738281-2.472656-14.492187-1.75-20.726562 1.746094-4.292969-4.578125-10.558594-7.207031-16.878906-6.8789062-6.34375.3242182-12.304688 3.5820312-16.109376 8.5859372-5.621093-2.902343-11.84375-5.71875-18.675781-6.425781-8.207031-.855469-15.875 1.808594-20.613281 6.929688-3.308594-1.875-7.5-3.753907-12.152344-4.351563-6.734375-.871094-13.164062 1.214844-17.214844 5.574219-3.082031 3.320312-4.421874 7.886718-3.925781 12.101562-1.925781.359375-3.835937 1.097656-5.660156 2.195313-5.050781 3.050781-8.792969 8.53125-9.757813 14.296875-1.484374 8.871094 1.964844 17.304687 5.824219 24.523437-5.378906 21.027344-7.667969 42.757813-6.808593 64.617188.40625 10.289062 2.105468 20.296875 3.78125 29.984375-7.519532 1.871094-14.078126 7.367187-17.09375 14.527344-3.328126 7.894531-2.210938 17.46875 2.847656 24.390624 4.386718 6.003907 11.578125 9.78125 18.976562 10.171876.515625 7.804687 1.425782 15.652343 3.394532 23.324218 4.132812 16.140625 12.683593 28.9375 24.078124 36.03125.371094.230469.753907.449219 1.132813.671875-.222656.988281-.085937 2.054688.480469 2.988281 5.929687 9.773438 1.808594 22.996094-5.332032 31.007813-8.132812 9.132813-19.988281 14.246094-31.433593 18.703125l-2.960938 1.144531c-11.328125 4.375-23.039062 8.902344-32.636719 17-10.65625 8.988281-23.492187 24.933594-28.222656 68.765625-3.261718 30.183594-3.753906 60.839844-1.464844 91.113282.195313 2.578124.488282 6.480468 2.988282 9.566406 4.28125 5.28125 11.757812 4.625 15.351562 4.308594 11.640625-1.019532 23.851563-.671876 35.664063-.335938 5.960937.171875 12.121093.347656 18.164062.347656h.015625l59.4375-.003906c9.996094-.003906 20.175782-.132812 30.019532-.257812 19.609374-.246094 39.886718-.503907 59.675781.242187 4.492187.167969 9.003906.234375 13.515625.234375 8.566406 0 17.121094-.242188 25.488281-.476562 16.164063-.457032 32.878906-.929688 49.242187.367187 2.167969.183594 4.078126-1.398437 4.324219-3.554687 3.4375-29.882813 6.488281-68.886719-.503906-105.585938zm-115.710937-22.671875c-6.027344-9.445313-15.382813-16.730469-25.945313-20.492187.492187-.46875.933594-.925782 1.324219-1.332032l47.679687-49.457031c1.820313 25.582031-6.617187 51.609375-23.058593 71.28125zm-96.878907-67.859375c16.269531 16.9375 34.097657 32.476562 53.097657 46.257812-.246094.347657-.425782.742188-.550782 1.160157-9.417968 4.367187-17.160156 11.972656-21.628906 21.414062l-.125.269531c-.394531.828126-1.304688 2.765626-1.78125 2.917969-.007812.003907-.648438.140625-2.78125-1.429687-21.242188-15.644532-31.933594-44.851563-26.230469-70.589844zm160.515625-140.042969c2.183594 5.464844 1.472656 12.261719-1.855468 17.738281-2.371094 3.902344-6.070313 7.214844-10.5 9.496094 1.796874-10.335937 2.777343-21.136718 2.359374-31.910156-.0625-1.601562-.09375-3.1875-.117187-4.773438 4.394531 1.375 8.308594 4.929688 10.113281 9.449219zm-200.8125 20.042969c-3.421875-4.683594-4.179687-11.160156-1.925781-16.503906 1.96875-4.671875 6.160156-8.300782 11.019531-9.691406 1.21875 7.410156 2.277344 14.96875 2.570313 22.558593.0625 1.554688.117187 3.113281.171875 4.671875.070312 1.917969.136718 3.84375.21875 5.78125-4.722656-.480468-9.242188-2.972656-12.054688-6.816406zm23.671875 36.253906c-2.921875-11.414062-3.355469-23.660156-3.777343-35.503906-.054688-1.570312-.109376-3.136719-.171876-4.703125-.414062-10.621094-2.195312-20.917969-3.917968-30.875-1.667969-9.652344-3.394532-19.628906-3.789063-29.632813-.851562-21.597656 1.488281-43.066406 6.949219-63.800781.265625-1 .132812-2.066406-.367188-2.972656-3.476562-6.308594-6.875-13.699219-5.699218-20.71875.578125-3.460937 2.921875-6.882813 5.96875-8.726563 1.070312-.644531 2.554687-1.289062 4.226562-1.289062.640625 0 1.304688.09375 1.984375.320312 1.722657.5625 3.601563-.078124 4.609375-1.578124 1.007813-1.496094.898438-3.484376-.273437-4.859376-1.761719-2.078124-1.398438-5.960937.777343-8.304687 2.246094-2.417969 6.183594-3.597656 10.277344-3.066406 3.578125.460937 7.394532 2.078125 12.015625 5.089843.929688.601563 2.066407.800782 3.144531.539063 1.078126-.257813 2-.949219 2.550782-1.910156 2.941406-5.121094 9.789062-6.839844 15.253906-6.273438 6.652344.691407 12.960938 4.042969 19.066406 7.285157.96875.511718 2.105469.609374 3.144532.269531 1.042968-.339844 1.902343-1.089844 2.375-2.078125 2.078124-4.304688 6.675781-7.355469 11.445312-7.601563 4.746094-.242187 9.65625 2.328125 12.160156 6.394531.609375.992188 1.617188 1.667969 2.765625 1.863282 1.152344.1875 2.324219-.121094 3.222657-.859375 4.394531-3.601563 10.929687-4.710938 16.265624-2.746094 5.335938 1.960937 9.601563 7.03125 10.621094 12.625.328125 1.808594 1.839844 3.164063 3.671875 3.296875 1.839844.125 3.527344-.988281 4.113281-2.730469.597657-1.769531 3.554688-2.792969 5.976563-2.074219 2.585937.777344 5.070313 2.917969 7.816406 6.746094 10.675781 14.875 14.6875 35.355469 12.261719 62.609375-.644531 7.226563-1.472656 14.46875-2.277344 21.472657-1.96875 17.167968-4.003906 34.921874-3.300781 53.132812 1.089844 28.238281-7.960937 56.917969-15.746094 76.007812-2.054687 5.046876-4.605469 10.734376-8.851562 14.40625-1.574219 1.359376-3.4375 2.503907-5.414063 3.714844-2.203125 1.351563-4.480468 2.75-6.585937 4.589844-5.898438 5.164062-8.757813 12.230469-11.523438 19.066406-.464843 1.144532-.921875 2.28125-1.398437 3.402344-3.164063 7.5-6.339844 12.390625-10.292969 15.855469-4.714844 4.132812-10.6875 5.855469-15.582031 4.5-2.933594-.8125-5.65625-2.707031-8.535156-4.707031-2.332032-1.617188-4.738282-3.289063-7.484376-4.566407-2.363281-1.097656-4.863281-1.871093-7.28125-2.617187-4.785156-1.476563-8.914062-2.753906-10.695312-5.953125-.800781-1.441407-1.117188-3.371094-1.453125-5.414063-.289063-1.769531-.589844-3.59375-1.222656-5.464844-3.046875-8.964843-11.582031-13.234374-19.113281-17.003906-2.636719-1.320312-5.125-2.566406-7.378907-3.96875-9.625-5.992187-16.914062-17.070312-20.53125-31.1875zm27.5625 44.019532c5.445313 2.832031 10.167969 5.859374 11.828125 10.734374.417969 1.234376.652344 2.660157.898438 4.167969.410156 2.515625.878906 5.363281 2.363281 8.035157 3.351563 6.027343 9.730469 7.996093 15.359375 9.734374 2.261719.699219 4.394531 1.359376 6.261719 2.226563 2.117187.984375 4.144531 2.390625 6.285156 3.878906 3.304687 2.296875 6.726563 4.671875 10.980469 5.851563 1.789062.496094 3.65625.734375 5.550781.734375 6.035156 0 12.375-2.449219 17.5-6.941407 6.300781-5.523437 9.941406-12.9375 12.410156-18.78125.488281-1.160156.964844-2.335937 1.441407-3.515624 1.46875-3.628907 2.902343-7.128907 4.710937-10.199219 1.5 7.144531 5.652344 14.210937 11.964844 20.253906l-52.039063 53.984375c-.851562.886719-2.140625 2.222656-3.035156 2.363281-1.097656.164063-3.109375-1.261719-4.074219-1.953125-20.011719-14.367187-38.710937-30.730468-55.644531-48.636718 8.515625-10.808594 9.816406-22.847657 7.238281-31.9375zm109.890625 231.214843c-19.992187-.753906-40.375-.496093-60.082031-.246093-9.820313.125-19.972656.253906-29.914063.253906l-59.441406.007812c-.003906 0-.007812 0-.015625 0-2.316406 0-4.664062-.03125-7.015625-.074218 1.351563-15.761719 2.328125-31.613282 2.933594-47.492188 24.257812.375 48.648438.570312 73.0625.570312 33.683594 0 67.40625-.359374 100.851562-1.078124.050782 0 .101563-.015626.152344-.019532.808594 16.121094 2.1875 32.210938 4.128906 48.183594-8.214843.164062-16.5.203125-24.660156-.105469zm84.6875-.128906c-15.515625-.980469-31.105468-.539063-46.214844-.113281-1.898437.050781-3.800781.105468-5.714843.15625-4.386719-35.75-5.921875-72.089844-4.539063-108.070313.085938-2.222656-1.648437-4.097656-3.875-4.183593-2.199218-.074219-4.097656 1.648437-4.183594 3.875-.667968 17.398437-.652343 34.882812.015626 52.347656-57.535157 1.230468-115.875 1.398437-173.4375.503906.660156-21.921875.613281-43.875-.15625-65.679688-.082032-2.226562-1.953126-4.003906-4.171876-3.886718-2.226562.078125-3.964843 1.945312-3.886718 4.171875 1.421875 40.125.382812 80.738281-3.066406 120.757812-.949219-.027343-1.902344-.050781-2.84375-.078125-12.039063-.34375-24.488282-.703125-36.597657.363282-3.363281.292968-6.988281.363281-8.378906-1.355469-.847656-1.042969-1.058594-3.007813-1.21875-5.097657-2.25-29.785156-1.765625-59.945312 1.441406-89.640624 2.324219-21.53125 7.3125-48.199219 25.40625-63.46875 8.566407-7.226563 19.636719-11.503907 30.34375-15.636719l2.980469-1.15625c7.773438-3.027344 16.21875-6.574219 23.746094-11.617188-1.71875 11.960938-.511719 24.648438 3.585937 36.554688 5.144531 14.953125 14.628907 28.085937 26.703125 36.976562 1.21875.898438 4.078125 3.003907 7.519532 3.003907.804687 0 1.640624-.113282 2.496093-.386719 3.816407-1.222657 5.5-4.792969 6.617188-7.160157l.121093-.257812c4.15625-8.78125 12.128907-15.882812 21.332032-18.996094.234375-.078125.445312-.183594.652344-.296875 13.714843 1.898438 26.363281 10.96875 32.277343 23.523438.566407 1.207031 1.695313 2.054687 3.015625 2.265625.210938.035156.421875.050781.628906.050781 1.105469 0 2.171876-.453125 2.9375-1.273437 20.925782-22.257813 31.585938-53.484376 28.734376-83.882813 4.355468 2.824219 8.914062 5.246094 13.363281 7.605469 3.808593 2.019531 7.75 4.105468 11.40625 6.382812 25.980469 16.167969 44.976562 46.921875 52.113281 84.378906 6.5 34.09375 4.027344 70.554688.847656 99.320313zm0 0"/></svg>